<svg xmlns="http://www.w3.org/2000/svg"  viewBox="0 0 48 48" width="20px" height="20px"><path fill="#373837" d="M21.268,35.57c-0.904,0.011-1.799-0.16-2.683-0.351c-0.836-0.181-1.673-0.382-2.46-0.719 c-2.152-0.923-3.799-2.855-4.578-5.064c-0.779-2.208-0.729-4.663-0.076-6.912c0.277-0.954,0.669-1.893,1.3-2.66 c0.765-0.93,1.836-1.554,2.921-2.077c2.836-1.367,5.939-2.176,9.082-2.368c1.134-0.069,2.399-0.11,3.197-0.919 c0.781-0.791,0.825-2.056,0.584-3.141c-0.152-0.684-0.411-1.368-0.899-1.87c-1.069-1.099-2.829-1.007-4.353-0.835 c-1.016,0.115-2.192,0.334-2.664,1.241c-0.183,0.352-0.226,0.76-0.368,1.131c-0.503,1.318-2.085,1.859-3.493,1.951 c-1.227,0.08-2.467-0.056-3.647-0.399c-0.245-0.071-0.503-0.161-0.661-0.361c-0.138-0.175-0.179-0.406-0.202-0.627 c-0.174-1.682,0.513-3.819,1.579-5.131c0.783-0.963,1.727-2.008,2.725-2.649c2.653-1.703,6.109-1.402,9.166-0.633 c1.807,0.455,3.596,1.06,5.179,2.041c1.584,0.982,2.959,2.367,3.692,4.08c0.767,1.792,0.789,3.802,0.8,5.751 c0.013,2.512,0.027,5.024,0.04,7.536c0.008,1.455,0.045,3.009,0.872,4.206c0.562,0.813,1.452,1.398,1.844,2.306 c0.622,1.442-0.239,3.079-1.214,4.309c-0.478,0.603-1.027,1.203-1.757,1.448c-0.486,0.163-1.012,0.153-1.523,0.106 c-1.049-0.096-2.118-0.354-2.957-0.991s-1.331-1.814-1.129-2.848C27.176,33.312,24.524,35.53,21.268,35.57z M27.213,19.727 c-1.194,0.229-2.659,0.243-3.853,0.472c-1.236,0.237-2.497,0.484-3.593,1.103c-1.096,0.619-2.018,1.688-2.122,2.942 c-0.049,0.589,0.081,1.177,0.228,1.749c0.195,0.763,0.435,1.548,0.963,2.133c0.755,0.836,1.963,1.105,3.09,1.1 c2.104-0.01,4.357-1.012,5.177-2.95C27.931,24.315,26.834,21.824,27.213,19.727z"/><path fill="#010101" d="M21.186,36.07c-0.943,0-1.854-0.178-2.706-0.361c-0.787-0.171-1.698-0.383-2.552-0.748 c-2.186-0.938-3.999-2.94-4.852-5.357c-0.771-2.187-0.802-4.75-0.085-7.218c0.347-1.189,0.803-2.118,1.396-2.838 c0.863-1.051,2.047-1.707,3.09-2.21c2.874-1.386,6.079-2.222,9.268-2.417l0.148-0.009c1.03-0.062,2.095-0.125,2.724-0.763 c0.771-0.78,0.572-2.135,0.451-2.681c-0.163-0.732-0.415-1.266-0.769-1.63c-0.914-0.939-2.511-0.847-3.938-0.687 c-0.976,0.109-1.927,0.304-2.276,0.975c-0.082,0.158-0.133,0.352-0.187,0.558c-0.046,0.176-0.093,0.352-0.158,0.521 c-0.493,1.293-1.962,2.143-3.927,2.271c-1.291,0.085-2.576-0.056-3.819-0.417c-0.226-0.067-0.643-0.189-0.914-0.533 c-0.219-0.274-0.278-0.603-0.307-0.886c-0.185-1.786,0.51-4.047,1.688-5.497c0.678-0.834,1.71-2.027,2.843-2.754 c2.336-1.499,5.466-1.726,9.558-0.697c2.22,0.56,3.91,1.228,5.32,2.102c1.27,0.787,2.976,2.173,3.889,4.309 c0.819,1.914,0.83,4.056,0.84,5.944l0.04,7.535c0.008,1.539,0.073,2.896,0.783,3.925c0.204,0.295,0.462,0.563,0.735,0.846 c0.437,0.453,0.888,0.922,1.156,1.548c0.585,1.355,0.143,3.021-1.281,4.816c-0.53,0.669-1.139,1.327-1.99,1.612 c-0.591,0.197-1.206,0.177-1.726,0.13c-1.359-0.124-2.411-0.48-3.215-1.091c-0.682-0.518-1.15-1.312-1.311-2.143 c-2.301,2.016-4.814,3.808-7.829,3.845l0,0C21.244,36.07,21.215,36.07,21.186,36.07z M24.836,8.055c1.222,0,2.358,0.242,3.18,1.087 c0.487,0.501,0.823,1.19,1.028,2.11c0.332,1.492,0.07,2.805-0.717,3.601c-0.897,0.909-2.214,0.988-3.375,1.058l-0.147,0.009 c-3.06,0.188-6.136,0.989-8.895,2.319c-0.944,0.456-2.011,1.044-2.752,1.944c-0.505,0.613-0.899,1.426-1.206,2.482 c-0.659,2.269-0.636,4.614,0.067,6.606c0.761,2.157,2.369,3.941,4.303,4.77c0.771,0.331,1.627,0.529,2.368,0.69 c0.824,0.177,1.71,0.346,2.571,0.339l0,0c3.029-0.037,5.507-2.063,7.989-4.318c0.158-0.146,0.394-0.171,0.581-0.065 c0.188,0.105,0.287,0.32,0.245,0.531c-0.161,0.827,0.234,1.817,0.941,2.354c0.649,0.493,1.533,0.785,2.7,0.892 c0.416,0.038,0.9,0.058,1.317-0.082c0.604-0.202,1.09-0.737,1.524-1.285c0.823-1.038,1.69-2.54,1.146-3.8 c-0.197-0.459-0.567-0.843-0.959-1.249c-0.288-0.3-0.587-0.61-0.837-0.972c-0.944-1.367-0.953-3.097-0.961-4.487l-0.04-7.535 c-0.009-1.795-0.02-3.829-0.76-5.557c-0.811-1.896-2.349-3.142-3.496-3.853c-1.32-0.818-2.921-1.448-5.037-1.981 c-3.813-0.957-6.684-0.773-8.773,0.569c-1.012,0.648-1.973,1.762-2.607,2.543c-1.009,1.24-1.627,3.244-1.47,4.764 c0.014,0.133,0.036,0.292,0.096,0.367c0.075,0.095,0.294,0.159,0.412,0.194c1.129,0.328,2.292,0.459,3.474,0.379 c0.586-0.038,2.538-0.269,3.058-1.63c0.052-0.135,0.087-0.276,0.124-0.417c0.063-0.239,0.134-0.51,0.268-0.767 c0.643-1.236,2.27-1.419,3.052-1.507C23.781,8.099,24.316,8.055,24.836,8.055z"/><path fill="#010101" d="M21.889,29.727c-1.05,0-2.482-0.223-3.425-1.265c-0.613-0.68-0.877-1.566-1.076-2.344 c-0.153-0.6-0.299-1.241-0.241-1.915c0.109-1.311,0.996-2.558,2.374-3.336c1.175-0.663,2.481-0.915,3.745-1.159 c0.621-0.118,1.308-0.182,1.972-0.242c0.643-0.059,1.307-0.119,1.881-0.229c0.166-0.031,0.329,0.02,0.446,0.136 s0.17,0.282,0.141,0.444c-0.151,0.837-0.045,1.757,0.067,2.73c0.152,1.324,0.311,2.692-0.21,3.925 c-0.946,2.235-3.513,3.245-5.636,3.255C21.914,29.727,21.901,29.727,21.889,29.727z M26.642,20.324 c-0.431,0.058-0.877,0.098-1.313,0.138c-0.64,0.059-1.302,0.119-1.874,0.229c-1.184,0.229-2.409,0.464-3.441,1.048 c-0.841,0.475-1.773,1.394-1.87,2.548c-0.044,0.52,0.082,1.067,0.214,1.584c0.177,0.692,0.389,1.411,0.85,1.922 c0.706,0.78,1.909,0.934,2.716,0.935c1.796-0.009,3.951-0.829,4.72-2.645c0.418-0.989,0.281-2.17,0.138-3.421 C26.689,21.89,26.599,21.097,26.642,20.324z"/><path fill="#febf10" d="M3.883,36.757c5.266,2.29,10.632,3.624,16.325,4.368s11.798,0.506,17.116-1.659 c1.08-0.44,2.141-0.952,3.281-1.196c0.283,0.433-0.179,0.961-0.601,1.259c-4.486,3.171-9.668,4.82-15.16,4.97 s-11.271-1.198-15.924-4.119C7.21,39.308,5.668,37.698,3.883,36.757z"/><path fill="#010101" d="M23.994,45.012c-5.581,0-10.998-1.481-15.341-4.207c-0.772-0.484-1.513-1.076-2.229-1.648 c-0.892-0.713-1.813-1.45-2.775-1.957c-0.237-0.126-0.334-0.417-0.218-0.659c0.117-0.243,0.406-0.346,0.65-0.242 c4.899,2.131,10.195,3.548,16.19,4.331c6.374,0.836,12.203,0.271,16.863-1.625c0.228-0.093,0.454-0.188,0.681-0.284 c0.855-0.362,1.739-0.736,2.684-0.938c0.201-0.038,0.41,0.042,0.522,0.216c0.388,0.592,0.102,1.354-0.73,1.94 c-4.53,3.203-9.724,4.906-15.435,5.063C24.569,45.008,24.281,45.012,23.994,45.012z M7.437,38.684 c0.586,0.465,1.154,0.901,1.748,1.273c4.401,2.762,9.934,4.202,15.646,4.043c5.51-0.15,10.518-1.792,14.885-4.879 c0.065-0.046,0.124-0.093,0.175-0.139c-0.56,0.183-1.11,0.416-1.684,0.658c-0.231,0.098-0.462,0.195-0.693,0.289 c-4.82,1.961-10.826,2.543-17.369,1.691C15.551,41.021,11.358,40.053,7.437,38.684z"/><path fill="#febf10" d="M44.336,34.873c-1.628-0.473-3.832-0.053-5.645,0.535c-0.346,0.112-0.756,0.345-0.709,0.705 c0.054,0.411,0.613,0.479,1.026,0.453c0.853-0.054,1.709-0.05,2.562,0.013c0.384,0.028,0.818,0.098,1.031,0.418 c0.123,0.184,0.145,0.417,0.137,0.637c-0.03,0.804-0.408,1.546-0.713,2.29c-0.087,0.211-0.169,0.445-0.102,0.664 c0.106,0.346,0.556,0.486,0.9,0.373s0.599-0.399,0.822-0.685c0.946-1.209,1.702-2.659,1.702-4.194 C45.347,35.309,44.572,34.942,44.336,34.873z"/><path fill="#010101" d="M42.577,41.5c-0.211,0-0.421-0.049-0.604-0.145c-0.26-0.136-0.447-0.356-0.528-0.621 c-0.124-0.408,0.034-0.793,0.118-0.999l0.158-0.376c0.255-0.599,0.496-1.165,0.518-1.743c0.009-0.204-0.023-0.298-0.052-0.34 c-0.104-0.157-0.518-0.188-0.653-0.197c-0.828-0.062-1.668-0.066-2.492-0.014c-0.898,0.057-1.473-0.274-1.555-0.886 c-0.071-0.544,0.321-1.01,1.051-1.247c1.68-0.545,4.072-1.081,5.938-0.54l0.001,0.001c0.474,0.139,1.37,0.671,1.37,1.69 c0,1.454-0.608,2.97-1.809,4.503c-0.274,0.352-0.594,0.699-1.06,0.852C42.85,41.479,42.714,41.5,42.577,41.5z M40.188,36.028 c0.474,0,0.948,0.018,1.419,0.053c0.31,0.023,1.036,0.077,1.41,0.641c0.163,0.243,0.235,0.549,0.221,0.933 c-0.029,0.763-0.318,1.44-0.598,2.097l-0.152,0.363c-0.071,0.174-0.101,0.284-0.087,0.329c0.017,0.031,0.147,0.083,0.269,0.044 c0.209-0.068,0.402-0.289,0.58-0.517c1.06-1.354,1.597-2.661,1.597-3.887c0-0.508-0.645-0.729-0.651-0.731 c-1.263-0.364-3.162-0.179-5.35,0.531c-0.205,0.066-0.32,0.147-0.361,0.19c0.041-0.024,0.16-0.002,0.352-0.002 c0.044,0,0.091-0.002,0.141-0.005C39.379,36.042,39.783,36.028,40.188,36.028z"/></svg>