<?xml version="1.0" encoding="UTF-8"?>
<svg version="1.1" xmlns="http://www.w3.org/2000/svg" width="200" height="200">
<path d="M0 0 C66 0 132 0 200 0 C200 66 200 132 200 200 C134 200 68 200 0 200 C0 134 0 68 0 0 Z " fill="#FB4D63" transform="translate(0,0)"/>
<path d="M0 0 C66 0 132 0 200 0 C200 66 200 132 200 200 C134 200 68 200 0 200 C0 134 0 68 0 0 Z M78 10 C76.93523437 10.22171875 75.87046875 10.4434375 74.7734375 10.671875 C53.06605601 15.86596628 33.75597971 31.81614795 21.8515625 50.34375 C9.18554178 71.21604799 3.84074653 95.79095676 9.54125977 119.84594727 C12.3910595 130.44737453 16.24549534 140.6222887 22 150 C22.66 150 23.32 150 24 150 C24.24363281 150.72445312 24.48726562 151.44890625 24.73828125 152.1953125 C27.02921055 157.28784266 31.19342552 160.98545042 35 165 C35.88945313 165.96873047 35.88945313 165.96873047 36.796875 166.95703125 C49.07353643 179.90598605 65.81685239 187.29547244 83 191 C83.78656982 191.17362061 84.57313965 191.34724121 85.38354492 191.52612305 C108.39075819 195.69305418 131.86189695 189.22461375 151.3046875 176.90625 C170.75128822 162.96531027 184.72654831 143.53277819 190 120 C190.20625 119.10023437 190.4125 118.20046875 190.625 117.2734375 C195.41712036 93.11316402 189.74112649 69.86125742 177 49 C174.55798142 45.43670137 171.89008578 42.20852594 169 39 C168.54383301 38.48937012 168.08766602 37.97874023 167.61767578 37.45263672 C159.71046745 28.72073431 151.42281111 22.44666329 141 17 C139.61554688 16.24783203 139.61554688 16.24783203 138.203125 15.48046875 C120.13436732 6.41871301 97.46440564 5.20361351 78 10 Z " fill="#FEFDFD" transform="translate(0,0)"/>
<path d="M0 0 C0.96292969 0.51046875 1.92585937 1.0209375 2.91796875 1.546875 C22.29748002 12.65359638 36.57380615 33.53030272 43.12109375 54.609375 C49.54522365 79.39224056 46.05853807 104.16294132 33.5625 126.375 C19.68403309 149.0219972 -0.56932075 163.73533692 -26.2109375 170.50854492 C-42.05496547 174.16593699 -58.65322431 173.17783914 -74 168 C-75.1240625 167.63777344 -76.248125 167.27554688 -77.40625 166.90234375 C-94.75063136 160.8111622 -109.9736165 148.69311435 -121 134 C-121.73828125 131.71484375 -121.73828125 131.71484375 -122 130 C-122.66 130 -123.32 130 -124 130 C-128.99384697 120.55775051 -133.39658937 111.42653069 -136 101 C-136.17515137 100.34749268 -136.35030273 99.69498535 -136.53076172 99.02270508 C-142.13054839 76.6510328 -137.2662388 52.71980997 -126 33 C-123.56136355 29.11357347 -120.92153891 25.53483906 -118 22 C-117.32453125 21.16210938 -116.6490625 20.32421875 -115.953125 19.4609375 C-87.02990441 -14.63468386 -38.21589953 -21.52108086 0 0 Z M-98.5 18.91796875 C-111.45136697 35.38409813 -115.49413087 53.42391045 -114 74 C-111.31801647 92.78216244 -101.03167142 110.51067596 -86 122 C-73.84490488 130.77979598 -60.48341676 134.17904224 -45.75 134.1875 C-44.64269531 134.19974609 -43.53539063 134.21199219 -42.39453125 134.22460938 C-27.59278993 134.25100963 -16.10079021 129.33137473 -4 121 C-3.23429687 120.47535156 -2.46859375 119.95070313 -1.6796875 119.41015625 C-0.84824219 118.71212891 -0.84824219 118.71212891 0 118 C0 117.34 0 116.68 0 116 C1.32 115.34 2.64 114.68 4 114 C4 113.34 4 112.68 4 112 C4.66 112 5.32 112 6 112 C19.70170585 96.03821895 24.33504026 76.73051989 23.18457031 56.22070312 C22.77059037 51.23980159 21.67482938 46.69490324 20 42 C19.64808594 40.99710938 19.29617187 39.99421875 18.93359375 38.9609375 C12.67020371 22.63064665 0.6682242 8.59630785 -15.0625 0.875 C-45.18602471 -12.2824016 -76.80861504 -6.39994463 -98.5 18.91796875 Z " fill="#FC4C63" transform="translate(146,20)"/>
<path d="M0 0 C11.01016141 8.36056159 17.72997792 17.07333699 20.6875 30.75 C22.23764133 43.36445287 19.03937832 54.3596049 11.8125 64.75 C2.52183279 76.57133402 -9.28241506 82.2585317 -24.1796875 84.10546875 C-38.56361264 84.82661405 -50.84571175 79.21447415 -61.3125 69.75 C-66.81195415 64.67009184 -69.57924661 58.65017555 -72.3125 51.75 C-72.745625 50.656875 -73.17875 49.56375 -73.625 48.4375 C-76.02775026 35.55002131 -74.11273631 24.20713036 -67.10546875 13.203125 C-61.70051632 5.80811383 -55.52899282 0.69515913 -47.3125 -3.25 C-46.24 -3.8275 -45.1675 -4.405 -44.0625 -5 C-30.71080317 -11.06895311 -11.80232409 -7.82642735 0 0 Z " fill="#FC4C63" transform="translate(125.3125,30.25)"/>
<path d="M0 0 C13.41782436 10.47616275 24.34442348 26.7890961 27.02539062 43.76855469 C28.87844254 66.00517771 25.35227815 85.41854856 11.53710938 103.51074219 C10.27539062 104.76855469 10.27539062 104.76855469 8.27539062 104.76855469 C7.28539062 106.74855469 7.28539062 106.74855469 6.27539062 108.76855469 C5.61539063 108.76855469 4.95539063 108.76855469 4.27539062 108.76855469 C4.27539062 109.42855469 4.27539062 110.08855469 4.27539062 110.76855469 C-2.31550648 116.54355737 -9.64153063 120.52021463 -17.72460938 123.76855469 C-18.5315625 124.12175781 -19.33851562 124.47496094 -20.16992188 124.83886719 C-35.26846775 130.33344504 -55.23322243 128.05925349 -69.72460938 121.76855469 C-70.96791016 121.24455078 -70.96791016 121.24455078 -72.23632812 120.70996094 C-88.39833736 112.78854528 -99.86699875 98.12183732 -105.92553711 81.53735352 C-108.71292963 73.37631709 -110.09480624 65.5854987 -110.03710938 56.95605469 C-110.03219482 56.07949219 -110.02728027 55.20292969 -110.0222168 54.29980469 C-109.89867699 47.43732659 -109.0411206 41.26222873 -106.72460938 34.76855469 C-106.19673828 33.26421875 -106.19673828 33.26421875 -105.65820312 31.72949219 C-102.94472359 24.65474357 -99.39362132 18.71826753 -94.72460938 12.76855469 C-94.17933594 12.06988281 -93.6340625 11.37121094 -93.07226562 10.65136719 C-69.89430672 -17.38032899 -29.20970074 -20.85698337 0 0 Z M-93.72460938 14.76855469 C-103.80694987 28.13545147 -106.44797054 44.88716019 -104.26367188 61.21386719 C-101.86274301 72.93604929 -96.56456399 82.79867313 -88.72460938 91.76855469 C-88.21542969 92.37183594 -87.70625 92.97511719 -87.18164062 93.59667969 C-78.79867334 102.78689567 -67.63927585 107.90320691 -55.72460938 110.76855469 C-54.94601563 110.95804687 -54.16742188 111.14753906 -53.36523438 111.34277344 C-35.70650928 114.19011225 -18.26277532 110.17989255 -3.72460938 99.76855469 C3.30157553 94.33186694 8.6646035 88.35100001 13.27539062 80.76855469 C13.98501953 79.63353516 13.98501953 79.63353516 14.70898438 78.47558594 C22.17923931 65.24192958 23.06696358 48.25990681 19.27539062 33.76855469 C13.56526431 16.1526994 1.53507528 3.22286966 -14.72460938 -5.23144531 C-43.34306787 -18.8169894 -73.72239487 -7.6228983 -93.72460938 14.76855469 Z " fill="#FCF7F7" transform="translate(141.724609375,27.2314453125)"/>
<path d="M0 0 C11.01016141 8.36056159 17.72997792 17.07333699 20.6875 30.75 C22.23764133 43.36445287 19.03937832 54.3596049 11.8125 64.75 C2.52183279 76.57133402 -9.28241506 82.2585317 -24.1796875 84.10546875 C-38.56361264 84.82661405 -50.84571175 79.21447415 -61.3125 69.75 C-66.81195415 64.67009184 -69.57924661 58.65017555 -72.3125 51.75 C-72.745625 50.656875 -73.17875 49.56375 -73.625 48.4375 C-76.02775026 35.55002131 -74.11273631 24.20713036 -67.10546875 13.203125 C-61.70051632 5.80811383 -55.52899282 0.69515913 -47.3125 -3.25 C-46.24 -3.8275 -45.1675 -4.405 -44.0625 -5 C-30.71080317 -11.06895311 -11.80232409 -7.82642735 0 0 Z M-44.3125 -0.25 C-45.35083984 0.40355469 -45.35083984 0.40355469 -46.41015625 1.0703125 C-54.79458381 6.80620126 -60.43049189 15.2468948 -62.90234375 25.1015625 C-64.85060616 37.68177123 -62.90651071 48.65893364 -56.109375 59.359375 C-50.50284182 66.81850176 -43.14870633 72.42859479 -34 74.5 C-32.783125 74.5825 -31.56625 74.665 -30.3125 74.75 C-29.4771875 74.81316406 -28.641875 74.87632813 -27.78125 74.94140625 C-17.25610546 75.39966395 -8.35303739 71.46287908 -0.3125 64.75 C4.92649495 59.35841296 7.80127478 53.97569354 9.6875 46.75 C10.0175 45.76 10.3475 44.77 10.6875 43.75 C11.53014615 30.15715056 10.90016101 18.78014983 1.8125 7.890625 C-5.58307025 0.44067555 -13.1768525 -4.42221445 -23.78369141 -4.63037109 C-34.5875823 -4.62144819 -34.5875823 -4.62144819 -44.3125 -0.25 Z " fill="#FBF5F5" transform="translate(125.3125,30.25)"/>
<path d="M0 0 C2.1875 1.1015625 2.1875 1.1015625 5.4375 3.1015625 C5.4375 3.7615625 5.4375 4.4215625 5.4375 5.1015625 C6.0975 5.1015625 6.7575 5.1015625 7.4375 5.1015625 C12.38295215 11.59246845 12.37430159 18.1483082 11.4375 26.1015625 C8.74766449 31.99850959 3.44931287 36.60127064 -2.5625 39.1015625 C-8.79867544 39.90589334 -14.03944798 39.24212149 -19.5625 36.1015625 C-25.24177587 31.61097228 -28.05152046 25.67841929 -29.0625 18.6015625 C-28.20407317 12.5925747 -26.25647708 7.20278897 -21.5625 3.1640625 C-14.89683852 -1.41857977 -7.88723843 -2.76534274 0 0 Z " fill="#FCFBFB" transform="translate(106.5625,30.8984375)"/>
<path d="M0 0 C4.81153954 3.95676748 9.39952201 7.88292196 13 13 C11.02 12.34 9.04 11.68 7 11 C7 10.01 7 9.02 7 8 C5.68 8.99 4.36 9.98 3 11 C3.99 11.99 3.99 11.99 5 13 C5.75 14.9375 5.75 14.9375 6 17 C5.01 18.485 5.01 18.485 4 20 C3.59910156 19.443125 3.19820313 18.88625 2.78515625 18.3125 C-3.40553088 10.00209914 -10.21478931 2.84352678 -20 -1 C-21.03447266 -1.44666016 -21.03447266 -1.44666016 -22.08984375 -1.90234375 C-31.79138506 -5.50103514 -45.5075355 -5.97448012 -55.13671875 -1.8984375 C-55.75160156 -1.60195313 -56.36648437 -1.30546875 -57 -1 C-57.64582031 -0.74476562 -58.29164062 -0.48953125 -58.95703125 -0.2265625 C-69.26851069 4.20717028 -77.0548645 13.10972899 -82 23 C-82.99 22.67 -83.98 22.34 -85 22 C-85 21.34 -85 20.68 -85 20 C-85.66 19.67 -86.32 19.34 -87 19 C-85.35 18.01 -83.7 17.02 -82 16 C-82.66 16 -83.32 16 -84 16 C-84 15.01 -84 14.02 -84 13 C-85.65 13.66 -87.3 14.32 -89 15 C-67.06623461 -11.32051847 -29.49101979 -21.84882861 0 0 Z " fill="#F4546A" transform="translate(137,28)"/>
<path d="M0 0 C12.61766337 9.85142534 24.03868268 25.46330599 26.15039062 41.64355469 C26.19164062 42.67480469 26.23289063 43.70605469 26.27539062 44.76855469 C25.28539062 44.76855469 24.29539063 44.76855469 23.27539062 44.76855469 C22.61539063 50.04855469 21.95539063 55.32855469 21.27539062 60.76855469 C20.94539063 60.76855469 20.61539063 60.76855469 20.27539062 60.76855469 C20.29859375 59.74117188 20.32179688 58.71378906 20.34570312 57.65527344 C20.6686236 37.60021226 15.87696972 22.20456079 2.08789062 7.08105469 C-10.83334319 -5.08182229 -26.42342956 -9.95346115 -43.79589844 -9.68725586 C-62.86487431 -9.00479774 -77.22055747 -1.33943065 -90.38867188 12.11230469 C-95.20498769 17.58905177 -98.85868934 23.67805856 -100.72460938 30.76855469 C-101.38460937 30.43855469 -102.04460937 30.10855469 -102.72460938 29.76855469 C-103.05460937 30.75855469 -103.38460937 31.74855469 -103.72460938 32.76855469 C-104.38460937 32.43855469 -105.04460937 32.10855469 -105.72460938 31.76855469 C-96.84114333 11.54578386 -83.34203097 -2.03650802 -62.72460938 -10.23144531 C-41.93703587 -17.87433414 -17.74582075 -12.67127971 0 0 Z " fill="#FAEAED" transform="translate(141.724609375,27.2314453125)"/>
<path d="M0 0 C1.19278564 -0.00193359 1.19278564 -0.00193359 2.40966797 -0.00390625 C8.52133363 0.10628153 12.86948261 1.22358229 18.1875 4.375 C17.8575 5.035 17.5275 5.695 17.1875 6.375 C16.5275 6.375 15.8675 6.375 15.1875 6.375 C15.6825 8.355 15.6825 8.355 16.1875 10.375 C17.5075 10.705 18.8275 11.035 20.1875 11.375 C19.8575 13.355 19.5275 15.335 19.1875 17.375 C17.1875 16.375 17.1875 16.375 16.0625 13.3125 C15.77375 12.343125 15.485 11.37375 15.1875 10.375 C14.5275 10.375 13.8675 10.375 13.1875 10.375 C13.1875 9.715 13.1875 9.055 13.1875 8.375 C12.23875 8.065625 11.29 7.75625 10.3125 7.4375 C7.1875 6.375 7.1875 6.375 5.1875 5.375 C-1.85922102 4.61612235 -7.44799872 4.72243384 -13.26171875 9.01953125 C-17.03794396 12.32016135 -18.57386447 15.51573754 -19.8125 20.375 C-20.03276802 24.56009244 -19.79957784 28.3033039 -18.8125 32.375 C-20.1325 31.715 -21.4525 31.055 -22.8125 30.375 C-22.8125 27.735 -22.8125 25.095 -22.8125 22.375 C-23.4725 22.375 -24.1325 22.375 -24.8125 22.375 C-24.8125 20.395 -24.8125 18.415 -24.8125 16.375 C-26.7925 17.035 -28.7725 17.695 -30.8125 18.375 C-27.29531789 10.06166046 -20.22841688 4.64968509 -12.078125 1.2265625 C-7.98970237 0.16044272 -4.20923524 -0.00702857 0 0 Z " fill="#F7556E" transform="translate(98.8125,25.625)"/>
<path d="M0 0 C0.74830078 0.62841797 0.74830078 0.62841797 1.51171875 1.26953125 C1.51171875 1.59953125 1.51171875 1.92953125 1.51171875 2.26953125 C-0.92578125 3.14453125 -0.92578125 3.14453125 -4.48828125 3.26953125 C-6.87829062 1.96162951 -8.97931327 0.46387096 -11.14453125 -1.1875 C-18.80082405 -6.22789276 -28.67467601 -5.58265895 -37.48828125 -4.73046875 C-40.91634744 -3.88487909 -43.55021658 -2.66173971 -46.48828125 -0.73046875 C-47.10703125 -0.36824219 -47.72578125 -0.00601562 -48.36328125 0.3671875 C-55.07297217 4.63304703 -59.26735548 11.11191842 -62.48828125 18.26953125 C-63.98828125 16.95703125 -63.98828125 16.95703125 -65.48828125 15.26953125 C-65.48828125 14.27953125 -65.48828125 13.28953125 -65.48828125 12.26953125 C-66.14828125 12.26953125 -66.80828125 12.26953125 -67.48828125 12.26953125 C-67.15828125 13.25953125 -66.82828125 14.24953125 -66.48828125 15.26953125 C-68.46828125 16.58953125 -70.44828125 17.90953125 -72.48828125 19.26953125 C-68.48649675 7.93114184 -60.02907283 0.42237174 -49.48828125 -4.73046875 C-48.41578125 -5.30796875 -47.34328125 -5.88546875 -46.23828125 -6.48046875 C-31.80415925 -13.04143329 -12.37190153 -8.7736106 0 0 Z " fill="#FBF0F1" transform="translate(127.48828125,31.73046875)"/>
<path d="M0 0 C-0.33 0.99 -0.66 1.98 -1 3 C-2.16015625 3.03738281 -3.3203125 3.07476563 -4.515625 3.11328125 C-26.20090469 3.96030795 -42.31329362 9.66234917 -57.6640625 25.34375 C-62.48037832 30.82049709 -66.13407997 36.90950387 -68 44 C-68.66 43.67 -69.32 43.34 -70 43 C-70.33 43.99 -70.66 44.98 -71 46 C-71.66 45.67 -72.32 45.34 -73 45 C-64.11653396 24.77722918 -50.61742159 11.19493729 -30 3 C-20.13576371 -0.62674659 -10.35152405 -0.31054572 0 0 Z " fill="#FBD9DE" transform="translate(109,14)"/>
<path d="M0 0 C23.78877436 -0.82555811 23.78877436 -0.82555811 34 4 C33.34 4.33 32.68 4.66 32 5 C32 5.66 32 6.32 32 7 C32.66 7 33.32 7 34 7 C34 7.66 34 8.32 34 9 C33.34 9 32.68 9 32 9 C32 9.66 32 10.32 32 11 C33.98 11 35.96 11 38 11 C38 12.32 38 13.64 38 15 C34.75687438 13.74459653 31.5609431 12.39287561 28.375 11 C27.61960937 10.67 26.86421875 10.34 26.0859375 10 C24 9 24 9 21 7 C21.99 7 22.98 7 24 7 C24 5.35 24 3.7 24 2 C23.01 2.33 22.02 2.66 21 3 C19.43881572 3.06740865 17.8749748 3.08514456 16.3125 3.0625 C15.10013672 3.04896484 15.10013672 3.04896484 13.86328125 3.03515625 C12.94095703 3.01775391 12.94095703 3.01775391 12 3 C12 2.34 12 1.68 12 1 C8.04 1 4.08 1 0 1 C0 0.67 0 0.34 0 0 Z " fill="#F65368" transform="translate(90,17)"/>
<path d="M0 0 C14.76719976 -0.59665454 28.10420032 0.00998735 40 10 C40 10.33 40 10.66 40 11 C37.5625 11.875 37.5625 11.875 34 12 C31.60999063 10.69209826 29.50896798 9.19433971 27.34375 7.54296875 C22.38603548 4.27914002 17.45863812 3.70520593 11.625 3.375 C10.37976563 3.30023437 9.13453125 3.22546875 7.8515625 3.1484375 C6.91054687 3.09945313 5.96953125 3.05046875 5 3 C5 2.67 5 2.34 5 2 C3.35 1.67 1.7 1.34 0 1 C0 0.67 0 0.34 0 0 Z " fill="#FCECEE" transform="translate(89,23)"/>
<path d="M0 0 C4.97306516 0.49730652 8.63799813 1.55302334 13 4 C12.67 4.66 12.34 5.32 12 6 C11.34 6 10.68 6 10 6 C10.33 7.32 10.66 8.64 11 10 C12.32 10.33 13.64 10.66 15 11 C14.67 12.98 14.34 14.96 14 17 C12 16 12 16 10.875 12.9375 C10.58625 11.968125 10.2975 10.99875 10 10 C9.34 10 8.68 10 8 10 C8 9.34 8 8.68 8 8 C2.76390013 6.07091057 -2.53135543 5.01591421 -8 4 C-4.91190305 2.23537317 -3.76687864 2 0 2 C0 1.34 0 0.68 0 0 Z " fill="#F55B71" transform="translate(104,26)"/>
<path d="M0 0 C4.62 0 9.24 0 14 0 C14 0.66 14 1.32 14 2 C19.94 1.505 19.94 1.505 26 1 C26 2.65 26 4.3 26 6 C24.68 6 23.36 6 22 6 C22 5.34 22 4.68 22 4 C14.08 4 6.16 4 -2 4 C-2 3.34 -2 2.68 -2 2 C-1.34 2 -0.68 2 0 2 C0 1.34 0 0.68 0 0 Z " fill="#FE495E" transform="translate(88,18)"/>
<path d="M0 0 C3.94540382 5.91810572 4.3171081 11.29214257 4.25 18.1875 C4.25773438 18.99380859 4.26546875 19.80011719 4.2734375 20.63085938 C4.27085937 21.40623047 4.26828125 22.18160156 4.265625 22.98046875 C4.26336914 23.68067139 4.26111328 24.38087402 4.25878906 25.10229492 C4 27 4 27 2 30 C1.93941406 29.16855469 1.87882813 28.33710937 1.81640625 27.48046875 C1.73261719 26.39378906 1.64882812 25.30710937 1.5625 24.1875 C1.44068359 22.56908203 1.44068359 22.56908203 1.31640625 20.91796875 C1.09787539 17.94010095 1.09787539 17.94010095 0 15 C-0.66 15 -1.32 15 -2 15 C-2.04241723 12.66705225 -2.04092937 10.33297433 -2 8 C-1.67 7.67 -1.34 7.34 -1 7 C-0.63239269 4.67182036 -0.29758419 2.3381615 0 0 Z " fill="#F7536A" transform="translate(132,47)"/>
<path d="M0 0 C1.29858939 0.56775536 2.58870441 1.15491663 3.875 1.75 C4.95394531 2.23726562 4.95394531 2.23726562 6.0546875 2.734375 C8.37124708 4.24153425 9.10770194 5.40422383 10 8 C9.125 10.25 9.125 10.25 8 12 C3.76960042 10.25807076 -0.1273638 8.46440486 -4 6 C-3.6875 4.125 -3.6875 4.125 -3 2 C-2.01 1.34 -1.02 0.68 0 0 Z " fill="#F85067" transform="translate(137,17)"/>
<path d="M0 0 C2.16460294 4.32920588 2.34641764 7.49040531 2.3125 12.1875 C2.30831055 12.97906494 2.30412109 13.77062988 2.29980469 14.58618164 C2.07098901 26.85337967 -0.181748 38.6758849 -5 50 C-6.4500578 45.45580479 -5.32826388 42.50133869 -4 38 C-3.505 37.505 -3.505 37.505 -3 37 C-2.76636119 35.15108054 -2.58696365 33.29511969 -2.4375 31.4375 C-2.35371094 30.42558594 -2.26992187 29.41367188 -2.18359375 28.37109375 C-2.12300781 27.58863281 -2.06242188 26.80617188 -2 26 C-1.34 26 -0.68 26 0 26 C0 17.42 0 8.84 0 0 Z " fill="#E97182" transform="translate(190,86)"/>
<path d="M0 0 C2.51188424 1.25594212 2.7290468 2.2307971 3.875 4.75 C5.54036468 8.23098784 7.44573104 11.08083548 10 14 C9.01 14.495 9.01 14.495 8 15 C6.68 13.68 5.36 12.36 4 11 C4 11.66 4 12.32 4 13 C2.68 13 1.36 13 0 13 C0 12.34 0 11.68 0 11 C-0.66 11 -1.32 11 -2 11 C-2 7.7 -2 4.4 -2 1 C-1.34 0.67 -0.68 0.34 0 0 Z " fill="#F5586C" transform="translate(54,85)"/>
<path d="M0 0 C6.625 0.75 6.625 0.75 10 3 C10 3.99 10 4.98 10 6 C10.99 6.33 11.98 6.66 13 7 C12.67 7.99 12.34 8.98 12 10 C10.02 10 8.04 10 6 10 C6 8.68 6 7.36 6 6 C5.01 6.33 4.02 6.66 3 7 C2.01 6.67 1.02 6.34 0 6 C0 5.34 0 4.68 0 4 C0.66 4 1.32 4 2 4 C2 3.34 2 2.68 2 2 C1.34 2 0.68 2 0 2 C0 1.34 0 0.68 0 0 Z " fill="#F94C62" transform="translate(122,22)"/>
<path d="M0 0 C7.24241364 3.08473174 12.3450595 7.57681936 18 13 C17.01 13.495 17.01 13.495 16 14 C15.67 14.66 15.34 15.32 15 16 C14.41605469 15.34644531 14.41605469 15.34644531 13.8203125 14.6796875 C9.10932783 9.66476834 4.01210299 6.30242277 -2 3 C-1.34 2.67 -0.68 2.34 0 2 C0 1.34 0 0.68 0 0 Z " fill="#FBE0E5" transform="translate(132,22)"/>
<path d="M0 0 C0.33 0.99 0.66 1.98 1 3 C-0.36328125 5.48828125 -0.36328125 5.48828125 -2.3125 8.3125 C-4.94253313 12.13751775 -6.70025442 15.53336163 -8 20 C-8.66 19.67 -9.32 19.34 -10 19 C-10.33 19.99 -10.66 20.98 -11 22 C-11.66 21.67 -12.32 21.34 -13 21 C-9.36802942 13.25251246 -6.0453872 6.19283567 0 0 Z " fill="#FCE6E5" transform="translate(49,38)"/>
<path d="M0 0 C4.62 0 9.24 0 14 0 C14 0.66 14 1.32 14 2 C21.92 2.33 29.84 2.66 38 3 C38 3.33 38 3.66 38 4 C12.23623663 4.61916858 12.23623663 4.61916858 0 1 C0 0.67 0 0.34 0 0 Z " fill="#F16F81" transform="translate(74,188)"/>
<path d="M0 0 C3.93673644 1.31224548 6.22719294 2.91910327 9 6 C7.35 6 5.7 6 4 6 C4 6.66 4 7.32 4 8 C3.34 8 2.68 8 2 8 C2 8.66 2 9.32 2 10 C2.66 10 3.32 10 4 10 C3.67 11.32 3.34 12.64 3 14 C1.83035398 12.8572081 0.66435444 11.71068285 -0.5 10.5625 C-1.1496875 9.92441406 -1.799375 9.28632812 -2.46875 8.62890625 C-4 7 -4 7 -4 6 C-2.02 6 -0.04 6 2 6 C2 5.01 2 4.02 2 3 C1.34 2.67 0.68 2.34 0 2 C0 1.34 0 0.68 0 0 Z " fill="#F45870" transform="translate(132,26)"/>
<path d="M0 0 C0 0.99 0 1.98 0 3 C-1.32 3 -2.64 3 -4 3 C-4 3.66 -4 4.32 -4 5 C-2.02 5 -0.04 5 2 5 C2 4.34 2 3.68 2 3 C3.32 3.33 4.64 3.66 6 4 C4.37744772 5.48185125 2.75188112 6.96040256 1.125 8.4375 C-0.23238281 9.67306641 -0.23238281 9.67306641 -1.6171875 10.93359375 C-4 13 -4 13 -6 14 C-6 13.01 -6 12.02 -6 11 C-5.34 11 -4.68 11 -4 11 C-4 10.34 -4 9.68 -4 9 C-3.34 9 -2.68 9 -2 9 C-2 8.34 -2 7.68 -2 7 C-3.65 7 -5.3 7 -7 7 C-6.61402985 4.20171644 -6.19863427 3.1794116 -4.0625 1.25 C-2 0 -2 0 0 0 Z " fill="#EF5C73" transform="translate(66,27)"/>
<path d="M0 0 C-0.33 0.99 -0.66 1.98 -1 3 C-9.58 3.33 -18.16 3.66 -27 4 C-27 3.34 -27 2.68 -27 2 C-18.08489362 -0.641513 -9.20604186 -0.17875809 0 0 Z " fill="#F7CFD8" transform="translate(109,14)"/>
<path d="M0 0 C0.33 0 0.66 0 1 0 C1 2.31 1 4.62 1 7 C-0.6396875 7.8353125 -0.6396875 7.8353125 -2.3125 8.6875 C-5.09555578 10.24355724 -5.9437546 10.90481548 -7.625 13.75 C-8.07875 14.4925 -8.5325 15.235 -9 16 C-11.6875 16.3125 -11.6875 16.3125 -14 16 C-13.67 15.34 -13.34 14.68 -13 14 C-12.34 14 -11.68 14 -11 14 C-11 13.34 -11 12.68 -11 12 C-9.125 9.875 -9.125 9.875 -7 8 C-6.34 8 -5.68 8 -5 8 C-4.731875 7.4225 -4.46375 6.845 -4.1875 6.25 C-2.97790559 3.95813691 -1.64363461 2.00094648 0 0 Z " fill="#F45A75" transform="translate(157,124)"/>
<path d="M0 0 C0.66 0.33 1.32 0.66 2 1 C1.01 2.485 1.01 2.485 0 4 C-0.66 4 -1.32 4 -2 4 C-2 4.66 -2 5.32 -2 6 C-2.66 6 -3.32 6 -4 6 C-4.12375 6.969375 -4.2475 7.93875 -4.375 8.9375 C-4.58125 9.948125 -4.7875 10.95875 -5 12 C-7.60097682 13.30048841 -10.13955062 13.56471422 -13 14 C-11.43416404 9.96278439 -8.55826135 7.52929418 -5.375 4.75 C-4.859375 4.29109375 -4.34375 3.8321875 -3.8125 3.359375 C-2.5465398 2.23407704 -1.27392058 1.11627823 0 0 Z " fill="#F2596F" transform="translate(44,26)"/>
<path d="M0 0 C2 1 2 1 2.9375 2.75 C3 5 3 5 0.8125 7.75 C-2 10 -2 10 -6 10 C-6 8.68 -6 7.36 -6 6 C-5.34 6 -4.68 6 -4 6 C-4 5.34 -4 4.68 -4 4 C-2.70766393 2.62689293 -1.37562854 1.28965176 0 0 Z " fill="#FD4961" transform="translate(46,26)"/>
<path d="M0 0 C-2.96346786 2.47186455 -5.54041689 3.66248361 -9.25 4.6875 C-10.14203125 4.93886719 -11.0340625 5.19023437 -11.953125 5.44921875 C-12.62859375 5.63097656 -13.3040625 5.81273437 -14 6 C-13.67 4.68 -13.34 3.36 -13 2 C-12.34 2 -11.68 2 -11 2 C-11 1.34 -11 0.68 -11 0 C-6.98195309 -0.84098656 -3.98196457 -1.05404945 0 0 Z " fill="#F55067" transform="translate(132,130)"/>
<path d="M0 0 C0.99 0 1.98 0 3 0 C3 0.66 3 1.32 3 2 C10.92 2 18.84 2 27 2 C27 2.66 27 3.32 27 4 C17.43 4 7.86 4 -2 4 C-1.34 2.68 -0.68 1.36 0 0 Z " fill="#EC5B70" transform="translate(83,20)"/>
<path d="M0 0 C3.6041498 -0.02900455 7.20826962 -0.04680018 10.8125 -0.0625 C11.83666016 -0.07087891 12.86082031 -0.07925781 13.91601562 -0.08789062 C15.39038086 -0.09272461 15.39038086 -0.09272461 16.89453125 -0.09765625 C17.80050049 -0.10289307 18.70646973 -0.10812988 19.63989258 -0.11352539 C22 0 22 0 25 1 C24.67 1.66 24.34 2.32 24 3 C20.04 3 16.08 3 12 3 C12 2.34 12 1.68 12 1 C8.04 1 4.08 1 0 1 C0 0.67 0 0.34 0 0 Z " fill="#E85F73" transform="translate(90,17)"/>
<path d="M0 0 C0.66 0 1.32 0 2 0 C2.65202691 8.31334308 0.65125384 17.02311924 -4 24 C-3.88557539 22.39504433 -3.75805306 20.79101881 -3.625 19.1875 C-3.52058594 17.84751953 -3.52058594 17.84751953 -3.4140625 16.48046875 C-3 14 -3 14 -1 11 C-0.54227937 8.26127045 -0.54227937 8.26127045 -0.375 5.3125 C-0.30023438 4.31863281 -0.22546875 3.32476562 -0.1484375 2.30078125 C-0.09945312 1.54152344 -0.05046875 0.78226562 0 0 Z " fill="#EF5F77" transform="translate(188,112)"/>
<path d="M0 0 C1.32 0.66 2.64 1.32 4 2 C3.34 2 2.68 2 2 2 C2 2.66 2 3.32 2 4 C2.66 4 3.32 4 4 4 C4 4.66 4 5.32 4 6 C3.34 6 2.68 6 2 6 C2 6.66 2 7.32 2 8 C3.98 8 5.96 8 8 8 C8 9.32 8 10.64 8 12 C4.2089881 10.55049545 0.6125362 8.84827434 -3 7 C-2.01 6.67 -1.02 6.34 0 6 C0 4.02 0 2.04 0 0 Z " fill="#F15A6E" transform="translate(120,20)"/>
<path d="M0 0 C1.51400391 0.01740234 1.51400391 0.01740234 3.05859375 0.03515625 C4.07050781 0.04417969 5.08242187 0.05320313 6.125 0.0625 C7.29869141 0.07990234 7.29869141 0.07990234 8.49609375 0.09765625 C2.7860112 3.90437795 -3.7468051 3.22507893 -10.37890625 3.16015625 C-11.25804688 3.15564453 -12.1371875 3.15113281 -13.04296875 3.14648438 C-15.19664428 3.13477962 -17.35028442 3.11684694 -19.50390625 3.09765625 C-19.50390625 2.76765625 -19.50390625 2.43765625 -19.50390625 2.09765625 C-18.36050781 2.03707031 -17.21710938 1.97648438 -16.0390625 1.9140625 C-14.5481632 1.82967197 -13.0572785 1.74502323 -11.56640625 1.66015625 C-10.81166016 1.62083984 -10.05691406 1.58152344 -9.27929688 1.54101562 C-5.84106073 1.34058033 -3.14690113 0.12273405 0 0 Z " fill="#EC576C" transform="translate(115.50390625,187.90234375)"/>
<path d="M0 0 C1.32 0.33 2.64 0.66 4 1 C2.98679687 1.90492187 2.98679687 1.90492187 1.953125 2.828125 C0.61507812 4.02695312 0.61507812 4.02695312 -0.75 5.25 C-1.63171875 6.03890625 -2.5134375 6.8278125 -3.421875 7.640625 C-5.67866165 9.70592672 -7.85739926 11.81735064 -10 14 C-10 12.68 -10 11.36 -10 10 C-9.34 10 -8.68 10 -8 10 C-8 9.34 -8 8.68 -8 8 C-7.34 8 -6.68 8 -6 8 C-6 7.34 -6 6.68 -6 6 C-5.34 6 -4.68 6 -4 6 C-4 5.34 -4 4.68 -4 4 C-3.34 4 -2.68 4 -2 4 C-2 3.34 -2 2.68 -2 2 C-1.34 2 -0.68 2 0 2 C0 1.34 0 0.68 0 0 Z " fill="#FDE4E4" transform="translate(38,28)"/>
<path d="M0 0 C3.39581516 -0.0291544 6.79159786 -0.04685068 10.1875 -0.0625 C11.14720703 -0.07087891 12.10691406 -0.07925781 13.09570312 -0.08789062 C14.02705078 -0.09111328 14.95839844 -0.09433594 15.91796875 -0.09765625 C17.19837036 -0.10551147 17.19837036 -0.10551147 18.50463867 -0.11352539 C21.09246747 0.00420677 23.47661953 0.42892956 26 1 C25.67 1.66 25.34 2.32 25 3 C16.75 2.34 8.5 1.68 0 1 C0 0.67 0 0.34 0 0 Z " fill="#FCF2F5" transform="translate(92,15)"/>
<path d="M0 0 C0.33 0.66 0.66 1.32 1 2 C0.22265625 3.7265625 0.22265625 3.7265625 -0.9375 5.625 C-1.618125 6.73875 -2.29875 7.8525 -3 9 C-5.64 9 -8.28 9 -11 9 C-10.484375 8.62875 -9.96875 8.2575 -9.4375 7.875 C-6.18438982 5.37260756 -3.09877473 2.68966683 0 0 Z " fill="#F05E72" transform="translate(115,61)"/>
<path d="M0 0 C1.67542976 0.28604898 3.34385343 0.61781233 5 1 C4.34 1.66 3.68 2.32 3 3 C2.60235737 4.98821313 2.26224651 6.98944339 2 9 C0.68 8.67 -0.64 8.34 -2 8 C-1.125 1.125 -1.125 1.125 0 0 Z " fill="#F75065" transform="translate(78,32)"/>
<path d="M0 0 C5.94 0 11.88 0 18 0 C13.5 3.375 13.5 3.375 9.25 3.1875 C8.45078125 3.16042969 7.6515625 3.13335938 6.828125 3.10546875 C6.22484375 3.07066406 5.6215625 3.03585938 5 3 C5 2.67 5 2.34 5 2 C3.35 1.67 1.7 1.34 0 1 C0 0.67 0 0.34 0 0 Z " fill="#F8D1DB" transform="translate(89,23)"/>
<path d="M0 0 C0.66 0.33 1.32 0.66 2 1 C2 1.66 2 2.32 2 3 C2.66 3 3.32 3 4 3 C4 2.34 4 1.68 4 1 C4.99 1 5.98 1 7 1 C7 2.32 7 3.64 7 5 C7.66 5 8.32 5 9 5 C9 5.66 9 6.32 9 7 C7.55903414 6.57405412 6.12231288 6.13373367 4.6875 5.6875 C3.88699219 5.44386719 3.08648437 5.20023438 2.26171875 4.94921875 C-0.09964573 3.95817977 -1.33879993 2.91925057 -3 1 C-2.01 0.67 -1.02 0.34 0 0 Z " fill="#F35F76" transform="translate(71,129)"/>
<path d="M0 0 C0.66 0 1.32 0 2 0 C2 1.32 2 2.64 2 4 C1.34 4 0.68 4 0 4 C-0.33 5.65 -0.66 7.3 -1 9 C-1.33 8.01 -1.66 7.02 -2 6 C-2.66 6 -3.32 6 -4 6 C-4 5.34 -4 4.68 -4 4 C-4.66 4 -5.32 4 -6 4 C-6 3.34 -6 2.68 -6 2 C-4.02 2 -2.04 2 0 2 C0 1.34 0 0.68 0 0 Z " fill="#FE4860" transform="translate(152,26)"/>
<path d="M0 0 C1.32 0 2.64 0 4 0 C4 0.66 4 1.32 4 2 C4.99 2.33 5.98 2.66 7 3 C7 3.33 7 3.66 7 4 C5.35 4 3.7 4 2 4 C2 4.66 2 5.32 2 6 C0.02 6 -1.96 6 -4 6 C-4 5.34 -4 4.68 -4 4 C-2.68 4 -1.36 4 0 4 C0 2.68 0 1.36 0 0 Z " fill="#FD495F" transform="translate(66,26)"/>
<path d="M0 0 C0.33 0.66 0.66 1.32 1 2 C1.66 2.33 2.32 2.66 3 3 C2.01 5.31 1.02 7.62 0 10 C-0.66 9.67 -1.32 9.34 -2 9 C-2.33 9.99 -2.66 10.98 -3 12 C-3.66 11.67 -4.32 11.34 -5 11 C-3.35 7.37 -1.7 3.74 0 0 Z " fill="#FBDADF" transform="translate(41,48)"/>
<path d="M0 0 C1.12894876 0.93274109 2.25300876 1.87140122 3.375 2.8125 C4.00148437 3.33457031 4.62796875 3.85664062 5.2734375 4.39453125 C7 6 7 6 9 9 C8.34 9 7.68 9 7 9 C6.67 9.66 6.34 10.32 6 11 C5.34 11 4.68 11 4 11 C2.50859979 7.37802806 1.2125738 3.72433382 0 0 Z " fill="#F05167" transform="translate(160,31)"/>
<path d="M0 0 C1.98 0.66 3.96 1.32 6 2 C6 2.66 6 3.32 6 4 C5.34 4 4.68 4 4 4 C4 4.66 4 5.32 4 6 C3.34 6 2.68 6 2 6 C2 6.66 2 7.32 2 8 C1.34 8 0.68 8 0 8 C0 7.34 0 6.68 0 6 C-0.66 5.67 -1.32 5.34 -2 5 C-1.34 3.35 -0.68 1.7 0 0 Z " fill="#FD495E" transform="translate(58,32)"/>
<path d="M0 0 C1.9375 0.8125 1.9375 0.8125 4 2 C5 5 5 5 4.0625 7.1875 C3.5365625 8.0846875 3.5365625 8.0846875 3 9 C2.01 8.67 1.02 8.34 0 8 C-1.22393475 5.04215769 -0.96516243 3.00272755 0 0 Z " fill="#FC4862" transform="translate(142,20)"/>
<path d="M0 0 C1.98 0.66 3.96 1.32 6 2 C6 2.66 6 3.32 6 4 C6.66 4 7.32 4 8 4 C8 5.65 8 7.3 8 9 C1.42857143 3.85714286 1.42857143 3.85714286 0 0 Z " fill="#F25871" transform="translate(48,112)"/>
<path d="M0 0 C3.3 0 6.6 0 10 0 C10.33 0.99 10.66 1.98 11 3 C9.54176788 3.0270043 8.08339325 3.04639787 6.625 3.0625 C5.81289062 3.07410156 5.00078125 3.08570313 4.1640625 3.09765625 C2 3 2 3 0 2 C0 1.34 0 0.68 0 0 Z " fill="#F94C61" transform="translate(94,26)"/>
<path d="M0 0 C2.67901932 2.31881505 3.66204403 4.31814468 4.6875 7.6875 C4.93886719 8.49574219 5.19023437 9.30398437 5.44921875 10.13671875 C5.63097656 10.75160156 5.81273437 11.36648437 6 12 C4.68 11.34 3.36 10.68 2 10 C2 8.02 2 6.04 2 4 C1.34 4 0.68 4 0 4 C0 2.68 0 1.36 0 0 Z " fill="#EE6478" transform="translate(154,48)"/>
<path d="M0 0 C3.125 -0.1875 3.125 -0.1875 6 0 C5.04578192 1.14926266 4.08647955 2.29430541 3.125 3.4375 C2.59132813 4.07558594 2.05765625 4.71367188 1.5078125 5.37109375 C0 7 0 7 -2 8 C-2.20086443 4.28400809 -2.1519437 3.22791555 0 0 Z " fill="#F4506C" transform="translate(82,32)"/>
<path d="M0 0 C0.66 0.33 1.32 0.66 2 1 C1.505 1.78375 1.01 2.5675 0.5 3.375 C-1.16537965 5.78552327 -1.16537965 5.78552327 -1 8 C-2.98 8.66 -4.96 9.32 -7 10 C-5.33248852 6.05860922 -2.77289351 3.2107188 0 0 Z " fill="#F2637A" transform="translate(75,34)"/>
<path d="M0 0 C1.65 0 3.3 0 5 0 C3.33333333 1.66666667 1.66666667 3.33333333 0 5 C-0.556875 5.598125 -1.11375 6.19625 -1.6875 6.8125 C-3 8 -3 8 -5 8 C-5 7.34 -5 6.68 -5 6 C-4.34 6 -3.68 6 -3 6 C-3 5.34 -3 4.68 -3 4 C-2.34 4 -1.68 4 -1 4 C-0.67 2.68 -0.34 1.36 0 0 Z " fill="#F05F78" transform="translate(59,24)"/>
<path d="M0 0 C0.33 0 0.66 0 1 0 C1 2.31 1 4.62 1 7 C-0.98 7.66 -2.96 8.32 -5 9 C-3.35 6.03 -1.7 3.06 0 0 Z " fill="#F7EAEA" transform="translate(181,142)"/>
<path d="M0 0 C0.66 0 1.32 0 2 0 C0.73058503 3.91402949 -0.51167694 5.79072873 -4 8 C-4 6.02 -4 4.04 -4 2 C-2.68 2 -1.36 2 0 2 C0 1.34 0 0.68 0 0 Z " fill="#F3576E" transform="translate(152,108)"/>
<path d="M0 0 C0.33 0.66 0.66 1.32 1 2 C3.02463255 2.65213292 3.02463255 2.65213292 5 3 C4.67 4.98 4.34 6.96 4 9 C0.99472353 7.49736177 1.02782386 5.08347159 0 2 C-0.66 1.67 -1.32 1.34 -2 1 C-1.34 0.67 -0.68 0.34 0 0 Z " fill="#F45F78" transform="translate(114,34)"/>
<path d="M0 0 C0.66 0 1.32 0 2 0 C2 0.66 2 1.32 2 2 C1.34 2 0.68 2 0 2 C-0.66 3.32 -1.32 4.64 -2 6 C-2.66 6 -3.32 6 -4 6 C-4 6.66 -4 7.32 -4 8 C-4.66 8 -5.32 8 -6 8 C-6 6.68 -6 5.36 -6 4 C-4.68 4 -3.36 4 -2 4 C-1.34 2.68 -0.68 1.36 0 0 Z " fill="#F8EBE6" transform="translate(150,130)"/>
<path d="M0 0 C0.33 0.99 0.66 1.98 1 3 C1.66 3 2.32 3 3 3 C3 2.34 3 1.68 3 1 C3.66 1 4.32 1 5 1 C4.34 2.32 3.68 3.64 3 5 C2.34 5 1.68 5 1 5 C0.67 5.66 0.34 6.32 0 7 C-0.66 5.02 -1.32 3.04 -2 1 C-1.34 0.67 -0.68 0.34 0 0 Z " fill="#F25469" transform="translate(67,79)"/>
<path d="M0 0 C1.2065625 0.0309375 1.2065625 0.0309375 2.4375 0.0625 C2.4375 0.7225 2.4375 1.3825 2.4375 2.0625 C1.7775 2.0625 1.1175 2.0625 0.4375 2.0625 C0.4375 2.7225 0.4375 3.3825 0.4375 4.0625 C-0.18125 4.206875 -0.8 4.35125 -1.4375 4.5 C-3.59508322 4.99402225 -3.59508322 4.99402225 -5.5625 6.0625 C-3.26136364 0.07954545 -3.26136364 0.07954545 0 0 Z " fill="#F3EBE8" transform="translate(85.5625,35.9375)"/>
<path d="M0 0 C1.32 0 2.64 0 4 0 C3.67 1.65 3.34 3.3 3 5 C2.01 5.33 1.02 5.66 0 6 C0 4.02 0 2.04 0 0 Z " fill="#F7F5F5" transform="translate(50,16)"/>
<path d="M0 0 C3.96 1.98 3.96 1.98 8 4 C7.67 4.66 7.34 5.32 7 6 C6.01 6 5.02 6 4 6 C4 5.34 4 4.68 4 4 C2.68 3.67 1.36 3.34 0 3 C0 2.01 0 1.02 0 0 Z " fill="#F8E9E6" transform="translate(48,176)"/>
<path d="M0 0 C1.32 0 2.64 0 4 0 C4 0.66 4 1.32 4 2 C4.804375 2.12375 5.60875 2.2475 6.4375 2.375 C7.7059375 2.684375 7.7059375 2.684375 9 3 C9.33 3.66 9.66 4.32 10 5 C6.05140217 4.4359146 3.29120954 3.2568294 0 1 C0 0.67 0 0.34 0 0 Z " fill="#FBDEE1" transform="translate(84,64)"/>
<path d="M0 0 C0.33 0.66 0.66 1.32 1 2 C0.06553465 4.03144641 -0.93224776 6.03533587 -2 8 C-3.32 7.67 -4.64 7.34 -6 7 C-4.02 4.69 -2.04 2.38 0 0 Z " fill="#F15A75" transform="translate(30,40)"/>
<path d="M0 0 C1.32 0 2.64 0 4 0 C4 1.98 4 3.96 4 6 C3.01 6.495 3.01 6.495 2 7 C2 6.01 2 5.02 2 4 C1.34 4 0.68 4 0 4 C0 2.68 0 1.36 0 0 Z " fill="#F7F8F7" transform="translate(22,40)"/>
<path d="M0 0 C1.68496298 0.96885372 3.35178756 1.96986723 5 3 C5 3.33 5 3.66 5 4 C2.1875 4.6875 2.1875 4.6875 -1 5 C-2.875 3.5625 -2.875 3.5625 -4 2 C-2.68 2 -1.36 2 0 2 C0 1.34 0 0.68 0 0 Z " fill="#FAE0E6" transform="translate(124,30)"/>
<path d="M0 0 C0.66 1.32 1.32 2.64 2 4 C0.35 5.65 -1.3 7.3 -3 9 C-3.33 8.34 -3.66 7.68 -4 7 C-3.22265625 5.2734375 -3.22265625 5.2734375 -2.0625 3.375 C-1.381875 2.26125 -0.70125 1.1475 0 0 Z " fill="#FDE5E9" transform="translate(59,42)"/>
<path d="M0 0 C-2.62198774 2.15377564 -4.64404172 3.40072174 -8 4 C-7.625 2.0625 -7.625 2.0625 -7 0 C-4.3333581 -1.33332095 -2.83319697 -0.67102033 0 0 Z " fill="#F15E71" transform="translate(132,130)"/>
<path d="M0 0 C0.33 0 0.66 0 1 0 C1 2.31 1 4.62 1 7 C-0.32 6.67 -1.64 6.34 -3 6 C-1.125 1.125 -1.125 1.125 0 0 Z " fill="#F6526B" transform="translate(157,124)"/>
<path d="M0 0 C0.66 0 1.32 0 2 0 C2.625 1.8125 2.625 1.8125 3 4 C2.01 5.485 2.01 5.485 1 7 C0.01 5.35 -0.98 3.7 -2 2 C-1.34 1.34 -0.68 0.68 0 0 Z " fill="#F5576E" transform="translate(48,23)"/>
<path d="M0 0 C1.98 0.99 1.98 0.99 4 2 C4 2.99 4 3.98 4 5 C2.68 5 1.36 5 0 5 C0 3.35 0 1.7 0 0 Z " fill="#F8F2F2" transform="translate(154,43)"/>
<path d="M0 0 C1.32 0 2.64 0 4 0 C4 1.65 4 3.3 4 5 C2.68 4.67 1.36 4.34 0 4 C0 2.68 0 1.36 0 0 Z " fill="#FC4A5C" transform="translate(76,36)"/>
<path d="M0 0 C1.65 0 3.3 0 5 0 C4.67 0.66 4.34 1.32 4 2 C3.34 2 2.68 2 2 2 C2 2.66 2 3.32 2 4 C0.68 4 -0.64 4 -2 4 C-2 3.34 -2 2.68 -2 2 C-1.34 2 -0.68 2 0 2 C0 1.34 0 0.68 0 0 Z " fill="#FC495B" transform="translate(136,32)"/>
<path d="M0 0 C2.97 0.495 2.97 0.495 6 1 C6.33 1.99 6.66 2.98 7 4 C4.625 3.6875 4.625 3.6875 2 3 C1.34 2.01 0.68 1.02 0 0 Z " fill="#FBEEEF" transform="translate(125,20)"/>
</svg>
