<svg xmlns="http://www.w3.org/2000/svg"  viewBox="0 0 48 48" width="20px" height="20px"><path fill="#4b7bb2" d="M21.07,3.831c-2.037-0.059-4,0-7,0c-1.154,0-3.094,0.466-3.961,1.227C9.423,5.66,9.156,6.602,9,7.5	c-0.794,4.576,0.451,9.356,0.5,14c0.017,1.583,0.071,5.418,0,7c-0.102,2.263,0.495,3.735,0.5,6c0.005,2.536-0.351,3.464-0.346,6	c0.002,0.855,0.049,1.816,0.682,2.39c0.564,0.511,1.403,0.535,2.164,0.531c5.262-0.029,10.881,0.021,16.143-0.009	C30.714,43.401,32.972,43.92,35,43.5c1.044-0.216,2.145-0.597,2.744-1.479c0.404-0.595,0.519-1.334,0.597-2.049	c0.831-7.619-0.271-16.641-0.538-24.91c-0.02-0.628,0.188-1.285-0.069-1.859c-0.15-0.335-0.409-0.607-0.664-0.872	c-2.044-2.126-2.956-2.874-5-5c-0.713-0.742-2.63-2.449-3.5-3C26.29,2.887,23.763,3.654,21.07,3.831"/><path fill="#73a1b2" d="M37.5,14c-2.024-0.037-4.981,0.59-7.005,0.554c-0.368-0.007-0.745-0.015-1.091-0.141	c-1.01-0.368-1.411-1.559-1.658-2.605C27.209,9.53,27.298,6.321,27,4c0,0,0.927-0.198,2.616,1.168s7.37,7.118,7.837,7.801	C37.921,13.653,37.5,14,37.5,14z"/><path fill="#010101" d="M33.195,44.164c-0.771,0-1.547-0.065-2.31-0.129c-0.782-0.065-1.553-0.135-2.24-0.123	c-2.633,0.014-5.354,0.009-8.075,0.004c-2.718-0.003-5.438-0.009-8.067,0.005c-0.707-0.004-1.764,0.008-2.502-0.661	c-0.776-0.703-0.844-1.792-0.846-2.759c-0.002-1.294,0.088-2.188,0.175-3.052c0.089-0.877,0.173-1.706,0.17-2.948	c-0.002-1.018-0.131-1.891-0.256-2.734c-0.147-0.999-0.3-2.031-0.244-3.289c0.063-1.393,0.026-4.63,0.006-6.369L9,21.505	c-0.018-1.691-0.201-3.443-0.378-5.138c-0.309-2.949-0.627-5.999-0.115-8.953c0.154-0.887,0.438-1.999,1.272-2.731	c1.051-0.922,3.182-1.352,4.291-1.352c1.086,0,2.036-0.008,2.903-0.015c1.496-0.012,2.79-0.022,4.088,0.015	c0.572-0.039,1.136-0.104,1.692-0.168c2.042-0.235,4.153-0.478,6.085,0.745c0.955,0.605,2.901,2.357,3.593,3.076	c1.019,1.061,1.755,1.776,2.492,2.492c0.741,0.721,1.482,1.441,2.508,2.508c0.269,0.28,0.573,0.598,0.76,1.015	c0.225,0.503,0.18,1.021,0.14,1.478c-0.016,0.19-0.034,0.381-0.027,0.569c0.079,2.466,0.236,5.05,0.389,7.549	c0.36,5.924,0.733,12.05,0.146,17.433c-0.08,0.733-0.206,1.575-0.68,2.274c-0.746,1.099-2.102,1.489-3.057,1.688	C34.479,44.119,33.839,44.164,33.195,44.164z M28.711,42.912c0.744,0,1.514,0.064,2.258,0.127c1.328,0.11,2.702,0.225,3.93-0.028	c1.247-0.259,2.02-0.663,2.432-1.271c0.346-0.509,0.443-1.179,0.514-1.822c0.578-5.298,0.208-11.38-0.15-17.263	c-0.152-2.506-0.311-5.097-0.391-7.576c-0.007-0.228,0.012-0.459,0.031-0.688c0.033-0.385,0.062-0.717-0.057-0.983	c-0.116-0.259-0.346-0.498-0.567-0.73c-1.016-1.056-1.75-1.77-2.484-2.483c-0.744-0.723-1.487-1.445-2.516-2.516	c-0.71-0.738-2.597-2.41-3.407-2.925c-1.633-1.032-3.396-0.831-5.436-0.597c-0.58,0.067-1.168,0.135-1.764,0.174	c-0.016,0.002-0.032,0.001-0.047,0.001c-1.29-0.038-2.58-0.027-4.075-0.015c-0.869,0.007-1.822,0.015-2.911,0.015	c-1.12,0-2.911,0.472-3.631,1.104C9.839,5.96,9.618,6.86,9.493,7.585c-0.489,2.817-0.177,5.797,0.124,8.678	C9.796,17.98,9.981,19.756,10,21.495l0.007,0.602c0.021,1.872,0.057,5.005-0.007,6.426c-0.052,1.162,0.087,2.103,0.234,3.098	c0.13,0.88,0.265,1.789,0.267,2.879c0.002,1.294-0.088,2.188-0.175,3.052c-0.089,0.877-0.173,1.706-0.17,2.948	c0.002,0.786,0.043,1.591,0.518,2.02c0.417,0.378,1.096,0.399,1.826,0.402c2.63-0.015,5.352-0.01,8.075-0.005	c2.719,0.006,5.438,0.01,8.067-0.004C28.664,42.912,28.688,42.912,28.711,42.912z"/><path fill="#010101" d="M30.665,15.056c-0.061,0-0.12-0.001-0.179-0.002c-0.387-0.007-0.825-0.016-1.253-0.171	c-1.236-0.451-1.704-1.818-1.974-2.96c-0.337-1.43-0.434-3.179-0.526-4.871c-0.06-1.079-0.115-2.098-0.229-2.988	c-0.035-0.273,0.158-0.524,0.433-0.56c0.266-0.04,0.524,0.158,0.56,0.433c0.119,0.927,0.176,1.963,0.236,3.061	c0.09,1.648,0.184,3.353,0.5,4.695c0.212,0.897,0.556,1.964,1.343,2.251c0.271,0.099,0.605,0.104,0.93,0.11	c0.976,0.017,2.224-0.13,3.431-0.273c1.242-0.147,2.537-0.3,3.573-0.28c0.276,0.005,0.496,0.233,0.491,0.509	c-0.005,0.276-0.233,0.495-0.509,0.491c-0.986-0.017-2.229,0.131-3.438,0.273C32.883,14.912,31.675,15.056,30.665,15.056z"/><path fill="#d6e5e5" d="M24.292,18.633c-2.58-0.35-4.457,0.091-7.058,0.2c-0.247,0.01-0.504,0.026-0.717,0.151	c-0.462,0.27-0.516,0.904-0.517,1.439c-0.001,0.326,0.01,0.685,0.227,0.929c0.256,0.289,0.693,0.306,1.079,0.301	c4.21-0.049,6.278,0.029,10.487-0.02c0.161-0.002,2.5,0,2.599-0.243c0.06-0.148,0.151-0.278,0.175-0.436	c0.116-0.776,0.133-1.762-0.565-2.122c-0.237-0.122-0.512-0.138-0.778-0.153C27.63,18.595,25.886,18.718,24.292,18.633"/><path fill="#d6e5e5" d="M22,35.5c-1.321-0.133-2.23,0.125-3.551-0.008c-0.4-0.04-1.21-0.129-1.556,0.075	c-0.516,0.304-0.402,1.029-0.402,1.456C16.491,37.621,17,38,17.5,38c1.839,0,4.98-0.177,8.278,0.178	c0.072,0.008,0.526-0.059,0.765-0.237c0.347-0.258,0.407-0.597,0.406-0.67c-0.006-0.717,0.015-0.78-0.232-1.123	C26.035,35.198,24.367,35.963,22,35.5"/><path fill="#d6e5e5" d="M24.415,24.5c-3,0-3.5,0-7.058-0.321c-0.475-0.043-0.927,0.096-1.075,0.294	c-0.177,0.237-0.366,0.492-0.367,1.027c-0.001,0.326,0.218,0.954,0.434,1.198c0.256,0.289,0.693,0.306,1.079,0.301	c4.21-0.049,6.278,0.029,10.487-0.02c0.161-0.002,2.373-0.11,2.599-0.243C30.915,26.5,31.415,25,30.415,24.5	c-0.238-0.119-1.234,0.014-1.5,0C27.321,24.415,26.008,24.585,24.415,24.5"/><path fill="#d6e5e5" d="M24.665,29.633c-2.687,0.113-4.457,0.091-7.058,0.2c-0.247,0.01-0.504,0.026-0.717,0.151	c-0.462,0.27-0.516,0.904-0.517,1.439c-0.001,0.326,0.01,0.685,0.227,0.929c0.256,0.289,0.693,0.324,1.079,0.301	c4.235-0.246,5.613-0.103,9.823-0.153c0.161-0.002,1.728,0,2.5,0c0.5,0,0.995-0.525,1-1c0.009-0.784,0.071-1.309-0.626-1.668	c-0.237-0.122-0.512-0.138-0.778-0.153C28.003,29.595,26.259,29.566,24.665,29.633z"/><path fill="#010101" d="M17.203,22.154c-0.376,0-0.965-0.035-1.351-0.472c-0.354-0.398-0.353-0.938-0.352-1.262	c0.001-0.426,0.002-1.423,0.764-1.87c0.33-0.191,0.688-0.207,0.948-0.219c0.819-0.033,1.565-0.102,2.283-0.166	c1.562-0.141,3.038-0.274,4.844-0.031c0.774,0.039,1.604,0.03,2.414,0.021c0.827-0.009,1.684-0.021,2.497,0.024	c0.286,0.015,0.643,0.032,0.98,0.207c0.756,0.389,1.034,1.277,0.83,2.64c-0.026,0.185-0.098,0.328-0.155,0.443l-0.051,0.107	c-0.141,0.344-0.35,0.539-3.007,0.555c-2.158,0.023-3.73,0.018-5.301,0.01c-1.566-0.006-3.133-0.013-5.235,0.011	C17.277,22.153,17.241,22.154,17.203,22.154z M22.293,18.999c-0.905,0-1.768,0.078-2.707,0.163c-0.734,0.066-1.496,0.135-2.331,0.17	c-0.165,0.007-0.372,0.016-0.487,0.083c-0.239,0.14-0.268,0.643-0.269,1.008c0,0.192,0,0.482,0.101,0.597	c0.123,0.14,0.494,0.133,0.7,0.134c2.106-0.024,3.679-0.019,5.251-0.01c1.565,0.006,3.133,0.014,5.235-0.011	c1.458-0.009,2.026-0.079,2.229-0.118c0.025-0.052,0.052-0.107,0.056-0.135c0.093-0.614,0.115-1.391-0.299-1.604	c-0.146-0.075-0.364-0.087-0.574-0.098c-0.782-0.041-1.623-0.031-2.435-0.022c-0.828,0.009-1.685,0.02-2.498-0.024	c-0.013,0-0.027-0.002-0.041-0.004C23.537,19.035,22.905,18.999,22.293,18.999z"/><path fill="#010101" d="M25.785,38.678c-0.023,0-0.044-0.001-0.062-0.003c-2.533-0.271-5.003-0.226-6.807-0.193	c-0.529,0.01-1.005,0.019-1.417,0.019c-0.726,0-1.509-0.564-1.509-1.478l-0.004-0.184c-0.017-0.482-0.045-1.291,0.652-1.702	c0.441-0.259,1.145-0.213,1.828-0.146c0.656,0.066,1.178,0.037,1.732,0.007c0.566-0.034,1.153-0.066,1.852,0.006	c0.016,0.001,0.031,0.003,0.046,0.007c0.951,0.186,1.779,0.163,2.508,0.142c1.055-0.033,1.972-0.058,2.519,0.704	c0.319,0.445,0.321,0.647,0.325,1.248l0.001,0.163c0,0.234-0.128,0.718-0.608,1.076C26.528,38.576,26.022,38.678,25.785,38.678z M21.08,37.456c1.442,0,3.078,0.045,4.751,0.225c0.051-0.007,0.318-0.07,0.412-0.14c0.182-0.136,0.207-0.298,0.208-0.299	l-0.003-0.132c-0.004-0.484-0.004-0.484-0.138-0.671c-0.226-0.315-0.727-0.313-1.678-0.289c-0.738,0.022-1.654,0.048-2.705-0.155	c-0.61-0.06-1.127-0.03-1.673,0c-0.567,0.031-1.155,0.065-1.856-0.007c-0.877-0.088-1.161-0.043-1.252,0.01	c-0.171,0.101-0.174,0.425-0.161,0.807l0.005,0.218c0,0.329,0.298,0.478,0.509,0.478c0.406,0,0.876-0.009,1.398-0.019	C19.548,37.47,20.285,37.456,21.08,37.456z"/><path fill="#010101" d="M17.311,27.5c-0.375,0-0.955-0.038-1.336-0.471c-0.317-0.358-0.561-1.117-0.56-1.531	c0.001-0.705,0.271-1.063,0.467-1.325c0.231-0.308,0.665-0.455,1.451-0.493c3.655-0.18,4.191-0.18,7.167-0.18	c0.009,0,0.018,0,0.027,0.001c1.011,0.054,1.699,0.038,2.493,0.02c0.441-0.01,0.911-0.021,1.48-0.021	c0.373,0,0.711-0.018,1.001-0.031c0.598-0.03,0.958-0.048,1.223,0.084c0.509,0.255,0.803,0.784,0.827,1.491	c0.026,0.771-0.289,1.832-0.783,2.123c-0.402,0.236-2.823,0.312-2.847,0.312c-2.113,0.025-3.69,0.019-5.269,0.01	c-1.562-0.007-3.125-0.016-5.219,0.01C17.396,27.499,17.355,27.5,17.311,27.5z M24.487,24.5c-3.011,0-3.48,0-7.105,0.178	c-0.584,0.029-0.723,0.121-0.728,0.125c-0.126,0.176-0.238,0.324-0.238,0.698c0,0.212,0.181,0.722,0.309,0.866	c0.123,0.14,0.509,0.132,0.697,0.132c2.101-0.024,3.669-0.016,5.236-0.01c1.573,0.009,3.145,0.015,5.252-0.01	c0.24-0.003,1.923-0.1,2.347-0.186c0.143-0.204,0.363-0.885,0.277-1.408c-0.056-0.338-0.207-0.414-0.257-0.438	c-0.068-0.013-0.433,0.006-0.726,0.02C29.247,24.482,28.892,24.5,28.5,24.5c-0.561,0-1.023,0.011-1.457,0.021	C26.231,24.538,25.528,24.555,24.487,24.5z"/><path fill="#010101" d="M17.489,33.159c-0.341,0-0.896-0.06-1.265-0.477c-0.354-0.398-0.353-0.938-0.352-1.262	c0.001-0.426,0.002-1.424,0.765-1.87c0.329-0.191,0.687-0.207,0.948-0.219c1.293-0.054,2.38-0.075,3.477-0.098	c1.11-0.022,2.229-0.045,3.582-0.102l0,0c1.903-0.078,3.758-0.019,4.979,0.048c0.286,0.015,0.643,0.032,0.98,0.207	c0.924,0.476,0.912,1.229,0.899,1.957L31.5,31.506C31.492,32.273,30.763,33,30,33h-0.929c-0.71-0.003-1.457-0.003-1.565,0	c-1.429,0.016-2.532,0.011-3.53,0.007c-1.947-0.008-3.484-0.017-6.27,0.146C17.654,33.155,17.579,33.159,17.489,33.159z M24.686,30.133c-1.361,0.057-2.487,0.079-3.604,0.102c-1.089,0.022-2.17,0.044-3.454,0.098c-0.166,0.007-0.372,0.016-0.487,0.082	c-0.24,0.141-0.269,0.644-0.269,1.009c0,0.192,0,0.482,0.101,0.597c0.066,0.075,0.234,0.159,0.677,0.135	c2.816-0.163,4.367-0.157,6.332-0.147c0.994,0.004,2.091,0.01,3.513-0.007c0.108-0.002,0.86-0.002,1.578,0H30	c0.229,0,0.498-0.306,0.5-0.505l0.003-0.167c0.012-0.73-0.014-0.874-0.358-1.052c-0.146-0.075-0.364-0.087-0.574-0.098	C28.369,30.116,26.548,30.055,24.686,30.133L24.686,30.133z"/></svg>