<?xml version="1.0" encoding="UTF-8"?>
<svg xmlns="http://www.w3.org/2000/svg" xmlns:xlink="http://www.w3.org/1999/xlink" width="29pt" height="20pt" viewBox="0 0 29 20" version="1.1">
<g id="surface1">
<path style=" stroke:none;fill-rule:nonzero;fill:rgb(3.921569%,3.921569%,13.72549%);fill-opacity:1;" d="M 5.574219 0.410156 C 5.667969 0.507812 5.765625 0.648438 5.765625 0.789062 C 5.765625 1.03125 5.484375 1.359375 4.96875 1.898438 C 2.808594 4.007812 1.71875 6.59375 1.726562 9.710938 C 1.734375 13.15625 2.878906 15.925781 5.101562 18.074219 C 5.566406 18.496094 5.757812 18.832031 5.757812 19.117188 C 5.757812 19.253906 5.664062 19.402344 5.570312 19.539062 C 5.480469 19.636719 5.289062 19.734375 5.152344 19.734375 C 4.636719 19.738281 3.917969 19.121094 2.980469 17.921875 C 1.148438 15.644531 0.324219 13.136719 0.277344 9.710938 C 0.234375 6.289062 1.292969 3.96875 3.363281 1.570312 C 4.109375 0.714844 4.730469 0.269531 5.152344 0.265625 C 5.292969 0.265625 5.433594 0.316406 5.574219 0.410156 Z M 5.574219 0.410156 "/>
<path style=" stroke:none;fill-rule:nonzero;fill:rgb(3.921569%,3.921569%,13.72549%);fill-opacity:1;" d="M 16.921875 10.328125 C 16.109375 10.117188 19.4375 6.125 13.519531 1.34375 C 13.519531 1.34375 14.296875 3.847656 10.378906 9.433594 C 6.460938 15.019531 12.121094 18.347656 12.121094 18.347656 C 12.121094 18.347656 9.464844 16.910156 12.554688 11.796875 C 13.105469 10.867188 13.828125 10.027344 14.726562 8.136719 C 14.726562 8.136719 15.523438 9.277344 15.109375 11.746094 C 14.488281 15.472656 17.800781 14.40625 17.851562 14.457031 C 19.007812 15.839844 16.890625 18.269531 16.765625 18.347656 C 16.636719 18.421875 22.804688 14.582031 18.421875 8.804688 C 18.121094 9.109375 17.730469 10.539062 16.921875 10.328125 Z M 16.921875 10.328125 "/>
<path style=" stroke:none;fill-rule:nonzero;fill:rgb(3.921569%,3.921569%,13.72549%);fill-opacity:1;" d="M 23.429688 0.410156 C 23.335938 0.503906 23.238281 0.644531 23.238281 0.785156 C 23.238281 1.027344 23.519531 1.355469 24.035156 1.894531 C 26.195312 4.003906 27.285156 6.589844 27.277344 9.707031 C 27.269531 13.15625 26.125 15.925781 23.902344 18.070312 C 23.4375 18.496094 23.246094 18.828125 23.242188 19.113281 C 23.242188 19.253906 23.339844 19.398438 23.433594 19.539062 C 23.523438 19.636719 23.714844 19.730469 23.851562 19.734375 C 24.367188 19.734375 25.085938 19.117188 26.023438 17.917969 C 27.855469 15.644531 28.679688 13.132812 28.726562 9.710938 C 28.769531 6.285156 27.710938 3.964844 25.640625 1.566406 C 24.894531 0.710938 24.273438 0.265625 23.851562 0.265625 C 23.710938 0.265625 23.570312 0.3125 23.429688 0.410156 Z M 23.429688 0.410156 "/>
</g>
</svg>
