<?xml version="1.0" encoding="UTF-8"?>
<svg xmlns="http://www.w3.org/2000/svg" xmlns:xlink="http://www.w3.org/1999/xlink" width="22pt" height="15pt" viewBox="0 0 22 15" version="1.1">
<g id="surface1">
<path style=" stroke:none;fill-rule:nonzero;fill:rgb(100%,100%,100%);fill-opacity:1;" d="M 4.226562 0.308594 C 4.300781 0.382812 4.375 0.484375 4.375 0.589844 C 4.375 0.773438 4.160156 1.019531 3.769531 1.421875 C 2.128906 3.007812 1.304688 4.945312 1.308594 7.28125 C 1.316406 9.867188 2.183594 11.945312 3.867188 13.554688 C 4.222656 13.871094 4.367188 14.121094 4.371094 14.335938 C 4.371094 14.441406 4.296875 14.550781 4.226562 14.65625 C 4.15625 14.726562 4.011719 14.800781 3.90625 14.800781 C 3.519531 14.800781 2.972656 14.339844 2.257812 13.441406 C 0.871094 11.734375 0.246094 9.851562 0.210938 7.285156 C 0.175781 4.714844 0.980469 2.976562 2.550781 1.175781 C 3.117188 0.535156 3.589844 0.199219 3.910156 0.199219 C 4.015625 0.199219 4.125 0.234375 4.226562 0.308594 Z M 4.226562 0.308594 "/>
<path style=" stroke:none;fill-rule:nonzero;fill:rgb(100%,100%,100%);fill-opacity:1;" d="M 12.835938 7.746094 C 12.21875 7.585938 14.746094 4.59375 10.257812 1.007812 C 10.257812 1.007812 10.84375 2.886719 7.875 7.074219 C 4.902344 11.265625 9.195312 13.761719 9.195312 13.761719 C 9.195312 13.761719 7.179688 12.683594 9.523438 8.847656 C 9.941406 8.152344 10.492188 7.519531 11.171875 6.101562 C 11.171875 6.101562 11.777344 6.957031 11.460938 8.808594 C 10.988281 11.605469 13.503906 10.804688 13.542969 10.84375 C 14.417969 11.878906 12.816406 13.703125 12.71875 13.761719 C 12.621094 13.816406 17.300781 10.9375 13.976562 6.601562 C 13.746094 6.832031 13.453125 7.902344 12.835938 7.746094 Z M 12.835938 7.746094 "/>
<path style=" stroke:none;fill-rule:nonzero;fill:rgb(100%,100%,100%);fill-opacity:1;" d="M 17.773438 0.308594 C 17.703125 0.378906 17.628906 0.484375 17.628906 0.589844 C 17.628906 0.769531 17.839844 1.015625 18.234375 1.421875 C 19.875 3.003906 20.699219 4.941406 20.691406 7.28125 C 20.6875 9.867188 19.820312 11.945312 18.132812 13.554688 C 17.78125 13.871094 17.632812 14.121094 17.632812 14.335938 C 17.632812 14.4375 17.707031 14.546875 17.777344 14.652344 C 17.84375 14.726562 17.992188 14.800781 18.09375 14.800781 C 18.484375 14.800781 19.03125 14.339844 19.742188 13.4375 C 21.128906 11.734375 21.757812 9.847656 21.792969 7.28125 C 21.824219 4.714844 21.023438 2.972656 19.453125 1.175781 C 18.886719 0.53125 18.414062 0.199219 18.09375 0.199219 C 17.988281 0.199219 17.878906 0.234375 17.773438 0.308594 Z M 17.773438 0.308594 "/>
</g>
</svg>
