<?xml version="1.0" encoding="utf-8"?>
<!-- Generator: Adobe Illustrator 19.2.1, SVG Export Plug-In . SVG Version: 6.00 Build 0)  -->
<svg version="1.1" id="layer" xmlns="http://www.w3.org/2000/svg" xmlns:xlink="http://www.w3.org/1999/xlink" x="0px" y="0px"
	 viewBox="0 0 652 652" style="enable-background:new 0 0 652 652;" xml:space="preserve">
<style type="text/css">
	.st0{fill:#2258A5;}
	.st1{fill:#FFFFFF;}
</style>
<g>
	<rect x="71" y="71" class="st0" width="500" height="500"/>
	<g>
		<path class="st1" d="M330.5,525.6c4.4-4.9,9-10.2,12.3-13.4c6.4-6.4,13.1-6.4,13.1-6.4s-7.6-3.7-15.6,4.3
			c-2.1,2.2-7,7.6-11.9,13.1c-1.8-2-3.6-4-5.2-5.8c1.8-2,3.5-3.8,4.9-5.2c6.4-6.4,13.1-6.4,13.1-6.4s-7.6-3.7-15.6,4.3
			c-1,1-2.6,2.8-4.6,4.9c-1.9-2.2-3.6-3.9-4.6-4.9c-8-8-15.6-4.3-15.6-4.3s6.6-0.1,13.1,6.4c1.4,1.4,3.1,3.2,4.9,5.2
			c-1.6,1.8-3.4,3.8-5.2,5.8c-4.9-5.5-9.8-11-11.9-13.1c-8-8-15.6-4.3-15.6-4.3s6.6-0.1,13.1,6.4c3.3,3.3,7.9,8.5,12.3,13.4
			c-4.1,4.6-8,9-10.3,11.2c-5.4,5.4-11.6,5.8-11.6,5.8s6.7,3.9,15.9-5.4c1.7-1.7,4.7-5.2,8.2-9.1c1.9,2.1,3.6,4.1,5.1,5.8
			c-1.1,1.2-2.1,2.2-2.8,3c-5.4,5.4-11.6,5.8-11.6,5.8s6.7,3.9,15.9-5.4c0.2-0.3,0.5-0.5,0.8-0.8c0.3,0.3,0.6,0.6,0.8,0.8
			c9.1,9.4,15.9,5.4,15.9,5.4s-6.3-0.4-11.6-5.8c-0.8-0.8-1.7-1.8-2.8-3c1.5-1.6,3.2-3.6,5.1-5.8c3.4,3.9,6.5,7.3,8.2,9.1
			c9.1,9.4,15.9,5.4,15.9,5.4s-6.2-0.4-11.6-5.8C338.5,534.6,334.6,530.2,330.5,525.6z M321,531.4c-1.6-1.8-3.4-3.7-5.2-5.8
			c1.7-2,3.5-3.9,5.2-5.8c1.7,1.9,3.5,3.9,5.2,5.8C324.4,527.6,322.6,529.6,321,531.4z"/>
		<path class="st1" d="M152.8,249c1,3.2,3.9,5.1,7.5,5.1c1.1,0,2.1-0.2,3.2-0.5c0.1,0.2,0.3,0.4,0.5,0.7c0.6,0.8,1.2,1.4,1.9,1.9
			c0.2,0.2,0.5,0.2,0.8,0.2c0.4,0,0.9-0.2,1.1-0.6c0.4-0.6,0.3-1.5-0.3-1.9c-0.5-0.3-0.9-0.8-1.3-1.3c-0.1-0.1-0.1-0.2-0.2-0.3
			c1.4-0.9,2.6-2,3.3-3.4c0.9-1.7,1.1-3.6,0.5-5.4c-0.6-1.8-2-2.3-2.7-2.4c-0.1,0-0.2,0-0.3,0.1c-0.1-0.4-0.2-0.9-0.3-1.3
			c-1.3-4.2-5.1-7.5-8-7.3c-0.3-0.3-0.9-0.6-1.6-0.4c-0.7,0.2-1,0.8-1.1,1.2c-0.7,0.4-1.3,1.1-1.8,2c-1.2,2.3-1.4,5.7-0.6,8.5
			c0.1,0.4,0.3,0.9,0.5,1.3c-0.1,0-0.2,0.1-0.2,0.1C153.1,246,152.3,247.2,152.8,249z M167.4,245.1c0.1,0.9,0,1.9-0.5,2.7
			c-0.8,1.4-2.3,2.6-4.2,3.2c-0.8,0.3-1.6,0.4-2.5,0.4c-2.2,0-3.9-1-4.7-2.6c0.9,0.2,1.8,0.3,2.3,0.3c1.3,0,2.7-0.2,4-0.6
			C164.3,247.7,166.3,246.5,167.4,245.1z M156.4,236.9c0.3-0.6,0.7-0.9,0.9-1c0.3-0.1,0.5-0.2,0.6-0.4c0.2,0,0.5,0,0.7,0
			c1.1-0.3,4.2,2,5.3,5.4c0.4,1.1,0.5,2.3,0.5,3.4c-0.8,0.6-1.8,1.2-3.2,1.6c-1.1,0.3-2.2,0.5-3.2,0.5c-0.1,0-0.2,0-0.3,0
			c-0.7-0.9-1.2-1.9-1.6-3C155.3,240.8,155.7,238.2,156.4,236.9z"/>
		<path class="st1" d="M184.1,271.4c1.8,0,2.8-1.3,3-2c0-0.1,0-0.2,0-0.3c0.3,0,0.7,0,1,0c0.1,0,0.2,0,0.3,0c3-0.1,6.1-1.3,7.9-3.2
			c0.7-0.8,1.2-1.6,1.3-2.4c0.3-0.2,0.8-0.7,0.8-1.4c0-0.7-0.5-1.2-0.9-1.4c-0.7-2.8-5-5.3-9.5-5.2c-0.5,0-0.9,0-1.4,0.1
			c0-0.1,0-0.2,0-0.3c-0.3-0.7-1.2-1.8-3.1-1.8l0,0c-2.2,0.1-4.2,1.1-5.6,2.9c-0.8,1-1.3,2.2-1.6,3.6c-0.1,0-0.2-0.1-0.3-0.1
			c-0.6-0.2-1.1-0.5-1.6-0.8c-0.6-0.4-1.4-0.3-1.9,0.3c-0.4,0.6-0.3,1.5,0.3,1.9c0.7,0.5,1.5,0.9,2.4,1.2c0.3,0.1,0.6,0.2,0.8,0.2
			c0.1,5.1,3.3,8.7,7.6,8.7C184,271.4,184.1,271.4,184.1,271.4z M188.3,258.3c3.6-0.1,6.8,2.1,6.8,3.2c0,0.3,0.1,0.5,0.2,0.7
			c-0.1,0.2-0.2,0.4-0.2,0.7c0,0.2-0.2,0.6-0.7,1.2c-1.1,1.1-3.4,2.3-6,2.4c-1.2,0-2.3-0.1-3.4-0.5c-0.3-0.9-0.6-2.1-0.7-3.5
			c0-1.4,0.2-2.6,0.5-3.5C186,258.6,187.1,258.3,188.3,258.3z M179,262.6c0-1.8,0.4-3.4,1.3-4.5c0.5-0.7,1.4-1.5,2.8-1.7
			c-0.9,1.5-1.4,3.9-1.4,6.2c0.1,2.3,0.7,4.6,1.7,6.1C180.9,268.4,179.1,265.9,179,262.6z"/>
		<path class="st1" d="M169.5,337.1c0.3-1,0.2-2,0-2.7c0.2-0.4,0.4-1,0-1.6c-0.4-0.6-1-0.8-1.5-0.8c-2-2.1-7-2.1-10.8,0.2
			c-0.4,0.2-0.8,0.5-1.1,0.8c-0.1-0.1-0.1-0.2-0.2-0.2c-0.1-0.1-0.8-0.6-1.8-0.6c-0.6,0-1.2,0.2-1.8,0.5c-1.9,1.1-3.1,3-3.4,5.2
			c-0.2,1.3,0,2.6,0.4,3.9c-0.1,0-0.2,0-0.3,0.1c-0.6,0.1-1.2,0.2-1.8,0.1c-0.7-0.1-1.4,0.4-1.5,1.2c-0.1,0.7,0.4,1.4,1.2,1.5
			c0.3,0,0.6,0.1,0.9,0.1c0.6,0,1.2-0.1,1.8-0.2c0.3-0.1,0.6-0.1,0.9-0.2c1.8,2.9,4.6,4.7,7.5,4.7c1.3,0,2.5-0.3,3.6-1
			c1.6-0.9,1.8-2.5,1.6-3.2c0-0.1-0.1-0.2-0.1-0.2c0.4-0.2,0.8-0.4,1.2-0.6C166.8,342.3,168.9,339.6,169.5,337.1z M158.6,334.4
			c3.1-1.9,6.9-1.5,7.5-0.6c0.1,0.3,0.3,0.4,0.5,0.6c0,0.2,0.1,0.5,0.2,0.7c0.1,0.2,0.2,0.6,0,1.3c-0.4,1.5-1.8,3.7-4,5.1
			c-1,0.6-2.1,1-3.2,1.2c-0.7-0.6-1.6-1.5-2.3-2.7c-0.7-1.2-1.1-2.4-1.3-3.3C156.7,335.8,157.6,335,158.6,334.4z M152.7,342.8
			c-0.9-1.5-1.3-3.1-1.1-4.6c0.1-0.9,0.5-2,1.6-2.9c0,1.8,0.7,4.1,1.9,6.1c1.2,2,2.9,3.7,4.5,4.5
			C157.2,346.9,154.3,345.5,152.7,342.8z"/>
		<path class="st1" d="M122.1,339.9c0.3,0.3,0.7,0.6,1,0.9c0,0.1-0.1,0.1-0.2,0.2c-0.3,0.7-0.4,2.2,0.9,3.5c1.3,1.3,3,1.9,4.9,1.9
			l0,0c2.4,0,4.9-1.2,6.8-3.2c0.2,0.1,0.5,0.2,0.8,0.4c0.8,0.4,1.7,0.6,2.6,0.7c0,0,0.1,0,0.1,0c0.7,0,1.3-0.5,1.3-1.2
			c0.1-0.8-0.5-1.4-1.2-1.5c-0.6-0.1-1.2-0.2-1.8-0.5c-0.1-0.1-0.2-0.1-0.3-0.1c0.8-1.5,1.3-3,1.2-4.6c-0.1-1.9-0.8-3.7-2.2-5
			c-0.8-0.8-1.7-1-2.3-1c-0.6,0-1.1,0.2-1.2,0.3c-0.1,0-0.1,0.1-0.2,0.2c-0.3-0.3-0.6-0.7-0.9-1c-3.2-3-8.1-4.1-10.5-2.4
			c-0.4-0.1-1.1-0.1-1.6,0.4c-0.5,0.5-0.4,1.1-0.3,1.6c-0.4,0.7-0.6,1.6-0.6,2.7C118.5,334.9,120,337.9,122.1,339.9z M135.7,336.5
			c0.1,1.6-0.7,3.4-2.1,4.8c-1.4,1.5-3.2,2.4-4.8,2.4l0,0c-0.9,0-1.8-0.3-2.5-0.8c1.7-0.4,3.8-1.7,5.4-3.4c1.6-1.7,2.8-3.8,3.1-5.6
			C135.3,334.7,135.7,335.6,135.7,336.5z M121.4,330.9c0.2-0.2,0.3-0.4,0.4-0.6c0.2-0.1,0.4-0.2,0.6-0.4c0.8-0.8,4.6-0.4,7.2,2.1
			c0.9,0.8,1.6,1.8,2.1,2.7c-0.4,0.9-1,1.9-2,3c-1,1-2,1.7-2.9,2.2c-1-0.4-1.9-1.1-2.8-1.9c-1.9-1.8-2.8-4.2-2.8-5.8
			C121.1,331.5,121.3,331,121.4,330.9z"/>
		<path class="st1" d="M181.1,413.1c-0.3-1-0.7-1.8-1.3-2.4c0-0.4-0.1-1.1-0.8-1.4c-0.6-0.4-1.2-0.2-1.7,0c-2.8-0.9-7.2,1.6-9.4,5.4
			c-0.2,0.4-0.4,0.8-0.6,1.2c-0.1,0-0.2-0.1-0.3-0.1c-0.1,0-0.3,0-0.4,0c-1.1,0-2.2,0.6-2.8,1.7c-1.8,3.1-0.9,6.8,1.8,9.4
			c-0.1,0.1-0.1,0.1-0.2,0.2c-0.5,0.4-1,0.7-1.5,1c-0.7,0.3-1,1.1-0.7,1.8c0.2,0.5,0.7,0.8,1.3,0.8c0.2,0,0.3,0,0.5-0.1
			c0.8-0.3,1.6-0.8,2.3-1.4c0.3-0.2,0.5-0.4,0.6-0.6c1.6,0.9,3.4,1.4,5.1,1.4c2.8,0,5.1-1.3,6.4-3.6c0.9-1.6,0.4-3-0.1-3.6
			c-0.1-0.1-0.1-0.1-0.2-0.1c0.3-0.4,0.5-0.7,0.7-1.1C181.3,419,181.8,415.7,181.1,413.1z M170.3,416.1c1.8-3.1,5.3-4.7,6.3-4.1
			c0.3,0.1,0.5,0.2,0.7,0.2c0.1,0.2,0.3,0.4,0.5,0.5c0.2,0.1,0.5,0.5,0.6,1.2c0.4,1.5,0.3,4.1-1.1,6.4c-0.6,1-1.3,1.9-2.1,2.6
			c-1-0.2-2.2-0.5-3.4-1.2c-1.2-0.7-2.1-1.5-2.8-2.3C169.3,418.2,169.7,417.1,170.3,416.1z M169.1,426.2c-2.5-1.4-4.3-4.1-3.2-6.8
			c0.8,1.6,2.5,3.2,4.6,4.4c2,1.1,4.4,1.8,6.1,1.7C175.1,427.6,171.9,427.8,169.1,426.2z"/>
		<path class="st1" d="M158.5,432.1c-0.3-0.7-1.1-1-1.8-0.7c-0.5,0.2-1.1,0.4-1.8,0.4c-0.1,0-0.2,0-0.3,0c0-1.4-0.2-2.7-0.8-3.9
			c-0.9-2-2.6-3.5-4.8-4c-1.6-0.4-2.9,0.4-3.4,1.1c-0.1,0.1-0.1,0.2-0.1,0.3c-0.4-0.2-0.9-0.3-1.3-0.4c-4.2-1-9,0.4-10.4,3
			c-0.4,0.2-1,0.4-1.2,1.2c-0.2,0.7,0.2,1.2,0.5,1.6c0,0.8,0.2,1.7,0.8,2.6c1.4,2.2,4.1,4.2,7,4.9c0.4,0.1,0.9,0.2,1.3,0.3
			c0,0.1,0,0.2,0,0.3c0.1,0.7,0.7,2.1,2.5,2.6c0.6,0.1,1.2,0.2,1.8,0.2l0,0c3.6,0,6.7-2.8,7.8-7c0,0,0,0,0,0c0.2,0,0.5,0,0.8,0
			c0.9-0.1,1.8-0.3,2.6-0.7C158.5,433.6,158.8,432.8,158.5,432.1z M136.3,432c-0.4-0.6-0.4-1.1-0.4-1.3c0.1-0.3,0.1-0.5,0-0.7
			c0.1-0.2,0.3-0.4,0.3-0.6c0.3-1.1,3.9-2.5,7.3-1.7c1.2,0.3,2.2,0.8,3.1,1.4c0.1,0.9,0,2.2-0.3,3.5c-0.4,1.4-0.9,2.5-1.4,3.3
			c-1.1,0.1-2.3,0-3.4-0.3C139.1,435,137.1,433.3,136.3,432z M151.7,433.9c-0.7,3-2.8,5-5.2,5c-0.1,0-0.3,0-0.5,0
			c1.3-1.3,2.5-3.5,3-5.6c0.6-2.2,0.5-4.7,0-6.4c1.3,0.5,2,1.5,2.3,2.3C152,430.5,152.1,432.2,151.7,433.9z"/>
		<path class="st1" d="M224.4,492c0,0,0.1,0,0.1,0c5,0,8.8-3.2,8.9-7.5c0-1.8-1.2-2.8-1.9-3.1c-0.1,0-0.2,0-0.3,0
			c0.1-0.4,0.1-0.9,0.1-1.3c0-3-1.1-6.1-3-8c-0.7-0.8-1.5-1.2-2.3-1.4c-0.2-0.4-0.6-0.9-1.4-0.9c-0.7,0-1.1,0.4-1.4,0.8
			c-2.8,0.6-5.5,4.9-5.6,9.3c0,0.5,0,0.9,0.1,1.4c-0.1,0-0.2,0-0.3,0c-0.7,0.3-1.9,1.2-1.9,3c0,2.2,0.9,4.2,2.7,5.6
			c1,0.8,2.2,1.4,3.5,1.7c0,0.1-0.1,0.2-0.1,0.3c-0.2,0.6-0.5,1.1-0.9,1.6c-0.5,0.6-0.4,1.4,0.2,1.9c0.3,0.2,0.6,0.3,0.9,0.3
			c0.4,0,0.8-0.2,1.1-0.5c0.6-0.7,1-1.5,1.3-2.4C224.2,492.5,224.3,492.2,224.4,492z M223.8,473.2L223.8,473.2
			c0.3,0,0.5-0.1,0.7-0.2c0.2,0.1,0.4,0.2,0.7,0.2c0.2,0,0.6,0.2,1.1,0.7c1.1,1.1,2.2,3.5,2.2,6.1c0,1.2-0.3,2.3-0.6,3.4
			c-0.9,0.3-2.1,0.5-3.5,0.5l0,0c-1.4,0-2.6-0.3-3.5-0.6c-0.4-1-0.6-2.2-0.6-3.4C220.4,476.2,222.7,473.2,223.8,473.2z M218.2,484.9
			c1.5,1,3.8,1.6,6.3,1.6c2.3,0,4.5-0.6,6-1.5c-0.4,2.7-3.3,4.2-6.1,4.2h-0.1c-1.8,0-3.4-0.5-4.5-1.5
			C219.2,487.2,218.4,486.3,218.2,484.9z"/>
		<path class="st1" d="M216.5,500.9c-0.4,0.5-0.8,0.9-1.3,1.2c-0.1,0.1-0.2,0.1-0.3,0.2c-1.5-2.7-4-4.4-6.8-4.4
			c-0.6,0-1.3,0.1-1.9,0.3c-1.8,0.5-2.4,1.9-2.5,2.6c0,0.1,0,0.2,0,0.3c-0.4,0.1-0.9,0.2-1.3,0.3c-4.2,1.2-7.7,4.8-7.6,7.7
			c-0.3,0.3-0.7,0.9-0.4,1.6c0.2,0.7,0.7,1,1.2,1.1c0.4,0.7,1.1,1.4,2,1.9c1.5,0.8,3.4,1.3,5.3,1.3c1.1,0,2.2-0.1,3.2-0.4
			c0.4-0.1,0.9-0.3,1.3-0.4c0,0.1,0,0.2,0.1,0.2c0.4,0.5,1.3,1.2,2.5,1.2c0.3,0,0.6,0,1-0.1c1.9-0.5,3.3-1.7,4.3-3.3
			c1.2-2,1.4-4.7,0.7-7.2c0.2-0.1,0.4-0.3,0.7-0.5c0.8-0.5,1.4-1.1,2-1.9c0.4-0.6,0.3-1.4-0.3-1.9
			C217.8,500.2,216.9,500.3,216.5,500.9z M205.3,512c-2.5,0.7-5.1,0.2-6.4-0.6c-0.6-0.4-0.9-0.7-1-0.9c-0.1-0.3-0.2-0.5-0.3-0.6
			c0-0.2,0-0.5,0-0.7c-0.3-1.1,2.1-4.1,5.6-5.1c1.1-0.3,2.3-0.4,3.4-0.3c0.5,0.8,1.1,1.9,1.5,3.3c0.4,1.4,0.4,2.6,0.4,3.6
			C207.5,511.1,206.5,511.6,205.3,512z M212.8,510.7c-0.5,0.8-1.2,1.5-2,1.8c0.5-1.7,0.5-4.1-0.1-6.4c-0.6-2.1-1.8-4.3-3.1-5.6
			c2.5-0.3,4.9,1.7,5.7,4.8C213.8,507.4,213.7,509.3,212.8,510.7z"/>
		<path class="st1" d="M298.4,528.4c0.9,0,1.8-0.1,2-0.7c0-0.1,0-0.2,0-0.3c0,0,0-0.1,0-0.2c0-0.6,0.1-1.3-8.9-3
			c0.1-3.3-0.1-9.9-4.1-12.5c-0.8-0.5-1.7-0.8-2.5-0.8c-2.3,0-3.5,1.9-4.3,3.2c-0.1,0.2-0.3,0.5-0.5,0.7c-0.4-0.3-0.6-1.1-0.9-3.5
			l-0.2-1.5c-0.4-2.5-1.1-7.8-6.5-9.3c-0.7-0.2-1.3-0.3-1.9-0.3c-3.8,0-4.9,3.6-5.6,5.8c-0.2,0.8-0.6,2.1-1,2.3
			c-0.7-0.6-0.7-4.1-0.7-5.6v-1.1c0-7.1-3.4-11.2-9.1-11.2c-0.6,0-1.2,0-1.8,0.1c-1.7,0.1-3,0.8-4,1.9c-1.8,2.2-1.4,5.3-1,8.1
			c0.1,0.9,0.3,2.3,0.2,3c-0.2,0.1-0.4,0.1-0.6,0.1c-0.9,0-2-1-3.1-3.2c-2.1-3.8-5.5-6-9.3-6c-3.7,0-7.2,2.1-9.7,5.8
			c-2.5,3.7-2.8,8-1,11.4c1.8,3.4,5.6,5.4,10,5.4c0.4,0,0.7,0,1.1,0c0.4,0,0.7,0,1.1,0c2.7,0,3.7,0.7,4.3,1.9
			c-0.5,0.4-1.7,1-2.5,1.4c-2.5,1.2-5.4,2.6-6.1,5.3c-0.4,1.5,0,3.2,1.2,4.9c3.3,4.2,6.9,5.1,9.5,5.1c3,0,6.1-1.3,8.6-3.6
			c0.3-0.3,0.7-0.6,1-1c1.4-1.4,3.4-3.2,4.5-3.2c0.1,0,0.3,0,0.5,0.2c0.1,0.4-0.4,1.5-0.7,2.1c-0.7,1.7-1.6,3.9-0.6,6
			c0.6,1.4,2,2.5,4,3.2c1.2,0.4,2.4,0.6,3.6,0.6c4.4,0,7.1-3,8.4-4.4l0.2-0.2c0.4-0.5,0.8-0.9,1.2-1.3c1.3-1.4,2-2.2,2.7-2.2
			c0,0,0,0,0,0c0.1,0.3,0.1,0.6,0.1,0.8c0.2,1.6,0.8,5.5,5.5,5c3.8-0.4,6.9-3.8,9-10.1C294.4,528.2,296.9,528.4,298.4,528.4z
			 M281.5,533.8c-0.4,0-0.7,0-0.7,0c-0.2-0.2-0.3-1.1-0.4-1.6c-0.2-1.4-0.6-3.7-2.9-4.1c-0.5-0.1-0.9-0.1-1.3-0.1
			c-2.6,0-4.1,1.7-5.8,3.6c-0.4,0.4-0.7,0.8-1.1,1.3l-0.2,0.3c-1.1,1.2-2.8,3-5.4,3c-0.7,0-1.5-0.1-2.3-0.4c-0.9-0.3-1.5-0.7-1.6-1
			c-0.2-0.5,0.3-1.8,0.7-2.8c0.7-1.8,2-4.8-0.6-6.8c-0.9-0.7-1.9-1-3-1c-2.7,0-5.1,2.2-7.3,4.3c-0.3,0.3-0.7,0.6-1,0.9
			c-1.8,1.6-3.9,2.6-5.9,2.6c-2.3,0-4.5-1.2-6.2-3.5c-0.3-0.4-0.7-1.1-0.6-1.5c0.2-0.9,2.4-2,3.9-2.7c2.5-1.2,5.9-2.8,4.7-6.1
			c-1.8-4.9-6.7-4.9-8.2-4.9c-0.4,0-0.9,0-1.4,0c-3.3,0.2-6-1-7.2-3.3c-1.1-2.1-0.8-4.8,0.8-7.2c1.7-2.5,4-4,6.3-4
			c2.3,0,4.3,1.4,5.7,3.9c1.2,2.3,3.3,5.3,6.7,5.3c0.8,0,1.6-0.2,2.5-0.5c2.7-1.1,2.3-4.3,2-7.1c-0.2-1.8-0.5-4.2,0.1-5
			c0.1-0.1,0.3-0.4,1.2-0.4c0.5-0.1,0.9-0.1,1.3-0.1c1.4,0,5,0,5,7.2v1c0,3.1,0,6.6,1.8,8.4c0.9,0.9,2.1,1.3,3.3,1.2
			c3-0.2,3.8-3.1,4.5-5.2c0.9-3.1,1.3-3.1,2.5-2.8c2.6,0.7,3.2,3.2,3.6,5.9l0.2,1.5c0.4,3.1,0.9,6.3,4.6,7.1c0.2,0,0.4,0.1,0.6,0.1
			l0,0c1.9,0,2.9-1.6,3.6-2.8c0.3-0.4,0.7-1.2,0.8-1.3c0,0,0.1,0,0.3,0.2c0.9,0.6,2.2,2.4,2.2,8.3c-1-0.2-2-0.3-3.2-0.5
			c-15-2.6-34-10.2-40.3-12.6c-1.9-0.8-1.9-0.8-2.1-0.8c-0.2,0-0.4,0.1-0.5,0.2l0,0c0,0.1-0.1,0.1-0.1,0.2c0,0.1,0,0.1-0.1,0.2
			c0,0.1,0,0.2,0,0.3c0.4,1.3,25,13,42.4,16.1c1.1,0.2,2.2,0.3,3.2,0.5C284.9,532.3,282.9,533.6,281.5,533.8z"/>
		<path class="st1" d="M176.4,248.4l0.3,0.4l0,0.2h0.6c0.3,0,0.6,0,2.6-2.1c2.5,1.4,5.9,2.9,9.1,2.9c1.4,0,2.6-0.3,3.7-0.9
			c1.1-0.7,1.8-1.5,2.1-2.6c0.4-1.7-0.5-3.3-1.1-4.4c-0.1-0.2-0.3-0.4-0.4-0.7c0.6-0.2,1.8,0.3,3.2,0.7l1.7,0.6c1.2,0.4,3,1,4.9,1
			c2.4,0,4.5-0.9,6-2.6c1.2-1.2,1.7-2.5,1.7-3.9c-0.1-2.2-1.8-3.9-3.1-5.2c-0.5-0.5-1.3-1.3-1.5-1.7c0-0.1,0.1-0.1,0.3-0.1
			c1.2,0,3.3,1.1,5,1.9l0.7,0.4c7.1,3.4,12.7,1.4,14.6-4.6c0.6-1.6,0.6-3.1-0.1-4.4c-1.2-2.5-4-3.5-6.6-4.3
			c-0.9-0.3-2.1-0.7-2.6-1.1c0.1-0.8,0.6-1.9,4.2-1.9c4.2-0.1,7.6-2,9.3-5.1c1.8-3.3,1.6-7.4-0.6-11.4c-2.1-3.7-5.6-5.9-9.4-5.9
			c-4.3,0-8,2.7-9.9,7.2c-1.5,3.3-2.6,4-3.9,4c-0.1-0.6-0.1-1.9-0.1-2.8c0-2.7,0-5.7-1.8-7.5c-0.6-0.6-1.8-1.4-3.6-1.4
			c-0.4,0-0.9,0-1.5,0.1c-3.9,0.8-6.8,2.7-8.5,5.5c-1.6,2.7-1.9,6.1-0.9,9.6c0.1,0.5,0.3,1.1,0.5,1.6c0.8,2.8,1.5,5.1,0.4,5.5
			c-0.3-0.1-1.1-1-1.6-1.5c-1.3-1.4-2.8-3.3-5.2-3.3c-1.5,0-2.9,0.7-4.4,2.1c-4.7,4.8-2.8,10-1.9,12.2l0.1,0.3
			c0.2,0.5,0.4,1,0.5,1.4c0.8,2.1,1,2.8,0.7,3.4c-0.2-0.1-0.5-0.2-0.8-0.2c-0.8-0.3-1.7-0.6-2.8-0.6c-1.1,0-3.1,0.4-4.2,3.2
			c-1.4,3.6,0.3,7.9,5.1,12.7C176,247.6,176.3,248.1,176.4,248.4z M176.2,234c0.2-0.5,0.4-0.5,0.4-0.6c0.4,0,0.9,0.2,1.5,0.4
			c0.8,0.3,1.5,0.5,2.4,0.5c1.3,0,2.1-0.6,2.6-1.2c2.2-2.7,1.1-5.4,0.1-7.9c-0.2-0.4-0.3-0.9-0.5-1.3l-0.1-0.3c-1-2.5-1.7-5.2,1-7.9
			c0.9-0.9,1.4-1,1.6-1c0.6,0,1.4,1,2.2,1.8c1.1,1.3,2.5,2.9,4.6,2.9c0.6,0,1.1-0.1,1.6-0.3c4.5-1.9,2.9-7,1.9-10.4
			c-0.2-0.5-0.3-1-0.4-1.5c-0.7-2.4-0.6-4.7,0.4-6.4c1.1-1.8,3.1-3.1,5.8-3.6c0.3,0,0.5-0.1,0.7-0.1c0.5,0,0.7,0.1,0.7,0.2
			c0.6,0.6,0.6,3,0.6,4.6c0,2.8-0.1,6.6,3.4,6.9c4.7,0.5,6.9-3,8.4-6.4c1.3-3,3.6-4.8,6.1-4.8c2.3,0,4.5,1.4,5.8,3.8
			c1.5,2.7,1.8,5.4,0.6,7.4c-1,1.8-3.1,2.9-5.8,3c-6.5,0-8.1,3.3-8.3,6.1c-0.2,2.9,2.9,4,5.4,4.8c1.6,0.6,3.8,1.3,4.2,2.2
			c0.1,0.1,0.2,0.4-0.1,1.4c-1,3.2-2.9,3.6-4.2,3.6c-1.3,0-3-0.4-4.7-1.3l-0.7-0.4c-2.2-1.1-4.6-2.4-6.8-2.4c-1.8,0-3.3,0.9-4.1,2.5
			c-1.2,2.7,1,4.9,2.5,6.3c0.7,0.7,1.8,1.7,1.8,2.3c0,0.2-0.2,0.6-0.6,1c-0.8,0.9-1.7,1.3-3,1.3c-1.3,0-2.6-0.4-3.6-0.8l-1.7-0.6
			c-1.6-0.5-2.9-1-4.2-1c-1.5,0-2.8,0.6-3.8,1.9c-1.5,1.8-0.3,3.8,0.4,5c0.2,0.4,0.6,1,0.7,1.3c0,0-0.1,0.1-0.2,0.1
			c-0.4,0.2-1,0.3-1.6,0.3c-2.1,0-4.6-1.1-6.4-2c1.4-1.7,3.3-4,5.8-6.9c9-11.1,23.4-23.6,29.8-28.6l0.2-0.1c2.5-1.7,2.5-1.7,2.5-2.1
			l0-0.3l-0.4-0.5h-0.3c-0.3,0-0.4,0-2.8,1.9c-5.5,3.9-22.1,15.6-31.7,27.4c-2.5,3.1-4.4,5.5-5.7,7.3
			C175.7,237.5,175.8,235,176.2,234z"/>
		<path class="st1" d="M197.7,495.1L197.7,495.1c4,0,7.7-3,9.7-4.7c1.5,1,2.5,1.5,3.1,1.5c0.5,0,0.7-0.3,0.8-0.4c0,0,0,0,0-0.1
			c0.1-0.1,0.2-0.2,0.2-0.3c0.1-0.4,0.2-0.6-2.1-2.9c1.4-2.3,5.4-8.8,2.8-13.2c-1.1-1.9-2.6-2.3-3.6-2.3c-1.3,0-2.4,0.6-3.3,1.1
			c-0.2,0.1-0.4,0.2-0.6,0.3c-0.1-0.5,0.1-1.2,0.8-3.2l0.6-1.5c0.8-2.1,2.7-7.1-1.2-10.9c-1.2-1.3-2.5-2-3.9-2
			c-2.2,0-3.8,1.6-5.1,2.9c-0.6,0.5-1.5,1.4-1.8,1.4c-0.4-0.7,1.5-4.1,2.1-5.2l0.4-0.7c2-3.7,2.4-7,1.4-9.8c-0.8-2.3-2.7-4-5.4-5
			c-0.8-0.4-1.7-0.5-2.5-0.5c-3.9,0-5.4,3.9-6.6,6.8c-0.3,0.9-0.8,2.1-1.2,2.6c-0.8-0.2-1.8-0.8-1.9-4.1c0.2-3.3-0.8-6.2-2.7-8.2
			c-3.1-3.2-8.5-3.8-13.4-1.2c-3.8,2-6.2,5.5-6.2,9.4c0,4.1,2.5,7.8,6.7,10c3.5,1.6,4,2.7,3.9,3.9c-0.4,0.1-1.6,0.1-2.8,0
			c-0.7,0-1.5-0.1-2.2-0.1c-1.9,0-4.2,0.2-5.7,1.9c-1,1.1-1.4,2.7-1.1,4.6c0.9,6.5,5.2,10.5,11.1,10.5c1.2,0,2.4-0.2,3.6-0.5
			c0.5-0.1,1.1-0.3,1.6-0.4c1.5-0.4,3.1-0.8,4.3-0.8c1.1,0,1.2,0.3,1.3,0.6c-0.1,0.3-1,1.1-1.6,1.5c-1.4,1.1-3.2,2.5-3.4,4.8
			c-0.2,1.5,0.4,3.1,1.8,4.8c2,2.2,4.5,3.3,7.3,3.3c2,0,3.7-0.6,4.9-1l0.4-0.1c0.5-0.2,1-0.3,1.5-0.5c1.1-0.4,2.1-0.8,2.8-0.8
			c0.2,0,0.4,0,0.6,0.2c-0.1,0.3-0.2,0.6-0.3,0.8c-0.6,1.4-2.1,5.3,2.4,7.1C195.9,494.9,196.8,495.1,197.7,495.1z M192.4,482.4
			c-1.3,0-2.6,0.5-4.1,1c-0.4,0.2-0.9,0.3-1.4,0.5l-0.4,0.1c-0.9,0.3-2.2,0.7-3.6,0.7c-1.6,0-3.1-0.7-4.2-1.9
			c-0.6-0.7-0.9-1.4-0.9-1.7c0.1-0.6,1.1-1.4,1.9-2.1c1.6-1.3,4-3.2,2.8-6.1c-0.4-1.2-1.7-3.2-5.1-3.2c-1.7,0-3.5,0.5-5.3,0.9
			c-0.5,0.1-1,0.3-1.6,0.4c-0.9,0.2-1.8,0.4-2.6,0.4c-3.9,0-6.4-2.5-7-7c-0.1-0.7,0-1.2,0.1-1.4c0.2-0.2,0.7-0.5,2.7-0.5
			c0.7,0,1.3,0,2,0.1c0.7,0,1.4,0.1,2,0.1c3.1,0,4.8-1.1,5-3.1c0.8-4.9-2.9-7.2-6.1-8.6c-2.8-1.4-4.4-3.8-4.4-6.3
			c0-2.4,1.4-4.5,4-5.8c3.3-1.7,6.7-1.5,8.5,0.4c1.1,1.2,1.7,3,1.6,5.3c0.1,5,2,7.8,5.9,8.3l0.3,0c2.7,0,3.8-2.8,4.7-5.2
			c0.7-1.9,1.6-4.2,2.8-4.2c0.2,0,0.6,0.1,1,0.2c1.7,0.6,2.7,1.5,3.1,2.7c0.6,1.6,0.2,3.8-1.2,6.4l-0.4,0.7
			c-1.5,2.7-3.2,5.7-2.4,8.3c0.3,1.1,1.1,2,2.2,2.6c0.6,0.3,1.1,0.4,1.8,0.4c1.9,0,3.3-1.4,4.6-2.6c0.7-0.7,1.8-1.7,2.3-1.7
			c0.1,0,0.4,0.2,0.9,0.7c1.9,1.9,1.2,4.2,0.3,6.7l-0.6,1.5c-1,2.7-2.1,5.6,0.5,8.1c0.6,0.5,1.3,0.8,2.1,0.8l0,0c1.1,0,2-0.5,2.9-1
			c0.4-0.2,1.1-0.6,1.2-0.7c0,0,0.1,0.1,0.2,0.3c0.4,0.7,0.9,2.8-2.3,8.3c-1.6-1.5-3.7-3.5-6.5-6c-7.7-6.8-17.1-17.6-28-32.1
			c-1.2-1.6-1.2-1.6-1.6-1.6c-0.1,0-0.2,0-0.2,0c-0.2,0.1-0.4,0.3-0.4,0.5c-0.2,1.3,14.7,24.2,27.8,35.8c2.6,2.4,4.8,4.3,6.7,5.9
			c-2.5,2.1-4.7,3.2-6.4,3.2c-0.4,0-0.8-0.1-1.1-0.2c-0.4-0.2-0.5-0.3-0.5-0.3c-0.1-0.3,0.3-1.1,0.5-1.6c0.5-1.3,1.3-3.4-0.3-5
			C195.1,482.9,193.8,482.4,192.4,482.4z"/>
		<path class="st1" d="M138.3,406.1c0.6,0.1,1.2,0.2,1.7,0.3c2.2,0.4,2.8,0.6,3.2,1.1c-0.2,0.2-0.4,0.4-0.6,0.5
			c-1.2,1-4.2,3.6-1.4,7.3c1.6,2.1,4.1,3.1,7.6,3.1c2.2,0,4.3-0.4,5.6-0.7c1.5,3.1,1.9,3.1,2.3,3.1c0.2,0,0.5-0.1,0.6-0.3l0.3-0.1
			c0.2-0.3,0.4-0.6-0.5-3.8c2.7-1.5,8.6-5.2,8.7-10c0-1.3-0.3-2.4-1.1-3.1c-1.3-1.3-3.1-1.3-4.4-1.3c-0.2,0-0.5,0-0.8,0
			c0.1-0.5,0.6-1,2.4-2.5l1.2-1c1.9-1.6,5.9-4.9,4.5-10.2c-0.7-2.6-2.5-4.1-5-4.1c-1.2,0-2.4,0.3-3.4,0.6c-0.8,0.2-1.6,0.4-2.1,0.4
			c-0.2,0-0.2,0-0.3-0.1c0.1-0.9,3.1-2.6,4.3-3.4l0.9-0.5c3.6-2.2,5.6-4.8,6.1-7.6c0.4-2.5-0.5-4.9-2.4-7.2c-1.5-2-3.1-2.4-4.3-2.4
			c-2.5,0-4.7,1.8-6.6,3.3c-0.7,0.6-1.8,1.4-2.3,1.7c-0.7-0.5-1.2-1.4,0.7-4.6c2.1-3.5,2.3-7.3,0.6-10.4c-1.8-3.3-5.6-5.4-10.2-5.6
			l-0.5,0c-4.3,0-7.9,2-9.6,5.4c-1.9,3.5-1.4,7.9,1.3,11.8c2.1,3,1.8,4.4,1.2,5.4c-0.6-0.2-1.7-0.9-2.5-1.4c-1.9-1.2-4-2.5-6.2-2.5
			c-1.5,0-3.6,0.6-4.9,3.8c-1.3,3.6-1.2,7,0.3,9.9c1.5,2.9,4.2,5,7.8,6c0.4,0.1,0.9,0.2,1.4,0.4c2.9,0.8,5.2,1.5,5.1,2.6
			c-0.3,0.2-1.4,0.4-2.1,0.5c-1.8,0.3-4.1,0.7-5.4,2.6c-0.9,1.3-1.1,2.9-0.6,5c1.5,6.6,6.9,7.7,9.3,8.1L138.3,406.1z M132.7,397
			c-0.3-1.3-0.1-1.8,0-1.9c0.3-0.5,1.7-0.7,2.7-0.8c1.9-0.3,5.1-0.8,5.4-4.1c0.4-4.7-4.5-6-8.1-7c-0.4-0.1-0.9-0.2-1.3-0.4
			c-2.5-0.7-4.4-2.1-5.3-4c-0.9-1.9-1-4.1-0.1-6.5c0.5-1.2,1-1.2,1.2-1.2c1,0,2.7,1.1,4,1.9c1.7,1.1,3.3,2.1,4.9,2.1
			c1.1,0,2-0.5,2.8-1.4c3.3-4.5,0.1-9-0.9-10.5c-1.8-2.6-2.2-5.4-1-7.6c1.1-2,3.3-3.2,6-3.2h0.3c3.1,0.1,5.6,1.4,6.8,3.5
			c1,1.8,0.8,4.1-0.6,6.4c-1,1.7-4,6.9,0.7,10.2c0.6,0.4,1.2,0.6,1.9,0.6l0,0c1.7,0,3.3-1.2,5-2.6c1.3-1,3-2.4,4.1-2.4
			c0.1,0,0.5,0,1.1,0.8c1.2,1.4,1.8,2.8,1.6,4c-0.3,1.6-1.7,3.3-4.2,4.8l-0.9,0.5c-2.7,1.6-5.7,3.4-6.2,6.1
			c-0.2,1.1,0.1,2.3,0.8,3.3c0.6,0.8,1.6,1.7,3.5,1.7c1.1,0,2.1-0.3,3.2-0.6c0.9-0.2,1.8-0.5,2.4-0.5c0.4,0,0.8,0,1.1,1.1
			c0.7,2.5-1.1,4.3-3.1,6l-1.2,1c-2.3,1.9-4.7,3.9-3.6,7.5c0.8,2.2,3.1,2.2,4.5,2.2c0.4,0,1.1,0,1.4,0.1c0,0.1,0,0.1,0,0.2
			c0,1-0.9,3.1-5.8,6.1c-0.7-2.1-1.6-4.7-2.8-8.1c-4.7-13.4-7.3-31.8-8.4-39.7c-0.6-4.3-0.6-4.3-1.3-4.3l-0.6,0.3
			c-0.6,0.9,0.8,27.4,6.8,44.8c1.3,3.5,2.3,6.2,3.1,8.2c-1.1,0.2-2.5,0.5-3.9,0.5c-2.1,0-3.6-0.5-4.3-1.5c-0.3-0.4-0.3-0.5-0.3-0.5
			c0.1-0.3,0.8-0.8,1.1-1.1c1-0.9,2.8-2.4,2-4.5c-1.1-3.3-3.9-3.8-6.5-4.2c-0.5-0.1-1.1-0.2-1.6-0.3l-0.3-0.1
			C136.1,401.5,133.5,400.7,132.7,397z"/>
		<path class="st1" d="M134.7,310.3l0.2,0.2c0.4,0.4,0.9,0.7,1.3,1c1.8,1.4,2.3,1.9,2.3,2.6c-0.2,0.1-0.6,0.1-0.8,0.2
			c-1.5,0.3-5.4,1-4.8,5.6c0.5,3.8,4,6.6,10.4,8.5c-0.1,2.5,0.3,2.9,0.4,3.1c0.1,0.2,0.5,0.4,0.7,0.3c0.1,0,0.1,0,0.2,0
			c0.5,0,0.7,0,1.5-3c2.9,0,9.9-0.3,12.5-4.5c0.7-1.1,0.9-2.2,0.6-3.3c-0.4-1.7-2-2.6-3.1-3.3c-0.2-0.1-0.4-0.2-0.6-0.4
			c0.3-0.3,1.1-0.6,3.1-1l1.6-0.3c2.3-0.4,7.6-1.4,8.8-6.8c1.3-5.4-3.5-6.6-5.7-7.1c-0.7-0.2-1.8-0.5-2.1-0.7c0,0,0,0,0,0
			c0.7-0.7,3.9-0.9,5.6-0.9l0.8,0c4.1-0.3,7.1-1.5,8.9-3.8c1.5-1.9,2.1-4.4,1.6-7.4c-0.3-1.8-1.5-4.9-6.1-4.9c-1.3,0-2.7,0.3-4,0.5
			c-1,0.2-1.9,0.3-2.6,0.3c-0.1,0-0.2,0-0.2,0c-0.3-0.8-0.3-2.1,2.6-3.7c3.6-2,5.7-5.2,5.7-8.8c0.1-3.8-2.2-7.5-6.1-9.8
			c-4.6-2.8-10.1-2.2-13.4,1.3c-2.1,2.3-3.1,5.6-2.8,9.2c0.3,3.6-0.2,4.8-1.4,5.4c-0.4-0.5-1-1.6-1.5-2.4c-1.4-2.6-3.2-5.9-6.5-5.9
			c-1.3,0-2.5,0.5-3.8,1.5c-3,2.5-4.7,5.5-4.8,8.7s1.3,6.5,4,9.1c0.4,0.4,0.8,0.8,1.2,1.2c2.1,2,3.7,3.7,2.9,4.6
			c-0.5,0-1.3-0.3-2-0.6c-1.1-0.4-2.4-0.9-3.7-0.9c-1.7,0-4,0.8-5.2,4.6C128.6,305.2,132.8,308.8,134.7,310.3z M134.3,299.8
			c0.5-1.7,1-1.7,1.3-1.7c0.6,0,1.5,0.3,2.3,0.6c1.1,0.4,2.3,0.8,3.4,0.8l0,0c1.4,0,2.5-0.6,3.3-1.6c3-3.8-0.8-7.5-3.4-10
			c-0.4-0.4-0.8-0.7-1.1-1.1c-1.9-1.8-2.9-4-2.8-6c0.1-2,1.3-4,3.3-5.7c0.7-0.6,1.1-0.6,1.2-0.6c0.9,0,2.1,2.4,2.9,3.8
			c1.3,2.3,2.5,4.7,4.9,4.7l0,0c0.5,0,0.9-0.1,1.3-0.3c4.9-1.9,4.5-7,4.3-9.7c-0.2-2.5,0.4-4.6,1.8-6.1c2-2.1,5.3-2.4,8.3-0.6
			c2.7,1.6,4.2,4,4.2,6.3c0,2.1-1.3,4-3.7,5.3c-5.8,3.3-5.1,7.2-4.2,9.4c0.4,0.9,1.5,2,3.8,2c1,0,2.1-0.2,3.3-0.4
			c1.1-0.2,2.3-0.4,3.3-0.4c1.6,0,1.9,0.5,2,1.5c0.3,1.8,0,3.2-0.7,4.2c-1,1.3-3.1,2.1-5.9,2.2l-0.8,0c-3.1,0.1-6.6,0.3-8.4,2.2
			c-0.8,0.8-1.2,1.9-1.1,3.2c0.3,3,3.2,3.8,5.2,4.3c3.1,0.8,3.1,1.1,2.8,2.3c-0.6,2.6-3,3.2-5.6,3.7l-1.6,0.3
			c-2.9,0.6-5.9,1.1-6.6,4.7c-0.4,2.3,1.6,3.5,2.8,4.2c0.4,0.2,0.9,0.5,1.2,0.8c0,0,0,0.1-0.1,0.2c-0.5,0.9-2.4,2.3-8.2,2.5
			c0.4-2.2,1-5.1,1.7-9c2.4-13.7,9.2-31,12.1-38.3c1.6-4.2,1.6-4.2,1.2-4.6c-0.1-0.1-0.3-0.1-0.4-0.1c-1.6,0-13.5,25.6-16.4,42.4
			c-0.7,4-1.2,7-1.5,9.2c-5.5-1.7-6.6-3.8-6.7-4.9c-0.1-0.5,0-0.6,0-0.6c0.2-0.2,1.1-0.4,1.6-0.5c1.3-0.3,3.6-0.7,4-3
			c0.7-3.4-1.6-5.2-3.7-7c-0.4-0.3-0.8-0.6-1.2-1l-0.3-0.2C135.2,305.5,133.3,303.5,134.3,299.8z"/>
		<path class="st1" d="M475.9,252.5c-0.1,0.1-0.1,0.1-0.2,0.3c-0.4,0.5-0.8,0.9-1.3,1.3c-0.6,0.4-0.8,1.3-0.4,1.9
			c0.3,0.4,0.7,0.6,1.1,0.6c0.3,0,0.5-0.1,0.8-0.2c0.7-0.5,1.4-1.1,1.9-1.9c0.2-0.3,0.4-0.5,0.5-0.7c1.1,0.3,2.2,0.5,3.2,0.5
			c3.7,0,6.6-2,7.5-5.1c0.6-1.8-0.3-3-0.9-3.5c-0.1-0.1-0.1-0.1-0.2-0.1c0.2-0.4,0.3-0.8,0.5-1.3c0.9-2.8,0.7-6.2-0.5-8.5
			c-0.5-0.9-1.1-1.6-1.8-2c-0.1-0.4-0.4-1-1.1-1.2c-0.7-0.2-1.2,0.1-1.6,0.4c-2.9-0.2-6.7,3.1-8,7.3c-0.1,0.4-0.3,0.9-0.3,1.3
			c-0.1,0-0.2-0.1-0.3-0.1c-0.8,0-2.2,0.6-2.7,2.4c-0.7,2.1-0.3,4.3,0.9,6.2C473.8,250.9,474.8,251.8,475.9,252.5z M478,240.8
			c1.1-3.4,4.2-5.7,5.3-5.4c0.3,0.1,0.5,0.1,0.7,0c0.2,0.2,0.4,0.3,0.6,0.4c0.2,0.1,0.5,0.4,0.9,1c0.7,1.4,1.1,4,0.4,6.4
			c-0.4,1.1-0.9,2.1-1.6,3c-0.1,0-0.2,0-0.3,0c-1,0-2.2-0.2-3.2-0.5c-1.4-0.4-2.4-1-3.2-1.6C477.5,243.1,477.7,242,478,240.8z
			 M474.5,245.1c1.2,1.3,3.2,2.6,5.4,3.3c1.3,0.4,2.7,0.6,4,0.6c0.5,0,1.4,0,2.3-0.3c-0.8,1.7-2.5,2.6-4.7,2.6
			c-0.8,0-1.6-0.1-2.5-0.4c-1.7-0.5-3-1.5-3.9-2.7C474.8,247.6,474.3,246.5,474.5,245.1z"/>
		<path class="st1" d="M465.7,262.7c0.2,0,0.5-0.1,0.8-0.2c0.9-0.3,1.7-0.7,2.4-1.2c0.6-0.4,0.7-1.3,0.3-1.9
			c-0.5-0.6-1.3-0.7-1.9-0.3c-0.5,0.4-1,0.6-1.6,0.8c-0.1,0-0.2,0.1-0.3,0.1c-0.8-3.7-3.6-6.4-7.2-6.4c-1.8,0-2.7,1.2-3,1.8
			c0,0.1,0,0.2,0,0.3c-0.4-0.1-0.9-0.1-1.4-0.1c-4.4-0.1-8.7,2.4-9.5,5.2c-0.4,0.2-0.9,0.6-0.9,1.4c0,0.7,0.4,1.1,0.8,1.4
			c0.1,0.8,0.6,1.6,1.3,2.4c1.8,1.9,4.9,3.2,7.9,3.2c0.1,0,0.2,0,0.3,0c0.4,0,0.7,0,1,0c0,0.1,0,0.2,0,0.3c0.3,0.7,1.2,1.9,3,2
			c0,0,0.2,0,0.2,0C462.3,271.4,465.5,267.8,465.7,262.7z M453.5,266.5c-2.6-0.1-4.9-1.3-6-2.4c-0.5-0.5-0.7-0.9-0.7-1.1
			c0-0.3,0-0.5-0.2-0.7c0.1-0.2,0.2-0.4,0.2-0.7c0-1.1,3.2-3.3,6.8-3.3c1.2,0,2.3,0.3,3.4,0.7c0.3,0.9,0.5,2.1,0.5,3.5
			c0,1.4-0.3,2.7-0.7,3.5C455.8,266.4,454.7,266.6,453.5,266.5z M458.6,268.7c1-1.5,1.6-3.9,1.7-6.1c0-2.3-0.5-4.7-1.4-6.2
			c2.5,0.4,4.2,3,4.1,6.3C462.9,265.9,461.1,268.4,458.6,268.7z"/>
		<path class="st1" d="M480.5,347.9c1.1,0.7,2.3,1,3.6,1c2.9,0,5.7-1.8,7.5-4.7c0.2,0.1,0.5,0.1,0.8,0.2c0.6,0.1,1.2,0.2,1.8,0.2
			c0.3,0,0.6,0,0.9-0.1c0.7-0.1,1.3-0.8,1.2-1.5c-0.1-0.7-0.8-1.3-1.5-1.2c-0.6,0.1-1.2,0-1.8-0.1c-0.1,0-0.2,0-0.3-0.1
			c0.4-1.3,0.6-2.6,0.4-3.9c-0.3-2.2-1.5-4.1-3.4-5.2c-0.6-0.4-1.2-0.5-1.8-0.5c-1,0-1.7,0.5-1.8,0.6c-0.1,0.1-0.1,0.2-0.2,0.2
			c-0.4-0.3-0.7-0.5-1.1-0.8c-3.7-2.3-8.7-2.3-10.8-0.2c-0.4,0-1.1,0.1-1.5,0.8c-0.4,0.6-0.2,1.2,0,1.6c-0.3,0.8-0.3,1.7,0,2.7
			c0.6,2.6,2.7,5.2,5.2,6.7c0.4,0.2,0.8,0.4,1.2,0.6c0,0.1-0.1,0.1-0.1,0.2C478.7,345.4,478.9,346.9,480.5,347.9z M490.4,338.2
			c0.2,1.5-0.2,3.1-1.1,4.6c-1.6,2.8-4.5,4.1-6.8,3.1c1.6-0.8,3.3-2.5,4.5-4.5c1.2-2,1.9-4.3,1.9-6.1
			C489.9,336.2,490.3,337.3,490.4,338.2z M475.1,336.4c-0.2-0.7-0.1-1.1,0-1.3c0.1-0.2,0.2-0.5,0.2-0.7c0.2-0.1,0.4-0.3,0.5-0.5
			c0.6-1,4.4-1.3,7.5,0.5c1,0.6,1.9,1.4,2.6,2.2c-0.2,0.9-0.6,2.1-1.3,3.3c-0.8,1.2-1.6,2.1-2.3,2.7c-1.1-0.2-2.2-0.6-3.2-1.2
			C476.9,340.1,475.5,337.9,475.1,336.4z"/>
		<path class="st1" d="M509.6,331c-0.1-0.1-0.1-0.1-0.2-0.2c-0.1-0.1-0.6-0.3-1.2-0.3c-0.6,0-1.5,0.2-2.3,1c-1.4,1.3-2.2,3-2.2,5
			c0,1.5,0.4,3.1,1.2,4.6c-0.1,0-0.2,0.1-0.3,0.1c-0.5,0.3-1.1,0.4-1.7,0.5c-0.7,0.1-1.3,0.7-1.2,1.5c0.1,0.7,0.7,1.2,1.4,1.2
			c0,0,0.1,0,0.1,0c0.9-0.1,1.8-0.3,2.6-0.7c0.3-0.1,0.6-0.3,0.8-0.4c1.9,2,4.4,3.2,6.8,3.2c1.8,0,3.5-0.7,4.8-1.9
			c1.3-1.3,1.2-2.8,0.9-3.5c0-0.1-0.1-0.1-0.1-0.2c0.4-0.3,0.7-0.6,1-0.9c2.2-2,3.6-5.1,3.7-7.7c0-1.1-0.2-2-0.6-2.7
			c0.1-0.4,0.2-1.1-0.3-1.6c-0.5-0.5-1.1-0.5-1.6-0.5c-2.4-1.6-7.3-0.6-10.5,2.4C510.2,330.3,509.9,330.6,509.6,331z M508.4,341.4
			c-1.4-1.4-2.1-3.2-2-4.8c0-1,0.3-1.9,0.9-2.6c0.3,1.7,1.5,3.8,3.1,5.6c1.6,1.7,3.6,3,5.4,3.4C513.6,344.4,510.5,343.7,508.4,341.4
			z M519.6,329.8c0.2,0.2,0.4,0.4,0.6,0.4c0.1,0.2,0.2,0.4,0.4,0.7c0.2,0.2,0.3,0.6,0.3,1.3c0,1.5-0.9,4-2.8,5.8
			c-0.9,0.8-1.8,1.4-2.8,1.9c-0.9-0.5-1.9-1.2-2.9-2.2c-1-1-1.6-2.1-2-3c0.5-1,1.2-1.9,2.1-2.7C515,329.5,518.9,329,519.6,329.8z"/>
		<path class="st1" d="M478.1,417.5c-0.6-1.1-1.7-1.7-2.8-1.7c-0.1,0-0.3,0-0.4,0c-0.1,0-0.2,0.1-0.3,0.1c-0.2-0.4-0.4-0.8-0.6-1.2
			c-2.2-3.8-6.6-6.2-9.4-5.4c-0.4-0.2-1-0.4-1.6,0c-0.6,0.4-0.8,1-0.8,1.4c-0.6,0.5-1.1,1.4-1.3,2.4c-0.7,2.5-0.2,5.8,1.3,8.4
			c0.2,0.4,0.5,0.8,0.7,1.1c-0.1,0.1-0.2,0.1-0.2,0.1c-0.5,0.6-1,2-0.1,3.6c1.3,2.3,3.7,3.6,6.4,3.6c1.7,0,3.5-0.5,5.1-1.4
			c0.2,0.2,0.4,0.4,0.6,0.6c0.7,0.6,1.4,1.1,2.3,1.4c0.2,0.1,0.3,0.1,0.5,0.1c0.5,0,1-0.3,1.2-0.8c0.3-0.7,0-1.5-0.7-1.8
			c-0.6-0.2-1.1-0.5-1.5-1c-0.1-0.1-0.2-0.1-0.2-0.2C479.1,424.3,479.9,420.6,478.1,417.5z M463.5,413.8c0.2-0.7,0.5-1.1,0.6-1.2
			c0.3-0.1,0.4-0.3,0.5-0.5c0.2,0,0.5-0.1,0.7-0.2c1-0.6,4.5,1,6.3,4.1c0.6,1,1,2.1,1.2,3.2c-0.6,0.7-1.5,1.5-2.8,2.3
			c-1.2,0.7-2.5,1.1-3.4,1.2c-0.8-0.7-1.5-1.6-2.1-2.6C463.3,417.9,463.1,415.3,463.5,413.8z M472.8,426.2c-1.2,0.7-2.5,1.1-3.8,1.1
			c-1.6,0-2.8-0.6-3.7-1.7c1.8,0.1,4.1-0.6,6.1-1.8c2-1.2,3.7-2.8,4.6-4.4C477.1,422.1,475.3,424.8,472.8,426.2z"/>
		<path class="st1" d="M508.1,428c-1.3-2.6-6.1-4.1-10.4-3c-0.4,0.1-0.9,0.2-1.3,0.4c0-0.1-0.1-0.2-0.1-0.2
			c-0.5-0.7-1.9-1.5-3.4-1.1c-2.1,0.5-3.8,2-4.8,4c-0.5,1.2-0.8,2.5-0.8,3.8c-0.1,0-0.2,0-0.3,0c-0.6,0-1.2-0.2-1.7-0.4
			c-0.7-0.3-1.5,0-1.8,0.7c-0.3,0.7,0,1.5,0.7,1.8c0.8,0.4,1.7,0.6,2.6,0.7c0.4,0,0.6,0.1,0.9,0.1c0,0,0,0,0,0c1.1,4.2,4.2,7,7.8,7
			c0.6,0,1.2-0.1,1.8-0.2c1.8-0.4,2.4-1.8,2.5-2.6c0-0.1,0-0.2,0-0.3c0.4-0.1,0.9-0.1,1.3-0.3c2.9-0.7,5.6-2.6,7-4.9
			c0.5-0.9,0.8-1.8,0.8-2.6c0.3-0.3,0.7-0.8,0.5-1.5C509.1,428.5,508.6,428.2,508.1,428z M490.3,433.9c-0.4-1.7-0.3-3.4,0.3-4.7
			c0.4-0.8,1-1.8,2.3-2.3c-0.5,1.7-0.6,4.1,0,6.4c0.5,2.1,1.7,4.3,3,5.6C493.4,439.1,491.1,437.1,490.3,433.9z M505.7,432
			c-0.8,1.3-2.8,3-5.3,3.7c-1.1,0.3-2.3,0.4-3.4,0.3c-0.5-0.8-1.1-1.9-1.4-3.3c-0.3-1.4-0.4-2.6-0.3-3.5c0.9-0.6,2-1.1,3.1-1.4
			c3.5-0.9,7.1,0.6,7.3,1.6c0.1,0.3,0.2,0.5,0.3,0.7c-0.1,0.2-0.1,0.5,0,0.7C506.1,430.9,506,431.4,505.7,432z"/>
		<path class="st1" d="M420.5,491.9c0-0.1-0.1-0.2-0.1-0.3c3.7-1,6.2-3.8,6.2-7.4c0-1.8-1.2-2.8-1.9-3c-0.1,0-0.2,0-0.3,0
			c0-0.4,0.1-0.9,0-1.4c-0.1-4.4-2.7-8.6-5.5-9.3c-0.2-0.3-0.7-0.8-1.4-0.8c-0.7,0-1.2,0.5-1.4,0.9c-0.8,0.2-1.6,0.7-2.4,1.4
			c-1.8,1.9-3,5-3,8c0,0.5,0,0.9,0.1,1.3c-0.1,0-0.2,0-0.3,0c-0.7,0.3-1.9,1.3-1.9,3.1c0,4.3,3.9,7.5,8.9,7.5c0,0,0.1,0,0.1,0
			c0.1,0.2,0.1,0.5,0.3,0.8c0.3,0.9,0.7,1.7,1.3,2.4c0.3,0.3,0.7,0.5,1.1,0.5c0.3,0,0.6-0.1,0.9-0.3c0.6-0.5,0.7-1.3,0.2-1.9
			C421,493,420.7,492.5,420.5,491.9z M415.6,473.9c0.5-0.5,0.9-0.7,1.1-0.7c0.3,0,0.5-0.1,0.7-0.2c0.2,0.1,0.4,0.1,0.7,0.1
			c0,0,0,0,0.1,0c1.1,0,3.5,3.1,3.5,6.7c0,1.2-0.2,2.3-0.6,3.4c-0.9,0.3-2.1,0.6-3.6,0.6c-1.4,0-2.5-0.2-3.4-0.5
			c-0.4-1-0.6-2.2-0.7-3.4C413.4,477.4,414.5,475,415.6,473.9z M411.4,485.1c1.5,0.9,3.8,1.5,6.2,1.5l0,0c2.4,0,4.7-0.7,6.1-1.6
			c-0.3,2.5-2.8,4.3-6.1,4.3h-0.1C414.7,489.3,411.9,487.8,411.4,485.1z"/>
		<path class="st1" d="M439.5,501.4c-0.4-0.1-0.9-0.2-1.3-0.3c0-0.1,0-0.2,0-0.3c-0.1-0.8-0.7-2.2-2.4-2.6c-0.6-0.2-1.3-0.3-1.9-0.3
			c-2.8,0-5.3,1.7-6.8,4.4c-0.1,0-0.2-0.1-0.3-0.2c-0.5-0.3-1-0.8-1.3-1.2c-0.4-0.6-1.3-0.7-1.9-0.3c-0.6,0.5-0.7,1.3-0.3,1.9
			c0.5,0.7,1.2,1.3,2,1.9c0.3,0.2,0.5,0.4,0.7,0.5c-0.7,2.6-0.4,5.2,0.7,7.3c1,1.7,2.5,2.8,4.3,3.3c0.3,0.1,0.7,0.1,1,0.1
			c1.2,0,2.1-0.6,2.5-1.2c0-0.1,0.1-0.1,0.1-0.2c0.4,0.2,0.8,0.3,1.3,0.4c1,0.3,2.1,0.4,3.2,0.4c1.9,0,3.8-0.4,5.3-1.3
			c0.9-0.5,1.6-1.2,2-1.9c0.4-0.1,1-0.4,1.2-1.1c0.2-0.7-0.1-1.2-0.4-1.6C447.3,506.2,443.8,502.5,439.5,501.4z M431.2,512.6
			c-0.9-0.4-1.6-1-2-1.8c-0.8-1.4-1-3.3-0.4-5.2c0.8-2.9,2.9-4.9,5.2-4.9c0.2,0,0.4,0,0.5,0c-1.4,1.3-2.5,3.5-3.1,5.6
			C430.7,508.5,430.7,510.9,431.2,512.6z M444.4,509.8c-0.1,0.2-0.3,0.4-0.4,0.6c-0.1,0.2-0.3,0.6-1,0.9c-1.3,0.8-3.9,1.3-6.4,0.6
			c-1.1-0.3-2.2-0.8-3.1-1.5c-0.1-0.9,0-2.2,0.4-3.5c0.4-1.4,0.9-2.5,1.5-3.3c1.1-0.1,2.3,0,3.4,0.3c3.5,1,5.9,4,5.6,5
			C444.3,509.3,444.3,509.6,444.4,509.8z"/>
		<path class="st1" d="M407.2,494.5c-3.8,0-7.1,2.2-9.3,6c-1.2,2.1-2.2,3.2-3.1,3.2c-0.2,0-0.4,0-0.6-0.1c-0.1-0.6,0.1-2,0.2-3
			c0.3-2.8,0.7-5.9-1-8.1c-0.9-1.1-2.3-1.8-3.9-1.9c-6.9-0.9-10.9,3.2-11,11.1v1.1c0,1.5,0,5-0.8,5.6c-0.3-0.2-0.7-1.5-0.9-2.3
			c-0.6-2.2-1.7-5.8-5.6-5.8c-0.6,0-1.2,0.1-1.9,0.3c-5.3,1.5-6.1,6.8-6.5,9.3l-0.2,1.5c-0.3,2.4-0.5,3.2-0.9,3.5
			c-0.2-0.2-0.3-0.5-0.5-0.7c-0.8-1.3-2-3.2-4.3-3.2c-0.8,0-1.7,0.3-2.5,0.8c-4,2.6-4.2,9.2-4.1,12.5c-9,1.7-8.9,2.4-8.9,3
			c0,0.1,0,0.1,0,0.2c0,0.1,0,0.2,0,0.3c0.2,0.7,1,0.7,2,0.7c1.5,0,4-0.2,7.5-0.7c2.1,6.3,5.1,9.7,9,10.1c0.3,0,0.5,0,0.7,0
			c4,0,4.6-3.6,4.8-5.1c0-0.2,0.1-0.6,0.2-0.8c0,0,0,0,0,0c0.7,0,1.4,0.8,2.7,2.2c0.4,0.4,0.8,0.9,1.2,1.3l0.2,0.2
			c1.3,1.4,4,4.4,8.4,4.4c1.2,0,2.4-0.2,3.6-0.6c2.1-0.7,3.4-1.7,4-3.2c1-2.1,0.1-4.3-0.6-6c-0.3-0.7-0.7-1.8-0.7-2
			c0.3-0.2,0.4-0.2,0.6-0.2c1.1,0,3.1,1.9,4.5,3.2c0.3,0.3,0.7,0.7,1,1c2.6,2.3,5.6,3.6,8.6,3.6c2.5,0,6.2-0.9,9.5-5.2
			c1.2-1.7,1.6-3.3,1.2-4.9c-0.7-2.7-3.6-4.1-6.1-5.3c-0.8-0.4-2-1-2.5-1.4c0.5-1.2,1.6-1.9,4.3-1.9c0.4,0,0.7,0,1.1,0
			c5,0.4,9.1-1.7,11.1-5.4c1.9-3.5,1.5-7.7-1-11.4C414.4,496.6,410.9,494.5,407.2,494.5z M414.3,509.8c-1.1,2.1-3.4,3.3-6.4,3.3
			c-0.3,0-0.5,0-0.8,0c-0.5,0-0.9,0-1.3,0c-1.6,0-6.4,0-8.2,4.9c-1.2,3.3,2.2,4.9,4.7,6.1c1.5,0.7,3.7,1.8,3.9,2.7
			c0.1,0.4-0.3,1.1-0.5,1.4c-1.8,2.3-3.9,3.5-6.2,3.5c-2,0-4.1-0.9-5.9-2.6c-0.3-0.3-0.7-0.6-1-0.9c-2.2-2.1-4.6-4.3-7.3-4.3
			c-1.1,0-2.1,0.3-3,1c-2.6,2-1.4,5-0.6,6.8c0.4,1,0.9,2.3,0.7,2.8c-0.1,0.3-0.8,0.7-1.6,1c-0.8,0.3-1.6,0.4-2.3,0.4
			c-2.6,0-4.3-1.8-5.4-3l-0.2-0.3c-0.4-0.4-0.8-0.8-1.1-1.2c-1.6-1.8-3.2-3.6-5.8-3.6c-0.4,0-0.9,0.1-1.3,0.2
			c-2.3,0.5-2.7,2.8-2.9,4.1c-0.1,0.5-0.2,1.4-0.4,1.6c0,0-0.3,0.1-0.7,0c-1.4-0.2-3.5-1.5-5.3-6.6c1-0.2,2.1-0.3,3.2-0.5
			c17.4-3.1,42-14.8,42.4-16.1c0-0.1,0-0.2,0-0.3c0-0.1,0-0.1-0.1-0.2c0-0.1-0.1-0.1-0.1-0.2c-0.1-0.1-0.3-0.2-0.5-0.2
			c-0.2,0-0.2,0-2.1,0.8c-6.3,2.5-25.3,10-40.3,12.6c-1.1,0.2-2.2,0.4-3.2,0.5c0-5.9,1.3-7.8,2.2-8.3c0.1-0.1,0.2-0.1,0.2-0.1
			c0.3,0.2,0.7,0.9,0.9,1.3c0.8,1.3,1.9,3.2,4.3,2.7c3.7-0.8,4.1-4,4.5-7.1l0.2-1.5c0.4-2.7,1-5.2,3.6-5.9c1.2-0.3,1.6-0.3,2.5,2.7
			c0.6,2.1,1.5,4.9,4.5,5.2c1.4,0.1,2.5-0.3,3.4-1.2c1.9-1.9,1.9-5.4,1.8-8.4v-1.1c0-7.2,3.7-7.2,5-7.2c0.4,0,0.9,0,1.4,0.1
			c0.8,0.1,1.1,0.3,1.1,0.4c0.7,0.8,0.4,3.3,0.1,5c-0.4,2.8-0.7,6,1.9,7.1c0.8,0.3,1.7,0.5,2.5,0.5c3.4,0,5.5-3,6.7-5.3
			c1.4-2.5,3.4-3.9,5.7-3.9c2.3,0,4.6,1.4,6.3,4C415.1,505,415.4,507.7,414.3,509.8z"/>
		<path class="st1" d="M478.3,458.4c-0.7,0-1.5,0-2.2,0.1c-1.2,0.1-2.4,0.1-2.8,0c-0.1-1.2,0.4-2.3,4-4c4.1-2.2,6.6-5.9,6.6-9.9
			c0-3.9-2.3-7.4-6.2-9.4c-4.9-2.5-10.3-2-13.4,1.2c-1.9,2-2.9,4.9-2.7,8.1c-0.1,3.6-1.2,4.1-1.9,4.3c-0.4-0.5-0.8-1.7-1.2-2.6
			c-1.1-2.9-2.7-6.8-6.6-6.8c-0.8,0-1.6,0.2-2.4,0.5c-2.8,1.1-4.6,2.8-5.4,5.1c-1,2.7-0.5,6,1.4,9.8l0.4,0.7c0.6,1.1,2.4,4.3,2,5.2
			c-0.4-0.2-1.2-1-1.7-1.4c-1.3-1.3-3-2.9-5.1-2.9c-1.4,0-2.7,0.7-3.8,1.9c-4,3.9-2.1,8.9-1.3,11l0.6,1.5c0.8,2,1,2.8,0.8,3.2
			c-0.2-0.1-0.4-0.2-0.6-0.3c-0.9-0.5-2-1.1-3.3-1.1c-1,0-2.5,0.4-3.6,2.3c-2.6,4.4,1.3,11,2.8,13.3c-2.3,2.3-2.3,2.5-2.1,2.9
			c0,0.1,0.1,0.2,0.2,0.3c0.1,0.1,0.1,0.2,0.2,0.2c0.1,0.1,0.5,0.2,0.6,0.2c0.6,0,1.6-0.5,3.1-1.5c2,1.8,5.7,4.7,9.7,4.7
			c0.9,0,1.8-0.2,2.7-0.5c4.4-1.8,2.9-5.7,2.3-7.1c-0.1-0.3-0.2-0.6-0.3-0.8c0.2-0.1,0.4-0.2,0.6-0.2c0.6,0,1.6,0.4,2.8,0.8
			c0.5,0.2,1,0.3,1.5,0.5l0.4,0.1c1.1,0.4,2.9,1,4.9,1c2.8,0,5.3-1.1,7.4-3.4c1.3-1.6,1.9-3.2,1.8-4.7c-0.3-2.3-2-3.7-3.5-4.8
			c-0.5-0.4-1.5-1.2-1.5-1.5c0.1-0.3,0.2-0.6,1.3-0.6c1.2,0,2.7,0.4,4.3,0.8c0.5,0.1,1.1,0.3,1.5,0.4c1.3,0.3,2.5,0.5,3.7,0.5
			c5.9,0,10.1-4,11.1-10.5c0.3-1.9-0.1-3.5-1.1-4.6C482.5,458.6,480.1,458.4,478.3,458.4z M481.1,464.4c-0.8,5.5-4.3,8.1-9.7,6.7
			c-0.5-0.1-1-0.3-1.5-0.4c-1.8-0.5-3.6-0.9-5.3-0.9c-3.4,0-4.6,2-5.1,3.2c-1.2,3,1.2,4.9,2.8,6.2c0.8,0.7,1.9,1.5,1.9,2.1
			c0,0.4-0.3,1-0.8,1.6c-1.2,1.3-2.6,2-4.3,2c-1.4,0-2.6-0.4-3.6-0.7l-0.4-0.1c-0.5-0.2-1-0.3-1.4-0.5c-1.5-0.5-2.8-1-4.1-1
			c-1.4,0-2.7,0.5-3.7,1.5c-1.7,1.6-0.9,3.7-0.4,5c0.2,0.5,0.5,1.3,0.5,1.5c0,0-0.2,0.2-0.5,0.3c-1.9,0.7-4.4-0.3-7.6-3
			c1.9-1.5,4.1-3.5,6.7-5.9c13.1-11.6,28-34.5,27.8-35.8c0-0.2-0.2-0.4-0.4-0.5c-0.1,0-0.2,0-0.2,0c-0.4,0-0.4,0-1.6,1.6
			c-10.9,14.4-20.3,25.2-28,32.1c-2.8,2.5-4.9,4.5-6.5,6c-3.2-5.5-2.7-7.6-2.2-8.4c0.1-0.1,0.1-0.2,0.1-0.2c0.3,0.1,0.9,0.4,1.3,0.6
			c0.8,0.4,1.8,1,2.9,1c0.8,0,1.5-0.3,2.1-0.9c2.5-2.5,1.5-5.3,0.4-8l-0.6-1.5c-0.9-2.5-1.6-4.8,0.4-6.8c0.4-0.5,0.7-0.6,0.9-0.6
			c0.5,0,1.6,1,2.3,1.7c1.3,1.2,2.7,2.6,4.6,2.6c0.6,0,1.2-0.1,1.8-0.4c1.1-0.6,1.8-1.4,2.2-2.6c0.8-2.6-0.9-5.6-2.4-8.3l-0.4-0.6
			c-1.4-2.6-1.8-4.9-1.2-6.4c0.4-1.2,1.5-2,3.2-2.7c0.4-0.1,0.7-0.2,0.9-0.2c1.1,0,2,2.3,2.8,4.2c1,2.4,2,5.2,4.7,5.2l0.4,0
			c3.8-0.5,5.7-3.3,5.8-8.4c-0.1-2.2,0.4-4,1.6-5.2c1.8-1.9,5.2-2.1,8.5-0.4c2.5,1.3,4,3.4,4,5.8c0,2.5-1.6,4.9-4.3,6.3
			c-3.3,1.5-7,3.8-6.2,8.6c0.3,2.1,2,3.2,5,3.2c0.6,0,1.3,0,2-0.1c0.7,0,1.3-0.1,2-0.1c1.9,0,2.5,0.3,2.7,0.5
			C481.1,463.2,481.2,463.7,481.1,464.4z"/>
		<path class="st1" d="M514.9,367.1c-2.2,0-4.3,1.4-6.2,2.5c-0.8,0.5-1.8,1.2-2.5,1.4c-0.6-1-0.9-2.4,1.2-5.4
			c2.6-3.8,3.1-8.2,1.3-11.8c-1.8-3.4-5.4-5.4-9.7-5.4l-0.5,0c-4.6,0.2-8.4,2.3-10.2,5.6c-1.7,3.1-1.5,6.9,0.6,10.4
			c1.8,3.2,1.4,4.1,0.7,4.6c-0.6-0.3-1.6-1.1-2.3-1.7c-1.9-1.6-4.1-3.3-6.6-3.3c-1.2,0-2.9,0.4-4.2,2.3c-2,2.4-2.9,4.8-2.5,7.3
			c0.4,2.8,2.5,5.4,6.1,7.7l0.9,0.5c1.2,0.8,4.2,2.5,4.3,3.4c0,0-0.1,0-0.2,0c-0.5,0-1.4-0.2-2.1-0.4c-1.1-0.3-2.3-0.6-3.4-0.6
			c-2.5,0-4.3,1.4-5,4.1c-1.5,5.3,2.5,8.6,4.5,10.2l1.2,1c1.7,1.4,2.3,2,2.4,2.4c-0.3,0-0.5,0-0.8,0c-1.3,0-3.1,0-4.4,1.3
			c-0.8,0.8-1.1,1.8-1.1,3.2c0.1,4.9,6,8.5,8.7,10c-0.9,3.1-0.6,3.5-0.5,3.8l0.6,0.3l0.1,0l0.2,0.1c0.4,0,0.9,0,2.3-3.1
			c1.3,0.3,3.4,0.7,5.6,0.7c3.5,0,6-1,7.6-3.1c2.8-3.7-0.3-6.3-1.4-7.3c-0.2-0.1-0.4-0.4-0.6-0.5c0.3-0.5,1-0.7,3.2-1.1
			c0.5-0.1,1.1-0.2,1.7-0.3l0.3-0.1c2.3-0.4,7.8-1.5,9.3-8.1c0.5-2.1,0.3-3.7-0.6-5c-1.3-1.9-3.6-2.3-5.4-2.6
			c-0.7-0.1-1.8-0.3-2-0.4c-0.1-1.2,2.1-1.9,5.1-2.7c0.5-0.1,0.9-0.3,1.3-0.4c3.6-1,6.3-3.2,7.8-6c1.5-2.9,1.6-6.3,0.2-10
			C518.5,367.8,516.4,367.1,514.9,367.1z M485.7,419.8c0,0,0.1-0.1,0.1-0.1c0,0,0.1,0,0.1,0.1L485.7,419.8z M515.9,378.9
			c-1,1.9-2.8,3.3-5.3,4c-0.4,0.1-0.9,0.2-1.3,0.4c-3.6,1-8.5,2.3-8.1,7c0.3,3.2,3.5,3.7,5.4,4.1c1,0.2,2.3,0.4,2.7,0.8
			c0.1,0.1,0.3,0.6,0,1.9c-0.8,3.7-3.5,4.5-6.1,5l-0.3,0.1c-0.6,0.1-1.1,0.2-1.6,0.3c-2.7,0.5-5.4,0.9-6.5,4.2c-0.8,2.2,1,3.7,2,4.6
			c0.4,0.3,1.1,0.9,1.1,1.1c0,0,0,0.2-0.3,0.6c-0.8,1-2.2,1.5-4.3,1.5c-1.4,0-2.8-0.2-3.9-0.5c0.8-2.1,1.9-4.7,3.1-8.2
			c6-17.4,7.5-43.9,6.8-44.8l-0.6-0.3c-0.7,0-0.7,0-1.3,4.2c-1.1,7.9-3.8,26.3-8.4,39.7c-1.2,3.4-2.2,6-2.8,8.1
			c-5-3-5.8-5.1-5.8-6.1c0-0.1,0-0.2,0-0.2c0.3-0.1,1-0.1,1.4-0.1c1.4,0,3.7-0.1,4.5-2.3c1.2-3.5-1.2-5.5-3.6-7.4l-1.2-1
			c-2.1-1.7-3.9-3.5-3.1-6c0.3-1.1,0.6-1.1,1.1-1.1c0.7,0,1.5,0.2,2.4,0.5c1,0.3,2.1,0.6,3.2,0.6c1.9,0,2.9-0.9,3.4-1.6
			c0.8-1,1-2.1,0.8-3.3c-0.5-2.6-3.5-4.5-6.2-6.1l-0.9-0.5c-2.5-1.6-4-3.2-4.2-4.8c-0.2-1.2,0.3-2.6,1.6-4.1c0.5-0.7,0.9-0.7,1-0.7
			c1,0,2.8,1.4,4.1,2.4c1.8,1.4,3.3,2.6,5,2.6c0.7,0,1.4-0.2,1.9-0.6c4.8-3.3,1.8-8.5,0.8-10.2c-1.4-2.3-1.5-4.6-0.5-6.4
			c1.1-2.1,3.7-3.4,6.8-3.5l0.4,0c2.8,0,5,1.2,6,3.2c1.1,2.2,0.8,4.9-1,7.5c-1,1.5-4.2,6-0.9,10.6c0.7,0.8,1.6,1.3,2.7,1.3
			c1.6,0,3.2-1,4.9-2.1c1.3-0.8,3-1.9,4-1.9c0.2,0,0.6,0,1.1,1.1C516.9,374.8,516.9,377.1,515.9,378.9z"/>
		<path class="st1" d="M488,264.1c-3.3-3.5-8.8-4.1-13.4-1.3c-3.9,2.4-6.2,6.1-6.1,9.8c0.1,3.5,2.1,6.7,5.8,8.8c3,1.7,2.9,3,2.6,3.7
			c-0.1,0-0.1,0-0.2,0c-0.7,0-1.6-0.2-2.6-0.3c-1.2-0.2-2.6-0.5-4-0.5c-4.6,0-5.8,3.1-6.1,4.9c-0.5,3,0,5.5,1.6,7.4
			c1.8,2.2,4.8,3.5,8.9,3.8l0.8,0c1.7,0.1,4.9,0.2,5.6,0.9c0,0,0,0,0,0c-0.4,0.3-1.5,0.5-2.1,0.7c-2.3,0.6-7,1.8-5.7,7.1
			c1.2,5.4,6.6,6.4,8.8,6.8l1.6,0.3c2.1,0.4,2.8,0.6,3.1,1c-0.2,0.1-0.4,0.3-0.6,0.4c-1.1,0.7-2.7,1.6-3.1,3.3
			c-0.3,1.1-0.1,2.2,0.6,3.3c2.6,4.2,9.6,4.5,12.5,4.5c0.7,3,1,3,1.5,3c0.1,0,0.2,0,0.2,0c0.2,0,0.6-0.2,0.7-0.3
			c0.2-0.2,0.5-0.7,0.4-3.1c6.4-1.9,9.9-4.7,10.3-8.5c0.6-4.6-3.3-5.3-4.8-5.6c-0.2,0-0.6-0.1-0.8-0.2c0-0.6,0.5-1.2,2.3-2.6
			c0.4-0.3,0.8-0.7,1.3-1l0.2-0.2c1.8-1.5,6.1-5.1,4.2-11.6c-1.1-3.8-3.4-4.6-5.2-4.6c-1.3,0-2.6,0.5-3.7,0.9
			c-0.7,0.3-1.6,0.6-2.1,0.5c-0.7-0.8,1-2.5,3-4.5c0.4-0.4,0.8-0.8,1.1-1.1c2.7-2.7,4.1-5.9,4-9.1c-0.1-3.2-1.8-6.2-4.8-8.7
			c-1.2-1-2.5-1.5-3.8-1.5c-3.3,0-5.1,3.3-6.5,5.9c-0.4,0.8-1,1.9-1.5,2.4c-1.2-0.6-1.7-1.7-1.4-5.4
			C491.1,269.7,490.1,266.4,488,264.1z M490.9,282.6c0.4,0.2,0.9,0.3,1.4,0.3c2.4,0,3.7-2.4,4.9-4.7c0.8-1.4,2-3.8,2.9-3.8
			c0.1,0,0.5,0.1,1.2,0.6c2.1,1.7,3.3,3.7,3.3,5.7c0.1,2.1-0.9,4.2-2.8,6.1c-0.4,0.4-0.7,0.7-1.1,1.1c-2.5,2.5-6.4,6.2-3.4,10
			c0.8,1.1,1.9,1.6,3.3,1.6c1.2,0,2.3-0.4,3.4-0.8c0.8-0.3,1.7-0.6,2.3-0.6c0.2,0,0.7,0,1.2,1.7c1.1,3.7-0.9,5.6-2.9,7.4l-0.2,0.2
			c-0.4,0.4-0.8,0.7-1.2,1c-2.2,1.7-4.4,3.5-3.7,6.9c0.4,2.3,2.7,2.7,4,3c0.5,0.1,1.4,0.3,1.5,0.4c0,0,0.1,0.2,0,0.7
			c-0.1,1.1-1.2,3.1-6.7,4.9c-0.3-2.3-0.8-5.2-1.5-9.2c-2.9-16.8-14.8-42.4-16.4-42.4c-0.2,0-0.4,0.1-0.5,0.2
			c-0.4,0.4-0.4,0.4,1.3,4.6c2.9,7.4,9.7,24.6,12.1,38.3c0.7,3.9,1.3,6.8,1.7,9c-5.8-0.2-7.6-1.6-8.2-2.5c0-0.1-0.1-0.1-0.1-0.2
			c0.2-0.2,0.8-0.6,1.2-0.8c1.2-0.7,3.2-1.9,2.8-4.2c-0.7-3.6-3.7-4.1-6.6-4.7l-1.6-0.3c-2.6-0.5-5-1.1-5.6-3.7
			c-0.3-1.2-0.4-1.5,2.8-2.3c2-0.5,5-1.3,5.2-4.3c0.1-1.2-0.3-2.3-1.1-3.1c-1.8-2-5.3-2.1-8.4-2.2l-0.7,0c-2.9-0.2-5-0.9-6-2.2
			c-0.8-1-1-2.4-0.7-4.2c0.2-1,0.4-1.5,2-1.5c1,0,2.1,0.2,3.3,0.4c1.2,0.2,2.3,0.4,3.3,0.4c2.3,0,3.3-1.1,3.8-2.1
			c0.9-2.1,1.5-6-4.2-9.3c-2.3-1.3-3.6-3.2-3.7-5.3c0-2.3,1.5-4.7,4.2-6.3c3-1.8,6.3-1.6,8.3,0.6c1.3,1.5,2,3.6,1.8,6.1
			C486.5,275.7,486.1,280.7,490.9,282.6z"/>
		<path class="st1" d="M411.6,199.5c-2.2,4-2.5,8.1-0.6,11.4c1.7,3.1,5.1,4.9,9.4,5.1c3.6,0,4.1,1.1,4.2,1.9
			c-0.5,0.3-1.7,0.8-2.6,1.1c-2.5,0.9-5.4,1.9-6.6,4.3c-0.6,1.3-0.6,2.8-0.1,4.4c2,6.2,7.5,8.1,14.7,4.7l0.7-0.4
			c1.7-0.9,3.8-1.9,5-1.9c0.2,0,0.3,0,0.3,0.1c-0.2,0.4-1,1.2-1.5,1.7c-1.4,1.3-3.1,2.9-3.1,5.2c0,1.3,0.5,2.6,1.6,3.8
			c1.6,1.8,3.6,2.7,6,2.7c1.9,0,3.7-0.6,4.9-1l1.7-0.6c1.4-0.5,2.6-0.9,3.2-0.7c-0.1,0.2-0.3,0.5-0.4,0.7c-0.7,1.1-1.6,2.7-1.1,4.4
			c0.3,1.1,1,1.9,2.1,2.6c1,0.6,2.3,0.9,3.6,0.9c3.2,0,6.6-1.6,9.1-2.9c1.9,2.1,2.2,2.1,2.5,2.1c0.2,0,0.4-0.1,0.6-0.2l0.2,0
			l0.2-0.4c0.1-0.3,0.4-0.8-1.1-3.2c4.8-4.8,6.6-9.1,5.1-12.7c-1.1-2.8-3.1-3.2-4.2-3.2c-1,0-1.9,0.3-2.8,0.6
			c-0.2,0.1-0.5,0.2-0.7,0.2c-0.3-0.6-0.1-1.3,0.7-3.4c0.2-0.4,0.4-0.9,0.5-1.4l0.1-0.3c0.8-2.2,2.8-7.5-2-12.3
			c-1.5-1.4-2.9-2.1-4.4-2.1c-2.4,0-4,1.8-5.2,3.2c-0.5,0.5-1.2,1.4-1.6,1.5c-1-0.4-0.4-2.7,0.5-5.5c0.2-0.6,0.3-1.1,0.5-1.6
			c1.1-3.6,0.8-6.9-0.8-9.7c-1.7-2.8-4.6-4.7-8.6-5.5c-2.5-0.4-4.2,0.5-5,1.3c-1.8,1.9-1.8,4.9-1.8,7.5c0,0.9,0,2.2-0.1,2.8
			c-1.3,0-2.4-0.7-3.9-3.9c-1.9-4.5-5.6-7.2-9.9-7.2C417.1,193.6,413.6,195.9,411.6,199.5z M415.1,201.5c1.3-2.4,3.5-3.8,5.8-3.8
			c2.6,0,4.9,1.8,6.2,4.8c1.4,3.1,3.5,6.4,7.6,6.4c0.3,0,0.5,0,0.8,0c3.4-0.3,3.4-4.1,3.4-6.9c0-1.6,0-4,0.6-4.6
			c0.1-0.1,0.2-0.2,0.7-0.2c0.2,0,0.5,0,0.6,0.1c2.7,0.6,4.8,1.8,5.8,3.6c1,1.7,1.2,3.9,0.4,6.4c-0.1,0.5-0.3,1-0.4,1.5
			c-1,3.4-2.6,8.6,1.8,10.4c0.5,0.2,1.1,0.4,1.7,0.4c2.1,0,3.5-1.6,4.6-2.9c0.7-0.8,1.6-1.8,2.1-1.8c0.2,0,0.7,0.1,1.5,0.9
			c2.7,2.7,2,5.4,1,7.9l-0.1,0.3c-0.2,0.5-0.4,0.9-0.5,1.3c-1,2.5-2,5.2,0.1,7.9c0.4,0.5,1.3,1.2,2.6,1.2c0.8,0,1.6-0.3,2.4-0.5
			c0.5-0.2,1.1-0.4,1.5-0.4c0,0,0.1,0.1,0.3,0.6c0.4,1.1,0.5,3.5-3.7,7.8c-1.3-1.9-3.2-4.2-5.7-7.3c-9.6-11.7-26.3-23.5-31.7-27.4
			c-2.4-1.9-2.5-1.9-2.8-1.9h-0.3l-0.4,0.4l0,0.3c0,0.4,0,0.4,2.5,2.1l0.2,0.1c6.4,5.1,20.7,17.6,29.8,28.6c2.4,3,4.3,5.2,5.8,6.9
			c-1.7,0.9-4.3,2-6.4,2c-0.7,0-1.2-0.1-1.6-0.3c-0.1-0.1-0.2-0.1-0.2-0.1c0.1-0.3,0.4-0.9,0.7-1.3c0.7-1.2,1.9-3.2,0.4-5
			c-1-1.2-2.3-1.9-3.8-1.9c-1.3,0-2.6,0.4-4.2,1l-1.7,0.6c-1,0.3-2.3,0.8-3.6,0.8c-1.3,0-2.2-0.4-3-1.4c-0.4-0.4-0.6-0.7-0.6-0.9
			c0-0.6,1.1-1.6,1.8-2.3c1.5-1.4,3.7-3.5,2.4-6.3c-0.8-1.6-2.2-2.5-4.1-2.5c-2.2,0-4.6,1.3-6.8,2.4l-0.7,0.3
			c-1.8,0.8-3.4,1.3-4.8,1.3s-3.2-0.4-4.3-3.7c-0.3-0.8-0.1-1.2-0.1-1.3c0.4-0.9,2.6-1.7,4.2-2.2c2.5-0.9,5.5-1.9,5.4-4.8
			c-0.2-2.8-1.8-6-8.2-6.1c-2.8-0.1-4.8-1.1-5.9-3C413.3,206.9,413.6,204.2,415.1,201.5z"/>
		<path class="st1" d="M222.7,396.7l9.1-24h-5.2l-4.8,12.5c-0.7,1.8-1.4,4-2,6.2h-0.1c-0.6-2.2-1.2-4.3-2-6.3l-4.7-12.4h-5.5l9.2,24
			H222.7L222.7,396.7z"/>
		<polygon class="st1" points="252.3,392.7 243.2,392.7 243.2,386.3 251.9,386.3 251.9,382.5 243.2,382.5 243.2,376.6 252.3,376.6 
			252.3,372.7 238.2,372.7 238.2,396.7 252.3,396.7 		"/>
		<polygon class="st1" points="270.2,396.7 270.2,376.9 276.8,376.9 276.8,372.7 258.5,372.7 258.5,376.9 265.2,376.9 265.2,396.7 
					"/>
		<polygon class="st1" points="298.1,376.6 298.1,372.7 284,372.7 284,396.7 298.1,396.7 298.1,392.7 289,392.7 289,386.3 
			297.7,386.3 297.7,382.5 289,382.5 289,376.6 		"/>
		<path class="st1" d="M322.3,385.5l-8.1-12.8h-6.6v24h4.9l0-12.6c0-2.2,0-3.7-0.1-5h0c0.6,1.4,1.5,3.1,2.5,4.6l8.3,13h6.6v-24h-4.8
			l0,10.6c0,3.1,0,5.4,0.1,6.9h0C324.1,388.5,323.2,387,322.3,385.5z"/>
		<path class="st1" d="M344.4,393c-2,0-3.9-0.4-5.3-0.9l-0.2,4.5c1.3,0.3,3.3,0.6,4.9,0.6c6.1,0,10.4-3.2,10.4-8.1
			c0-7.5-10.7-5.7-10.7-9.8c0-1.8,1.3-3,4.4-3c1.4,0,3.3,0.3,4.6,0.7l0.2-4.2c-1.3-0.2-3.2-0.4-4.6-0.4c-6.3,0-9.8,3-9.8,7.5
			c0,7.8,10.6,5.6,10.6,9.8C348.9,392,346.7,393,344.4,393z"/>
		<polygon class="st1" points="363,372.7 363,396.7 368,396.7 368,385.4 376.9,396.7 383.5,396.7 373.2,384.2 383,372.7 
			376.9,372.7 368,383.4 368,372.7 		"/>
		<path class="st1" d="M394.2,392h10l1.7,4.7h5.5l-9.1-24h-5.9l-9.1,24h5L394.2,392z M398,381.6c0.5-1.2,0.9-2.6,1.2-3.7h0
			c0.3,1.1,0.8,2.5,1.3,3.8l2.5,6.7h-7.6L398,381.6z"/>
		<path class="st1" d="M426.5,372.6c-2.8,0-5.8,0.1-7.9,0.1v24h5v-7.9c0.6,0.1,1.5,0.1,2.1,0.1c6.1,0,10.3-3.3,10.3-8.6
			C436.1,375.5,432.6,372.6,426.5,372.6z M425.8,384.9c-0.6,0-1.6,0-2.1-0.2v-8.1c0.6,0,1.5,0,2.4,0c3.1,0,4.7,1.7,4.7,4.1
			C430.8,383.5,428.9,384.9,425.8,384.9z"/>
		<path class="st1" d="M222.8,437.2c6.9,0,12.6-4.7,12.6-12.6c0-8.1-4.9-12.2-11.8-12.2c-6.6,0-12.5,4.8-12.5,12.6
			C211.1,432.2,214.9,437.2,222.8,437.2z M223.2,416.7c4.1,0,6.8,2.8,6.8,8.2c0,5.4-3.1,7.9-7,7.9c-4.7,0-6.7-3.6-6.7-8.2
			C216.4,419.5,219.6,416.7,223.2,416.7z"/>
		<path class="st1" d="M252.9,437.1c2.4,0,4.5-0.4,6.5-1.1l-0.4-4.4c-1.4,0.7-3.2,1.1-5,1.1c-4.8,0-7.5-2.7-7.5-7.9
			c0-4.8,2.5-8.2,7.3-8.2c1.7,0,3.4,0.3,5.1,0.8l0.5-4.4c-1.6-0.5-3.6-0.6-5.2-0.6c-9,0-12.9,6-12.9,12.8
			C241.1,432.6,245.1,437.1,252.9,437.1z"/>
		<polygon class="st1" points="288.6,436.8 288.6,412.8 283.6,412.8 283.6,422.3 272.3,422.3 272.3,412.8 267.3,412.8 267.3,436.8 
			272.3,436.8 272.3,426.6 283.6,426.6 283.6,436.8 		"/>
		<polygon class="st1" points="314.9,425.5 323.8,436.8 330.4,436.8 320.1,424.3 329.9,412.8 323.8,412.8 314.9,423.5 314.9,412.8 
			309.9,412.8 309.9,436.8 314.9,436.8 		"/>
		<path class="st1" d="M345.4,437.2c6.9,0,12.6-4.7,12.6-12.6c0-8.1-4.9-12.2-11.8-12.2c-6.7,0-12.5,4.8-12.5,12.6
			C333.7,432.2,337.6,437.2,345.4,437.2z M345.9,416.7c4.1,0,6.8,2.8,6.8,8.2c0,5.4-3.1,7.9-7,7.9c-4.7,0-6.6-3.6-6.6-8.2
			C339,419.5,342.2,416.7,345.9,416.7z"/>
		<path class="st1" d="M372.5,423.8l8.3,13h6.6v-24h-4.9l0,10.6c0,3.1,0,5.4,0.1,6.9h0c-0.8-1.7-1.7-3.2-2.6-4.7l-8.1-12.8h-6.7v24
			h4.9l0-12.6c0-2.2-0.1-3.7-0.1-5h0.1C370.7,420.6,371.6,422.3,372.5,423.8z"/>
		<path class="st1" d="M402,433.1c-2,0-3.9-0.4-5.3-0.9l-0.2,4.5c1.3,0.3,3.3,0.6,4.9,0.6c6.1,0,10.4-3.2,10.4-8.1
			c0-7.5-10.7-5.7-10.7-9.8c0-1.8,1.3-3,4.4-3c1.4,0,3.3,0.3,4.6,0.7l0.2-4.3c-1.3-0.2-3.2-0.4-4.6-0.4c-6.3,0-9.8,3-9.8,7.5
			c0,7.8,10.6,5.6,10.6,9.8C406.5,432.1,404.3,433.1,402,433.1z"/>
		<polygon class="st1" points="428.4,436.8 428.4,417 435,417 435,412.8 416.7,412.8 416.7,417 423.4,417 423.4,436.8 		"/>
		<path class="st1" d="M242.2,344.7l-0.6-0.1c-12.6-1.6-12.7-4.1-13-14.5v-18.2l21.1,22.9c8,8.8,12.5,13.6,24.1,13.6
			c2.2,0,4.6-0.2,7.4-0.5l0.6-0.1l0-2.8l-0.7,0c-7-0.3-10.9-4.3-18.5-12.2c-1-1.1-2.2-2.3-3.4-3.5l-20.5-22.8l8.3-8.5l1.8-1.9
			c6.9-7.3,14.8-15.6,25.3-16.7l0.6-0.1v-2.8H247v2.8l0.6,0.1c2.8,0.3,4.2,0.9,4.6,2c0.8,2-1.7,6.2-7.5,12.7l-16.1,17.2v-17.3
			c0.3-10.5,0.4-13,10.2-14.6l0.6-0.1v-2.8h-33.8v2.8l0.6,0.1c11.7,1.6,11.8,4.1,12.1,14.5v35.9c-0.3,10.5-0.4,13-12.1,14.6
			l-0.6,0.1v2.8h36.6L242.2,344.7L242.2,344.7z"/>
		<path class="st1" d="M334.5,344.7l-0.6-0.1c-13.2-1.6-13.7-4.6-13.7-17v-46.5h5.5c12.1,0,17,3.7,20.3,15.4l0.2,0.6l2.6-0.6
			l-1.3-20h-64.8l-1.3,20l2.6,0.6l0.2-0.6c3.3-11.7,8.2-15.4,20.3-15.4h5.5v46.5c0,12.4-0.5,15.4-13.7,17l-0.6,0.1v2.8h38.9
			L334.5,344.7L334.5,344.7z"/>
		<path class="st1" d="M438.6,279.6l0.6-0.1v-2.8h-36.6v2.8l0.6,0.1c13,1.9,13,3.6,13,14.5v14.1h-36.9v-14.1c0-11,0-12.6,13-14.5
			l0.6-0.1v-2.8h-36.6v2.8l0.6,0.1c11.7,1.6,11.8,4.1,12.1,14.5v35.9c-0.3,10.5-0.4,13-12.1,14.6l-0.6,0.1v2.8h36.6v-2.8l-0.6-0.1
			c-13-1.9-13-3.6-13-14.5v-16.2h36.9v16.2c0,11,0,12.6-13,14.5l-0.6,0.1v2.8h36.6v-2.8l-0.6-0.1c-11.7-1.6-11.8-4-12.1-14.5v-35.9
			C426.8,283.7,426.9,281.2,438.6,279.6z"/>
		<path class="st1" d="M236.4,184.1c-0.3,0.5-1.9,4,0.5,7.7c2.7,4.1,7.2,3.4,7.3,3.4c3.1,3.9,8.3,8.7,12.6,7.4
			c0,0,26.9-12.5,64.1-12.5h0c37.3,0,64.2,12.5,64.2,12.5c4.3,1.2,9.5-3.5,12.6-7.4c0.2,0,4.7,0.7,7.3-3.4c2.4-3.7,0.8-7.2,0.5-7.8
			c2.2-3.6,5.7-6.8,5.7-6.8c1.6-1.5,2.6-3.5,2.6-5.9c0-4.4-3.6-8-8-8c-0.4,0-0.7,0-1,0.1c-0.1-0.2-0.1-0.4-0.2-0.7
			c2.2-1.1,3.7-3.4,3.7-5.9c0-3.7-3-6.7-6.7-6.7c-1.2,0-2.4,0.4-3.4,0.9c-0.2-0.2-0.4-0.4-0.6-0.7c1-1,1.7-2.4,1.7-3.9
			c0-3.1-2.5-5.5-5.5-5.5c-1.9,0-3.5,0.9-4.5,2.4c-0.3-0.2-0.6-0.4-1-0.6c0.6-0.8,1-1.9,1-3c0-2.8-2.3-5-5-5c-2.2,0-4,1.4-4.7,3.3
			c-0.5-0.2-1.1-0.4-1.6-0.7c0.4-0.7,0.6-1.5,0.6-2.3c0-2.5-2-4.6-4.6-4.6c-2.3,0-4.1,1.7-4.5,3.9c-0.3-0.1-0.7-0.2-1-0.3
			c-0.7-2.7-3.2-4.6-6.1-4.6c-0.6,0-1.3,0.1-1.8,0.3c-0.2-0.2-0.5-0.4-0.7-0.6c0-0.1,0-0.2,0-0.3c0-3-2.4-5.4-5.4-5.4
			c-1.2,0-2.2,0.4-3.1,1c-0.2-0.1-0.4-0.2-0.6-0.2c0,0,0-0.1,0-0.1c0-2.7-2.2-4.8-4.9-4.8c-1.8,0-3.4,1-4.2,2.5
			c-0.4-0.1-0.8-0.1-1.1-0.2c0-0.1,0-0.1,0-0.2c0-2.4-2-4.4-4.4-4.4c-2.1,0-3.9,1.5-4.3,3.5c-0.4,0-0.9-0.1-1.3-0.1
			c0.5-1.3,0.8-2.6,0.8-4.1c0-4-2.3-7.5-5.6-9.3c0,0-1.2-0.6-3-1c0-3.7,0-8,0-8s4,0,4.5,0c0.1-0.2,0.4-0.8,0.4-1.9
			c0-1.1-0.3-1.7-0.4-1.9c-0.4,0-4.5,0-4.5,0v-4.5c-0.2-0.2-0.8-0.5-1.9-0.5l0,0c-1.1,0-1.7,0.3-1.9,0.5v4.5c0,0-4,0-4.5,0
			c-0.2,0.2-0.5,0.8-0.5,1.9c0,1.1,0.3,1.7,0.5,1.9c0.4,0,4.5,0,4.5,0s0,4.3,0,8c-1.7,0.3-3,1-3,1c-3.3,1.8-5.6,5.2-5.6,9.3
			c0,1.4,0.3,2.8,0.8,4.1c-0.4,0-0.9,0.1-1.3,0.1c-0.4-2-2.2-3.5-4.3-3.5c-2.4,0-4.4,2-4.4,4.4c0,0.1,0,0.1,0,0.2
			c-0.4,0.1-0.8,0.1-1.1,0.2c-0.8-1.5-2.4-2.5-4.2-2.5c-2.7,0-4.9,2.2-4.9,4.8c0,0,0,0.1,0,0.1c-0.2,0.1-0.4,0.2-0.6,0.2
			c-0.9-0.6-1.9-1-3.1-1c-3,0-5.4,2.4-5.4,5.4c0,0.1,0,0.2,0,0.3c-0.2,0.2-0.5,0.4-0.7,0.6c-0.6-0.2-1.2-0.3-1.9-0.3
			c-2.9,0-5.3,2-6.1,4.6c-0.4,0.1-0.7,0.2-1,0.3c-0.3-2.2-2.2-3.9-4.5-3.9c-2.5,0-4.6,2.1-4.6,4.6c0,0.8,0.2,1.6,0.6,2.3
			c-0.5,0.2-1.1,0.4-1.6,0.7c-0.7-1.9-2.5-3.3-4.7-3.3c-2.8,0-5,2.3-5,5c0,1.1,0.4,2.1,1,3c-0.3,0.2-0.6,0.4-1,0.6
			c-1-1.4-2.7-2.4-4.5-2.4c-3.1,0-5.5,2.5-5.5,5.5c0,1.6,0.6,3,1.7,4c-0.2,0.2-0.4,0.4-0.6,0.7c-1-0.6-2.1-0.9-3.4-0.9
			c-3.7,0-6.7,3-6.7,6.7c0,2.6,1.5,4.8,3.7,5.9c-0.1,0.2-0.1,0.4-0.2,0.7c-0.3,0-0.7-0.1-1-0.1c-4.4,0-8,3.6-8,8
			c0,2.3,1,4.4,2.6,5.9C230.7,177.3,234.1,180.5,236.4,184.1z M243.3,192.4c-2.7,0-4.9-2.2-4.9-4.9c0-1,0.3-2,0.8-2.8
			c0.9-1.3,2.4-2.2,4.1-2.2s3.2,0.9,4.1,2.2c0.5,0.8,0.9,1.7,0.9,2.8C248.2,190.2,246,192.4,243.3,192.4z M321,176.3
			c-2.7,0-4.9-2.2-4.9-4.9c0-2.7,2.2-4.9,4.9-4.9c2.7,0,4.9,2.2,4.9,4.9C325.9,174.1,323.7,176.3,321,176.3z M321,138.3
			c2.7,0,4.9,2.2,4.9,4.9s-2.2,4.8-4.9,4.8c-2.7,0-4.9-2.2-4.9-4.8C316.1,140.4,318.3,138.3,321,138.3z M317.2,132.9
			c0-2.1,1.7-3.8,3.8-3.8c2.1,0,3.8,1.7,3.8,3.8s-1.7,3.8-3.8,3.8C318.9,136.7,317.2,135,317.2,132.9z M321,149.8c3.3,0,6,2.7,6,6
			c0,1.5-0.6,2.9-1.5,4c-1.3-0.9-2.8-1.5-4.5-1.5c-1.7,0-3.3,0.6-4.5,1.5c-0.9-1.1-1.5-2.4-1.5-4C315,152.5,317.7,149.8,321,149.8z
			 M398.7,192.4c-2.7,0-4.9-2.2-4.9-4.9c0-1.3,0.5-2.5,1.4-3.4c0.9-0.9,2.1-1.5,3.5-1.5c2.1,0,3.9,1.3,4.6,3.2
			c0.2,0.5,0.3,1.1,0.3,1.7C403.6,190.2,401.4,192.4,398.7,192.4z M405.9,166.1c2.9,0,5.3,2.4,5.3,5.3c0,1.9-1.9,4.2-3.5,5.3
			c-1.4-1.6-3.4-2.7-5.8-2.7c-0.2,0-0.4,0-0.6,0c-0.4-0.8-0.7-1.7-0.7-2.6C400.6,168.5,403,166.1,405.9,166.1z M401.6,152.9
			c2.2,0,4,1.8,4,4s-1.8,4-4,4c-2.2,0-4-1.8-4-4C397.6,154.7,399.4,152.9,401.6,152.9z M393.8,143.7c1.6,0,2.8,1.3,2.8,2.8
			c0,1.5-1.3,2.8-2.8,2.8c-1.6,0-2.8-1.3-2.8-2.8C391,144.9,392.3,143.7,393.8,143.7z M384.3,137.4c1.3,0,2.3,1,2.3,2.3
			c0,1.3-1,2.3-2.3,2.3c-1.3,0-2.3-1-2.3-2.3S383,137.4,384.3,137.4z M374.1,133.2c1,0,1.8,0.8,1.8,1.8c0,1-0.8,1.8-1.8,1.8
			c-1,0-1.8-0.8-1.8-1.8C372.3,134.1,373.1,133.2,374.1,133.2z M368.1,138.8c15.4,4.9,23.4,12.4,27.1,19.8c3,6.8,2.5,8.4,2.7,12.8
			c0.1,1.5,0.5,2.5,0.8,3.4c-3.5,1.9-3.9,4.6-4,4.8c-0.1-0.1-0.3-0.2-0.4-0.3c-1.3-1.1-2.9-1.7-4.7-1.7c-5.6,0.1-9.1,5.5-6.8,10.8
			c0.5,1.3,3.7,5.9,9.8,3.7c0.4,0.5,0.8,0.9,1.2,1.3c-1.8,3.4-5.9,5.1-9.6,3.6c-3.7-1.4-6.3-4.5-7.3-8c-2.7,2.4-6.6,3.6-10.4,2.8
			c-4.1-0.8-6.9-4.8-6-9c0.1-0.4,0.4-1.9,0.6-2.5c0.5,2.9,2.8,5.3,5.8,5.9c4,0.8,7.9-1.9,8.7-5.9c0.8-4-1.8-7.9-5.9-8.7
			c-0.4-0.1-0.9,0-1.4,0c0.1-0.3,0.3-0.7,0.3-0.7c0.2-0.9,0.2-1.8,0-2.6c3.7-1,6.4-4.3,6.4-8.3c0-3.2-1.8-6-4.3-7.5
			c2.2-1.2,3.6-3.5,3.6-6.2c0-3.7-2.9-6.8-6.5-7.1C367.8,139.2,368,139,368.1,138.8z M362.7,162.3c-0.6-0.1-1.2-0.2-1.8-0.1
			c-0.2-0.6-0.4-1.3-0.4-2.1c0-3.3,2.6-5.9,5.9-5.9c3.3,0,5.9,2.6,5.9,5.9c0,2.8-2,5.1-4.6,5.7C366.6,164.1,364.9,162.8,362.7,162.3
			z M371.5,146.5c0,2.5-2,4.5-4.5,4.5s-4.5-2-4.5-4.5c0-2.5,2-4.5,4.5-4.5S371.5,144,371.5,146.5z M362.5,132.1c2,0,3.6,1.6,3.6,3.6
			c0,2-1.6,3.6-3.6,3.6c-2,0-3.6-1.6-3.6-3.6C358.9,133.8,360.5,132.1,362.5,132.1z M360.1,170.4c2.7,0,4.9,2.2,4.9,4.9
			c0,2.7-2.2,4.9-4.9,4.9c-2.7,0-4.9-2.2-4.9-4.9C355.2,172.5,357.4,170.4,360.1,170.4z M354.6,126.2c1.5,0,2.6,1.2,2.6,2.7
			c0,1.5-1.2,2.6-2.6,2.6c-1.5,0-2.6-1.2-2.6-2.6C351.9,127.4,353.1,126.2,354.6,126.2z M346,122c1.2,0,2.1,1,2.1,2.1
			c0,1.2-1,2.1-2.1,2.1c-1.2,0-2.1-1-2.1-2.1C343.9,123,344.8,122,346,122z M336.3,119.7c0.9,0,1.7,0.8,1.7,1.7
			c0,0.9-0.8,1.7-1.7,1.7c-0.9,0-1.7-0.8-1.7-1.7C334.6,120.5,335.3,119.7,336.3,119.7z M355.6,161.9l1.1,1.9
			c-1.3,1.1-2.4,2.6-2.7,4.4c0,0,0,0.4,0,0.8c-0.4-0.2-0.8-0.4-1.2-0.5c-4-0.8-7.9,1.8-8.7,5.9c-0.8,4,1.8,7.9,5.9,8.7
			c3.1,0.6,6-0.8,7.6-3.3c-0.1,0.6-0.3,2.1-0.4,2.5c-0.8,4.1-4.8,6.9-9,6c-3.9-0.8-6.7-3.2-8.3-6.5c-2.2,2.9-5.5,4.8-9.4,4.8
			c-4.2,0-7.7-3.4-7.7-7.7c0-0.4,0.1-1.9,0.1-2.5c1.1,2.7,3.8,4.7,6.9,4.7c4.1,0,7.4-3.3,7.4-7.4c0-4.1-3.3-7.4-7.4-7.4
			c-0.4,0-0.9,0.2-1.3,0.3c0.1-0.4,0.1-0.8,0.1-0.8c0-0.7-0.1-1.4-0.3-2.1l2.7-1.7c0,0-0.5-25.1-5-36.4c0.1-0.1,0.3-0.2,0.4-0.3
			C363.1,127.4,359.9,152.9,355.6,161.9z M328.7,115.7c0,0.2,0,0.3,0,0.5c0,1.5-0.4,2.9-1.2,4.1c-0.7,0-1.5,0-2.5,0
			c0.1-0.3,0.1-0.6,0.1-1c0-1.5-0.9-2.9-2.1-3.6C323,115.7,328.7,115.7,328.7,115.7z M322.9,108.8c2.2,0.5,4.1,2.1,5.1,4h-5.1V108.8
			z M321,117.5c0.9,0,1.7,0.8,1.7,1.7s-0.8,1.7-1.7,1.7s-1.7-0.8-1.7-1.7C319.3,118.3,320.1,117.5,321,117.5z M321,122.5
			c1.4,0,2.6,1.1,2.6,2.6c0,1.4-1.1,2.5-2.6,2.5c-1.4,0-2.5-1.1-2.5-2.5C318.4,123.7,319.6,122.5,321,122.5z M319.1,108.8v4h-5
			C315.1,110.8,317,109.3,319.1,108.8z M313.3,115.7h5.7c-1.3,0.7-2.1,2-2.1,3.6c0,0.3,0,0.7,0.1,1c-0.9,0-1.8,0-2.5,0
			c-0.8-1.2-1.2-2.6-1.2-4.1C313.3,116,313.3,115.8,313.3,115.7z M305.8,119.7c0.9,0,1.7,0.8,1.7,1.7c0,0.9-0.8,1.7-1.7,1.7
			c-0.9,0-1.7-0.8-1.7-1.7C304,120.5,304.8,119.7,305.8,119.7z M296,122c1.2,0,2.1,1,2.1,2.1c0,1.2-0.9,2.1-2.1,2.1
			c-1.2,0-2.1-1-2.1-2.1C293.9,123,294.8,122,296,122z M287.4,126.2c1.5,0,2.6,1.2,2.6,2.7c0,1.5-1.2,2.6-2.6,2.6
			c-1.5,0-2.7-1.2-2.7-2.6C284.8,127.4,286,126.2,287.4,126.2z M315.7,125.3c0.1,0.1,0.3,0.2,0.4,0.3c-4.5,11.2-5,36.4-5,36.4
			l2.7,1.7c-0.2,0.7-0.3,1.4-0.3,2.1c0,0,0.1,0.4,0.1,0.8c-0.4-0.1-0.9-0.3-1.3-0.3c-4.1,0-7.4,3.3-7.4,7.4c0,4.1,3.3,7.4,7.4,7.4
			c3.1,0,5.8-1.9,6.9-4.7c0.1,0.6,0.1,2.1,0.1,2.5c0,4.2-3.4,7.7-7.6,7.7c-3.9,0-7.2-1.9-9.4-4.8c-1.6,3.3-4.5,5.8-8.3,6.5
			c-4.2,0.8-8.2-1.9-9-6c-0.1-0.4-0.3-1.9-0.4-2.5c1.6,2.5,4.6,3.9,7.6,3.3c4-0.8,6.6-4.7,5.9-8.7c-0.8-4-4.7-6.7-8.7-5.9
			c-0.4,0.1-0.8,0.3-1.2,0.5c0-0.4,0-0.8,0-0.8c-0.4-1.8-1.4-3.4-2.7-4.4l1.1-1.9C282.1,152.9,278.9,127.4,315.7,125.3z
			 M286.8,175.2c0,2.7-2.2,4.9-4.9,4.9c-2.7,0-4.9-2.2-4.9-4.9s2.2-4.9,4.9-4.9C284.6,170.4,286.8,172.5,286.8,175.2z M274.4,165.9
			c-2.6-0.6-4.6-2.9-4.6-5.7c0-3.3,2.6-5.9,5.9-5.9s5.9,2.6,5.9,5.9c0,0.7-0.1,1.4-0.4,2.1c-0.6,0-1.2,0-1.8,0.1
			C277.1,162.8,275.4,164.1,274.4,165.9z M279.5,132.1c2,0,3.6,1.6,3.6,3.6c0,2-1.6,3.6-3.6,3.6c-2,0-3.6-1.6-3.6-3.6
			C275.9,133.8,277.5,132.1,279.5,132.1z M275,142c2.5,0,4.5,2,4.5,4.5c0,2.5-2,4.5-4.5,4.5c-2.5,0-4.5-2-4.5-4.5
			C270.5,144,272.5,142,275,142z M267.9,133.2c1,0,1.8,0.8,1.8,1.8c0,1-0.8,1.8-1.8,1.8c-1,0-1.8-0.8-1.8-1.8
			C266.1,134.1,266.9,133.2,267.9,133.2z M257.7,137.4c1.3,0,2.3,1,2.3,2.3c0,1.3-1,2.3-2.3,2.3c-1.3,0-2.3-1-2.3-2.3
			C255.4,138.5,256.4,137.4,257.7,137.4z M273.9,138.8c0.1,0.2,0.2,0.4,0.4,0.6c-3.6,0.3-6.5,3.4-6.5,7.1c0,2.7,1.5,5,3.6,6.2
			c-2.6,1.5-4.3,4.3-4.3,7.5c0,4,2.7,7.3,6.4,8.3c-0.1,0.8-0.1,1.7,0,2.6c0,0,0.1,0.4,0.3,0.7c-0.5,0-0.9-0.1-1.4,0
			c-4,0.8-6.7,4.7-5.9,8.7c0.8,4,4.7,6.6,8.7,5.9c3.1-0.6,5.3-3,5.8-5.9c0.2,0.6,0.5,2.1,0.6,2.5c0.8,4.1-1.9,8.2-6,9
			c-3.9,0.8-7.7-0.4-10.4-2.8c-1,3.5-3.6,6.5-7.3,8c-3.7,1.4-7.8-0.2-9.6-3.6c0.5-0.4,0.9-0.8,1.2-1.3c6.1,2.2,9.3-2.4,9.8-3.7
			c2.3-5.3-1.2-10.8-6.8-10.8c-1.8,0-3.4,0.6-4.8,1.7c-0.1,0.1-0.3,0.2-0.4,0.3c0-0.2-0.5-2.9-4-4.8c0.3-0.9,0.7-1.9,0.8-3.4
			c0.2-4.3-0.3-5.9,2.7-12.8C250.5,151.1,258.5,143.7,273.9,138.8z M248.2,143.7c1.5,0,2.8,1.3,2.8,2.8c0,1.5-1.3,2.8-2.8,2.8
			c-1.6,0-2.8-1.3-2.8-2.8C245.4,144.9,246.6,143.7,248.2,143.7z M236.4,156.9c0-2.2,1.8-4,4-4c2.2,0,4,1.8,4,4s-1.8,4-4,4
			C238.2,160.9,236.4,159.1,236.4,156.9z M236.1,166.1c2.9,0,5.3,2.4,5.3,5.3c0,1-0.3,1.8-0.7,2.6c-0.2,0-0.4,0-0.6,0
			c-2.3,0-4.4,1.1-5.8,2.7c-1.6-1-3.5-3.3-3.5-5.3C230.8,168.5,233.2,166.1,236.1,166.1z"/>
		<path class="st1" d="M375.4,223.3c0.7,0,1.4-0.4,1.6-1.1c0.3-0.9-0.1-1.9-1-2.2c-17.3-6.4-35.6-9.7-54.4-9.7h-1.2
			c-18.8,0-37,3.3-54.4,9.7c-0.9,0.3-1.4,1.3-1,2.2c0.3,0.9,1.3,1.4,2.2,1c17-6.3,34.8-9.5,53.2-9.5h1.2c18.4,0,36.2,3.2,53.2,9.5
			C375,223.3,375.2,223.3,375.4,223.3z"/>
		<path class="st1" d="M385.8,213.2l-2.5-6.7l-0.4-1l-3.2,0.5c-17.8-6.8-36.5-10.4-55.6-10.8l-3.1-1.8l-3.1,1.8
			c-19.2,0.3-37.9,4-55.6,10.8l-3.2-0.5l-0.4,1l-2.5,6.7l7.3,4l2.3-2.8c16.5-6.2,33.8-9.5,51.6-9.9l3.7,2.1l3.7-2.1
			c17.8,0.4,35.1,3.7,51.6,9.9l2.3,2.8L385.8,213.2z M262.8,213.9c-1-0.5-2.3-1.3-3.3-1.9c0.4-1.1,0.9-2.5,1.3-3.6
			c1.2,0.2,3.6,0.6,5.8,1C265.1,211.1,263.6,212.9,262.8,213.9z M293.4,205.2l-5.8,1.2c-1.6,0.3-3.2-0.7-3.5-2.3
			c-0.3-1.6,0.7-3.2,2.3-3.5l5.8-1.2c1.6-0.3,3.2,0.7,3.5,2.3C296,203.3,295,204.9,293.4,205.2z M321,203.6l-6.1-3.5l6.1-3.5
			l6.1,3.5L321,203.6z M358,204.1c-0.3,1.6-1.9,2.6-3.5,2.3l-5.8-1.2c-1.6-0.3-2.6-1.9-2.3-3.5c0.3-1.6,1.9-2.6,3.5-2.3l5.8,1.2
			C357.3,200.9,358.3,202.5,358,204.1z M375.5,209.4c2.2-0.4,4.6-0.8,5.8-1c0.4,1.1,0.9,2.5,1.3,3.6c-1,0.6-2.3,1.3-3.3,1.9
			C378.4,212.9,376.9,211.1,375.5,209.4z"/>
	</g>
</g>
</svg>
