<svg xmlns="http://www.w3.org/2000/svg"  viewBox="0 0 48 48" width="20px" height="20px"><path fill="#ef4823" d="M22.313,5.255c-3.046-0.164-6.096-0.243-9.147-0.237C10.268,5.023,8.014,5.263,6.1,7.439	c-1.196,1.36-1.614,3.228-1.817,5.027C3.662,17.968,4.662,23.53,4.414,29.062c-0.11,2.452-0.464,4.914-0.158,7.349	s1.405,4.925,3.514,6.179c1.765,1.05,2.932,1.083,4.986,1.085c6.647,0.006,13.294-0.002,19.941-0.024	c1.717-0.006,3.451-0.014,5.123-0.402s3.302-1.194,4.369-2.538c1.631-2.054,1.672-4.907,1.638-7.529	c-0.085-6.646-0.171-13.291-0.256-19.937c-0.012-0.901-0.024-1.808-0.208-2.691c-0.559-2.685-2.833-4.93-5.524-5.457	c-1.438-0.281-2.921-0.107-4.38,0.035C29.659,5.502,26.13,5.347,22.313,5.255z"/><path fill="#d6e5e5" d="M36.19,27.32c-0.55-0.87-1.75-1.41-2.79-1.37c-1.03,0.05-2.08-0.23-3.38-0.25	c-0.99-0.02-1.89,0.26-2.32-0.09c-1-0.79-1.65-1.48-2.35-2.55c-0.15-0.22-0.81-1.28-0.65-1.6c0.71-1.43,1.07-3.04,1.04-4.64	c-0.02-1.27,0.02-2.96-0.79-3.93c-0.81-0.97-2.32-1.38-3.49-0.9c-0.88,0.36-1.66,1.3-1.88,2.23c-0.22,0.92-0.11,1.9,0.13,2.82	c0.23,0.93,0.52,2.02,0.98,2.86c0.2,0.37,0.43,0.75,0.44,1.16c0.01,0.36-0.13,0.69-0.28,1.01c-0.71,1.62-1.42,3.23-2.13,4.85	c-0.26,0.59-0.53,1.19-0.93,1.69c-0.75,0.92-1.76,1.17-2.87,1.59c-1.1,0.43-2.16,0.58-3.05,1.36c-0.89,0.78-1.67,2.57-1.24,3.67	c0.55,1.38,2.44,2.03,3.82,1.49c1.38-0.53,2.49-1.82,3.42-2.97c0.62-0.77,1.08-1.83,1.7-2.6c0.26-0.32,1.38-1.01,1.75-1.21	c1.1-0.57,2.39-1.03,4.3-1.31c0.34-0.06,0.7-0.1,1.02,0.02s0.7,0.19,0.93,0.44c1.08,1.17,2.46,2.14,4.03,2.39	c1.58,0.24,3.63-0.31,4.47-1.67C36.52,29.07,36.66,28.06,36.19,27.32z M15.05,33.76c-0.52,0.61-1.15,1.27-1.96,1.27	c-0.21,0-0.44-0.06-0.58-0.22c-0.13-0.16-0.15-0.38-0.13-0.59c0.11-0.92,1.02-1.55,1.89-1.87c0.88-0.33,1.8-0.33,2.6-0.71	C16.26,32.34,15.66,33.05,15.05,33.76z M21.79,14.04c0.23-0.33,0.69-0.53,1.06-0.35c0.26,0.12,0.42,0.41,0.5,0.69	c0.17,0.61,0.09,1.25-0.04,1.86c-0.18,0.91-0.47,1.81-0.85,2.66c-0.35-1.01-1.05-2.63-0.99-3.7C21.49,14.79,21.55,14.37,21.79,14.04	z M21.76,27.8c0.73-1.04,1.32-2.46,1.62-3.7c0.71,0.82,1.42,1.63,2.13,2.45C24.18,26.65,22.88,27.08,21.76,27.8z M33.36,28.68	c-0.17,0.36-0.58,0.55-0.98,0.56c-0.39,0.02-0.78-0.11-1.15-0.24c-0.93-0.31-1.86-0.63-2.65-1.2c1.43-0.1,3.49-0.36,4.65,0.48	c0.08,0.05,0.15,0.12,0.17,0.21C33.41,28.55,33.39,28.62,33.36,28.68z"/><path fill="#010101" d="M22.313,4.755c-2.717-0.144-5.437-0.225-8.157-0.236c-1.957-0.008-4.021-0.064-5.86,0.71 C3.82,7.113,3.57,12.415,3.576,16.603c0.004,2.65,0.216,5.293,0.321,7.94c0.105,2.669-0.053,5.292-0.205,7.955 c-0.24,4.228,0.455,9.127,4.807,11.032c1.955,0.856,4.169,0.646,6.251,0.647c2.742,0.001,5.484,0,8.226-0.003 c2.7-0.003,5.401-0.009,8.101-0.017c2.504-0.007,5.122,0.133,7.548-0.605c1.985-0.605,3.789-1.83,4.715-3.734 c0.938-1.931,1.009-4.134,0.992-6.24c-0.043-5.365-0.137-10.73-0.206-16.095c-0.018-1.371-0.035-2.741-0.053-4.112 c-0.015-1.161-0.027-2.345-0.358-3.467c-0.534-1.809-1.79-3.381-3.394-4.36c-1.968-1.201-4.177-1.17-6.4-0.954 c-2.592,0.251-5.184,0.307-7.787,0.26C24.86,4.825,23.586,4.786,22.313,4.755c-0.644-0.016-0.643,0.984,0,1 c2.406,0.059,4.813,0.147,7.22,0.098c1.189-0.024,2.378-0.081,3.563-0.187c1.196-0.106,2.396-0.268,3.599-0.205 c1.952,0.103,3.742,1.031,4.948,2.573c1.404,1.796,1.411,3.904,1.439,6.083c0.065,5.026,0.129,10.052,0.194,15.077 c0.029,2.283,0.175,4.602-0.014,6.881c-0.173,2.08-0.841,4.155-2.614,5.411c-1.837,1.301-4.117,1.587-6.31,1.646 c-2.497,0.067-5.001,0.029-7.499,0.034c-4.969,0.01-9.946,0.091-14.914,0.003c-1.934-0.034-3.781-0.559-5.137-2.019 c-1.362-1.467-1.957-3.515-2.106-5.471c-0.186-2.451,0.193-4.901,0.257-7.35c0.065-2.487-0.097-4.972-0.225-7.455 c-0.127-2.476-0.223-4.962-0.025-7.438c0.168-2.095,0.501-4.359,2.028-5.93c1.306-1.345,3.012-1.838,4.84-1.948 c2.338-0.141,4.71-0.035,7.05,0.038c1.236,0.039,2.471,0.092,3.706,0.158C22.956,5.789,22.954,4.789,22.313,4.755z"/><path fill="#010101" d="M17.32,31.83c0.001-0.003,0.003-0.006,0.004-0.01c0.015-0.043,0.023-0.084,0.027-0.13	c0.004-0.03,0.006-0.06,0.005-0.09c-0.002-0.025-0.007-0.047-0.012-0.071c-0.008-0.039-0.019-0.077-0.038-0.114	c-0.004-0.008-0.004-0.019-0.009-0.027c-0.01-0.017-0.025-0.025-0.035-0.04c-0.015-0.02-0.022-0.043-0.041-0.062	c-0.009-0.009-0.022-0.012-0.031-0.02c-0.028-0.024-0.058-0.042-0.089-0.058c-0.024-0.013-0.047-0.024-0.073-0.033	c-0.027-0.008-0.055-0.014-0.083-0.017c-0.046-0.008-0.091-0.01-0.137-0.006c-0.001,0-0.003,0.001-0.004,0.001	c-0.06,0.006-0.116,0.022-0.168,0.049c-0.006,0.003-0.013,0.003-0.019,0.006c-0.806,0.376-1.74,0.363-2.565,0.692	c-0.736,0.293-1.47,0.733-1.881,1.434c-0.444,0.757-0.439,1.984,0.627,2.17c0.903,0.158,1.693-0.402,2.282-1.025	c0.749-0.793,1.433-1.657,2.143-2.485c0.004-0.004,0.005-0.009,0.008-0.014C17.27,31.936,17.299,31.887,17.32,31.83z M14.841,33.237	c-0.404,0.471-0.857,1.086-1.485,1.259c-0.148,0.041-0.439,0.103-0.482-0.06c-0.06-0.233,0.097-0.518,0.223-0.701	c0.315-0.457,0.899-0.767,1.423-0.947c0.298-0.102,0.604-0.172,0.909-0.237C15.233,32.78,15.037,33.008,14.841,33.237z"/><path fill="#010101" d="M23.431,13.508c-0.689-0.728-1.813-0.315-2.206,0.505c-0.372,0.776-0.292,1.693-0.094,2.504	c0.21,0.863,0.555,1.684,0.851,2.518c0.009,0.024,0.025,0.043,0.036,0.066c0.037,0.091,0.094,0.174,0.193,0.232	c0.034,0.02,0.075,0.027,0.115,0.038c0.085,0.027,0.175,0.039,0.271,0.013c0.011-0.003,0.019-0.012,0.029-0.015	c0.116-0.035,0.22-0.102,0.27-0.215c0.407-0.924,0.728-1.881,0.919-2.873C23.983,15.403,24.105,14.221,23.431,13.508z M22.176,14.351c0.1-0.141,0.319-0.304,0.49-0.193c0.214,0.138,0.257,0.553,0.271,0.776c0.025,0.38-0.023,0.755-0.096,1.127	c-0.094,0.475-0.219,0.944-0.367,1.406c-0.053-0.15-0.109-0.299-0.158-0.451c-0.182-0.561-0.37-1.159-0.353-1.756	C21.972,14.964,21.999,14.602,22.176,14.351z"/><path fill="#010101" d="M25.86,26.193c-0.709-0.814-1.417-1.628-2.126-2.443c-0.246-0.283-0.751-0.13-0.836,0.221	c-0.307,1.267-0.823,2.502-1.568,3.575c-0.025,0.036-0.032,0.078-0.044,0.118c-0.001,0.005-0.004,0.009-0.005,0.013	c-0.012,0.047-0.015,0.094-0.011,0.143c0.001,0.024,0.002,0.048,0.006,0.072c0.006,0.028,0.016,0.052,0.027,0.079	c0.01,0.027,0.012,0.054,0.027,0.08c0.007,0.012,0.019,0.019,0.027,0.03c0.016,0.023,0.036,0.04,0.055,0.061	c0.023,0.023,0.043,0.046,0.07,0.064c0.01,0.007,0.016,0.018,0.027,0.025c0.026,0.015,0.054,0.017,0.08,0.027	c0.024,0.009,0.047,0.019,0.072,0.025c0.034,0.007,0.066,0.008,0.099,0.008c0.038,0.001,0.074-0.001,0.111-0.01	c0.014-0.004,0.028-0.01,0.042-0.015c0.034-0.011,0.07-0.016,0.101-0.036c1.052-0.666,2.259-1.083,3.492-1.183	C25.947,27.011,26.153,26.531,25.86,26.193z M24.528,26.184c-0.524,0.1-1.032,0.258-1.528,0.45c0.235-0.489,0.442-0.992,0.607-1.507	C23.914,25.479,24.221,25.831,24.528,26.184z"/><path fill="#010101" d="M33.108,27.625c-0.656-0.312-1.382-0.415-2.102-0.44c-0.809-0.027-1.617,0.053-2.423,0.11	c-0.015,0.001-0.028,0.008-0.043,0.01c-0.045,0.006-0.087,0.014-0.129,0.031c-0.018,0.007-0.034,0.017-0.051,0.025	c-0.039,0.021-0.075,0.042-0.108,0.071c-0.018,0.015-0.031,0.034-0.047,0.051c-0.018,0.02-0.041,0.037-0.054,0.059	c-0.007,0.011-0.006,0.023-0.012,0.034c-0.013,0.026-0.02,0.055-0.029,0.084c-0.01,0.036-0.02,0.07-0.022,0.106	c-0.001,0.01-0.006,0.018-0.006,0.028c0,0.024,0.011,0.047,0.015,0.07c0.005,0.026,0.007,0.052,0.016,0.077	c0.015,0.047,0.038,0.088,0.066,0.13c0.006,0.008,0.01,0.016,0.016,0.024c0.031,0.041,0.066,0.075,0.107,0.105	c0.01,0.008,0.016,0.019,0.027,0.026c0.702,0.507,1.514,0.826,2.327,1.107c0.818,0.283,1.725,0.631,2.552,0.184	c0.353-0.191,0.694-0.577,0.692-0.998C33.899,28.071,33.471,27.798,33.108,27.625z M30.923,28.371	c-0.178-0.062-0.355-0.126-0.53-0.194c0.536-0.014,1.071,0.006,1.59,0.119c0.244,0.053,0.487,0.124,0.704,0.236	c0.035,0.018,0.069,0.039,0.103,0.059c-0.027,0.024-0.052,0.044-0.057,0.048C32.204,28.945,31.438,28.549,30.923,28.371z"/><path fill="#010101" d="M33.579,25.449c-0.96-0.028-1.895-0.144-2.853-0.218c-0.531-0.041-1.051-0.033-1.582,0.009	c-0.36,0.029-0.845,0.145-1.173-0.053c-1.062-0.865-2.031-1.897-2.63-3.142c-0.157-0.327-0.175-0.403-0.026-0.728	c0.169-0.37,0.315-0.752,0.438-1.139c0.279-0.873,0.438-1.788,0.481-2.703c0.065-1.372,0.095-3.006-0.503-4.271	c-0.597-1.261-2.061-2.004-3.432-1.909c-1.409,0.098-2.61,1.137-3.092,2.442c-0.588,1.591-0.054,3.458,0.458,4.999	c0.121,0.364,0.258,0.724,0.42,1.071c0.183,0.393,0.527,0.811,0.547,1.258c0.021,0.479-0.313,0.994-0.5,1.418	c-0.194,0.44-0.388,0.88-0.583,1.321c-0.388,0.88-0.777,1.761-1.165,2.641c-0.378,0.857-0.74,1.797-1.528,2.364	c-1.288,0.927-3.011,1.065-4.41,1.772c-1.243,0.629-2.108,1.887-2.363,3.249c-0.547,2.919,2.881,4.308,5.145,3.078	c1.382-0.751,2.568-2.1,3.43-3.397c0.442-0.665,0.765-1.487,1.321-2.068c0.386-0.404,0.946-0.703,1.427-0.974	c1.32-0.744,2.851-1.165,4.347-1.362c0.43-0.057,0.91-0.01,1.296,0.215c0.335,0.195,0.593,0.566,0.883,0.824	c0.577,0.513,1.216,0.967,1.916,1.295c1.488,0.698,3.188,0.789,4.719,0.165c1.39-0.567,2.521-1.829,2.407-3.413	C36.853,26.52,35.125,25.494,33.579,25.449z M33.98,30.762c-1.334,0.456-2.747,0.305-3.982-0.364	c-1.229-0.666-2.012-1.996-3.42-2.288c-0.702-0.146-1.524,0.086-2.207,0.232c-0.68,0.145-1.352,0.335-2.001,0.585	c-1.008,0.389-1.974,0.902-2.824,1.573c-0.476,0.376-0.787,0.909-1.096,1.423c-0.404,0.672-0.8,1.323-1.304,1.926	c-0.879,1.05-2.058,2.43-3.525,2.55c-1.155,0.095-2.624-0.622-2.608-1.934c0.018-1.441,1.051-2.701,2.349-3.204	c1.266-0.49,2.69-0.763,3.851-1.495c1.321-0.832,1.823-2.34,2.424-3.701c0.356-0.807,0.712-1.614,1.068-2.421	c0.313-0.71,0.775-1.466,0.899-2.241c0.118-0.736-0.256-1.296-0.568-1.927c-0.344-0.694-0.552-1.449-0.747-2.196	c-0.405-1.549-0.62-3.301,0.748-4.449c1.266-1.062,3.36-0.476,3.909,1.075c0.259,0.733,0.274,1.538,0.29,2.306	c0.018,0.89,0.008,1.764-0.17,2.64c-0.087,0.428-0.201,0.85-0.343,1.263c-0.14,0.408-0.389,0.796-0.506,1.207	c-0.142,0.501,0.157,1.042,0.391,1.468c0.68,1.24,1.644,2.292,2.742,3.173c0.011,0.009,0.023,0.01,0.034,0.018	c0.023,0.021,0.037,0.045,0.065,0.063c0.509,0.328,1.122,0.241,1.695,0.195c0.864-0.069,1.702-0.007,2.562,0.095	c1.355,0.162,3.208-0.135,4.052,1.239C36.602,28.946,35.196,30.346,33.98,30.762z"/></svg>