<svg xmlns="http://www.w3.org/2000/svg"  viewBox="0 0 48 48" width="20px" height="20px"><path fill="#d03827" d="M45.39,25.505c-0.233-5.765-2.35-11.433-6.096-15.845c-0.792-0.932-1.655-1.814-2.656-2.521 c-1.844-1.302-4.064-1.949-6.237-2.575c-2.21-0.636-4.492-1.279-6.777-1.013c-1.607,0.187-3.124,0.814-4.612,1.445 c-3.711,1.573-8.507,3.821-9.522,7.607L9.294,35.592c1.22,2.943,4.069,5.677,7.017,6.927c2.948,1.25,6.197,1.635,9.401,1.735 c1.141,0.036,2.287,0.036,3.419-0.112c5.406-0.709,9.779-4.688,13.169-8.927c0.803-1.005,1.58-2.044,2.126-3.207 C45.371,30,45.479,27.721,45.39,25.505z"/><path fill="#f58420" d="M45.38,24.04H24.92V3.5c1.85,0.03,3.69,0.55,5.48,1.06c2.17,0.63,4.39,1.28,6.24,2.58 c1,0.71,1.86,1.59,2.65,2.52C42.72,13.69,44.87,18.78,45.38,24.04z"/><path fill="#d03827" d="M2.642,24.195c-0.085-2.568-0.088-5.102-0.011-7.67c0.021-0.714,0.059-1.458,0.411-2.081 c0.556-0.986,1.748-1.42,2.866-1.624c4.971-0.907,10.11,1.191,15.098,0.382c1.001-0.162,2.124-0.416,2.955,0.162 c0.724,0.503,0.945,1.458,1.068,2.328c0.344,2.455,0.345,4.943,0.344,7.422c-0.001,2.508-0.002,6.022-0.279,8.514 c-0.122,1.097-0.363,2.302-1.25,2.966c-0.632,0.473-1.464,0.567-2.251,0.644c-3.438,0.337-6.876-0.325-10.313,0.012 c-2.158,0.212-4.473,0.393-6.365-0.662c-0.349-0.195-0.684-0.436-0.902-0.769c-0.191-0.291-0.282-0.633-0.366-0.97 C2.937,30.01,2.739,27.119,2.642,24.195z"/><path fill="#f26322" d="M16.247,13.284c1.59,0.314,6.156-0.456,7.134,0c0.978,0.456,1.862,2.009,1.862,2.009L24.607,3.717 c0,0-1.101-0.99-6.251,1.559s-7.563,4.05-8.606,7.082C9.489,12.603,14.656,12.97,16.247,13.284z"/><path fill="#d6e5e5" d="M17.72,18.16c-0.72-0.53-1.65-0.71-2.54-0.81c-2.12-0.25-4.27-0.17-6.36,0.24 C9,19.82,8.94,24.5,8.98,27.78c0.01,0.9,0.03,1.82,0.32,2.67h2.92c0.01-1.13,0.02-2.26,0.03-3.39c0.01-0.14,0.01-0.3,0.11-0.4 c0.06-0.06,0.15-0.09,0.23-0.12c0.99-0.3,2.03-0.3,3.05-0.45c1.02-0.15,2.08-0.48,2.73-1.28c0.52-0.64,0.7-1.47,0.78-2.28 C19.31,20.93,19.01,19.12,17.72,18.16z M15.64,21.91c-0.2,0.54-0.7,0.92-1.25,1.09c-0.54,0.18-1.13,0.17-1.7,0.1 c-0.1-0.01-0.22-0.03-0.28-0.11c-0.05-0.06-0.05-0.14-0.05-0.22c-0.05-0.93,0.11-1.82,0.07-2.75c0.52,0.04,1.26,0.11,1.79,0.15 c0.33,0.02,0.68,0.05,0.96,0.22C15.67,20.69,15.84,21.37,15.64,21.91z"/><path fill="#010101" d="M25.511,15.559c-0.162-1.11-0.523-2.297-1.622-2.806c-1.183-0.549-2.557-0.055-3.778,0.065 c-2.987,0.291-5.961-0.32-8.924-0.598c-1.654-0.155-3.318-0.201-4.966,0.045c-1.249,0.187-2.625,0.569-3.415,1.634 c-0.927,1.25-0.698,3.145-0.718,4.61c-0.026,1.896-0.006,3.792,0.055,5.687c0.053,1.573,0.134,3.146,0.31,4.71 c0.168,1.488,0.356,3.052,0.82,4.481c0.86,2.644,4.717,2.633,6.951,2.46c1.558-0.121,3.087-0.221,4.652-0.168 c1.559,0.052,3.116,0.168,4.677,0.159c1.319-0.008,2.906,0.028,4.123-0.563c1.085-0.526,1.588-1.641,1.795-2.773 c0.471-2.572,0.39-5.291,0.4-7.896C25.882,21.592,25.947,18.548,25.511,15.559z M24.734,29.947 c-0.065,1.053-0.087,2.195-0.461,3.193c-0.521,1.39-1.847,1.542-3.161,1.638c-2.798,0.205-5.595-0.196-8.395-0.117 c-1.437,0.041-2.86,0.277-4.3,0.248c-1.227-0.025-3.205-0.219-3.975-1.343c-0.408-0.596-0.486-1.538-0.622-2.236 c-0.156-0.803-0.277-1.613-0.369-2.427c-0.177-1.564-0.257-3.137-0.31-4.71c-0.047-1.484-0.071-2.968-0.065-4.452 c0.005-1.361-0.088-2.811,0.118-4.16c0.413-2.702,4.37-2.562,6.412-2.475c2.652,0.112,5.266,0.646,7.917,0.761 c1.277,0.055,2.542-0.01,3.804-0.217c1.2-0.196,2.488-0.347,2.97,1.037c0.419,1.203,0.43,2.606,0.496,3.865 c0.073,1.398,0.078,2.799,0.079,4.199C24.873,25.151,24.881,27.553,24.734,29.947z"/><path fill="#010101" d="M19.288,19.472c-0.66-1.642-2.088-2.353-3.771-2.583c-2.272-0.311-4.58-0.204-6.829,0.223 c-0.029,0.005-0.046,0.021-0.071,0.029c-0.012,0.004-0.023,0.01-0.035,0.014c-0.044,0.019-0.085,0.04-0.117,0.068 c-0.018,0.015-0.03,0.035-0.046,0.053c-0.019,0.025-0.039,0.048-0.052,0.076c-0.017,0.035-0.024,0.076-0.032,0.118 c-0.002,0.016-0.006,0.032-0.006,0.048c-0.002,0.026-0.012,0.046-0.01,0.075c0.151,1.987,0.131,3.991,0.139,5.982 c0.005,1.103,0.006,2.206,0.015,3.309c0.01,1.239-0.031,2.504,0.344,3.698c0.066,0.211,0.257,0.367,0.482,0.367 c0.975-0.001,1.95-0.003,2.924-0.004c0.272,0,0.498-0.229,0.5-0.5c0.009-1.046,0.051-2.097,0.027-3.142 c-0.008-0.341-0.036-0.286,0.291-0.366c0.228-0.056,0.458-0.098,0.69-0.132c0.525-0.077,1.055-0.109,1.581-0.172 c1.631-0.195,3.279-0.747,3.953-2.386C19.856,22.815,19.867,20.911,19.288,19.472z M18.636,22.664 c-0.138,1.138-0.588,2.094-1.684,2.568c-1,0.433-2.113,0.427-3.176,0.565c-0.753,0.098-1.849,0.138-2.006,1.053 c-0.091,0.53-0.023,1.125-0.028,1.662c-0.004,0.478-0.008,0.956-0.012,1.434c-0.677,0.001-1.353,0.002-2.03,0.003 c-0.252-1.058-0.218-2.168-0.226-3.25c-0.008-1.108-0.009-2.215-0.014-3.323c-0.008-1.787,0-3.583-0.114-5.368 c2.177-0.38,4.584-0.512,6.733-0.012c1.047,0.243,1.869,0.807,2.279,1.822C18.716,20.708,18.75,21.723,18.636,22.664z"/><path fill="#010101" d="M15.17,19.836c-0.439-0.174-0.939-0.166-1.405-0.204c-0.446-0.037-0.891-0.077-1.337-0.11 c-0.15-0.011-0.289,0.075-0.385,0.195c-0.071,0.084-0.121,0.186-0.115,0.305c0.042,0.938-0.154,1.881-0.067,2.817 c0.026,0.281,0.144,0.52,0.4,0.657c0.233,0.124,0.54,0.124,0.798,0.14c0.469,0.029,0.956,0.002,1.408-0.132 c0.771-0.228,1.522-0.812,1.706-1.63C16.359,21.039,15.983,20.158,15.17,19.836z M12.714,22.606c-0.005,0-0.007,0-0.009,0.001 c-0.006-0.004-0.005-0.005-0.017-0.011C12.701,22.603,12.706,22.603,12.714,22.606z M15.164,21.755 c-0.004,0.013-0.003,0.011-0.002,0.013c-0.004,0.008-0.005,0.008-0.013,0.023c-0.015,0.029-0.029,0.057-0.046,0.086 c-0.016,0.028-0.033,0.056-0.051,0.083c-0.005,0.008-0.044,0.058-0.052,0.069c-0.043,0.05-0.089,0.099-0.137,0.144 c-0.03,0.028-0.06,0.055-0.092,0.081c0.017-0.014,0.066-0.045-0.016,0.011c-0.061,0.042-0.123,0.082-0.188,0.119 c-0.036,0.02-0.072,0.04-0.109,0.058c-0.009,0.005-0.054,0.024-0.075,0.033c-0.327,0.126-0.615,0.166-0.957,0.169 c-0.185,0.002-0.369-0.008-0.553-0.024c-0.007-0.001-0.014-0.001-0.021-0.002c-0.019-0.686,0.058-1.37,0.075-2.056 c0.496,0.038,0.993,0.074,1.487,0.121c0.095,0.009,0.06,0.002,0.172,0.023c0.073,0.014,0.143,0.033,0.214,0.055 c0.05,0.015,0.084,0.037,0.168,0.087c0.002,0.001,0.004,0.004,0.006,0.005c0.03,0.028,0.058,0.057,0.087,0.087 c0.005,0.005,0.001,0.001,0.005,0.005c0.019,0.029,0.038,0.057,0.055,0.087c0.015,0.027,0.029,0.055,0.043,0.083 c0.002,0.006,0.002,0.007,0.005,0.016c0.016,0.057,0.031,0.113,0.045,0.17c0.003,0.01,0.003,0.008,0.005,0.015 c0,0.003-0.001,0-0.001,0.005c0,0.044,0.005,0.089,0.005,0.133c0,0.035-0.003,0.07-0.005,0.105c0,0.002,0,0.002-0.001,0.004 C15.203,21.629,15.186,21.692,15.164,21.755z M15.219,21.551C15.223,21.526,15.23,21.497,15.219,21.551L15.219,21.551z"/><path fill="#010101" d="M8.862,35.845c1.282,3.007,3.889,5.575,6.844,6.949c3.392,1.577,7.287,1.962,10.986,1.98 c3.454,0.017,6.627-0.986,9.472-2.941c2.711-1.862,4.993-4.303,6.99-6.9c1.132-1.473,2.053-3.044,2.445-4.878 c0.376-1.76,0.374-3.595,0.245-5.383c-0.246-3.416-1.131-6.769-2.615-9.856c-1.456-3.03-3.559-6.147-6.338-8.109 c-1.466-1.035-3.179-1.667-4.882-2.191c-1.85-0.57-3.733-1.151-5.657-1.408c-2.164-0.289-4.171,0.084-6.19,0.876 c-1.598,0.627-3.187,1.316-4.714,2.102C12.762,7.47,9.876,9.401,9.007,12.47c-0.176,0.62,0.789,0.885,0.964,0.266 c0.728-2.572,3.119-4.23,5.347-5.45c1.18-0.646,2.406-1.201,3.642-1.73c1.638-0.701,3.336-1.434,5.136-1.548 c1.867-0.119,3.701,0.339,5.484,0.841c1.659,0.467,3.35,0.918,4.918,1.645c3.043,1.41,5.231,4.147,6.89,6.99 c1.607,2.753,2.68,5.797,3.193,8.942c0.525,3.218,0.729,6.994-0.897,9.936c-0.807,1.461-1.909,2.766-3.007,4.016 c-1.007,1.147-2.081,2.238-3.245,3.228c-2.305,1.961-5.027,3.516-8.047,3.998c-1.99,0.317-4.082,0.187-6.081,0.013 c-1.967-0.171-3.929-0.516-5.797-1.169c-3.394-1.185-6.363-3.777-7.784-7.108C9.474,34.75,8.612,35.259,8.862,35.845L8.862,35.845z"/><path fill="#010101" d="M25.373,24.989c6.641-0.042,13.28-0.227,19.921-0.269c0.643-0.004,0.645-1.004,0-1 c-6.641,0.042-13.28,0.227-19.921,0.269C24.729,23.993,24.728,24.993,25.373,24.989L25.373,24.989z"/><path fill="#010101" d="M25.741,17.711c0.044-4.747-0.752-9.472-0.622-14.221c0.018-0.644-0.982-0.643-1,0 c-0.13,4.749,0.666,9.473,0.622,14.221C24.735,18.355,25.735,18.355,25.741,17.711L25.741,17.711z"/></svg>