<?xml version="1.0" standalone="no"?>
<!DOCTYPE svg PUBLIC "-//W3C//DTD SVG 1.1//EN" "http://www.w3.org/Graphics/SVG/1.1/DTD/svg11.dtd" >
<svg xmlns="http://www.w3.org/2000/svg">
<metadata></metadata>
<defs>
<font id="equity_text_abold" horiz-adv-x="1105" >
<font-face units-per-em="2048" ascent="1524" descent="-524" />
<missing-glyph horiz-adv-x="450" />
<glyph unicode="&#xfb01;" horiz-adv-x="1210" d="M14 831v80l129 84v66q0 120 67.5 224t185.5 166t257 62q167 0 267 -71t100 -182q0 -57 -34 -90t-97 -33q-52 0 -90 28t-59 68t-40 80t-47 68t-67 28q-48 0 -84.5 -53.5t-53 -128t-16.5 -154.5v-115h463l117 27h49v-883l119 -30v-72h-527v72l119 30v729h-340v-722l166 -37 v-72h-573v72l118 30v729h-129z" />
<glyph unicode="&#xfb02;" horiz-adv-x="1230" d="M14 831v80l129 84v66q0 120 67.5 224t185.5 166t257 62q152 0 232 -61l147 51h49v-1401l119 -30v-72h-545v72l138 30v1096q-34 6 -60 29.5t-42 53.5t-30 59t-32.5 49t-42.5 20q-48 0 -84.5 -53.5t-53 -128t-16.5 -154.5v-115h248v-127h-248v-722l168 -37v-72h-575v72 l118 30v729h-129z" />
<glyph unicode="&#xfb03;" horiz-adv-x="1853" d="M14 831v80l129 84v66q0 108 62.5 202.5t174 152t243.5 57.5q98 0 175.5 -30.5t121.5 -78.5q156 149 376 149q167 0 267 -71t100 -182q0 -57 -34 -90t-97 -33q-52 0 -90 28t-59 68t-40 80t-47 68t-67 28q-48 0 -84.5 -53.5t-53 -128t-16.5 -154.5v-115h463l117 27h49v-883 l119 -30v-72h-527v72l119 30v729h-340v-722l166 -37v-72h-600v72l145 30v729h-354v-722l160 -37v-72h-567v72l118 30v729h-129zM432 958h354v103q0 47 11 90q-38 10 -64.5 46.5t-39.5 73.5t-40 67t-67 30q-48 0 -84.5 -46.5t-53 -112t-16.5 -136.5v-115z" />
<glyph unicode="&#xfb04;" horiz-adv-x="1873" d="M14 831v80l129 84v66q0 108 62.5 202.5t174 152t243.5 57.5q98 0 175.5 -30.5t121.5 -78.5q156 149 376 149q152 0 232 -61l147 51h49v-1401l119 -30v-72h-545v72l138 30v1096q-34 6 -60 29.5t-42 53.5t-30 59t-32.5 49t-42.5 20q-48 0 -84.5 -53.5t-53 -128 t-16.5 -154.5v-115h248v-127h-248v-722l168 -37v-72h-604v72l147 30v729h-354v-722l160 -37v-72h-567v72l118 30v729h-129zM432 958h354v103q0 47 11 90q-38 10 -64.5 46.5t-39.5 73.5t-40 67t-67 30q-48 0 -84.5 -46.5t-53 -112t-16.5 -136.5v-115z" />
<glyph horiz-adv-x="2048" />
<glyph horiz-adv-x="2048" />
<glyph unicode="&#xd;" horiz-adv-x="2048" />
<glyph unicode=" "  horiz-adv-x="450" />
<glyph unicode="&#x09;" horiz-adv-x="450" />
<glyph unicode="&#xa0;" horiz-adv-x="450" />
<glyph unicode="!" horiz-adv-x="749" d="M209 139q0 69 47.5 118.5t116.5 49.5t118.5 -49.5t49.5 -118.5t-49.5 -116.5t-118.5 -47.5t-116.5 47.5t-47.5 116.5zM211 1503h328l-93 -1032h-143z" />
<glyph unicode="&#x22;" horiz-adv-x="876" d="M145 895l41 481q7 76 36 115t93 25l62 -15q48 -11 62 -61t-13 -125l-164 -449zM512 895l41 481q7 76 36 115t93 25l61 -15q48 -11 62.5 -61t-12.5 -125l-164 -449z" />
<glyph unicode="#" horiz-adv-x="1099" d="M61 295v192h230l61 299h-188v193h227l88 426h133l-88 -426h185l88 426h133l-88 -426h196v-193h-235l-62 -299h195v-192h-236l-96 -473h-133l96 473h-184l-96 -473h-133l96 473h-189zM424 487h184l62 299h-185z" />
<glyph unicode="$" horiz-adv-x="1175" d="M113 10v422h100q42 -158 143 -256q79 -79 195 -98v440q-235 93 -328.5 186t-93.5 248q0 137 116 241.5t306 113.5v204h92v-206q22 -2 42.5 -4.5t41 -7t35 -8t34.5 -9.5t28.5 -9t29 -10t23.5 -8l75 35h47l37 -410h-96q-62 171 -143 244q-66 66 -154 82v-405q10 -5 55 -23 q92 -39 150.5 -72t111.5 -81t78 -111t25 -146q0 -173 -115.5 -272t-304.5 -113v-219h-92v219q-156 10 -266 70l-90 -37h-82zM362 1026q0 -57 45.5 -99.5t143.5 -90.5v372q-84 -2 -136.5 -48.5t-52.5 -133.5zM643 72q79 3 132.5 57t53.5 141q0 65 -44 115t-142 96v-409z" />
<glyph unicode="%" horiz-adv-x="1165" d="M66 25l415 550l326 465l-6 7q-49 -27 -96 -27q-60 0 -101 41l-6 -4q0 -166 -89 -276.5t-206 -110.5q-98 0 -159.5 73.5t-61.5 186.5q0 152 96 264.5t207 112.5q139 0 188 -123q12 -31 52 -50.5t86 -19.5q47 0 96 17.5t84 46.5q63 116 153 116q19 0 34.5 -14t15.5 -39 q0 -60 -90 -119l-431 -585l-397 -584zM274 864q0 -102 74 -102q55 0 104.5 81t49.5 201q0 52 -19.5 80.5t-50.5 28.5q-57 0 -107.5 -92t-50.5 -197zM584 236q0 152 96 264t207 112q94 0 153.5 -64.5t59.5 -176.5q0 -90 -26.5 -166.5t-68.5 -125.5t-93.5 -76.5t-102.5 -27.5 q-100 0 -162.5 73.5t-62.5 187.5zM776 176q0 -49 20 -75.5t52 -26.5q58 0 107 72t49 210q0 52 -19.5 80.5t-50.5 28.5q-57 0 -107.5 -92t-50.5 -197z" />
<glyph unicode="&#x26;" horiz-adv-x="1529" d="M106 391q0 148 68.5 238t231.5 170q-75 78 -116.5 158.5t-41.5 146.5q0 58 70 130t172.5 122.5t187.5 50.5q65 0 134 -44t111 -101t42 -99q0 -91 -64 -164t-178 -141q186 -180 303 -358q78 116 139 241l-125 52v104h398v-104l-144 -52q-104 -198 -207 -340 q58 -100 109 -215q22 -36 66 -36q24 0 46.5 17t63.5 66l78 -59q-47 -90 -121 -144.5t-158 -54.5q-109 0 -163 72q-35 45 -101 139q-218 -211 -422 -211q-99 0 -187 59t-140 155t-52 202zM369 561q0 -90 29 -163t73 -114.5t90 -63t86 -21.5q84 0 191 88q-95 139 -178 244 t-181 198q-110 -64 -110 -168zM483 1151q0 -49 37.5 -99t110.5 -112q90 80 90 178q0 60 -44.5 113t-88.5 53q-40 0 -72.5 -40t-32.5 -93z" />
<glyph unicode="'" horiz-adv-x="509" d="M145 895l41 481q7 76 36 115t93 25l62 -15q48 -11 62 -61t-13 -125l-164 -449z" />
<glyph unicode="(" horiz-adv-x="843" d="M145 539q0 158 43.5 299.5t127.5 263.5t189 224.5t245 203.5l61 -80q-389 -375 -389 -911q0 -292 96.5 -541.5t292.5 -425.5l-59 -70q-607 449 -607 1037z" />
<glyph unicode=")" horiz-adv-x="843" d="M33 -428q196 176 292.5 425.5t96.5 541.5q0 536 -389 911l61 80q140 -101 245 -203.5t188.5 -224.5t127 -263.5t43.5 -299.5q0 -589 -606 -1037z" />
<glyph unicode="*" horiz-adv-x="1083" d="M151 891q-11 61 46 84q22 9 106 39.5t152 58.5q-75 33 -158.5 51t-97.5 23q-49 18 -43 81q5 55 45 91q47 42 94 2q7 -7 36 -34t46.5 -43t52 -43.5t70.5 -53.5q-13 81 -36 157.5t-28 102.5q-9 52 48 77q55 22 109 2q60 -23 50 -79q-2 -13 -30.5 -98t-37.5 -162 q30 21 56 40.5t41.5 32t35.5 30t26.5 23.5t26 25t23.5 23q40 36 93 -3q45 -33 57 -85q13 -63 -44 -85q-1 0 -3 -1q-10 -4 -92 -22t-164 -52q114 -50 258 -94q49 -13 44 -74q-4 -56 -45 -96q-49 -49 -99 -10q-2 2 -5 4q-16 14 -45 46t-66.5 66.5t-90.5 69.5q14 -75 35 -156 t26 -112q11 -49 -45 -74q-53 -24 -106 -6q-58 22 -48 80q4 29 23.5 107t32.5 161q-57 -36 -94.5 -69.5t-65 -66.5t-41.5 -46q-41 -36 -93 3q-45 33 -55 85z" />
<glyph unicode="+" d="M139 410v168h330v329h168v-329h330v-168h-330v-330h-168v330h-330z" />
<glyph unicode="," horiz-adv-x="587" d="M106 158q0 62 45.5 101.5t110.5 39.5q97 0 172.5 -85.5t75.5 -217.5q0 -67 -23 -130t-59 -110t-83.5 -89t-91.5 -69t-89 -47l-58 87q175 115 175 245q0 37 -13 65t-32.5 44t-42 33t-42 32t-32.5 41t-13 60z" />
<glyph unicode="-" horiz-adv-x="643" d="M66 410v211h512v-211h-512z" />
<glyph unicode="." horiz-adv-x="606" d="M127 150q0 74 50.5 126t123.5 52t125.5 -52t52.5 -126q0 -73 -52 -124t-126 -51q-73 0 -123.5 50.5t-50.5 124.5z" />
<glyph unicode="/" horiz-adv-x="839" d="M4 -250l614 1753h218l-615 -1753h-217z" />
<glyph unicode="0" horiz-adv-x="1157" d="M82 612q0 177 39 312.5t108.5 218t160.5 123.5t200 41q105 0 191.5 -41t153 -123t103.5 -217.5t37 -313.5q0 -164 -37 -288t-103.5 -199.5t-153 -112.5t-191.5 -37q-110 0 -200.5 37t-160 112t-108.5 199.5t-39 288.5zM397 614q0 -134 10.5 -232t27.5 -155t43.5 -90.5 t52 -44t59.5 -10.5q41 0 69 20t52.5 74t36.5 163t12 275q0 180 -12 300t-36.5 180t-53 83t-68.5 23q-42 0 -74 -23.5t-60.5 -83.5t-43.5 -181t-15 -298z" />
<glyph unicode="1" horiz-adv-x="882" d="M70 1143v98q266 -11 473 62l57 -52v-1134l201 -31v-86h-692v86l208 31v995q-57 -4 -132 5.5t-115 25.5z" />
<glyph unicode="2" horiz-adv-x="1015" d="M23 66q64 58 132.5 128t149.5 167t143 190t104 195t42 184q0 164 -148 164q-133 0 -282 -215l-86 92q249 336 514 336q148 0 227.5 -78t79.5 -207q0 -80 -54.5 -189t-137 -214t-170 -196t-164.5 -153l12 -28h410l73 149l90 -26l-110 -365h-801z" />
<glyph unicode="3" horiz-adv-x="1011" d="M47 188q0 47 33.5 84t93.5 37q39 0 69 -24t49.5 -58.5t39 -68.5t49 -58t68.5 -24q79 0 137.5 71.5t58.5 204.5q0 54 -18.5 102.5t-47.5 79t-63.5 52.5t-66.5 23t-56 -9l-69 -33l-54 105q138 59 238 144t100 169q0 63 -38.5 97t-106.5 34q-81 0 -161 -50.5t-136 -123.5 l-78 72q30 40 64 77t82.5 78t100 70.5t116 48.5t129.5 19q141 0 223 -65.5t82 -184.5q0 -89 -78 -183.5t-189 -148.5v-20q139 -20 226.5 -114t87.5 -226q0 -81 -30.5 -147.5t-80 -110.5t-114.5 -74.5t-131.5 -44t-133.5 -13.5q-184 0 -289.5 59.5t-105.5 153.5z" />
<glyph unicode="4" horiz-adv-x="1011" d="M35 453l633 850l125 -35v-793h153v-133h-153v-342h-263v342h-448zM209 487l8 -12h313v397l-22 13z" />
<glyph unicode="5" horiz-adv-x="946" d="M39 147q0 51 32.5 87t84.5 36q31 0 59 -17.5t50.5 -42.5t46 -50t55.5 -42.5t69 -17.5q74 0 131.5 69.5t57.5 182.5q0 69 -24 122.5t-64.5 83.5t-88 45t-100.5 15q-88 0 -172 -30l-37 37l58 657h518l53 80h74l-47 -322h-506l-17 -200l21 -17q60 31 145 31q88 0 166 -27.5 t138 -78.5t95 -131.5t35 -180.5q0 -212 -152.5 -336.5t-383.5 -124.5q-134 0 -215.5 44t-81.5 128z" />
<glyph unicode="6" horiz-adv-x="1046" d="M76 489q0 298 202.5 542t544.5 351l25 -100q-162 -69 -283 -194.5t-159 -270.5l32 -16q80 41 183 41q48 0 96 -13.5t96 -45t85 -78t60 -119t23 -160.5q0 -91 -27.5 -167.5t-73.5 -128t-106 -87t-123 -52t-127 -16.5q-200 0 -324 132.5t-124 381.5zM369 401 q0 -161 43 -239t120 -78q168 0 168 311q0 169 -44.5 246.5t-116.5 77.5q-87 0 -140 -74q-30 -82 -30 -244z" />
<glyph unicode="7" horiz-adv-x="915" d="M53 897l101 385h700l39 -74q-130 -252 -239 -562.5t-158 -573.5q-8 -41 -57.5 -69t-125.5 -28q-71 0 -112.5 24.5t-22.5 74.5q85 228 220.5 476.5t285.5 461.5l-14 28h-461l-66 -143h-90z" />
<glyph unicode="8" horiz-adv-x="1044" d="M92 293q0 104 67.5 186.5t162.5 120.5v18q-108 77 -156.5 153.5t-48.5 184.5q0 142 114.5 246.5t294.5 104.5q168 0 276.5 -82t108.5 -211q0 -194 -200 -293v-16q241 -120 241 -355q0 -171 -118 -273t-320 -102q-184 0 -303 85t-119 233zM297 289q0 -95 55 -153t156 -58 q83 0 141 53t58 141q0 51 -25 96.5t-70 81.5t-92 62.5t-108 52.5q-46 -31 -80.5 -112.5t-34.5 -163.5zM360 1022q0 -101 63 -163.5t183 -108.5q88 93 88 258q0 96 -46.5 145t-121.5 49q-74 0 -120 -49t-46 -131z" />
<glyph unicode="9" horiz-adv-x="1046" d="M76 858q0 92 27.5 168t72.5 127t104.5 86.5t122.5 51.5t127 16q196 0 323.5 -145t127.5 -388q0 -161 -54.5 -308t-151.5 -262t-241 -191t-315 -95v84q165 48 270 165t164 304l-32 16q-70 -41 -179 -41q-55 0 -106 13t-99 44.5t-83 77.5t-56.5 117.5t-21.5 159.5zM356 870 q0 -155 39.5 -233t110.5 -78q91 0 158 86q24 105 24 217q0 167 -48 254.5t-128 87.5q-74 0 -115 -84.5t-41 -249.5z" />
<glyph unicode=":" horiz-adv-x="606" d="M127 150q0 74 50.5 126t123.5 52t125.5 -52t52.5 -126q0 -73 -52 -124t-126 -51q-73 0 -123.5 50.5t-50.5 124.5zM127 748q0 74 50.5 126t123.5 52t125.5 -52t52.5 -126q0 -73 -52 -124t-126 -51q-73 0 -123.5 50.5t-50.5 124.5z" />
<glyph unicode=";" horiz-adv-x="669" d="M147 158q0 62 45.5 101.5t110.5 39.5q97 0 172.5 -85.5t75.5 -217.5q0 -67 -23 -130t-59 -110t-83.5 -89t-91.5 -69t-89 -47l-58 87q175 115 175 245q0 37 -13 65t-32.5 44t-42 33t-42 32t-32.5 41t-13 60zM156 748q0 74 50.5 126t123.5 52q74 0 126 -52t52 -126 q0 -73 -52 -124t-126 -51q-73 0 -123.5 50.5t-50.5 124.5z" />
<glyph unicode="&#x3c;" d="M139 430v127l828 348v-178l-570 -233l570 -234v-178z" />
<glyph unicode="=" d="M139 260v168h828v-168h-828zM139 567v168h828v-168h-828z" />
<glyph unicode="&#x3e;" d="M139 82v178l570 234l-570 233v178l828 -348v-127z" />
<glyph unicode="?" horiz-adv-x="897" d="M164 139q0 69 47.5 118.5t116.5 49.5t118.5 -49.5t49.5 -118.5t-49.5 -116.5t-118.5 -47.5t-116.5 47.5t-47.5 116.5zM211 1384q0 60 41 99t129 39q74 0 147 -33.5t131.5 -92t95 -148t36.5 -193.5q0 -99 -35 -173.5t-93.5 -116t-125 -61.5t-138.5 -20v-213h-149v481 q393 0 393 154q0 137 -227 137q-205 0 -205 141z" />
<glyph unicode="@" horiz-adv-x="1773" d="M127 281q0 125 34 256t94 251t147.5 226.5t190 184.5t226 123.5t250.5 45.5q279 0 444.5 -156.5t165.5 -412.5q0 -139 -49 -261t-124 -204t-166 -141.5t-174 -87t-148 -27.5q-25 0 -44.5 5.5t-36 22.5t-21.5 44.5t4.5 74.5t35.5 109l-26 18q-81 -121 -164.5 -199.5 t-149.5 -78.5q-60 0 -92 50t-32 116q0 169 120 383q88 158 197.5 259t212.5 101q61 0 86 -57h14q19 32 41 43.5t84 11.5q87 0 86 -23q0 -5 -2 -10l-205 -651q-6 -24 3.5 -44t23.5 -20q28 0 69 21.5t88.5 68.5t88 111t67.5 160.5t27 204.5q0 55 -11 114t-41 126t-76 118.5 t-124.5 86t-177.5 34.5q-118 0 -232.5 -57t-205.5 -156t-160.5 -225t-107.5 -272t-38 -289q0 -233 104 -358.5t282 -125.5q83 0 179 28.5t165 70.5l47 -87q-83 -48 -189 -80t-207 -32q-274 0 -423.5 153.5t-149.5 432.5zM696 346q0 -67 49 -67t155.5 145.5t174.5 327.5 q9 62 -6.5 96.5t-52.5 34.5q-22 0 -43 -10t-35.5 -20t-38.5 -39t-35 -44t-41 -57q-52 -78 -89.5 -181.5t-37.5 -185.5z" />
<glyph unicode="A" horiz-adv-x="1488" d="M8 0v82l164 51l490 1313h184l479 -1333l156 -31v-82h-664v82l166 31l-125 342h-428l-111 -322l181 -51v-82h-492zM469 563h350l-160 451h-32z" />
<glyph unicode="B" horiz-adv-x="1337" d="M31 0v86l180 31v1212l-180 31v86h721q56 0 115.5 -9.5t125 -35.5t116 -65t83.5 -103.5t33 -145.5q0 -42 -13.5 -85.5t-41 -86.5t-77.5 -77.5t-116 -51.5v-28q137 -28 221 -127.5t84 -245.5q0 -174 -146 -279.5t-391 -105.5h-714zM541 117h161q110 0 170 79.5t60 206.5 q0 129 -70 214t-200 85h-121v-585zM541 819h125q73 0 120.5 37.5t65.5 91t18 121.5q0 139 -59 200.5t-158 61.5h-112v-512z" />
<glyph unicode="C" horiz-adv-x="1458" d="M61 721q0 169 64.5 311t175 237t257.5 148t312 53q114 0 246 -41t244 -104v-330h-90q-41 166 -158.5 266.5t-241.5 100.5q-93 0 -172.5 -38.5t-142 -114t-98 -200.5t-35.5 -286q0 -125 24.5 -230t65.5 -177.5t95.5 -123.5t114.5 -74.5t122 -23.5q156 0 272.5 101 t171.5 260h88v-322q-133 -78 -256.5 -118t-298.5 -40q-161 0 -299 49.5t-241 142.5t-161.5 235.5t-58.5 318.5z" />
<glyph unicode="D" horiz-adv-x="1585" d="M31 0v86l180 31v1212l-180 31v86h712q364 0 572.5 -194t208.5 -535q0 -172 -60 -308.5t-167 -225.5t-253.5 -136t-320.5 -47h-692zM541 109h182q94 0 171.5 34.5t139 105.5t95.5 191t34 279q0 298 -116 458t-306 160h-200v-1228z" />
<glyph unicode="E" horiz-adv-x="1339" d="M31 0v86l180 31v1212l-180 31v86h1145l32 -354h-112l-166 251h-389v-524h266l78 191h90v-512h-90l-78 204h-266v-600h452l207 314h113l-74 -416h-1208z" />
<glyph unicode="F" horiz-adv-x="1275" d="M31 0v86l180 31v1212l-180 31v86h1186l32 -342h-112l-170 239h-426v-524h274l78 211h90v-553h-90l-78 225h-274v-585l188 -31v-86h-698z" />
<glyph unicode="G" horiz-adv-x="1587" d="M61 721q0 168 64 310.5t172.5 237.5t250.5 148t298 53q130 0 265.5 -40.5t248.5 -104.5v-330h-100q-51 170 -160 268.5t-230 98.5q-75 0 -140 -21.5t-122 -70t-98 -121.5t-64.5 -181.5t-23.5 -244.5q0 -134 23 -240.5t63 -178.5t96 -120t120.5 -69t139.5 -21q56 0 112 18 t91 52v440l-182 31v86h676v-86l-164 -31v-512q-77 -31 -140.5 -52t-191 -43t-264.5 -22q-156 0 -290.5 49.5t-234.5 142.5t-157.5 235.5t-57.5 318.5z" />
<glyph unicode="H" horiz-adv-x="1673" d="M31 0v86l180 31v1212l-180 31v86h690v-86l-180 -31v-510h592v510l-181 31v86h690v-86l-180 -31v-1212l180 -31v-86h-690v86l181 31v585h-592v-585l180 -31v-86h-690z" />
<glyph unicode="I" horiz-adv-x="751" d="M31 0v86l180 31v1212l-180 31v86h690v-86l-180 -31v-1212l180 -31v-86h-690z" />
<glyph unicode="J" horiz-adv-x="802" d="M-258 -338q0 71 39 111.5t98 40.5q37 0 73.5 -21t61 -45.5t56 -45.5t59.5 -21q53 0 86 54t33 144v1450l-217 31v86h741v-86l-194 -31v-1233q0 -99 -36 -192.5t-96 -165.5t-135.5 -127t-159 -84t-161.5 -29q-127 0 -187.5 45t-60.5 119z" />
<glyph unicode="K" horiz-adv-x="1552" d="M31 0v86l180 31v1212l-180 31v86h688v-86l-178 -31v-510h32l517 490l-166 51v86h518v-86l-199 -51l-440 -420l557 -770l184 -33v-86h-729v86l156 31l-396 561h-34v-561l178 -31v-86h-688z" />
<glyph unicode="L" horiz-adv-x="1280" d="M31 0v86l180 31v1212l-180 31v86h698v-86l-188 -31v-1227h383l227 322h113l-74 -424h-1159z" />
<glyph unicode="M" horiz-adv-x="1937" d="M25 0v86l174 51l102 1176l-197 45v88h502l338 -926h29l401 926h490v-88l-203 -49l70 -1192l182 -31v-86h-682v86l182 31l-53 940h-27l-452 -1057h-88l-377 1061h-25l-76 -924l177 -51v-86h-467z" />
<glyph unicode="N" horiz-adv-x="1619" d="M31 0v86l182 51v1192l-182 31v86h407l815 -918h29v781l-201 51v86h508v-86l-178 -51v-1321h-102l-938 1063h-29v-914l201 -51v-86h-512z" />
<glyph unicode="O" horiz-adv-x="1628" d="M61 721q0 169 60 311t163 237t240 148t291 53q218 0 388 -89t267 -260t97 -400q0 -181 -60 -325t-163.5 -235t-238.5 -138.5t-290 -47.5t-291 49.5t-239.5 142t-163.5 235.5t-60 319zM432 723q0 -163 30 -286.5t83 -197t121 -109.5t149 -36q65 0 120.5 21t104.5 68 t83 119t53.5 179t19.5 242q0 324 -103.5 481.5t-277.5 157.5q-81 0 -149 -37t-121 -112.5t-83 -200.5t-30 -289z" />
<glyph unicode="P" horiz-adv-x="1234" d="M31 0v86l180 31v1212l-180 31v86h682q72 0 141 -14t135 -45.5t115.5 -78t79.5 -117.5t30 -157q0 -185 -137.5 -295t-374.5 -110h-159v-512l202 -31v-86h-714zM543 735h116q85 0 151.5 82.5t66.5 204.5q0 160 -63.5 233.5t-172.5 73.5h-98v-594z" />
<glyph unicode="Q" horiz-adv-x="1628" d="M61 721q0 169 60 311t163 237t240 148t291 53q218 0 388 -89t267 -260t97 -400q0 -148 -40 -271.5t-112.5 -212.5t-168.5 -148.5t-212 -88.5q26 -22 80.5 -79t96.5 -96.5t108.5 -73.5t134.5 -34q96 0 195 52l45 -93q-35 -22 -58 -34.5t-71.5 -33.5t-108 -31.5 t-127.5 -10.5q-82 0 -159 21t-133 51t-117 79t-101.5 89.5t-97 98t-92.5 89.5q-165 35 -291 127t-201.5 247t-75.5 353zM432 723q0 -163 30 -286.5t83 -197t121 -109.5t149 -36q65 0 120.5 21t104.5 68t83 119t53.5 179t19.5 242q0 324 -103.5 481.5t-277.5 157.5 q-81 0 -149 -37t-121 -112.5t-83 -200.5t-30 -289z" />
<glyph unicode="R" horiz-adv-x="1435" d="M31 0v86l180 31v1212l-180 31v86h700q49 0 99.5 -7t108 -22.5t107 -44.5t91 -69t65 -101t23.5 -135q0 -54 -17 -108t-52 -107.5t-99 -95t-148 -60.5v-22q48 -26 99 -100.5t89.5 -154t93.5 -168t107 -134.5l129 -31v-86h-421q-48 33 -93.5 103.5t-82.5 151t-74.5 159.5 t-83 143t-94.5 88h-37v-528l147 -31v-86h-657zM541 762h84q53 0 96.5 18.5t72 48.5t48.5 69.5t28.5 80.5t8.5 82q0 132 -63.5 200t-162.5 68h-112v-567z" />
<glyph unicode="S" horiz-adv-x="1200" d="M78 14v475h112q45 -171 162 -288q54 -54 126.5 -85.5t148.5 -31.5q103 0 168 61t65 162q0 80 -70.5 150.5t-234.5 136.5q-159 65 -250 126.5t-138.5 147t-47.5 205.5q0 70 34 140t94 127.5t154 93.5t203 36q156 0 332 -63l86 39h51l41 -461h-106q-69 186 -162 275 q-108 100 -232 100q-98 0 -165.5 -53t-67.5 -152q0 -159 354 -285q94 -34 161.5 -73t120.5 -93t79 -127t26 -167q0 -139 -68 -238.5t-181.5 -148t-260.5 -48.5q-84 0 -179 22.5t-163 57.5l-100 -41h-92z" />
<glyph unicode="T" horiz-adv-x="1497" d="M8 1010l94 436h1293l94 -436h-113l-227 338h-236v-1231l189 -31v-86h-707v86l189 31v1231h-236l-227 -338h-113z" />
<glyph unicode="U" horiz-adv-x="1589" d="M31 1360v86h690v-86l-180 -31v-827q0 -164 91.5 -270.5t250.5 -106.5q165 0 274 110.5t109 311.5v762l-179 51v86h472v-86l-166 -51v-777q0 -85 -19 -164t-61.5 -151t-105 -125.5t-156.5 -85t-209 -31.5q-306 0 -468.5 142t-162.5 375v837z" />
<glyph unicode="V" horiz-adv-x="1488" d="M8 1364v82h666v-82l-166 -31l313 -854h33l326 834l-183 51v82h484v-82l-162 -51l-512 -1313h-145l-498 1333z" />
<glyph unicode="W" horiz-adv-x="1959" d="M8 1364v82h610v-82l-122 -31l229 -796h33l151 495l-90 301l-117 31v82h629v-82l-186 -31l229 -796h39l256 776l-184 51v82h467v-82l-154 -51l-426 -1313h-153l-248 827l-254 -827h-154l-399 1333z" />
<glyph unicode="X" horiz-adv-x="1429" d="M8 0v86l191 51l383 516l-400 676l-174 31v86h719v-86l-197 -31l244 -414l291 394l-184 51v86h540v-86l-200 -51l-377 -512l403 -680l174 -31v-86h-719v86l197 31l-248 418l-291 -398l189 -51v-86h-541z" />
<glyph unicode="Y" horiz-adv-x="1366" d="M8 1360v86h654v-86l-166 -31l276 -530h29l268 510l-190 51v86h479v-86l-156 -51l-344 -658v-534l180 -31v-86h-690v86l180 31v534l-364 678z" />
<glyph unicode="Z" horiz-adv-x="1300" d="M41 51l790 1256l-14 30h-434l-227 -315h-113l96 424h1092l22 -39l-807 -1272l13 -26h479l229 315h113l-94 -424h-1120z" />
<glyph unicode="[" horiz-adv-x="808" d="M158 -477v1986q119 -11 295.5 -11t253.5 13v-131q-61 -10 -152 -10t-135 10v-1720q37 9 137.5 9t161.5 -9v-139q-91 12 -267 13t-294 -11z" />
<glyph unicode="\" horiz-adv-x="839" d="M4 1503h217l615 -1753h-218z" />
<glyph unicode="]" horiz-adv-x="808" d="M90 -340q62 9 162 9t137 -9v1720q-44 -10 -134.5 -10t-152.5 10v131q77 -13 253.5 -13t295.5 11v-1986q-118 12 -294 11t-267 -13v139z" />
<glyph unicode="^" d="M72 643l454 772h56l452 -772l-160 -94l-311 559h-16l-318 -559z" />
<glyph unicode="_" horiz-adv-x="1236" d="M-6 -389h1249v-129h-1249v129z" />
<glyph unicode="`" horiz-adv-x="1024" d="M236 1311v41h253l177 -316v-37h-146z" />
<glyph unicode="a" horiz-adv-x="976" d="M59 238q0 78 49 131t160 100l271 115v82q0 90 -30.5 136t-86.5 46q-27 0 -58 -11t-51 -28q19 -69 19 -129q0 -51 -35.5 -82t-93.5 -31q-59 0 -93 35t-34 88q0 51 20.5 83.5t67.5 62.5q85 52 189.5 100.5t162.5 48.5q144 0 220.5 -78.5t76.5 -208.5v-491q0 -88 43 -88 q46 0 66 84l69 -29q-63 -199 -227 -199q-86 0 -133 36.5t-66 113.5h-20q-60 -74 -136.5 -112t-144.5 -38q-55 0 -104 45.5t-75 105.5t-26 112zM338 305q0 -65 26.5 -112.5t63.5 -47.5q34 0 72.5 37.5t38.5 83.5v226l-86 -43q-115 -58 -115 -144z" />
<glyph unicode="b" horiz-adv-x="1056" d="M-16 1364v53l368 86h49v-620l17 -13q141 115 258 115q51 0 96.5 -13.5t89.5 -46.5t75.5 -83t51 -129.5t19.5 -180.5q0 -142 -42 -252t-114 -175t-160 -97.5t-188 -32.5q-150 0 -259 58t-132 149v1102zM401 217q0 -69 32 -105t81 -36q98 0 143 98.5t45 317.5 q0 156 -47.5 235.5t-128.5 79.5q-78 0 -125 -68v-522z" />
<glyph unicode="c" horiz-adv-x="929" d="M49 463q0 121 37.5 220.5t103.5 165t153.5 101t188.5 35.5q162 0 256.5 -72t95.5 -174q0 -61 -38.5 -101t-100.5 -40q-48 0 -79.5 21.5t-44 54.5t-23 70.5t-17.5 70.5t-25.5 54.5t-47.5 21.5q-72 0 -123 -96t-51 -275q0 -346 254 -346q165 0 266 150l59 -41 q-64 -144 -179.5 -226t-274.5 -82q-180 0 -295 132.5t-115 355.5z" />
<glyph unicode="d" horiz-adv-x="1110" d="M49 467q0 118 41.5 217t110.5 164t156 101t180 36q73 0 145 -33v332l-135 80v53l375 86h49v-1333l114 -78v-55l-303 -62h-49l-51 109h-18q-44 -53 -109.5 -81t-132.5 -28q-63 0 -127 30.5t-120 88.5t-91 155.5t-35 217.5zM356 537q0 -86 12.5 -152.5t32.5 -107t48 -66 t56.5 -35.5t61.5 -10q68 0 115 43v604q-42 70 -131 70q-34 0 -66 -17t-62 -54.5t-48.5 -108.5t-18.5 -166z" />
<glyph unicode="e" horiz-adv-x="948" d="M49 461q0 232 134.5 378t340.5 146q92 0 165.5 -33t118.5 -88t69 -121.5t24 -138.5q0 -20 -0.5 -29.5t-4 -21.5t-11.5 -16.5t-21 -4.5h-528v-40q0 -318 252 -318q159 0 266 150l64 -43q-28 -59 -65 -108.5t-91 -96.5t-129 -74t-164 -27q-184 0 -302 133.5t-118 352.5z M342 625h207q17 0 27.5 12.5t15 37t5.5 43.5t1 48q0 31 -6.5 56.5t-29.5 47t-60 21.5q-61 0 -104 -64.5t-56 -201.5z" />
<glyph unicode="f" horiz-adv-x="684" d="M14 831v80l129 84v66q0 120 67.5 224t185.5 166t257 62q133 0 204 -53.5t71 -138.5q0 -55 -36 -89t-95 -34q-43 0 -72 21.5t-44 53t-26.5 62.5t-28 52.5t-40.5 21.5q-48 0 -84.5 -53.5t-53 -128t-16.5 -154.5v-115h238v-127h-238v-722l156 -37v-72h-563v72l118 30v729 h-129z" />
<glyph unicode="g" horiz-adv-x="983" d="M47 639q0 142 105.5 240t287.5 98q149 0 260 -86l279 16v-159l-174 12q24 -50 24 -127q0 -161 -109 -254.5t-276 -93.5q-57 0 -84 10q-20 -4 -33.5 -28t-13.5 -42q0 -28 24 -45.5t71 -17.5h307q241 0 241 -242q0 -128 -83.5 -230t-218 -156t-289.5 -54 q-147 0 -229.5 56.5t-82.5 144.5q0 126 135 215v26q-22 21 -40.5 42t-33.5 45t-22.5 46.5t-5.5 45.5t16 42l119 160v35q-174 96 -174 301zM248 -211q0 -151 258 -151q120 0 204.5 45t84.5 131q0 39 -28.5 61.5t-82.5 22.5h-352q-40 -11 -62 -39.5t-22 -69.5zM330 623 q0 -106 14 -165t36 -77.5t58 -18.5q109 0 109 267q0 134 -30.5 198t-78.5 64q-108 0 -108 -268z" />
<glyph unicode="h" horiz-adv-x="1138" d="M14 1364v53l369 86h49v-620l17 -13q153 115 284 115q112 0 187 -79.5t75 -233.5v-570l119 -30v-72h-502v72l95 30v539q0 96 -30.5 138t-92.5 42q-44 0 -86 -20t-66 -49v-650l107 -30v-72h-514v72l118 30v1182z" />
<glyph unicode="i" horiz-adv-x="587" d="M20 846v53l369 86h49v-883l119 -30v-72h-526v72l119 30v666zM111 1321q0 73 53.5 127.5t124.5 54.5q73 0 127.5 -54.5t54.5 -127.5q0 -71 -54.5 -124.5t-127.5 -53.5q-71 0 -124.5 53.5t-53.5 124.5z" />
<glyph unicode="j" horiz-adv-x="567" d="M-37 -444q99 83 143 189.5t44 248.5v774l-130 78v53l369 86h49v-958q0 -187 -110.5 -328.5t-321.5 -212.5zM111 1321q0 73 53.5 127.5t124.5 54.5q73 0 127.5 -54.5t54.5 -127.5q0 -71 -54.5 -124.5t-127.5 -53.5q-71 0 -124.5 53.5t-53.5 124.5z" />
<glyph unicode="k" horiz-adv-x="1093" d="M14 1364v53l369 86h49v-948h33l246 244v24l-84 56v79h399v-79l-166 -76l-215 -207l352 -494l88 -30v-72h-495v72l94 28l-219 334h-33v-332l86 -30v-72h-493v72l118 30v1182z" />
<glyph unicode="l" horiz-adv-x="587" d="M20 1364v53l369 86h49v-1401l119 -30v-72h-526v72l119 30v1182z" />
<glyph unicode="m" horiz-adv-x="1669" d="M14 846v53l363 86h49l12 -102l17 -13q74 58 133 86.5t119 28.5q168 0 237 -143q184 143 311 143q120 0 195.5 -79t75.5 -234v-570l119 -30v-72h-492v72l84 30v570q0 85 -25.5 120t-83.5 35q-67 0 -155 -75q6 -40 6 -84v-566l102 -30v-72h-481v72l90 30v549 q0 96 -27.5 136t-84.5 40q-42 0 -81 -22t-65 -53v-650l96 -30v-72h-503v72l118 30v666z" />
<glyph unicode="n" horiz-adv-x="1138" d="M14 846v53l363 86h49l12 -102l17 -13q84 61 142.5 88t125.5 27q114 0 193 -80t79 -233v-570l119 -30v-72h-502v72l95 30v529q0 105 -32 147.5t-102 42.5q-77 0 -141 -76v-643l107 -30v-72h-514v72l118 30v666z" />
<glyph unicode="o" horiz-adv-x="1050" d="M49 479q0 125 37.5 223.5t103.5 159t151.5 92t184.5 31.5t184 -31.5t150.5 -92t103 -159t37.5 -223.5q0 -127 -37.5 -225.5t-103 -158.5t-150 -90t-184.5 -30q-99 0 -184.5 31t-151.5 91.5t-103.5 158.5t-37.5 223zM356 481q0 -208 47.5 -306.5t122.5 -98.5q29 0 53 10.5 t46.5 38t37.5 72t24 116.5t9 168q0 404 -170 404t-170 -404z" />
<glyph unicode="p" horiz-adv-x="1110" d="M14 846v53l363 86h49l12 -102l23 -13q138 115 256 115q45 0 88 -11t91 -43t83.5 -82.5t58.5 -137t23 -197.5q0 -131 -40.5 -236t-108 -170t-150.5 -99t-174 -34q-88 0 -156 31v-395l168 -31v-72h-575v72l118 31v1157zM432 166q21 -42 61 -67t82 -25q33 0 64.5 19.5 t61.5 61.5t48.5 122t18.5 188q0 164 -60.5 257t-132.5 93q-81 0 -143 -80v-569z" />
<glyph unicode="q" horiz-adv-x="1067" d="M49 467q0 118 40 217t106 164t150 101t173 36q88 0 201 -33q28 -8 56 -8q61 0 122 41l72 -22v-1352l114 -31v-72h-561v72l158 31v438h-21q-114 -74 -223 -74q-54 0 -105.5 14.5t-103.5 50.5t-91 90.5t-63 141t-24 195.5zM350 516q0 -181 66.5 -280t165.5 -99q53 0 98 35 v578q-16 68 -59.5 104.5t-94.5 36.5q-30 0 -59 -19.5t-56.5 -60.5t-44 -117.5t-16.5 -177.5z" />
<glyph unicode="r" horiz-adv-x="837" d="M14 846v53l344 86h48l34 -145l19 -9q45 80 87 117t109 37q70 0 118 -47.5t48 -142.5q0 -86 -38.5 -132.5t-94.5 -46.5q-68 0 -102 48q-23 32 -23 78q0 23 6 49l-28 14q-66 -56 -109 -150v-553l158 -30v-72h-565v72l118 30v666z" />
<glyph unicode="s" horiz-adv-x="858" d="M78 -12v360h78q10 -38 26 -76.5t41.5 -77.5t55 -69t68.5 -49t81 -19q58 0 95.5 32t37.5 87q0 64 -52 112.5t-177 104.5q-46 21 -74 35.5t-66.5 41.5t-60 54t-37.5 68.5t-16 89.5q0 126 100 214.5t268 88.5q125 0 205 -41l51 31h62v-320h-70q-9 39 -31 80.5t-53 79t-75 62 t-91 24.5q-53 0 -81.5 -31t-28.5 -77q0 -64 49 -112t182 -103q49 -20 86 -42.5t74 -56t57.5 -81t20.5 -105.5q0 -78 -32.5 -140.5t-87 -100.5t-121.5 -57.5t-140 -19.5q-155 0 -248 52l-31 -39h-65z" />
<glyph unicode="t" horiz-adv-x="690" d="M25 831v97l155 106l103 176h135v-252h246v-127h-246v-565q0 -81 33.5 -118t85.5 -37q45 0 110 28l35 -65q-127 -99 -276 -99q-135 0 -206 73t-71 210v573h-104z" />
<glyph unicode="u" horiz-adv-x="1134" d="M14 870v78l418 37v-684q0 -178 133 -178q99 0 142 88v616l-129 43v78l417 37v-838l115 -67v-53l-285 -52h-37l-38 127l-17 7q-50 -67 -126 -100.5t-156 -33.5q-60 0 -114 19t-98 56t-70 99t-26 140v538z" />
<glyph unicode="v" horiz-adv-x="1075" d="M8 887v71h543v-71l-139 -31l198 -498h21l196 484l-127 45v71h367v-71l-113 -45l-356 -867h-102l-398 881z" />
<glyph unicode="w" horiz-adv-x="1480" d="M8 887v71h492v-71l-105 -31l162 -459h21l114 312l-41 147l-94 31v71h485v-71l-120 -31l149 -459h21l133 445l-121 45v71h369v-71l-121 -45l-295 -867h-105l-204 555h-21l-199 -555h-104l-326 881z" />
<glyph unicode="x" horiz-adv-x="1050" d="M16 0v72l127 45l263 305l-277 434l-113 31v71h553v-71l-127 -31l144 -225l180 211l-96 45v71h364v-71l-131 -45l-258 -303l277 -437l112 -30v-72h-553v72l127 30l-143 226l-180 -211l96 -45v-72h-365z" />
<glyph unicode="y" horiz-adv-x="1052" d="M8 -365q0 54 36.5 94t86.5 40q39 0 83.5 -29t72.5 -29q98 0 168 275l-351 870l-96 31v71h508v-71l-117 -31l195 -496h20l179 482l-140 45v71h391v-71l-126 -45l-392 -1028q-64 -171 -148 -248.5t-204 -77.5q-72 0 -119 43.5t-47 103.5z" />
<glyph unicode="z" horiz-adv-x="958" d="M43 72l510 768l-14 30h-27q-152 -4 -231.5 -57t-159.5 -199l-76 21l96 323h744l22 -59l-526 -780l12 -27l105 4q82 4 137 19t95.5 50.5t67 81.5t58.5 124l70 -15l-66 -356h-792z" />
<glyph unicode="{" horiz-adv-x="972" d="M98 502v114q128 0 215.5 81t87.5 190q0 67 -42 180.5t-42 177.5q0 146 120.5 206t412.5 60v-116q-120 0 -183 -33.5t-63 -118.5q0 -76 36 -197.5t36 -168.5q0 -110 -101 -189.5t-249 -107.5v-33q143 -16 246.5 -104.5t103.5 -215.5q0 -53 -36 -185.5t-36 -209.5 q0 -87 57.5 -134.5t200.5 -47.5v-117q-131 0 -226 13t-157 36.5t-99 61.5t-52 82.5t-15 105.5q0 72 44 200.5t44 190.5q0 133 -84 206t-219 73z" />
<glyph unicode="|" d="M457 -471v2007h192v-2007h-192z" />
<glyph unicode="}" horiz-adv-x="972" d="M111 -350q143 0 200.5 47.5t57.5 134.5q0 77 -36 209.5t-36 185.5q0 127 103.5 215.5t246.5 104.5v33q-148 28 -249 107.5t-101 189.5q0 47 36 168.5t36 197.5q0 85 -63 118.5t-183 33.5v116q292 0 412 -60t120 -206q0 -64 -42 -177.5t-42 -180.5q0 -109 87.5 -190 t215.5 -81v-114q-135 0 -219 -73t-84 -206q0 -62 44 -190.5t44 -200.5q0 -61 -14.5 -105.5t-51.5 -82.5t-99 -61.5t-157 -36.5t-226 -13v117z" />
<glyph unicode="~" d="M72 418q36 121 125.5 243.5t144.5 122.5q41 0 103.5 -25.5t116.5 -56t116 -56t102 -25.5q50 0 104 51t77 112l73 -28q-42 -142 -129.5 -252.5t-165.5 -110.5q-47 0 -215 81t-215 81q-24 0 -45.5 -12.5t-42 -41.5t-33 -50.5t-34.5 -65.5z" />
<glyph unicode="&#xa1;" horiz-adv-x="749" d="M209 813q0 69 49.5 116.5t118.5 47.5t116.5 -47.5t47.5 -116.5t-47.5 -118.5t-116.5 -49.5t-118.5 49.5t-49.5 118.5zM211 -551l92 1032h143l93 -1032h-328z" />
<glyph unicode="&#xa2;" horiz-adv-x="931" d="M68 629q0 178 104.5 301.5t265.5 148.5v203h78v-197q149 -1 235.5 -64t86.5 -151q0 -53 -33 -87.5t-88 -34.5q-39 0 -63 23t-36 57.5t-22 69.5t-29.5 64t-50.5 37v-634q15 -3 33 -3q87 0 154 40t110 102l51 -37q-51 -114 -139 -184t-209 -82v-201h-78v199 q-158 11 -264 128t-106 302zM307 668q0 -225 131 -285v608q-59 -25 -95 -107.5t-36 -215.5z" />
<glyph unicode="&#xa3;" horiz-adv-x="1173" d="M102 39q0 55 60.5 102.5t165.5 65.5q55 88 55 231q0 84 -51 207h-193v88h156q-64 155 -64 234q0 85 34 152t91 107t125.5 60.5t143.5 20.5q156 0 244.5 -67t88.5 -148q0 -50 -34 -79.5t-78 -29.5q-51 0 -82.5 26t-44.5 63t-23.5 74t-31.5 63t-58 26q-46 0 -77 -52 t-31 -141q0 -42 10 -87t20.5 -72.5t32 -78t29.5 -71.5h233v-88h-207q13 -50 13 -96q0 -165 -162 -258l14 -23q45 31 97 31q38 0 73.5 -19t62.5 -46t53.5 -54t57.5 -46t64 -19q32 0 52 17t20 50q0 25 -22 48t-48 39t-48 43.5t-22 60.5q0 36 23.5 62t64.5 26q69 0 115.5 -75 t46.5 -173q0 -112 -82.5 -175t-212.5 -63q-128 0 -243 57t-168 122h-9q-29 -83 -82 -131t-104 -48q-68 0 -68 64z" />
<glyph unicode="&#xa4;" horiz-adv-x="1277" d="M164 941.5q2 20.5 15.5 38.5t32 33t37.5 16.5t32 -9.5l94 -96q120 86 264 86q145 0 258 -80l88 92q21 22 59.5 -0.5t60 -62.5t1.5 -60l-92 -88q78 -115 78 -254q0 -143 -86 -266l98 -94q13 -13 11.5 -34t-15 -39.5t-31.5 -33.5t-37 -16.5t-33 10.5l-102 102 q-114 -82 -258 -82q-141 0 -254 74l-86 -90q-13 -15 -35.5 -13t-42.5 16.5t-36 34t-18.5 40t11.5 35.5l90 88q-82 114 -82 268q0 141 82 260l-92 90q-14 14 -12 34.5zM367 555q0 -126 75.5 -208.5t198.5 -82.5q114 0 190 83t76 208q0 130 -76 211.5t-192 81.5 q-127 0 -199.5 -83t-72.5 -210z" />
<glyph unicode="&#xa5;" horiz-adv-x="1236" d="M20 1206v76h580v-76l-147 -28l245 -469h29l238 452l-172 45v76h424v-76l-146 -45l-297 -583v-9h227v-84h-227v-100h227v-84h-227v-197l160 -28v-76h-612v76l159 28v197h-227v84h227v100h-227v84h227v9l-323 600z" />
<glyph unicode="&#xa6;" d="M457 246h192v-717h-192v717zM457 819v717h192v-717h-192z" />
<glyph unicode="&#xa7;" horiz-adv-x="1218" d="M145 631q0 88 37 162.5t115 152.5q-113 106 -113 223q0 53 26.5 104.5t77 96.5t135.5 72.5t191 27.5q95 0 193.5 -27t173.5 -77v-309h-88q-43 162 -119.5 234.5t-173.5 72.5q-67 0 -108 -39t-41 -98q0 -45 34.5 -89t89 -82.5t121 -78.5t133 -86t121 -97t89 -118.5 t34.5 -143.5q0 -155 -166 -301q129 -114 129 -251q0 -79 -38 -140.5t-101.5 -98t-138 -55t-154.5 -18.5q-93 0 -202 28t-195 77v309h88q46 -162 131 -234.5t190 -72.5q73 0 119.5 36t46.5 101q0 46 -35 91.5t-91.5 84.5t-124 80.5t-135.5 89.5t-124.5 100.5t-91.5 123 t-35 149.5zM352 723q0 -26 8.5 -52t29 -53t40 -49.5t58 -52.5t65 -49.5t78 -52.5t81 -51t89.5 -54q37 57 37 125q0 32 -7.5 59.5t-28.5 56t-41 49.5t-64.5 54.5t-77.5 57t-101.5 70.5t-116.5 81q-49 -60 -49 -139z" />
<glyph unicode="&#xa8;" horiz-adv-x="1024" d="M176 1180q0 57 42.5 100t98.5 43q59 0 100.5 -42.5t41.5 -100.5q0 -56 -41.5 -98t-100.5 -42q-56 0 -98.5 42.5t-42.5 97.5zM565 1180q0 57 43 100t101 43q53 0 96 -43.5t43 -99.5q0 -55 -43 -97.5t-96 -42.5q-58 0 -101 42t-43 98z" />
<glyph unicode="&#xa9;" horiz-adv-x="1439" d="M90 606q0 169 85 314t230.5 230t315.5 85q133 0 250.5 -50t200 -135t130.5 -201t48 -243q0 -170 -85 -315.5t-230 -230.5t-314 -85q-172 0 -316 79.5t-229.5 225t-85.5 326.5zM211 602q0 -226 143.5 -375t368.5 -149q226 0 366 148.5t140 375.5q0 232 -144.5 383.5 t-363.5 151.5q-222 0 -366 -153t-144 -382zM371 608q0 156 108 252t269 96q122 0 253 -71v-158h-57q-30 87 -78.5 120.5t-117.5 33.5q-84 0 -135.5 -66t-51.5 -205q0 -131 57.5 -200.5t133.5 -69.5q83 0 130 36t74 116h54v-152q-64 -40 -120.5 -60t-135.5 -20 q-161 0 -272 93.5t-111 254.5z" />
<glyph unicode="&#xaa;" horiz-adv-x="815" d="M41 723q0 64 37.5 108t122.5 76l231 88v62q0 141 -88 141q-39 0 -84 -31q14 -54 14 -98q0 -39 -33 -62.5t-87 -23.5q-45 0 -73 27t-28 67q0 41 15.5 66t52.5 49q70 39 158.5 77t136.5 38q121 0 185.5 -60.5t64.5 -163.5v-385q0 -29 7.5 -43t26.5 -14q28 0 41 53l64 -20 q-49 -154 -176 -154q-76 0 -117 28t-59 87h-15q-51 -57 -115.5 -86t-123.5 -29q-63 0 -110.5 69t-47.5 134zM279 778q0 -51 20 -83.5t49 -32.5q26 0 55 29t29 65v168l-65 -33q-88 -43 -88 -113z" />
<glyph unicode="&#xab;" horiz-adv-x="1337" d="M205 444v48l393 448l90 -59l-203 -394v-30l203 -406l-90 -59zM629 444v48l393 448l90 -59l-203 -394v-30l203 -406l-90 -59z" />
<glyph unicode="&#xac;" d="M78 469v172h936v-535h-183v363h-753z" />
<glyph unicode="&#xad;" horiz-adv-x="643" d="M66 410v211h512v-211h-512z" />
<glyph unicode="&#xae;" horiz-adv-x="1040" d="M82 1030q0 180 129 309t309 129q187 0 312.5 -128t125.5 -310q0 -180 -129 -309t-309 -129q-183 0 -310.5 124.5t-127.5 313.5zM172 1028q0 -155 98 -256.5t252 -101.5q144 0 245 103t101 255q0 158 -100.5 259.5t-247.5 101.5q-159 0 -253.5 -102t-94.5 -259zM293 801 v41l55 14v375l-55 14v41h248q24 0 51 -5.5t56 -18.5t48 -39.5t19 -63.5q0 -39 -32.5 -73.5t-78.5 -45.5v-16q23 -13 70.5 -81.5t66.5 -86.5l31 -14v-41h-123q-24 19 -53.5 66t-59 89t-59.5 54h-16v-154l65 -14v-41h-233zM461 1063h43q42 0 63 28t21 64q0 40 -24.5 58 t-57.5 18h-45v-168z" />
<glyph unicode="&#xaf;" horiz-adv-x="1024" d="M231 1092v143h562v-143h-562z" />
<glyph unicode="&#xb0;" horiz-adv-x="751" d="M82 1012q0 121 86.5 208t206.5 87q121 0 208 -86.5t87 -208.5q0 -120 -87 -206.5t-208 -86.5q-120 0 -206.5 86.5t-86.5 206.5zM229 1012q0 -66 40.5 -113t103.5 -47q64 0 105.5 47t41.5 113q0 68 -41.5 116t-105.5 48q-63 0 -103.5 -48t-40.5 -116z" />
<glyph unicode="&#xb1;" d="M139 0v168h828v-168h-828zM139 553v168h330v287h168v-287h330v-168h-330v-287h-168v287h-330z" />
<glyph unicode="&#xb2;" horiz-adv-x="577" d="M12 887q63 55 129 126.5t125.5 169.5t59.5 169q0 90 -80 90q-68 0 -156 -99l-47 52q137 174 283 174q90 0 139 -43.5t49 -114.5q0 -82 -96 -204t-193 -197l6 -17h215l41 82l60 -14l-60 -211h-460z" />
<glyph unicode="&#xb3;" horiz-adv-x="575" d="M27 971q0 27 18 47t51 20q26 0 45.5 -21.5t29.5 -48t29.5 -48t45.5 -21.5q44 0 76 39.5t32 112.5q0 63 -50.5 100.5t-86.5 22.5l-39 -19l-28 68q77 32 130.5 73.5t53.5 85.5q0 34 -21.5 53t-58.5 19q-77 0 -156 -92l-49 45q47 65 116.5 113.5t153.5 48.5q86 0 137.5 -36 t51.5 -101q0 -52 -43 -105.5t-105 -85.5v-10q77 -12 124.5 -62.5t47.5 -119.5q0 -55 -26.5 -98t-70 -67.5t-92.5 -37t-99 -12.5q-101 0 -159 38t-58 99z" />
<glyph unicode="&#xb4;" horiz-adv-x="1024" d="M358 999v37l177 316h253v-41l-284 -312h-146z" />
<glyph unicode="&#xb6;" horiz-adv-x="1218" d="M35 983q0 197 147.5 330t386.5 133h611v-137q-67 0 -103.5 -50t-36.5 -124v-1457h-174v1631h-102v-1631h-174v820q-268 0 -411.5 126.5t-143.5 358.5zM356 979q0 -173 59.5 -268t174.5 -95v693q-107 0 -170.5 -89.5t-63.5 -240.5z" />
<glyph unicode="&#xb7;" horiz-adv-x="606" d="M127 573q0 74 50.5 126.5t123.5 52.5t125.5 -52.5t52.5 -126.5q0 -73 -52 -123.5t-126 -50.5q-73 0 -123.5 50.5t-50.5 123.5z" />
<glyph unicode="&#xb8;" horiz-adv-x="1024" d="M348 -225l127 266h113l-72 -143q94 0 147.5 -36.5t53.5 -111.5q0 -92 -92.5 -161t-221.5 -89l-16 72q81 14 129.5 41t48.5 65q0 42 -40 64t-105 22q-34 0 -62 -4z" />
<glyph unicode="&#xb9;" horiz-adv-x="505" d="M39 1458v74q160 -6 280 35l31 -29v-604l111 -16v-68h-402v68l115 16v508q-30 -4 -71 1.5t-64 14.5z" />
<glyph unicode="&#xba;" horiz-adv-x="864" d="M61 911q0 126 51 217t133.5 135t186.5 44q159 0 265 -105.5t106 -290.5q0 -188 -105 -290.5t-266 -102.5q-78 0 -144 24t-117.5 71.5t-80.5 123.5t-29 174zM322 913q0 -96 8 -161t24 -98t34.5 -45.5t43.5 -12.5q34 0 57 24.5t39.5 97.5t16.5 195q0 126 -16.5 199 t-39.5 95t-57 22q-25 0 -43.5 -13t-34 -46t-24 -97.5t-8.5 -159.5z" />
<glyph unicode="&#xbb;" horiz-adv-x="1337" d="M225 51l203 406v30l-203 394l90 59l394 -448v-48l-394 -452zM649 51l203 406v30l-203 394l90 59l394 -448v-48l-394 -452z" />
<glyph unicode="&#xbc;" horiz-adv-x="1515" d="M172 1200v74q161 -6 281 35l30 -29v-604l111 -17v-67h-401v67l114 17v508q-30 -4 -71 1.5t-64 14.5zM236 -104l493 757l457 723l96 -63l-479 -715l-473 -768zM788 168l349 467l90 -21v-434h84v-84h-84v-178h-156v178h-256zM895 186l4 -6h172v217l-12 9z" />
<glyph unicode="&#xbd;" horiz-adv-x="1515" d="M172 1200v74q161 -6 281 35l30 -29v-604l111 -17v-67h-401v67l114 17v508q-30 -4 -71 1.5t-64 14.5zM236 -104l493 757l457 723l96 -63l-479 -715l-473 -768zM846 -45q45 39 94 90.5t100.5 116.5t85 134.5t33.5 123.5q0 90 -80 90q-68 0 -155 -98l-47 51q137 174 282 174 q90 0 139.5 -43.5t49.5 -114.5q0 -82 -96 -204t-193 -197l6 -17h215l41 82l59 -14l-59 -211h-461z" />
<glyph unicode="&#xbe;" horiz-adv-x="1515" d="M80 713q0 27 18.5 47t51.5 20q26 0 45 -21.5t29.5 -48t29.5 -48t45 -21.5q44 0 76.5 39.5t32.5 112.5q0 62 -50.5 99.5t-87.5 22.5l-39 -18l-28 68q77 32 130.5 73.5t53.5 85.5q0 34 -21.5 53t-58.5 19q-76 0 -155 -92l-50 45q46 64 116.5 113t154.5 49q86 0 137 -36 t51 -101q0 -52 -42.5 -105.5t-104.5 -85.5v-10q77 -12 124.5 -62.5t47.5 -119.5q0 -55 -27 -98t-70.5 -68t-92.5 -37.5t-99 -12.5q-101 0 -159 38.5t-58 99.5zM236 -104l493 757l457 723l96 -63l-479 -715l-473 -768zM788 168l349 467l90 -21v-434h84v-84h-84v-178h-156v178 h-256zM895 186l4 -6h172v217l-12 9z" />
<glyph unicode="&#xbf;" horiz-adv-x="897" d="M106 82q0 99 35 173.5t93.5 116t125 61.5t138.5 20v213h149v-482q-393 0 -393 -153q0 -137 227 -137q205 0 205 -142q0 -60 -41 -98.5t-129 -38.5q-74 0 -147 33.5t-131.5 92t-95 148t-36.5 193.5zM401 997q0 69 49.5 116.5t118.5 47.5t116.5 -47.5t47.5 -116.5 t-47.5 -118.5t-116.5 -49.5t-118.5 49.5t-49.5 118.5z" />
<glyph unicode="&#xc0;" horiz-adv-x="1488" d="M8 0v82l164 51l490 1313h184l479 -1333l156 -31v-82h-664v82l166 31l-125 342h-428l-111 -322l181 -51v-82h-492zM469 563h350l-160 451h-32zM475 1788v41h254l176 -244v-37h-145z" />
<glyph unicode="&#xc1;" horiz-adv-x="1488" d="M8 0v82l164 51l490 1313h184l479 -1333l156 -31v-82h-664v82l166 31l-125 342h-428l-111 -322l181 -51v-82h-492zM469 563h350l-160 451h-32zM618 1548v37l177 244h254v-41l-285 -240h-146z" />
<glyph unicode="&#xc2;" horiz-adv-x="1488" d="M8 0v82l164 51l490 1313h184l479 -1333l156 -31v-82h-664v82l166 31l-125 342h-428l-111 -322l181 -51v-82h-492zM465 1548v37l237 244h119l238 -244v-37h-94l-203 119l-203 -119h-94zM469 563h350l-160 451h-32z" />
<glyph unicode="&#xc3;" horiz-adv-x="1488" d="M8 0v82l164 51l490 1313h184l479 -1333l156 -31v-82h-664v82l166 31l-125 342h-428l-111 -322l181 -51v-82h-492zM428 1604q23 89 84 180.5t98 91.5q43 0 148 -57.5t147 -57.5q32 0 69 40.5t50 80.5l74 -20q-29 -107 -88.5 -192t-112.5 -85q-34 0 -145.5 56.5 t-145.5 56.5q-20 0 -39 -19t-29.5 -39t-29.5 -61zM469 563h350l-160 451h-32z" />
<glyph unicode="&#xc4;" horiz-adv-x="1488" d="M8 0v82l164 51l490 1313h184l479 -1333l156 -31v-82h-664v82l166 31l-125 342h-428l-111 -322l181 -51v-82h-492zM426 1729q0 57 42.5 100t98.5 43q59 0 100.5 -42.5t41.5 -100.5q0 -56 -41.5 -98t-100.5 -42q-56 0 -98.5 42.5t-42.5 97.5zM469 563h350l-160 451h-32z M815 1729q0 57 42.5 100t100.5 43q53 0 96.5 -43.5t43.5 -99.5q0 -55 -43.5 -97.5t-96.5 -42.5q-58 0 -100.5 42t-42.5 98z" />
<glyph unicode="&#xc5;" horiz-adv-x="1488" d="M8 0v82l164 51l490 1313h184l479 -1333l156 -31v-82h-664v82l166 31l-125 342h-428l-111 -322l181 -51v-82h-492zM469 563h350l-160 451h-32zM549 1749q0 89 61.5 151t149.5 62q89 0 151 -62t62 -151q0 -88 -62 -149.5t-151 -61.5q-88 0 -149.5 61.5t-61.5 149.5z M664 1749q0 -44 26 -73t68 -29q45 0 72.5 29t27.5 73q0 45 -27.5 75.5t-72.5 30.5q-42 0 -68 -30.5t-26 -75.5z" />
<glyph unicode="&#xc6;" horiz-adv-x="1978" d="M8 0v82l164 51l678 1196l-180 31v86h1145l32 -354h-112l-166 251h-389v-524h266l78 191h90v-512h-90l-78 204h-266v-600h452l207 314h113l-74 -416h-1208v86l180 31v338h-350l-181 -322l181 -51v-82h-492zM561 563h289v510z" />
<glyph unicode="&#xc7;" horiz-adv-x="1458" d="M61 721q0 169 64.5 311t175 237t257.5 148t312 53q114 0 246 -41t244 -104v-330h-90q-41 166 -158.5 266.5t-241.5 100.5q-93 0 -172.5 -38.5t-142 -114t-98 -200.5t-35.5 -286q0 -125 24.5 -230t65.5 -177.5t95.5 -123.5t114.5 -74.5t122 -23.5q156 0 272.5 101 t171.5 260h88v-322q-123 -73 -238.5 -112.5t-273.5 -43.5l-39 -79q94 0 147.5 -36.5t53.5 -111.5q0 -92 -92 -161t-221 -89l-17 72q81 14 129.5 41t48.5 65q0 42 -40 64t-105 22q-33 0 -61 -4l-11 15l97 202q-149 10 -274.5 64t-219 146t-146.5 229.5t-53 304.5z" />
<glyph unicode="&#xc8;" horiz-adv-x="1339" d="M31 0v86l180 31v1212l-180 31v86h1145l32 -354h-112l-166 251h-389v-524h266l78 191h90v-512h-90l-78 204h-266v-600h452l207 314h113l-74 -416h-1208zM438 1788v41h254l176 -244v-37h-145z" />
<glyph unicode="&#xc9;" horiz-adv-x="1339" d="M31 0v86l180 31v1212l-180 31v86h1145l32 -354h-112l-166 251h-389v-524h266l78 191h90v-512h-90l-78 204h-266v-600h452l207 314h113l-74 -416h-1208zM582 1548v37l176 244h254v-41l-285 -240h-145z" />
<glyph unicode="&#xca;" horiz-adv-x="1339" d="M31 0v86l180 31v1212l-180 31v86h1145l32 -354h-112l-166 251h-389v-524h266l78 191h90v-512h-90l-78 204h-266v-600h452l207 314h113l-74 -416h-1208zM428 1548v37l238 244h118l238 -244v-37h-94l-203 119l-203 -119h-94z" />
<glyph unicode="&#xcb;" horiz-adv-x="1339" d="M31 0v86l180 31v1212l-180 31v86h1145l32 -354h-112l-166 251h-389v-524h266l78 191h90v-512h-90l-78 204h-266v-600h452l207 314h113l-74 -416h-1208zM389 1729q0 57 42.5 100t98.5 43q59 0 100.5 -42.5t41.5 -100.5q0 -56 -41.5 -98t-100.5 -42q-56 0 -98.5 42.5 t-42.5 97.5zM778 1729q0 57 43 100t101 43q53 0 96 -43.5t43 -99.5q0 -55 -43 -97.5t-96 -42.5q-58 0 -101 42t-43 98z" />
<glyph unicode="&#xcc;" horiz-adv-x="751" d="M31 0v86l180 31v1212l-180 31v86h690v-86l-180 -31v-1212l180 -31v-86h-690zM88 1788v41h254l176 -244v-37h-145z" />
<glyph unicode="&#xcd;" horiz-adv-x="751" d="M31 0v86l180 31v1212l-180 31v86h690v-86l-180 -31v-1212l180 -31v-86h-690zM231 1548v37l177 244h254v-41l-285 -240h-146z" />
<glyph unicode="&#xce;" horiz-adv-x="751" d="M31 0v86l180 31v1212l-180 31v86h690v-86l-180 -31v-1212l180 -31v-86h-690zM78 1548v37l237 244h119l238 -244v-37h-94l-203 119l-203 -119h-94z" />
<glyph unicode="&#xcf;" horiz-adv-x="751" d="M31 0v86l180 31v1212l-180 31v86h690v-86l-180 -31v-1212l180 -31v-86h-690zM39 1729q0 57 42.5 100t98.5 43q59 0 100.5 -42.5t41.5 -100.5q0 -56 -41.5 -98t-100.5 -42q-56 0 -98.5 42.5t-42.5 97.5zM428 1729q0 57 42.5 100t100.5 43q53 0 96.5 -43.5t43.5 -99.5 q0 -55 -43.5 -97.5t-96.5 -42.5q-58 0 -100.5 42t-42.5 98z" />
<glyph unicode="&#xd0;" horiz-adv-x="1585" d="M31 0v86l180 31v567h-145v113h145v532l-180 31v86h712q364 0 572.5 -194t208.5 -535q0 -172 -60 -308.5t-167 -225.5t-253.5 -136t-320.5 -47h-692zM541 109h182q94 0 171.5 34.5t139 105.5t95.5 191t34 279q0 298 -116 458t-306 160h-200v-540h325v-113h-325v-575z" />
<glyph unicode="&#xd1;" horiz-adv-x="1619" d="M31 0v86l182 51v1192l-182 31v86h407l815 -918h29v781l-201 51v86h508v-86l-178 -51v-1321h-102l-938 1063h-29v-914l201 -51v-86h-512zM494 1604q23 89 84 180.5t98 91.5q43 0 148 -57.5t147 -57.5q32 0 69 40.5t50 80.5l73 -20q-29 -108 -88 -192.5t-112 -84.5 q-34 0 -145.5 56.5t-145.5 56.5q-29 0 -50 -29.5t-49 -89.5z" />
<glyph unicode="&#xd2;" horiz-adv-x="1628" d="M61 721q0 169 60 311t163 237t240 148t291 53q218 0 388 -89t267 -260t97 -400q0 -181 -60 -325t-163.5 -235t-238.5 -138.5t-290 -47.5t-291 49.5t-239.5 142t-163.5 235.5t-60 319zM432 723q0 -163 30 -286.5t83 -197t121 -109.5t149 -36q65 0 120.5 21t104.5 68 t83 119t53.5 179t19.5 242q0 324 -103.5 481.5t-277.5 157.5q-81 0 -149 -37t-121 -112.5t-83 -200.5t-30 -289zM526 1788v41h254l176 -244v-37h-145z" />
<glyph unicode="&#xd3;" horiz-adv-x="1628" d="M61 721q0 169 60 311t163 237t240 148t291 53q218 0 388 -89t267 -260t97 -400q0 -181 -60 -325t-163.5 -235t-238.5 -138.5t-290 -47.5t-291 49.5t-239.5 142t-163.5 235.5t-60 319zM432 723q0 -163 30 -286.5t83 -197t121 -109.5t149 -36q65 0 120.5 21t104.5 68 t83 119t53.5 179t19.5 242q0 324 -103.5 481.5t-277.5 157.5q-81 0 -149 -37t-121 -112.5t-83 -200.5t-30 -289zM670 1548v37l176 244h254v-41l-285 -240h-145z" />
<glyph unicode="&#xd4;" horiz-adv-x="1628" d="M61 721q0 169 60 311t163 237t240 148t291 53q218 0 388 -89t267 -260t97 -400q0 -181 -60 -325t-163.5 -235t-238.5 -138.5t-290 -47.5t-291 49.5t-239.5 142t-163.5 235.5t-60 319zM432 723q0 -163 30 -286.5t83 -197t121 -109.5t149 -36q65 0 120.5 21t104.5 68 t83 119t53.5 179t19.5 242q0 324 -103.5 481.5t-277.5 157.5q-81 0 -149 -37t-121 -112.5t-83 -200.5t-30 -289zM516 1548v37l238 244h118l238 -244v-37h-94l-203 119l-203 -119h-94z" />
<glyph unicode="&#xd5;" horiz-adv-x="1628" d="M61 721q0 169 60 311t163 237t240 148t291 53q218 0 388 -89t267 -260t97 -400q0 -181 -60 -325t-163.5 -235t-238.5 -138.5t-290 -47.5t-291 49.5t-239.5 142t-163.5 235.5t-60 319zM432 723q0 -163 30 -286.5t83 -197t121 -109.5t149 -36q65 0 120.5 21t104.5 68 t83 119t53.5 179t19.5 242q0 324 -103.5 481.5t-277.5 157.5q-81 0 -149 -37t-121 -112.5t-83 -200.5t-30 -289zM479 1604q23 89 84.5 180.5t98.5 91.5q43 0 147.5 -57.5t146.5 -57.5q32 0 69 40.5t50 80.5l74 -20q-29 -107 -88.5 -192t-112.5 -85q-34 0 -145.5 56.5 t-145.5 56.5q-20 0 -39 -19t-29.5 -39t-29.5 -61z" />
<glyph unicode="&#xd6;" horiz-adv-x="1628" d="M61 721q0 169 60 311t163 237t240 148t291 53q218 0 388 -89t267 -260t97 -400q0 -181 -60 -325t-163.5 -235t-238.5 -138.5t-290 -47.5t-291 49.5t-239.5 142t-163.5 235.5t-60 319zM432 723q0 -163 30 -286.5t83 -197t121 -109.5t149 -36q65 0 120.5 21t104.5 68 t83 119t53.5 179t19.5 242q0 324 -103.5 481.5t-277.5 157.5q-81 0 -149 -37t-121 -112.5t-83 -200.5t-30 -289zM477 1729q0 57 42.5 100t98.5 43q59 0 100.5 -42.5t41.5 -100.5q0 -56 -41.5 -98t-100.5 -42q-56 0 -98.5 42.5t-42.5 97.5zM866 1729q0 57 43 100t101 43 q53 0 96 -43.5t43 -99.5q0 -55 -43 -97.5t-96 -42.5q-58 0 -101 42t-43 98z" />
<glyph unicode="&#xd7;" d="M172 231l262 263l-262 262l119 118l262 -262l262 262l119 -118l-262 -262l262 -263l-119 -118l-262 262l-262 -262z" />
<glyph unicode="&#xd8;" horiz-adv-x="1628" d="M61 721q0 169 60 311t163 237t240 148t291 53q247 0 432 -116l129 162h154l-189 -234q108 -99 167 -241.5t59 -319.5q0 -181 -60 -325t-163.5 -235t-238.5 -138.5t-290 -47.5q-241 0 -426 113l-143 -178h-154l201 250q-232 206 -232 561zM432 723q0 -202 41 -336l633 791 q-99 184 -291 184q-81 0 -149 -37t-121 -112.5t-83 -200.5t-30 -289zM526 262q104 -174 289 -174q82 0 149 34t120 106.5t82.5 198t29.5 296.5q0 191 -39 328z" />
<glyph unicode="&#xd9;" horiz-adv-x="1589" d="M31 1360v86h690v-86l-180 -31v-827q0 -164 91.5 -270.5t250.5 -106.5q165 0 274 110.5t109 311.5v762l-179 51v86h472v-86l-166 -51v-777q0 -85 -19 -164t-61.5 -151t-105 -125.5t-156.5 -85t-209 -31.5q-306 0 -468.5 142t-162.5 375v837zM608 1788v41h254l176 -244v-37 h-145z" />
<glyph unicode="&#xda;" horiz-adv-x="1589" d="M31 1360v86h690v-86l-180 -31v-827q0 -164 91.5 -270.5t250.5 -106.5q165 0 274 110.5t109 311.5v762l-179 51v86h472v-86l-166 -51v-777q0 -85 -19 -164t-61.5 -151t-105 -125.5t-156.5 -85t-209 -31.5q-306 0 -468.5 142t-162.5 375v837zM752 1548v37l176 244h254v-41 l-285 -240h-145z" />
<glyph unicode="&#xdb;" horiz-adv-x="1589" d="M31 1360v86h690v-86l-180 -31v-827q0 -164 91.5 -270.5t250.5 -106.5q165 0 274 110.5t109 311.5v762l-179 51v86h472v-86l-166 -51v-777q0 -85 -19 -164t-61.5 -151t-105 -125.5t-156.5 -85t-209 -31.5q-306 0 -468.5 142t-162.5 375v837zM598 1548v37l238 244h118 l238 -244v-37h-94l-203 119l-203 -119h-94z" />
<glyph unicode="&#xdc;" horiz-adv-x="1589" d="M31 1360v86h690v-86l-180 -31v-827q0 -164 91.5 -270.5t250.5 -106.5q165 0 274 110.5t109 311.5v762l-179 51v86h472v-86l-166 -51v-777q0 -85 -19 -164t-61.5 -151t-105 -125.5t-156.5 -85t-209 -31.5q-306 0 -468.5 142t-162.5 375v837zM559 1729q0 57 42.5 100 t98.5 43q59 0 100.5 -42.5t41.5 -100.5q0 -56 -41.5 -98t-100.5 -42q-56 0 -98.5 42.5t-42.5 97.5zM948 1729q0 57 43 100t101 43q53 0 96 -43.5t43 -99.5q0 -55 -43 -97.5t-96 -42.5q-58 0 -101 42t-43 98z" />
<glyph unicode="&#xdd;" horiz-adv-x="1366" d="M8 1360v86h654v-86l-166 -31l276 -530h29l268 510l-190 51v86h479v-86l-156 -51l-344 -658v-534l180 -31v-86h-690v86l180 31v534l-364 678zM631 1548v37l176 244h254v-41l-285 -240h-145z" />
<glyph unicode="&#xde;" horiz-adv-x="1234" d="M31 0v86l180 31v1212l-180 31v86h690v-86l-180 -31v-149h172q72 0 141 -14t135 -45.5t115.5 -78t79.5 -117.5t30 -157q0 -185 -137.5 -295.5t-374.5 -110.5h-161v-245l180 -31v-86h-690zM541 469h118q85 0 151.5 82.5t66.5 204.5q0 160 -63.5 233.5t-172.5 73.5h-100 v-594z" />
<glyph unicode="&#xdf;" horiz-adv-x="1353" d="M14 831v80l129 84v66q0 121 63 224t180.5 165.5t264.5 62.5q208 0 324.5 -82t116.5 -212q0 -47 -19.5 -87t-48.5 -66t-63.5 -56.5t-63.5 -57.5t-48.5 -69t-19.5 -92q0 -64 49.5 -112.5t182.5 -103.5q38 -16 68.5 -32t63.5 -41.5t54.5 -54t36 -69t14.5 -87.5 q0 -78 -31.5 -141t-84.5 -101t-118 -58t-136 -20q-170 0 -258 52l-31 -39h-66v329h78q16 -45 39 -86.5t57 -82.5t83 -66t104 -25q53 0 88 33t35 88q0 63 -52.5 112t-177.5 105q-46 21 -74 35.5t-66.5 41.5t-60 54t-37.5 68.5t-16 89.5q0 59 23 111.5t56 94.5t66 85.5t56 104 t23 130.5q0 90 -43.5 146.5t-118.5 56.5q-50 0 -90.5 -29.5t-64 -76.5t-36 -101t-12.5 -108v-1094h-407v72l118 30v729h-129z" />
<glyph unicode="&#xe0;" horiz-adv-x="976" d="M59 238q0 78 49 131t160 100l271 115v82q0 90 -30.5 136t-86.5 46q-27 0 -58 -11t-51 -28q19 -69 19 -129q0 -51 -35.5 -82t-93.5 -31q-59 0 -93 35t-34 88q0 51 20.5 83.5t67.5 62.5q85 52 189.5 100.5t162.5 48.5q144 0 220.5 -78.5t76.5 -208.5v-491q0 -88 43 -88 q46 0 66 84l69 -29q-63 -199 -227 -199q-86 0 -133 36.5t-66 113.5h-20q-60 -74 -136.5 -112t-144.5 -38q-55 0 -104 45.5t-75 105.5t-26 112zM203 1372v41h254l176 -315v-37h-146zM338 305q0 -65 26.5 -112.5t63.5 -47.5q34 0 72.5 37.5t38.5 83.5v226l-86 -43 q-115 -58 -115 -144z" />
<glyph unicode="&#xe1;" horiz-adv-x="976" d="M59 238q0 78 49 131t160 100l271 115v82q0 90 -30.5 136t-86.5 46q-27 0 -58 -11t-51 -28q19 -69 19 -129q0 -51 -35.5 -82t-93.5 -31q-59 0 -93 35t-34 88q0 51 20.5 83.5t67.5 62.5q85 52 189.5 100.5t162.5 48.5q144 0 220.5 -78.5t76.5 -208.5v-491q0 -88 43 -88 q46 0 66 84l69 -29q-63 -199 -227 -199q-86 0 -133 36.5t-66 113.5h-20q-60 -74 -136.5 -112t-144.5 -38q-55 0 -104 45.5t-75 105.5t-26 112zM326 1061v37l176 315h254v-41l-285 -311h-145zM338 305q0 -65 26.5 -112.5t63.5 -47.5q34 0 72.5 37.5t38.5 83.5v226l-86 -43 q-115 -58 -115 -144z" />
<glyph unicode="&#xe2;" horiz-adv-x="976" d="M59 238q0 78 49 131t160 100l271 115v82q0 90 -30.5 136t-86.5 46q-27 0 -58 -11t-51 -28q19 -69 19 -129q0 -51 -35.5 -82t-93.5 -31q-59 0 -93 35t-34 88q0 51 20.5 83.5t67.5 62.5q85 52 189.5 100.5t162.5 48.5q144 0 220.5 -78.5t76.5 -208.5v-491q0 -88 43 -88 q46 0 66 84l69 -29q-63 -199 -227 -199q-86 0 -133 36.5t-66 113.5h-20q-60 -74 -136.5 -112t-144.5 -38q-55 0 -104 45.5t-75 105.5t-26 112zM182 1061v37l238 315h119l237 -315v-37h-84l-213 160l-213 -160h-84zM338 305q0 -65 26.5 -112.5t63.5 -47.5q34 0 72.5 37.5 t38.5 83.5v226l-86 -43q-115 -58 -115 -144z" />
<glyph unicode="&#xe3;" horiz-adv-x="976" d="M59 238q0 78 49 131t160 100l271 115v82q0 90 -30.5 136t-86.5 46q-27 0 -58 -11t-51 -28q19 -69 19 -129q0 -51 -35.5 -82t-93.5 -31q-59 0 -93 35t-34 88q0 51 20.5 83.5t67.5 62.5q85 52 189.5 100.5t162.5 48.5q144 0 220.5 -78.5t76.5 -208.5v-491q0 -88 43 -88 q46 0 66 84l69 -29q-63 -199 -227 -199q-86 0 -133 36.5t-66 113.5h-20q-60 -74 -136.5 -112t-144.5 -38q-55 0 -104 45.5t-75 105.5t-26 112zM145 1116q23 89 84.5 181t98.5 92q43 0 148 -57.5t147 -57.5q32 0 68.5 40.5t49.5 80.5l74 -21q-29 -107 -88.5 -191.5 t-112.5 -84.5q-34 0 -145 56t-145 56q-29 0 -50.5 -29.5t-48.5 -88.5zM338 305q0 -65 26.5 -112.5t63.5 -47.5q34 0 72.5 37.5t38.5 83.5v226l-86 -43q-115 -58 -115 -144z" />
<glyph unicode="&#xe4;" horiz-adv-x="976" d="M59 238q0 78 49 131t160 100l271 115v82q0 90 -30.5 136t-86.5 46q-27 0 -58 -11t-51 -28q19 -69 19 -129q0 -51 -35.5 -82t-93.5 -31q-59 0 -93 35t-34 88q0 51 20.5 83.5t67.5 62.5q85 52 189.5 100.5t162.5 48.5q144 0 220.5 -78.5t76.5 -208.5v-491q0 -88 43 -88 q46 0 66 84l69 -29q-63 -199 -227 -199q-86 0 -133 36.5t-66 113.5h-20q-60 -74 -136.5 -112t-144.5 -38q-55 0 -104 45.5t-75 105.5t-26 112zM143 1241q0 57 43 100t99 43q59 0 100 -42.5t41 -100.5q0 -56 -41 -97.5t-100 -41.5q-56 0 -99 42t-43 97zM338 305 q0 -65 26.5 -112.5t63.5 -47.5q34 0 72.5 37.5t38.5 83.5v226l-86 -43q-115 -58 -115 -144zM532 1241q0 57 43 100t101 43q53 0 96 -43.5t43 -99.5q0 -55 -43 -97t-96 -42q-58 0 -101 41.5t-43 97.5z" />
<glyph unicode="&#xe5;" horiz-adv-x="976" d="M59 238q0 78 49 131t160 100l271 115v82q0 90 -30.5 136t-86.5 46q-27 0 -58 -11t-51 -28q19 -69 19 -129q0 -51 -35.5 -82t-93.5 -31q-59 0 -93 35t-34 88q0 51 20.5 83.5t67.5 62.5q85 52 189.5 100.5t162.5 48.5q144 0 220.5 -78.5t76.5 -208.5v-491q0 -88 43 -88 q46 0 66 84l69 -29q-63 -199 -227 -199q-86 0 -133 36.5t-66 113.5h-20q-60 -74 -136.5 -112t-144.5 -38q-55 0 -104 45.5t-75 105.5t-26 112zM266 1262q0 89 61.5 151t149.5 62q89 0 151 -62t62 -151q0 -88 -62 -149.5t-151 -61.5q-88 0 -149.5 61.5t-61.5 149.5zM338 305 q0 -65 26.5 -112.5t63.5 -47.5q34 0 72.5 37.5t38.5 83.5v226l-86 -43q-115 -58 -115 -144zM381 1262q0 -44 26 -73.5t68 -29.5q45 0 72.5 29.5t27.5 73.5q0 45 -27.5 75.5t-72.5 30.5q-42 0 -68 -30.5t-26 -75.5z" />
<glyph unicode="&#xe6;" horiz-adv-x="1411" d="M59 233q0 79 49.5 134.5t159.5 101.5l271 115v82q0 90 -30.5 136t-86.5 46q-27 0 -58 -11t-51 -28q19 -69 19 -129q0 -51 -33.5 -82t-91.5 -31q-60 0 -95.5 35t-35.5 88q0 51 20.5 83.5t67.5 62.5q85 52 189.5 100.5t162.5 48.5q120 0 191 -111q121 111 280 111 q92 0 165.5 -33t118.5 -88t69 -121.5t24 -138.5q0 -20 -0.5 -29.5t-4 -21.5t-11.5 -16.5t-21 -4.5h-528v-40q0 -318 252 -318q159 0 266 150l63 -43q-28 -59 -65 -108.5t-90.5 -96.5t-128.5 -74t-164 -27q-109 0 -196.5 48t-143.5 137q-56 -79 -158.5 -132t-169.5 -53 q-55 0 -104 44t-75 103t-26 111zM338 301q0 -64 26.5 -110t63.5 -46q35 0 73 35.5t38 81.5v230l-86 -43q-115 -58 -115 -148zM805 625h207q17 0 27.5 12.5t15 37t5.5 43.5t1 48q0 31 -6.5 56.5t-29.5 47t-60 21.5q-61 0 -104 -64.5t-56 -201.5z" />
<glyph unicode="&#xe7;" horiz-adv-x="929" d="M49 463q0 121 37.5 220.5t103.5 165t153.5 101t188.5 35.5q162 0 256.5 -72t94.5 -174q0 -61 -38 -101t-100 -40q-48 0 -79.5 21.5t-44 54.5t-23 70.5t-17.5 70.5t-25.5 54.5t-47.5 21.5q-72 0 -123 -96t-51 -275q0 -346 254 -346q165 0 266 150l59 -41 q-55 -125 -150 -203t-224 -98l-41 -84q93 0 146.5 -36.5t53.5 -111.5q0 -92 -92 -161t-221 -89l-16 72q81 14 129.5 41t48.5 65q0 42 -40.5 64t-105.5 22q-33 0 -61 -4l-10 15l96 202q-168 12 -272.5 142.5t-104.5 343.5z" />
<glyph unicode="&#xe8;" horiz-adv-x="948" d="M49 461q0 232 134.5 378t340.5 146q92 0 165.5 -33t118.5 -88t69 -121.5t24 -138.5q0 -20 -0.5 -29.5t-4 -21.5t-11.5 -16.5t-21 -4.5h-528v-40q0 -318 252 -318q159 0 266 150l64 -43q-28 -59 -65 -108.5t-91 -96.5t-129 -74t-164 -27q-184 0 -302 133.5t-118 352.5z M227 1372v41h254l176 -315v-37h-145zM342 625h207q17 0 27.5 12.5t15 37t5.5 43.5t1 48q0 31 -6.5 56.5t-29.5 47t-60 21.5q-61 0 -104 -64.5t-56 -201.5z" />
<glyph unicode="&#xe9;" horiz-adv-x="948" d="M49 461q0 232 134.5 378t340.5 146q92 0 165.5 -33t118.5 -88t69 -121.5t24 -138.5q0 -20 -0.5 -29.5t-4 -21.5t-11.5 -16.5t-21 -4.5h-528v-40q0 -318 252 -318q159 0 266 150l64 -43q-28 -59 -65 -108.5t-91 -96.5t-129 -74t-164 -27q-184 0 -302 133.5t-118 352.5z M342 625h207q17 0 27.5 12.5t15 37t5.5 43.5t1 48q0 31 -6.5 56.5t-29.5 47t-60 21.5q-61 0 -104 -64.5t-56 -201.5zM350 1061v37l176 315h254v-41l-284 -311h-146z" />
<glyph unicode="&#xea;" horiz-adv-x="948" d="M49 461q0 232 134.5 378t340.5 146q92 0 165.5 -33t118.5 -88t69 -121.5t24 -138.5q0 -20 -0.5 -29.5t-4 -21.5t-11.5 -16.5t-21 -4.5h-528v-40q0 -318 252 -318q159 0 266 150l64 -43q-28 -59 -65 -108.5t-91 -96.5t-129 -74t-164 -27q-184 0 -302 133.5t-118 352.5z M207 1061v37l237 315h119l238 -315v-37h-84l-213 160l-213 -160h-84zM342 625h207q17 0 27.5 12.5t15 37t5.5 43.5t1 48q0 31 -6.5 56.5t-29.5 47t-60 21.5q-61 0 -104 -64.5t-56 -201.5z" />
<glyph unicode="&#xeb;" horiz-adv-x="948" d="M49 461q0 232 134.5 378t340.5 146q92 0 165.5 -33t118.5 -88t69 -121.5t24 -138.5q0 -20 -0.5 -29.5t-4 -21.5t-11.5 -16.5t-21 -4.5h-528v-40q0 -318 252 -318q159 0 266 150l64 -43q-28 -59 -65 -108.5t-91 -96.5t-129 -74t-164 -27q-184 0 -302 133.5t-118 352.5z M168 1241q0 57 42.5 100t98.5 43q59 0 100.5 -42.5t41.5 -100.5q0 -56 -41.5 -97.5t-100.5 -41.5q-56 0 -98.5 42t-42.5 97zM342 625h207q17 0 27.5 12.5t15 37t5.5 43.5t1 48q0 31 -6.5 56.5t-29.5 47t-60 21.5q-61 0 -104 -64.5t-56 -201.5zM557 1241q0 57 42.5 100 t100.5 43q53 0 96.5 -43.5t43.5 -99.5q0 -55 -43.5 -97t-96.5 -42q-58 0 -100.5 41.5t-42.5 97.5z" />
<glyph unicode="&#xec;" horiz-adv-x="587" d="M12 1372v41h254l176 -315v-37h-145zM20 846v53l369 86h49v-883l119 -30v-72h-526v72l119 30v666z" />
<glyph unicode="&#xed;" horiz-adv-x="587" d="M20 846v53l369 86h49v-883l119 -30v-72h-526v72l119 30v666zM135 1061v37l176 315h254v-41l-284 -311h-146z" />
<glyph unicode="&#xee;" horiz-adv-x="587" d="M-8 1061v37l237 315h119l238 -315v-37h-84l-213 160l-213 -160h-84zM20 846v53l369 86h49v-883l119 -30v-72h-526v72l119 30v666z" />
<glyph unicode="&#xef;" horiz-adv-x="587" d="M-47 1241q0 57 42.5 100t98.5 43q59 0 100.5 -42.5t41.5 -100.5q0 -56 -41.5 -97.5t-100.5 -41.5q-56 0 -98.5 42t-42.5 97zM20 846v53l369 86h49v-883l119 -30v-72h-526v72l119 30v666zM342 1241q0 57 42.5 100t100.5 43q53 0 96.5 -43.5t43.5 -99.5q0 -55 -43.5 -97 t-96.5 -42q-58 0 -100.5 41.5t-42.5 97.5z" />
<glyph unicode="&#xf0;" horiz-adv-x="1050" d="M49 475q0 120 36.5 218.5t98.5 161t140.5 96.5t164.5 34q109 0 183 -63l20 6q-39 127 -147 258l-178 -119l-68 94l164 109q-114 103 -209 133l41 102q166 -54 301 -145l199 131l67 -94l-170 -113q152 -135 230.5 -319t78.5 -396q0 -265 -133 -429.5t-344 -164.5 q-69 0 -134.5 17t-128 55.5t-109 95t-75 142t-28.5 190.5zM356 473q0 -397 170 -397q82 0 128 103t46 292q0 196 -10 262q-58 152 -174 152q-160 0 -160 -412z" />
<glyph unicode="&#xf1;" horiz-adv-x="1138" d="M14 846v53l363 86h49l12 -102l17 -13q84 61 142.5 88t125.5 27q114 0 193 -80t79 -233v-570l119 -30v-72h-502v72l95 30v529q0 105 -32 147.5t-102 42.5q-77 0 -141 -76v-643l107 -30v-72h-514v72l118 30v666zM240 1116q23 90 84 181.5t98 91.5q43 0 148 -57.5t147 -57.5 q32 0 69 40.5t50 80.5l73 -21q-29 -107 -88 -191.5t-112 -84.5q-34 0 -145.5 56t-145.5 56q-29 0 -50.5 -29.5t-48.5 -88.5z" />
<glyph unicode="&#xf2;" horiz-adv-x="1050" d="M49 479q0 125 37.5 223.5t103.5 159t151.5 92t184.5 31.5t184 -31.5t150.5 -92t103 -159t37.5 -223.5q0 -127 -37.5 -225.5t-103 -158.5t-150 -90t-184.5 -30q-99 0 -184.5 31t-151.5 91.5t-103.5 158.5t-37.5 223zM248 1372v41h254l176 -315v-37h-146zM356 481 q0 -208 47.5 -306.5t122.5 -98.5q29 0 53 10.5t46.5 38t37.5 72t24 116.5t9 168q0 404 -170 404t-170 -404z" />
<glyph unicode="&#xf3;" horiz-adv-x="1050" d="M49 479q0 125 37.5 223.5t103.5 159t151.5 92t184.5 31.5t184 -31.5t150.5 -92t103 -159t37.5 -223.5q0 -127 -37.5 -225.5t-103 -158.5t-150 -90t-184.5 -30q-99 0 -184.5 31t-151.5 91.5t-103.5 158.5t-37.5 223zM356 481q0 -208 47.5 -306.5t122.5 -98.5q29 0 53 10.5 t46.5 38t37.5 72t24 116.5t9 168q0 404 -170 404t-170 -404zM371 1061v37l176 315h254v-41l-285 -311h-145z" />
<glyph unicode="&#xf4;" horiz-adv-x="1050" d="M49 479q0 125 37.5 223.5t103.5 159t151.5 92t184.5 31.5t184 -31.5t150.5 -92t103 -159t37.5 -223.5q0 -127 -37.5 -225.5t-103 -158.5t-150 -90t-184.5 -30q-99 0 -184.5 31t-151.5 91.5t-103.5 158.5t-37.5 223zM227 1061v37l238 315h119l237 -315v-37h-84l-213 160 l-213 -160h-84zM356 481q0 -208 47.5 -306.5t122.5 -98.5q29 0 53 10.5t46.5 38t37.5 72t24 116.5t9 168q0 404 -170 404t-170 -404z" />
<glyph unicode="&#xf5;" horiz-adv-x="1050" d="M49 479q0 125 37.5 223.5t103.5 159t151.5 92t184.5 31.5t184 -31.5t150.5 -92t103 -159t37.5 -223.5q0 -127 -37.5 -225.5t-103 -158.5t-150 -90t-184.5 -30q-99 0 -184.5 31t-151.5 91.5t-103.5 158.5t-37.5 223zM190 1116q23 89 84.5 181t98.5 92q43 0 148 -57.5 t147 -57.5q32 0 68.5 40.5t49.5 80.5l74 -21q-29 -107 -88.5 -191.5t-112.5 -84.5q-34 0 -145 56t-145 56q-29 0 -50.5 -29.5t-48.5 -88.5zM356 481q0 -208 47.5 -306.5t122.5 -98.5q29 0 53 10.5t46.5 38t37.5 72t24 116.5t9 168q0 404 -170 404t-170 -404z" />
<glyph unicode="&#xf6;" horiz-adv-x="1050" d="M49 479q0 125 37.5 223.5t103.5 159t151.5 92t184.5 31.5t184 -31.5t150.5 -92t103 -159t37.5 -223.5q0 -127 -37.5 -225.5t-103 -158.5t-150 -90t-184.5 -30q-99 0 -184.5 31t-151.5 91.5t-103.5 158.5t-37.5 223zM188 1241q0 57 43 100t99 43q59 0 100 -42.5t41 -100.5 q0 -56 -41 -97.5t-100 -41.5q-56 0 -99 42t-43 97zM356 481q0 -208 47.5 -306.5t122.5 -98.5q29 0 53 10.5t46.5 38t37.5 72t24 116.5t9 168q0 404 -170 404t-170 -404zM578 1241q0 57 42.5 100t100.5 43q53 0 96 -43.5t43 -99.5q0 -55 -43 -97t-96 -42q-58 0 -100.5 41.5 t-42.5 97.5z" />
<glyph unicode="&#xf7;" d="M139 410v168h828v-168h-828zM434 180q0 50 33 83.5t82 33.5t83 -33.5t34 -83.5q0 -49 -33.5 -81.5t-83.5 -32.5t-82.5 32.5t-32.5 81.5zM434 805q0 50 33 83.5t82 33.5t83 -34t34 -83t-33.5 -82t-83.5 -33q-49 0 -82 33t-33 82z" />
<glyph unicode="&#xf8;" horiz-adv-x="1050" d="M45 -96l145 194q-141 131 -141 381q0 125 37.5 223.5t103.5 159t151.5 92t184.5 31.5q157 0 273 -76l84 113h127l-133 -178q124 -130 124 -365q0 -127 -37.5 -225.5t-103 -158.5t-150 -90t-184.5 -30q-142 0 -254 62l-100 -133h-127zM356 481q0 -83 9 -151l305 407 q-41 148 -144 148q-170 0 -170 -404zM393 199q44 -123 133 -123q29 0 53 10.5t46.5 38t37.5 72t24 116.5t9 168q0 47 -4 117z" />
<glyph unicode="&#xf9;" horiz-adv-x="1134" d="M14 870v78l418 37v-684q0 -178 133 -178q99 0 142 88v616l-129 43v78l417 37v-838l115 -67v-53l-285 -52h-37l-38 127l-17 7q-50 -67 -126 -100.5t-156 -33.5q-60 0 -114 19t-98 56t-70 99t-26 140v538zM285 1372v41h254l176 -315v-37h-146z" />
<glyph unicode="&#xfa;" horiz-adv-x="1134" d="M14 870v78l418 37v-684q0 -178 133 -178q99 0 142 88v616l-129 43v78l417 37v-838l115 -67v-53l-285 -52h-37l-38 127l-17 7q-50 -67 -126 -100.5t-156 -33.5q-60 0 -114 19t-98 56t-70 99t-26 140v538zM408 1061v37l176 315h254v-41l-285 -311h-145z" />
<glyph unicode="&#xfb;" horiz-adv-x="1134" d="M14 870v78l418 37v-684q0 -178 133 -178q99 0 142 88v616l-129 43v78l417 37v-838l115 -67v-53l-285 -52h-37l-38 127l-17 7q-50 -67 -126 -100.5t-156 -33.5q-60 0 -114 19t-98 56t-70 99t-26 140v538zM264 1061v37l238 315h119l237 -315v-37h-84l-213 160l-213 -160 h-84z" />
<glyph unicode="&#xfc;" horiz-adv-x="1134" d="M14 870v78l418 37v-684q0 -178 133 -178q99 0 142 88v616l-129 43v78l417 37v-838l115 -67v-53l-285 -52h-37l-38 127l-17 7q-50 -67 -126 -100.5t-156 -33.5q-60 0 -114 19t-98 56t-70 99t-26 140v538zM225 1241q0 57 43 100t99 43q59 0 100 -42.5t41 -100.5 q0 -56 -41 -97.5t-100 -41.5q-56 0 -99 42t-43 97zM614 1241q0 57 43 100t101 43q53 0 96 -43.5t43 -99.5q0 -55 -43 -97t-96 -42q-58 0 -101 41.5t-43 97.5z" />
<glyph unicode="&#xfd;" horiz-adv-x="1052" d="M8 -365q0 54 36.5 94t86.5 40q39 0 83.5 -29t72.5 -29q98 0 168 275l-351 870l-96 31v71h508v-71l-117 -31l195 -496h20l179 482l-140 45v71h391v-71l-126 -45l-392 -1028q-64 -171 -148 -248.5t-204 -77.5q-72 0 -119 43.5t-47 103.5zM432 1061v37l176 315h254v-41 l-284 -311h-146z" />
<glyph unicode="&#xfe;" horiz-adv-x="1110" d="M14 1364v53l363 86h55v-620l23 -13q138 115 262 115q45 0 88 -11.5t91 -43.5t83.5 -82.5t58.5 -137.5t23 -198q0 -131 -40.5 -236.5t-108 -170.5t-151 -99.5t-173.5 -34.5q-88 0 -156 31v-391l168 -31v-72h-575v72l118 31v1675zM432 162q21 -42 61 -67t82 -25 q26 0 51 11.5t51.5 40t46 71.5t32 113t12.5 157q0 166 -60.5 259t-140.5 93q-36 0 -72.5 -24t-62.5 -56v-573z" />
<glyph unicode="&#xff;" horiz-adv-x="1052" d="M8 -365q0 54 36.5 94t86.5 40q39 0 83.5 -29t72.5 -29q98 0 168 275l-351 870l-96 31v71h508v-71l-117 -31l195 -496h20l179 482l-140 45v71h391v-71l-126 -45l-392 -1028q-64 -171 -148 -248.5t-204 -77.5q-72 0 -119 43.5t-47 103.5zM250 1241q0 57 42.5 100t98.5 43 q59 0 100 -42.5t41 -100.5q0 -56 -41 -97.5t-100 -41.5q-56 0 -98.5 42t-42.5 97zM639 1241q0 57 42.5 100t100.5 43q53 0 96.5 -43.5t43.5 -99.5q0 -55 -43.5 -97t-96.5 -42q-58 0 -100.5 41.5t-42.5 97.5z" />
<glyph unicode="&#x152;" horiz-adv-x="2150" d="M61 721q0 169 60 311t163 237t240 148t291 53q113 0 215 -24h957l32 -354h-112l-166 251h-389v-524h266l78 191h90v-512h-90l-78 204h-266v-600h452l207 314h113l-74 -416h-1022q-109 -25 -213 -25q-155 0 -291 49.5t-239.5 142t-163.5 235.5t-60 319zM432 723 q0 -166 29.5 -291t83 -198.5t121 -109.5t149.5 -36q121 0 207 57v1162q-83 55 -207 55q-81 0 -149 -37t-121 -112.5t-83 -200.5t-30 -289z" />
<glyph unicode="&#x153;" horiz-adv-x="1583" d="M49 477q0 125 37.5 223.5t103.5 160t151.5 93t184.5 31.5q192 0 316 -141q53 66 139 103.5t178 37.5t165.5 -33t118.5 -88t69 -121.5t24 -138.5q0 -20 -0.5 -29.5t-4 -21.5t-11.5 -16.5t-21 -4.5h-528v-40q0 -318 252 -318q159 0 266 150l63 -43q-24 -45 -53 -86t-70 -82 t-86.5 -71t-103 -48.5t-119.5 -18.5q-97 0 -163 33.5t-121 97.5q-131 -131 -310 -131q-79 0 -149.5 19t-130.5 59t-104 98.5t-68.5 141.5t-24.5 184zM356 479q0 -208 47.5 -305.5t122.5 -97.5q37 0 65.5 17.5t53.5 60t38 124.5t13 201q0 406 -170 406t-170 -406zM977 625 h207q17 0 27.5 12.5t15 37t5.5 43.5t1 48q0 31 -6.5 56.5t-29.5 47t-60 21.5q-61 0 -104 -64.5t-56 -201.5z" />
<glyph unicode="&#x178;" horiz-adv-x="1366" d="M8 1360v86h654v-86l-166 -31l276 -530h29l268 510l-190 51v86h479v-86l-156 -51l-344 -658v-534l180 -31v-86h-690v86l180 31v534l-364 678zM438 1729q0 57 43 100t99 43q59 0 100 -42.5t41 -100.5q0 -56 -41 -98t-100 -42q-56 0 -99 42.5t-43 97.5zM827 1729 q0 57 43 100t101 43q53 0 96 -43.5t43 -99.5q0 -55 -43 -97.5t-96 -42.5q-58 0 -101 42t-43 98z" />
<glyph unicode="&#x2c6;" horiz-adv-x="1024" d="M215 999v37l238 316h118l238 -316v-37h-84l-213 160l-213 -160h-84z" />
<glyph unicode="&#x2dc;" horiz-adv-x="1024" d="M178 1055q23 89 84 180.5t98 91.5q43 0 148 -57.5t147 -57.5q32 0 69 40.5t50 80.5l74 -20q-29 -107 -88.5 -192t-112.5 -85q-34 0 -145.5 56.5t-145.5 56.5q-20 0 -39 -19t-29.5 -39t-29.5 -61z" />
<glyph unicode="&#x2000;" horiz-adv-x="981" />
<glyph unicode="&#x2001;" horiz-adv-x="1962" />
<glyph unicode="&#x2002;" horiz-adv-x="981" />
<glyph unicode="&#x2003;" horiz-adv-x="1962" />
<glyph unicode="&#x2004;" horiz-adv-x="654" />
<glyph unicode="&#x2005;" horiz-adv-x="490" />
<glyph unicode="&#x2006;" horiz-adv-x="327" />
<glyph unicode="&#x2007;" horiz-adv-x="327" />
<glyph unicode="&#x2008;" horiz-adv-x="245" />
<glyph unicode="&#x2009;" horiz-adv-x="392" />
<glyph unicode="&#x200a;" horiz-adv-x="109" />
<glyph unicode="&#x2010;" horiz-adv-x="643" d="M66 410v211h512v-211h-512z" />
<glyph unicode="&#x2011;" horiz-adv-x="643" d="M66 410v211h512v-211h-512z" />
<glyph unicode="&#x2012;" horiz-adv-x="643" d="M66 410v211h512v-211h-512z" />
<glyph unicode="&#x2013;" horiz-adv-x="991" d="M86 410v211h819v-211h-819z" />
<glyph unicode="&#x2014;" horiz-adv-x="2088" d="M209 438v150h1671v-150h-1671z" />
<glyph unicode="&#x2018;" horiz-adv-x="827" d="M184 1012q0 70 23 136t59 115.5t83.5 93t91.5 71.5t89 49l41 -80q-74 -48 -126 -114.5t-52 -137.5q0 -37 12 -66t31 -47.5t41.5 -34.5t45.5 -31.5t42 -33t31 -43.5t12 -60q0 -62 -45.5 -101.5t-109.5 -39.5q-105 0 -187 91t-82 233z" />
<glyph unicode="&#x2019;" horiz-adv-x="827" d="M219 1335q0 62 46 102t110 40q105 0 186.5 -91t81.5 -233q0 -70 -23 -136t-59 -115.5t-83.5 -93t-91.5 -71.5t-89 -49l-41 80q74 48 126 114.5t52 137.5q0 43 -16 75t-40 50.5t-51.5 38t-51.5 36.5t-40 46.5t-16 68.5z" />
<glyph unicode="&#x201a;" horiz-adv-x="827" d="M219 117q0 62 45.5 101.5t110.5 39.5q105 0 186.5 -91t81.5 -233q0 -70 -23 -135.5t-59 -115t-83.5 -93t-91.5 -71.5t-89 -49l-41 79q74 48 126 114.5t52 137.5q0 37 -12 66t-31 47.5t-42 34.5t-45.5 31.5t-41.5 33t-31 43.5t-12 60z" />
<glyph unicode="&#x201c;" horiz-adv-x="1318" d="M184 1012q0 70 23 136t59 115.5t83.5 93t91.5 71.5t89 49l41 -80q-74 -48 -126 -114.5t-52 -137.5q0 -37 12 -66t31 -47.5t41.5 -34.5t45.5 -31.5t42 -33t31 -43.5t12 -60q0 -62 -45.5 -101.5t-109.5 -39.5q-105 0 -187 91t-82 233zM676 1012q0 70 23 136t59 115.5 t83.5 93t91.5 71.5t89 49l41 -80q-74 -48 -126 -114.5t-52 -137.5q0 -37 12 -66t31 -47.5t41.5 -34.5t45.5 -31.5t42 -33t31 -43.5t12 -60q0 -62 -45.5 -101.5t-110.5 -39.5q-105 0 -186.5 91t-81.5 233z" />
<glyph unicode="&#x201d;" horiz-adv-x="1318" d="M219 1335q0 62 46 102t110 40q105 0 186.5 -91t81.5 -233q0 -70 -23 -136t-59 -115.5t-83.5 -93t-91.5 -71.5t-89 -49l-41 80q74 48 126 114.5t52 137.5q0 43 -16 75t-40 50.5t-51.5 38t-51.5 36.5t-40 46.5t-16 68.5zM711 1335q0 62 45.5 102t109.5 40q105 0 187 -91 t82 -233q0 -86 -34 -165t-89 -136.5t-111 -97.5t-113 -66l-40 80q74 48 126 114.5t52 137.5q0 43 -16 75t-40 50.5t-51.5 38t-51.5 36.5t-40 46.5t-16 68.5z" />
<glyph unicode="&#x201e;" horiz-adv-x="1318" d="M219 117q0 62 45.5 101.5t110.5 39.5q105 0 186.5 -91t81.5 -233q0 -70 -23 -135.5t-59 -115t-83.5 -93t-91.5 -71.5t-89 -49l-41 79q74 48 126 114.5t52 137.5q0 37 -12 66t-31 47.5t-42 34.5t-45.5 31.5t-41.5 33t-31 43.5t-12 60zM711 117q0 62 45.5 101.5t109.5 39.5 q105 0 187 -91t82 -233q0 -86 -34 -165t-89 -136t-110.5 -97t-113.5 -66l-40 79q74 48 126 114.5t52 137.5q0 37 -12 66t-31 47.5t-42 34.5t-45.5 31.5t-41.5 33t-31 43.5t-12 60z" />
<glyph unicode="&#x2022;" horiz-adv-x="1171" d="M307 541q0 115 81.5 196.5t197.5 81.5t197 -81.5t81 -196.5q0 -116 -81.5 -197.5t-196.5 -81.5q-116 0 -197.5 82t-81.5 197z" />
<glyph unicode="&#x2026;" horiz-adv-x="2121" d="M250 150q0 74 50.5 126t123.5 52q74 0 126 -52t52 -126q0 -73 -52 -124t-126 -51q-73 0 -123.5 50.5t-50.5 124.5zM885 150q0 74 50.5 126t123.5 52t125.5 -52t52.5 -126q0 -73 -52 -124t-126 -51q-73 0 -123.5 50.5t-50.5 124.5zM1520 150q0 74 50.5 126t123.5 52 q74 0 126 -52t52 -126q0 -73 -52 -124t-126 -51q-73 0 -123.5 50.5t-50.5 124.5z" />
<glyph unicode="&#x202f;" horiz-adv-x="392" />
<glyph unicode="&#x2039;" horiz-adv-x="913" d="M205 444v48l393 448l90 -59l-203 -394v-30l203 -406l-90 -59z" />
<glyph unicode="&#x203a;" horiz-adv-x="913" d="M225 51l203 406v30l-203 394l90 59l394 -448v-48l-394 -452z" />
<glyph unicode="&#x205f;" horiz-adv-x="490" />
<glyph unicode="&#x20ac;" horiz-adv-x="1335" d="M113 528l20 84h107v27q0 49 2 74h-129l20 84h121q44 234 203 372t372 138q100 0 204.5 -33t189.5 -96l-62 -258h-80q0 68 -16 121t-40 84.5t-56 52.5t-61 28.5t-58 7.5q-114 0 -193.5 -105t-101.5 -312h565l-20 -84h-549q-2 -25 -2 -72v-29h530l-20 -84h-508 q9 -123 37 -213.5t70 -141t89 -74t101 -23.5q91 0 164 65.5t110 190.5l101 -27q-108 -330 -418 -330q-218 0 -373.5 146t-185.5 407h-133z" />
<glyph unicode="&#x2122;" horiz-adv-x="1406" d="M86 1294l27 152h440l29 -152h-41l-66 97h-78v-400l66 -12v-47h-258v47l65 12v400h-75l-66 -97h-43zM584 932v47l67 12l39 395l-78 13v47h203l133 -311h15l143 311h199v-47l-72 -13l24 -395l64 -12v-47h-252v47l70 12l-19 307h-14l-170 -366h-35l-151 366h-11l-30 -307 l63 -12v-47h-188z" />
<glyph unicode="&#x25fc;" horiz-adv-x="962" d="M0 0v963h963v-963h-963z" />
</font>
</defs>
</svg>
