<svg version="1.1" viewBox="0.0 0.0 960.0 720.0" fill="none" stroke="none" stroke-linecap="square" stroke-miterlimit="10" xmlns:xlink="http://www.w3.org/1999/xlink" xmlns="http://www.w3.org/2000/svg"><clipPath id="g76bd602cf0_0_3.0"><path d="m0 0l960.0 0l0 720.0l-960.0 0l0 -720.0z" clip-rule="nonzero"/></clipPath><g clip-path="url(#g76bd602cf0_0_3.0)"><path fill="#ffffff" d="m0 0l960.0 0l0 720.0l-960.0 0z" fill-rule="evenodd"/><path fill="#ffffff" d="m435.52756 70.02917l0 0c0 -8.187313 6.637146 -14.824444 14.824432 -14.824444l59.29602 0l0 0c3.9317017 0 7.7023315 1.5618591 10.482422 4.34198c2.7801514 2.7801208 4.34198 6.5507774 4.34198 10.482464l0 70.225136c0 8.187302 -6.637085 14.824432 -14.824402 14.824432l-59.29602 0c-8.187286 0 -14.824432 -6.6371307 -14.824432 -14.824432z" fill-rule="evenodd"/><path stroke="#000000" stroke-width="3.0" stroke-linejoin="round" stroke-linecap="butt" d="m435.52756 70.02917l0 0c0 -8.187313 6.637146 -14.824444 14.824432 -14.824444l59.29602 0l0 0c3.9317017 0 7.7023315 1.5618591 10.482422 4.34198c2.7801514 2.7801208 4.34198 6.5507774 4.34198 10.482464l0 70.225136c0 8.187302 -6.637085 14.824432 -14.824402 14.824432l-59.29602 0c-8.187286 0 -14.824432 -6.6371307 -14.824432 -14.824432z" fill-rule="evenodd"/></g></svg>