<svg version="1.1" viewBox="0.0 0.0 960.0 720.0" fill="none" stroke="none" stroke-linecap="square" stroke-miterlimit="10" xmlns:xlink="http://www.w3.org/1999/xlink" xmlns="http://www.w3.org/2000/svg"><clipPath id="g76bd602cf0_0_90.0"><path d="m0 0l960.0 0l0 720.0l-960.0 0l0 -720.0z" clip-rule="nonzero"/></clipPath><g clip-path="url(#g76bd602cf0_0_90.0)"><path fill="#ffffff" d="m0 0l960.0 0l0 720.0l-960.0 0z" fill-rule="evenodd"/><path fill="#ffffff" d="m318.93964 233.88744l0 0c0 -8.187317 6.6371155 -14.824448 14.824432 -14.824448l59.29599 0l0 0c3.9317017 0 7.702362 1.5618591 10.482483 4.34198c2.7801208 2.7801208 4.34198 6.5507812 4.34198 10.482468l0 70.22514c0 8.187286 -6.637146 14.824432 -14.824463 14.824432l-59.29599 0c-8.187317 0 -14.824432 -6.637146 -14.824432 -14.824432z" fill-rule="evenodd"/><path stroke="#000000" stroke-width="3.0" stroke-linejoin="round" stroke-linecap="butt" d="m318.93964 233.88744l0 0c0 -8.187317 6.6371155 -14.824448 14.824432 -14.824448l59.29599 0l0 0c3.9317017 0 7.702362 1.5618591 10.482483 4.34198c2.7801208 2.7801208 4.34198 6.5507812 4.34198 10.482468l0 70.22514c0 8.187286 -6.637146 14.824432 -14.824463 14.824432l-59.29599 0c-8.187317 0 -14.824432 -6.637146 -14.824432 -14.824432z" fill-rule="evenodd"/><path fill="#ffffff" d="m557.5276 233.88744l0 0c0 -8.187317 6.637085 -14.824448 14.824402 -14.824448l59.29602 0l0 0c3.9317017 0 7.7023315 1.5618591 10.482422 4.34198c2.7801514 2.7801208 4.34198 6.5507812 4.34198 10.482468l0 70.22514c0 8.187286 -6.637085 14.824432 -14.824402 14.824432l-59.29602 0c-8.187317 0 -14.824402 -6.637146 -14.824402 -14.824432z" fill-rule="evenodd"/><path stroke="#000000" stroke-width="3.0" stroke-linejoin="round" stroke-linecap="butt" d="m557.5276 233.88744l0 0c0 -8.187317 6.637085 -14.824448 14.824402 -14.824448l59.29602 0l0 0c3.9317017 0 7.7023315 1.5618591 10.482422 4.34198c2.7801514 2.7801208 4.34198 6.5507812 4.34198 10.482468l0 70.22514c0 8.187286 -6.637085 14.824432 -14.824402 14.824432l-59.29602 0c-8.187317 0 -14.824402 -6.637146 -14.824402 -14.824432z" fill-rule="evenodd"/><path fill="#ffffff" d="m229.99475 403.36774l0 0c0 -8.187286 6.6371307 -14.824432 14.824448 -14.824432l59.296005 0l0 0c3.9316711 0 7.7023315 1.5618591 10.482452 4.34198c2.7801208 2.7801208 4.34198 6.5507812 4.34198 10.482452l0 70.22513c0 8.187317 -6.637146 14.824463 -14.824432 14.824463l-59.296005 0c-8.187317 0 -14.824448 -6.637146 -14.824448 -14.824463z" fill-rule="evenodd"/><path stroke="#000000" stroke-width="3.0" stroke-linejoin="round" stroke-linecap="butt" d="m229.99475 403.36774l0 0c0 -8.187286 6.6371307 -14.824432 14.824448 -14.824432l59.296005 0l0 0c3.9316711 0 7.7023315 1.5618591 10.482452 4.34198c2.7801208 2.7801208 4.34198 6.5507812 4.34198 10.482452l0 70.22513c0 8.187317 -6.637146 14.824463 -14.824432 14.824463l-59.296005 0c-8.187317 0 -14.824448 -6.637146 -14.824448 -14.824463z" fill-rule="evenodd"/><path fill="#ffffff" d="m407.88452 399.34937l0 0c0 -8.187286 6.6371155 -14.824432 14.824432 -14.824432l59.29599 0l0 0c3.9317017 0 7.702362 1.5618591 10.482483 4.34198c2.7801208 2.7801208 4.34198 6.5507812 4.34198 10.482452l0 70.22513c0 8.187317 -6.637146 14.824463 -14.824463 14.824463l-59.29599 0c-8.187317 0 -14.824432 -6.637146 -14.824432 -14.824463z" fill-rule="evenodd"/><path stroke="#ff0000" stroke-width="3.0" stroke-linejoin="round" stroke-linecap="butt" stroke-dasharray="12.0,9.0" d="m407.88452 399.34937l0 0c0 -8.187286 6.6371155 -14.824432 14.824432 -14.824432l59.29599 0l0 0c3.9317017 0 7.702362 1.5618591 10.482483 4.34198c2.7801208 2.7801208 4.34198 6.5507812 4.34198 10.482452l0 70.22513c0 8.187317 -6.637146 14.824463 -14.824463 14.824463l-59.29599 0c-8.187317 0 -14.824432 -6.637146 -14.824432 -14.824463z" fill-rule="evenodd"/><path fill="#ffffff" d="m646.4724 403.36774l0 0c0 -8.187286 6.637146 -14.824432 14.824463 -14.824432l59.29602 0l0 0c3.9316406 0 7.7023315 1.5618591 10.482422 4.34198c2.7801514 2.7801208 4.34198 6.5507812 4.34198 10.482452l0 70.22513c0 8.187317 -6.637085 14.824463 -14.824402 14.824463l-59.29602 0c-8.187317 0 -14.824463 -6.637146 -14.824463 -14.824463z" fill-rule="evenodd"/><path stroke="#000000" stroke-width="3.0" stroke-linejoin="round" stroke-linecap="butt" d="m646.4724 403.36774l0 0c0 -8.187286 6.637146 -14.824432 14.824463 -14.824432l59.29602 0l0 0c3.9316406 0 7.7023315 1.5618591 10.482422 4.34198c2.7801514 2.7801208 4.34198 6.5507812 4.34198 10.482452l0 70.22513c0 8.187317 -6.637085 14.824463 -14.824402 14.824463l-59.29602 0c-8.187317 0 -14.824463 -6.637146 -14.824463 -14.824463z" fill-rule="evenodd"/><path fill="#ffffff" d="m141.04987 572.04755l0 0c0 -8.187317 6.6371307 -14.824463 14.824448 -14.824463l59.29599 0l0 0c3.9316864 0 7.702347 1.5618896 10.482468 4.34198c2.7801208 2.7801514 4.34198 6.5507812 4.34198 10.482483l0 70.2251c0 8.187317 -6.6371307 14.824463 -14.824448 14.824463l-59.29599 0c-8.187317 0 -14.824448 -6.637146 -14.824448 -14.824463z" fill-rule="evenodd"/><path stroke="#ff0000" stroke-width="3.0" stroke-linejoin="round" stroke-linecap="butt" stroke-dasharray="12.0,9.0" d="m141.04987 572.04755l0 0c0 -8.187317 6.6371307 -14.824463 14.824448 -14.824463l59.29599 0l0 0c3.9316864 0 7.702347 1.5618896 10.482468 4.34198c2.7801208 2.7801514 4.34198 6.5507812 4.34198 10.482483l0 70.2251c0 8.187317 -6.6371307 14.824463 -14.824448 14.824463l-59.29599 0c-8.187317 0 -14.824448 -6.637146 -14.824448 -14.824463z" fill-rule="evenodd"/><path fill="#ffffff" d="m318.93964 580.81396l0 0c0 -8.187317 6.6371155 -14.824463 14.824432 -14.824463l59.29599 0l0 0c3.9317017 0 7.702362 1.5618286 10.482483 4.34198c2.7801208 2.7800903 4.34198 6.5507812 4.34198 10.482483l0 70.2251c0 8.187317 -6.637146 14.824463 -14.824463 14.824463l-59.29599 0c-8.187317 0 -14.824432 -6.637146 -14.824432 -14.824463z" fill-rule="evenodd"/><path stroke="#ff0000" stroke-width="3.0" stroke-linejoin="round" stroke-linecap="butt" stroke-dasharray="12.0,9.0" d="m318.93964 580.81396l0 0c0 -8.187317 6.6371155 -14.824463 14.824432 -14.824463l59.29599 0l0 0c3.9317017 0 7.702362 1.5618286 10.482483 4.34198c2.7801208 2.7800903 4.34198 6.5507812 4.34198 10.482483l0 70.2251c0 8.187317 -6.637146 14.824463 -14.824463 14.824463l-59.29599 0c-8.187317 0 -14.824432 -6.637146 -14.824432 -14.824463z" fill-rule="evenodd"/><path fill="#ffffff" d="m557.5276 580.81396l0 0c0 -8.187317 6.637085 -14.824463 14.824402 -14.824463l59.29602 0l0 0c3.9317017 0 7.7023315 1.5618286 10.482422 4.34198c2.7801514 2.7800903 4.34198 6.5507812 4.34198 10.482483l0 70.2251c0 8.187317 -6.637085 14.824463 -14.824402 14.824463l-59.29602 0c-8.187317 0 -14.824402 -6.637146 -14.824402 -14.824463z" fill-rule="evenodd"/><path stroke="#ff0000" stroke-width="3.0" stroke-linejoin="round" stroke-linecap="butt" stroke-dasharray="12.0,9.0" d="m557.5276 580.81396l0 0c0 -8.187317 6.637085 -14.824463 14.824402 -14.824463l59.29602 0l0 0c3.9317017 0 7.7023315 1.5618286 10.482422 4.34198c2.7801514 2.7800903 4.34198 6.5507812 4.34198 10.482483l0 70.2251c0 8.187317 -6.637085 14.824463 -14.824402 14.824463l-59.29602 0c-8.187317 0 -14.824402 -6.637146 -14.824402 -14.824463z" fill-rule="evenodd"/><path fill="#000000" fill-opacity="0.0" d="m357.1811 290.87927l-94.36218 117.95276" fill-rule="evenodd"/><path stroke="#6aa84f" stroke-width="3.0" stroke-linejoin="round" stroke-linecap="butt" d="m357.1811 290.87927l-83.117676 103.897095" fill-rule="evenodd"/><path fill="#6aa84f" stroke="#6aa84f" stroke-width="3.0" stroke-linecap="butt" d="m270.19406 391.6809l-4.635437 13.72644l12.3741455 -7.535492z" fill-rule="evenodd"/><path fill="#000000" fill-opacity="0.0" d="m363.41208 318.937l88.944885 65.5748" fill-rule="evenodd"/><path stroke="#ff0000" stroke-width="3.0" stroke-linejoin="round" stroke-linecap="butt" stroke-dasharray="12.0,9.0" d="m363.41208 318.937l74.456726 54.89337" fill-rule="evenodd"/><path fill="#ff0000" stroke="#ff0000" stroke-width="3.0" stroke-linecap="butt" d="m434.9283 377.81882l13.89859 4.090454l-8.017639 -12.067322z" fill-rule="evenodd"/><path fill="#000000" fill-opacity="0.0" d="m602.0 279.72964l88.944885 125.95276" fill-rule="evenodd"/><path stroke="#6aa84f" stroke-width="3.0" stroke-linejoin="round" stroke-linecap="butt" d="m602.0 279.72964l78.56171 111.24939" fill-rule="evenodd"/><path fill="#6aa84f" stroke="#6aa84f" stroke-width="3.0" stroke-linecap="butt" d="m676.51404 393.8374l11.901001 8.262512l-3.805664 -13.979248z" fill-rule="evenodd"/><path fill="#000000" fill-opacity="0.0" d="m274.4672 488.41733l-88.944885 68.81888" fill-rule="evenodd"/><path stroke="#ff0000" stroke-width="3.0" stroke-linejoin="round" stroke-linecap="butt" stroke-dasharray="12.0,9.0" d="m274.4672 488.41733l-74.70862 57.803986" fill-rule="evenodd"/><path fill="#ff0000" stroke="#ff0000" stroke-width="3.0" stroke-linecap="butt" d="m196.72627 542.3022l-7.7352905 12.250244l13.799866 -4.4120483z" fill-rule="evenodd"/><path fill="#000000" fill-opacity="0.0" d="m274.4672 488.41733l88.944885 77.5748" fill-rule="evenodd"/><path stroke="#ff0000" stroke-width="3.0" stroke-linejoin="round" stroke-linecap="butt" stroke-dasharray="12.0,9.0" d="m274.4672 488.41733l75.379456 65.7435" fill-rule="evenodd"/><path fill="#ff0000" stroke="#ff0000" stroke-width="3.0" stroke-linecap="butt" d="m346.58963 557.8952l13.517212 5.2142334l-7.0031433 -12.683044z" fill-rule="evenodd"/><path fill="#000000" fill-opacity="0.0" d="m690.9449 488.41733l-88.944885 77.5748" fill-rule="evenodd"/><path stroke="#ff0000" stroke-width="3.0" stroke-linejoin="round" stroke-linecap="butt" stroke-dasharray="12.0,9.0" d="m690.9449 488.41733l-75.379456 65.7435" fill-rule="evenodd"/><path fill="#ff0000" stroke="#ff0000" stroke-width="3.0" stroke-linecap="butt" d="m612.3084 550.4264l-7.003174 12.683044l13.517212 -5.2142334z" fill-rule="evenodd"/><path fill="#eeeeee" d="m328.6614 262.3596l0 0c0 -15.750992 12.768707 -28.5197 28.519684 -28.5197l0 0c7.563904 0 14.817993 3.0047455 20.166473 8.353226c5.34848 5.34848 8.35321 12.60257 8.35321 20.166473l0 0c0 15.750977 -12.768677 28.519684 -28.519684 28.519684l0 0c-15.750977 0 -28.519684 -12.768707 -28.519684 -28.519684z" fill-rule="evenodd"/><path stroke="#595959" stroke-width="2.0" stroke-linejoin="round" stroke-linecap="butt" d="m328.6614 262.3596l0 0c0 -15.750992 12.768707 -28.5197 28.519684 -28.5197l0 0c7.563904 0 14.817993 3.0047455 20.166473 8.353226c5.34848 5.34848 8.35321 12.60257 8.35321 20.166473l0 0c0 15.750977 -12.768677 28.519684 -28.519684 28.519684l0 0c-15.750977 0 -28.519684 -12.768707 -28.519684 -28.519684z" fill-rule="evenodd"/><path fill="#eeeeee" d="m584.62994 262.3596l0 0c0 -9.593231 7.7768555 -17.370087 17.370056 -17.370087l0 0c4.6068115 0 9.024963 1.8300629 12.282471 5.08757c3.2575684 3.2575226 5.0875854 7.6756744 5.0875854 12.2825165l0 0c0 9.593231 -7.7768555 17.370056 -17.370056 17.370056l0 0c-9.593201 0 -17.370056 -7.776825 -17.370056 -17.370056z" fill-rule="evenodd"/><path stroke="#595959" stroke-width="2.0" stroke-linejoin="round" stroke-linecap="butt" d="m584.62994 262.3596l0 0c0 -9.593231 7.7768555 -17.370087 17.370056 -17.370087l0 0c4.6068115 0 9.024963 1.8300629 12.282471 5.08757c3.2575684 3.2575226 5.0875854 7.6756744 5.0875854 12.2825165l0 0c0 9.593231 -7.7768555 17.370056 -17.370056 17.370056l0 0c-9.593201 0 -17.370056 -7.776825 -17.370056 -17.370056z" fill-rule="evenodd"/><path fill="#eeeeee" d="m245.45145 426.2152l0 0c0 -9.593231 7.77684 -17.370056 17.370087 -17.370056l0 0c4.6068115 0 9.024963 1.8300476 12.282501 5.087555c3.2575073 3.2575378 5.087555 7.6756897 5.087555 12.282501l0 0c0 9.593231 -7.776825 17.370087 -17.370056 17.370087l0 0c-9.593246 0 -17.370087 -7.7768555 -17.370087 -17.370087z" fill-rule="evenodd"/><path stroke="#595959" stroke-width="2.0" stroke-linejoin="round" stroke-linecap="butt" d="m245.45145 426.2152l0 0c0 -9.593231 7.77684 -17.370056 17.370087 -17.370056l0 0c4.6068115 0 9.024963 1.8300476 12.282501 5.087555c3.2575073 3.2575378 5.087555 7.6756897 5.087555 12.282501l0 0c0 9.593231 -7.776825 17.370087 -17.370056 17.370087l0 0c-9.593246 0 -17.370087 -7.7768555 -17.370087 -17.370087z" fill-rule="evenodd"/><path fill="#eeeeee" d="m658.1575 438.48294l0 0c0 -18.107971 14.679443 -32.787415 32.787415 -32.787415l0 0c8.69574 0 17.03534 3.4543762 23.184204 9.60321c6.1488037 6.148834 9.60321 14.488434 9.60321 23.184204l0 0c0 18.107971 -14.679443 32.787415 -32.787415 32.787415l0 0c-18.107971 0 -32.787415 -14.679443 -32.787415 -32.787415z" fill-rule="evenodd"/><path stroke="#595959" stroke-width="2.0" stroke-linejoin="round" stroke-linecap="butt" d="m658.1575 438.48294l0 0c0 -18.107971 14.679443 -32.787415 32.787415 -32.787415l0 0c8.69574 0 17.03534 3.4543762 23.184204 9.60321c6.1488037 6.148834 9.60321 14.488434 9.60321 23.184204l0 0c0 18.107971 -14.679443 32.787415 -32.787415 32.787415l0 0c-18.107971 0 -32.787415 -14.679443 -32.787415 -32.787415z" fill-rule="evenodd"/><path fill="#ffffff" d="m435.52756 70.02917l0 0c0 -8.187313 6.637146 -14.824444 14.824432 -14.824444l59.29602 0l0 0c3.9317017 0 7.7023315 1.5618591 10.482422 4.34198c2.7801514 2.7801208 4.34198 6.5507774 4.34198 10.482464l0 70.225136c0 8.187302 -6.637085 14.824432 -14.824402 14.824432l-59.29602 0c-8.187286 0 -14.824432 -6.6371307 -14.824432 -14.824432z" fill-rule="evenodd"/><path stroke="#000000" stroke-width="3.0" stroke-linejoin="round" stroke-linecap="butt" d="m435.52756 70.02917l0 0c0 -8.187313 6.637146 -14.824444 14.824432 -14.824444l59.29602 0l0 0c3.9317017 0 7.7023315 1.5618591 10.482422 4.34198c2.7801514 2.7801208 4.34198 6.5507774 4.34198 10.482464l0 70.225136c0 8.187302 -6.637085 14.824432 -14.824402 14.824432l-59.29602 0c-8.187286 0 -14.824432 -6.6371307 -14.824432 -14.824432z" fill-rule="evenodd"/><path fill="#000000" fill-opacity="0.0" d="m452.22693 108.439735l-74.86615 133.76376" fill-rule="evenodd"/><path stroke="#6aa84f" stroke-width="3.0" stroke-linejoin="round" stroke-linecap="butt" d="m452.22696 108.439735l-66.07501 118.05659" fill-rule="evenodd"/><path fill="#6aa84f" stroke="#6aa84f" stroke-width="3.0" stroke-linecap="butt" d="m381.82794 224.07622l-2.3251648 14.300232l10.973175 -9.460022z" fill-rule="evenodd"/><path fill="#000000" fill-opacity="0.0" d="m511.068 141.67693l78.64569 108.409454" fill-rule="evenodd"/><path stroke="#6aa84f" stroke-width="3.0" stroke-linejoin="round" stroke-linecap="butt" d="m511.068 141.67693l68.07593 93.8396" fill-rule="evenodd"/><path fill="#6aa84f" stroke="#6aa84f" stroke-width="3.0" stroke-linecap="butt" d="m575.13306 238.42624l12.00531 8.110199l-3.9835205 -13.929642z" fill-rule="evenodd"/><path fill="#eeeeee" d="m447.86353 97.90551l0 0c0 -8.227737 6.6698914 -14.897636 14.897644 -14.897636l0 0c3.9510803 0 7.7403564 1.5695648 10.53421 4.3634186c2.7938538 2.7938461 4.3634033 6.5831223 4.3634033 10.534218l0 0c0 8.227737 -6.6698914 14.897636 -14.897614 14.897636l0 0c-8.227753 0 -14.897644 -6.669899 -14.897644 -14.897636z" fill-rule="evenodd"/><path stroke="#595959" stroke-width="2.0" stroke-linejoin="round" stroke-linecap="butt" d="m447.86353 97.90551l0 0c0 -8.227737 6.6698914 -14.897636 14.897644 -14.897636l0 0c3.9510803 0 7.7403564 1.5695648 10.53421 4.3634186c2.7938538 2.7938461 4.3634033 6.5831223 4.3634033 10.534218l0 0c0 8.227737 -6.6698914 14.897636 -14.897614 14.897636l0 0c-8.227753 0 -14.897644 -6.669899 -14.897644 -14.897636z" fill-rule="evenodd"/><path fill="#eeeeee" d="m473.2966 126.031494l0 0c0 -12.219841 9.906128 -22.125984 22.125977 -22.125984l0 0c5.868164 0 11.496002 2.3311234 15.645416 6.4805527c4.149414 4.1494293 6.480591 9.77726 6.480591 15.6454315l0 0c0 12.219849 -9.906158 22.125992 -22.126007 22.125992l0 0c-12.219849 0 -22.125977 -9.906143 -22.125977 -22.125992z" fill-rule="evenodd"/><path stroke="#595959" stroke-width="2.0" stroke-linejoin="round" stroke-linecap="butt" d="m473.2966 126.031494l0 0c0 -12.219841 9.906128 -22.125984 22.125977 -22.125984l0 0c5.868164 0 11.496002 2.3311234 15.645416 6.4805527c4.149414 4.1494293 6.480591 9.77726 6.480591 15.6454315l0 0c0 12.219849 -9.906158 22.125992 -22.126007 22.125992l0 0c-12.219849 0 -22.125977 -9.906143 -22.125977 -22.125992z" fill-rule="evenodd"/></g></svg>