<?xml version="1.0" encoding="UTF-8" standalone="no"?>
<svg
   xmlns:dc="http://purl.org/dc/elements/1.1/"
   xmlns:cc="http://creativecommons.org/ns#"
   xmlns:rdf="http://www.w3.org/1999/02/22-rdf-syntax-ns#"
   xmlns:svg="http://www.w3.org/2000/svg"
   xmlns="http://www.w3.org/2000/svg"
   viewBox="0 0 215.25999 248.56265"
   height="248.56265"
   width="215.25999"
   xml:space="preserve"
   id="svg2125"
   version="1.1"><metadata
     id="metadata2131"><rdf:RDF><cc:Work
         rdf:about=""><dc:format>image/svg+xml</dc:format><dc:type
           rdf:resource="http://purl.org/dc/dcmitype/StillImage" /><dc:title></dc:title></cc:Work></rdf:RDF></metadata><defs
     id="defs2129" /><g
     transform="matrix(1.3333333,0,0,1.3333333,0,3.5473998e-6)"
     id="g2133"><g
       id="g2135"><path
         id="path2137"
         style="fill:#445500;fill-opacity:1;fill-rule:nonzero;stroke:none"
         d="M 161.445,139.816 80.723,186.422 0,139.816 V 46.605 L 80.723,0 161.445,46.605 Z" /><g
         id="g2139"><path
           id="path2141"
           style="fill:#ffffff;fill-opacity:1;fill-rule:nonzero;stroke:#ffffff;stroke-width:6.16819;stroke-linecap:butt;stroke-linejoin:miter;stroke-miterlimit:4;stroke-dasharray:none;stroke-opacity:1"
           d="m 97.336,62.328 c 0,9.41 -7.629,17.035 -17.035,17.035 -9.41,0 -17.035,-7.625 -17.035,-17.035 0,-9.406 7.625,-17.035 17.035,-17.035 9.406,0 17.035,7.629 17.035,17.035 z" /></g><g
         id="g2143"><path
           id="path2145"
           style="fill:#ffffff;fill-opacity:1;fill-rule:nonzero;stroke:#ffffff;stroke-width:4.08904;stroke-linecap:butt;stroke-linejoin:miter;stroke-miterlimit:4;stroke-dasharray:none;stroke-opacity:1"
           d="m 143.672,115.844 c 0,6.234 -5.055,11.293 -11.293,11.293 -6.238,0 -11.293,-5.059 -11.293,-11.293 0,-6.239 5.055,-11.293 11.293,-11.293 6.238,0 11.293,5.054 11.293,11.293 z" /></g><g
         id="g2147"><path
           id="path2149"
           style="fill:#ffffff;fill-opacity:1;fill-rule:nonzero;stroke:#ffffff;stroke-width:4.08904;stroke-linecap:butt;stroke-linejoin:miter;stroke-miterlimit:4;stroke-dasharray:none;stroke-opacity:1"
           d="m 75.441,116.902 c 0,6.239 -5.058,11.293 -11.293,11.293 -6.238,0 -11.296,-5.054 -11.296,-11.293 0,-6.238 5.058,-11.293 11.296,-11.293 6.235,0 11.293,5.055 11.293,11.293 z" /></g><g
         id="g2151"><path
           id="path2153"
           style="fill:#ffffff;fill-opacity:1;fill-rule:nonzero;stroke:#ffffff;stroke-width:4.08904;stroke-linecap:butt;stroke-linejoin:miter;stroke-miterlimit:4;stroke-dasharray:none;stroke-opacity:1"
           d="m 109.914,117.086 c 0,6.238 -5.059,11.293 -11.293,11.293 -6.238,0 -11.293,-5.055 -11.293,-11.293 0,-6.234 5.055,-11.293 11.293,-11.293 6.234,0 11.293,5.059 11.293,11.293 z" /></g><g
         id="g2155"><path
           id="path2157"
           style="fill:#ffffff;fill-opacity:1;fill-rule:nonzero;stroke:#ffffff;stroke-width:4.08904;stroke-linecap:butt;stroke-linejoin:miter;stroke-miterlimit:4;stroke-dasharray:none;stroke-opacity:1"
           d="m 41.332,117.852 c 0,6.238 -5.055,11.293 -11.293,11.293 -6.238,0 -11.293,-5.055 -11.293,-11.293 0,-6.235 5.055,-11.293 11.293,-11.293 6.238,0 11.293,5.058 11.293,11.293 z" /></g><g
         id="g2159"><path
           id="path2161"
           style="fill:#ffffff;fill-opacity:1;fill-rule:nonzero;stroke:#ffffff;stroke-width:2.1685;stroke-linecap:butt;stroke-linejoin:miter;stroke-miterlimit:4;stroke-dasharray:none;stroke-opacity:1"
           d="M 71.727,70.688 29.672,117.16" /></g><g
         id="g2163"><path
           id="path2165"
           style="fill:#ffffff;fill-opacity:1;fill-rule:nonzero;stroke:#ffffff;stroke-width:2.1685;stroke-linecap:butt;stroke-linejoin:miter;stroke-miterlimit:4;stroke-dasharray:none;stroke-opacity:1"
           d="M 81.637,66 63.422,116.895" /></g><g
         id="g2167"><path
           id="path2169"
           style="fill:#ffffff;fill-opacity:1;fill-rule:nonzero;stroke:#ffffff;stroke-width:2.1685;stroke-linecap:butt;stroke-linejoin:miter;stroke-miterlimit:4;stroke-dasharray:none;stroke-opacity:1"
           d="M 78.984,66.758 99.047,117.16" /></g><g
         id="g2171"><path
           id="path2173"
           style="fill:#ffffff;fill-opacity:1;fill-rule:nonzero;stroke:#ffffff;stroke-width:2.1685;stroke-linecap:butt;stroke-linejoin:miter;stroke-miterlimit:4;stroke-dasharray:none;stroke-opacity:1"
           d="m 85.117,65.062 48.352,51.563" /></g></g></g></svg>
