<?xml version="1.0" encoding="UTF-8" standalone="no"?>
<svg
   xmlns:dc="http://purl.org/dc/elements/1.1/"
   xmlns:cc="http://creativecommons.org/ns#"
   xmlns:rdf="http://www.w3.org/1999/02/22-rdf-syntax-ns#"
   xmlns:svg="http://www.w3.org/2000/svg"
   xmlns="http://www.w3.org/2000/svg"
   viewBox="0 0 723.67914 248.56265"
   height="248.56265"
   width="723.67914"
   xml:space="preserve"
   id="svg2"
   version="1.1"><metadata
     id="metadata8"><rdf:RDF><cc:Work
         rdf:about=""><dc:format>image/svg+xml</dc:format><dc:type
           rdf:resource="http://purl.org/dc/dcmitype/StillImage" /><dc:title></dc:title></cc:Work></rdf:RDF></metadata><defs
     id="defs6" /><g
     transform="matrix(1.3333333,0,0,1.3333333,0,3.5473998e-6)"
     id="g10"><g
       id="g12"><path
         id="path14"
         style="fill:#445500;fill-opacity:1;fill-rule:nonzero;stroke:none"
         d="M 161.445,139.816 80.723,186.422 0,139.816 V 46.605 L 80.723,0 161.445,46.605 Z" /><path
         id="path16"
         style="fill:#445500;fill-opacity:1;fill-rule:nonzero;stroke:none"
         d="m 195.066,111.723 c 2.688,0 4.848,-0.817 6.485,-2.453 1.644,-1.645 2.469,-3.813 2.469,-6.5 V 84.785 c 0,-2.687 -0.825,-4.836 -2.469,-6.453 -1.637,-1.625 -3.797,-2.437 -6.485,-2.437 h -7.109 v 35.828 z m -12.875,5.125 V 70.77 h 12.875 c 2.219,0 4.235,0.343 6.047,1.031 1.813,0.679 3.367,1.625 4.672,2.844 1.301,1.21 2.301,2.679 3,4.406 0.707,1.73 1.063,3.64 1.063,5.734 v 17.985 c 0,2.093 -0.356,4.015 -1.063,5.765 -0.699,1.742 -1.699,3.219 -3,4.438 -1.305,1.218 -2.859,2.172 -4.672,2.859 -1.812,0.68 -3.828,1.016 -6.047,1.016 z" /><path
         id="path18"
         style="fill:#445500;fill-opacity:1;fill-rule:nonzero;stroke:none"
         d="m 228.895,117.488 c -4.399,0 -7.844,-1.191 -10.344,-3.578 -2.492,-2.394 -3.735,-5.68 -3.735,-9.859 v -9.61 c 0,-4.175 1.243,-7.457 3.735,-9.843 2.5,-2.395 5.945,-3.594 10.344,-3.594 4.394,0 7.835,1.199 10.328,3.594 2.5,2.386 3.75,5.668 3.75,9.843 v 6.469 h -22.407 v 2.813 c 0,2.687 0.735,4.804 2.204,6.343 1.476,1.532 3.519,2.297 6.125,2.297 1.914,0 3.578,-0.297 4.984,-0.89 1.406,-0.594 2.453,-1.469 3.141,-2.625 h 5.765 c -0.73,2.687 -2.344,4.804 -4.844,6.343 -2.492,1.532 -5.507,2.297 -9.046,2.297 z m 8.312,-21.375 v -1.672 c 0,-2.644 -0.727,-4.691 -2.172,-6.14 -1.449,-1.446 -3.496,-2.172 -6.14,-2.172 -2.649,0 -4.7,0.726 -6.157,2.172 -1.449,1.449 -2.172,3.496 -2.172,6.14 v 1.672 z" /><path
         id="path20"
         style="fill:#445500;fill-opacity:1;fill-rule:nonzero;stroke:none"
         d="m 253.895,81.645 v 6.078 h 0.5 c 0.562,-2.125 1.691,-3.774 3.39,-4.953 1.707,-1.176 3.863,-1.766 6.469,-1.766 1.789,0 3.41,0.324 4.859,0.969 1.457,0.636 2.696,1.543 3.719,2.718 1.02,1.168 1.816,2.606 2.391,4.313 0.582,1.711 0.875,3.633 0.875,5.766 v 8.953 c 0,2.136 -0.293,4.058 -0.875,5.765 -0.575,1.711 -1.371,3.153 -2.391,4.328 -1.023,1.168 -2.262,2.075 -3.719,2.719 -1.449,0.633 -3.07,0.953 -4.859,0.953 -2.606,0 -4.762,-0.586 -6.469,-1.75 -1.699,-1.176 -2.828,-2.832 -3.39,-4.968 h -0.5 c 0.039,0.73 0.101,1.453 0.187,2.171 0.039,0.649 0.07,1.313 0.094,2 0.019,0.68 0.031,1.313 0.031,1.907 v 10.562 h -5.766 V 81.645 Z m 0.312,22.078 c 0,2.687 0.711,4.824 2.141,6.406 1.437,1.574 3.347,2.359 5.734,2.359 2.563,0 4.578,-0.785 6.047,-2.359 1.469,-1.582 2.203,-3.719 2.203,-6.406 V 94.77 c 0,-2.77 -0.727,-4.922 -2.172,-6.454 -1.449,-1.539 -3.476,-2.312 -6.078,-2.312 -2.387,0 -4.297,0.793 -5.734,2.375 -1.43,1.574 -2.141,3.703 -2.141,6.391 z" /><path
         id="path22"
         style="fill:#445500;fill-opacity:1;fill-rule:nonzero;stroke:none"
         d="M 278.754,116.848 291.301,70.77 h 8.062 l 12.157,46.078 h -6.141 l -3.203,-12.985 h -14.141 l -3.265,12.985 z m 10.5,-17.797 h 11.781 l -4.484,-18.235 c -0.219,-0.894 -0.414,-1.711 -0.578,-2.453 -0.168,-0.75 -0.297,-1.425 -0.391,-2.031 -0.086,-0.633 -0.168,-1.207 -0.25,-1.719 h -0.25 c -0.086,0.512 -0.195,1.086 -0.328,1.719 -0.086,0.606 -0.215,1.281 -0.391,2.031 -0.168,0.742 -0.355,1.559 -0.562,2.453 z" /><path
         id="path24"
         style="fill:#445500;fill-opacity:1;fill-rule:nonzero;stroke:none"
         d="M 314.691,116.848 V 81.645 h 5.454 v 6.078 h 0.5 c 0.562,-2.125 1.679,-3.774 3.359,-4.953 1.687,-1.176 3.789,-1.766 6.312,-1.766 1.75,0 3.336,0.305 4.766,0.906 1.426,0.594 2.641,1.438 3.641,2.531 1.007,1.086 1.789,2.387 2.343,3.907 0.551,1.511 0.829,3.203 0.829,5.078 v 23.422 h -5.75 V 94.379 c 0,-2.688 -0.688,-4.774 -2.063,-6.266 -1.367,-1.488 -3.262,-2.234 -5.687,-2.234 -2.43,0 -4.36,0.805 -5.797,2.406 -1.43,1.594 -2.141,3.758 -2.141,6.485 v 22.078 z" /><path
         id="path26"
         style="fill:#445500;fill-opacity:1;fill-rule:nonzero;stroke:none"
         d="m 346.223,106.613 c 0,-1.664 0.285,-3.172 0.859,-4.515 0.582,-1.344 1.414,-2.485 2.5,-3.422 1.094,-0.938 2.406,-1.66 3.938,-2.172 1.531,-0.52 3.257,-0.781 5.187,-0.781 h 10.5 v -2.875 c 0,-2.176 -0.719,-3.868 -2.156,-5.078 -1.43,-1.219 -3.485,-1.829 -6.172,-1.829 -1.961,0 -3.637,0.368 -5.031,1.094 -1.387,0.719 -2.313,1.719 -2.782,3 h -5.75 c 0.594,-2.769 2.114,-4.969 4.563,-6.594 2.457,-1.625 5.5,-2.437 9.125,-2.437 4.351,0 7.766,1.016 10.234,3.047 2.477,2.023 3.719,4.851 3.719,8.484 v 24.313 h -5.25 v -6.719 h -0.5 c -0.562,2.262 -1.871,4.055 -3.922,5.375 -2.043,1.324 -4.539,1.984 -7.484,1.984 -3.543,0 -6.36,-0.976 -8.453,-2.937 -2.086,-1.969 -3.125,-4.613 -3.125,-7.938 z m 12.859,6.141 c 1.457,0 2.801,-0.192 4.031,-0.578 1.239,-0.383 2.305,-0.926 3.203,-1.625 0.895,-0.707 1.598,-1.531 2.11,-2.469 0.519,-0.937 0.781,-1.961 0.781,-3.078 v -4.797 h -10.375 c -2.137,0 -3.812,0.559 -5.031,1.672 -1.211,1.105 -1.813,2.637 -1.813,4.594 0,1.968 0.614,3.511 1.844,4.625 1.238,1.105 2.988,1.656 5.25,1.656 z" /><path
         id="path28"
         style="fill:#445500;fill-opacity:1;fill-rule:nonzero;stroke:none"
         d="m 395.285,70.129 v 36.484 c 0,1.575 0.426,2.797 1.281,3.672 0.852,0.875 2.024,1.313 3.516,1.313 h 10.438 v 5.25 h -10.438 c -3.281,0 -5.867,-0.907 -7.75,-2.719 -1.875,-1.813 -2.812,-4.317 -2.812,-7.516 V 75.379 h -11.641 v -5.25 z" /><path
         id="path30"
         style="fill:#445500;fill-opacity:1;fill-rule:nonzero;stroke:none"
         d="m 418.035,81.645 8.063,20.234 c 0.382,0.98 0.691,1.898 0.922,2.75 0.238,0.855 0.425,1.601 0.562,2.234 0.164,0.813 0.27,1.539 0.313,2.172 h 0.453 c 0.039,-0.633 0.144,-1.336 0.312,-2.109 0.133,-0.676 0.305,-1.442 0.516,-2.297 0.219,-0.852 0.492,-1.77 0.828,-2.75 l 7.422,-20.234 h 6.219 l -17.094,45.765 h -6.141 l 4.86,-13.125 -13.625,-32.64 z" /><path
         id="path32"
         style="fill:#445500;fill-opacity:1;fill-rule:nonzero;stroke:none"
         d="m 447.191,81.645 h 26.954 v 6.468 l -21.704,23.875 c 0.469,-0.039 0.985,-0.082 1.547,-0.125 0.469,-0.051 0.977,-0.086 1.532,-0.109 0.55,-0.02 1.128,-0.031 1.734,-0.031 h 17.594 v 5.125 h -28.157 v -6.407 l 21.813,-23.859 c -0.512,0.043 -1.063,0.063 -1.656,0.063 -0.469,0.043 -1.016,0.074 -1.641,0.093 -0.617,0.024 -1.219,0.032 -1.812,0.032 h -16.204 z" /><path
         id="path34"
         style="fill:#445500;fill-opacity:1;fill-rule:nonzero;stroke:none"
         d="m 493.895,117.488 c -4.399,0 -7.844,-1.191 -10.344,-3.578 -2.492,-2.394 -3.735,-5.68 -3.735,-9.859 v -9.61 c 0,-4.175 1.243,-7.457 3.735,-9.843 2.5,-2.395 5.945,-3.594 10.344,-3.594 4.394,0 7.835,1.199 10.328,3.594 2.5,2.386 3.75,5.668 3.75,9.843 v 6.469 h -22.407 v 2.813 c 0,2.687 0.735,4.804 2.204,6.343 1.476,1.532 3.519,2.297 6.125,2.297 1.914,0 3.578,-0.297 4.984,-0.89 1.406,-0.594 2.453,-1.469 3.141,-2.625 h 5.765 c -0.73,2.687 -2.344,4.804 -4.844,6.343 -2.492,1.532 -5.507,2.297 -9.046,2.297 z m 8.312,-21.375 v -1.672 c 0,-2.644 -0.727,-4.691 -2.172,-6.14 -1.449,-1.446 -3.496,-2.172 -6.14,-2.172 -2.649,0 -4.7,0.726 -6.157,2.172 -1.449,1.449 -2.172,3.496 -2.172,6.14 v 1.672 z" /><path
         id="path36"
         style="fill:#445500;fill-opacity:1;fill-rule:nonzero;stroke:none"
         d="m 514.988,81.645 h 5.438 v 6.078 h 0.515 c 0.551,-2.082 1.704,-3.723 3.454,-4.922 1.75,-1.196 3.906,-1.797 6.468,-1.797 3.707,0 6.614,1.168 8.719,3.5 2.113,2.324 3.172,5.512 3.172,9.562 v 1.985 h -5.75 V 94.77 c 0,-2.77 -0.695,-4.911 -2.078,-6.422 -1.387,-1.52 -3.36,-2.282 -5.922,-2.282 -2.524,0 -4.531,0.782 -6.031,2.344 -1.493,1.555 -2.235,3.672 -2.235,6.36 v 22.078 h -5.75 z" /><g
         id="g38"><path
           id="path40"
           style="fill:#ffffff;fill-opacity:1;fill-rule:nonzero;stroke:#ffffff;stroke-width:6.16819477;stroke-linecap:butt;stroke-linejoin:miter;stroke-miterlimit:4;stroke-dasharray:none;stroke-opacity:1"
           d="m 97.336,62.328 c 0,9.41 -7.629,17.035 -17.035,17.035 -9.41,0 -17.035,-7.625 -17.035,-17.035 0,-9.406 7.625,-17.035 17.035,-17.035 9.406,0 17.035,7.629 17.035,17.035 z" /></g><g
         id="g42"><path
           id="path44"
           style="fill:#ffffff;fill-opacity:1;fill-rule:nonzero;stroke:#ffffff;stroke-width:4.08903694;stroke-linecap:butt;stroke-linejoin:miter;stroke-miterlimit:4;stroke-dasharray:none;stroke-opacity:1"
           d="m 143.672,115.844 c 0,6.234 -5.055,11.293 -11.293,11.293 -6.238,0 -11.293,-5.059 -11.293,-11.293 0,-6.239 5.055,-11.293 11.293,-11.293 6.238,0 11.293,5.054 11.293,11.293 z" /></g><g
         id="g46"><path
           id="path48"
           style="fill:#ffffff;fill-opacity:1;fill-rule:nonzero;stroke:#ffffff;stroke-width:4.08903694;stroke-linecap:butt;stroke-linejoin:miter;stroke-miterlimit:4;stroke-dasharray:none;stroke-opacity:1"
           d="m 75.441,116.902 c 0,6.239 -5.058,11.293 -11.293,11.293 -6.238,0 -11.296,-5.054 -11.296,-11.293 0,-6.238 5.058,-11.293 11.296,-11.293 6.235,0 11.293,5.055 11.293,11.293 z" /></g><g
         id="g50"><path
           id="path52"
           style="fill:#ffffff;fill-opacity:1;fill-rule:nonzero;stroke:#ffffff;stroke-width:4.08903694;stroke-linecap:butt;stroke-linejoin:miter;stroke-miterlimit:4;stroke-dasharray:none;stroke-opacity:1"
           d="m 109.914,117.086 c 0,6.238 -5.059,11.293 -11.293,11.293 -6.238,0 -11.293,-5.055 -11.293,-11.293 0,-6.234 5.055,-11.293 11.293,-11.293 6.234,0 11.293,5.059 11.293,11.293 z" /></g><g
         id="g54"><path
           id="path56"
           style="fill:#ffffff;fill-opacity:1;fill-rule:nonzero;stroke:#ffffff;stroke-width:4.08903694;stroke-linecap:butt;stroke-linejoin:miter;stroke-miterlimit:4;stroke-dasharray:none;stroke-opacity:1"
           d="m 41.332,117.852 c 0,6.238 -5.055,11.293 -11.293,11.293 -6.238,0 -11.293,-5.055 -11.293,-11.293 0,-6.235 5.055,-11.293 11.293,-11.293 6.238,0 11.293,5.058 11.293,11.293 z" /></g><g
         id="g58"><path
           id="path60"
           style="fill:#ffffff;fill-opacity:1;fill-rule:nonzero;stroke:#ffffff;stroke-width:2.168504;stroke-linecap:butt;stroke-linejoin:miter;stroke-miterlimit:4;stroke-dasharray:none;stroke-opacity:1"
           d="M 71.727,70.688 29.672,117.16" /></g><g
         id="g62"><path
           id="path64"
           style="fill:#ffffff;fill-opacity:1;fill-rule:nonzero;stroke:#ffffff;stroke-width:2.168504;stroke-linecap:butt;stroke-linejoin:miter;stroke-miterlimit:4;stroke-dasharray:none;stroke-opacity:1"
           d="M 81.637,66 63.422,116.895" /></g><g
         id="g66"><path
           id="path68"
           style="fill:#ffffff;fill-opacity:1;fill-rule:nonzero;stroke:#ffffff;stroke-width:2.168504;stroke-linecap:butt;stroke-linejoin:miter;stroke-miterlimit:4;stroke-dasharray:none;stroke-opacity:1"
           d="M 78.984,66.758 99.047,117.16" /></g><g
         id="g70"><path
           id="path72"
           style="fill:#ffffff;fill-opacity:1;fill-rule:nonzero;stroke:#ffffff;stroke-width:2.168504;stroke-linecap:butt;stroke-linejoin:miter;stroke-miterlimit:4;stroke-dasharray:none;stroke-opacity:1"
           d="m 85.117,65.062 48.352,51.563" /></g></g></g></svg>