<?xml version="1.0" encoding="UTF-8" standalone="no"?>
<!-- Created with Inkscape (http://www.inkscape.org/) -->

<svg
   xmlns:dc="http://purl.org/dc/elements/1.1/"
   xmlns:cc="http://creativecommons.org/ns#"
   xmlns:rdf="http://www.w3.org/1999/02/22-rdf-syntax-ns#"
   xmlns:svg="http://www.w3.org/2000/svg"
   xmlns="http://www.w3.org/2000/svg"
   xmlns:sodipodi="http://sodipodi.sourceforge.net/DTD/sodipodi-0.dtd"
   xmlns:inkscape="http://www.inkscape.org/namespaces/inkscape"
   version="1.1"
   id="svg2"
   xml:space="preserve"
   width="747.22827"
   height="248.56323"
   viewBox="0 0 747.22827 248.56323"
   sodipodi:docname="DepHeaven.svg"
   inkscape:version="0.92.4 (5da689c313, 2019-01-14)"><metadata
     id="metadata8"><rdf:RDF><cc:Work
         rdf:about=""><dc:format>image/svg+xml</dc:format><dc:type
           rdf:resource="http://purl.org/dc/dcmitype/StillImage" /><dc:title></dc:title></cc:Work></rdf:RDF></metadata><defs
     id="defs6" /><sodipodi:namedview
     pagecolor="#ffffff"
     bordercolor="#666666"
     borderopacity="1"
     objecttolerance="10"
     gridtolerance="10"
     guidetolerance="10"
     inkscape:pageopacity="0"
     inkscape:pageshadow="2"
     inkscape:window-width="3840"
     inkscape:window-height="2086"
     id="namedview4"
     showgrid="false"
     inkscape:zoom="0.92073604"
     inkscape:cx="380.13066"
     inkscape:cy="124.28162"
     inkscape:window-x="0"
     inkscape:window-y="246"
     inkscape:window-maximized="1"
     inkscape:current-layer="g10" /><g
     id="g10"
     inkscape:groupmode="layer"
     inkscape:label="DepHeaven"
     transform="matrix(1.3333333,0,0,1.3333333,0,4.2140807e-6)"><g
       id="g12"><path
         d="M 164.684,139.816 83.961,186.422 3.238,139.816 V 46.605 L 83.961,0 164.684,46.605 Z"
         style="fill:#0079ff;fill-opacity:1;fill-rule:nonzero;stroke:none"
         id="path14"
         inkscape:connector-curvature="0" /><g
         id="g16"><path
           d="m 200.383,118.238 c 3.351,0 6.055,-1.023 8.109,-3.078 2.051,-2.051 3.078,-4.754 3.078,-8.109 V 84.566 c 0,-3.363 -1.027,-6.054 -3.078,-8.078 -2.054,-2.031 -4.758,-3.047 -8.109,-3.047 h -8.891 v 44.797 z m -16.078,6.407 V 67.051 h 16.078 c 2.769,0 5.285,0.429 7.547,1.281 2.269,0.844 4.218,2.027 5.843,3.547 1.625,1.523 2.875,3.367 3.75,5.531 0.883,2.156 1.329,4.543 1.329,7.156 v 22.485 c 0,2.605 -0.446,5 -1.329,7.187 -0.875,2.188 -2.125,4.043 -3.75,5.563 -1.625,1.523 -3.574,2.711 -5.843,3.562 -2.262,0.856 -4.778,1.282 -7.547,1.282 z"
           style="fill:#0079ff;fill-opacity:1;fill-rule:nonzero;stroke:#ffffff;stroke-width:0.75;stroke-linecap:butt;stroke-linejoin:miter;stroke-miterlimit:4;stroke-dasharray:none;stroke-opacity:1"
           id="path18"
           inkscape:connector-curvature="0" /></g><g
         id="g20"><path
           d="m 243.977,125.441 c -5.493,0 -9.797,-1.488 -12.922,-4.468 -3.117,-2.989 -4.672,-7.098 -4.672,-12.328 v -12 c 0,-5.227 1.555,-9.333 4.672,-12.313 3.125,-2.988 7.429,-4.484 12.922,-4.484 5.488,0 9.789,1.496 12.906,4.484 3.125,2.98 4.687,7.086 4.687,12.313 v 8.078 h -28 v 3.515 c 0,3.367 0.922,6.012 2.766,7.938 1.844,1.918 4.391,2.875 7.641,2.875 2.394,0 4.472,-0.375 6.234,-1.125 1.758,-0.75 3.066,-1.844 3.922,-3.281 h 7.203 c -0.906,3.367 -2.922,6.007 -6.047,7.921 -3.117,1.918 -6.887,2.875 -11.312,2.875 z m 10.406,-26.718 v -2.078 c 0,-3.301 -0.914,-5.86 -2.735,-7.672 -1.812,-1.821 -4.371,-2.735 -7.671,-2.735 -3.305,0 -5.868,0.914 -7.688,2.735 -1.812,1.812 -2.719,4.371 -2.719,7.672 v 2.078 z"
           style="fill:#0079ff;fill-opacity:1;fill-rule:nonzero;stroke:#ffffff;stroke-width:0.75;stroke-linecap:butt;stroke-linejoin:miter;stroke-miterlimit:4;stroke-dasharray:none;stroke-opacity:1"
           id="path22"
           inkscape:connector-curvature="0" /></g><g
         id="g24"><path
           d="m 276.539,80.645 v 7.593 h 0.641 c 0.687,-2.664 2.097,-4.726 4.234,-6.187 2.133,-1.469 4.828,-2.203 8.078,-2.203 2.238,0 4.266,0.402 6.078,1.203 1.813,0.793 3.36,1.922 4.641,3.39 1.281,1.469 2.281,3.274 3,5.407 0.719,2.136 1.078,4.539 1.078,7.203 v 11.187 c 0,2.668 -0.359,5.071 -1.078,7.203 -0.719,2.137 -1.719,3.938 -3,5.407 -1.281,1.468 -2.828,2.605 -4.641,3.406 -1.812,0.789 -3.84,1.187 -6.078,1.187 -3.25,0 -5.945,-0.73 -8.078,-2.187 -2.137,-1.469 -3.547,-3.535 -4.234,-6.203 h -0.641 c 0.051,0.906 0.129,1.812 0.234,2.719 0.051,0.792 0.086,1.617 0.11,2.468 0.031,0.856 0.047,1.657 0.047,2.407 v 13.203 h -7.188 V 80.645 Z m 0.391,27.593 c 0,3.367 0.89,6.039 2.672,8.016 1.789,1.969 4.179,2.953 7.171,2.953 3.196,0 5.719,-0.984 7.563,-2.953 1.844,-1.977 2.766,-4.649 2.766,-8.016 V 97.051 c 0,-3.469 -0.914,-6.16 -2.735,-8.078 -1.812,-1.926 -4.344,-2.891 -7.594,-2.891 -2.992,0 -5.382,0.992 -7.171,2.969 -1.782,1.969 -2.672,4.637 -2.672,8 z"
           style="fill:#0079ff;fill-opacity:1;fill-rule:nonzero;stroke:#ffffff;stroke-width:0.75;stroke-linecap:butt;stroke-linejoin:miter;stroke-miterlimit:4;stroke-dasharray:none;stroke-opacity:1"
           id="path26"
           inkscape:connector-curvature="0" /></g><g
         id="g28"><path
           d="m 319.82,67.051 v 24.312 h 19.188 V 67.051 h 7.203 v 57.594 h -7.203 V 97.926 H 319.82 v 26.719 h -7.203 V 67.051 Z"
           style="fill:#0079ff;fill-opacity:1;fill-rule:nonzero;stroke:#ffffff;stroke-width:0.75;stroke-linecap:butt;stroke-linejoin:miter;stroke-miterlimit:4;stroke-dasharray:none;stroke-opacity:1"
           id="path30"
           inkscape:connector-curvature="0" /></g><g
         id="g32"><path
           d="m 372.133,125.441 c -5.492,0 -9.797,-1.488 -12.922,-4.468 -3.117,-2.989 -4.672,-7.098 -4.672,-12.328 v -12 c 0,-5.227 1.555,-9.333 4.672,-12.313 3.125,-2.988 7.43,-4.484 12.922,-4.484 5.488,0 9.789,1.496 12.906,4.484 3.125,2.98 4.688,7.086 4.688,12.313 v 8.078 h -28 v 3.515 c 0,3.367 0.921,6.012 2.765,7.938 1.844,1.918 4.391,2.875 7.641,2.875 2.394,0 4.472,-0.375 6.234,-1.125 1.758,-0.75 3.067,-1.844 3.922,-3.281 h 7.203 c -0.906,3.367 -2.922,6.007 -6.047,7.921 -3.117,1.918 -6.886,2.875 -11.312,2.875 z m 10.406,-26.718 v -2.078 c 0,-3.301 -0.914,-5.86 -2.734,-7.672 -1.813,-1.821 -4.371,-2.735 -7.672,-2.735 -3.305,0 -5.867,0.914 -7.688,2.735 -1.812,1.812 -2.718,4.371 -2.718,7.672 v 2.078 z"
           style="fill:#0079ff;fill-opacity:1;fill-rule:nonzero;stroke:#ffffff;stroke-width:0.75;stroke-linecap:butt;stroke-linejoin:miter;stroke-miterlimit:4;stroke-dasharray:none;stroke-opacity:1"
           id="path34"
           inkscape:connector-curvature="0" /></g><g
         id="g36"><path
           d="m 395.898,111.848 c 0,-2.082 0.36,-3.961 1.079,-5.641 0.718,-1.676 1.753,-3.102 3.109,-4.281 1.363,-1.176 3.004,-2.082 4.922,-2.719 1.926,-0.645 4.086,-0.969 6.484,-0.969 h 13.125 v -3.593 c 0,-2.719 -0.898,-4.836 -2.687,-6.36 -1.782,-1.519 -4.356,-2.281 -7.719,-2.281 -2.449,0 -4.543,0.453 -6.281,1.359 -1.731,0.907 -2.891,2.164 -3.485,3.766 h -7.187 c 0.738,-3.469 2.64,-6.211 5.703,-8.234 3.07,-2.032 6.875,-3.047 11.406,-3.047 5.445,0 9.711,1.265 12.797,3.797 3.094,2.531 4.641,6.062 4.641,10.593 v 30.407 h -6.547 v -8.407 h -0.641 c -0.699,2.836 -2.328,5.078 -4.89,6.735 -2.555,1.648 -5.672,2.468 -9.36,2.468 -4.429,0 -7.949,-1.222 -10.562,-3.671 -2.606,-2.458 -3.907,-5.766 -3.907,-9.922 z m 16.079,7.672 c 1.812,0 3.488,-0.239 5.031,-0.719 1.551,-0.477 2.883,-1.156 4,-2.031 1.125,-0.883 2.004,-1.911 2.64,-3.079 0.645,-1.175 0.969,-2.457 0.969,-3.843 v -6 h -12.969 c -2.668,0 -4.761,0.695 -6.281,2.078 -1.523,1.386 -2.281,3.308 -2.281,5.765 0,2.45 0.769,4.368 2.312,5.75 1.551,1.387 3.743,2.079 6.579,2.079 z"
           style="fill:#0079ff;fill-opacity:1;fill-rule:nonzero;stroke:#ffffff;stroke-width:0.75;stroke-linecap:butt;stroke-linejoin:miter;stroke-miterlimit:4;stroke-dasharray:none;stroke-opacity:1"
           id="path38"
           inkscape:connector-curvature="0" /></g><g
         id="g40"><path
           d="m 437.57,80.645 h 7.594 l 10.719,31.125 c 0.426,1.218 0.742,2.296 0.953,3.234 0.219,0.937 0.383,1.726 0.5,2.359 0.102,0.805 0.156,1.496 0.156,2.078 h 0.719 c -0.055,-0.582 -0.027,-1.273 0.078,-2.078 0.102,-0.633 0.234,-1.422 0.391,-2.359 0.164,-0.938 0.461,-2.016 0.89,-3.234 l 10.157,-31.125 h 7.843 l -15.765,44 h -8.157 z"
           style="fill:#0079ff;fill-opacity:1;fill-rule:nonzero;stroke:#ffffff;stroke-width:0.75;stroke-linecap:butt;stroke-linejoin:miter;stroke-miterlimit:4;stroke-dasharray:none;stroke-opacity:1"
           id="path42"
           inkscape:connector-curvature="0" /></g><g
         id="g44"><path
           d="m 500.289,125.441 c -5.492,0 -9.797,-1.488 -12.922,-4.468 -3.117,-2.989 -4.672,-7.098 -4.672,-12.328 v -12 c 0,-5.227 1.555,-9.333 4.672,-12.313 3.125,-2.988 7.43,-4.484 12.922,-4.484 5.488,0 9.789,1.496 12.906,4.484 3.125,2.98 4.688,7.086 4.688,12.313 v 8.078 h -28 v 3.515 c 0,3.367 0.922,6.012 2.765,7.938 1.844,1.918 4.391,2.875 7.641,2.875 2.395,0 4.473,-0.375 6.234,-1.125 1.758,-0.75 3.067,-1.844 3.922,-3.281 h 7.203 c -0.906,3.367 -2.921,6.007 -6.046,7.921 -3.118,1.918 -6.887,2.875 -11.313,2.875 z m 10.406,-26.718 v -2.078 c 0,-3.301 -0.914,-5.86 -2.734,-7.672 -1.813,-1.821 -4.371,-2.735 -7.672,-2.735 -3.305,0 -5.867,0.914 -7.687,2.735 -1.813,1.812 -2.719,4.371 -2.719,7.672 v 2.078 z"
           style="fill:#0079ff;fill-opacity:1;fill-rule:nonzero;stroke:#ffffff;stroke-width:0.75;stroke-linecap:butt;stroke-linejoin:miter;stroke-miterlimit:4;stroke-dasharray:none;stroke-opacity:1"
           id="path46"
           inkscape:connector-curvature="0" /></g><g
         id="g48"><path
           d="m 526.055,124.645 v -44 h 6.797 v 7.593 h 0.64 c 0.688,-2.664 2.082,-4.726 4.188,-6.187 2.113,-1.469 4.742,-2.203 7.89,-2.203 2.188,0 4.172,0.375 5.953,1.125 1.789,0.742 3.313,1.793 4.563,3.156 1.25,1.355 2.223,2.98 2.922,4.875 0.695,1.898 1.047,4.016 1.047,6.359 v 29.282 h -7.203 V 96.566 c 0,-3.363 -0.856,-5.976 -2.563,-7.843 -1.711,-1.864 -4.086,-2.797 -7.125,-2.797 -3.043,0 -5.461,1 -7.25,3 -1.781,2 -2.672,4.711 -2.672,8.125 v 27.594 z"
           style="fill:#0079ff;fill-opacity:1;fill-rule:nonzero;stroke:#ffffff;stroke-width:0.75;stroke-linecap:butt;stroke-linejoin:miter;stroke-miterlimit:4;stroke-dasharray:none;stroke-opacity:1"
           id="path50"
           inkscape:connector-curvature="0" /></g><g
         id="g52"><path
           d="M 0.363,98.09 C 0.938,97.375 0.41,98.051 0.766,97.555 0.832,97.465 0.902,97.379 0.969,97.285 1.016,97.223 1.043,97.141 1.102,97.086 1.16,97.027 1.246,97.008 1.301,96.953 1.688,96.566 1.32,96.797 1.703,96.348 2.359,95.582 2.16,95.922 2.844,95.344 2.965,95.242 3.055,95.109 3.176,95.008 3.324,94.887 3.504,94.805 3.645,94.676 3.82,94.512 3.938,94.293 4.113,94.141 4.273,94 4.48,93.926 4.652,93.805 5.617,93.113 4.449,93.828 5.52,93.133 7.293,91.988 5.184,93.371 6.793,92.465 6.961,92.371 7.094,92.219 7.262,92.129 7.477,92.016 7.719,91.973 7.934,91.863 8.145,91.75 8.32,91.574 8.535,91.461 c 0.211,-0.113 0.445,-0.18 0.668,-0.27 0.223,-0.109 0.453,-0.214 0.672,-0.332 0.27,-0.148 0.52,-0.343 0.801,-0.468 0.281,-0.125 0.59,-0.161 0.871,-0.27 0.301,-0.113 0.578,-0.273 0.871,-0.402 0.223,-0.094 0.449,-0.176 0.672,-0.266 0.199,-0.086 0.39,-0.211 0.601,-0.269 0.262,-0.075 0.543,-0.063 0.805,-0.133 0.231,-0.063 0.438,-0.196 0.668,-0.27 0.27,-0.086 1.102,-0.222 1.34,-0.265 0.223,-0.043 0.445,-0.102 0.668,-0.137 0.199,-0.031 0.406,-0.031 0.605,-0.067 0.008,0 1.2,-0.265 1.203,-0.265 0.2,-0.024 0.403,0.019 0.602,0 0.207,-0.024 0.398,-0.113 0.606,-0.137 0.199,-0.019 0.402,0 0.601,0 0.27,0 0.535,0 0.805,0 0.801,0 0.406,0 1.203,0 0.203,0 0.406,-0.019 0.605,0 0.203,0.024 0.399,0.09 0.602,0.137 0.508,0.109 0.59,0.144 1.07,0.199 0.047,0.004 0.094,-0.016 0.133,0 0.098,0.031 0.18,0.09 0.27,0.133 0.043,0.023 0.085,0.055 0.132,0.066 0.453,0.114 -0.375,-0.242 0.403,0.071 0.031,0.011 0.039,0.05 0.066,0.066 0.016,0.004 0.192,0.008 0.203,0 0.137,-0.141 -0.211,0.004 0.067,-0.137 0.019,-0.007 0.047,0.008 0.066,0 0.484,-0.16 -0.105,0.02 0.199,-0.133 0.067,-0.031 0.141,-0.031 0.203,-0.066 0.11,-0.066 0.161,-0.203 0.266,-0.269 0.063,-0.036 0.137,-0.043 0.203,-0.067 0.067,-0.019 0.133,-0.051 0.199,-0.066 0.114,-0.028 0.231,-0.024 0.336,-0.067 0.059,-0.023 0.078,-0.105 0.133,-0.132 0.082,-0.043 0.18,-0.047 0.27,-0.067 0.246,-0.062 0.425,-0.101 0.668,-0.203 0.589,-0.246 0.203,-0.148 0.605,-0.266 0.152,-0.047 0.309,-0.097 0.469,-0.136 0.109,-0.028 0.226,-0.032 0.332,-0.067 0.098,-0.031 0.172,-0.109 0.269,-0.133 0.176,-0.043 0.36,-0.031 0.536,-0.066 0.16,-0.035 0.316,-0.078 0.468,-0.137 0.094,-0.031 0.172,-0.113 0.27,-0.132 0.129,-0.028 0.265,0 0.398,0 0.157,-0.024 0.317,-0.032 0.469,-0.067 0.141,-0.031 0.266,-0.109 0.402,-0.133 0.008,-0.004 0.793,0 0.805,0 0.156,-0.011 0.313,-0.058 0.469,-0.07 0.179,-0.012 0.355,0 0.535,0 0.426,0 0.848,0 1.273,0 0.692,0 1.383,0 2.075,0 0.293,0 0.582,-0.023 0.871,0 0.207,0.02 0.398,0.105 0.601,0.137 0.09,0.011 0.18,0 0.27,0 0.199,0 0.402,-0.016 0.601,0 0.137,0.007 0.84,0.191 0.871,0.199 0.094,0.031 0.172,0.109 0.27,0.133 0.172,0.047 0.359,0.023 0.535,0.07 1.121,0.277 0.453,0.172 1.137,0.398 0.09,0.032 0.18,0.043 0.269,0.071 1.946,0.57 0.145,0.047 1.274,0.402 0.223,0.067 0.445,0.125 0.668,0.199 0.273,0.09 0.926,0.407 1.07,0.469 0.113,0.047 0.231,0.078 0.336,0.133 0.75,0.375 0.387,0.23 0.938,0.535 0.925,0.516 -0.809,-0.523 0.804,0.469 0.633,0.39 0.082,0.008 0.535,0.402 0.106,0.094 0.235,0.168 0.336,0.27 0.055,0.054 0.086,0.133 0.133,0.199 0.063,0.09 0.125,0.184 0.199,0.269 0.106,0.118 0.243,0.207 0.336,0.336 0.043,0.055 0.039,0.133 0.067,0.2 0.019,0.046 0.039,0.093 0.066,0.132 0.02,0.028 0.051,0.043 0.067,0.067 0.031,0.043 0.035,0.101 0.07,0.137 0.015,0.015 0.066,-0.024 0.066,0 0,0.019 -0.082,0.015 -0.066,0 0.035,-0.036 0.09,-0.04 0.133,-0.067 0.152,-0.105 -0.028,-0.039 0.132,-0.203 0.059,-0.055 0.137,-0.086 0.204,-0.133 0.187,-0.14 -0.125,-0.008 0.265,-0.203 0.063,-0.031 0.149,-0.023 0.203,-0.066 0.063,-0.051 0.067,-0.157 0.133,-0.2 0.008,-0.007 0.508,-0.125 0.535,-0.132 0.16,-0.059 0.321,-0.121 0.469,-0.203 0.055,-0.032 0.074,-0.118 0.133,-0.133 0.172,-0.051 0.363,-0.028 0.535,-0.067 0.117,-0.027 0.223,-0.093 0.336,-0.136 0.387,-0.149 0.609,-0.243 1.004,-0.332 0.211,-0.051 0.871,-0.184 1.14,-0.204 0.157,-0.011 0.313,0.024 0.469,0 0.274,-0.035 0.727,-0.203 1.004,-0.265 1.18,-0.274 -0.371,0.113 0.805,-0.071 0.16,-0.023 0.308,-0.105 0.469,-0.132 0.132,-0.02 0.265,0.011 0.398,0 0.137,-0.012 0.27,-0.051 0.402,-0.067 0.09,-0.008 0.18,0.02 0.27,0 0.137,-0.027 0.262,-0.113 0.402,-0.133 0.153,-0.023 0.313,0 0.469,0 0.043,0 0.09,0.008 0.133,0 0.09,-0.015 0.176,-0.058 0.269,-0.066 0.133,-0.016 0.266,0 0.399,0 0.203,0 0.402,0 0.605,0 0.43,0 0.848,-0.023 1.27,0.066 0.16,0.032 0.312,0.098 0.469,0.133 0.046,0.012 0.089,0 0.136,0 0.223,0.067 0.453,0.117 0.668,0.199 0.074,0.032 0.125,0.106 0.203,0.137 0.215,0.082 0.446,0.133 0.668,0.199 0.157,0.047 0.321,0.071 0.469,0.133 0.254,0.117 0.484,0.285 0.738,0.403 0.172,0.082 0.356,0.136 0.535,0.203 0.313,0.133 0.633,0.25 0.938,0.402 0.305,0.152 1.328,0.996 1.34,1.004 0.144,0.105 0.308,0.184 0.469,0.266 0.129,0.074 0.277,0.113 0.398,0.203 0.531,0.117 0.695,0.652 1.074,0.937 0.078,0.059 0.192,0.067 0.266,0.133 0.738,0.672 0.265,0.312 0.605,0.738 0.039,0.047 0.094,0.082 0.133,0.133 0.117,0.152 0.215,0.32 0.336,0.469 0.059,0.074 0.141,0.125 0.199,0.199 0.032,0.039 0.043,0.09 0.067,0.137 0.066,0.133 0.133,0.265 0.203,0.398 0.019,0.047 0.035,0.098 0.066,0.137 0.059,0.074 0.141,0.125 0.199,0.199 0.032,0.039 0.051,0.09 0.067,0.137 0.07,0.176 0.125,0.359 0.203,0.535 0.012,0.027 0.043,0.043 0.066,0.066 0.024,0.043 0.047,0.086 0.067,0.133 0.027,0.067 0.031,0.141 0.066,0.203 0.055,0.094 0.141,0.172 0.203,0.266 0.223,0.34 0,0 0.067,0.203 0.051,0.149 0.125,0.18 0.199,0.332 0.031,0.063 0.043,0.137 0.066,0.203 0.02,0.047 0.055,0.086 0.071,0.133 0.008,0.043 0,0.09 0,0.133 0,0.023 -0.012,0.047 0,0.066 0.011,0.032 0.05,0.039 0.066,0.071 0.008,0.019 -0.012,0.047 0,0.066 0.012,0.027 0.055,0.035 0.066,0.066 0.012,0.043 -0.011,0.09 0,0.133 0.012,0.051 0.051,0.086 0.067,0.133 0.051,0.16 -0.051,-0.023 0,0.137 0.016,0.047 0.051,0.086 0.066,0.133 0.008,0.019 -0.007,0.046 0,0.066 0.016,0.027 0.055,0.039 0.067,0.066 0.019,0.039 -0.016,0.157 0,0.204 0.015,0.046 0.05,0.085 0.066,0.132 0.024,0.059 -0.019,0.141 0,0.2 0.012,0.031 0.055,0.039 0.07,0.07 0.036,0.07 -0.039,0.062 0,0.133 0.012,0.027 0.051,0.039 0.067,0.066 0,0.004 0,0.199 0,0.199 -0.016,0.032 -0.047,0.047 -0.067,0.071 -0.046,0.043 -0.093,0.082 -0.136,0.132 -0.071,0.086 -0.137,0.176 -0.2,0.266 -0.093,0.133 -0.164,0.281 -0.269,0.402 -0.316,0.383 -0.445,0.414 -0.801,0.739 -0.117,0.105 -0.215,0.234 -0.336,0.336 -0.148,0.121 -0.328,0.203 -0.468,0.332 -0.153,0.14 -0.25,0.332 -0.403,0.468 -0.14,0.133 -0.316,0.219 -0.469,0.336 -0.16,0.129 -0.296,0.289 -0.468,0.403 -0.145,0.09 -0.317,0.125 -0.469,0.199 -0.258,0.129 -0.379,0.234 -0.602,0.402 -0.089,0.067 -0.172,0.149 -0.269,0.203 -0.961,0.411 -0.074,-0.011 -0.735,0.399 -0.335,0.211 -0.433,0.144 -0.871,0.336 -0.933,0.41 -0.031,0.133 -0.871,0.469 -0.199,0.078 -0.402,0.132 -0.601,0.203 -2.711,0.984 0.644,-0.219 -1.207,0.398 -0.246,0.086 -0.489,0.191 -0.739,0.27 -0.328,0.101 -0.668,0.175 -1.004,0.269 -0.312,0.086 -0.621,0.192 -0.937,0.266 -0.262,0.062 -0.543,0.058 -0.801,0.133 -0.281,0.082 -0.523,0.265 -0.804,0.335 -0.352,0.086 -0.715,0.079 -1.071,0.133 -0.269,0.043 -1.156,0.25 -1.406,0.27 -0.336,0.027 -0.672,-0.02 -1.008,0 -0.426,0.023 -0.844,0.109 -1.269,0.133 -0.313,0.019 -0.625,0 -0.938,0 -0.469,0 -0.937,0 -1.406,0 -0.469,0 -0.942,0.031 -1.406,0 -0.25,-0.016 -0.489,-0.114 -0.739,-0.133 -0.312,-0.024 -0.625,0 -0.937,0 -0.422,0 -0.848,0 -1.274,0 -0.445,0 -0.89,0.031 -1.336,0 -0.23,-0.016 -0.445,-0.113 -0.671,-0.133 -3.047,-0.277 1.023,0.27 -1.407,-0.137 -0.332,-0.054 -0.668,-0.101 -1.004,-0.133 -0.156,-0.011 -0.316,0.04 -0.468,0 -0.215,-0.054 -0.395,-0.203 -0.602,-0.265 -0.762,-0.238 -0.18,0.098 -1.004,-0.07 -0.277,-0.055 -0.531,-0.192 -0.804,-0.266 -0.219,-0.059 -0.45,-0.078 -0.672,-0.133 -0.137,-0.035 -0.266,-0.09 -0.399,-0.137 -0.07,-0.019 -0.137,-0.039 -0.203,-0.066 -0.137,-0.059 -0.262,-0.148 -0.402,-0.199 -0.172,-0.063 -0.36,-0.078 -0.535,-0.137 -0.161,-0.051 -0.309,-0.141 -0.469,-0.199 -0.266,-0.098 -0.539,-0.172 -0.805,-0.27 -0.117,-0.043 -1.019,-0.418 -1.203,-0.468 -0.219,-0.059 -0.453,-0.067 -0.672,-0.133 -0.074,-0.024 -0.125,-0.106 -0.199,-0.133 -0.106,-0.039 -0.223,-0.039 -0.336,-0.066 -0.156,-0.04 -0.309,-0.102 -0.469,-0.137 -0.043,-0.008 -0.09,0.015 -0.133,0 -0.093,-0.031 -0.175,-0.094 -0.269,-0.133 -0.129,-0.051 -0.262,-0.098 -0.399,-0.133 -0.046,-0.012 -0.093,0.016 -0.136,0 -0.075,-0.031 -0.129,-0.097 -0.199,-0.133 -0.02,-0.011 -0.047,0.008 -0.067,0 -0.094,-0.039 -0.176,-0.097 -0.269,-0.136 -0.02,-0.008 -0.047,0.011 -0.067,0 -0.051,-0.036 -0.078,-0.106 -0.133,-0.133 -0.043,-0.02 -0.093,0.015 -0.136,0 -0.075,-0.031 -0.129,-0.094 -0.2,-0.133 -0.043,-0.027 -0.093,-0.039 -0.132,-0.066 -0.094,-0.063 -0.172,-0.149 -0.27,-0.204 -0.578,-0.328 0.324,0.379 -0.535,-0.265 -0.074,-0.059 -0.121,-0.149 -0.199,-0.203 -0.059,-0.039 -0.137,-0.043 -0.203,-0.067 -0.133,-0.113 -0.258,-0.238 -0.403,-0.336 -0.109,-0.035 -0.234,-0.066 -0.332,-0.132 -0.054,-0.036 -0.074,-0.114 -0.137,-0.133 -0.304,0 -0.003,0.031 -0.199,-0.067 -0.019,-0.011 -0.051,0.016 -0.066,0 -0.016,-0.019 0.015,-0.054 0,-0.07 -0.07,-0.07 -0.094,0.074 -0.137,0.137 -0.133,0.199 0,-0.137 -0.199,0.199 -0.035,0.063 -0.024,0.145 -0.066,0.203 -0.051,0.063 -0.145,0.074 -0.204,0.133 -0.078,0.078 -0.129,0.18 -0.199,0.266 -0.129,0.16 -0.258,0.324 -0.402,0.468 -0.156,0.16 -0.379,0.246 -0.535,0.403 -0.102,0.101 -0.16,0.242 -0.27,0.336 -0.094,0.086 -0.226,0.128 -0.332,0.199 -0.094,0.062 -0.18,0.137 -0.269,0.203 -0.157,0.113 -0.309,0.226 -0.469,0.332 -0.383,0.258 -0.918,0.508 -1.34,0.672 -0.195,0.078 -0.402,0.129 -0.602,0.199 -0.226,0.086 -0.449,0.176 -0.668,0.27 -0.203,0.086 -0.394,0.203 -0.605,0.265 -1.481,0.446 0.008,-0.148 -1.473,0.203 -0.234,0.055 -0.433,0.223 -0.668,0.266 -0.265,0.051 -0.539,-0.02 -0.804,0 -0.75,0.062 -1.461,0.336 -2.211,0.402 -0.223,0.024 -0.446,-0.019 -0.668,0 -0.25,0.024 -0.489,0.114 -0.739,0.137 -0.222,0.02 -0.445,0 -0.668,0 -0.515,0 -1.027,0 -1.539,0 -0.226,0 -0.449,0 -0.671,0 -0.247,0 -0.493,0.023 -0.735,0 -0.226,-0.023 -0.445,-0.113 -0.672,-0.137 -0.199,-0.019 -0.402,0.02 -0.601,0 -0.207,-0.019 -1.18,-0.222 -1.406,-0.265 -0.133,-0.028 -0.278,-0.02 -0.403,-0.067 -0.168,-0.066 -0.312,-0.179 -0.469,-0.269 -0.199,-0.024 -0.41,-0.012 -0.601,-0.067 -0.125,-0.035 -0.223,-0.14 -0.336,-0.203 -0.133,-0.07 -0.266,-0.136 -0.402,-0.199 C 9.711,105.766 10,105.941 9.203,105.523 9.047,105.438 8.902,105.32 8.734,105.254 8.566,105.188 8.375,105.18 8.199,105.121 c -0.695,-0.234 -0.254,-0.16 -0.937,-0.469 -0.082,-0.039 -0.184,-0.027 -0.266,-0.066 -0.101,-0.051 -0.172,-0.145 -0.269,-0.203 -0.762,-0.457 -0.059,0.051 -0.735,-0.403 -0.094,-0.058 -0.18,-0.132 -0.269,-0.199 -0.684,-0.488 0.406,0.321 -0.469,-0.336 -0.09,-0.066 -0.176,-0.133 -0.27,-0.199 C 4.922,103.199 4.848,103.164 4.785,103.113 4.711,103.051 4.656,102.973 4.586,102.91 4.5,102.84 4.406,102.773 4.316,102.711 4.25,102.664 4.172,102.633 4.117,102.574 4.059,102.52 4.039,102.434 3.98,102.375 3.926,102.316 3.844,102.293 3.781,102.242 3.73,102.203 3.695,102.148 3.648,102.105 3.48,101.977 3.434,102 3.312,101.84 3.281,101.801 3.273,101.746 3.246,101.707 3.207,101.656 3.156,101.617 3.109,101.57 3.043,101.504 2.977,101.438 2.91,101.371 2.867,101.324 2.812,101.289 2.777,101.238 2.711,101.141 2.734,101.098 2.641,101.035 2.602,101.008 2.543,101.004 2.508,100.969 2.473,100.934 2.465,100.879 2.441,100.836 2.398,100.77 2.363,100.691 2.309,100.633 2.25,100.578 2.164,100.559 2.105,100.5 2.07,100.465 2.074,100.402 2.039,100.367 c -0.035,-0.035 -0.094,-0.039 -0.133,-0.066 -0.054,-0.035 -0.09,-0.09 -0.133,-0.137 -0.023,-0.019 -0.054,-0.039 -0.07,-0.066 -0.043,-0.09 0.082,-0.059 -0.066,-0.133 -0.02,-0.012 -0.051,0.015 -0.067,0 -0.015,-0.016 0.016,-0.051 0,-0.067 -0.015,-0.015 -0.05,0.016 -0.066,0 -0.016,-0.015 0.012,-0.046 0,-0.066 -0.016,-0.031 -0.043,-0.047 -0.066,-0.07 -0.024,-0.02 -0.04,-0.051 -0.067,-0.067 -0.019,-0.007 -0.051,0.016 -0.066,0 -0.02,-0.015 0.007,-0.047 0,-0.066 C 1.289,99.602 1.25,99.59 1.234,99.562 c -0.007,-0.019 0.016,-0.05 0,-0.066 -0.015,-0.016 -0.05,0.016 -0.066,0 -0.016,-0.016 0.012,-0.047 0,-0.066 -0.223,-0.223 0.031,0.062 -0.066,-0.137 -0.016,-0.027 -0.051,-0.035 -0.067,-0.066 -0.012,-0.02 0.016,-0.051 0,-0.067 -0.015,-0.015 -0.051,0.016 -0.066,0 -0.016,-0.015 0.008,-0.047 0,-0.066 C 0.746,98.871 1,99.156 0.902,98.961 0.887,98.934 0.848,98.922 0.836,98.895 c -0.012,-0.024 0.016,-0.055 0,-0.071 -0.02,-0.015 -0.055,0.016 -0.07,0 -0.032,-0.031 0.019,-0.094 0,-0.133 -0.012,-0.027 -0.051,-0.039 -0.067,-0.066 -0.019,-0.039 0.031,-0.102 0,-0.133 -0.015,-0.015 -0.051,0.016 -0.066,0 -0.031,-0.031 0.027,-0.101 0,-0.137 C 0.555,98.258 0.453,98.18 0.367,98.09 Z"
           style="fill:#ffffff;fill-opacity:1;fill-rule:nonzero;stroke:#ffffff;stroke-width:0.75;stroke-linecap:butt;stroke-linejoin:miter;stroke-miterlimit:4;stroke-dasharray:none;stroke-opacity:1"
           id="path54"
           inkscape:connector-curvature="0" /></g><g
         id="g56"><path
           d="m 62.191,49.266 c 1.2,-0.356 1.645,-0.414 2.829,-1.114 0.148,-0.09 1.218,-1.043 1.57,-1.113 0.414,-0.082 0.855,0.141 1.258,0 0.672,-0.238 1.257,-0.742 1.886,-1.113 0.207,-0.121 0.399,-0.324 0.629,-0.367 0.414,-0.082 0.84,0.066 1.258,0 2.414,-0.411 -0.605,-0.274 1.883,-1.114 0.344,-0.117 1.762,0.086 2.203,0 0.324,-0.066 0.629,-0.246 0.941,-0.371 0.629,0 1.262,0.09 1.887,0 0.231,-0.035 0.395,-0.332 0.629,-0.371 5.258,-0.887 -1.777,1.07 2.828,-0.742 0.199,-0.078 0.418,0 0.629,0 0.418,0 0.84,0.07 1.258,0 0.328,-0.055 0.613,-0.305 0.941,-0.371 0.309,-0.059 0.633,0.062 0.942,0 0.328,-0.063 0.617,-0.305 0.945,-0.371 0.621,-0.121 1.266,0.125 1.887,0 0.324,-0.063 0.617,-0.293 0.941,-0.367 0.207,-0.051 0.422,0.046 0.629,0 0.324,-0.079 0.617,-0.297 0.941,-0.372 0.207,-0.05 0.43,0.079 0.629,0 0.446,-0.175 0.825,-0.539 1.258,-0.742 0.098,-0.047 0.211,0 0.313,0 0.211,0 0.422,0 0.629,0 0.421,0 0.839,0 1.257,0 0.317,0 0.633,0.059 0.946,0 0.324,-0.066 0.613,-0.308 0.941,-0.371 0.309,-0.062 0.629,0 0.942,0 0.945,0 1.886,0 2.832,0 0.836,0 1.675,0 2.511,0 0.278,0 0.676,-0.078 0.946,0 0.32,0.094 0.621,0.278 0.941,0.371 0.102,0.028 0.223,-0.054 0.316,0 0.129,0.078 0.172,0.317 0.313,0.371 0.199,0.079 0.418,0 0.629,0 0.105,0 0.219,-0.054 0.312,0 0.133,0.079 0.211,0.246 0.317,0.371 0.207,0 0.429,-0.078 0.629,0 0.14,0.055 0.168,0.329 0.312,0.372 0.305,0.089 0.641,-0.09 0.945,0 0.141,0.039 0.18,0.289 0.313,0.367 0.094,0.058 0.223,-0.055 0.316,0 1.039,1.23 -0.297,-0.172 0.625,0.371 0.266,0.156 0.368,0.586 0.629,0.742 0.188,0.109 0.481,-0.176 0.629,0 0.074,0.09 -0.074,0.285 0,0.371 0.074,0.086 0.242,0.086 0.317,0 0.074,-0.086 -0.075,-0.281 0,-0.371 0.074,-0.086 0.238,0.09 0.312,0 0.148,-0.176 -0.148,-0.566 0,-0.742 0.074,-0.086 0.242,0.09 0.316,0 0.075,-0.086 -0.074,-0.281 0,-0.371 0.075,-0.086 0.239,0.09 0.313,0 0.074,-0.086 -0.047,-0.258 0,-0.367 0.066,-0.157 0.211,-0.25 0.316,-0.372 0.102,-0.125 0.18,-0.292 0.313,-0.371 0.094,-0.054 0.242,0.086 0.316,0 0.071,-0.089 -0.074,-0.285 0,-0.371 0.071,-0.086 0.219,0.055 0.313,0 0.133,-0.078 0.183,-0.293 0.312,-0.371 0.188,-0.109 0.442,0.11 0.629,0 0.133,-0.078 0.184,-0.293 0.317,-0.371 0.093,-0.055 0.218,0.055 0.312,0 0.133,-0.078 0.176,-0.316 0.317,-0.371 0.199,-0.078 0.429,0.078 0.628,0 0.141,-0.055 0.18,-0.293 0.313,-0.371 0.187,-0.109 0.43,0.078 0.629,0 0.222,-0.086 0.406,-0.281 0.629,-0.371 0.281,-0.11 0.66,0.113 0.941,0 0.141,-0.055 0.184,-0.293 0.317,-0.371 0.093,-0.055 1.039,0 1.257,0 1.047,0 2.094,0 3.141,0 0.734,0 1.469,0 2.203,0 0.074,0 1.184,-0.039 1.254,0 0.133,0.078 0.184,0.293 0.316,0.371 0.172,0.101 1.172,-0.102 1.258,0 0.074,0.09 -0.094,0.316 0,0.371 0.188,0.113 0.43,-0.078 0.629,0 0.141,0.055 0.18,0.293 0.313,0.371 0.093,0.055 0.222,-0.055 0.316,0 0.129,0.078 0.18,0.293 0.313,0.371 0.093,0.055 0.218,-0.055 0.312,0 0.266,0.156 0.355,0.613 0.629,0.742 0.402,0.188 0.859,0.18 1.258,0.371 0.304,0.141 0.64,0.969 0.945,1.11 0.399,0.191 0.856,0.183 1.258,0.371 0.137,0.066 0.207,0.25 0.312,0.371 0.106,0.125 0.246,0.215 0.313,0.371 0.047,0.109 -0.074,0.285 0,0.371 0.074,0.086 0.223,-0.055 0.316,0 0.133,0.078 0.18,0.293 0.313,0.371 0.094,0.055 0.242,-0.086 0.316,0 0.074,0.086 0.106,0.371 0,0.371 -0.105,0 0,-0.246 0,-0.371 0,-0.125 -0.074,-0.285 0,-0.371 0.074,-0.086 0.207,0 0.313,0 0.84,0 -0.106,0.125 0.316,-0.371 0.149,-0.176 0.442,0.109 0.629,0 0.133,-0.078 0.18,-0.293 0.313,-0.371 0.093,-0.055 0.21,0 0.316,0 0.101,0 0.207,0 0.312,0 0.524,0 1.047,0 1.571,0 0.523,0 1.051,0 1.574,0 0.101,0 0.207,0 0.312,0 0.106,0 0.223,-0.055 0.317,0 0.133,0.078 0.18,0.293 0.312,0.371 0.094,0.055 0.211,-0.027 0.317,0 3.172,0.938 -0.231,-0.133 1.254,0.742 0.093,0.055 0.222,-0.054 0.316,0 0.133,0.078 0.191,0.274 0.313,0.371 0.195,0.153 0.464,0.176 0.628,0.371 0.075,0.086 -0.046,0.258 0,0.372 0.129,0.3 0.747,0.8 0.946,1.109 0.226,0.359 0.398,0.758 0.629,1.113 0.175,0.281 0.496,0.43 0.625,0.742 0.047,0.11 0,0.246 0,0.371 0.105,0.247 0.187,0.512 0.316,0.743 0.164,0.289 0.496,0.425 0.629,0.738 0.047,0.113 -0.047,0.262 0,0.371 0.066,0.156 0.246,0.215 0.313,0.371 0.093,0.223 -0.149,0.566 0,0.742 0.074,0.086 0.242,-0.086 0.316,0 0.074,0.086 0,0.246 0,0.371 0,0.864 0,1.731 0,2.594 0,0.336 0.066,1.621 0,1.856 -0.074,0.261 -0.242,0.476 -0.316,0.738 -0.067,0.234 0.093,0.523 0,0.742 -0.067,0.156 -0.247,0.215 -0.313,0.371 -0.047,0.11 0.074,0.285 0,0.371 -0.168,0.196 -0.465,0.176 -0.629,0.371 -0.074,0.086 0.047,0.262 0,0.371 -0.031,0.071 -1.199,1.446 -1.258,1.481 -0.093,0.058 -0.218,-0.055 -0.312,0 -0.133,0.078 -0.184,0.293 -0.317,0.371 -0.093,0.055 -0.218,-0.055 -0.312,0 -0.133,0.078 -0.184,0.293 -0.317,0.371 -0.207,0.125 -0.992,-0.101 -1.257,0 -0.223,0.09 -0.399,0.305 -0.629,0.371 -0.203,0.059 -0.418,0 -0.625,0 -0.211,0 -0.422,0 -0.629,0 -0.84,0 -1.68,0 -2.516,0 -0.84,0 -1.676,0 -2.515,0 -0.141,0 -0.848,0.059 -0.942,0 -0.133,-0.078 -0.183,-0.293 -0.316,-0.371 -0.094,-0.055 -0.219,0.055 -0.313,0 -0.133,-0.078 -0.183,-0.293 -0.316,-0.371 -0.188,-0.109 -0.442,0.113 -0.629,0 -0.262,-0.156 -0.363,-0.582 -0.625,-0.738 -0.094,-0.059 -0.223,0.054 -0.316,0 -0.133,-0.078 -0.18,-0.293 -0.313,-0.371 -0.094,-0.059 -0.242,0.086 -0.316,0 -0.075,-0.09 0.105,-0.371 0,-0.371 -0.059,0 -0.477,0.621 -0.629,0.742 -0.196,0.152 -0.434,0.215 -0.629,0.367 -0.121,0.098 -0.18,0.293 -0.313,0.371 -1.8,1.063 -0.199,-0.23 -1.57,0.742 -0.324,0.231 -0.641,0.473 -0.945,0.742 -0.117,0.106 -0.176,0.305 -0.313,0.371 -0.402,0.188 -0.847,0.208 -1.258,0.372 -1.257,0.492 0.063,0.355 -1.57,0.742 -0.207,0.047 -0.43,-0.078 -0.629,0 -0.14,0.054 -0.211,0.246 -0.316,0.367 -0.207,0.125 -0.403,0.305 -0.629,0.371 -0.203,0.063 -0.418,0 -0.629,0 -0.105,0 -0.219,-0.055 -0.313,0 -0.132,0.078 -0.183,0.293 -0.316,0.371 -0.094,0.055 -0.215,-0.039 -0.312,0 -0.223,0.09 -0.399,0.317 -0.629,0.371 -0.516,0.121 -1.063,-0.148 -1.571,0 -0.23,0.067 -0.402,0.305 -0.629,0.371 -0.203,0.059 -0.421,0 -0.628,0 -0.418,0 -0.84,0 -1.258,0 -0.211,0 -0.434,-0.09 -0.629,0 -0.352,0.164 -0.586,0.602 -0.942,0.743 -0.3,0.117 -0.628,0 -0.945,0 -0.312,0 -0.629,0 -0.941,0 -0.84,0 -1.676,0 -2.516,0 -0.629,0 -1.258,0 -1.887,0 -0.312,0 -0.66,0.164 -0.941,0 -0.266,-0.157 -0.352,-0.614 -0.629,-0.743 -0.293,-0.136 -0.637,0.09 -0.941,0 -0.145,-0.043 -0.176,-0.316 -0.317,-0.371 -0.199,-0.078 -0.418,0 -0.629,0 -0.101,0 -0.218,0.055 -0.312,0 -0.133,-0.078 -0.176,-0.316 -0.317,-0.371 -0.195,-0.078 -0.429,0.078 -0.629,0 -0.14,-0.055 -0.179,-0.293 -0.312,-0.371 -0.094,-0.055 -0.215,0.039 -0.312,0 -1.95,-1.148 0.152,-0.047 -0.946,-0.371 -0.777,-0.227 -0.922,-0.356 -1.57,-0.738 -0.211,-0.125 -0.406,-0.285 -0.629,-0.371 -0.102,-0.04 -0.215,0.039 -0.316,0 -2.274,-0.895 0.496,0.105 -0.942,-0.743 -0.094,-0.054 -0.219,0.055 -0.312,0 -1.043,-1.23 0.293,0.176 -0.629,-0.371 -0.266,-0.156 -0.364,-0.586 -0.629,-0.742 -0.094,-0.055 -0.223,0.055 -0.317,0 -1.308,-0.769 0.336,0.027 -0.312,-0.742 -0.074,-0.086 -0.242,0.09 -0.316,0 -0.075,-0.086 0.074,-0.281 0,-0.367 -0.075,-0.09 -0.239,0.086 -0.313,0 -0.074,-0.09 0.074,-0.285 0,-0.371 -0.074,-0.09 -0.242,0.086 -0.316,0 -0.075,-0.09 0.074,-0.286 0,-0.371 -0.075,-0.09 -0.219,0.054 -0.313,0 -0.133,-0.079 -0.183,-0.293 -0.312,-0.372 -0.094,-0.054 -0.243,0.086 -0.317,0 -0.074,-0.089 0.074,-0.285 0,-0.371 -0.074,-0.086 -0.211,0 -0.312,0 -1.106,0 -0.25,-0.175 -0.946,0.371 -0.824,0.649 -0.546,0.137 -1.57,0.743 -0.34,0.199 -0.605,0.539 -0.941,0.738 -0.297,0.176 -0.637,0.226 -0.946,0.371 -0.218,0.105 -0.406,0.285 -0.629,0.371 -0.41,0.16 -0.847,0.211 -1.257,0.371 -0.223,0.086 -0.418,0.246 -0.629,0.371 -0.418,0.246 -0.824,0.524 -1.254,0.742 -2.66,1.344 0.344,-0.195 -1.574,0.372 -0.227,0.066 -0.418,0.246 -0.629,0.371 -0.418,0.121 -0.828,0.285 -1.254,0.371 -1.051,0.203 -0.266,-0.313 -1.574,0 -0.231,0.051 -0.407,0.281 -0.629,0.367 -0.098,0.039 -0.207,0 -0.313,0 -0.211,0 -0.418,0 -0.629,0 -0.945,0 -1.886,0 -2.828,0 -0.215,0 -2.058,0.059 -2.203,0 -0.141,-0.055 -0.172,-0.313 -0.312,-0.367 -0.399,-0.16 -0.848,0.094 -1.258,0 -0.324,-0.078 -0.617,-0.297 -0.942,-0.371 -0.41,-0.098 -0.847,0.093 -1.258,0 -0.648,-0.157 -1.238,-0.59 -1.886,-0.743 -0.203,-0.05 -0.422,0.04 -0.629,0 -0.426,-0.085 -0.832,-0.289 -1.258,-0.371 -0.207,-0.039 -0.441,0.11 -0.629,0 -1.25,-0.738 0,-0.742 -1.254,-1.113 -0.203,-0.058 -0.426,0.063 -0.629,0 -0.23,-0.066 -0.406,-0.281 -0.629,-0.371 -0.101,-0.039 -0.214,0.039 -0.316,0 -0.223,-0.086 -0.406,-0.281 -0.629,-0.371 -0.098,-0.039 -0.219,0.058 -0.312,0 -0.133,-0.078 -0.184,-0.289 -0.317,-0.367 -0.094,-0.059 -0.238,0.086 -0.312,0 -0.074,-0.09 0.074,-0.285 0,-0.371 -0.074,-0.09 -0.219,0.054 -0.313,0 -0.539,-0.321 -0.094,-0.426 -0.629,-0.743 -0.093,-0.054 -0.222,0.055 -0.316,0 -0.133,-0.078 -0.211,-0.246 -0.313,-0.371 -0.187,-0.218 -1.113,-1.398 -1.257,-1.484 -0.094,-0.055 -0.243,0.09 -0.317,0 -0.148,-0.172 0.149,-0.566 0,-0.738 -0.074,-0.09 -0.238,0.086 -0.312,0 -0.157,-0.188 0.156,-0.93 0,-1.114 -0.075,-0.089 -0.243,0.086 -0.317,0 -0.156,-0.187 0.16,-0.925 0,-1.113 -0.074,-0.086 -0.238,0.086 -0.312,0 -0.074,-0.086 0,-0.246 0,-0.371 0,-0.121 -0.074,-0.281 0,-0.371 0.84,0 -0.106,0.125 0.312,-0.371 0.074,-0.086 0.242,0.09 0.317,0 0.148,-0.172 -0.149,-0.567 0,-0.738 0.074,-0.09 0.218,0.054 0.312,0 1.309,-0.774 -0.336,0.023 0.317,-0.743 0.164,-0.195 0.461,-0.175 0.628,-0.371 0.649,-0.765 -0.996,0.032 0.313,-0.742 0.094,-0.055 0.289,0.121 0.316,0 0.102,-0.48 -0.351,-1.207 0,-1.48 0.524,-0.414 1.258,0 1.883,0 0.106,0 0.211,0 0.317,0 0.105,0 0.238,0.086 0.312,0 0.074,-0.09 -0.074,-0.286 0,-0.371 0.16,-0.188 0.789,0.183 0.945,0 0.075,-0.09 -0.074,-0.286 0,-0.372 0.149,-0.175 0.481,0.172 0.629,0 0.418,-0.496 -0.523,-0.371 0.313,-0.371"
           style="fill:#ffffff;fill-opacity:1;fill-rule:nonzero;stroke:#ffffff;stroke-width:0.95575798;stroke-linecap:butt;stroke-linejoin:miter;stroke-miterlimit:4;stroke-dasharray:none;stroke-opacity:1"
           id="path58"
           inkscape:connector-curvature="0" /></g><g
         id="g60"><path
           d="m 122.309,115.77 c 0.355,-0.27 0.722,-0.528 1.07,-0.805 0.887,-0.887 -0.254,0.125 0.535,-0.27 0.113,-0.054 0.18,-0.175 0.27,-0.265 0.207,-0.211 1.168,-1.254 1.336,-1.34 0.082,-0.039 0.191,0.039 0.269,0 0.227,-0.113 0.309,-0.422 0.535,-0.535 0.082,-0.039 0.188,0.039 0.27,0 0.113,-0.059 0.152,-0.211 0.265,-0.27 0.082,-0.039 0.188,0.039 0.27,0 0.226,-0.113 0.309,-0.422 0.535,-0.535 0.16,-0.078 0.375,0.082 0.535,0 0.113,-0.055 0.156,-0.211 0.27,-0.266 0.078,-0.043 0.187,0.039 0.265,0 0.891,-0.89 -0.25,0.125 0.536,-0.269 0.113,-0.055 0.156,-0.211 0.269,-0.27 0.078,-0.039 0.188,0.043 0.27,0 0.113,-0.054 0.152,-0.211 0.265,-0.265 0.16,-0.082 0.375,0.078 0.535,0 0.114,-0.059 0.157,-0.211 0.27,-0.27 0.168,-0.082 1.164,0.09 1.34,0 0.113,-0.055 0.152,-0.211 0.265,-0.265 0.086,-0.043 1.102,0 1.34,0 1.071,0 2.145,0 3.215,0 0.145,0 1.262,-0.04 1.34,0 0.113,0.054 0.156,0.21 0.266,0.265 0.16,0.082 0.378,-0.078 0.539,0 0.113,0.059 0.152,0.211 0.265,0.27 0.082,0.039 0.188,-0.039 0.27,0 0.226,0.113 0.308,0.422 0.535,0.535 0.078,0.039 0.187,-0.039 0.266,0 0.113,0.055 0.156,0.211 0.269,0.269 0.078,0.039 0.203,-0.066 0.27,0 0.062,0.063 -0.067,0.204 0,0.266 0.062,0.062 0.203,-0.062 0.265,0 0.063,0.062 0.09,0.27 0,0.27 -0.09,0 0,-0.18 0,-0.27 0,-0.09 -0.039,-0.188 0,-0.266 0.332,-0.664 0.27,0.09 0.27,-0.539 0,-0.703 0.215,0.106 0.535,-0.535 0.039,-0.078 -0.039,-0.187 0,-0.265 0.035,-0.071 0.73,-0.77 0.805,-0.805 0.078,-0.039 0.203,0.062 0.265,0 0.063,-0.063 -0.062,-0.203 0,-0.27 0.395,0 0.207,0.067 0.535,-0.265 0.891,-0.891 -0.25,0.125 0.536,-0.27 0.113,-0.055 0.156,-0.211 0.269,-0.265 0.078,-0.043 0.188,0.039 0.27,0 0.113,-0.059 0.16,-0.2 0.265,-0.27 0.168,-0.109 0.395,-0.125 0.535,-0.266 0.141,-0.144 0.102,-0.425 0.27,-0.539 0.148,-0.097 0.367,0.059 0.535,0 0.121,-0.039 0.156,-0.211 0.27,-0.265 0.078,-0.039 0.175,0 0.265,0 0.09,-0.09 0.156,-0.211 0.27,-0.27 2.586,-1.293 -0.5,0.348 1.34,-0.265 0.117,-0.043 0.144,-0.231 0.265,-0.27 0.172,-0.055 0.367,0.059 0.535,0 0.121,-0.039 0.149,-0.227 0.27,-0.266 0.168,-0.058 0.363,0.043 0.535,0 0.195,-0.05 0.348,-0.207 0.535,-0.269 0.086,-0.028 0.18,0.015 0.27,0 0.359,-0.07 0.722,-0.152 1.07,-0.27 0.188,-0.062 0.348,-0.203 0.535,-0.265 0.086,-0.028 0.184,0.027 0.27,0 0.187,-0.063 0.34,-0.219 0.535,-0.27 0.258,-0.062 0.543,0.067 0.805,0 0.273,-0.066 0.527,-0.199 0.8,-0.265 0.086,-0.024 0.18,0 0.27,0 0.266,0 0.535,0 0.805,0 0.355,0 0.73,0.113 1.07,0 0.305,-0.102 0.492,-0.45 0.805,-0.536 0.339,-0.101 0.711,0 1.07,0 0.715,0 1.43,0 2.141,0 0.449,0 0.894,0 1.339,0 0.18,0 0.387,-0.101 0.536,0 0.168,0.11 0.128,0.395 0.269,0.536 0.031,0.031 0.902,0 1.07,0 0.606,0 -0.117,-0.043 0.805,0.265 0.285,0.098 0.785,-0.094 1.07,0 0.192,0.063 0.348,0.207 0.536,0.27 0.171,0.054 0.41,-0.125 0.539,0 0.062,0.062 -0.067,0.203 0,0.265 0.062,0.067 0.179,-0.027 0.265,0 0.192,0.067 0.348,0.207 0.535,0.27 0.086,0.027 0.188,-0.039 0.27,0 0.226,0.113 0.309,0.422 0.535,0.535 0.078,0.039 0.184,-0.027 0.27,0 0.187,0.063 0.343,0.207 0.535,0.27 0.082,0.027 0.191,-0.051 0.265,0 0.211,0.14 0.313,0.421 0.536,0.535 0.16,0.078 0.367,-0.059 0.539,0 0.238,0.078 0.308,0.422 0.535,0.535 0.367,0.183 0.238,-0.324 0.535,0.269 0.039,0.078 -0.063,0.204 0,0.266 0.062,0.062 0.203,-0.062 0.266,0 0.066,0.062 -0.063,0.207 0,0.27 0.066,0.062 0.191,-0.043 0.269,0 0.113,0.054 0.156,0.21 0.27,0.265 0.078,0.039 0.203,-0.062 0.265,0 0.063,0.063 -0.062,0.207 0,0.27 0.063,0.062 0.188,-0.039 0.27,0 0.59,0.297 0.082,0.164 0.265,0.535 0.114,0.226 0.426,0.308 0.536,0.535 0.042,0.082 -0.063,0.207 0,0.27 0.066,0.062 0.207,-0.063 0.269,0 0.063,0.062 0,0.175 0,0.265 0.09,0 0.203,-0.062 0.27,0 0.125,0.129 -0.129,0.41 0,0.535 0.062,0.067 0.203,-0.062 0.265,0 0.063,0.067 -0.039,0.192 0,0.27 0.059,0.113 0.211,0.156 0.27,0.269 0.07,0.145 -0.074,0.996 0,1.071 0.062,0.062 0.203,-0.063 0.265,0 0.063,0.062 0,0.179 0,0.265 0,0.09 0,0.18 0,0.27 0,0.191 0.036,1.539 0,1.605 -0.054,0.114 -0.211,0.157 -0.265,0.27 -0.043,0.078 0.039,0.187 0,0.269 -0.059,0.11 -0.211,0.153 -0.27,0.266 0,0.715 0.09,-0.09 -0.265,0.27 -0.067,0.062 0.062,0.203 0,0.265 -0.067,0.063 -0.207,-0.062 -0.27,0 -0.141,0.141 -0.156,0.371 -0.269,0.535 -0.165,0.254 -0.899,0.903 -1.071,1.075 -0.09,0.089 -0.195,0.16 -0.265,0.265 -0.114,0.168 -0.129,0.395 -0.27,0.535 -0.316,0.317 -0.726,0.52 -1.07,0.805 -2.317,1.93 0.984,-0.566 -1.074,0.805 -0.102,0.07 -0.153,0.211 -0.266,0.265 -0.43,0.215 -0.91,0.325 -1.34,0.539 -0.289,0.141 -0.527,0.368 -0.805,0.536 -0.339,0.203 -0.738,0.312 -1.07,0.535 -0.371,0.246 -0.684,0.582 -1.07,0.804 -0.766,0.434 -0.918,0.075 -1.61,0.536 -0.699,0.464 0.309,0.117 -0.8,0.535 -3.192,1.195 -0.258,0.187 -2.68,0.535 -0.281,0.039 -0.527,0.222 -0.805,0.269 -0.262,0.043 -0.539,-0.047 -0.804,0 -0.278,0.043 -0.524,0.219 -0.801,0.266 -0.531,0.09 -1.074,-0.055 -1.61,0 -3.363,0.336 -0.515,0.035 -3.214,0.805 -0.34,0.097 -0.719,-0.071 -1.071,0 -1.621,0.324 -0.109,0.265 -1.34,0.265 -0.175,0 -0.355,0 -0.535,0 -0.09,0 -0.183,-0.027 -0.265,0 -0.192,0.067 -0.348,0.207 -0.539,0.27 -0.083,0.027 -0.176,0 -0.266,0 -0.18,0 -0.359,0 -0.535,0 -0.449,0 -0.895,0 -1.34,0 -0.227,0 -0.93,0.047 -1.07,0 -0.122,-0.039 -0.157,-0.211 -0.27,-0.27 -0.144,-0.07 -1,0.075 -1.07,0 -0.121,-0.117 0.207,-0.504 -0.27,-0.265 -0.113,0.054 -0.164,0.195 -0.265,0.265 -0.168,0.114 -0.395,0.129 -0.539,0.27 -0.797,0.797 0.402,0.347 -0.801,1.07 -0.242,0.145 -0.578,0.098 -0.805,0.27 -0.16,0.117 -0.18,0.355 -0.269,0.535 -0.176,0.18 -0.333,0.383 -0.536,0.535 -0.16,0.121 -0.367,0.156 -0.535,0.27 -0.105,0.07 -0.179,0.175 -0.265,0.265 -0.27,0.18 -0.528,0.371 -0.805,0.535 -0.18,0.09 -0.359,0.18 -0.535,0.27 -0.18,0.09 -0.367,0.164 -0.535,0.269 -0.278,0.164 -0.528,0.368 -0.805,0.536 -0.563,0.335 -0.899,0.394 -1.609,0.535 -0.086,0.015 -0.18,-0.024 -0.266,0 -2.774,0.925 1.105,-0.278 -1.609,0.265 -0.196,0.039 -0.34,0.223 -0.536,0.27 -0.171,0.043 -0.355,0 -0.535,0 -0.445,0 -0.89,0 -1.34,0 -0.445,0 -0.894,-0.063 -1.339,0 -0.196,0.027 -0.336,0.234 -0.536,0.269 -0.351,0.059 -0.714,0 -1.07,0 -0.894,0 -1.785,0 -2.68,0 -2.05,0 -4.105,0 -6.16,0 -1.875,0 -3.75,0 -5.625,0 -0.715,0 -1.429,0.047 -2.14,0 -0.633,-0.043 -1.25,-0.207 -1.875,-0.269 -0.27,-0.028 -0.543,0.051 -0.805,0 -0.637,-0.129 -1.238,-0.41 -1.875,-0.535 -2.836,-0.567 2.137,1.015 -2.145,-0.27 -0.75,0.035 -1.23,-0.586 -1.875,-0.801 -0.347,-0.117 -0.711,-0.199 -1.07,-0.269 -0.086,-0.02 -0.195,0.051 -0.269,0 -0.208,-0.141 -0.325,-0.395 -0.536,-0.535 -0.074,-0.051 -0.179,0.019 -0.265,0 -0.274,-0.071 -0.551,-0.141 -0.805,-0.27 -0.113,-0.055 -0.18,-0.176 -0.269,-0.265 -0.266,-0.27 -0.536,-0.536 -0.801,-0.805 -0.09,-0.09 -0.156,-0.211 -0.27,-0.27 -0.25,-0.125 -0.558,-0.125 -0.804,-0.265 -0.79,0.062 -0.864,-0.754 -1.336,-1.071 -0.993,-0.66 -0.254,0.282 -1.61,-1.074 -0.14,-0.14 -0.125,-0.394 -0.265,-0.535 -0.497,-0.492 -1.079,-0.887 -1.61,-1.34 -0.094,-0.082 -0.168,-0.191 -0.265,-0.265 -0.258,-0.196 -0.547,-0.344 -0.805,-0.536 -0.203,-0.152 -0.359,-0.359 -0.535,-0.539 -0.09,-0.086 -0.18,-0.175 -0.27,-0.265 -0.09,-0.09 -0.265,-0.141 -0.265,-0.27 0,-0.09 0.175,0 0.265,0 0.09,0 0.18,0 0.27,0 0.121,0 0.722,-0.039 0.801,0 0.113,0.059 0.156,0.211 0.269,0.27 0.082,0.039 0.684,0 0.805,0 0.625,0 1.25,0 1.875,0 0.715,0 -0.09,0.09 0.265,-0.27 0.129,-0.125 0.379,0.082 0.536,0 0.113,-0.055 0.156,-0.211 0.269,-0.265 0.16,-0.083 0.41,0.125 0.535,0 0.063,-0.063 -0.062,-0.207 0,-0.27 0.063,-0.063 0.188,0.039 0.27,0 0.113,-0.055 0.152,-0.211 0.265,-0.266 0.082,-0.043 0.207,0.063 0.27,0 0.062,-0.066 -0.063,-0.207 0,-0.269 0.125,-0.125 0.367,0.055 0.535,0 0.191,-0.063 0.395,-0.125 0.535,-0.27 0.063,-0.062 -0.078,-0.226 0,-0.265 0.16,-0.082 0.367,0.054 0.535,0 0.243,-0.082 0.313,-0.422 0.536,-0.535 0.082,-0.043 0.183,0.027 0.269,0 1.941,-0.649 -0.422,0.074 0.805,-0.536 0.078,-0.043 0.187,0.039 0.265,0 0.258,-0.129 0.864,-1.004 1.075,-1.074 0.168,-0.055 0.363,0.059 0.535,0 0.117,-0.039 0.176,-0.176 0.265,-0.265 0.18,-0.09 0.348,-0.207 0.536,-0.27 0.085,-0.027 0.183,0.027 0.269,0 1.664,-0.555 -0.891,0.023 1.34,-0.535 0.086,-0.024 0.184,0.027 0.266,0 0.191,-0.063 0.347,-0.203 0.539,-0.27 0.082,-0.027 0.187,0.043 0.265,0 0.891,-0.886 -0.25,0.129 0.535,-0.265 0.114,-0.059 0.157,-0.211 0.27,-0.27 0.16,-0.078 0.375,0.082 0.535,0 0.113,-0.055 0.156,-0.211 0.27,-0.265 0.078,-0.043 0.175,0 0.265,0 0.149,0 1.063,0.054 1.34,0 0.359,-0.075 0.711,-0.196 1.07,-0.27 0.27,-0.055 1.442,0 1.61,0 1.25,0 2.5,0 3.75,0 0.535,0 1.07,0 1.605,0 0.121,0 0.723,-0.039 0.805,0 0.113,0.059 0.156,0.211 0.266,0.27 0.16,0.078 0.41,-0.129 0.539,0 0.062,0.062 -0.067,0.203 0,0.265 0.007,0.008 0.738,0 0.8,0"
           style="fill:#ffffff;fill-opacity:1;fill-rule:nonzero;stroke:#ffffff;stroke-width:0.75;stroke-linecap:butt;stroke-linejoin:miter;stroke-miterlimit:4;stroke-dasharray:none;stroke-opacity:1"
           id="path62"
           inkscape:connector-curvature="0" /></g><g
         id="g64"><path
           d="m 24.996,152.711 c 0.481,-0.246 0.574,-0.719 0.969,-1.012 0.578,-0.433 0.254,0.215 0.777,-0.433 0.106,-0.133 0.051,-0.328 0.196,-0.434 0.304,-0.23 0.664,-0.062 0.972,-0.289 0.102,-0.078 0.07,-0.231 0.192,-0.289 0.109,-0.055 0.265,0.027 0.39,0 0.172,-0.043 0.223,-0.231 0.387,-0.289 0.183,-0.07 0.398,-0.078 0.582,-0.145 0.082,-0.031 0.109,-0.125 0.195,-0.144 0.125,-0.031 0.262,0.023 0.391,0 0.141,-0.028 0.25,-0.114 0.387,-0.145 0.062,-0.015 0.132,0.012 0.195,0 0.137,-0.035 0.25,-0.113 0.387,-0.144 0.062,-0.016 0.132,0.011 0.195,0 0.137,-0.035 0.25,-0.114 0.387,-0.145 0.062,-0.015 0.132,0.012 0.195,0 0.137,-0.035 0.25,-0.113 0.391,-0.144 0.058,-0.016 0.128,0 0.191,0 0.262,-0.098 0.508,-0.211 0.777,-0.289 0.063,-0.02 0.133,0.011 0.196,0 0.136,-0.036 0.246,-0.121 0.386,-0.145 0.184,-0.035 0.403,0.031 0.586,0 0.395,-0.074 0.758,-0.246 1.164,-0.289 0.258,-0.027 0.524,0.035 0.778,0 0.09,-0.016 0.105,-0.125 0.195,-0.145 0.246,-0.062 0.531,0.059 0.777,0 0.086,-0.023 0.106,-0.125 0.192,-0.144 0.156,-0.039 1.054,0.039 1.168,0 0.082,-0.031 0.105,-0.125 0.191,-0.145 0.074,-0.019 1.133,0 1.168,0 0.465,0 -0.082,0.012 0.777,-0.144 0.243,-0.047 0.532,0.043 0.778,0 0.14,-0.027 0.25,-0.113 0.387,-0.145 0.109,-0.027 0.457,0 0.582,0 0.39,0 0.777,0 1.168,0 0.257,0 0.515,0 0.777,0 0.129,0 0.258,0 0.387,0 0.066,0 0.132,-0.015 0.195,0 0.137,0.032 0.25,0.11 0.387,0.145 0.125,0.027 0.265,-0.024 0.39,0 0.199,0.035 0.387,0.094 0.582,0.144 0.196,0.047 0.399,0.075 0.582,0.145 0.082,0.027 0.117,0.105 0.196,0.144 0.121,0.059 0.265,0.082 0.386,0.145 0.078,0.035 0.118,0.105 0.196,0.145 1.05,0.519 -0.274,-0.235 0.777,0.289 0.152,0.074 0.258,0.191 0.387,0.289 0.148,0.105 0.429,0.289 0.195,0.289 -0.066,0 -0.027,-0.102 0,-0.145 0.043,-0.062 0.152,-0.086 0.195,-0.144 0.059,-0.09 -0.058,-0.203 0,-0.289 0.039,-0.063 0.153,-0.086 0.196,-0.145 0.027,-0.043 -0.032,-0.102 0,-0.144 0.039,-0.063 0.14,-0.09 0.191,-0.145 0.082,-0.09 0.113,-0.203 0.195,-0.289 0.051,-0.059 0.145,-0.09 0.196,-0.145 0.078,-0.089 0.09,-0.214 0.191,-0.289 0.473,-0.175 0.289,-0.07 0.586,-0.289 0.113,-0.086 0.688,-0.547 0.777,-0.578 0.055,-0.023 0.133,0.02 0.192,0 0.164,-0.062 0.238,-0.215 0.39,-0.289 0.446,-0.223 0.524,-0.07 0.969,-0.289 0.356,-0.18 0.02,-0.187 0.586,-0.293 0.125,-0.019 0.266,0.039 0.387,0 0.219,-0.062 0.367,-0.223 0.582,-0.289 0.121,-0.035 0.265,0.023 0.39,0 0.141,-0.023 0.247,-0.117 0.387,-0.145 0.125,-0.019 0.258,0 0.391,0 0.258,0 0.515,0 0.777,0 0.906,0 1.813,0 2.719,0 0.387,0 0.777,0 1.164,0 0.195,0 0.391,0 0.582,0 0.129,0 0.266,-0.019 0.391,0 0.14,0.028 0.246,0.122 0.386,0.145 0.254,0.047 0.539,-0.07 0.778,0 0.347,0.105 0.593,0.367 0.972,0.434 0.125,0.023 0.262,-0.02 0.387,0 0.141,0.027 0.254,0.113 0.391,0.148 0.058,0.012 0.132,-0.016 0.191,0 1.41,0.348 -0.305,-0.043 0.586,0.289 0.055,0.02 0.129,0 0.191,0 0.133,0.047 0.27,0.082 0.391,0.145 0.227,0.113 0.363,0.308 0.582,0.433 0.117,0.063 0.27,0.082 0.387,0.145 0.078,0.035 0.121,0.105 0.195,0.144 0.121,0.059 0.285,0.067 0.391,0.145 0.101,0.074 0.113,0.199 0.191,0.289 0.051,0.055 0.156,0.082 0.195,0.144 0.032,0.043 -0.027,0.098 0,0.145 0.043,0.059 0.145,0.086 0.196,0.144 0.078,0.086 0.113,0.2 0.195,0.29 0.102,0.113 0.328,0.156 0.387,0.289 0.043,0.089 -0.039,0.195 0,0.289 0.027,0.062 0.152,0.082 0.195,0.144 0.027,0.043 -0.019,0.098 0,0.145 0.047,0.101 0.149,0.183 0.195,0.289 0.02,0.043 -0.023,0.097 0,0.144 0.043,0.102 0.164,0.184 0.192,0.289 0.015,0.047 -0.047,0.614 0,0.723 0.047,0.102 0.148,0.184 0.195,0.289 0.016,0.039 0.016,0.828 0,0.867 -0.047,0.102 -0.129,0.192 -0.195,0.289 -0.063,0.094 -0.117,0.196 -0.192,0.289 -0.121,0.149 -0.296,0.274 -0.39,0.434 -0.106,0.18 -0.059,0.406 -0.196,0.578 -0.257,0.32 -0.66,0.57 -0.968,0.867 -0.403,0.383 -0.754,0.969 -1.168,1.301 -0.465,0.375 -1.086,0.633 -1.555,1.012 -0.508,0.414 -0.668,1.019 -1.164,1.445 -0.375,0.32 -0.93,0.457 -1.359,0.723 -0.211,0.129 -0.368,0.304 -0.582,0.433 -0.114,0.067 -0.286,0.067 -0.391,0.145 -0.164,0.121 -0.199,0.328 -0.387,0.434 -1.703,0.949 -0.605,0.292 -1.554,0.433 -0.2,0.027 -0.387,0.102 -0.582,0.145 -0.258,0.054 -0.52,0.093 -0.778,0.144 -0.258,0.047 -0.512,0.117 -0.777,0.145 -0.258,0.023 -0.524,-0.039 -0.777,0 -0.403,0.058 -0.762,0.238 -1.165,0.289 -0.382,0.047 -0.781,-0.039 -1.167,0 -0.59,0.058 -1.157,0.23 -1.747,0.289 -0.304,0.031 -1.765,-0.028 -2.136,0 -0.395,0.027 -0.774,0.121 -1.168,0.144 -0.711,0.035 -1.422,0 -2.137,0 -0.324,0 -0.645,0 -0.969,0 -0.261,0 -0.523,0.028 -0.777,0 -0.203,-0.023 -0.383,-0.125 -0.582,-0.144 -0.703,-0.074 -1.266,0.109 -1.945,-0.145 -0.165,-0.062 -0.235,-0.215 -0.387,-0.289 -0.055,-0.027 -0.133,0.008 -0.195,0 -0.262,-0.039 -0.528,-0.07 -0.778,-0.144 -0.086,-0.028 -0.113,-0.11 -0.195,-0.145 -0.246,-0.113 -0.535,-0.172 -0.777,-0.289 -0.153,-0.078 -0.235,-0.215 -0.387,-0.289 -0.242,-0.121 -0.528,-0.184 -0.778,-0.289 -0.214,-0.094 -0.675,-0.371 -0.972,-0.434 -2.461,-0.367 0.199,0.125 -1.551,-0.433 -0.246,-0.078 -0.523,-0.082 -0.777,-0.145 -0.137,-0.035 -0.254,-0.113 -0.391,-0.144 -0.059,-0.016 -0.133,0.015 -0.191,0 -0.27,-0.082 -0.512,-0.211 -0.778,-0.289 -0.062,-0.02 -0.136,0.019 -0.195,0 -0.082,-0.032 -0.129,-0.098 -0.195,-0.145 -0.129,-0.098 -0.235,-0.215 -0.387,-0.289 -0.055,-0.027 -0.133,0.016 -0.195,0 -0.137,-0.035 -0.27,-0.086 -0.391,-0.144 -0.074,-0.04 -0.105,-0.122 -0.191,-0.145 -0.25,-0.074 -0.532,-0.07 -0.778,-0.145 -0.086,-0.027 -0.113,-0.113 -0.195,-0.144 -0.059,-0.024 -0.137,0.019 -0.195,0 -0.082,-0.031 -0.11,-0.121 -0.192,-0.145 -0.25,-0.074 -0.515,-0.105 -0.777,-0.144 -0.067,-0.012 -0.137,0.019 -0.195,0 -0.079,-0.031 -0.77,-0.574 -0.778,-0.578 -0.066,-0.051 -0.113,-0.117 -0.195,-0.145 -0.477,-0.179 0.176,0.418 -0.582,-0.144 -0.305,-0.227 -0.039,-0.434 -0.582,-0.434 -0.215,-0.48 -0.195,-0.281 -0.195,-0.578 0,-0.035 0.007,-0.43 0,-0.434 -0.043,-0.035 -0.149,0.032 -0.192,0 -0.047,-0.035 0.043,-0.113 0,-0.144 -0.047,-0.035 -0.148,0.031 -0.195,0 -0.094,-0.07 0.09,-0.223 0,-0.289 -0.047,-0.035 -0.137,0.019 -0.195,0 -0.082,-0.031 -0.114,-0.117 -0.196,-0.145 -0.054,-0.023 -0.148,0.032 -0.191,0 -0.047,-0.035 0.027,-0.101 0,-0.144 -0.043,-0.063 -0.133,-0.098 -0.195,-0.145 -0.067,-0.051 -0.114,-0.117 -0.196,-0.144 -0.058,-0.024 -0.148,0.031 -0.195,0 -0.043,-0.035 0.031,-0.102 0,-0.145 -0.289,-0.433 -1.934,-0.148 -1.551,-0.867 z"
           style="fill:#ffffff;fill-opacity:1;fill-rule:nonzero;stroke:#ffffff;stroke-width:0.46918401;stroke-linecap:butt;stroke-linejoin:miter;stroke-miterlimit:4;stroke-dasharray:none;stroke-opacity:1"
           id="path66"
           inkscape:connector-curvature="0" /></g></g></g></svg>