<?xml version="1.0" encoding="UTF-8" standalone="no"?>
<svg
   xmlns:dc="http://purl.org/dc/elements/1.1/"
   xmlns:cc="http://creativecommons.org/ns#"
   xmlns:rdf="http://www.w3.org/1999/02/22-rdf-syntax-ns#"
   xmlns:svg="http://www.w3.org/2000/svg"
   xmlns="http://www.w3.org/2000/svg"
   viewBox="0 0 215.25999 248.56265"
   height="248.56265"
   width="215.25999"
   xml:space="preserve"
   id="svg4025"
   version="1.1"><metadata
     id="metadata4031"><rdf:RDF><cc:Work
         rdf:about=""><dc:format>image/svg+xml</dc:format><dc:type
           rdf:resource="http://purl.org/dc/dcmitype/StillImage" /><dc:title></dc:title></cc:Work></rdf:RDF></metadata><defs
     id="defs4029" /><g
     transform="matrix(1.3333333,0,0,1.3333333,0,3.5473998e-6)"
     id="g4033"><g
       id="g4035"><path
         id="path4037"
         style="fill:#e26c00;fill-opacity:1;fill-rule:nonzero;stroke:none"
         d="M 161.445,139.816 80.723,186.422 0,139.816 V 46.605 L 80.723,0 161.445,46.605 Z" /><g
         id="g4039"><path
           id="path4041"
           style="fill:#ffffff;fill-opacity:1;fill-rule:nonzero;stroke:#ffffff;stroke-width:6.16819;stroke-linecap:butt;stroke-linejoin:miter;stroke-miterlimit:4;stroke-dasharray:none;stroke-opacity:1"
           d="m 78.465,47.723 c 0,9.41 -7.625,17.035 -17.035,17.035 -9.407,0 -17.035,-7.625 -17.035,-17.035 0,-9.407 7.628,-17.035 17.035,-17.035 9.41,0 17.035,7.628 17.035,17.035 z" /></g><g
         id="g4043"><path
           id="path4045"
           style="fill:#ffffff;fill-opacity:1;fill-rule:nonzero;stroke:#ffffff;stroke-width:6.16819;stroke-linecap:butt;stroke-linejoin:miter;stroke-miterlimit:4;stroke-dasharray:none;stroke-opacity:1"
           d="m 145.324,103.598 c 0,9.406 -7.625,17.035 -17.035,17.035 -9.406,0 -17.035,-7.629 -17.035,-17.035 0,-9.41 7.629,-17.036 17.035,-17.036 9.41,0 17.035,7.626 17.035,17.036 z" /></g><g
         id="g4047"><path
           id="path4049"
           style="fill:#ffffff;fill-opacity:1;fill-rule:nonzero;stroke:#ffffff;stroke-width:6.16819;stroke-linecap:butt;stroke-linejoin:miter;stroke-miterlimit:4;stroke-dasharray:none;stroke-opacity:1"
           d="m 65.836,133.855 c 0,9.411 -7.625,17.036 -17.035,17.036 -9.406,0 -17.035,-7.625 -17.035,-17.036 0,-9.406 7.629,-17.035 17.035,-17.035 9.41,0 17.035,7.629 17.035,17.035 z" /></g><g
         id="g4051"><path
           id="path4053"
           style="fill:none;stroke:#ffffff;stroke-width:5.00315;stroke-linecap:butt;stroke-linejoin:miter;stroke-miterlimit:4;stroke-dasharray:none;stroke-opacity:1"
           d="M 62.379,54.352 41.922,137.312 125.258,105.113 63.516,53.594" /></g><g
         id="g4055"><path
           id="path4057"
           style="fill:none;stroke:#ffffff;stroke-width:0.75;stroke-linecap:butt;stroke-linejoin:miter;stroke-miterlimit:4;stroke-dasharray:none;stroke-opacity:1"
           d="m 29.801,75.945 92.429,60.989" /></g></g></g></svg>
