<?xml version="1.0" encoding="UTF-8" standalone="no"?>
<svg
   xmlns:dc="http://purl.org/dc/elements/1.1/"
   xmlns:cc="http://creativecommons.org/ns#"
   xmlns:rdf="http://www.w3.org/1999/02/22-rdf-syntax-ns#"
   xmlns:svg="http://www.w3.org/2000/svg"
   xmlns="http://www.w3.org/2000/svg"
   viewBox="0 0 464.96213 248.56265"
   height="248.56265"
   width="464.96213"
   xml:space="preserve"
   id="svg1095"
   version="1.1"><metadata
     id="metadata1101"><rdf:RDF><cc:Work
         rdf:about=""><dc:format>image/svg+xml</dc:format><dc:type
           rdf:resource="http://purl.org/dc/dcmitype/StillImage" /><dc:title></dc:title></cc:Work></rdf:RDF></metadata><defs
     id="defs1099" /><g
     transform="matrix(1.3333333,0,0,1.3333333,0,3.5473998e-6)"
     id="g1103"><g
       id="g1105"><path
         id="path1107"
         style="fill:#e26c00;fill-opacity:1;fill-rule:nonzero;stroke:none"
         d="M 161.445,139.816 80.723,186.422 0,139.816 V 46.605 L 80.723,0 161.445,46.605 Z" /><path
         id="path1109"
         style="fill:#e26c00;fill-opacity:1;fill-rule:nonzero;stroke:none"
         d="m 198.16,124.109 c 3.414,0 6.133,-0.972 8.156,-2.921 2.032,-1.946 3.047,-4.579 3.047,-7.891 V 78.5 h -22.39 v -6.391 h 29.593 v 41.188 c 0,2.617 -0.429,4.992 -1.281,7.125 -0.855,2.137 -2.086,3.953 -3.687,5.453 -1.594,1.492 -3.528,2.637 -5.797,3.437 -2.262,0.79 -4.809,1.188 -7.641,1.188 -2.344,0 -4.531,-0.344 -6.562,-1.031 -2.024,-0.696 -3.821,-1.696 -5.391,-3 -1.574,-1.313 -2.883,-2.875 -3.922,-4.688 -1.043,-1.812 -1.75,-3.836 -2.125,-6.078 h 7.203 c 0.477,2.563 1.703,4.606 3.672,6.125 1.977,1.524 4.352,2.281 7.125,2.281 z" /><path
         id="path1111"
         style="fill:#e26c00;fill-opacity:1;fill-rule:nonzero;stroke:none"
         d="m 242.41,123.297 c 3.352,0 6.055,-1.024 8.11,-3.078 2.05,-2.051 3.078,-4.754 3.078,-8.11 V 89.625 c 0,-3.363 -1.028,-6.055 -3.078,-8.078 -2.055,-2.031 -4.758,-3.047 -8.11,-3.047 h -8.89 v 44.797 z m -16.078,6.406 V 72.109 h 16.078 c 2.77,0 5.285,0.43 7.547,1.282 2.27,0.843 4.219,2.027 5.844,3.547 1.625,1.523 2.875,3.367 3.75,5.531 0.883,2.156 1.328,4.543 1.328,7.156 v 22.484 c 0,2.606 -0.445,5 -1.328,7.188 -0.875,2.187 -2.125,4.043 -3.75,5.562 -1.625,1.524 -3.574,2.711 -5.844,3.563 -2.262,0.855 -4.777,1.281 -7.547,1.281 z" /><path
         id="path1113"
         style="fill:#e26c00;fill-opacity:1;fill-rule:nonzero;stroke:none"
         d="m 269.051,71.297 h 7.187 v 13.609 c 0,0.742 -0.015,1.606 -0.047,2.594 -0.023,0.992 -0.058,1.914 -0.109,2.766 -0.105,1.011 -0.184,2.023 -0.234,3.031 h 0.64 c 0.688,-2.664 2.098,-4.727 4.235,-6.188 2.132,-1.468 4.828,-2.203 8.078,-2.203 2.238,0 4.265,0.403 6.078,1.203 1.812,0.793 3.359,1.922 4.641,3.391 1.281,1.469 2.281,3.273 3,5.406 0.718,2.137 1.078,4.539 1.078,7.203 v 11.188 c 0,2.668 -0.36,5.07 -1.078,7.203 -0.719,2.137 -1.719,3.938 -3,5.406 -1.282,1.469 -2.829,2.606 -4.641,3.406 -1.813,0.79 -3.84,1.188 -6.078,1.188 -3.25,0 -5.946,-0.73 -8.078,-2.188 -2.137,-1.468 -3.547,-3.535 -4.235,-6.203 h -0.64 v 7.594 h -6.797 z m 7.187,42 c 0,3.367 0.891,6.039 2.672,8.015 1.789,1.969 4.18,2.954 7.172,2.954 3.195,0 5.719,-0.985 7.563,-2.954 1.843,-1.976 2.765,-4.648 2.765,-8.015 v -11.188 c 0,-3.468 -0.914,-6.16 -2.734,-8.078 -1.813,-1.926 -4.344,-2.89 -7.594,-2.89 -2.992,0 -5.383,0.992 -7.172,2.968 -1.781,1.969 -2.672,4.637 -2.672,8 z" /><path
         id="path1115"
         style="fill:#e26c00;fill-opacity:1;fill-rule:nonzero;stroke:none"
         d="m 329.676,71.297 v 45.609 c 0,1.969 0.531,3.5 1.594,4.594 1.07,1.094 2.539,1.641 4.406,1.641 h 13.047 v 6.562 h -13.047 c -4.106,0 -7.328,-1.129 -9.672,-3.391 -2.344,-2.269 -3.516,-5.406 -3.516,-9.406 V 77.859 h -14.562 v -6.562 z" /><g
         id="g1117"><path
           id="path1119"
           style="fill:#ffffff;fill-opacity:1;fill-rule:nonzero;stroke:#ffffff;stroke-width:6.16819477;stroke-linecap:butt;stroke-linejoin:miter;stroke-miterlimit:4;stroke-dasharray:none;stroke-opacity:1"
           d="m 78.465,47.723 c 0,9.41 -7.625,17.035 -17.035,17.035 -9.407,0 -17.035,-7.625 -17.035,-17.035 0,-9.407 7.628,-17.035 17.035,-17.035 9.41,0 17.035,7.628 17.035,17.035 z" /></g><g
         id="g1121"><path
           id="path1123"
           style="fill:#ffffff;fill-opacity:1;fill-rule:nonzero;stroke:#ffffff;stroke-width:6.16819477;stroke-linecap:butt;stroke-linejoin:miter;stroke-miterlimit:4;stroke-dasharray:none;stroke-opacity:1"
           d="m 145.324,103.598 c 0,9.406 -7.625,17.035 -17.035,17.035 -9.406,0 -17.035,-7.629 -17.035,-17.035 0,-9.41 7.629,-17.036 17.035,-17.036 9.41,0 17.035,7.626 17.035,17.036 z" /></g><g
         id="g1125"><path
           id="path1127"
           style="fill:#ffffff;fill-opacity:1;fill-rule:nonzero;stroke:#ffffff;stroke-width:6.16819477;stroke-linecap:butt;stroke-linejoin:miter;stroke-miterlimit:4;stroke-dasharray:none;stroke-opacity:1"
           d="m 65.836,133.855 c 0,9.411 -7.625,17.036 -17.035,17.036 -9.406,0 -17.035,-7.625 -17.035,-17.036 0,-9.406 7.629,-17.035 17.035,-17.035 9.41,0 17.035,7.629 17.035,17.035 z" /></g><g
         id="g1129"><path
           id="path1131"
           style="fill:none;stroke:#ffffff;stroke-width:5.00314999;stroke-linecap:butt;stroke-linejoin:miter;stroke-miterlimit:4;stroke-dasharray:none;stroke-opacity:1"
           d="M 62.379,54.352 41.922,137.312 125.258,105.113 63.516,53.594" /></g><g
         id="g1133"><path
           id="path1135"
           style="fill:none;stroke:#ffffff;stroke-width:0.75;stroke-linecap:butt;stroke-linejoin:miter;stroke-miterlimit:4;stroke-dasharray:none;stroke-opacity:1"
           d="m 29.801,75.945 92.429,60.989" /></g></g></g></svg>