<?xml version="1.0" encoding="UTF-8" standalone="no"?>
<svg
   xmlns:dc="http://purl.org/dc/elements/1.1/"
   xmlns:cc="http://creativecommons.org/ns#"
   xmlns:rdf="http://www.w3.org/1999/02/22-rdf-syntax-ns#"
   xmlns:svg="http://www.w3.org/2000/svg"
   xmlns="http://www.w3.org/2000/svg"
   viewBox="0 0 1007.7087 248.56265"
   height="248.56265"
   width="1007.7087"
   xml:space="preserve"
   id="svg2"
   version="1.1"><metadata
     id="metadata8"><rdf:RDF><cc:Work
         rdf:about=""><dc:format>image/svg+xml</dc:format><dc:type
           rdf:resource="http://purl.org/dc/dcmitype/StillImage" /><dc:title></dc:title></cc:Work></rdf:RDF></metadata><defs
     id="defs6" /><g
     transform="matrix(1.3333333,0,0,1.3333333,0,3.5473998e-6)"
     id="g10"><g
       id="g12"><path
         id="path14"
         style="fill:#aa0000;fill-opacity:1;fill-rule:nonzero;stroke:none"
         d="M 177.832,139.816 97.105,186.422 16.383,139.816 V 46.605 L 97.105,0 177.832,46.605 Z" /><path
         id="path16"
         style="fill:#d40000;fill-opacity:1;fill-rule:nonzero;stroke:none"
         d="m 195.824,70.77 h 32.641 v 5.046 H 215.09 v 41.032 h -5.891 V 75.816 h -13.375 z" /><path
         id="path18"
         style="fill:#d40000;fill-opacity:1;fill-rule:nonzero;stroke:none"
         d="m 245.277,117.488 c -2.093,0 -4.039,-0.289 -5.828,-0.859 -1.793,-0.582 -3.34,-1.414 -4.64,-2.5 -1.305,-1.094 -2.329,-2.406 -3.079,-3.938 -0.742,-1.531 -1.132,-3.257 -1.171,-5.187 h 6.078 c 0,1.117 0.222,2.121 0.672,3.016 0.445,0.898 1.078,1.668 1.89,2.312 0.813,0.637 1.75,1.137 2.813,1.5 1.062,0.356 2.191,0.531 3.39,0.531 2.688,0 4.817,-0.625 6.391,-1.875 1.582,-1.258 2.375,-2.976 2.375,-5.156 0,-1.832 -0.578,-3.461 -1.734,-4.891 -1.149,-1.437 -2.809,-2.562 -4.985,-3.375 l -4.859,-1.781 c -7.125,-2.601 -10.688,-6.914 -10.688,-12.937 0,-3.832 1.211,-6.828 3.641,-8.985 2.437,-2.156 5.785,-3.234 10.047,-3.234 2.008,0 3.844,0.277 5.5,0.828 1.664,0.555 3.109,1.367 4.328,2.438 1.219,1.062 2.176,2.355 2.875,3.875 0.707,1.511 1.082,3.203 1.125,5.078 h -6.078 c 0,-1.063 -0.215,-2.032 -0.641,-2.907 -0.429,-0.875 -0.996,-1.617 -1.703,-2.234 -0.699,-0.625 -1.516,-1.102 -2.453,-1.437 -0.938,-0.344 -1.945,-0.516 -3.016,-0.516 -2.429,0 -4.339,0.578 -5.734,1.734 -1.387,1.149 -2.078,2.7 -2.078,4.657 0,1.929 0.519,3.523 1.562,4.781 1.051,1.25 2.75,2.304 5.094,3.156 l 5.125,1.859 c 3.414,1.243 6.02,3.032 7.813,5.375 1.789,2.344 2.687,5.118 2.687,8.313 0,3.844 -1.312,6.867 -3.937,9.062 -2.625,2.2 -6.219,3.297 -10.782,3.297 z" /><path
         id="path20"
         style="fill:#d40000;fill-opacity:1;fill-rule:nonzero;stroke:none"
         d="m 265.605,93.16 h 25.594 v 5.125 h -25.594 z" /><path
         id="path22"
         style="fill:#d40000;fill-opacity:1;fill-rule:nonzero;stroke:none"
         d="m 311.902,70.129 c 4.008,0 7.239,1.101 9.688,3.297 2.457,2.199 3.922,5.262 4.39,9.187 h -5.75 c -0.261,-2.312 -1.125,-4.113 -2.593,-5.406 -1.469,-1.301 -3.383,-1.953 -5.735,-1.953 -2.554,0 -4.578,0.773 -6.078,2.312 -1.492,1.532 -2.234,3.641 -2.234,6.329 v 19.828 c 0,2.687 0.734,4.804 2.203,6.343 1.477,1.532 3.516,2.297 6.109,2.297 2.352,0 4.266,-0.648 5.735,-1.953 1.468,-1.301 2.332,-3.101 2.593,-5.406 h 5.75 c -0.468,3.93 -1.933,6.992 -4.39,9.187 -2.449,2.2 -5.68,3.297 -9.688,3.297 -2.179,0 -4.132,-0.32 -5.859,-0.953 -1.719,-0.644 -3.188,-1.562 -4.406,-2.75 -1.219,-1.195 -2.164,-2.648 -2.828,-4.359 -0.657,-1.707 -0.985,-3.61 -0.985,-5.703 V 83.895 c 0,-2.094 0.328,-3.993 0.985,-5.704 0.664,-1.707 1.609,-3.156 2.828,-4.343 1.218,-1.196 2.687,-2.114 4.406,-2.75 1.727,-0.645 3.68,-0.969 5.859,-0.969 z" /><path
         id="path24"
         style="fill:#d40000;fill-opacity:1;fill-rule:nonzero;stroke:none"
         d="m 345.418,70.129 v 36.484 c 0,1.575 0.426,2.797 1.281,3.672 0.852,0.875 2.024,1.313 3.516,1.313 h 10.437 v 5.25 h -10.437 c -3.281,0 -5.867,-0.907 -7.75,-2.719 -1.875,-1.813 -2.813,-4.317 -2.813,-7.516 V 75.379 h -11.64 v -5.25 z" /><path
         id="path26"
         style="fill:#d40000;fill-opacity:1;fill-rule:nonzero;stroke:none"
         d="m 362.605,106.613 c 0,-1.664 0.286,-3.172 0.86,-4.515 0.582,-1.344 1.414,-2.485 2.5,-3.422 1.094,-0.938 2.406,-1.66 3.937,-2.172 1.532,-0.52 3.258,-0.781 5.188,-0.781 h 10.5 v -2.875 c 0,-2.176 -0.719,-3.868 -2.156,-5.078 -1.43,-1.219 -3.485,-1.829 -6.172,-1.829 -1.961,0 -3.637,0.368 -5.032,1.094 -1.386,0.719 -2.312,1.719 -2.781,3 h -5.75 c 0.594,-2.769 2.113,-4.969 4.563,-6.594 2.457,-1.625 5.5,-2.437 9.125,-2.437 4.351,0 7.765,1.016 10.234,3.047 2.477,2.023 3.719,4.851 3.719,8.484 v 24.313 h -5.25 v -6.719 h -0.5 c -0.563,2.262 -1.871,4.055 -3.922,5.375 -2.043,1.324 -4.539,1.984 -7.484,1.984 -3.543,0 -6.36,-0.976 -8.454,-2.937 -2.085,-1.969 -3.125,-4.613 -3.125,-7.938 z m 12.86,6.141 c 1.457,0 2.801,-0.192 4.031,-0.578 1.238,-0.383 2.305,-0.926 3.203,-1.625 0.895,-0.707 1.598,-1.531 2.11,-2.469 0.519,-0.937 0.781,-1.961 0.781,-3.078 v -4.797 h -10.375 c -2.137,0 -3.813,0.559 -5.031,1.672 -1.211,1.105 -1.813,2.637 -1.813,4.594 0,1.968 0.613,3.511 1.844,4.625 1.238,1.105 2.988,1.656 5.25,1.656 z" /><path
         id="path28"
         style="fill:#d40000;fill-opacity:1;fill-rule:nonzero;stroke:none"
         d="m 409.934,117.488 c -3.711,0 -6.774,-0.843 -9.188,-2.531 -2.406,-1.687 -3.781,-3.937 -4.125,-6.75 h 6.094 c 0.25,1.242 1.035,2.246 2.359,3.016 1.321,0.761 2.942,1.14 4.86,1.14 h 1.796 c 2.301,0 4.094,-0.476 5.375,-1.437 1.282,-0.957 1.922,-2.25 1.922,-3.875 0,-2.77 -1.965,-4.453 -5.89,-5.047 l -5.313,-0.766 c -3.461,-0.519 -6.043,-1.609 -7.75,-3.265 -1.699,-1.664 -2.547,-3.993 -2.547,-6.985 0,-3.156 1.118,-5.609 3.36,-7.359 2.238,-1.75 5.363,-2.625 9.375,-2.625 h 1.797 c 1.695,0 3.269,0.215 4.718,0.641 1.457,0.429 2.739,1.039 3.844,1.828 1.113,0.793 2.02,1.734 2.719,2.828 0.707,1.086 1.172,2.289 1.39,3.609 h -6.093 c -0.25,-1.113 -0.977,-2.019 -2.172,-2.719 -1.199,-0.707 -2.668,-1.062 -4.406,-1.062 h -1.797 c -2.18,0 -3.875,0.43 -5.094,1.281 -1.219,0.856 -1.828,2.137 -1.828,3.844 0,1.367 0.414,2.402 1.25,3.109 0.832,0.699 2.187,1.172 4.062,1.422 l 5.313,0.781 c 3.801,0.555 6.566,1.664 8.297,3.329 1.726,1.656 2.593,4.023 2.593,7.093 0,3.293 -1.148,5.867 -3.437,7.719 -2.281,1.855 -5.512,2.781 -9.688,2.781 z" /><path
         id="path30"
         style="fill:#d40000;fill-opacity:1;fill-rule:nonzero;stroke:none"
         d="m 443.059,117.488 c -3.711,0 -6.774,-0.843 -9.188,-2.531 -2.406,-1.687 -3.781,-3.937 -4.125,-6.75 h 6.094 c 0.25,1.242 1.035,2.246 2.359,3.016 1.321,0.761 2.942,1.14 4.86,1.14 h 1.796 c 2.301,0 4.094,-0.476 5.375,-1.437 1.282,-0.957 1.922,-2.25 1.922,-3.875 0,-2.77 -1.964,-4.453 -5.89,-5.047 l -5.313,-0.766 c -3.461,-0.519 -6.043,-1.609 -7.75,-3.265 -1.699,-1.664 -2.547,-3.993 -2.547,-6.985 0,-3.156 1.118,-5.609 3.36,-7.359 2.238,-1.75 5.363,-2.625 9.375,-2.625 h 1.797 c 1.695,0 3.269,0.215 4.718,0.641 1.457,0.429 2.739,1.039 3.844,1.828 1.113,0.793 2.02,1.734 2.719,2.828 0.707,1.086 1.172,2.289 1.39,3.609 h -6.093 c -0.25,-1.113 -0.977,-2.019 -2.172,-2.719 -1.199,-0.707 -2.668,-1.062 -4.406,-1.062 h -1.797 c -2.18,0 -3.875,0.43 -5.094,1.281 -1.219,0.856 -1.828,2.137 -1.828,3.844 0,1.367 0.414,2.402 1.25,3.109 0.832,0.699 2.187,1.172 4.062,1.422 l 5.313,0.781 c 3.801,0.555 6.566,1.664 8.297,3.329 1.726,1.656 2.593,4.023 2.593,7.093 0,3.293 -1.148,5.867 -3.437,7.719 -2.281,1.855 -5.512,2.781 -9.688,2.781 z" /><path
         id="path32"
         style="fill:#d40000;fill-opacity:1;fill-rule:nonzero;stroke:none"
         d="m 464.027,116.848 v -5.25 h 12.797 V 86.895 h -11.187 v -5.25 h 16.953 v 29.953 h 10.562 v 5.25 z m 14.078,-48.953 h 1.282 c 1.238,0 2.238,0.367 3,1.093 0.769,0.719 1.156,1.653 1.156,2.797 0,1.156 -0.387,2.078 -1.156,2.766 -0.762,0.679 -1.762,1.015 -3,1.015 h -1.282 c -1.242,0 -2.246,-0.328 -3.015,-0.984 -0.762,-0.664 -1.141,-1.598 -1.141,-2.797 0,-1.144 0.379,-2.078 1.141,-2.797 0.769,-0.726 1.773,-1.093 3.015,-1.093 z" /><path
         id="path34"
         style="fill:#d40000;fill-opacity:1;fill-rule:nonzero;stroke:none"
         d="m 494.918,90.41 v -5.25 h 10.234 v -6.078 c 0,-2.812 0.875,-5.004 2.625,-6.578 1.75,-1.582 4.161,-2.375 7.235,-2.375 h 10.297 v 5.25 h -10.297 c -2.731,0 -4.094,1.234 -4.094,3.703 v 6.078 h 14.391 v 5.25 h -14.391 v 26.438 h -5.766 V 90.41 Z" /><path
         id="path36"
         style="fill:#d40000;fill-opacity:1;fill-rule:nonzero;stroke:none"
         d="m 530.277,116.848 v -5.25 h 12.797 V 86.895 h -11.187 v -5.25 h 16.953 v 29.953 h 10.562 v 5.25 z m 14.078,-48.953 h 1.282 c 1.238,0 2.238,0.367 3,1.093 0.769,0.719 1.156,1.653 1.156,2.797 0,1.156 -0.387,2.078 -1.156,2.766 -0.762,0.679 -1.762,1.015 -3,1.015 h -1.282 c -1.242,0 -2.246,-0.328 -3.015,-0.984 -0.762,-0.664 -1.141,-1.598 -1.141,-2.797 0,-1.144 0.379,-2.078 1.141,-2.797 0.769,-0.726 1.773,-1.093 3.015,-1.093 z" /><path
         id="path38"
         style="fill:#d40000;fill-opacity:1;fill-rule:nonzero;stroke:none"
         d="m 577.043,117.488 c -2.18,0 -4.133,-0.32 -5.859,-0.953 -1.731,-0.644 -3.204,-1.562 -4.422,-2.75 -1.219,-1.195 -2.164,-2.648 -2.828,-4.359 -0.657,-1.707 -0.985,-3.61 -0.985,-5.703 V 94.77 c 0,-2.094 0.328,-3.993 0.985,-5.704 0.664,-1.707 1.609,-3.156 2.828,-4.343 1.218,-1.196 2.691,-2.114 4.422,-2.75 1.726,-0.645 3.679,-0.969 5.859,-0.969 3.875,0 7.062,1.058 9.562,3.172 2.5,2.117 4.004,5.008 4.516,8.672 h -5.766 c -0.304,-2.051 -1.21,-3.68 -2.718,-4.891 -1.512,-1.219 -3.375,-1.828 -5.594,-1.828 -2.563,0 -4.594,0.773 -6.094,2.312 -1.492,1.532 -2.234,3.641 -2.234,6.329 v 8.953 c 0,2.687 0.734,4.804 2.203,6.343 1.477,1.532 3.52,2.297 6.125,2.297 2.219,0 4.082,-0.601 5.594,-1.812 1.508,-1.219 2.414,-2.852 2.718,-4.906 h 5.766 c -0.562,3.718 -2.094,6.625 -4.594,8.718 -2.492,2.086 -5.652,3.125 -9.484,3.125 z" /><path
         id="path40"
         style="fill:#d40000;fill-opacity:1;fill-rule:nonzero;stroke:none"
         d="m 594.48,106.613 c 0,-1.664 0.286,-3.172 0.86,-4.515 0.582,-1.344 1.414,-2.485 2.5,-3.422 1.094,-0.938 2.406,-1.66 3.937,-2.172 1.532,-0.52 3.258,-0.781 5.188,-0.781 h 10.5 v -2.875 c 0,-2.176 -0.719,-3.868 -2.156,-5.078 -1.43,-1.219 -3.485,-1.829 -6.172,-1.829 -1.961,0 -3.637,0.368 -5.032,1.094 -1.386,0.719 -2.312,1.719 -2.781,3 h -5.75 c 0.594,-2.769 2.114,-4.969 4.563,-6.594 2.457,-1.625 5.5,-2.437 9.125,-2.437 4.351,0 7.765,1.016 10.234,3.047 2.477,2.023 3.719,4.851 3.719,8.484 v 24.313 h -5.25 v -6.719 h -0.5 c -0.563,2.262 -1.871,4.055 -3.922,5.375 -2.043,1.324 -4.539,1.984 -7.484,1.984 -3.543,0 -6.36,-0.976 -8.454,-2.937 -2.085,-1.969 -3.125,-4.613 -3.125,-7.938 z m 12.86,6.141 c 1.457,0 2.801,-0.192 4.031,-0.578 1.238,-0.383 2.305,-0.926 3.203,-1.625 0.895,-0.707 1.598,-1.531 2.11,-2.469 0.519,-0.937 0.781,-1.961 0.781,-3.078 v -4.797 H 607.09 c -2.137,0 -3.813,0.559 -5.031,1.672 -1.211,1.105 -1.813,2.637 -1.813,4.594 0,1.968 0.613,3.511 1.844,4.625 1.238,1.105 2.988,1.656 5.25,1.656 z" /><path
         id="path42"
         style="fill:#d40000;fill-opacity:1;fill-rule:nonzero;stroke:none"
         d="m 627.418,81.645 h 10.234 V 70.77 h 5.766 v 10.875 h 13.75 v 5.25 h -13.75 v 20.859 c 0,1.199 0.367,2.141 1.109,2.828 0.75,0.68 1.766,1.016 3.047,1.016 h 8.953 v 5.25 h -8.953 c -3.031,0 -5.445,-0.828 -7.234,-2.485 -1.793,-1.664 -2.688,-3.867 -2.688,-6.609 V 86.895 h -10.234 z" /><path
         id="path44"
         style="fill:#d40000;fill-opacity:1;fill-rule:nonzero;stroke:none"
         d="m 662.777,116.848 v -5.25 h 12.797 V 86.895 h -11.187 v -5.25 h 16.953 v 29.953 h 10.562 v 5.25 z m 14.078,-48.953 h 1.282 c 1.238,0 2.238,0.367 3,1.093 0.769,0.719 1.156,1.653 1.156,2.797 0,1.156 -0.387,2.078 -1.156,2.766 -0.762,0.679 -1.762,1.015 -3,1.015 h -1.282 c -1.242,0 -2.246,-0.328 -3.015,-0.984 -0.762,-0.664 -1.141,-1.598 -1.141,-2.797 0,-1.144 0.379,-2.078 1.141,-2.797 0.769,-0.726 1.773,-1.093 3.015,-1.093 z" /><path
         id="path46"
         style="fill:#d40000;fill-opacity:1;fill-rule:nonzero;stroke:none"
         d="m 700.699,103.723 c 0,2.687 0.735,4.804 2.203,6.343 1.477,1.532 3.52,2.297 6.125,2.297 2.563,0 4.586,-0.765 6.078,-2.297 1.489,-1.539 2.235,-3.656 2.235,-6.343 V 94.77 c 0,-2.688 -0.746,-4.797 -2.235,-6.329 -1.492,-1.539 -3.515,-2.312 -6.078,-2.312 -2.562,0 -4.593,0.773 -6.093,2.312 -1.493,1.532 -2.235,3.641 -2.235,6.329 z m -5.75,-8.953 c 0,-2.133 0.328,-4.047 0.985,-5.735 0.664,-1.687 1.601,-3.125 2.812,-4.312 1.219,-1.196 2.692,-2.114 4.422,-2.75 1.727,-0.645 3.68,-0.969 5.859,-0.969 4.352,0 7.785,1.219 10.297,3.656 2.52,2.43 3.781,5.778 3.781,10.047 v 9.016 c 0,2.136 -0.324,4.058 -0.968,5.765 -0.637,1.711 -1.563,3.153 -2.782,4.328 -1.21,1.168 -2.687,2.075 -4.437,2.719 -1.75,0.633 -3.715,0.953 -5.891,0.953 -2.179,0 -4.132,-0.32 -5.859,-0.953 -1.73,-0.644 -3.203,-1.562 -4.422,-2.75 -1.211,-1.195 -2.148,-2.648 -2.812,-4.359 -0.657,-1.707 -0.985,-3.61 -0.985,-5.703 z" /><path
         id="path48"
         style="fill:#d40000;fill-opacity:1;fill-rule:nonzero;stroke:none"
         d="M 728.574,116.848 V 81.645 h 5.453 v 6.078 h 0.5 c 0.563,-2.125 1.68,-3.774 3.36,-4.953 1.687,-1.176 3.789,-1.766 6.312,-1.766 1.75,0 3.336,0.305 4.766,0.906 1.426,0.594 2.64,1.438 3.64,2.531 1.008,1.086 1.79,2.387 2.344,3.907 0.551,1.511 0.828,3.203 0.828,5.078 v 23.422 h -5.75 V 94.379 c 0,-2.688 -0.687,-4.774 -2.062,-6.266 -1.367,-1.488 -3.262,-2.234 -5.688,-2.234 -2.429,0 -4.359,0.805 -5.797,2.406 -1.429,1.594 -2.14,3.758 -2.14,6.485 v 22.078 z" /><g
         id="g50"><path
           id="path52"
           style="fill:#ffffff;fill-opacity:1;fill-rule:nonzero;stroke:#ffffff;stroke-width:4.25196886;stroke-linecap:butt;stroke-linejoin:miter;stroke-miterlimit:4;stroke-dasharray:none;stroke-opacity:1"
           d="M 134.414,48.727 109.852,89.922 92.352,69.793 82.707,76.598 67.012,56.305 58.484,76.008 51.41,67.074 3.004,116.055 l 0.531,0.527 47.813,-48.375 7.328,9.246 8.519,-19.691 15.364,19.863 9.671,-6.832 17.735,20.402 24.68,-41.39 27.339,19.429 L 190.23,50.531 189.816,49.906 162,68.324 Z" /></g><g
         id="g54"><path
           id="path56"
           style="fill:#ffffff;fill-opacity:1;fill-rule:nonzero;stroke:#ffffff;stroke-width:4.25196886;stroke-linecap:butt;stroke-linejoin:miter;stroke-miterlimit:4;stroke-dasharray:none;stroke-opacity:1"
           d="m 165.195,96.023 -22.8,30.207 -9.051,-5.839 -11.551,11.164 -29.313,-19.856 -11.234,7.801 -23.164,-7.973 -35.207,40.532 0.566,0.492 34.871,-40.149 23.051,7.934 11.121,-7.731 29.399,19.915 11.555,-11.176 9.136,5.894 22.66,-30.019 20.34,23.703 0.571,-0.492 z" /></g></g></g></svg>