<?xml version="1.0" encoding="UTF-8"?>
<svg width="215.26" height="248.56" version="1.1" viewBox="0 0 215.26 248.56" xml:space="preserve" xmlns="http://www.w3.org/2000/svg" xmlns:cc="http://creativecommons.org/ns#" xmlns:dc="http://purl.org/dc/elements/1.1/" xmlns:rdf="http://www.w3.org/1999/02/22-rdf-syntax-ns#"><metadata><rdf:RDF><cc:Work rdf:about=""><dc:format>image/svg+xml</dc:format><dc:type rdf:resource="http://purl.org/dc/dcmitype/StillImage"/><dc:title/></cc:Work></rdf:RDF></metadata><g transform="matrix(1.3333 0 0 1.3333 -21.834 .19982)"><path d="m177.83 139.82-80.727 46.606-80.722-46.606v-93.211l80.722-46.605 80.727 46.605z" fill="#a00"/><path d="m134.41 48.727-24.562 41.195-17.5-20.129-9.645 6.805-15.695-20.293-8.528 19.703-7.074-8.934-48.406 48.981 0.531 0.527 47.813-48.375 7.328 9.246 8.519-19.691 15.364 19.863 9.671-6.832 17.735 20.402 24.68-41.39 27.339 19.429 28.246-18.703-0.414-0.625-27.816 18.418z" fill="#fff" stroke="#fff" stroke-width="4.252"/><path d="m165.2 96.023-22.8 30.207-9.051-5.839-11.551 11.164-29.313-19.856-11.234 7.801-23.164-7.973-35.207 40.532 0.566 0.492 34.871-40.149 23.051 7.934 11.121-7.731 29.399 19.915 11.555-11.176 9.136 5.894 22.66-30.019 17.975 19.436z" fill="#fff" stroke="#fff" stroke-width="4.252"/></g></svg>
