<?xml version="1.0" encoding="UTF-8" standalone="no"?>
<svg
   xmlns:dc="http://purl.org/dc/elements/1.1/"
   xmlns:cc="http://creativecommons.org/ns#"
   xmlns:rdf="http://www.w3.org/1999/02/22-rdf-syntax-ns#"
   xmlns:svg="http://www.w3.org/2000/svg"
   xmlns="http://www.w3.org/2000/svg"
   viewBox="0 0 1228.0819 750.00946"
   height="750.00946"
   width="1228.0819"
   xml:space="preserve"
   id="svg774"
   version="1.1"><metadata
     id="metadata780"><rdf:RDF><cc:Work
         rdf:about=""><dc:format>image/svg+xml</dc:format><dc:type
           rdf:resource="http://purl.org/dc/dcmitype/StillImage" /><dc:title></dc:title></cc:Work></rdf:RDF></metadata><defs
     id="defs778"><clipPath
       id="clipPath792"
       clipPathUnits="userSpaceOnUse"><path
         id="path790"
         d="M 0,0 H 922 V 563 H 0 Z" /></clipPath></defs><g
     transform="matrix(1.3333333,0,0,1.3333333,0,1.8750236e-5)"
     id="g782"><g
       transform="translate(0,-1.5)"
       id="g784"><g
         id="g786"><g
           id="g788" /><g
           id="g932"><g
             id="g930"
             clip-path="url(#clipPath792)"><g
               id="g928"><path
                 id="path794"
                 style="fill:#adc5e7;fill-opacity:0.58800001;fill-rule:evenodd;stroke:none"
                 d="m 313.965,156.527 -6.918,0.711 -7,0.539 -7.059,0.368 -7.086,0.199 -7.086,0.054 -7.086,-0.113 -7.058,-0.308 -7.031,-0.457 -6.973,-0.594 -6.887,-0.793 -6.804,-0.938 -6.692,-1.074 -6.574,-1.277 -6.406,-1.387 -6.293,-1.562 -6.094,-1.672 -5.898,-1.84 -5.727,-1.985 -5.469,-2.097 -5.273,-2.211 -5.016,-2.356 -4.762,-2.464 -4.48,-2.579 -4.223,-2.668 -3.941,-2.777 -3.602,-2.832 -3.316,-2.949 -3.004,-3.004 -2.691,-3.09 -2.325,-3.117 -2.011,-3.207 -1.676,-3.203 -1.332,-3.285 -0.961,-3.289 -0.625,-3.29 -0.285,-3.316 0.086,-3.344 0.453,-3.316 0.793,-3.289 1.137,-3.289 1.472,-3.231 1.844,-3.203 2.184,-3.176 2.492,-3.117 2.836,-3.031 3.144,-2.977 3.461,-2.894 3.77,-2.805 4.082,-2.722 4.336,-2.637 4.621,-2.52 4.902,-2.41 5.133,-2.297 5.355,-2.152 5.614,-2.043 5.781,-1.899 6.012,-1.785 6.179,-1.617 6.348,-1.472 6.492,-1.333 6.633,-1.191 6.746,-1.019 6.859,-0.852 6.946,-0.711 6.972,-0.535 7.059,-0.371 7.086,-0.199 7.09,-0.055 7.086,0.113 7.058,0.313 7.028,0.453 6.976,0.594 6.887,0.793 6.805,0.937 6.687,1.078 6.578,1.274 6.434,1.39 6.265,1.559 6.094,1.699 5.895,1.816 5.726,1.985 5.473,2.097 5.269,2.239 5.02,2.324 4.762,2.465 4.476,2.582 4.227,2.664 3.937,2.777 3.602,2.836 3.316,2.945 3.004,3.008 2.696,3.09 2.324,3.117 2.011,3.203 1.672,3.204 1.332,3.289 0.965,3.285 0.621,3.289 0.285,3.316 -0.085,3.348 -0.454,3.316 -0.793,3.285 -1.132,3.29 -1.477,3.23 -1.84,3.203 -2.183,3.176 -2.496,3.117 -2.832,3.035 -3.149,2.977 -3.457,2.89 -3.77,2.805 -4.082,2.723 -4.339,2.637 -4.618,2.523 -4.906,2.41 -5.129,2.293 -5.359,2.156 -5.613,2.039 -5.809,1.903 12.613,42.375 z" /><g
                 id="g798"><path
                   id="path796"
                   style="fill:none;stroke:#ffffff;stroke-width:0.79999399;stroke-linecap:butt;stroke-linejoin:round;stroke-miterlimit:4;stroke-dasharray:none;stroke-opacity:0.58800001"
                   d="m 313.965,156.527 -6.918,0.711 -7,0.539 -7.059,0.368 -7.086,0.199 -7.086,0.054 -7.086,-0.113 -7.058,-0.308 -7.031,-0.457 -6.973,-0.594 -6.887,-0.793 -6.804,-0.938 -6.692,-1.074 -6.574,-1.277 -6.406,-1.387 -6.293,-1.562 -6.094,-1.672 -5.898,-1.84 -5.727,-1.985 -5.469,-2.097 -5.273,-2.211 -5.016,-2.356 -4.762,-2.464 -4.48,-2.579 -4.223,-2.668 -3.941,-2.777 -3.602,-2.832 -3.316,-2.949 -3.004,-3.004 -2.691,-3.09 -2.325,-3.117 -2.011,-3.207 -1.676,-3.203 -1.332,-3.285 -0.961,-3.289 -0.625,-3.29 -0.285,-3.316 0.086,-3.344 0.453,-3.316 0.793,-3.289 1.137,-3.289 1.472,-3.231 1.844,-3.203 2.184,-3.176 2.492,-3.117 2.836,-3.031 3.144,-2.977 3.461,-2.894 3.77,-2.805 4.082,-2.722 4.336,-2.637 4.621,-2.52 4.902,-2.41 5.133,-2.297 5.355,-2.152 5.614,-2.043 5.781,-1.899 6.012,-1.785 6.179,-1.617 6.348,-1.472 6.492,-1.333 6.633,-1.191 6.746,-1.019 6.859,-0.852 6.946,-0.711 6.972,-0.535 7.059,-0.371 7.086,-0.199 7.09,-0.055 7.086,0.113 7.058,0.313 7.028,0.453 6.976,0.594 6.887,0.793 6.805,0.937 6.687,1.078 6.578,1.274 6.434,1.39 6.265,1.559 6.094,1.699 5.895,1.816 5.726,1.985 5.473,2.097 5.269,2.239 5.02,2.324 4.762,2.465 4.476,2.582 4.227,2.664 3.937,2.777 3.602,2.836 3.316,2.945 3.004,3.008 2.696,3.09 2.324,3.117 2.011,3.203 1.672,3.204 1.332,3.289 0.965,3.285 0.621,3.289 0.285,3.316 -0.085,3.348 -0.454,3.316 -0.793,3.285 -1.132,3.29 -1.477,3.23 -1.84,3.203 -2.183,3.176 -2.496,3.117 -2.832,3.035 -3.149,2.977 -3.457,2.89 -3.77,2.805 -4.082,2.723 -4.339,2.637 -4.618,2.523 -4.906,2.41 -5.129,2.293 -5.359,2.156 -5.613,2.039 -5.809,1.903 12.613,42.375 z" /></g><g
                 id="g802"><path
                   id="path800"
                   style="fill:none;stroke:#111111;stroke-width:3.00472403;stroke-linecap:butt;stroke-linejoin:round;stroke-miterlimit:4;stroke-dasharray:none;stroke-opacity:1"
                   d="m 313.965,156.527 -6.918,0.711 -7,0.539 -7.059,0.368 -7.086,0.199 -7.086,0.054 -7.086,-0.113 -7.058,-0.308 -7.031,-0.457 -6.973,-0.594 -6.887,-0.793 -6.804,-0.938 -6.692,-1.074 -6.574,-1.277 -6.406,-1.387 -6.293,-1.562 -6.094,-1.672 -5.898,-1.84 -5.727,-1.985 -5.469,-2.097 -5.273,-2.211 -5.016,-2.356 -4.762,-2.464 -4.48,-2.579 -4.223,-2.668 -3.941,-2.777 -3.602,-2.832 -3.316,-2.949 -3.004,-3.004 -2.691,-3.09 -2.325,-3.117 -2.011,-3.207 -1.676,-3.203 -1.332,-3.285 -0.961,-3.289 -0.625,-3.29 -0.285,-3.316 0.086,-3.344 0.453,-3.316 0.793,-3.289 1.137,-3.289 1.472,-3.231 1.844,-3.203 2.184,-3.176 2.492,-3.117 2.836,-3.031 3.144,-2.977 3.461,-2.894 3.77,-2.805 4.082,-2.722 4.336,-2.637 4.621,-2.52 4.902,-2.41 5.133,-2.297 5.355,-2.152 5.614,-2.043 5.781,-1.899 6.012,-1.785 6.179,-1.617 6.348,-1.472 6.492,-1.333 6.633,-1.191 6.746,-1.019 6.859,-0.852 6.946,-0.711 6.972,-0.535 7.059,-0.371 7.086,-0.199 7.09,-0.055 7.086,0.113 7.058,0.313 7.028,0.453 6.976,0.594 6.887,0.793 6.805,0.937 6.687,1.078 6.578,1.274 6.434,1.39 6.265,1.559 6.094,1.699 5.895,1.816 5.726,1.985 5.473,2.097 5.269,2.239 5.02,2.324 4.762,2.465 4.476,2.582 4.227,2.664 3.937,2.777 3.602,2.836 3.316,2.945 3.004,3.008 2.696,3.09 2.324,3.117 2.011,3.203 1.672,3.204 1.332,3.289 0.965,3.285 0.621,3.289 0.285,3.316 -0.085,3.348 -0.454,3.316 -0.793,3.285 -1.132,3.29 -1.477,3.23 -1.84,3.203 -2.183,3.176 -2.496,3.117 -2.832,3.035 -3.149,2.977 -3.457,2.89 -3.77,2.805 -4.082,2.723 -4.339,2.637 -4.618,2.523 -4.906,2.41 -5.129,2.293 -5.359,2.156 -5.613,2.039 -5.809,1.903 12.613,42.375 z" /></g><path
                 id="path804"
                 style="fill:#000000;fill-opacity:1;fill-rule:nonzero;stroke:none"
                 d="m 234.176,104.617 c -3.406,0 -6.016,-0.832 -7.828,-2.5 -1.813,-1.664 -2.719,-4.047 -2.719,-7.14 V 79.492 h 5.187 V 94.57 c 0,1.961 0.461,3.45 1.391,4.469 0.938,1.012 2.305,1.516 4.109,1.516 1.852,0 3.274,-0.532 4.266,-1.594 1,-1.063 1.5,-2.582 1.5,-4.563 V 79.492 h 5.188 v 15.219 c 0,3.148 -0.969,5.586 -2.907,7.312 -1.937,1.731 -4.668,2.594 -8.187,2.594 z" /><path
                 id="path806"
                 style="fill:#000000;fill-opacity:1;fill-rule:nonzero;stroke:none"
                 d="m 266.035,98.695 c 0,1.844 -0.758,3.293 -2.265,4.344 -1.5,1.055 -3.586,1.578 -6.25,1.578 -2.606,0 -4.606,-0.41 -6,-1.234 -1.387,-0.832 -2.309,-2.125 -2.766,-3.875 l 4.344,-0.641 c 0.25,0.899 0.672,1.531 1.265,1.906 0.602,0.375 1.657,0.563 3.157,0.563 1.382,0 2.394,-0.172 3.031,-0.516 0.633,-0.351 0.953,-0.906 0.953,-1.656 0,-0.613 -0.258,-1.098 -0.766,-1.453 -0.511,-0.352 -1.375,-0.656 -2.593,-0.906 -2.793,-0.551 -4.68,-1.063 -5.657,-1.532 -0.968,-0.476 -1.711,-1.093 -2.218,-1.843 -0.512,-0.758 -0.766,-1.692 -0.766,-2.797 0,-1.813 0.695,-3.223 2.094,-4.235 1.406,-1.019 3.394,-1.531 5.968,-1.531 2.258,0 4.079,0.445 5.454,1.328 1.375,0.875 2.234,2.149 2.578,3.813 l -4.375,0.453 c -0.149,-0.77 -0.496,-1.348 -1.047,-1.734 -0.555,-0.383 -1.422,-0.579 -2.61,-0.579 -1.179,0 -2.058,0.153 -2.64,0.454 -0.586,0.304 -0.875,0.804 -0.875,1.5 0,0.554 0.222,0.992 0.672,1.312 0.445,0.324 1.207,0.59 2.281,0.797 1.488,0.312 2.805,0.633 3.953,0.953 1.156,0.313 2.082,0.695 2.781,1.141 0.696,0.449 1.254,1.023 1.672,1.718 0.414,0.7 0.625,1.59 0.625,2.672 z" /><path
                 id="path808"
                 style="fill:#000000;fill-opacity:1;fill-rule:nonzero;stroke:none"
                 d="m 274.434,104.617 c -1.836,0 -3.266,-0.5 -4.297,-1.5 -1.032,-1.008 -1.547,-2.422 -1.547,-4.234 0,-1.969 0.64,-3.469 1.922,-4.5 1.281,-1.031 3.14,-1.563 5.578,-1.594 l 4.094,-0.062 v -0.969 c 0,-1.238 -0.219,-2.16 -0.657,-2.766 -0.429,-0.601 -1.136,-0.906 -2.125,-0.906 -0.906,0 -1.578,0.211 -2.015,0.625 -0.43,0.418 -0.696,1.105 -0.797,2.062 l -5.141,-0.25 c 0.313,-1.843 1.156,-3.242 2.531,-4.203 1.375,-0.957 3.254,-1.437 5.641,-1.437 2.395,0 4.242,0.594 5.547,1.781 1.301,1.18 1.953,2.859 1.953,5.047 v 6.922 c 0,1.062 0.117,1.797 0.359,2.203 0.239,0.406 0.641,0.609 1.204,0.609 0.375,0 0.738,-0.035 1.093,-0.109 v 2.672 c -0.293,0.074 -0.558,0.14 -0.797,0.203 -0.23,0.051 -0.464,0.094 -0.703,0.125 -0.23,0.039 -0.48,0.07 -0.75,0.094 -0.261,0.031 -0.562,0.047 -0.906,0.047 -1.25,0 -2.172,-0.305 -2.766,-0.922 -0.585,-0.614 -0.937,-1.508 -1.062,-2.688 h -0.094 c -1.387,2.5 -3.476,3.75 -6.265,3.75 z m 5.75,-9.172 -2.532,0.047 c -1.148,0.043 -1.961,0.168 -2.437,0.375 -0.481,0.199 -0.852,0.512 -1.11,0.938 -0.25,0.418 -0.375,0.98 -0.375,1.687 0,0.906 0.208,1.578 0.625,2.016 0.415,0.437 0.969,0.656 1.657,0.656 0.781,0 1.488,-0.207 2.125,-0.625 0.633,-0.426 1.133,-1.008 1.5,-1.75 0.363,-0.75 0.547,-1.539 0.547,-2.375 z" /><path
                 id="path810"
                 style="fill:#000000;fill-opacity:1;fill-rule:nonzero;stroke:none"
                 d="m 298.051,111.883 c -2.324,0 -4.196,-0.445 -5.61,-1.328 -1.406,-0.887 -2.277,-2.149 -2.609,-3.782 l 4.938,-0.578 c 0.175,0.758 0.554,1.352 1.14,1.782 0.582,0.437 1.344,0.656 2.281,0.656 1.364,0 2.364,-0.422 3,-1.266 0.633,-0.844 0.954,-2.101 0.954,-3.765 v -1 l 0.031,-1.875 h -0.031 c -1.094,2.335 -3.137,3.5 -6.125,3.5 -2.211,0 -3.922,-0.832 -5.141,-2.5 -1.219,-1.665 -1.828,-4.047 -1.828,-7.141 0,-3.102 0.625,-5.5 1.875,-7.188 1.25,-1.687 3.07,-2.531 5.469,-2.531 2.757,0 4.675,1.141 5.75,3.422 h 0.078 c 0,-0.406 0.023,-0.957 0.078,-1.656 0.051,-0.707 0.109,-1.172 0.172,-1.391 h 4.672 c -0.063,1.262 -0.094,2.727 -0.094,4.391 v 14.047 c 0,2.707 -0.774,4.75 -2.313,6.125 -1.531,1.383 -3.761,2.078 -6.687,2.078 z m 4.125,-17.406 c 0,-1.946 -0.352,-3.469 -1.047,-4.563 -0.699,-1.102 -1.695,-1.656 -2.984,-1.656 -2.637,0 -3.954,2.109 -3.954,6.328 0,4.137 1.305,6.203 3.922,6.203 1.313,0 2.317,-0.547 3.016,-1.641 0.695,-1.093 1.047,-2.648 1.047,-4.671 z" /><path
                 id="path812"
                 style="fill:#000000;fill-opacity:1;fill-rule:nonzero;stroke:none"
                 d="m 319.871,104.617 c -2.855,0 -5.055,-0.847 -6.594,-2.547 -1.531,-1.695 -2.297,-4.164 -2.297,-7.406 0,-3.144 0.774,-5.562 2.329,-7.25 1.562,-1.687 3.773,-2.531 6.64,-2.531 2.727,0 4.813,0.906 6.25,2.719 1.446,1.812 2.172,4.464 2.172,7.953 v 0.14 h -12.203 c 0,1.856 0.344,3.258 1.031,4.203 0.688,0.938 1.66,1.407 2.922,1.407 1.75,0 2.852,-0.754 3.313,-2.266 l 4.656,0.406 c -1.356,3.45 -4.094,5.172 -8.219,5.172 z m 0,-16.625 c -1.156,0 -2.047,0.406 -2.672,1.219 -0.625,0.812 -0.961,1.945 -1,3.391 h 7.391 c -0.094,-1.532 -0.465,-2.68 -1.11,-3.454 -0.648,-0.769 -1.515,-1.156 -2.609,-1.156 z" /><path
                 id="path814"
                 style="fill:#adc5e7;fill-opacity:0.58800001;fill-rule:evenodd;stroke:none"
                 d="m 593.859,129.883 -4.707,-2.492 -4.422,-2.582 -4.136,-2.719 -3.828,-2.781 -3.543,-2.864 -3.262,-2.972 -2.891,-3.035 -2.605,-3.09 -2.242,-3.145 -1.926,-3.176 -1.59,-3.261 -1.219,-3.258 -0.879,-3.289 -0.535,-3.317 -0.172,-3.316 0.172,-3.316 0.535,-3.317 0.879,-3.316 1.25,-3.262 1.559,-3.23 1.926,-3.204 2.269,-3.144 2.578,-3.09 2.922,-3.035 3.231,-2.949 3.543,-2.891 3.855,-2.777 4.137,-2.692 4.422,-2.609 4.707,-2.492 4.933,-2.383 5.215,-2.238 5.414,-2.157 5.668,-1.984 5.867,-1.871 6.039,-1.727 6.239,-1.59 6.375,-1.445 6.551,-1.305 6.66,-1.132 6.773,-0.965 6.859,-0.82 6.946,-0.653 7.031,-0.512 7.059,-0.308 7.086,-0.172 h 7.086 l 7.085,0.172 7.032,0.308 7.031,0.512 6.945,0.653 6.86,0.82 6.773,0.965 6.66,1.164 6.551,1.273 6.375,1.445 6.238,1.59 6.039,1.727 5.868,1.871 5.667,2.012 5.415,2.129 5.187,2.265 4.961,2.383 4.707,2.492 4.422,2.582 4.137,2.692 3.828,2.808 3.543,2.86 3.23,2.976 2.922,3.008 2.606,3.09 2.238,3.172 1.93,3.176 1.585,3.261 1.219,3.258 0.879,3.289 0.539,3.317 0.172,3.316 -0.172,3.316 -0.539,3.317 -0.879,3.289 -1.246,3.289 -1.558,3.23 -1.93,3.203 -2.266,3.145 -2.578,3.09 -2.922,3.035 -3.23,2.945 -3.543,2.895 -3.856,2.777 -4.14,2.692 -4.422,2.609 -4.703,2.492 -4.934,2.356 -5.215,2.265 -5.414,2.129 -5.672,2.012 -5.836,1.871 -6.066,1.727 -6.238,1.589 -6.379,1.446 -6.52,1.304 -6.687,1.133 -6.778,0.965 -6.859,0.82 -6.945,0.653 -7.028,0.511 -7.031,0.309 -7.086,0.172 h -7.086 l -7.086,-0.172 -7.058,-0.309 -7.032,-0.511 -6.945,-0.653 -6.859,-0.82 -6.774,-0.965 -6.664,-1.164 -6.547,-1.273 -6.379,-1.446 -96.859,40.762 z" /><g
                 id="g818"><path
                   id="path816"
                   style="fill:none;stroke:#ffffff;stroke-width:0.79999399;stroke-linecap:butt;stroke-linejoin:round;stroke-miterlimit:4;stroke-dasharray:none;stroke-opacity:0.58800001"
                   d="m 593.859,129.883 -4.707,-2.492 -4.422,-2.582 -4.136,-2.719 -3.828,-2.781 -3.543,-2.864 -3.262,-2.972 -2.891,-3.035 -2.605,-3.09 -2.242,-3.145 -1.926,-3.176 -1.59,-3.261 -1.219,-3.258 -0.879,-3.289 -0.535,-3.317 -0.172,-3.316 0.172,-3.316 0.535,-3.317 0.879,-3.316 1.25,-3.262 1.559,-3.23 1.926,-3.204 2.269,-3.144 2.578,-3.09 2.922,-3.035 3.231,-2.949 3.543,-2.891 3.855,-2.777 4.137,-2.692 4.422,-2.609 4.707,-2.492 4.933,-2.383 5.215,-2.238 5.414,-2.157 5.668,-1.984 5.867,-1.871 6.039,-1.727 6.239,-1.59 6.375,-1.445 6.551,-1.305 6.66,-1.132 6.773,-0.965 6.859,-0.82 6.946,-0.653 7.031,-0.512 7.059,-0.308 7.086,-0.172 h 7.086 l 7.085,0.172 7.032,0.308 7.031,0.512 6.945,0.653 6.86,0.82 6.773,0.965 6.66,1.164 6.551,1.273 6.375,1.445 6.238,1.59 6.039,1.727 5.868,1.871 5.667,2.012 5.415,2.129 5.187,2.265 4.961,2.383 4.707,2.492 4.422,2.582 4.137,2.692 3.828,2.808 3.543,2.86 3.23,2.976 2.922,3.008 2.606,3.09 2.238,3.172 1.93,3.176 1.585,3.261 1.219,3.258 0.879,3.289 0.539,3.317 0.172,3.316 -0.172,3.316 -0.539,3.317 -0.879,3.289 -1.246,3.289 -1.558,3.23 -1.93,3.203 -2.266,3.145 -2.578,3.09 -2.922,3.035 -3.23,2.945 -3.543,2.895 -3.856,2.777 -4.14,2.692 -4.422,2.609 -4.703,2.492 -4.934,2.356 -5.215,2.265 -5.414,2.129 -5.672,2.012 -5.836,1.871 -6.066,1.727 -6.238,1.589 -6.379,1.446 -6.52,1.304 -6.687,1.133 -6.778,0.965 -6.859,0.82 -6.945,0.653 -7.028,0.511 -7.031,0.309 -7.086,0.172 h -7.086 l -7.086,-0.172 -7.058,-0.309 -7.032,-0.511 -6.945,-0.653 -6.859,-0.82 -6.774,-0.965 -6.664,-1.164 -6.547,-1.273 -6.379,-1.446 -96.859,40.762 z" /></g><g
                 id="g822"><path
                   id="path820"
                   style="fill:none;stroke:#111111;stroke-width:3.00472403;stroke-linecap:butt;stroke-linejoin:round;stroke-miterlimit:4;stroke-dasharray:none;stroke-opacity:1"
                   d="m 593.859,129.883 -4.707,-2.492 -4.422,-2.582 -4.136,-2.719 -3.828,-2.781 -3.543,-2.864 -3.262,-2.972 -2.891,-3.035 -2.605,-3.09 -2.242,-3.145 -1.926,-3.176 -1.59,-3.261 -1.219,-3.258 -0.879,-3.289 -0.535,-3.317 -0.172,-3.316 0.172,-3.316 0.535,-3.317 0.879,-3.316 1.25,-3.262 1.559,-3.23 1.926,-3.204 2.269,-3.144 2.578,-3.09 2.922,-3.035 3.231,-2.949 3.543,-2.891 3.855,-2.777 4.137,-2.692 4.422,-2.609 4.707,-2.492 4.933,-2.383 5.215,-2.238 5.414,-2.157 5.668,-1.984 5.867,-1.871 6.039,-1.727 6.239,-1.59 6.375,-1.445 6.551,-1.305 6.66,-1.132 6.773,-0.965 6.859,-0.82 6.946,-0.653 7.031,-0.512 7.059,-0.308 7.086,-0.172 h 7.086 l 7.085,0.172 7.032,0.308 7.031,0.512 6.945,0.653 6.86,0.82 6.773,0.965 6.66,1.164 6.551,1.273 6.375,1.445 6.238,1.59 6.039,1.727 5.868,1.871 5.667,2.012 5.415,2.129 5.187,2.265 4.961,2.383 4.707,2.492 4.422,2.582 4.137,2.692 3.828,2.808 3.543,2.86 3.23,2.976 2.922,3.008 2.606,3.09 2.238,3.172 1.93,3.176 1.585,3.261 1.219,3.258 0.879,3.289 0.539,3.317 0.172,3.316 -0.172,3.316 -0.539,3.317 -0.879,3.289 -1.246,3.289 -1.558,3.23 -1.93,3.203 -2.266,3.145 -2.578,3.09 -2.922,3.035 -3.23,2.945 -3.543,2.895 -3.856,2.777 -4.14,2.692 -4.422,2.609 -4.703,2.492 -4.934,2.356 -5.215,2.265 -5.414,2.129 -5.672,2.012 -5.836,1.871 -6.066,1.727 -6.238,1.589 -6.379,1.446 -6.52,1.304 -6.687,1.133 -6.778,0.965 -6.859,0.82 -6.945,0.653 -7.028,0.511 -7.031,0.309 -7.086,0.172 h -7.086 l -7.086,-0.172 -7.058,-0.309 -7.032,-0.511 -6.945,-0.653 -6.859,-0.82 -6.774,-0.965 -6.664,-1.164 -6.547,-1.273 -6.379,-1.446 -96.859,40.762 z" /></g><path
                 id="path824"
                 style="fill:#000000;fill-opacity:1;fill-rule:nonzero;stroke:none"
                 d="m 660.715,89.918 c 0,2.43 -0.903,4.289 -2.703,5.578 -1.805,1.281 -4.446,1.922 -7.922,1.922 -3.18,0 -5.668,-0.563 -7.469,-1.688 -1.805,-1.132 -2.965,-2.843 -3.484,-5.125 l 5.015,-0.828 c 0.344,1.313 1.004,2.266 1.985,2.86 0.988,0.593 2.351,0.89 4.093,0.89 3.625,0 5.438,-1.101 5.438,-3.312 0,-0.695 -0.211,-1.274 -0.625,-1.735 -0.418,-0.457 -1.008,-0.835 -1.766,-1.14 -0.75,-0.301 -2.199,-0.672 -4.343,-1.11 -1.856,-0.437 -3.149,-0.785 -3.875,-1.046 -0.719,-0.258 -1.375,-0.567 -1.969,-0.922 -0.586,-0.364 -1.078,-0.797 -1.485,-1.297 -0.406,-0.508 -0.726,-1.102 -0.953,-1.781 -0.23,-0.676 -0.343,-1.457 -0.343,-2.344 0,-2.227 0.836,-3.938 2.515,-5.125 1.688,-1.195 4.133,-1.797 7.344,-1.797 3.07,0 5.375,0.484 6.906,1.453 1.539,0.961 2.535,2.543 2.985,4.75 l -5.032,0.688 c -0.25,-1.063 -0.773,-1.864 -1.562,-2.407 -0.793,-0.539 -1.93,-0.812 -3.406,-0.812 -3.137,0 -4.704,0.984 -4.704,2.953 0,0.648 0.165,1.18 0.5,1.594 0.333,0.406 0.829,0.758 1.485,1.047 0.656,0.281 1.984,0.64 3.984,1.078 2.375,0.5 4.071,0.965 5.094,1.39 1.031,0.43 1.844,0.93 2.437,1.5 0.602,0.563 1.063,1.243 1.375,2.032 0.321,0.793 0.485,1.703 0.485,2.734 z" /><path
                 id="path826"
                 style="fill:#000000;fill-opacity:1;fill-rule:nonzero;stroke:none"
                 d="m 669.543,97.371 c -1.461,0 -2.586,-0.394 -3.375,-1.187 -0.781,-0.789 -1.172,-1.989 -1.172,-3.594 V 81.371 h -2.406 v -3.328 h 2.656 l 1.547,-4.469 h 3.094 v 4.469 h 3.609 v 3.328 h -3.609 v 9.891 c 0,0.929 0.175,1.609 0.531,2.047 0.352,0.437 0.894,0.656 1.625,0.656 0.395,0 0.945,-0.082 1.656,-0.25 v 3.062 c -1.219,0.395 -2.605,0.594 -4.156,0.594 z" /><path
                 id="path828"
                 style="fill:#000000;fill-opacity:1;fill-rule:nonzero;stroke:none"
                 d="m 681.082,97.418 c -1.836,0 -3.266,-0.5 -4.297,-1.5 -1.031,-1.008 -1.547,-2.422 -1.547,-4.234 0,-1.969 0.641,-3.469 1.922,-4.5 1.281,-1.032 3.141,-1.563 5.578,-1.594 l 4.094,-0.063 v -0.968 c 0,-1.239 -0.219,-2.161 -0.656,-2.766 -0.43,-0.602 -1.137,-0.906 -2.125,-0.906 -0.906,0 -1.578,0.211 -2.016,0.625 -0.43,0.418 -0.695,1.105 -0.797,2.062 l -5.14,-0.25 c 0.312,-1.844 1.156,-3.242 2.531,-4.203 1.375,-0.957 3.254,-1.437 5.641,-1.437 2.394,0 4.242,0.593 5.546,1.781 1.301,1.18 1.954,2.859 1.954,5.047 v 6.922 c 0,1.062 0.117,1.796 0.359,2.203 0.238,0.406 0.641,0.609 1.203,0.609 0.375,0 0.738,-0.035 1.094,-0.109 v 2.672 c -0.293,0.074 -0.559,0.14 -0.797,0.203 -0.231,0.05 -0.465,0.093 -0.703,0.125 -0.231,0.039 -0.481,0.07 -0.75,0.093 -0.262,0.032 -0.563,0.047 -0.906,0.047 -1.25,0 -2.172,-0.304 -2.766,-0.922 -0.586,-0.613 -0.938,-1.507 -1.063,-2.687 h -0.093 c -1.387,2.5 -3.477,3.75 -6.266,3.75 z m 5.75,-9.172 -2.531,0.047 c -1.149,0.043 -1.961,0.168 -2.438,0.375 -0.48,0.199 -0.851,0.512 -1.109,0.937 -0.25,0.418 -0.375,0.981 -0.375,1.688 0,0.906 0.207,1.578 0.625,2.016 0.414,0.437 0.969,0.656 1.656,0.656 0.781,0 1.488,-0.207 2.125,-0.625 0.633,-0.426 1.133,-1.008 1.5,-1.75 0.363,-0.75 0.547,-1.539 0.547,-2.375 z" /><path
                 id="path830"
                 style="fill:#000000;fill-opacity:1;fill-rule:nonzero;stroke:none"
                 d="m 701.605,97.371 c -1.46,0 -2.585,-0.394 -3.375,-1.187 -0.781,-0.789 -1.171,-1.989 -1.171,-3.594 V 81.371 h -2.407 v -3.328 h 2.657 l 1.546,-4.469 h 3.094 v 4.469 h 3.61 v 3.328 h -3.61 v 9.891 c 0,0.929 0.176,1.609 0.531,2.047 0.352,0.437 0.895,0.656 1.625,0.656 0.395,0 0.946,-0.082 1.657,-0.25 v 3.062 c -1.219,0.395 -2.606,0.594 -4.157,0.594 z" /><path
                 id="path832"
                 style="fill:#000000;fill-opacity:1;fill-rule:nonzero;stroke:none"
                 d="m 713.41,78.043 v 10.672 c 0,3.336 1.125,5 3.375,5 1.195,0 2.16,-0.508 2.891,-1.531 0.726,-1.032 1.094,-2.348 1.094,-3.954 V 78.043 h 4.953 v 14.766 c 0,1.617 0.047,3.031 0.14,4.25 h -4.718 c -0.137,-1.688 -0.204,-2.946 -0.204,-3.782 h -0.093 c -0.657,1.438 -1.496,2.493 -2.516,3.157 -1.012,0.656 -2.215,0.984 -3.609,0.984 -2.012,0 -3.559,-0.617 -4.641,-1.859 -1.074,-1.239 -1.609,-3.051 -1.609,-5.438 V 78.043 Z" /><path
                 id="path834"
                 style="fill:#000000;fill-opacity:1;fill-rule:nonzero;stroke:none"
                 d="m 746.793,91.496 c 0,1.844 -0.758,3.293 -2.266,4.344 -1.5,1.055 -3.586,1.578 -6.25,1.578 -2.605,0 -4.605,-0.41 -6,-1.234 -1.386,-0.832 -2.308,-2.125 -2.765,-3.875 l 4.343,-0.641 c 0.25,0.898 0.672,1.531 1.266,1.906 0.602,0.375 1.656,0.563 3.156,0.563 1.383,0 2.395,-0.172 3.032,-0.516 0.632,-0.351 0.953,-0.906 0.953,-1.656 0,-0.613 -0.258,-1.098 -0.766,-1.453 -0.512,-0.352 -1.375,-0.657 -2.594,-0.907 -2.793,-0.55 -4.679,-1.062 -5.656,-1.531 -0.969,-0.476 -1.711,-1.094 -2.219,-1.844 -0.511,-0.757 -0.765,-1.691 -0.765,-2.796 0,-1.813 0.695,-3.223 2.093,-4.235 1.407,-1.019 3.395,-1.531 5.969,-1.531 2.258,0 4.078,0.445 5.453,1.328 1.375,0.875 2.235,2.149 2.578,3.813 l -4.375,0.453 c -0.148,-0.77 -0.496,-1.348 -1.046,-1.735 -0.555,-0.382 -1.422,-0.578 -2.61,-0.578 -1.179,0 -2.058,0.153 -2.64,0.453 -0.586,0.305 -0.875,0.805 -0.875,1.5 0,0.555 0.222,0.993 0.671,1.313 0.446,0.324 1.208,0.59 2.282,0.797 1.488,0.312 2.804,0.633 3.953,0.953 1.156,0.312 2.082,0.695 2.781,1.14 0.695,0.45 1.254,1.024 1.672,1.719 0.414,0.699 0.625,1.59 0.625,2.672 z" /><path
                 id="path836"
                 style="fill:#adc5e7;fill-opacity:0.58800001;fill-rule:evenodd;stroke:none"
                 d="m 312.547,328.707 2.383,1.445 2.297,1.446 2.211,1.5 2.124,1.504 2.012,1.531 1.957,1.531 1.813,1.559 1.758,1.586 1.644,1.589 1.559,1.614 1.445,1.644 1.363,1.645 1.246,1.644 1.161,1.672 1.05,1.672 0.965,1.703 0.848,1.699 0.738,1.7 0.652,1.73 0.539,1.731 0.454,1.726 0.339,1.731 0.227,1.73 0.113,1.727 0.028,1.73 -0.082,1.758 -0.2,1.73 -0.285,1.727 -0.394,1.73 -0.512,1.731 -0.594,1.699 -0.711,1.731 -0.82,1.699 -0.906,1.672 -0.992,1.703 -1.137,1.672 -1.219,1.672 -1.305,1.644 -1.414,1.645 -1.504,1.613 -1.617,1.59 -1.699,1.586 -1.812,1.586 -1.903,1.558 -1.984,1.531 -2.067,1.504 -2.183,1.504 -2.27,1.446 -2.324,1.445 -2.437,1.418 -2.524,1.414 -2.605,1.363 -2.664,1.332 -2.782,1.332 -2.832,1.274 -2.922,1.25 -2.976,1.218 -3.09,1.219 -3.117,1.16 -3.203,1.137 -3.289,1.074 -3.317,1.078 -3.398,1.02 -3.461,1.023 -3.543,0.961 -3.57,0.91 -3.629,0.875 -3.684,0.879 -3.742,0.797 -3.77,0.793 -3.828,0.735 -3.883,0.683 -3.914,0.653 -3.937,0.621 -4,0.597 -4.024,0.535 -4.023,0.485 -4.082,0.453 -4.113,0.426 -4.137,0.367 -4.141,0.34 -4.164,0.285 -4.195,0.226 -4.195,0.2 -4.227,0.168 -4.223,0.113 -4.222,0.086 -4.223,0.027 h -4.226 l -4.223,-0.054 -4.223,-0.114 -4.195,-0.144 -4.223,-0.168 -4.195,-0.227 -4.168,-0.285 -4.168,-0.312 -4.137,-0.34 -4.109,-0.395 -4.082,-0.426 -4.082,-0.48 -4.027,-0.512 -3.997,-0.566 -3.968,-0.598 -3.942,-0.652 -3.883,-0.68 -3.855,-0.707 -3.797,-0.766 -3.769,-0.793 -3.688,-0.851 -3.656,-0.852 -3.598,-0.906 -3.574,-0.965 -3.484,-0.961 -3.43,-1.023 -3.348,-1.047 -3.316,-1.078 -3.231,-1.133 -3.175,-1.133 -3.09,-1.191 -3.032,-1.219 -2.949,-1.246 -2.863,-1.25 -2.805,-1.305 -2.722,-1.332 -2.637,-1.359 -2.551,-1.391 -2.492,-1.414 -2.383,-1.418 -2.297,-1.476 -2.211,-1.473 -2.125,-1.5 -2.011,-1.504 -1.957,-1.558 -1.844,-1.559 -1.727,-1.59 -1.672,-1.586 -1.558,-1.617 -1.449,-1.613 -1.36,-1.645 -1.273,-1.672 -1.164,-1.675 -1.047,-1.672 -0.965,-1.7 -0.852,-1.699 -0.765,-1.703 -0.653,-1.699 -0.539,-1.731 -0.453,-1.73 -0.34,-1.727 -0.226,-1.73 -0.141,-1.758 -0.027,-1.727 0.082,-1.73 0.172,-1.73 0.281,-1.727 0.399,-1.73 0.511,-1.731 0.594,-1.726 0.68,-1.704 0.824,-1.699 0.906,-1.703 0.992,-1.699 1.106,-1.672 1.219,-1.645 1.304,-1.671 1.418,-1.618 1.5,-1.644 1.617,-1.586 1.7,-1.586 1.785,-1.59 1.902,-1.531 1.984,-1.559 2.067,-1.5 2.156,-1.504 2.266,-1.445 2.324,-1.445 2.437,-1.418 2.524,-1.418 2.582,-1.36 2.691,-1.332 2.75,-1.332 2.836,-1.277 2.918,-1.273 2.977,-1.219 3.062,-1.192 3.145,-1.164 3.203,-1.132 3.262,-1.106 3.343,-1.078 3.375,-1.02 3.457,-1.019 3.543,-0.965 3.571,-0.906 3.629,-0.906 3.687,-0.852 3.711,-0.824 3.77,-0.766 3.828,-0.734 3.883,-0.711 3.914,-0.653 3.937,-0.621 3.996,-0.597 4,-0.535 4.051,-0.485 4.082,-0.453 4.113,-0.426 4.137,-0.367 4.137,-0.34 4.168,-0.285 4.195,-0.254 4.195,-0.199 4.196,-0.168 4.222,-0.113 4.227,-0.086 4.223,-0.028 h 4.222 l 4.223,0.055 4.226,0.113 4.223,0.114 4.195,0.199 4.196,0.226 4.195,0.254 4.137,0.313 4.14,0.34 4.137,0.398 4.082,0.426 4.082,0.48 4.027,0.512 3.997,0.567 3.968,0.593 3.942,0.653 3.883,0.652 3.855,0.738 3.797,0.735 3.769,0.793 3.715,0.851 3.657,0.852 3.597,0.906 3.547,0.965 3.512,0.965 74.355,-13.27 z" /><g
                 id="g840"><path
                   id="path838"
                   style="fill:none;stroke:#ffffff;stroke-width:0.79999399;stroke-linecap:butt;stroke-linejoin:round;stroke-miterlimit:4;stroke-dasharray:none;stroke-opacity:0.58800001"
                   d="m 312.547,328.707 2.383,1.445 2.297,1.446 2.211,1.5 2.124,1.504 2.012,1.531 1.957,1.531 1.813,1.559 1.758,1.586 1.644,1.589 1.559,1.614 1.445,1.644 1.363,1.645 1.246,1.644 1.161,1.672 1.05,1.672 0.965,1.703 0.848,1.699 0.738,1.7 0.652,1.73 0.539,1.731 0.454,1.726 0.339,1.731 0.227,1.73 0.113,1.727 0.028,1.73 -0.082,1.758 -0.2,1.73 -0.285,1.727 -0.394,1.73 -0.512,1.731 -0.594,1.699 -0.711,1.731 -0.82,1.699 -0.906,1.672 -0.992,1.703 -1.137,1.672 -1.219,1.672 -1.305,1.644 -1.414,1.645 -1.504,1.613 -1.617,1.59 -1.699,1.586 -1.812,1.586 -1.903,1.558 -1.984,1.531 -2.067,1.504 -2.183,1.504 -2.27,1.446 -2.324,1.445 -2.437,1.418 -2.524,1.414 -2.605,1.363 -2.664,1.332 -2.782,1.332 -2.832,1.274 -2.922,1.25 -2.976,1.218 -3.09,1.219 -3.117,1.16 -3.203,1.137 -3.289,1.074 -3.317,1.078 -3.398,1.02 -3.461,1.023 -3.543,0.961 -3.57,0.91 -3.629,0.875 -3.684,0.879 -3.742,0.797 -3.77,0.793 -3.828,0.735 -3.883,0.683 -3.914,0.653 -3.937,0.621 -4,0.597 -4.024,0.535 -4.023,0.485 -4.082,0.453 -4.113,0.426 -4.137,0.367 -4.141,0.34 -4.164,0.285 -4.195,0.226 -4.195,0.2 -4.227,0.168 -4.223,0.113 -4.222,0.086 -4.223,0.027 h -4.226 l -4.223,-0.054 -4.223,-0.114 -4.195,-0.144 -4.223,-0.168 -4.195,-0.227 -4.168,-0.285 -4.168,-0.312 -4.137,-0.34 -4.109,-0.395 -4.082,-0.426 -4.082,-0.48 -4.027,-0.512 -3.997,-0.566 -3.968,-0.598 -3.942,-0.652 -3.883,-0.68 -3.855,-0.707 -3.797,-0.766 -3.769,-0.793 -3.688,-0.851 -3.656,-0.852 -3.598,-0.906 -3.574,-0.965 -3.484,-0.961 -3.43,-1.023 -3.348,-1.047 -3.316,-1.078 -3.231,-1.133 -3.175,-1.133 -3.09,-1.191 -3.032,-1.219 -2.949,-1.246 -2.863,-1.25 -2.805,-1.305 -2.722,-1.332 -2.637,-1.359 -2.551,-1.391 -2.492,-1.414 -2.383,-1.418 -2.297,-1.476 -2.211,-1.473 -2.125,-1.5 -2.011,-1.504 -1.957,-1.558 -1.844,-1.559 -1.727,-1.59 -1.672,-1.586 -1.558,-1.617 -1.449,-1.613 -1.36,-1.645 -1.273,-1.672 -1.164,-1.675 -1.047,-1.672 -0.965,-1.7 -0.852,-1.699 -0.765,-1.703 -0.653,-1.699 -0.539,-1.731 -0.453,-1.73 -0.34,-1.727 -0.226,-1.73 -0.141,-1.758 -0.027,-1.727 0.082,-1.73 0.172,-1.73 0.281,-1.727 0.399,-1.73 0.511,-1.731 0.594,-1.726 0.68,-1.704 0.824,-1.699 0.906,-1.703 0.992,-1.699 1.106,-1.672 1.219,-1.645 1.304,-1.671 1.418,-1.618 1.5,-1.644 1.617,-1.586 1.7,-1.586 1.785,-1.59 1.902,-1.531 1.984,-1.559 2.067,-1.5 2.156,-1.504 2.266,-1.445 2.324,-1.445 2.437,-1.418 2.524,-1.418 2.582,-1.36 2.691,-1.332 2.75,-1.332 2.836,-1.277 2.918,-1.273 2.977,-1.219 3.062,-1.192 3.145,-1.164 3.203,-1.132 3.262,-1.106 3.343,-1.078 3.375,-1.02 3.457,-1.019 3.543,-0.965 3.571,-0.906 3.629,-0.906 3.687,-0.852 3.711,-0.824 3.77,-0.766 3.828,-0.734 3.883,-0.711 3.914,-0.653 3.937,-0.621 3.996,-0.597 4,-0.535 4.051,-0.485 4.082,-0.453 4.113,-0.426 4.137,-0.367 4.137,-0.34 4.168,-0.285 4.195,-0.254 4.195,-0.199 4.196,-0.168 4.222,-0.113 4.227,-0.086 4.223,-0.028 h 4.222 l 4.223,0.055 4.226,0.113 4.223,0.114 4.195,0.199 4.196,0.226 4.195,0.254 4.137,0.313 4.14,0.34 4.137,0.398 4.082,0.426 4.082,0.48 4.027,0.512 3.997,0.567 3.968,0.593 3.942,0.653 3.883,0.652 3.855,0.738 3.797,0.735 3.769,0.793 3.715,0.851 3.657,0.852 3.597,0.906 3.547,0.965 3.512,0.965 74.355,-13.27 z" /></g><g
                 id="g844"><path
                   id="path842"
                   style="fill:none;stroke:#111111;stroke-width:3.00472403;stroke-linecap:butt;stroke-linejoin:round;stroke-miterlimit:4;stroke-dasharray:none;stroke-opacity:1"
                   d="m 312.547,328.707 2.383,1.445 2.297,1.446 2.211,1.5 2.124,1.504 2.012,1.531 1.957,1.531 1.813,1.559 1.758,1.586 1.644,1.589 1.559,1.614 1.445,1.644 1.363,1.645 1.246,1.644 1.161,1.672 1.05,1.672 0.965,1.703 0.848,1.699 0.738,1.7 0.652,1.73 0.539,1.731 0.454,1.726 0.339,1.731 0.227,1.73 0.113,1.727 0.028,1.73 -0.082,1.758 -0.2,1.73 -0.285,1.727 -0.394,1.73 -0.512,1.731 -0.594,1.699 -0.711,1.731 -0.82,1.699 -0.906,1.672 -0.992,1.703 -1.137,1.672 -1.219,1.672 -1.305,1.644 -1.414,1.645 -1.504,1.613 -1.617,1.59 -1.699,1.586 -1.812,1.586 -1.903,1.558 -1.984,1.531 -2.067,1.504 -2.183,1.504 -2.27,1.446 -2.324,1.445 -2.437,1.418 -2.524,1.414 -2.605,1.363 -2.664,1.332 -2.782,1.332 -2.832,1.274 -2.922,1.25 -2.976,1.218 -3.09,1.219 -3.117,1.16 -3.203,1.137 -3.289,1.074 -3.317,1.078 -3.398,1.02 -3.461,1.023 -3.543,0.961 -3.57,0.91 -3.629,0.875 -3.684,0.879 -3.742,0.797 -3.77,0.793 -3.828,0.735 -3.883,0.683 -3.914,0.653 -3.937,0.621 -4,0.597 -4.024,0.535 -4.023,0.485 -4.082,0.453 -4.113,0.426 -4.137,0.367 -4.141,0.34 -4.164,0.285 -4.195,0.226 -4.195,0.2 -4.227,0.168 -4.223,0.113 -4.222,0.086 -4.223,0.027 h -4.226 l -4.223,-0.054 -4.223,-0.114 -4.195,-0.144 -4.223,-0.168 -4.195,-0.227 -4.168,-0.285 -4.168,-0.312 -4.137,-0.34 -4.109,-0.395 -4.082,-0.426 -4.082,-0.48 -4.027,-0.512 -3.997,-0.566 -3.968,-0.598 -3.942,-0.652 -3.883,-0.68 -3.855,-0.707 -3.797,-0.766 -3.769,-0.793 -3.688,-0.851 -3.656,-0.852 -3.598,-0.906 -3.574,-0.965 -3.484,-0.961 -3.43,-1.023 -3.348,-1.047 -3.316,-1.078 -3.231,-1.133 -3.175,-1.133 -3.09,-1.191 -3.032,-1.219 -2.949,-1.246 -2.863,-1.25 -2.805,-1.305 -2.722,-1.332 -2.637,-1.359 -2.551,-1.391 -2.492,-1.414 -2.383,-1.418 -2.297,-1.476 -2.211,-1.473 -2.125,-1.5 -2.011,-1.504 -1.957,-1.558 -1.844,-1.559 -1.727,-1.59 -1.672,-1.586 -1.558,-1.617 -1.449,-1.613 -1.36,-1.645 -1.273,-1.672 -1.164,-1.675 -1.047,-1.672 -0.965,-1.7 -0.852,-1.699 -0.765,-1.703 -0.653,-1.699 -0.539,-1.731 -0.453,-1.73 -0.34,-1.727 -0.226,-1.73 -0.141,-1.758 -0.027,-1.727 0.082,-1.73 0.172,-1.73 0.281,-1.727 0.399,-1.73 0.511,-1.731 0.594,-1.726 0.68,-1.704 0.824,-1.699 0.906,-1.703 0.992,-1.699 1.106,-1.672 1.219,-1.645 1.304,-1.671 1.418,-1.618 1.5,-1.644 1.617,-1.586 1.7,-1.586 1.785,-1.59 1.902,-1.531 1.984,-1.559 2.067,-1.5 2.156,-1.504 2.266,-1.445 2.324,-1.445 2.437,-1.418 2.524,-1.418 2.582,-1.36 2.691,-1.332 2.75,-1.332 2.836,-1.277 2.918,-1.273 2.977,-1.219 3.062,-1.192 3.145,-1.164 3.203,-1.132 3.262,-1.106 3.343,-1.078 3.375,-1.02 3.457,-1.019 3.543,-0.965 3.571,-0.906 3.629,-0.906 3.687,-0.852 3.711,-0.824 3.77,-0.766 3.828,-0.734 3.883,-0.711 3.914,-0.653 3.937,-0.621 3.996,-0.597 4,-0.535 4.051,-0.485 4.082,-0.453 4.113,-0.426 4.137,-0.367 4.137,-0.34 4.168,-0.285 4.195,-0.254 4.195,-0.199 4.196,-0.168 4.222,-0.113 4.227,-0.086 4.223,-0.028 h 4.222 l 4.223,0.055 4.226,0.113 4.223,0.114 4.195,0.199 4.196,0.226 4.195,0.254 4.137,0.313 4.14,0.34 4.137,0.398 4.082,0.426 4.082,0.48 4.027,0.512 3.997,0.567 3.968,0.593 3.942,0.653 3.883,0.652 3.855,0.738 3.797,0.735 3.769,0.793 3.715,0.851 3.657,0.852 3.597,0.906 3.547,0.965 3.512,0.965 74.355,-13.27 z" /></g><path
                 id="path846"
                 style="fill:#000000;fill-opacity:1;fill-rule:nonzero;stroke:none"
                 d="m 102.352,364.535 c 0,1.594 -0.368,3.016 -1.094,4.266 -0.719,1.25 -1.758,2.219 -3.11,2.906 -1.355,0.688 -2.964,1.031 -4.828,1.031 h -6.156 v 8.719 h -5.187 v -24.766 h 11.125 c 2.968,0 5.25,0.684 6.843,2.047 1.602,1.367 2.407,3.297 2.407,5.797 z m -5.219,0.078 c 0,-2.601 -1.539,-3.906 -4.61,-3.906 h -5.359 v 8.047 h 5.5 c 1.426,0 2.524,-0.352 3.297,-1.063 0.781,-0.718 1.172,-1.742 1.172,-3.078 z" /><path
                 id="path848"
                 style="fill:#000000;fill-opacity:1;fill-rule:nonzero;stroke:none"
                 d="m 124.195,371.926 c 0,3.086 -0.855,5.508 -2.562,7.265 -1.711,1.75 -4.074,2.625 -7.094,2.625 -2.969,0 -5.297,-0.878 -6.984,-2.64 -1.688,-1.758 -2.532,-4.176 -2.532,-7.25 0,-3.051 0.844,-5.453 2.532,-7.203 1.687,-1.758 4.047,-2.641 7.078,-2.641 3.113,0 5.484,0.852 7.109,2.547 1.633,1.687 2.453,4.121 2.453,7.297 z m -5.156,0 c 0,-2.258 -0.371,-3.899 -1.109,-4.922 -0.742,-1.02 -1.813,-1.531 -3.219,-1.531 -3,0 -4.5,2.152 -4.5,6.453 0,2.125 0.363,3.742 1.094,4.844 0.738,1.105 1.797,1.656 3.172,1.656 3.039,0 4.562,-2.164 4.562,-6.5 z" /><path
                 id="path850"
                 style="fill:#000000;fill-opacity:1;fill-rule:nonzero;stroke:none"
                 d="m 146.141,371.863 c 0,3.18 -0.637,5.633 -1.907,7.36 -1.273,1.73 -3.07,2.593 -5.39,2.593 -1.336,0 -2.496,-0.293 -3.485,-0.875 -0.992,-0.582 -1.75,-1.421 -2.281,-2.515 h -0.109 c 0.07,0.355 0.109,1.422 0.109,3.203 v 7.297 h -4.937 v -22.11 c 0,-1.789 -0.047,-3.25 -0.141,-4.375 h 4.797 c 0.062,0.211 0.113,0.625 0.156,1.25 0.039,0.618 0.063,1.231 0.063,1.844 h 0.062 c 1.113,-2.332 3.141,-3.5 6.078,-3.5 2.219,0 3.938,0.856 5.156,2.563 1.219,1.699 1.829,4.121 1.829,7.265 z m -5.157,0 c 0,-4.269 -1.308,-6.406 -3.922,-6.406 -1.312,0 -2.32,0.578 -3.015,1.734 -0.688,1.149 -1.031,2.75 -1.031,4.813 0,2.055 0.343,3.637 1.031,4.75 0.695,1.117 1.691,1.672 2.984,1.672 2.633,0 3.953,-2.188 3.953,-6.563 z" /><path
                 id="path852"
                 style="fill:#000000;fill-opacity:1;fill-rule:nonzero;stroke:none"
                 d="m 154.805,362.441 v 10.672 c 0,3.336 1.125,5 3.375,5 1.195,0 2.16,-0.508 2.89,-1.531 0.727,-1.031 1.094,-2.348 1.094,-3.953 v -10.188 h 4.953 v 14.766 c 0,1.617 0.047,3.031 0.141,4.25 h -4.719 c -0.137,-1.687 -0.203,-2.945 -0.203,-3.781 h -0.094 c -0.656,1.437 -1.496,2.492 -2.515,3.156 -1.012,0.656 -2.215,0.984 -3.61,0.984 -2.012,0 -3.558,-0.617 -4.64,-1.859 -1.075,-1.238 -1.61,-3.051 -1.61,-5.437 v -12.079 z" /><path
                 id="path854"
                 style="fill:#000000;fill-opacity:1;fill-rule:nonzero;stroke:none"
                 d="m 172.156,355.363 h 4.938 v 26.094 h -4.938 z" /><path
                 id="path856"
                 style="fill:#000000;fill-opacity:1;fill-rule:nonzero;stroke:none"
                 d="m 186.531,381.816 c -1.836,0 -3.265,-0.5 -4.297,-1.5 -1.031,-1.007 -1.546,-2.421 -1.546,-4.234 0,-1.969 0.64,-3.469 1.921,-4.5 1.282,-1.031 3.141,-1.562 5.579,-1.594 l 4.093,-0.062 v -0.969 c 0,-1.238 -0.219,-2.16 -0.656,-2.766 -0.43,-0.601 -1.137,-0.906 -2.125,-0.906 -0.906,0 -1.578,0.211 -2.016,0.625 -0.429,0.418 -0.695,1.106 -0.796,2.063 l -5.141,-0.25 c 0.312,-1.844 1.156,-3.243 2.531,-4.203 1.375,-0.958 3.254,-1.438 5.641,-1.438 2.394,0 4.242,0.594 5.547,1.781 1.3,1.18 1.953,2.86 1.953,5.047 v 6.922 c 0,1.063 0.117,1.797 0.359,2.203 0.238,0.406 0.641,0.61 1.203,0.61 0.375,0 0.739,-0.036 1.094,-0.11 v 2.672 c -0.293,0.074 -0.559,0.141 -0.797,0.203 -0.23,0.051 -0.465,0.094 -0.703,0.125 -0.23,0.039 -0.48,0.07 -0.75,0.094 -0.262,0.031 -0.563,0.047 -0.906,0.047 -1.25,0 -2.172,-0.305 -2.766,-0.922 -0.586,-0.613 -0.937,-1.508 -1.062,-2.688 h -0.094 c -1.387,2.5 -3.477,3.75 -6.266,3.75 z m 5.75,-9.171 -2.531,0.046 c -1.148,0.043 -1.961,0.168 -2.438,0.375 -0.48,0.2 -0.851,0.512 -1.109,0.938 -0.25,0.418 -0.375,0.98 -0.375,1.687 0,0.907 0.207,1.579 0.625,2.016 0.414,0.438 0.969,0.656 1.656,0.656 0.782,0 1.489,-0.207 2.125,-0.625 0.633,-0.426 1.133,-1.008 1.5,-1.75 0.364,-0.75 0.547,-1.539 0.547,-2.375 z" /><path
                 id="path858"
                 style="fill:#000000;fill-opacity:1;fill-rule:nonzero;stroke:none"
                 d="m 202.18,381.457 v -14.562 c 0,-1.04 -0.016,-1.911 -0.047,-2.61 -0.031,-0.695 -0.063,-1.312 -0.094,-1.844 h 4.703 c 0.039,0.211 0.086,0.852 0.141,1.922 0.062,1.075 0.094,1.789 0.094,2.141 h 0.078 c 0.476,-1.344 0.906,-2.285 1.281,-2.828 0.375,-0.539 0.816,-0.942 1.328,-1.203 0.52,-0.27 1.164,-0.407 1.938,-0.407 0.632,0 1.144,0.09 1.531,0.266 v 4.125 c -0.805,-0.176 -1.508,-0.266 -2.11,-0.266 -1.23,0 -2.187,0.5 -2.875,1.5 -0.687,1 -1.031,2.481 -1.031,4.438 v 9.328 z" /><path
                 id="path860"
                 style="fill:#000000;fill-opacity:1;fill-rule:nonzero;stroke:none"
                 d="m 216.172,359.004 v -3.641 h 4.937 v 3.641 z m 0,22.453 v -19.016 h 4.937 v 19.016 z" /><path
                 id="path862"
                 style="fill:#000000;fill-opacity:1;fill-rule:nonzero;stroke:none"
                 d="m 231.031,381.77 c -1.461,0 -2.586,-0.395 -3.375,-1.188 -0.781,-0.789 -1.172,-1.988 -1.172,-3.594 V 365.77 h -2.406 v -3.329 h 2.656 l 1.547,-4.468 h 3.094 v 4.468 h 3.609 v 3.329 h -3.609 v 9.89 c 0,0.93 0.176,1.61 0.531,2.047 0.352,0.438 0.895,0.656 1.625,0.656 0.395,0 0.946,-0.082 1.657,-0.25 v 3.063 c -1.219,0.394 -2.606,0.594 -4.157,0.594 z" /><path
                 id="path864"
                 style="fill:#000000;fill-opacity:1;fill-rule:nonzero;stroke:none"
                 d="m 240.633,388.926 c -1.18,0 -2.215,-0.074 -3.11,-0.219 v -3.516 c 0.625,0.094 1.192,0.141 1.704,0.141 0.707,0 1.289,-0.117 1.75,-0.344 0.468,-0.218 0.882,-0.59 1.25,-1.109 0.375,-0.512 0.789,-1.383 1.25,-2.609 l -7.532,-18.829 h 5.219 l 2.984,8.907 c 0.469,1.281 1.063,3.242 1.782,5.875 l 0.437,-1.672 1.141,-4.125 2.812,-8.985 h 5.172 l -7.515,20.016 c -1.012,2.438 -2.059,4.125 -3.141,5.063 -1.086,0.937 -2.484,1.406 -4.203,1.406 z" /><path
                 id="path866"
                 style="fill:#adc5e7;fill-opacity:0.58800001;fill-rule:evenodd;stroke:none"
                 d="m 532.969,435.488 8.222,-0.343 8.247,-0.168 8.25,-0.028 8.25,0.141 8.218,0.312 8.164,0.453 8.11,0.594 8.019,0.766 7.883,0.906 7.793,1.078 7.625,1.192 7.457,1.359 7.258,1.477 7.086,1.644 6.832,1.727 6.601,1.898 6.352,2.016 6.094,2.125 5.781,2.238 5.5,2.324 5.187,2.469 4.848,2.52 4.508,2.636 4.168,2.723 3.824,2.777 3.43,2.864 3.035,2.917 2.691,2.977 2.27,3.035 1.871,3.031 1.473,3.122 1.078,3.089 0.652,3.145 0.254,3.148 -0.172,3.145 -0.566,3.117 -0.992,3.117 -1.387,3.09 -1.785,3.09 -2.211,3.008 -2.582,3.004 -2.977,2.918 -3.371,2.863 -3.715,2.808 -4.109,2.719 -4.422,2.664 -4.793,2.551 -5.129,2.469 -5.414,2.379 -5.754,2.242 -6.012,2.152 -6.293,2.043 -6.574,1.899 -6.773,1.785 -7.031,1.644 -7.231,1.532 -7.426,1.386 -7.597,1.219 -7.739,1.106 -7.879,0.937 -7.992,0.793 -8.082,0.625 -8.164,0.481 -8.219,0.339 -8.25,0.172 -8.246,0.028 -8.25,-0.141 -8.222,-0.313 -8.161,-0.453 -8.109,-0.597 -7.992,-0.766 -7.91,-0.906 -7.766,-1.078 -7.625,-1.188 -7.484,-1.363 -7.258,-1.473 -7.059,-1.617 -6.859,-1.758 -6.606,-1.898 -6.347,-2.012 -6.094,-2.125 -5.785,-2.242 -5.496,-2.324 -5.188,-2.465 -4.847,-2.524 -4.508,-2.636 -4.168,-2.719 -3.797,-2.777 -3.461,-2.864 -3.031,-2.922 -2.692,-2.976 -2.269,-3.004 -1.871,-3.063 -1.473,-3.089 -1.078,-3.118 -0.652,-3.144 -0.254,-3.149 0.168,-3.117 0.566,-3.148 0.992,-3.117 1.391,-3.09 1.785,-3.063 2.211,-3.031 2.582,-3.004 2.977,-2.922 3.371,-2.863 3.715,-2.805 4.082,-2.722 4.449,-2.664 4.789,-2.551 5.133,-2.465 5.414,-2.383 5.726,-2.238 6.036,-2.156 6.292,-2.039 6.551,-1.899 6.801,-1.785 7.031,-1.645 7.227,-1.531 -0.028,-36.566 z" /><g
                 id="g870"><path
                   id="path868"
                   style="fill:none;stroke:#ffffff;stroke-width:0.79999399;stroke-linecap:butt;stroke-linejoin:round;stroke-miterlimit:4;stroke-dasharray:none;stroke-opacity:0.58800001"
                   d="m 532.969,435.488 8.222,-0.343 8.247,-0.168 8.25,-0.028 8.25,0.141 8.218,0.312 8.164,0.453 8.11,0.594 8.019,0.766 7.883,0.906 7.793,1.078 7.625,1.192 7.457,1.359 7.258,1.477 7.086,1.644 6.832,1.727 6.601,1.898 6.352,2.016 6.094,2.125 5.781,2.238 5.5,2.324 5.187,2.469 4.848,2.52 4.508,2.636 4.168,2.723 3.824,2.777 3.43,2.864 3.035,2.917 2.691,2.977 2.27,3.035 1.871,3.031 1.473,3.122 1.078,3.089 0.652,3.145 0.254,3.148 -0.172,3.145 -0.566,3.117 -0.992,3.117 -1.387,3.09 -1.785,3.09 -2.211,3.008 -2.582,3.004 -2.977,2.918 -3.371,2.863 -3.715,2.808 -4.109,2.719 -4.422,2.664 -4.793,2.551 -5.129,2.469 -5.414,2.379 -5.754,2.242 -6.012,2.152 -6.293,2.043 -6.574,1.899 -6.773,1.785 -7.031,1.644 -7.231,1.532 -7.426,1.386 -7.597,1.219 -7.739,1.106 -7.879,0.937 -7.992,0.793 -8.082,0.625 -8.164,0.481 -8.219,0.339 -8.25,0.172 -8.246,0.028 -8.25,-0.141 -8.222,-0.313 -8.161,-0.453 -8.109,-0.597 -7.992,-0.766 -7.91,-0.906 -7.766,-1.078 -7.625,-1.188 -7.484,-1.363 -7.258,-1.473 -7.059,-1.617 -6.859,-1.758 -6.606,-1.898 -6.347,-2.012 -6.094,-2.125 -5.785,-2.242 -5.496,-2.324 -5.188,-2.465 -4.847,-2.524 -4.508,-2.636 -4.168,-2.719 -3.797,-2.777 -3.461,-2.864 -3.031,-2.922 -2.692,-2.976 -2.269,-3.004 -1.871,-3.063 -1.473,-3.089 -1.078,-3.118 -0.652,-3.144 -0.254,-3.149 0.168,-3.117 0.566,-3.148 0.992,-3.117 1.391,-3.09 1.785,-3.063 2.211,-3.031 2.582,-3.004 2.977,-2.922 3.371,-2.863 3.715,-2.805 4.082,-2.722 4.449,-2.664 4.789,-2.551 5.133,-2.465 5.414,-2.383 5.726,-2.238 6.036,-2.156 6.292,-2.039 6.551,-1.899 6.801,-1.785 7.031,-1.645 7.227,-1.531 -0.028,-36.566 z" /></g><g
                 id="g874"><path
                   id="path872"
                   style="fill:none;stroke:#111111;stroke-width:3.00472403;stroke-linecap:butt;stroke-linejoin:round;stroke-miterlimit:4;stroke-dasharray:none;stroke-opacity:1"
                   d="m 532.969,435.488 8.222,-0.343 8.247,-0.168 8.25,-0.028 8.25,0.141 8.218,0.312 8.164,0.453 8.11,0.594 8.019,0.766 7.883,0.906 7.793,1.078 7.625,1.192 7.457,1.359 7.258,1.477 7.086,1.644 6.832,1.727 6.601,1.898 6.352,2.016 6.094,2.125 5.781,2.238 5.5,2.324 5.187,2.469 4.848,2.52 4.508,2.636 4.168,2.723 3.824,2.777 3.43,2.864 3.035,2.917 2.691,2.977 2.27,3.035 1.871,3.031 1.473,3.122 1.078,3.089 0.652,3.145 0.254,3.148 -0.172,3.145 -0.566,3.117 -0.992,3.117 -1.387,3.09 -1.785,3.09 -2.211,3.008 -2.582,3.004 -2.977,2.918 -3.371,2.863 -3.715,2.808 -4.109,2.719 -4.422,2.664 -4.793,2.551 -5.129,2.469 -5.414,2.379 -5.754,2.242 -6.012,2.152 -6.293,2.043 -6.574,1.899 -6.773,1.785 -7.031,1.644 -7.231,1.532 -7.426,1.386 -7.597,1.219 -7.739,1.106 -7.879,0.937 -7.992,0.793 -8.082,0.625 -8.164,0.481 -8.219,0.339 -8.25,0.172 -8.246,0.028 -8.25,-0.141 -8.222,-0.313 -8.161,-0.453 -8.109,-0.597 -7.992,-0.766 -7.91,-0.906 -7.766,-1.078 -7.625,-1.188 -7.484,-1.363 -7.258,-1.473 -7.059,-1.617 -6.859,-1.758 -6.606,-1.898 -6.347,-2.012 -6.094,-2.125 -5.785,-2.242 -5.496,-2.324 -5.188,-2.465 -4.847,-2.524 -4.508,-2.636 -4.168,-2.719 -3.797,-2.777 -3.461,-2.864 -3.031,-2.922 -2.692,-2.976 -2.269,-3.004 -1.871,-3.063 -1.473,-3.089 -1.078,-3.118 -0.652,-3.144 -0.254,-3.149 0.168,-3.117 0.566,-3.148 0.992,-3.117 1.391,-3.09 1.785,-3.063 2.211,-3.031 2.582,-3.004 2.977,-2.922 3.371,-2.863 3.715,-2.805 4.082,-2.722 4.449,-2.664 4.789,-2.551 5.133,-2.465 5.414,-2.383 5.726,-2.238 6.036,-2.156 6.292,-2.039 6.551,-1.899 6.801,-1.785 7.031,-1.645 7.227,-1.531 -0.028,-36.566 z" /></g><path
                 id="path876"
                 style="fill:#000000;fill-opacity:1;fill-rule:nonzero;stroke:none"
                 d="m 470.312,489.668 v 20.766 h -5.187 v -20.766 h -8 v -4 h 21.203 v 4 z" /><path
                 id="path878"
                 style="fill:#000000;fill-opacity:1;fill-rule:nonzero;stroke:none"
                 d="m 480.609,487.98 v -3.64 h 4.938 v 3.64 z m 0,22.454 v -19.016 h 4.938 v 19.016 z" /><path
                 id="path880"
                 style="fill:#000000;fill-opacity:1;fill-rule:nonzero;stroke:none"
                 d="m 501.797,510.434 v -10.672 c 0,-3.344 -0.965,-5.016 -2.891,-5.016 -1,0 -1.812,0.512 -2.437,1.531 -0.625,1.024 -0.938,2.34 -0.938,3.953 v 10.204 h -4.937 v -14.766 c 0,-1.02 -0.016,-1.852 -0.047,-2.5 -0.031,-0.656 -0.063,-1.238 -0.094,-1.75 h 4.703 c 0.039,0.219 0.086,0.812 0.141,1.781 0.062,0.969 0.094,1.637 0.094,2 h 0.078 c 0.601,-1.457 1.359,-2.515 2.265,-3.172 0.907,-0.656 1.993,-0.984 3.266,-0.984 2.906,0 4.672,1.387 5.297,4.156 h 0.094 c 0.644,-1.476 1.414,-2.539 2.312,-3.187 0.906,-0.645 2.055,-0.969 3.453,-0.969 1.852,0 3.266,0.633 4.235,1.891 0.976,1.261 1.468,3.07 1.468,5.421 v 12.079 h -4.906 v -10.672 c 0,-3.344 -0.965,-5.016 -2.891,-5.016 -0.96,0 -1.746,0.469 -2.359,1.406 -0.617,0.93 -0.953,2.215 -1.015,3.86 v 10.422 z" /><path
                 id="path882"
                 style="fill:#000000;fill-opacity:1;fill-rule:nonzero;stroke:none"
                 d="m 530.367,510.793 c -2.855,0 -5.055,-0.848 -6.594,-2.547 -1.531,-1.695 -2.296,-4.164 -2.296,-7.406 0,-3.145 0.773,-5.563 2.328,-7.25 1.562,-1.688 3.773,-2.531 6.64,-2.531 2.727,0 4.813,0.906 6.25,2.718 1.446,1.813 2.172,4.465 2.172,7.953 v 0.141 h -12.203 c 0,1.856 0.344,3.258 1.031,4.203 0.688,0.938 1.66,1.406 2.922,1.406 1.75,0 2.852,-0.753 3.313,-2.265 l 4.656,0.406 c -1.356,3.449 -4.094,5.172 -8.219,5.172 z m 0,-16.625 c -1.156,0 -2.047,0.406 -2.672,1.219 -0.625,0.812 -0.961,1.945 -1,3.39 h 7.391 c -0.094,-1.531 -0.465,-2.679 -1.109,-3.453 -0.649,-0.769 -1.516,-1.156 -2.61,-1.156 z" /><path
                 id="path884"
                 style="fill:#000000;fill-opacity:1;fill-rule:nonzero;stroke:none"
                 d="m 542.625,484.34 h 4.938 v 26.094 h -4.938 z" /><path
                 id="path886"
                 style="fill:#000000;fill-opacity:1;fill-rule:nonzero;stroke:none"
                 d="m 552.609,487.98 v -3.64 h 4.938 v 3.64 z m 0,22.454 v -19.016 h 4.938 v 19.016 z" /><path
                 id="path888"
                 style="fill:#000000;fill-opacity:1;fill-rule:nonzero;stroke:none"
                 d="m 574.922,510.434 v -10.672 c 0,-3.344 -1.137,-5.016 -3.406,-5.016 -1.188,0 -2.153,0.516 -2.891,1.547 -0.73,1.023 -1.094,2.336 -1.094,3.937 v 10.204 h -4.937 v -14.766 c 0,-1.02 -0.016,-1.852 -0.047,-2.5 -0.031,-0.656 -0.063,-1.238 -0.094,-1.75 h 4.703 c 0.039,0.219 0.086,0.812 0.141,1.781 0.062,0.969 0.094,1.637 0.094,2 h 0.078 c 0.664,-1.457 1.5,-2.515 2.5,-3.172 1.008,-0.656 2.211,-0.984 3.609,-0.984 2.02,0 3.567,0.625 4.641,1.875 1.082,1.242 1.625,3.055 1.625,5.437 v 12.079 z" /><path
                 id="path890"
                 style="fill:#000000;fill-opacity:1;fill-rule:nonzero;stroke:none"
                 d="m 592.383,510.793 c -2.856,0 -5.055,-0.848 -6.594,-2.547 -1.531,-1.695 -2.297,-4.164 -2.297,-7.406 0,-3.145 0.774,-5.563 2.328,-7.25 1.563,-1.688 3.774,-2.531 6.641,-2.531 2.727,0 4.812,0.906 6.25,2.718 1.445,1.813 2.172,4.465 2.172,7.953 v 0.141 H 588.68 c 0,1.856 0.343,3.258 1.031,4.203 0.687,0.938 1.66,1.406 2.922,1.406 1.75,0 2.851,-0.753 3.312,-2.265 l 4.657,0.406 c -1.356,3.449 -4.094,5.172 -8.219,5.172 z m 0,-16.625 c -1.156,0 -2.047,0.406 -2.672,1.219 -0.625,0.812 -0.961,1.945 -1,3.39 h 7.391 c -0.094,-1.531 -0.465,-2.679 -1.11,-3.453 -0.648,-0.769 -1.515,-1.156 -2.609,-1.156 z" /><path
                 id="path892"
                 style="fill:#000000;fill-opacity:1;fill-rule:nonzero;stroke:none"
                 d="m 620.672,504.871 c 0,1.844 -0.758,3.293 -2.266,4.344 -1.5,1.055 -3.586,1.578 -6.25,1.578 -2.605,0 -4.605,-0.41 -6,-1.234 -1.386,-0.832 -2.308,-2.125 -2.765,-3.875 l 4.343,-0.641 c 0.25,0.898 0.672,1.531 1.266,1.906 0.602,0.375 1.656,0.563 3.156,0.563 1.383,0 2.395,-0.172 3.032,-0.516 0.632,-0.351 0.953,-0.906 0.953,-1.656 0,-0.613 -0.258,-1.098 -0.766,-1.453 -0.512,-0.352 -1.375,-0.657 -2.594,-0.907 -2.793,-0.55 -4.679,-1.062 -5.656,-1.531 -0.969,-0.476 -1.711,-1.094 -2.219,-1.844 -0.511,-0.757 -0.765,-1.691 -0.765,-2.796 0,-1.813 0.695,-3.223 2.093,-4.235 1.407,-1.019 3.395,-1.531 5.969,-1.531 2.258,0 4.078,0.445 5.453,1.328 1.375,0.875 2.235,2.149 2.578,3.813 l -4.375,0.453 c -0.148,-0.77 -0.496,-1.348 -1.047,-1.735 -0.554,-0.382 -1.421,-0.578 -2.609,-0.578 -1.18,0 -2.058,0.153 -2.641,0.453 -0.585,0.305 -0.874,0.805 -0.874,1.5 0,0.555 0.222,0.993 0.671,1.313 0.446,0.324 1.207,0.59 2.282,0.797 1.488,0.312 2.804,0.633 3.953,0.953 1.156,0.312 2.082,0.695 2.781,1.14 0.695,0.45 1.254,1.024 1.672,1.719 0.414,0.699 0.625,1.59 0.625,2.672 z" /><path
                 id="path894"
                 style="fill:#000000;fill-opacity:1;fill-rule:nonzero;stroke:none"
                 d="m 640.711,504.871 c 0,1.844 -0.758,3.293 -2.266,4.344 -1.5,1.055 -3.586,1.578 -6.25,1.578 -2.605,0 -4.605,-0.41 -6,-1.234 -1.386,-0.832 -2.308,-2.125 -2.765,-3.875 l 4.343,-0.641 c 0.25,0.898 0.672,1.531 1.266,1.906 0.602,0.375 1.656,0.563 3.156,0.563 1.383,0 2.395,-0.172 3.032,-0.516 0.632,-0.351 0.953,-0.906 0.953,-1.656 0,-0.613 -0.258,-1.098 -0.766,-1.453 -0.512,-0.352 -1.375,-0.657 -2.594,-0.907 -2.793,-0.55 -4.679,-1.062 -5.656,-1.531 -0.969,-0.476 -1.711,-1.094 -2.219,-1.844 -0.511,-0.757 -0.765,-1.691 -0.765,-2.796 0,-1.813 0.695,-3.223 2.093,-4.235 1.407,-1.019 3.395,-1.531 5.969,-1.531 2.258,0 4.078,0.445 5.453,1.328 1.375,0.875 2.235,2.149 2.578,3.813 l -4.375,0.453 c -0.148,-0.77 -0.496,-1.348 -1.046,-1.735 -0.555,-0.382 -1.422,-0.578 -2.61,-0.578 -1.18,0 -2.058,0.153 -2.64,0.453 -0.586,0.305 -0.875,0.805 -0.875,1.5 0,0.555 0.222,0.993 0.671,1.313 0.446,0.324 1.207,0.59 2.282,0.797 1.488,0.312 2.804,0.633 3.953,0.953 1.156,0.312 2.082,0.695 2.781,1.14 0.695,0.45 1.254,1.024 1.672,1.719 0.414,0.699 0.625,1.59 0.625,2.672 z" /><path
                 id="path896"
                 style="fill:#adc5e7;fill-opacity:0.58800001;fill-rule:evenodd;stroke:none"
                 d="m 643.152,285.676 2.524,-3.09 2.863,-3.063 3.145,-2.976 3.488,-2.891 3.797,-2.804 4.054,-2.723 4.368,-2.609 4.648,-2.52 4.902,-2.41 5.133,-2.27 5.383,-2.152 5.613,-2.043 5.813,-1.898 6.008,-1.758 6.179,-1.645 6.379,-1.472 6.492,-1.305 6.633,-1.16 6.746,-1.024 6.86,-0.847 6.945,-0.711 7,-0.508 7.031,-0.371 7.086,-0.227 7.086,-0.027 7.086,0.14 7.059,0.286 7.031,0.453 6.973,0.625 6.89,0.793 6.801,0.933 6.691,1.106 6.547,1.277 6.434,1.387 6.265,1.558 6.094,1.704 5.899,1.843 5.695,1.985 5.473,2.097 5.242,2.239 5.019,2.351 4.735,2.465 4.504,2.582 4.195,2.664 3.914,2.778 3.598,2.863 3.316,2.949 2.977,3.004 2.664,3.09 2.328,3.117 1.98,3.203 1.676,3.231 1.301,3.261 0.937,3.289 0.625,3.317 0.254,3.316 -0.113,3.317 -0.453,3.316 -0.793,3.289 -1.164,3.285 -1.504,3.235 -1.84,3.23 -2.184,3.145 -2.523,3.121 -2.863,3.031 -3.176,2.976 -3.457,2.891 -3.797,2.809 -4.082,2.718 -4.367,2.61 -4.621,2.523 -4.903,2.41 -5.129,2.266 -5.386,2.184 -5.614,2.011 -5.812,1.899 -6.008,1.758 -6.207,1.644 -6.351,1.473 -6.493,1.304 -6.632,1.192 -6.774,0.992 -6.832,0.852 -6.945,0.707 -7,0.539 -7.059,0.34 -7.058,0.226 -7.114,0.027 -7.089,-0.14 -7.059,-0.281 -7,-0.457 -6.973,-0.622 -6.886,-0.793 -6.805,-0.964 -6.692,-1.079 -6.574,-1.273 -6.406,-1.391 -6.266,-1.558 -6.093,-1.703 -5.899,-1.84 -5.695,-1.985 -5.473,-2.124 -5.269,-2.211 -4.993,-2.356 -4.761,-2.465 -4.477,-2.578 -4.195,-2.695 -3.914,-2.75 -3.598,-2.863 -3.316,-2.946 -2.977,-3.008 -2.664,-3.089 -2.324,-3.118 -1.984,-3.203 -1.676,-3.23 -1.301,-3.262 -0.938,-3.285 -0.621,-3.317 -0.257,-3.316 -42.18,-14.969 z" /><g
                 id="g900"><path
                   id="path898"
                   style="fill:none;stroke:#ffffff;stroke-width:0.79999399;stroke-linecap:butt;stroke-linejoin:round;stroke-miterlimit:4;stroke-dasharray:none;stroke-opacity:0.58800001"
                   d="m 643.152,285.676 2.524,-3.09 2.863,-3.063 3.145,-2.976 3.488,-2.891 3.797,-2.804 4.054,-2.723 4.368,-2.609 4.648,-2.52 4.902,-2.41 5.133,-2.27 5.383,-2.152 5.613,-2.043 5.813,-1.898 6.008,-1.758 6.179,-1.645 6.379,-1.472 6.492,-1.305 6.633,-1.16 6.746,-1.024 6.86,-0.847 6.945,-0.711 7,-0.508 7.031,-0.371 7.086,-0.227 7.086,-0.027 7.086,0.14 7.059,0.286 7.031,0.453 6.973,0.625 6.89,0.793 6.801,0.933 6.691,1.106 6.547,1.277 6.434,1.387 6.265,1.558 6.094,1.704 5.899,1.843 5.695,1.985 5.473,2.097 5.242,2.239 5.019,2.351 4.735,2.465 4.504,2.582 4.195,2.664 3.914,2.778 3.598,2.863 3.316,2.949 2.977,3.004 2.664,3.09 2.328,3.117 1.98,3.203 1.676,3.231 1.301,3.261 0.937,3.289 0.625,3.317 0.254,3.316 -0.113,3.317 -0.453,3.316 -0.793,3.289 -1.164,3.285 -1.504,3.235 -1.84,3.23 -2.184,3.145 -2.523,3.121 -2.863,3.031 -3.176,2.976 -3.457,2.891 -3.797,2.809 -4.082,2.718 -4.367,2.61 -4.621,2.523 -4.903,2.41 -5.129,2.266 -5.386,2.184 -5.614,2.011 -5.812,1.899 -6.008,1.758 -6.207,1.644 -6.351,1.473 -6.493,1.304 -6.632,1.192 -6.774,0.992 -6.832,0.852 -6.945,0.707 -7,0.539 -7.059,0.34 -7.058,0.226 -7.114,0.027 -7.089,-0.14 -7.059,-0.281 -7,-0.457 -6.973,-0.622 -6.886,-0.793 -6.805,-0.964 -6.692,-1.079 -6.574,-1.273 -6.406,-1.391 -6.266,-1.558 -6.093,-1.703 -5.899,-1.84 -5.695,-1.985 -5.473,-2.124 -5.269,-2.211 -4.993,-2.356 -4.761,-2.465 -4.477,-2.578 -4.195,-2.695 -3.914,-2.75 -3.598,-2.863 -3.316,-2.946 -2.977,-3.008 -2.664,-3.089 -2.324,-3.118 -1.984,-3.203 -1.676,-3.23 -1.301,-3.262 -0.938,-3.285 -0.621,-3.317 -0.257,-3.316 -42.18,-14.969 z" /></g><g
                 id="g904"><path
                   id="path902"
                   style="fill:none;stroke:#111111;stroke-width:3.00472403;stroke-linecap:butt;stroke-linejoin:round;stroke-miterlimit:4;stroke-dasharray:none;stroke-opacity:1"
                   d="m 643.152,285.676 2.524,-3.09 2.863,-3.063 3.145,-2.976 3.488,-2.891 3.797,-2.804 4.054,-2.723 4.368,-2.609 4.648,-2.52 4.902,-2.41 5.133,-2.27 5.383,-2.152 5.613,-2.043 5.813,-1.898 6.008,-1.758 6.179,-1.645 6.379,-1.472 6.492,-1.305 6.633,-1.16 6.746,-1.024 6.86,-0.847 6.945,-0.711 7,-0.508 7.031,-0.371 7.086,-0.227 7.086,-0.027 7.086,0.14 7.059,0.286 7.031,0.453 6.973,0.625 6.89,0.793 6.801,0.933 6.691,1.106 6.547,1.277 6.434,1.387 6.265,1.558 6.094,1.704 5.899,1.843 5.695,1.985 5.473,2.097 5.242,2.239 5.019,2.351 4.735,2.465 4.504,2.582 4.195,2.664 3.914,2.778 3.598,2.863 3.316,2.949 2.977,3.004 2.664,3.09 2.328,3.117 1.98,3.203 1.676,3.231 1.301,3.261 0.937,3.289 0.625,3.317 0.254,3.316 -0.113,3.317 -0.453,3.316 -0.793,3.289 -1.164,3.285 -1.504,3.235 -1.84,3.23 -2.184,3.145 -2.523,3.121 -2.863,3.031 -3.176,2.976 -3.457,2.891 -3.797,2.809 -4.082,2.718 -4.367,2.61 -4.621,2.523 -4.903,2.41 -5.129,2.266 -5.386,2.184 -5.614,2.011 -5.812,1.899 -6.008,1.758 -6.207,1.644 -6.351,1.473 -6.493,1.304 -6.632,1.192 -6.774,0.992 -6.832,0.852 -6.945,0.707 -7,0.539 -7.059,0.34 -7.058,0.226 -7.114,0.027 -7.089,-0.14 -7.059,-0.281 -7,-0.457 -6.973,-0.622 -6.886,-0.793 -6.805,-0.964 -6.692,-1.079 -6.574,-1.273 -6.406,-1.391 -6.266,-1.558 -6.093,-1.703 -5.899,-1.84 -5.695,-1.985 -5.473,-2.124 -5.269,-2.211 -4.993,-2.356 -4.761,-2.465 -4.477,-2.578 -4.195,-2.695 -3.914,-2.75 -3.598,-2.863 -3.316,-2.946 -2.977,-3.008 -2.664,-3.089 -2.324,-3.118 -1.984,-3.203 -1.676,-3.23 -1.301,-3.262 -0.938,-3.285 -0.621,-3.317 -0.257,-3.316 -42.18,-14.969 z" /></g><path
                 id="path906"
                 style="fill:#000000;fill-opacity:1;fill-rule:nonzero;stroke:none"
                 d="m 727.223,320.258 -2.203,-6.328 h -9.438 l -2.203,6.328 h -5.188 l 9.047,-24.766 h 6.11 l 9,24.766 z m -6.938,-20.953 -0.094,0.39 c -0.125,0.418 -0.273,0.899 -0.437,1.438 -0.156,0.543 -1.164,3.508 -3.016,8.89 h 7.125 l -2.453,-7.109 -0.75,-2.391 z" /><path
                 id="path908"
                 style="fill:#000000;fill-opacity:1;fill-rule:nonzero;stroke:none"
                 d="m 743.754,320.617 c -2.875,0 -5.102,-0.859 -6.672,-2.578 -1.574,-1.719 -2.359,-4.113 -2.359,-7.187 0,-3.133 0.789,-5.579 2.375,-7.329 1.582,-1.757 3.828,-2.64 6.734,-2.64 2.238,0 4.086,0.562 5.547,1.687 1.469,1.125 2.391,2.68 2.766,4.657 l -4.969,0.25 c -0.149,-0.969 -0.5,-1.743 -1.063,-2.329 -0.562,-0.582 -1.359,-0.875 -2.39,-0.875 -2.543,0 -3.813,2.133 -3.813,6.391 0,4.375 1.297,6.563 3.891,6.563 0.937,0 1.719,-0.289 2.344,-0.875 0.632,-0.594 1.031,-1.477 1.187,-2.657 l 4.953,0.235 c -0.18,1.304 -0.648,2.465 -1.406,3.484 -0.75,1.024 -1.742,1.813 -2.969,2.375 -1.23,0.551 -2.617,0.828 -4.156,0.828 z" /><path
                 id="path910"
                 style="fill:#000000;fill-opacity:1;fill-rule:nonzero;stroke:none"
                 d="m 760.746,320.57 c -1.461,0 -2.586,-0.394 -3.375,-1.187 -0.781,-0.789 -1.172,-1.988 -1.172,-3.594 V 304.57 h -2.406 v -3.328 h 2.656 l 1.547,-4.469 h 3.094 v 4.469 h 3.609 v 3.328 h -3.609 v 9.891 c 0,0.93 0.176,1.609 0.531,2.047 0.352,0.437 0.895,0.656 1.625,0.656 0.395,0 0.945,-0.082 1.656,-0.25 v 3.063 c -1.218,0.394 -2.605,0.593 -4.156,0.593 z" /><path
                 id="path912"
                 style="fill:#000000;fill-opacity:1;fill-rule:nonzero;stroke:none"
                 d="m 767.895,297.805 v -3.641 h 4.937 v 3.641 z m 0,22.453 v -19.016 h 4.937 v 19.016 z" /><path
                 id="path914"
                 style="fill:#000000;fill-opacity:1;fill-rule:nonzero;stroke:none"
                 d="m 788.207,320.258 h -5.906 l -6.797,-19.016 h 5.219 l 3.328,10.625 c 0.176,0.594 0.594,2.063 1.25,4.406 0.113,-0.488 0.351,-1.332 0.719,-2.531 0.363,-1.207 1.71,-5.375 4.046,-12.5 h 5.157 z" /><path
                 id="path916"
                 style="fill:#000000;fill-opacity:1;fill-rule:nonzero;stroke:none"
                 d="m 797.918,297.805 v -3.641 h 4.937 v 3.641 z m 0,22.453 v -19.016 h 4.937 v 19.016 z" /><path
                 id="path918"
                 style="fill:#000000;fill-opacity:1;fill-rule:nonzero;stroke:none"
                 d="m 812.777,320.57 c -1.461,0 -2.586,-0.394 -3.375,-1.187 -0.781,-0.789 -1.172,-1.988 -1.172,-3.594 V 304.57 h -2.406 v -3.328 h 2.656 l 1.547,-4.469 h 3.094 v 4.469 h 3.609 v 3.328 h -3.609 v 9.891 c 0,0.93 0.176,1.609 0.531,2.047 0.352,0.437 0.895,0.656 1.625,0.656 0.395,0 0.946,-0.082 1.657,-0.25 v 3.063 c -1.219,0.394 -2.606,0.593 -4.157,0.593 z" /><path
                 id="path920"
                 style="fill:#000000;fill-opacity:1;fill-rule:nonzero;stroke:none"
                 d="m 822.379,327.727 c -1.18,0 -2.215,-0.075 -3.109,-0.219 v -3.516 c 0.625,0.094 1.191,0.141 1.703,0.141 0.707,0 1.289,-0.117 1.75,-0.344 0.468,-0.219 0.882,-0.59 1.25,-1.109 0.375,-0.512 0.789,-1.383 1.25,-2.61 l -7.532,-18.828 h 5.219 l 2.985,8.906 c 0.468,1.282 1.062,3.243 1.781,5.875 l 0.437,-1.671 1.141,-4.125 2.812,-8.985 h 5.172 l -7.515,20.016 c -1.012,2.437 -2.059,4.125 -3.141,5.062 -1.086,0.938 -2.484,1.407 -4.203,1.407 z" /><g
                 id="g924"><path
                   id="path922"
                   style="fill:#f48205;fill-opacity:1;fill-rule:evenodd;stroke:#000000;stroke-width:3.00472403;stroke-linecap:butt;stroke-linejoin:round;stroke-miterlimit:4;stroke-dasharray:none;stroke-opacity:1"
                   d="m 469.871,180.227 c 57.402,0 101.227,43.824 101.227,101.226 0,57.402 -43.825,101.223 -101.227,101.223 -57.402,0 -101.226,-43.821 -101.226,-101.223 0,-57.402 43.824,-101.226 101.226,-101.226 z" /></g><path
                 id="path926"
                 style="fill:#ffffff;fill-opacity:1;fill-rule:nonzero;stroke:none"
                 d="m 434.977,220.809 c 2.093,-1.75 4.367,-3.391 6.828,-4.922 2.468,-1.532 5.117,-2.875 7.953,-4.032 2.832,-1.164 5.879,-2.07 9.14,-2.718 3.258,-0.657 6.786,-0.985 10.579,-0.985 5.332,0 10.132,0.711 14.406,2.125 4.281,1.418 7.922,3.446 10.922,6.078 3.007,2.637 5.32,5.809 6.937,9.516 1.613,3.711 2.422,7.836 2.422,12.375 0,4.305 -0.594,8.027 -1.781,11.172 -1.188,3.148 -2.695,5.883 -4.516,8.203 -1.812,2.324 -3.812,4.336 -6,6.031 -2.179,1.7 -4.246,3.274 -6.203,4.719 -1.949,1.449 -3.648,2.883 -5.094,4.297 -1.437,1.418 -2.355,3 -2.75,4.75 l -2.39,11.906 h -18.016 l -1.875,-13.687 c -0.449,-2.77 -0.164,-5.188 0.859,-7.25 1.02,-2.071 2.422,-3.942 4.204,-5.61 1.781,-1.675 3.773,-3.265 5.984,-4.765 2.219,-1.508 4.289,-3.129 6.219,-4.86 1.925,-1.726 3.55,-3.656 4.875,-5.781 1.332,-2.125 2,-4.656 2,-7.594 0,-3.406 -1.121,-6.113 -3.36,-8.125 -2.23,-2.007 -5.304,-3.015 -9.218,-3.015 -3,0 -5.508,0.312 -7.516,0.937 -2.012,0.625 -3.742,1.321 -5.188,2.078 -1.449,0.762 -2.714,1.453 -3.796,2.078 -1.075,0.625 -2.149,0.938 -3.219,0.938 -2.438,0 -4.25,-1.047 -5.438,-3.141 z m 15.64,99.203 c 0,-2.039 0.379,-3.938 1.141,-5.688 0.769,-1.758 1.816,-3.289 3.14,-4.594 1.332,-1.3 2.907,-2.332 4.719,-3.093 1.821,-0.77 3.805,-1.157 5.953,-1.157 2.102,0 4.063,0.387 5.875,1.157 1.813,0.761 3.395,1.793 4.75,3.093 1.364,1.305 2.426,2.836 3.188,4.594 0.769,1.75 1.156,3.649 1.156,5.688 0,2.043 -0.387,3.953 -1.156,5.734 -0.762,1.781 -1.824,3.328 -3.188,4.641 -1.355,1.304 -2.937,2.32 -4.75,3.047 -1.812,0.738 -3.773,1.109 -5.875,1.109 -2.148,0 -4.132,-0.371 -5.953,-1.109 -1.812,-0.727 -3.387,-1.743 -4.719,-3.047 -1.324,-1.313 -2.371,-2.86 -3.14,-4.641 -0.762,-1.781 -1.141,-3.691 -1.141,-5.734 z" /></g></g></g></g></g></g></svg>