<?xml version="1.0" standalone="no"?>
<!DOCTYPE svg PUBLIC "-//W3C//DTD SVG 1.1//EN" "http://www.w3.org/Graphics/SVG/1.1/DTD/svg11.dtd" >
<svg xmlns="http://www.w3.org/2000/svg">
<metadata></metadata>
<defs>
<font id="equity_text_aregular" horiz-adv-x="1105" >
<font-face units-per-em="2048" ascent="1524" descent="-524" />
<missing-glyph horiz-adv-x="450" />
<glyph unicode="&#xfb01;" horiz-adv-x="1083" d="M33 831v60l131 84v86q0 119 58.5 223.5t160 166.5t219.5 62q121 0 203 -58t82 -140q0 -44 -25 -70t-78 -26q-37 0 -62.5 19.5t-41 47.5l-31 56t-41.5 47.5t-63 19.5q-60 0 -106 -53t-67.5 -128.5t-21.5 -154.5v-135h432l80 27h53v-863l119 -30v-72h-432v72l127 30v729 h-379v-722l162 -37v-72h-467v72l119 30v729h-131z" />
<glyph unicode="&#xfb02;" horiz-adv-x="1103" d="M33 831v60l131 84v86q0 89 34 172.5t91 144.5t136.5 98t166.5 37q117 0 180 -47l115 37h49v-1401l119 -30v-72h-441v72l136 30v1162q-31 4 -58 20.5t-46.5 37t-39.5 40.5t-46 33.5t-56 13.5q-48 0 -84.5 -53.5t-53 -128t-16.5 -154.5v-135h248v-107h-248v-722l174 -37 v-72h-479v72l119 30v729h-131z" />
<glyph unicode="&#xfb03;" horiz-adv-x="1654" d="M33 831v60l131 84v86q0 115 58.5 211t150 148.5t192.5 52.5q92 0 165 -33t114 -84q62 73 148 115t182 42q121 0 202.5 -58t81.5 -140q0 -96 -102 -96q-37 0 -62.5 19.5t-41 47.5l-31 56t-42 47.5t-63.5 19.5q-60 0 -106 -53t-67 -128t-21 -155v-135h432l80 27h53v-863 l119 -30v-72h-432v72l126 30v729h-378v-722l161 -37v-72h-467v72l119 30v729h-385v-722l162 -37v-72h-467v72l119 30v729h-131zM350 938h385v123q0 64 19 129q-28 8 -49 30t-34.5 46.5t-30.5 47.5t-46.5 38.5t-71.5 15.5q-60 0 -99.5 -39.5t-56 -101.5t-16.5 -146v-143z" />
<glyph unicode="&#xfb04;" horiz-adv-x="1675" d="M33 831v60l131 84v86q0 115 58.5 211t150 148.5t192.5 52.5q90 0 163 -33t114 -84q61 74 144.5 115.5t176.5 41.5q117 0 180 -47l115 37h49v-1401l119 -30v-72h-440v72l135 30v1162q-31 4 -58 20.5t-46.5 37t-39.5 40.5t-46 33.5t-56 13.5q-37 0 -67 -31t-48 -80.5 t-28 -107.5t-10 -117v-135h247v-107h-247v-722l174 -37v-72h-480v72l119 30v729h-385v-722l162 -37v-72h-467v72l119 30v729h-131zM350 938h385v123q0 64 19 129q-28 9 -49 31t-34.5 46t-30.5 47.5t-46.5 38.5t-71.5 15q-60 0 -99.5 -39.5t-56 -101.5t-16.5 -146v-143z" />
<glyph horiz-adv-x="2048" />
<glyph horiz-adv-x="2048" />
<glyph unicode="&#xd;" horiz-adv-x="2048" />
<glyph unicode=" "  horiz-adv-x="450" />
<glyph unicode="&#x09;" horiz-adv-x="450" />
<glyph unicode="&#xa0;" horiz-adv-x="450" />
<glyph unicode="!" horiz-adv-x="681" d="M209 117q0 56 38 94.5t93 38.5q56 0 94.5 -39t38.5 -94t-38.5 -93t-94.5 -38t-93.5 38t-37.5 93zM217 1503h246l-82 -1073h-82z" />
<glyph unicode="&#x22;" horiz-adv-x="876" d="M150 893l36 483q5 75 32.5 114t84.5 26l47 -11q42 -9 53 -57t-16 -123l-160 -451zM516 893l37 483q5 75 32.5 114t84.5 26l47 -11q42 -9 53 -57t-16 -123l-160 -451z" />
<glyph unicode="#" horiz-adv-x="1099" d="M61 305v152h224l75 360h-196v152h227l90 436h123l-90 -436h205l90 436h123l-90 -436h196v-152h-227l-76 -360h201v-152h-231l-101 -483h-123l101 483h-205l-101 -483h-122l100 483h-193zM408 457h204l76 360h-205z" />
<glyph unicode="$" horiz-adv-x="1118" d="M143 401h80q61 -309 297 -329v506q-189 70 -272.5 159.5t-83.5 218.5q0 59 25 118.5t69 109t112.5 83t149.5 38.5v206h92v-208q90 -10 199 -66l66 31h41l30 -365h-67q-38 133 -108.5 208t-160.5 93v-456q185 -68 274 -162t89 -236q0 -167 -99.5 -261.5t-263.5 -108.5 v-222h-92v219q-61 5 -124.5 26.5t-102.5 53.5l-57 -32h-62zM340 1004q0 -135 180 -220v424q-180 -16 -180 -204zM612 74q89 12 137 66t48 145q0 83 -40.5 146t-144.5 112v-469z" />
<glyph unicode="%" horiz-adv-x="1138" d="M61 12l420 563l326 465l-4 4q-43 -24 -98 -24q-62 0 -101 39l-6 -2q-3 -168 -91 -277.5t-204 -109.5q-98 0 -159.5 73.5t-61.5 186.5q0 152 96 264.5t207 112.5q69 0 121.5 -38.5t75.5 -105.5q12 -31 51.5 -50t85.5 -19q100 0 172 63q48 137 113 137q18 0 33.5 -11.5 t15.5 -35.5q0 -30 -27.5 -65t-62.5 -60l-431 -585l-403 -578zM233 874q0 -59 23.5 -89.5t65.5 -30.5q67 0 123.5 86.5t56.5 244.5q0 62 -23 95.5t-59 33.5q-44 0 -87.5 -50t-71.5 -129.5t-28 -160.5zM541 236q0 152 96 264t207 112q94 0 153.5 -64.5t59.5 -176.5 q0 -90 -26.5 -166.5t-68.5 -125.5t-93.5 -76.5t-102.5 -27.5q-100 0 -162.5 73.5t-62.5 187.5zM692 180q0 -58 23.5 -89.5t60.5 -31.5q69 0 127 85t58 247q0 62 -23 95.5t-59 33.5q-44 0 -87.5 -50t-71.5 -129.5t-28 -160.5z" />
<glyph unicode="&#x26;" horiz-adv-x="1488" d="M106 391q0 153 74 244.5t252 177.5q-69 72 -106 149t-37 142q0 58 56.5 130t139.5 122.5t152 50.5q65 0 134 -44t111 -101t42 -99q0 -50 -21.5 -95.5t-63 -84.5t-85.5 -69.5t-105 -65.5q196 -178 328 -371q86 133 168 316l-146 30v74h398v-74l-144 -30 q-116 -239 -223 -396q85 -140 146 -270q16 -37 45 -37q23 0 43.5 18.5t62.5 75.5l55 -37q-81 -172 -211 -172q-72 0 -122 72l-134 197q-225 -269 -430 -269q-99 0 -187 59t-140 155t-52 202zM299 492q0 -90 29 -163t73.5 -114.5t90.5 -63.5t86 -22q121 0 284 193 q-181 263 -377 440h-2q-97 -51 -140.5 -115t-43.5 -155zM442 1151q0 -56 38.5 -115.5t111.5 -132.5q158 114 158 238q0 69 -42.5 123.5t-93.5 54.5q-55 0 -113.5 -54.5t-58.5 -113.5z" />
<glyph unicode="'" horiz-adv-x="509" d="M150 893l36 483q5 75 32.5 114t84.5 26l47 -11q42 -9 53 -57t-16 -123l-160 -451z" />
<glyph unicode="(" horiz-adv-x="720" d="M135 539q0 157 36 299t105.5 264t154 224t196.5 204l61 -80q-369 -375 -369 -911q0 -291 91.5 -540t277.5 -425l-59 -70q-494 452 -494 1035z" />
<glyph unicode=")" horiz-adv-x="720" d="M33 -426q186 176 277 424.5t91 540.5q0 537 -368 911l61 80q112 -102 196.5 -204t154 -224t105.5 -264t36 -299q0 -583 -494 -1035z" />
<glyph unicode="*" horiz-adv-x="974" d="M136 1246q-2 44 32 75q43 38 90 1q3 -2 6 -5q137 -124 195 -164q-15 113 -53 248q-18 59 30 86q41 22 84 3q50 -21 42 -77l-3 -12q-6 -23 -20.5 -76t-22.5 -92.5t-12 -79.5q94 60 194 164q46 50 92 16q35 -26 38 -73q3 -54 -44 -70l-8 -2q-16 -4 -57 -13.5t-63.5 -15.5 t-57 -18.5t-63.5 -28.5q97 -48 245 -90q59 -15 58 -66q0 -44 -38 -75q-46 -37 -91 -4q-5 4 -11 10q-9 10 -34.5 36.5t-37.5 38.5t-33.5 32.5t-42 36t-42.5 30.5q10 -118 51 -254q19 -58 -29 -82q-39 -21 -81 -2q-49 23 -38 81q1 1 1 3q4 20 13.5 61t15 65.5t11 60t7.5 67.5 q-99 -61 -191 -174q-35 -40 -83 -12q-39 23 -48 65q-12 53 44 75q4 2 9 3q10 3 41 12.5t43 13.5t38.5 13t42 16t37.5 17.5t42 21.5q-108 48 -244 76q-51 9 -54 58z" />
<glyph unicode="+" d="M139 430v127h350v350h127v-350h351v-127h-351v-350h-127v350h-350z" />
<glyph unicode="," horiz-adv-x="546" d="M127 152q0 40 34 73t93 33q85 0 140 -78t55 -205q0 -78 -26 -150t-68.5 -124t-84.5 -88.5t-86 -61.5l-57 87q73 51 122.5 119.5t49.5 146.5q0 32 -12.5 57.5t-32 40.5t-41.5 31t-41.5 30t-32 37t-12.5 52z" />
<glyph unicode="-" horiz-adv-x="643" d="M66 420v149h512v-149h-512z" />
<glyph unicode="." horiz-adv-x="518" d="M127 117q0 56 38 94.5t93 38.5q56 0 94.5 -39t38.5 -94t-38.5 -93t-94.5 -38t-93.5 38t-37.5 93z" />
<glyph unicode="/" horiz-adv-x="942" d="M86 -250l614 1753h156l-614 -1753h-156z" />
<glyph unicode="0" horiz-adv-x="1075" d="M82 610q0 174 36.5 309.5t101.5 219t148.5 126t182.5 42.5q95 0 174.5 -43.5t140 -128t94 -219t33.5 -306.5q0 -311 -122.5 -473t-319.5 -162q-99 0 -182.5 38.5t-148.5 114t-101.5 199t-36.5 283.5zM297 612q0 -148 20.5 -257.5t57 -171.5t80.5 -91t96 -29 q101 0 165 133t64 416q0 158 -18 278t-50.5 190t-72.5 104.5t-88 34.5q-108 0 -181 -156t-73 -451z" />
<glyph unicode="1" horiz-adv-x="833" d="M92 1110v86q191 3 348 102l103 -10v-1175l211 -31v-82h-615v82l211 31v1007q-150 -37 -258 -10z" />
<glyph unicode="2" horiz-adv-x="1032" d="M74 66q68 55 144.5 127.5t161 170t151.5 193.5t111 200.5t44 188.5q0 80 -51 137.5t-137 57.5q-82 0 -151.5 -49.5t-176.5 -165.5l-61 65q42 58 82 104t100 99t132 83t148 30q151 0 234.5 -84.5t83.5 -212.5q0 -82 -55.5 -198.5t-139.5 -229t-168.5 -208.5t-156.5 -161 l12 -29h432l92 129l68 -26l-115 -287h-760z" />
<glyph unicode="3" horiz-adv-x="927" d="M55 168q0 39 28.5 69.5t78.5 30.5q39 0 69.5 -20t52 -48t43.5 -56t55 -48t75 -20q45 0 87 23t73.5 77.5t31.5 130.5q0 52 -16 100.5t-41 82t-56 62t-61 41.5t-55.5 20t-40.5 -3l-74 -41l-47 72q158 80 254 175t96 190q0 71 -41.5 108t-113.5 37q-85 0 -162.5 -49 t-136.5 -129l-58 61q198 273 451 273q102 0 173 -63.5t71 -166.5q0 -95 -70.5 -179.5t-163.5 -143.5v-21q113 -29 197 -135.5t84 -237.5q0 -91 -40 -166.5t-103.5 -122t-137.5 -71.5t-147 -25q-165 0 -260 54t-95 139z" />
<glyph unicode="4" horiz-adv-x="1032" d="M76 453l643 870l90 -35v-772h166v-137h-166v-379h-191v377h-509zM254 537l10 -21h354v483l-22 13z" />
<glyph unicode="5" horiz-adv-x="933" d="M61 106q0 44 27 73.5t78 29.5q43 0 81.5 -16.5t64.5 -37t69.5 -37t95.5 -16.5q77 0 133 65.5t56 190.5q0 143 -87.5 230.5t-218.5 87.5q-94 0 -161 -23l-37 37l57 592h492l53 80h80l-47 -264h-494l-22 -250l16 -17q46 17 133 17q74 0 145.5 -27.5t129.5 -77.5t93.5 -129 t35.5 -174q0 -212 -149 -338.5t-388 -126.5q-99 0 -167.5 37t-68.5 94z" />
<glyph unicode="6" horiz-adv-x="993" d="M86 508q0 184 80 355.5t235 307t361 203.5l20 -71q-398 -200 -460 -549l32 -17q41 34 103.5 56t132.5 22q58 0 115 -22.5t108 -67t83 -123t32 -178.5q0 -64 -14 -125t-47 -120.5t-82 -104t-124 -72t-167 -27.5q-180 0 -294 140t-114 393zM295 399q0 -144 59.5 -233.5 t147.5 -89.5q103 0 160 96.5t57 259.5q0 137 -56.5 207t-140.5 70q-68 0 -123 -35.5t-90 -104.5q-14 -63 -14 -170z" />
<glyph unicode="7" horiz-adv-x="923" d="M49 938l94 344h701l39 -53q-141 -300 -266 -622.5t-179 -555.5q-19 -76 -133 -76q-50 0 -79 20.5t-15 57.5q90 252 229 525t277 491l-15 29h-495l-66 -160h-92z" />
<glyph unicode="8" horiz-adv-x="1032" d="M117 289q0 64 19.5 116.5t57 92.5t75.5 68t91 57v18q-97 50 -152.5 135t-55.5 180q0 144 104.5 247.5t278.5 103.5q154 0 255 -82.5t101 -210.5q0 -90 -53 -162t-166 -143v-17q43 -25 74 -46t65 -53t55 -66t35 -80.5t14 -100.5q0 -170 -111 -270.5t-296 -100.5 q-172 0 -281.5 85.5t-109.5 228.5zM272 285q0 -98 59 -160t177 -62q110 0 177 64.5t67 169.5q0 49 -20.5 90.5t-63.5 77t-87 61t-112 58.5q-88 -43 -142.5 -121.5t-54.5 -177.5zM313 1022q0 -96 66.5 -161t193.5 -116q81 52 116.5 114t35.5 149q0 97 -56 154t-149 57 q-96 0 -151.5 -58.5t-55.5 -138.5z" />
<glyph unicode="9" horiz-adv-x="993" d="M66 858q0 85 25 159t67 126t97 90t114.5 56t119.5 18q186 0 302 -144.5t116 -388.5q0 -160 -52 -307.5t-145.5 -262t-231 -191t-300.5 -95.5v82q199 46 339.5 179t164.5 335l-33 16q-100 -84 -215 -84q-72 0 -137 27t-117 77t-83 130t-31 178zM276 870q0 -319 205 -319 q66 0 113 36.5t90 110.5q23 98 23 205q0 141 -57.5 225t-168.5 84q-98 0 -151.5 -87t-53.5 -255z" />
<glyph unicode=":" horiz-adv-x="518" d="M127 117q0 56 38 94.5t93 38.5q56 0 94.5 -39t38.5 -94t-38.5 -93t-94.5 -38t-93.5 38t-37.5 93zM127 754q0 56 38 94.5t93 38.5q56 0 94.5 -38.5t38.5 -94.5q0 -55 -38.5 -93t-94.5 -38t-93.5 37.5t-37.5 93.5z" />
<glyph unicode=";" horiz-adv-x="628" d="M168 152q0 40 34 73t93 33q84 0 139 -78t55 -205q0 -78 -26 -150t-68 -124t-84 -88.5t-86 -61.5l-57 87q73 51 122.5 119.5t49.5 146.5q0 32 -12.5 57.5t-32 40.5t-41.5 31t-41.5 30t-32 37t-12.5 52zM178 754q0 56 38 94.5t93 38.5t94 -38.5t39 -94.5q0 -55 -38.5 -93 t-94.5 -38q-55 0 -93 37.5t-38 93.5z" />
<glyph unicode="&#x3c;" d="M139 430v127l828 348v-137l-672 -274l672 -275v-137z" />
<glyph unicode="=" d="M139 281v127h828v-127h-828zM139 588v127h828v-127h-828z" />
<glyph unicode="&#x3e;" d="M139 82v137l672 275l-672 274v137l828 -348v-127z" />
<glyph unicode="?" horiz-adv-x="825" d="M164 117q0 56 38 94.5t93 38.5t94 -39t39 -94t-38.5 -93t-94.5 -38q-55 0 -93 38t-38 93zM180 1415q0 46 34 76.5t95 30.5q68 0 139.5 -35t132 -96t99.5 -155.5t39 -201.5q0 -102 -34 -180.5t-90 -121.5t-122 -62t-135 -13v-239h-88v432q184 -22 279.5 51.5t95.5 204.5 q0 96 -62.5 150.5t-181.5 54.5q-201 0 -201 104z" />
<glyph unicode="@" horiz-adv-x="1671" d="M127 281q0 125 32.5 256t90 251t141.5 226.5t182 184.5t216 123.5t239 45.5q251 0 400 -156.5t149 -412.5q0 -139 -44.5 -261t-112.5 -204t-150.5 -141.5t-158 -87t-134.5 -27.5q-70 0 -77 69t46 191l-26 18q-39 -56 -70.5 -96t-78 -87.5t-96.5 -73t-100 -25.5 q-60 0 -92 50t-32 116q0 169 120 374q94 159 218.5 264t236.5 105q61 0 86 -57h10q11 32 26.5 43.5t57.5 11.5q41 0 55.5 -8t8.5 -25l-221 -678q-8 -34 -2.5 -48.5t28.5 -14.5q28 0 71 24t93 75t93 119t71.5 167t28.5 207q0 55 -10.5 114t-39 126t-72.5 118.5t-118.5 86 t-169.5 34.5q-118 0 -232.5 -57t-205 -156t-160.5 -225t-107.5 -272t-37.5 -289q0 -242 89 -363t250 -121q96 0 186.5 38t156.5 91l43 -86q-89 -71 -199.5 -111t-204.5 -40q-233 0 -353 155.5t-120 438.5zM614 307q0 -54 13.5 -72t36.5 -18q69 0 191 161.5t210 373.5 q18 143 -59 143q-68 0 -145 -70.5t-138 -179.5q-109 -195 -109 -338z" />
<glyph unicode="A" horiz-adv-x="1429" d="M25 0v82l153 31l459 1333h133l479 -1333l156 -31v-82h-541v82l164 31l-141 387h-459l-131 -387l186 -31v-82h-458zM467 612h379l-176 506h-33z" />
<glyph unicode="B" horiz-adv-x="1255" d="M49 0v82l180 31v1220l-180 31v82h604q56 0 116 -9.5t127 -35.5t118 -65t85 -103.5t34 -145.5q0 -43 -13 -86t-40.5 -86t-78 -77.5t-116.5 -51.5v-28q137 -28 221 -127.5t84 -245.5q0 -174 -148.5 -279.5t-394.5 -105.5h-598zM446 113h220q141 0 218 81.5t77 208.5 q0 129 -87.5 215.5t-248.5 86.5h-179v-592zM446 817h183q137 0 203.5 73.5t66.5 178.5q0 138 -78.5 201t-204.5 63h-170v-516z" />
<glyph unicode="C" horiz-adv-x="1417" d="M61 721q0 169 60 311t163 237t240 148t291 53q114 0 246 -41t244 -104v-289h-68q-40 117 -110.5 193.5t-147.5 107.5t-164 31q-83 0 -158 -24t-140.5 -75.5t-113 -126t-75 -182t-27.5 -237.5q0 -155 43 -279.5t113.5 -200t155.5 -115.5t175 -40q170 0 291.5 84.5 t175.5 241.5h66v-281q-133 -78 -256.5 -118t-298.5 -40q-147 0 -274.5 49.5t-223.5 142t-151.5 235.5t-55.5 319z" />
<glyph unicode="D" horiz-adv-x="1533" d="M49 0v82l180 31v1220l-180 31v82h617q375 0 591 -194.5t216 -534.5q0 -228 -109 -392t-294 -244.5t-425 -80.5h-596zM446 113h199q96 0 181.5 20.5t160.5 67t129 115.5t85.5 172t31.5 231q0 151 -42.5 268.5t-118.5 192.5t-179.5 114t-228.5 39h-218v-1220z" />
<glyph unicode="E" horiz-adv-x="1263" d="M49 0v82l180 31v1220l-180 31v82h1028l33 -322h-90l-146 224h-428v-531h281l66 193h81v-512h-81l-66 207h-281v-607h492l186 285h90l-73 -383h-1092z" />
<glyph unicode="F" horiz-adv-x="1241" d="M49 0v82l180 31v1220l-180 31v82h1110l33 -322h-90l-150 224h-506v-531h342l66 213h82v-553h-82l-66 228h-342v-592l189 -31v-82h-586z" />
<glyph unicode="G" horiz-adv-x="1513" d="M61 721q0 169 60 311t163 237t240 148t291 53q114 0 246 -41t244 -104v-289h-68q-40 117 -110.5 193.5t-147.5 107.5t-164 31q-106 0 -196 -36.5t-162.5 -111t-114 -202t-41.5 -295.5q0 -166 40.5 -291t112 -198.5t160.5 -109.5t195 -36q76 0 152 23t129 67v430l-240 31 v82h614v-82l-157 -31v-516q-265 -117 -562 -117q-113 0 -215.5 31t-188 93.5t-148 150.5t-97.5 209t-35 262z" />
<glyph unicode="H" horiz-adv-x="1607" d="M49 0v82l180 31v1220l-180 31v82h578v-82l-181 -31v-516h715v516l-180 31v82h578v-82l-181 -31v-1220l181 -31v-82h-578v82l180 31v592h-715v-592l181 -31v-82h-578z" />
<glyph unicode="I" horiz-adv-x="675" d="M49 0v82l180 31v1220l-180 31v82h578v-82l-181 -31v-1220l181 -31v-82h-578z" />
<glyph unicode="J" horiz-adv-x="727" d="M-201 -362q0 54 33.5 84t87.5 30q42 0 100 -25.5t107 -25.5q139 0 139 199v1433l-217 31v82h629v-82l-195 -31v-1237q0 -123 -46.5 -236.5t-118.5 -191t-159.5 -124t-170.5 -46.5t-136 35t-53 105z" />
<glyph unicode="K" horiz-adv-x="1484" d="M49 0v82l180 31v1220l-180 31v82h576v-82l-179 -31v-555h33l555 555l-143 31v82h467v-82l-166 -31l-557 -557l659 -663l166 -31v-82h-596v82l146 31l-537 555h-27v-555l179 -31v-82h-576z" />
<glyph unicode="L" horiz-adv-x="1230" d="M49 0v82l180 31v1220l-180 31v82h586v-82l-189 -31v-1235h463l207 305h90l-73 -403h-1084z" />
<glyph unicode="M" horiz-adv-x="1900" d="M35 0v82l174 31l98 1204l-203 45v84h406l428 -1084h35l446 1084h408v-84l-203 -49l59 -1200l183 -31v-82h-582v82l182 31l-49 993h-31l-452 -1106h-88l-426 1108h-25l-78 -995l177 -31v-82h-459z" />
<glyph unicode="N" horiz-adv-x="1603" d="M49 0v82l162 31v1220l-162 31v82h326l860 -1059h29v946l-181 31v82h471v-82l-178 -31v-1337h-92l-932 1145h-28v-1028l180 -31v-82h-455z" />
<glyph unicode="O" horiz-adv-x="1505" d="M61 721q0 169 55 311t149.5 237t220.5 148t268 53q149 0 276 -52t218.5 -147t143.5 -236.5t52 -313.5q0 -181 -54.5 -325t-149.5 -235t-219 -138.5t-267 -47.5t-268.5 49.5t-220 142t-149.5 235.5t-55 319zM301 723q0 -133 24 -241.5t65.5 -182t99.5 -123t124 -72 t140 -22.5q77 0 140.5 17.5t122 62.5t99 115.5t64.5 184t24 261.5q0 138 -22.5 247.5t-62 183.5t-96.5 122.5t-123.5 70t-145.5 21.5q-94 0 -173.5 -36.5t-143.5 -111t-100 -201.5t-36 -296z" />
<glyph unicode="P" horiz-adv-x="1153" d="M49 0v82l180 31v1220l-180 31v82h524q75 0 147 -14t140 -45.5t119 -78t82 -117t31 -157.5q0 -186 -141.5 -295.5t-387.5 -109.5h-114v-516l198 -31v-82h-598zM449 735h133q120 0 202 78t82 209q0 307 -303 307h-114v-594z" />
<glyph unicode="Q" horiz-adv-x="1505" d="M61 721q0 169 55 311t149.5 237t220.5 148t268 53q149 0 276 -52t218.5 -147t143.5 -236.5t52 -313.5q0 -282 -126 -464.5t-335 -248.5q37 -31 92 -83.5t93.5 -87t87 -71t98 -55t100.5 -18.5q66 0 132 16.5t106 38.5l24 -51q-169 -121 -348 -121q-83 0 -162 27t-150 76.5 t-124.5 95.5t-120.5 109.5t-102 92.5q-135 7 -252.5 59.5t-206 145t-139 231.5t-50.5 308zM301 723q0 -133 24 -241.5t65.5 -182t99.5 -123t124 -72t140 -22.5q77 0 140.5 17.5t122 62.5t99 115.5t64.5 184t24 261.5q0 138 -22.5 247.5t-62 183.5t-96.5 122.5t-123.5 70 t-145.5 21.5q-94 0 -173.5 -36.5t-143.5 -111t-100 -201.5t-36 -296z" />
<glyph unicode="R" horiz-adv-x="1320" d="M49 0v82l180 31v1220l-180 31v82h645q49 0 100.5 -9.5t110 -35.5t103 -66.5t74.5 -110t30 -157.5q0 -54 -21 -108.5t-63.5 -107.5t-118 -94.5t-174.5 -60.5v-22q54 -26 110.5 -101t99 -155.5t103 -169.5t117.5 -135l129 -31v-82h-309q-51 38 -104 113.5t-97.5 157.5 t-91.5 162.5t-103 144.5t-114 88h-29v-553l201 -31v-82h-598zM446 778h142q75 0 133.5 26t91.5 69t49.5 90.5t16.5 97.5q0 145 -61 208.5t-161 63.5h-211v-555z" />
<glyph unicode="S" horiz-adv-x="1118" d="M78 14v435h90q42 -182 147.5 -276.5t255.5 -94.5q117 0 193 64t76 165q0 54 -12.5 95.5t-46.5 86t-100 86.5t-167 82q-209 84 -302 183.5t-93 253.5q0 66 31 132t86 121t141 89t186 34q137 0 291 -63l86 39h51l41 -420h-76q-54 165 -157.5 252.5t-225.5 87.5 q-111 0 -182.5 -55.5t-71.5 -155.5q0 -99 87 -179t268 -151q88 -35 151.5 -73t113.5 -90t75.5 -120t25.5 -153q0 -196 -131.5 -305t-337.5 -109q-75 0 -159 22.5t-142 57.5l-100 -41h-92z" />
<glyph unicode="T" horiz-adv-x="1458" d="M25 1042l94 404h1220l95 -404h-91l-206 306h-299v-1235l188 -31v-82h-594v82l189 31v1235h-299l-207 -306h-90z" />
<glyph unicode="U" horiz-adv-x="1581" d="M49 1364v82h578v-82l-181 -31v-831q0 -164 106 -272.5t294 -108.5q83 0 156 29t128.5 83.5t88 140.5t32.5 193v766l-178 31v82h459v-82l-166 -31v-801q0 -72 -19.5 -147t-64 -149t-108 -131.5t-159.5 -93.5t-210 -36q-136 0 -248.5 44.5t-182.5 116.5t-107.5 159 t-37.5 176v862z" />
<glyph unicode="V" horiz-adv-x="1409" d="M35 1364v82h540v-82l-165 -31l319 -987h33l340 987l-187 31v82h459v-82l-153 -31l-459 -1333h-133l-439 1333z" />
<glyph unicode="W" horiz-adv-x="1957" d="M35 1364v82h540v-82l-165 -31l258 -950h32l224 729l-62 221l-135 31v82h520v-82l-166 -31l258 -950h31l281 950l-187 31v82h459v-82l-154 -31l-397 -1333h-133l-262 930l-277 -930h-133l-377 1333z" />
<glyph unicode="X" horiz-adv-x="1384" d="M35 0v82l178 31l381 569l-385 651l-174 31v82h612v-82l-196 -31l272 -461l309 461l-221 31v82h539v-82l-185 -31l-379 -567l390 -653l174 -31v-82h-613v82l197 31l-275 460l-307 -460l221 -31v-82h-538z" />
<glyph unicode="Y" horiz-adv-x="1368" d="M35 1364v82h540v-82l-165 -31l303 -522h32l312 522l-183 31v82h459v-82l-153 -31l-387 -661v-559l180 -31v-82h-578v82l180 31v553l-391 667z" />
<glyph unicode="Z" horiz-adv-x="1257" d="M35 51l860 1266l-14 31h-547l-207 -306h-90l96 404h1051l22 -39l-876 -1282l12 -27h592l209 305h90l-94 -403h-1080z" />
<glyph unicode="[" horiz-adv-x="686" d="M158 -457v1966q104 -11 251.5 -11t215.5 13v-98q-61 -12 -157 -15t-151 5v-1745q49 5 151.5 1t168.5 -13v-105q-81 12 -228 13t-251 -11z" />
<glyph unicode="\" horiz-adv-x="942" d="M86 1503h156l614 -1753h-156z" />
<glyph unicode="]" horiz-adv-x="686" d="M49 -354q66 9 168.5 13t151.5 -1v1745q-55 -8 -151 -5t-157 15v98q68 -13 215 -13t252 11v-1966q-104 12 -251 11t-228 -13v105z" />
<glyph unicode="^" d="M72 643l454 772h56l452 -772l-119 -68l-352 615h-16l-359 -615z" />
<glyph unicode="_" horiz-adv-x="1236" d="M-6 -389h1249v-86h-1249v86z" />
<glyph unicode="`" horiz-adv-x="1024" d="M266 1331v21h193l176 -336v-17h-105z" />
<glyph unicode="a" horiz-adv-x="882" d="M72 688q0 74 67 123q79 55 173.5 104.5t148.5 49.5q112 0 173.5 -67.5t61.5 -178.5v-512q0 -88 43 -88q21 0 40.5 21t29.5 48l57 -22q-23 -67 -64 -110.5t-77.5 -58.5t-71.5 -15q-57 0 -95 34t-42 95h-20q-68 -71 -122 -103.5t-114 -32.5q-49 0 -93.5 41.5t-68.5 97.5 t-24 103q0 69 44.5 130t127.5 97l278 119v82q0 195 -147 195q-34 0 -73.5 -19.5t-57.5 -46.5q0 -3 6 -43.5t6 -62.5q0 -37 -29 -58.5t-67 -21.5q-37 0 -63.5 28.5t-26.5 71.5zM256 254q0 -51 29 -86t86 -35q53 0 104 41.5t51 97.5v203l-155 -72q-44 -20 -79.5 -57.5 t-35.5 -91.5z" />
<glyph unicode="b" horiz-adv-x="983" d="M4 1364v53l266 86h49v-641l17 -12q144 115 258 115q59 0 115.5 -26t105.5 -78t79 -142.5t30 -206.5q0 -137 -39.5 -243t-106.5 -168.5t-147 -94t-168 -31.5q-127 0 -219 58t-111 149v1123zM319 203q0 -69 44 -105.5t110 -36.5q264 0 264 410q0 165 -66 257.5t-165 92.5 q-54 0 -104 -22.5t-83 -53.5v-542z" />
<glyph unicode="c" horiz-adv-x="903" d="M59 463q0 139 57.5 253.5t163 181.5t236.5 67q143 0 229 -60t86 -145q0 -43 -23 -64.5t-75 -21.5q-43 0 -69.5 22t-38.5 53t-24 62.5t-38.5 53.5t-70.5 22q-90 0 -162 -109t-72 -278q0 -180 79 -265t208 -85q77 0 144.5 41.5t105.5 101.5l63 -31q-52 -130 -150 -208.5 t-227 -78.5q-124 0 -221.5 67t-149 178t-51.5 243z" />
<glyph unicode="d" horiz-adv-x="1062" d="M59 444q0 117 38.5 217t102.5 165.5t144.5 102t165.5 36.5q96 0 207 -33v373l-135 59v53l272 86h49v-1353l115 -58v-55l-207 -62h-49l-51 97h-19q-125 -97 -276 -97q-45 0 -92.5 16.5t-95 54t-85 90.5t-61 133t-23.5 175zM252 494q0 -90 25 -163.5t64.5 -118.5t86 -69 t92.5 -24q57 0 109.5 22.5t87.5 53.5v575q-30 44 -83.5 73t-111.5 29q-34 0 -69 -11.5t-71.5 -40t-65 -70t-46.5 -108t-18 -148.5z" />
<glyph unicode="e" horiz-adv-x="917" d="M59 461q0 213 116.5 358.5t295.5 145.5q84 0 157.5 -32.5t119.5 -82.5t72 -107t26 -110q0 -66 -23 -66h-575q-2 -20 -2 -61q0 -173 88 -269t213 -96q151 0 256 152l63 -43q-146 -275 -389 -275q-93 0 -173 41.5t-132.5 109.5t-82.5 155.5t-30 179.5zM260 655h356 q11 32 11 68q0 71 -46 114.5t-112 43.5q-76 0 -131 -57.5t-78 -168.5z" />
<glyph unicode="f" horiz-adv-x="622" d="M33 831v60l131 84v86q0 89 34 172.5t91 144.5t136.5 98t166.5 37q112 0 172.5 -42.5t60.5 -108.5q0 -46 -30.5 -74t-79.5 -28q-39 0 -67.5 23.5t-43 51t-40 51t-60.5 23.5q-48 0 -84.5 -53.5t-53 -128t-16.5 -154.5v-135h238v-107h-238v-722l156 -37v-72h-461v72l119 30 v729h-131z" />
<glyph unicode="g" horiz-adv-x="942" d="M68 625q0 140 95 235.5t257 95.5q127 0 219 -61l279 16v-145l-185 12q35 -72 35 -141q0 -158 -95.5 -248t-266.5 -90q-57 0 -84 10q-20 -6 -35 -35.5t-15 -52.5q0 -76 95 -76h288q240 0 240 -225q0 -86 -46 -165.5t-123 -138t-184.5 -93.5t-224.5 -35q-109 0 -176 60 t-67 157q0 65 32 133t82 113v26q-47 42 -66 82q-10 19 -10 40q0 23 11 48l80 179v34q-135 91 -135 265zM227 -197q0 -178 238 -178q75 0 144 26t116 79.5t47 122.5q0 120 -192 120h-248q-105 -32 -105 -170zM260 629q0 -126 43 -194t113 -68q78 0 124 70t46 198 q0 98 -45.5 171t-124.5 73q-70 0 -113 -67.5t-43 -182.5z" />
<glyph unicode="h" horiz-adv-x="1067" d="M35 1364v53l266 86h49v-641l17 -12q144 115 258 115q121 0 199.5 -79.5t78.5 -234.5v-549l119 -30v-72h-424v72l119 30v478q0 130 -45.5 188.5t-134.5 58.5q-54 0 -104 -22t-83 -53v-650l119 -30v-72h-424v72l119 30v1203z" />
<glyph unicode="i" horiz-adv-x="522" d="M39 825v54l266 86h49v-863l119 -30v-72h-424v72l119 30v666zM133 1364q0 52 38 90.5t89 38.5q52 0 90.5 -38.5t38.5 -90.5q0 -51 -38.5 -89t-90.5 -38q-51 0 -89 38t-38 89z" />
<glyph unicode="j" horiz-adv-x="501" d="M-18 -444q99 83 142.5 189.5t43.5 248.5v774l-129 57v54l268 86h47v-938q0 -186 -85 -328t-244 -213zM133 1364q0 52 38 90.5t89 38.5q52 0 90.5 -38.5t38.5 -90.5q0 -51 -38.5 -89t-90.5 -38q-51 0 -89 38t-38 89z" />
<glyph unicode="k" horiz-adv-x="958" d="M35 1364v53l266 86h49v-968h25l287 288v19l-103 24v72h344v-72l-102 -30l-287 -291l356 -449l72 -24v-72h-405v72l106 28l-268 355h-25v-353l99 -30v-72h-404v72l119 30v1203z" />
<glyph unicode="l" horiz-adv-x="522" d="M39 1364v53l266 86h49v-1401l119 -30v-72h-424v72l119 30v1203z" />
<glyph unicode="m" horiz-adv-x="1615" d="M35 825v54l260 86h49l12 -103l17 -12q74 58 133 86.5t119 28.5q79 0 143 -36.5t98 -107.5q90 70 161.5 107t146.5 37q121 0 199.5 -79.5t78.5 -234.5v-549l119 -30v-72h-424v72l119 30v488q0 128 -45 182.5t-134 54.5q-78 0 -192 -75q6 -40 6 -84v-566l119 -30v-72h-424 v72l119 30v488q0 129 -44 183t-134 54q-54 0 -104 -22t-83 -53v-650l119 -30v-72h-424v72l119 30v666z" />
<glyph unicode="n" horiz-adv-x="1067" d="M35 825v54l260 86h49l12 -103l17 -12q74 58 133 86.5t119 28.5q121 0 199.5 -79.5t78.5 -234.5v-549l119 -30v-72h-424v72l119 30v488q0 129 -45 183t-135 54q-54 0 -104 -22t-83 -53v-650l119 -30v-72h-424v72l119 30v666z" />
<glyph unicode="o" horiz-adv-x="1009" d="M59 469q0 223 128.5 359.5t318.5 136.5t317 -135t127 -361q0 -120 -34.5 -215t-95.5 -155.5t-141 -92t-173 -31.5t-174 33t-142 94.5t-96 156t-35 210.5zM272 471q0 -207 66 -305t168 -98q50 0 89 17.5t73 60t52.5 125t18.5 200.5q0 212 -65 306.5t-168 94.5t-168.5 -96 t-65.5 -305z" />
<glyph unicode="p" horiz-adv-x="1062" d="M35 825v54l260 86h49l12 -103l23 -12q138 115 256 115q45 0 93.5 -17t98 -55t89 -91.5t64 -134t24.5 -175.5q0 -117 -39.5 -216.5t-104.5 -164t-146.5 -100.5t-166.5 -36q-114 0 -197 31v-395l168 -31v-72h-473v72l119 31v1157zM350 158q28 -43 79.5 -70t105.5 -27 q33 0 68.5 11.5t73.5 40.5t67 70.5t48 109t19 149.5q0 89 -26 163t-67 118t-88 68t-93 24q-51 0 -102 -24t-85 -56v-577z" />
<glyph unicode="q" horiz-adv-x="1013" d="M59 444q0 118 38 217.5t101 165t143 102t165 36.5q89 0 201 -33q17 -6 34 -6q43 0 82 39l72 -23v-1331l115 -31v-72h-459v72l158 31v438h-21q-126 -74 -244 -74q-53 0 -105.5 16.5t-103.5 54t-89.5 90.5t-62.5 133t-24 175zM256 494q0 -189 83.5 -288.5t209.5 -99.5 q40 0 87.5 19t72.5 57v555q-19 68 -74.5 105t-120.5 37q-43 0 -85.5 -21t-82.5 -63.5t-65 -121t-25 -179.5z" />
<glyph unicode="r" horiz-adv-x="737" d="M35 825v54l262 86h47l14 -146l19 -8q67 80 117.5 117t105.5 37q53 0 88 -34.5t35 -94.5q0 -55 -28 -89t-77 -34q-44 0 -70 26.5t-26 75.5l-22 19q-36 -26 -83.5 -87t-66.5 -106v-539l158 -30v-72h-463v72l119 30v666z" />
<glyph unicode="s" horiz-adv-x="792" d="M86 0v307h78q26 -119 84.5 -185.5t150.5 -66.5q66 0 109 43.5t43 102.5q0 62 -43 103.5t-174 96.5q-129 55 -188.5 126.5t-59.5 177.5q0 46 17.5 91t51.5 83.5t91.5 62t128.5 23.5q91 0 196 -41l52 24h55v-293h-70q-32 116 -96 171t-131 55q-66 0 -111 -38t-45 -100 q0 -56 48.5 -93.5t166.5 -88.5q68 -31 113.5 -58t85.5 -63.5t59 -82.5t19 -103q0 -131 -93 -205t-229 -74q-88 0 -211 52l-30 -27h-68z" />
<glyph unicode="t" horiz-adv-x="655" d="M35 831v76l143 111l94 151h74v-231h268v-107h-268v-604q0 -67 26.5 -101t73.5 -34q81 0 160 43l35 -61q-39 -37 -108 -68t-152 -31q-116 0 -168.5 63t-52.5 189v604h-125z" />
<glyph unicode="u" horiz-adv-x="1062" d="M35 838v77l315 37v-633q0 -115 42.5 -160.5t133.5 -45.5q56 0 109 22t82 53v627l-129 23v77l315 37v-825l115 -47v-53l-234 -52h-26l-29 80l-16 13q-142 -93 -275 -93q-120 0 -197 79.5t-77 234.5v526z" />
<glyph unicode="v" horiz-adv-x="976" d="M14 866v72h432v-72l-139 -30l217 -566h21l223 566l-143 30v72h338v-72l-105 -30l-334 -861h-73l-347 861z" />
<glyph unicode="w" horiz-adv-x="1411" d="M14 866v72h412v-72l-119 -30l189 -529h20l150 406l-39 123l-103 30v72h402v-72l-119 -30l172 -529h20l185 529l-127 30v72h340v-72l-117 -30l-301 -861h-74l-184 572h-21l-198 -572h-74l-324 861z" />
<glyph unicode="x" horiz-adv-x="944" d="M27 0v72l114 30l250 334l-252 400l-112 30v72h442v-72l-127 -30l158 -252l188 252l-119 30v72h349v-72l-119 -30l-248 -334l254 -400l113 -30v-72h-443v72l127 30l-160 252l-186 -252l119 -30v-72h-348z" />
<glyph unicode="y" horiz-adv-x="952" d="M-6 -406q0 39 30 68t74 29q27 0 68.5 -23.5t75.5 -23.5q114 0 190 329l-321 863l-97 30v72h404v-72l-117 -30l207 -564h20l195 564l-156 30v72h371v-72l-123 -30l-344 -1022q-58 -174 -135.5 -250t-196.5 -76q-69 0 -107 30.5t-38 75.5z" />
<glyph unicode="z" horiz-adv-x="886" d="M43 72l526 751l-14 31l-152 -6q-108 -3 -172 -54t-102 -157l-84 18l96 283h662l22 -59l-538 -764l12 -27l213 8q101 4 158.5 61.5t103.5 172.5l70 -15l-66 -315h-710z" />
<glyph unicode="{" horiz-adv-x="890" d="M74 492v135q137 0 230 71.5t93 167.5q0 71 -42 191t-42 188q0 146 106 206t365 60v-86q-307 0 -307 -161q0 -64 23 -137.5t46 -139t23 -110.5q0 -110 -89 -190.5t-220 -106.5v-33q128 -18 218.5 -105t90.5 -215q0 -56 -46 -194.5t-46 -220.5q0 -193 320 -193v-86 q-145 0 -241 18.5t-150 58.5t-75.5 92.5t-21.5 129.5t44 212.5t44 199.5q0 120 -89 184t-234 64z" />
<glyph unicode="|" d="M477 -471v2007h152v-2007h-152z" />
<glyph unicode="}" horiz-adv-x="890" d="M94 -381q320 0 320 193q0 82 -46 220.5t-46 194.5q0 128 90.5 215t218.5 105v33q-131 26 -220 106.5t-89 190.5q0 45 23 110.5t46 139t23 137.5q0 161 -308 161v86q260 0 366 -60t106 -206q0 -68 -42 -188t-42 -191q0 -96 93 -167.5t230 -71.5v-135q-145 0 -234 -64 t-89 -184q0 -64 44 -199.5t44 -212.5t-21.5 -129.5t-75.5 -92.5t-150 -58.5t-241 -18.5v86z" />
<glyph unicode="~" d="M72 438q36 108 125.5 217t144.5 109q51 0 135.5 -41t168.5 -82t134 -41t104 51.5t77 112.5l73 -29q-42 -126 -129.5 -223.5t-165.5 -97.5q-47 0 -215 80.5t-215 80.5q-24 0 -45.5 -12.5t-42 -41t-33 -50.5t-34.5 -65z" />
<glyph unicode="&#xa1;" horiz-adv-x="681" d="M209 846q0 55 38.5 93t94.5 38t93.5 -37.5t37.5 -93.5t-38 -94.5t-93 -38.5q-56 0 -94.5 38.5t-38.5 94.5zM219 -541l82 1073h82l82 -1073h-246z" />
<glyph unicode="&#xa2;" horiz-adv-x="886" d="M88 639q0 165 91.5 288t238.5 152v203h78v-195q129 0 206.5 -53.5t77.5 -128.5q0 -78 -90 -78q-37 0 -59.5 18t-33 44t-20.5 53t-29.5 48.5t-51.5 25.5v-662h26q70 0 130.5 37t95.5 90l55 -26q-41 -107 -121.5 -176t-185.5 -78v-201h-78v201q-149 20 -239.5 145 t-90.5 293zM264 672q0 -121 41.5 -195.5t112.5 -103.5v631q-65 -33 -109.5 -121.5t-44.5 -210.5z" />
<glyph unicode="&#xa3;" horiz-adv-x="1122" d="M123 25q0 58 65 105t160 77q35 103 35 231q0 87 -43 207h-180v88h147q-55 142 -55 234q0 85 31.5 152t84 107t115.5 60.5t131 20.5q83 0 151.5 -23.5t108.5 -59t62 -73t22 -70.5q0 -45 -24 -71.5t-57 -26.5q-36 0 -61.5 26t-42 63t-34.5 74t-50 63t-77 26 q-65 0 -110 -57.5t-45 -171.5q0 -35 7.5 -75t14 -61.5t24.5 -72t23 -64.5h277v-88h-256q10 -52 10 -96q0 -193 -111 -299l15 -23q45 31 96 31q47 0 90.5 -29t72.5 -63t69 -63t79 -29q32 0 52 17t20 50q0 22 -19.5 42.5t-39 44t-19.5 53.5q0 28 20 49.5t52 21.5 q49 0 77.5 -38.5t28.5 -110.5q0 -110 -72.5 -169t-170.5 -59q-128 0 -243.5 57t-168.5 122h-8q-43 -78 -94.5 -128.5t-104.5 -50.5q-25 0 -40 13.5t-15 36.5z" />
<glyph unicode="&#xa4;" horiz-adv-x="1277" d="M164 941.5q2 20.5 15.5 38.5t32 33t37.5 16.5t32 -9.5l94 -96q120 86 264 86q145 0 258 -80l88 92q21 22 59.5 -0.5t60 -62.5t1.5 -60l-92 -88q78 -115 78 -254q0 -143 -86 -266l98 -94q13 -13 11.5 -34t-15 -39.5t-31.5 -33.5t-37 -16.5t-33 10.5l-102 102 q-114 -82 -258 -82q-141 0 -254 74l-86 -90q-13 -15 -35.5 -13t-42.5 16.5t-36 34t-18.5 40t11.5 35.5l90 88q-82 114 -82 268q0 141 82 260l-92 90q-14 14 -12 34.5zM330 555q0 -143 86 -236.5t225 -93.5q129 0 216 94.5t87 235.5q0 146 -86.5 239t-218.5 93 q-144 0 -226.5 -94t-82.5 -238z" />
<glyph unicode="&#xa5;" horiz-adv-x="1134" d="M20 1200v82h459v-82l-129 -31l246 -479h33l260 479l-152 31v82h377v-82l-119 -31l-319 -600h262v-84h-272v-100h272v-84h-272v-188l159 -31v-82h-516v82l160 31v188h-272v84h272v100h-272v84h262l-314 600z" />
<glyph unicode="&#xa6;" d="M477 246h152v-717h-152v717zM477 819v717h152v-717h-152z" />
<glyph unicode="&#xa7;" horiz-adv-x="1136" d="M145 631q0 94 37.5 174t114.5 162q-113 99 -113 213q0 51 23 101t66.5 93t116.5 69.5t163 26.5t183 -27t163 -77v-289h-68q-79 307 -282 307q-81 0 -130.5 -45.5t-49.5 -111.5q0 -51 34.5 -100.5t89 -91t121 -83.5t133 -87.5t121 -93.5t89 -110t34.5 -129 q0 -165 -166 -321q129 -107 129 -242q0 -76 -34 -135.5t-89.5 -94.5t-121.5 -53t-136 -18q-85 0 -186 28t-180 77v288h67q23 -83 57.5 -144t76.5 -96t86 -51t92 -16q78 0 127 42t49 116q0 56 -34 108.5t-88.5 95.5t-120 85.5t-131.5 88t-120.5 94t-88.5 112.5t-34 135z M299 700q0 -50 28 -96.5t80.5 -90t104 -78t124.5 -81t116 -78.5q44 49 60.5 85t16.5 81q0 44 -19.5 86t-49 75.5t-79 73t-93 69.5t-109 75t-110.5 80q-70 -82 -70 -201z" />
<glyph unicode="&#xa8;" horiz-adv-x="1024" d="M229 1165q0 43 33 76t76 33q44 0 75 -33t31 -76q0 -42 -31 -73t-75 -31q-43 0 -76 31.5t-33 72.5zM580 1165q0 43 32.5 76t75.5 33q40 0 73.5 -33.5t33.5 -75.5q0 -41 -33.5 -72.5t-73.5 -31.5q-43 0 -75.5 31.5t-32.5 72.5z" />
<glyph unicode="&#xa9;" horiz-adv-x="1439" d="M90 606q0 169 85 314t230.5 230t315.5 85q133 0 250.5 -50t200 -135t130.5 -201t48 -243q0 -170 -85 -315.5t-230 -230.5t-314 -85q-172 0 -316 79.5t-229.5 225t-85.5 326.5zM211 602q0 -226 143.5 -375t368.5 -149q226 0 366 148.5t140 375.5q0 232 -144.5 383.5 t-363.5 151.5q-222 0 -366 -153t-144 -382zM377 608q0 156 102 252t254 96q123 0 254 -71v-158h-57q-30 86 -79 120t-118 34q-94 0 -150.5 -66t-56.5 -205q0 -131 63.5 -200.5t147.5 -69.5q83 0 130.5 36t74.5 116h53v-152q-63 -39 -122 -59.5t-140 -20.5q-152 0 -254 93 t-102 255z" />
<glyph unicode="&#xaa;" horiz-adv-x="751" d="M72 713q0 124 186 200l162 80v58q0 82 -19.5 117.5t-66.5 35.5q-28 0 -59 -14.5t-48 -36.5q13 -39 13 -82q0 -31 -25.5 -47t-64.5 -16q-30 0 -54 22t-24 57q0 59 55 99q168 121 244 121q98 0 153.5 -53.5t55.5 -141.5v-399q0 -68 30 -68q17 0 33 17t25 38l43 -18 q-26 -80 -77.5 -119t-105.5 -39q-42 0 -73.5 27.5t-40.5 77.5h-15q-57 -59 -97.5 -84t-90.5 -25q-57 0 -98 66t-41 127zM240 743q0 -41 19.5 -68.5t55.5 -27.5q41 0 74 36.5t33 82.5v152l-94 -58q-32 -13 -60 -44.5t-28 -72.5z" />
<glyph unicode="&#xab;" horiz-adv-x="1335" d="M205 444v48l373 448l67 -41l-221 -412v-30l221 -416l-67 -49zM629 444v48l372 448l68 -41l-221 -412v-30l221 -416l-68 -49z" />
<glyph unicode="&#xac;" d="M78 510v131h936v-535h-142v404h-794z" />
<glyph unicode="&#xad;" horiz-adv-x="643" d="M66 420v149h512v-149h-512z" />
<glyph unicode="&#xae;" horiz-adv-x="1040" d="M82 1030q0 180 129 309t309 129q187 0 312.5 -128t125.5 -310q0 -180 -129 -309t-309 -129q-183 0 -310.5 124.5t-127.5 313.5zM172 1028q0 -155 98 -256.5t252 -101.5q144 0 245 103t101 255q0 158 -100.5 259.5t-247.5 101.5q-159 0 -253.5 -102t-94.5 -259zM293 801 v41l55 14v375l-55 14v41h237q24 0 51 -5.5t56.5 -18.5t48.5 -39.5t19 -63.5q0 -41 -31.5 -75t-85.5 -44v-16q28 -12 77.5 -80.5t75.5 -87.5l31 -14v-41h-113q-26 19 -57 66t-62 89t-63 54h-26v-154l75 -14v-41h-233zM451 1063h53q48 0 71 28t23 64q0 40 -24.5 58t-57.5 18 h-65v-168z" />
<glyph unicode="&#xaf;" horiz-adv-x="1024" d="M252 1085v119h520v-119h-520z" />
<glyph unicode="&#xb0;" horiz-adv-x="751" d="M82 1012q0 121 86.5 208t206.5 87q121 0 208 -86.5t87 -208.5q0 -120 -87 -206.5t-208 -86.5q-120 0 -206.5 86.5t-86.5 206.5zM205 1012q0 -79 46.5 -134t121.5 -55q76 0 124 55t48 134q0 80 -48 136t-124 56q-75 0 -121.5 -56t-46.5 -136z" />
<glyph unicode="&#xb1;" d="M139 0v127h828v-127h-828zM139 553v127h350v307h127v-307h351v-127h-351v-307h-127v307h-350z" />
<glyph unicode="&#xb2;" horiz-adv-x="587" d="M39 1374q133 195 274 195q93 0 145 -46.5t52 -117.5q0 -57 -52 -142t-111 -151t-114 -115l7 -16h217l51 82l47 -14l-63 -199h-439l-12 37q45 37 95 89t101.5 116.5t85 134t33.5 123.5q0 45 -27 75.5t-75 30.5q-46 0 -84 -27t-96 -90z" />
<glyph unicode="&#xb3;" horiz-adv-x="530" d="M31 942q0 22 15 38.5t42 16.5q23 0 41.5 -13.5t28.5 -29.5t29 -29.5t44 -13.5q39 0 72 33t33 94q0 70 -50 115.5t-77 32.5l-41 -23l-35 47q82 39 131 83.5t49 88.5q0 39 -22.5 59.5t-61.5 20.5q-78 0 -145 -78l-31 35q111 150 248 150q65 0 109.5 -35t44.5 -92 q0 -55 -41.5 -105t-96.5 -84v-10q67 -16 115.5 -71t48.5 -123q0 -66 -41 -116t-98.5 -73.5t-116.5 -23.5q-91 0 -142.5 29.5t-51.5 76.5z" />
<glyph unicode="&#xb4;" horiz-adv-x="1024" d="M389 999v17l176 336h193v-21l-264 -332h-105z" />
<glyph unicode="&#xb6;" horiz-adv-x="1136" d="M35 973q0 215 141 344t363 129h569v-117q-67 0 -103 -50t-36 -124v-1477h-133v1651h-134v-1651h-133v820q-255 0 -394.5 127t-139.5 348zM326 967q0 -159 63.5 -256t179.5 -97v715q-109 0 -176 -99.5t-67 -262.5z" />
<glyph unicode="&#xb7;" horiz-adv-x="518" d="M127 541q0 56 38 94.5t93 38.5q56 0 94.5 -39t38.5 -94t-38.5 -93t-94.5 -38t-93.5 38t-37.5 93z" />
<glyph unicode="&#xb8;" horiz-adv-x="1024" d="M358 -184l119 225h92l-77 -143q94 0 154.5 -37t60.5 -111q0 -77 -86 -135t-207 -74l-17 51q79 12 128.5 46.5t49.5 80.5q0 42 -40 64t-105 22q-33 0 -61 -4z" />
<glyph unicode="&#xb9;" horiz-adv-x="477" d="M55 1440v67q107 3 197 58l74 -6v-627l104 -17v-65h-350v65l106 17v514q-76 -19 -131 -6z" />
<glyph unicode="&#xba;" horiz-adv-x="790" d="M61 911q0 177 96 286.5t238 109.5q149 0 241.5 -106.5t92.5 -289.5q0 -189 -91.5 -290t-242.5 -101q-144 0 -239 104t-95 287zM242 915q0 -163 44.5 -238t108.5 -75q35 0 61 12.5t48.5 45t34.5 96.5t12 159q0 310 -156 310q-64 0 -108.5 -73.5t-44.5 -236.5z" />
<glyph unicode="&#xbb;" horiz-adv-x="1335" d="M266 41l221 416v30l-221 412l68 41l373 -448v-48l-373 -452zM690 41l221 416v30l-221 412l68 41l372 -448v-48l-372 -452z" />
<glyph unicode="&#xbc;" horiz-adv-x="1474" d="M154 1182v67q106 3 196 58l74 -7v-626l104 -17v-65h-350v65l107 17v514q-76 -19 -131 -6zM223 -111l494 758l457 723l81 -53l-479 -715l-473 -768zM784 168l355 477l71 -18v-414h70v-90h-70v-205h-137v203h-270zM909 223l6 -10h158v205l-12 8z" />
<glyph unicode="&#xbd;" horiz-adv-x="1474" d="M154 1182v67q106 3 196 58l74 -7v-626l104 -17v-65h-350v65l107 17v514q-76 -19 -131 -6zM223 -111l494 758l457 723l81 -53l-479 -715l-473 -768zM852 442q132 195 274 195q93 0 145 -46.5t52 -117.5q0 -57 -52 -142t-110.5 -150.5t-113.5 -114.5l6 -17h217l51 82 l47 -14l-63 -199h-439l-12 37q45 37 95 89t101.5 116.5t85 134t33.5 123.5q0 45 -27 75.5t-75 30.5q-46 0 -84.5 -27t-95.5 -89z" />
<glyph unicode="&#xbe;" horiz-adv-x="1474" d="M119 684q0 22 15 38.5t42 16.5q23 0 41.5 -13.5t28.5 -29.5t29 -29.5t44 -13.5q39 0 72 33t33 94q0 70 -50 115.5t-77 32.5l-41 -23l-35 47q82 39 131 83.5t49 88.5q0 39 -22.5 59.5t-61.5 20.5q-78 0 -145 -78l-31 35q111 150 248 150q65 0 109.5 -35t44.5 -92 q0 -56 -41 -105.5t-96 -83.5v-10q67 -16 115 -70.5t48 -123.5q0 -66 -41 -116t-98.5 -73.5t-116.5 -23.5q-91 0 -142.5 29.5t-51.5 76.5zM223 -111l494 758l457 723l81 -53l-479 -715l-473 -768zM784 168l355 477l71 -18v-414h70v-90h-70v-205h-137v203h-270zM909 223l6 -10 h158v205l-12 8z" />
<glyph unicode="&#xbf;" horiz-adv-x="825" d="M106 113q0 83 22.5 150t60 110.5t87.5 72t103 38.5t108 5v240h88v-432q-184 22 -279 -51.5t-95 -204.5q0 -96 62 -150.5t181 -54.5q201 0 201 -104q0 -46 -34 -76.5t-95 -30.5q-68 0 -139.5 35t-132 96t-99.5 155.5t-39 201.5zM397 1030q0 55 38.5 93t94.5 38t94 -38 t38 -93q0 -56 -38.5 -94.5t-93.5 -38.5q-56 0 -94.5 38.5t-38.5 94.5z" />
<glyph unicode="&#xc0;" horiz-adv-x="1429" d="M25 0v82l153 31l459 1333h133l479 -1333l156 -31v-82h-541v82l164 31l-141 387h-459l-131 -387l186 -31v-82h-458zM463 1808v21h192l176 -264v-17h-104zM467 612h379l-176 506h-33z" />
<glyph unicode="&#xc1;" horiz-adv-x="1429" d="M25 0v82l153 31l459 1333h133l479 -1333l156 -31v-82h-541v82l164 31l-141 387h-459l-131 -387l186 -31v-82h-458zM467 612h379l-176 506h-33zM586 1548v17l176 264h192v-21l-264 -260h-104z" />
<glyph unicode="&#xc2;" horiz-adv-x="1429" d="M25 0v82l153 31l459 1333h133l479 -1333l156 -31v-82h-541v82l164 31l-141 387h-459l-131 -387l186 -31v-82h-458zM412 1548v17l247 264h99l248 -264v-17h-95l-202 142l-203 -142h-94zM467 612h379l-176 506h-33z" />
<glyph unicode="&#xc3;" horiz-adv-x="1429" d="M25 0v82l153 31l459 1333h133l479 -1333l156 -31v-82h-541v82l164 31l-141 387h-459l-131 -387l186 -31v-82h-458zM395 1618q23 83 84.5 167.5t98.5 84.5q39 0 132.5 -62.5t131.5 -62.5q34 0 73 42.5t56 88.5l53 -21q-28 -100 -88 -178t-113 -78q-31 0 -130 61.5 t-130 61.5q-32 0 -56 -32.5t-52 -96.5zM467 612h379l-176 506h-33z" />
<glyph unicode="&#xc4;" horiz-adv-x="1429" d="M25 0v82l153 31l459 1333h133l479 -1333l156 -31v-82h-541v82l164 31l-141 387h-459l-131 -387l186 -31v-82h-458zM426 1714q0 43 33 76t76 33q44 0 75 -33t31 -76q0 -42 -31 -73t-75 -31q-43 0 -76 31.5t-33 72.5zM467 612h379l-176 506h-33zM776 1714q0 43 33 76t76 33 q40 0 73 -33.5t33 -75.5q0 -41 -33 -72.5t-73 -31.5q-43 0 -76 31.5t-33 72.5z" />
<glyph unicode="&#xc5;" horiz-adv-x="1429" d="M25 0v82l153 31l459 1333h133l479 -1333l156 -31v-82h-541v82l164 31l-141 387h-459l-131 -387l186 -31v-82h-458zM467 612h379l-176 506h-33zM516 1720q0 80 57 136.5t136 56.5t135.5 -56.5t56.5 -136.5t-56.5 -136t-135.5 -56q-80 0 -136.5 56.5t-56.5 135.5zM610 1720 q0 -45 26.5 -74.5t70.5 -29.5t71 29.5t27 74.5t-27.5 77t-70.5 32t-70 -31.5t-27 -77.5z" />
<glyph unicode="&#xc6;" horiz-adv-x="1957" d="M25 0v82l153 31l746 1212v8l-181 31v82h1029l32 -322h-90l-145 224h-428v-531h280l66 193h82v-512h-82l-66 207h-280v-607h491l187 285h90l-74 -383h-1092v82l181 31v387h-394l-233 -387l186 -31v-82h-458zM600 612h324v535z" />
<glyph unicode="&#xc7;" horiz-adv-x="1417" d="M61 721q0 169 60 311t163 237t240 148t291 53q114 0 246 -41t244 -104v-289h-68q-40 117 -110.5 193.5t-147.5 107.5t-164 31q-83 0 -158 -24t-140.5 -75.5t-113 -126t-75 -182t-27.5 -237.5q0 -155 43 -279.5t113.5 -200t155.5 -115.5t175 -40q170 0 291.5 84.5 t175.5 241.5h66v-281q-127 -76 -247 -115.5t-288 -42.5l-41 -77q94 0 155 -37t61 -111q0 -77 -86 -135t-207 -74l-17 51q79 12 128.5 46.5t49.5 80.5q0 42 -40 64t-105 22q-33 0 -61 -4l-11 15l86 164q-135 10 -250.5 64t-202 146t-135.5 228.5t-49 302.5z" />
<glyph unicode="&#xc8;" horiz-adv-x="1263" d="M49 0v82l180 31v1220l-180 31v82h1028l33 -322h-90l-146 224h-428v-531h281l66 193h81v-512h-81l-66 207h-281v-607h492l186 285h90l-73 -383h-1092zM385 1808v21h193l176 -264v-17h-105z" />
<glyph unicode="&#xc9;" horiz-adv-x="1263" d="M49 0v82l180 31v1220l-180 31v82h1028l33 -322h-90l-146 224h-428v-531h281l66 193h81v-512h-81l-66 207h-281v-607h492l186 285h90l-73 -383h-1092zM508 1548v17l176 264h193v-21l-265 -260h-104z" />
<glyph unicode="&#xca;" horiz-adv-x="1263" d="M49 0v82l180 31v1220l-180 31v82h1028l33 -322h-90l-146 224h-428v-531h281l66 193h81v-512h-81l-66 207h-281v-607h492l186 285h90l-73 -383h-1092zM334 1548v17l248 264h98l248 -264v-17h-94l-203 142l-203 -142h-94z" />
<glyph unicode="&#xcb;" horiz-adv-x="1263" d="M49 0v82l180 31v1220l-180 31v82h1028l33 -322h-90l-146 224h-428v-531h281l66 193h81v-512h-81l-66 207h-281v-607h492l186 285h90l-73 -383h-1092zM348 1714q0 43 33 76t76 33q44 0 75 -33t31 -76q0 -42 -31 -73t-75 -31q-43 0 -76 31.5t-33 72.5zM698 1714q0 43 33 76 t76 33q40 0 73 -33.5t33 -75.5q0 -41 -33 -72.5t-73 -31.5q-43 0 -76 31.5t-33 72.5z" />
<glyph unicode="&#xcc;" horiz-adv-x="675" d="M49 0v82l180 31v1220l-180 31v82h578v-82l-181 -31v-1220l181 -31v-82h-578zM92 1808v21h193l176 -264v-17h-105z" />
<glyph unicode="&#xcd;" horiz-adv-x="675" d="M49 0v82l180 31v1220l-180 31v82h578v-82l-181 -31v-1220l181 -31v-82h-578zM215 1548v17l176 264h193v-21l-265 -260h-104z" />
<glyph unicode="&#xce;" horiz-adv-x="675" d="M41 1548v17l248 264h98l248 -264v-17h-94l-203 142l-203 -142h-94zM49 0v82l180 31v1220l-180 31v82h578v-82l-181 -31v-1220l181 -31v-82h-578z" />
<glyph unicode="&#xcf;" horiz-adv-x="675" d="M49 0v82l180 31v1220l-180 31v82h578v-82l-181 -31v-1220l181 -31v-82h-578zM55 1714q0 43 33 76t76 33q44 0 75 -33t31 -76q0 -42 -31 -73t-75 -31q-43 0 -76 31.5t-33 72.5zM406 1714q0 43 32.5 76t75.5 33q40 0 73.5 -33.5t33.5 -75.5q0 -41 -33.5 -72.5t-73.5 -31.5 q-43 0 -75.5 31.5t-32.5 72.5z" />
<glyph unicode="&#xd0;" horiz-adv-x="1533" d="M49 0v82l180 31v551h-180v112h180v557l-180 31v82h617q375 0 591 -194.5t216 -534.5q0 -228 -109 -392t-294 -244.5t-425 -80.5h-596zM446 113h199q96 0 181.5 20.5t160.5 67t129 115.5t85.5 172t31.5 231q0 151 -42.5 268.5t-118.5 192.5t-179.5 114t-228.5 39h-218 v-557h338v-112h-338v-551z" />
<glyph unicode="&#xd1;" horiz-adv-x="1603" d="M49 0v82l162 31v1220l-162 31v82h326l860 -1059h29v946l-181 31v82h471v-82l-178 -31v-1337h-92l-932 1145h-28v-1028l180 -31v-82h-455zM487 1618q23 83 84.5 167.5t98.5 84.5q39 0 132.5 -62.5t131.5 -62.5q34 0 73 42.5t56 88.5l53 -21q-28 -100 -88 -178t-113 -78 q-31 0 -130 61.5t-130 61.5q-32 0 -56 -32.5t-52 -96.5z" />
<glyph unicode="&#xd2;" horiz-adv-x="1505" d="M61 721q0 169 55 311t149.5 237t220.5 148t268 53q149 0 276 -52t218.5 -147t143.5 -236.5t52 -313.5q0 -181 -54.5 -325t-149.5 -235t-219 -138.5t-267 -47.5t-268.5 49.5t-220 142t-149.5 235.5t-55 319zM301 723q0 -133 24 -241.5t65.5 -182t99.5 -123t124 -72 t140 -22.5q77 0 140.5 17.5t122 62.5t99 115.5t64.5 184t24 261.5q0 138 -22.5 247.5t-62 183.5t-96.5 122.5t-123.5 70t-145.5 21.5q-94 0 -173.5 -36.5t-143.5 -111t-100 -201.5t-36 -296zM506 1808v21h192l176 -264v-17h-104z" />
<glyph unicode="&#xd3;" horiz-adv-x="1505" d="M61 721q0 169 55 311t149.5 237t220.5 148t268 53q149 0 276 -52t218.5 -147t143.5 -236.5t52 -313.5q0 -181 -54.5 -325t-149.5 -235t-219 -138.5t-267 -47.5t-268.5 49.5t-220 142t-149.5 235.5t-55 319zM301 723q0 -133 24 -241.5t65.5 -182t99.5 -123t124 -72 t140 -22.5q77 0 140.5 17.5t122 62.5t99 115.5t64.5 184t24 261.5q0 138 -22.5 247.5t-62 183.5t-96.5 122.5t-123.5 70t-145.5 21.5q-94 0 -173.5 -36.5t-143.5 -111t-100 -201.5t-36 -296zM629 1548v17l176 264h192v-21l-264 -260h-104z" />
<glyph unicode="&#xd4;" horiz-adv-x="1505" d="M61 721q0 169 55 311t149.5 237t220.5 148t268 53q149 0 276 -52t218.5 -147t143.5 -236.5t52 -313.5q0 -181 -54.5 -325t-149.5 -235t-219 -138.5t-267 -47.5t-268.5 49.5t-220 142t-149.5 235.5t-55 319zM301 723q0 -133 24 -241.5t65.5 -182t99.5 -123t124 -72 t140 -22.5q77 0 140.5 17.5t122 62.5t99 115.5t64.5 184t24 261.5q0 138 -22.5 247.5t-62 183.5t-96.5 122.5t-123.5 70t-145.5 21.5q-94 0 -173.5 -36.5t-143.5 -111t-100 -201.5t-36 -296zM455 1548v17l247 264h99l248 -264v-17h-95l-202 142l-203 -142h-94z" />
<glyph unicode="&#xd5;" horiz-adv-x="1505" d="M61 721q0 169 55 311t149.5 237t220.5 148t268 53q149 0 276 -52t218.5 -147t143.5 -236.5t52 -313.5q0 -181 -54.5 -325t-149.5 -235t-219 -138.5t-267 -47.5t-268.5 49.5t-220 142t-149.5 235.5t-55 319zM301 723q0 -133 24 -241.5t65.5 -182t99.5 -123t124 -72 t140 -22.5q77 0 140.5 17.5t122 62.5t99 115.5t64.5 184t24 261.5q0 138 -22.5 247.5t-62 183.5t-96.5 122.5t-123.5 70t-145.5 21.5q-94 0 -173.5 -36.5t-143.5 -111t-100 -201.5t-36 -296zM438 1618q23 83 84.5 167.5t98.5 84.5q39 0 132.5 -62.5t131.5 -62.5 q34 0 73 42.5t56 88.5l53 -21q-28 -100 -88 -178t-113 -78q-30 0 -130 61.5t-130 61.5q-32 0 -56 -32.5t-52 -96.5z" />
<glyph unicode="&#xd6;" horiz-adv-x="1505" d="M61 721q0 169 55 311t149.5 237t220.5 148t268 53q149 0 276 -52t218.5 -147t143.5 -236.5t52 -313.5q0 -181 -54.5 -325t-149.5 -235t-219 -138.5t-267 -47.5t-268.5 49.5t-220 142t-149.5 235.5t-55 319zM301 723q0 -133 24 -241.5t65.5 -182t99.5 -123t124 -72 t140 -22.5q77 0 140.5 17.5t122 62.5t99 115.5t64.5 184t24 261.5q0 138 -22.5 247.5t-62 183.5t-96.5 122.5t-123.5 70t-145.5 21.5q-94 0 -173.5 -36.5t-143.5 -111t-100 -201.5t-36 -296zM469 1714q0 43 33 76t76 33q44 0 75 -33t31 -76q0 -42 -31 -73t-75 -31 q-43 0 -76 31.5t-33 72.5zM819 1714q0 43 33 76t76 33q40 0 73 -33.5t33 -75.5q0 -41 -33 -72.5t-73 -31.5q-43 0 -76 31.5t-33 72.5z" />
<glyph unicode="&#xd7;" d="M186 217l277 277l-277 276l90 90l277 -276l276 276l91 -90l-277 -276l277 -277l-91 -90l-276 276l-277 -276z" />
<glyph unicode="&#xd8;" horiz-adv-x="1505" d="M61 721q0 169 55 311t149.5 237t220.5 148t268 53q220 0 387 -110l112 156h133l-161 -224q105 -99 162 -244t57 -327q0 -181 -54.5 -325t-149.5 -235t-219 -138.5t-267 -47.5q-228 0 -398 117l-131 -182h-133l180 250q-211 208 -211 561zM301 723q0 -249 82 -410l674 930 q-116 125 -303 125q-94 0 -173.5 -36.5t-143.5 -111t-100 -201.5t-36 -296zM449 217q118 -135 305 -135q77 0 140.5 17.5t122 62.5t99 115.5t64.5 184t24 261.5q0 264 -84 426z" />
<glyph unicode="&#xd9;" horiz-adv-x="1581" d="M49 1364v82h578v-82l-181 -31v-831q0 -164 106 -272.5t294 -108.5q83 0 156 29t128.5 83.5t88 140.5t32.5 193v766l-178 31v82h459v-82l-166 -31v-801q0 -72 -19.5 -147t-64 -149t-108 -131.5t-159.5 -93.5t-210 -36q-136 0 -248.5 44.5t-182.5 116.5t-107.5 159 t-37.5 176v862zM610 1808v21h193l176 -264v-17h-105z" />
<glyph unicode="&#xda;" horiz-adv-x="1581" d="M49 1364v82h578v-82l-181 -31v-831q0 -164 106 -272.5t294 -108.5q83 0 156 29t128.5 83.5t88 140.5t32.5 193v766l-178 31v82h459v-82l-166 -31v-801q0 -72 -19.5 -147t-64 -149t-108 -131.5t-159.5 -93.5t-210 -36q-136 0 -248.5 44.5t-182.5 116.5t-107.5 159 t-37.5 176v862zM733 1548v17l176 264h193v-21l-264 -260h-105z" />
<glyph unicode="&#xdb;" horiz-adv-x="1581" d="M49 1364v82h578v-82l-181 -31v-831q0 -164 106 -272.5t294 -108.5q83 0 156 29t128.5 83.5t88 140.5t32.5 193v766l-178 31v82h459v-82l-166 -31v-801q0 -72 -19.5 -147t-64 -149t-108 -131.5t-159.5 -93.5t-210 -36q-136 0 -248.5 44.5t-182.5 116.5t-107.5 159 t-37.5 176v862zM559 1548v17l248 264h98l248 -264v-17h-94l-203 142l-203 -142h-94z" />
<glyph unicode="&#xdc;" horiz-adv-x="1581" d="M49 1364v82h578v-82l-181 -31v-831q0 -164 106 -272.5t294 -108.5q83 0 156 29t128.5 83.5t88 140.5t32.5 193v766l-178 31v82h459v-82l-166 -31v-801q0 -72 -19.5 -147t-64 -149t-108 -131.5t-159.5 -93.5t-210 -36q-136 0 -248.5 44.5t-182.5 116.5t-107.5 159 t-37.5 176v862zM573 1714q0 43 33 76t76 33q44 0 75 -33t31 -76q0 -42 -31 -73t-75 -31q-43 0 -76 31.5t-33 72.5zM924 1714q0 43 32.5 76t75.5 33q40 0 73.5 -33.5t33.5 -75.5q0 -41 -33.5 -72.5t-73.5 -31.5q-43 0 -75.5 31.5t-32.5 72.5z" />
<glyph unicode="&#xdd;" horiz-adv-x="1368" d="M35 1364v82h540v-82l-165 -31l303 -522h32l312 522l-183 31v82h459v-82l-153 -31l-387 -661v-559l180 -31v-82h-578v82l180 31v553l-391 667zM608 1548v17l176 264h193v-21l-264 -260h-105z" />
<glyph unicode="&#xde;" horiz-adv-x="1153" d="M49 0v82l180 31v1220l-180 31v82h578v-82l-181 -31v-174h127q75 0 147 -13.5t140 -45t119 -78t82 -117t31 -157.5q0 -186 -141.5 -296t-387.5 -110h-117v-229l181 -31v-82h-578zM446 449h136q120 0 202 77.5t82 208.5q0 307 -303 307h-117v-593z" />
<glyph unicode="&#xdf;" horiz-adv-x="1218" d="M33 831v60l131 84v88q0 89 34 172t91 144t136.5 97.5t166.5 36.5q170 0 273.5 -95t103.5 -218q0 -49 -28.5 -97.5t-69.5 -89t-81.5 -81t-69 -89.5t-28.5 -100q0 -29 14 -53.5t48.5 -49.5t71 -45t102.5 -52q65 -31 108.5 -64.5t75 -91.5t31.5 -133q0 -130 -89 -204.5 t-212 -74.5q-94 0 -221 52l-31 -27h-58v297h68q58 -242 225 -242q69 0 110.5 38t41.5 104q0 58 -47.5 111t-128.5 91q-143 67 -203.5 130t-60.5 165q0 54 24.5 102.5t59.5 88t69.5 81.5t59 101t24.5 129q0 109 -56 161t-132 52q-107 0 -171.5 -96t-64.5 -238v-1075h-305v72 l119 30v729h-131z" />
<glyph unicode="&#xe0;" horiz-adv-x="882" d="M72 688q0 74 67 123q79 55 173.5 104.5t148.5 49.5q112 0 173.5 -67.5t61.5 -178.5v-512q0 -88 43 -88q21 0 40.5 21t29.5 48l57 -22q-23 -67 -64 -110.5t-77.5 -58.5t-71.5 -15q-57 0 -95 34t-42 95h-20q-68 -71 -122 -103.5t-114 -32.5q-49 0 -93.5 41.5t-68.5 97.5 t-24 103q0 69 44.5 130t127.5 97l278 119v82q0 195 -147 195q-34 0 -73.5 -19.5t-57.5 -46.5q0 -3 6 -43.5t6 -62.5q0 -37 -29 -58.5t-67 -21.5q-37 0 -63.5 28.5t-26.5 71.5zM186 1393v20h193l176 -336v-16h-104zM256 254q0 -51 29 -86t86 -35q53 0 104 41.5t51 97.5v203 l-155 -72q-44 -20 -79.5 -57.5t-35.5 -91.5z" />
<glyph unicode="&#xe1;" horiz-adv-x="882" d="M72 688q0 74 67 123q79 55 173.5 104.5t148.5 49.5q112 0 173.5 -67.5t61.5 -178.5v-512q0 -88 43 -88q21 0 40.5 21t29.5 48l57 -22q-23 -67 -64 -110.5t-77.5 -58.5t-71.5 -15q-57 0 -95 34t-42 95h-20q-68 -71 -122 -103.5t-114 -32.5q-49 0 -93.5 41.5t-68.5 97.5 t-24 103q0 69 44.5 130t127.5 97l278 119v82q0 195 -147 195q-34 0 -73.5 -19.5t-57.5 -46.5q0 -3 6 -43.5t6 -62.5q0 -37 -29 -58.5t-67 -21.5q-37 0 -63.5 28.5t-26.5 71.5zM256 254q0 -51 29 -86t86 -35q53 0 104 41.5t51 97.5v203l-155 -72q-44 -20 -79.5 -57.5 t-35.5 -91.5zM309 1061v16l176 336h193v-20l-264 -332h-105z" />
<glyph unicode="&#xe2;" horiz-adv-x="882" d="M72 688q0 74 67 123q79 55 173.5 104.5t148.5 49.5q112 0 173.5 -67.5t61.5 -178.5v-512q0 -88 43 -88q21 0 40.5 21t29.5 48l57 -22q-23 -67 -64 -110.5t-77.5 -58.5t-71.5 -15q-57 0 -95 34t-42 95h-20q-68 -71 -122 -103.5t-114 -32.5q-49 0 -93.5 41.5t-68.5 97.5 t-24 103q0 69 44.5 130t127.5 97l278 119v82q0 195 -147 195q-34 0 -73.5 -19.5t-57.5 -46.5q0 -3 6 -43.5t6 -62.5q0 -37 -29 -58.5t-67 -21.5q-37 0 -63.5 28.5t-26.5 71.5zM135 1061v16l248 336h98l248 -336v-16h-94l-203 203l-203 -203h-94zM256 254q0 -51 29 -86 t86 -35q53 0 104 41.5t51 97.5v203l-155 -72q-44 -20 -79.5 -57.5t-35.5 -91.5z" />
<glyph unicode="&#xe3;" horiz-adv-x="882" d="M72 688q0 74 67 123q79 55 173.5 104.5t148.5 49.5q112 0 173.5 -67.5t61.5 -178.5v-512q0 -88 43 -88q21 0 40.5 21t29.5 48l57 -22q-23 -67 -64 -110.5t-77.5 -58.5t-71.5 -15q-57 0 -95 34t-42 95h-20q-68 -71 -122 -103.5t-114 -32.5q-49 0 -93.5 41.5t-68.5 97.5 t-24 103q0 69 44.5 130t127.5 97l278 119v82q0 195 -147 195q-34 0 -73.5 -19.5t-57.5 -46.5q0 -3 6 -43.5t6 -62.5q0 -37 -29 -58.5t-67 -21.5q-37 0 -63.5 28.5t-26.5 71.5zM119 1130q23 83 84 167.5t98 84.5q39 0 132.5 -62.5t131.5 -62.5q34 0 73 43t56 89l54 -21 q-28 -100 -88 -178t-113 -78q-31 0 -130 61.5t-130 61.5q-32 0 -56.5 -33t-52.5 -96zM256 254q0 -51 29 -86t86 -35q53 0 104 41.5t51 97.5v203l-155 -72q-44 -20 -79.5 -57.5t-35.5 -91.5z" />
<glyph unicode="&#xe4;" horiz-adv-x="882" d="M72 688q0 74 67 123q79 55 173.5 104.5t148.5 49.5q112 0 173.5 -67.5t61.5 -178.5v-512q0 -88 43 -88q21 0 40.5 21t29.5 48l57 -22q-23 -67 -64 -110.5t-77.5 -58.5t-71.5 -15q-57 0 -95 34t-42 95h-20q-68 -71 -122 -103.5t-114 -32.5q-49 0 -93.5 41.5t-68.5 97.5 t-24 103q0 69 44.5 130t127.5 97l278 119v82q0 195 -147 195q-34 0 -73.5 -19.5t-57.5 -46.5q0 -3 6 -43.5t6 -62.5q0 -37 -29 -58.5t-67 -21.5q-37 0 -63.5 28.5t-26.5 71.5zM150 1227q0 43 32.5 75.5t75.5 32.5q44 0 75.5 -32.5t31.5 -75.5q0 -42 -31.5 -73.5t-75.5 -31.5 q-43 0 -75.5 32t-32.5 73zM256 254q0 -51 29 -86t86 -35q53 0 104 41.5t51 97.5v203l-155 -72q-44 -20 -79.5 -57.5t-35.5 -91.5zM500 1227q0 43 32.5 75.5t75.5 32.5q40 0 73.5 -33t33.5 -75q0 -41 -33.5 -73t-73.5 -32q-43 0 -75.5 32t-32.5 73z" />
<glyph unicode="&#xe5;" horiz-adv-x="882" d="M72 688q0 74 67 123q79 55 173.5 104.5t148.5 49.5q112 0 173.5 -67.5t61.5 -178.5v-512q0 -88 43 -88q21 0 40.5 21t29.5 48l57 -22q-23 -67 -64 -110.5t-77.5 -58.5t-71.5 -15q-57 0 -95 34t-42 95h-20q-68 -71 -122 -103.5t-114 -32.5q-49 0 -93.5 41.5t-68.5 97.5 t-24 103q0 69 44.5 130t127.5 97l278 119v82q0 195 -147 195q-34 0 -73.5 -19.5t-57.5 -46.5q0 -3 6 -43.5t6 -62.5q0 -37 -29 -58.5t-67 -21.5q-37 0 -63.5 28.5t-26.5 71.5zM240 1233q0 79 56 135.5t136 56.5t136.5 -56.5t56.5 -135.5t-56.5 -136t-136.5 -57 q-79 0 -135.5 56.5t-56.5 136.5zM256 254q0 -51 29 -86t86 -35q53 0 104 41.5t51 97.5v203l-155 -72q-44 -20 -79.5 -57.5t-35.5 -91.5zM334 1233q0 -45 26.5 -75t69.5 -30q44 0 71 30t27 75t-27.5 76.5t-70.5 31.5t-69.5 -31t-26.5 -77z" />
<glyph unicode="&#xe6;" horiz-adv-x="1363" d="M72 688q0 74 67 123q79 55 173.5 104.5t148.5 49.5q136 0 201 -105q108 105 256 105q84 0 157 -32.5t119 -82.5t72 -107t26 -110q0 -21 -0.5 -28t-2 -18.5t-6.5 -15.5t-13 -4h-574q-4 -31 -4 -75q6 -165 92 -258t209 -93q151 0 256 152l64 -43q-146 -275 -389 -275 q-101 0 -183.5 46t-140.5 126q-203 -172 -340 -172q-49 0 -93.5 41.5t-68.5 97.5t-24 103q0 69 44.5 130t127.5 97l278 119v82q0 195 -147 195q-34 0 -73.5 -19.5t-57.5 -46.5q0 -3 6 -43.5t6 -62.5q0 -37 -29 -58.5t-67 -21.5q-37 0 -63.5 28.5t-26.5 71.5zM256 254 q0 -51 29 -86t86 -35q53 0 104 41.5t51 97.5v203l-155 -72q-44 -20 -79.5 -57.5t-35.5 -91.5zM709 655h354q10 29 10 68q0 71 -46 114.5t-112 43.5q-81 0 -133.5 -61.5t-72.5 -164.5z" />
<glyph unicode="&#xe7;" horiz-adv-x="903" d="M59 463q0 139 57.5 253.5t163 181.5t236.5 67q143 0 229 -60t86 -145q0 -43 -23 -64.5t-75 -21.5q-43 0 -69.5 22t-38.5 53t-24 62.5t-38.5 53.5t-70.5 22q-90 0 -162 -109t-72 -278q0 -180 79 -265t208 -85q77 0 144.5 41.5t105.5 101.5l63 -31q-49 -124 -140 -201 t-212 -84l-43 -79q94 0 154.5 -37t60.5 -111q0 -77 -86 -135t-207 -74l-16 51q79 12 128.5 46.5t49.5 80.5q0 42 -40.5 64t-105.5 22q-33 0 -61 -4l-10 15l86 166q-161 24 -259 160t-98 321z" />
<glyph unicode="&#xe8;" horiz-adv-x="917" d="M59 461q0 213 116.5 358.5t295.5 145.5q84 0 157.5 -32.5t119.5 -82.5t72 -107t26 -110q0 -66 -23 -66h-575q-2 -20 -2 -61q0 -173 88 -269t213 -96q151 0 256 152l63 -43q-146 -275 -389 -275q-93 0 -173 41.5t-132.5 109.5t-82.5 155.5t-30 179.5zM217 1393v20h193 l176 -336v-16h-105zM260 655h356q11 32 11 68q0 71 -46 114.5t-112 43.5q-76 0 -131 -57.5t-78 -168.5z" />
<glyph unicode="&#xe9;" horiz-adv-x="917" d="M59 461q0 213 116.5 358.5t295.5 145.5q84 0 157.5 -32.5t119.5 -82.5t72 -107t26 -110q0 -66 -23 -66h-575q-2 -20 -2 -61q0 -173 88 -269t213 -96q151 0 256 152l63 -43q-146 -275 -389 -275q-93 0 -173 41.5t-132.5 109.5t-82.5 155.5t-30 179.5zM260 655h356 q11 32 11 68q0 71 -46 114.5t-112 43.5q-76 0 -131 -57.5t-78 -168.5zM340 1061v16l176 336h193v-20l-265 -332h-104z" />
<glyph unicode="&#xea;" horiz-adv-x="917" d="M59 461q0 213 116.5 358.5t295.5 145.5q84 0 157.5 -32.5t119.5 -82.5t72 -107t26 -110q0 -66 -23 -66h-575q-2 -20 -2 -61q0 -173 88 -269t213 -96q151 0 256 152l63 -43q-146 -275 -389 -275q-93 0 -173 41.5t-132.5 109.5t-82.5 155.5t-30 179.5zM166 1061v16l248 336 h98l248 -336v-16h-94l-203 203l-203 -203h-94zM260 655h356q11 32 11 68q0 71 -46 114.5t-112 43.5q-76 0 -131 -57.5t-78 -168.5z" />
<glyph unicode="&#xeb;" horiz-adv-x="917" d="M59 461q0 213 116.5 358.5t295.5 145.5q84 0 157.5 -32.5t119.5 -82.5t72 -107t26 -110q0 -66 -23 -66h-575q-2 -20 -2 -61q0 -173 88 -269t213 -96q151 0 256 152l63 -43q-146 -275 -389 -275q-93 0 -173 41.5t-132.5 109.5t-82.5 155.5t-30 179.5zM180 1227 q0 43 33 75.5t76 32.5q44 0 75 -32.5t31 -75.5q0 -42 -31 -73.5t-75 -31.5q-43 0 -76 32t-33 73zM260 655h356q11 32 11 68q0 71 -46 114.5t-112 43.5q-76 0 -131 -57.5t-78 -168.5zM530 1227q0 43 33 75.5t76 32.5q40 0 73 -33t33 -75q0 -41 -33 -73t-73 -32q-43 0 -76 32 t-33 73z" />
<glyph unicode="&#xec;" horiz-adv-x="522" d="M10 1393v20h193l176 -336v-16h-105zM39 825v54l266 86h49v-863l119 -30v-72h-424v72l119 30v666z" />
<glyph unicode="&#xed;" horiz-adv-x="522" d="M39 825v54l266 86h49v-863l119 -30v-72h-424v72l119 30v666zM133 1061v16l176 336h193v-20l-264 -332h-105z" />
<glyph unicode="&#xee;" horiz-adv-x="522" d="M-41 1061v16l248 336h98l248 -336v-16h-94l-203 203l-203 -203h-94zM39 825v54l266 86h49v-863l119 -30v-72h-424v72l119 30v666z" />
<glyph unicode="&#xef;" horiz-adv-x="522" d="M-27 1227q0 43 33 75.5t76 32.5q44 0 75 -32.5t31 -75.5q0 -42 -31 -73.5t-75 -31.5q-43 0 -76 32t-33 73zM39 825v54l266 86h49v-863l119 -30v-72h-424v72l119 30v666zM324 1227q0 43 32.5 75.5t75.5 32.5q40 0 73.5 -33t33.5 -75q0 -41 -33.5 -73t-73.5 -32 q-43 0 -75.5 32t-32.5 73z" />
<glyph unicode="&#xf0;" horiz-adv-x="1009" d="M59 465q0 95 26.5 177.5t69.5 140.5t98 100t112.5 62t111.5 20q123 0 205 -78l16 10q-59 156 -176 299l-207 -137l-57 82l199 133q-110 120 -211 174l28 57q166 -64 287 -162l193 127l57 -81l-172 -115q149 -146 230 -336t81 -389q0 -143 -34 -254t-96 -180t-144 -104.5 t-182 -35.5q-57 0 -115 15.5t-116.5 53t-103 92t-72.5 140t-28 189.5zM268 473q0 -178 67 -291.5t171 -113.5q114 0 173.5 102.5t59.5 331.5q0 105 -20 207q-75 163 -215 163q-101 0 -168.5 -105.5t-67.5 -293.5z" />
<glyph unicode="&#xf1;" horiz-adv-x="1067" d="M35 825v54l260 86h49l12 -103l17 -12q74 58 133 86.5t119 28.5q121 0 199.5 -79.5t78.5 -234.5v-549l119 -30v-72h-424v72l119 30v488q0 129 -45 183t-135 54q-54 0 -104 -22t-83 -53v-650l119 -30v-72h-424v72l119 30v666zM221 1130q23 83 84 167.5t98 84.5 q39 0 133 -62.5t132 -62.5q34 0 73 43t56 89l53 -21q-28 -100 -88 -178t-113 -78q-31 0 -130 61.5t-130 61.5q-32 0 -56 -32.5t-52 -96.5z" />
<glyph unicode="&#xf2;" horiz-adv-x="1009" d="M59 469q0 223 128.5 359.5t318.5 136.5t317 -135t127 -361q0 -120 -34.5 -215t-95.5 -155.5t-141 -92t-173 -31.5t-174 33t-142 94.5t-96 156t-35 210.5zM258 1393v20h193l176 -336v-16h-105zM272 471q0 -207 66 -305t168 -98q50 0 89 17.5t73 60t52.5 125t18.5 200.5 q0 212 -65 306.5t-168 94.5t-168.5 -96t-65.5 -305z" />
<glyph unicode="&#xf3;" horiz-adv-x="1009" d="M59 469q0 223 128.5 359.5t318.5 136.5t317 -135t127 -361q0 -120 -34.5 -215t-95.5 -155.5t-141 -92t-173 -31.5t-174 33t-142 94.5t-96 156t-35 210.5zM272 471q0 -207 66 -305t168 -98q50 0 89 17.5t73 60t52.5 125t18.5 200.5q0 212 -65 306.5t-168 94.5t-168.5 -96 t-65.5 -305zM381 1061v16l176 336h193v-20l-265 -332h-104z" />
<glyph unicode="&#xf4;" horiz-adv-x="1009" d="M59 469q0 223 128.5 359.5t318.5 136.5t317 -135t127 -361q0 -120 -34.5 -215t-95.5 -155.5t-141 -92t-173 -31.5t-174 33t-142 94.5t-96 156t-35 210.5zM207 1061v16l248 336h98l248 -336v-16h-94l-203 203l-203 -203h-94zM272 471q0 -207 66 -305t168 -98q50 0 89 17.5 t73 60t52.5 125t18.5 200.5q0 212 -65 306.5t-168 94.5t-168.5 -96t-65.5 -305z" />
<glyph unicode="&#xf5;" horiz-adv-x="1009" d="M59 469q0 223 128.5 359.5t318.5 136.5t317 -135t127 -361q0 -120 -34.5 -215t-95.5 -155.5t-141 -92t-173 -31.5t-174 33t-142 94.5t-96 156t-35 210.5zM190 1130q23 83 84.5 167.5t98.5 84.5q39 0 132.5 -62.5t131.5 -62.5q34 0 73 43t56 89l53 -21q-28 -100 -88 -178 t-113 -78q-30 0 -130 61.5t-130 61.5q-32 0 -56 -32.5t-52 -96.5zM272 471q0 -207 66 -305t168 -98q50 0 89 17.5t73 60t52.5 125t18.5 200.5q0 212 -65 306.5t-168 94.5t-168.5 -96t-65.5 -305z" />
<glyph unicode="&#xf6;" horiz-adv-x="1009" d="M59 469q0 223 128.5 359.5t318.5 136.5t317 -135t127 -361q0 -120 -34.5 -215t-95.5 -155.5t-141 -92t-173 -31.5t-174 33t-142 94.5t-96 156t-35 210.5zM221 1227q0 43 33 75.5t76 32.5q44 0 75 -32.5t31 -75.5q0 -42 -31 -73.5t-75 -31.5q-43 0 -76 32t-33 73zM272 471 q0 -207 66 -305t168 -98q50 0 89 17.5t73 60t52.5 125t18.5 200.5q0 212 -65 306.5t-168 94.5t-168.5 -96t-65.5 -305zM571 1227q0 43 33 75.5t76 32.5q40 0 73 -33t33 -75q0 -41 -33 -73t-73 -32q-43 0 -76 32t-33 73z" />
<glyph unicode="&#xf7;" d="M139 430v127h828v-127h-828zM444 180q0 44 30.5 75.5t74.5 31.5t75 -31.5t31 -75.5t-31 -74t-75 -30t-74.5 30t-30.5 74zM444 805q0 44 30.5 75t74.5 31t75 -31t31 -75t-31 -74.5t-75 -30.5t-74.5 30.5t-30.5 74.5z" />
<glyph unicode="&#xf8;" horiz-adv-x="1009" d="M45 -96l145 198q-131 134 -131 367q0 223 128.5 359.5t318.5 136.5q142 0 252 -78l98 135h113l-144 -197q125 -138 125 -356q0 -120 -34.5 -215t-95.5 -155.5t-141 -92t-173 -31.5q-134 0 -246 70l-102 -141h-113zM272 471q0 -121 27 -217l377 520q-63 98 -170 98 q-103 0 -168.5 -96t-65.5 -305zM342 158q61 -90 164 -90q50 0 89 17.5t73 60t52.5 125t18.5 200.5q0 117 -22 203z" />
<glyph unicode="&#xf9;" horiz-adv-x="1062" d="M35 838v77l315 37v-633q0 -115 42.5 -160.5t133.5 -45.5q56 0 109 22t82 53v627l-129 23v77l315 37v-825l115 -47v-53l-234 -52h-26l-29 80l-16 13q-142 -93 -275 -93q-120 0 -197 79.5t-77 234.5v526zM281 1393v20h192l176 -336v-16h-104z" />
<glyph unicode="&#xfa;" horiz-adv-x="1062" d="M35 838v77l315 37v-633q0 -115 42.5 -160.5t133.5 -45.5q56 0 109 22t82 53v627l-129 23v77l315 37v-825l115 -47v-53l-234 -52h-26l-29 80l-16 13q-142 -93 -275 -93q-120 0 -197 79.5t-77 234.5v526zM403 1061v16l177 336h192v-20l-264 -332h-105z" />
<glyph unicode="&#xfb;" horiz-adv-x="1062" d="M35 838v77l315 37v-633q0 -115 42.5 -160.5t133.5 -45.5q56 0 109 22t82 53v627l-129 23v77l315 37v-825l115 -47v-53l-234 -52h-26l-29 80l-16 13q-142 -93 -275 -93q-120 0 -197 79.5t-77 234.5v526zM229 1061v16l248 336h98l248 -336v-16h-94l-203 203l-202 -203h-95z " />
<glyph unicode="&#xfc;" horiz-adv-x="1062" d="M35 838v77l315 37v-633q0 -115 42.5 -160.5t133.5 -45.5q56 0 109 22t82 53v627l-129 23v77l315 37v-825l115 -47v-53l-234 -52h-26l-29 80l-16 13q-142 -93 -275 -93q-120 0 -197 79.5t-77 234.5v526zM244 1227q0 43 32.5 75.5t75.5 32.5q44 0 75.5 -32.5t31.5 -75.5 q0 -42 -31.5 -73.5t-75.5 -31.5q-43 0 -75.5 32t-32.5 73zM594 1227q0 43 32.5 75.5t75.5 32.5q40 0 73.5 -33t33.5 -75q0 -41 -33.5 -73t-73.5 -32q-43 0 -75.5 32t-32.5 73z" />
<glyph unicode="&#xfd;" horiz-adv-x="952" d="M-6 -406q0 39 30 68t74 29q27 0 68.5 -23.5t75.5 -23.5q114 0 190 329l-321 863l-97 30v72h404v-72l-117 -30l207 -564h20l195 564l-156 30v72h371v-72l-123 -30l-344 -1022q-58 -174 -135.5 -250t-196.5 -76q-69 0 -107 30.5t-38 75.5zM377 1061v16l176 336h192v-20 l-264 -332h-104z" />
<glyph unicode="&#xfe;" horiz-adv-x="1062" d="M35 1364v53l260 86h55v-641l23 -12q138 115 262 115q45 0 93.5 -17t98 -55t89 -91.5t64 -134t24.5 -175.5q0 -117 -39.5 -216.5t-104.5 -164t-146.5 -100.5t-166.5 -36q-114 0 -197 31v-395l168 -31v-72h-473v72l119 31v1696zM350 158q28 -43 79.5 -70t105.5 -27 q33 0 68.5 11.5t73.5 40.5t67 70.5t48 109t19 149.5q0 89 -26 163t-67 118t-88 68t-93 24q-51 0 -102 -24t-85 -56v-577z" />
<glyph unicode="&#xff;" horiz-adv-x="952" d="M-6 -406q0 39 30 68t74 29q27 0 68.5 -23.5t75.5 -23.5q114 0 190 329l-321 863l-97 30v72h404v-72l-117 -30l207 -564h20l195 564l-156 30v72h371v-72l-123 -30l-344 -1022q-58 -174 -135.5 -250t-196.5 -76q-69 0 -107 30.5t-38 75.5zM217 1227q0 43 33 75.5t76 32.5 q44 0 75 -32.5t31 -75.5q0 -42 -31 -73.5t-75 -31.5q-43 0 -76 32t-33 73zM567 1227q0 43 33 75.5t76 32.5q40 0 73 -33t33 -75q0 -41 -33 -73t-73 -32q-43 0 -76 32t-33 73z" />
<glyph unicode="&#x152;" horiz-adv-x="1980" d="M61 721q0 169 55 311t149.5 237t220.5 148t268 53q104 0 196 -24h844l33 -322h-90l-146 224h-428v-531h281l65 193h82v-512h-82l-65 207h-281v-607h492l186 285h90l-73 -383h-906q-98 -25 -198 -25q-143 0 -268.5 49.5t-220 142t-149.5 235.5t-55 319zM301 723 q0 -133 24 -241.5t65.5 -182t99.5 -123t124 -72t140 -22.5q111 0 192 37v1208q-83 41 -192 41q-94 0 -173.5 -36.5t-143.5 -111t-100 -201.5t-36 -296z" />
<glyph unicode="&#x153;" horiz-adv-x="1587" d="M59 469q0 223 128.5 359.5t318.5 136.5q98 0 183 -39t147 -113q55 71 134.5 111.5t170.5 40.5q84 0 157.5 -32.5t119.5 -82.5t72 -107t26 -110q0 -68 -23 -68l-573 2q-5 -39 -5 -75q6 -165 92.5 -258t209.5 -93q151 0 256 152l63 -43q-146 -275 -389 -275 q-183 0 -303 150q-123 -150 -338 -150q-93 0 -174 33t-142 94.5t-96 156t-35 210.5zM272 471q0 -207 66 -305t168 -98q50 0 89 17.5t73 60t52.5 125t18.5 200.5q0 212 -65 306.5t-168 94.5t-168.5 -96t-65.5 -305zM932 655h354q10 29 10 68q0 71 -46 114.5t-111 43.5 q-83 0 -135 -61t-72 -165z" />
<glyph unicode="&#x178;" horiz-adv-x="1368" d="M35 1364v82h540v-82l-165 -31l303 -522h32l312 522l-183 31v82h459v-82l-153 -31l-387 -661v-559l180 -31v-82h-578v82l180 31v553l-391 667zM449 1714q0 43 32.5 76t75.5 33q44 0 75.5 -33t31.5 -76q0 -42 -31.5 -73t-75.5 -31q-43 0 -75.5 31.5t-32.5 72.5zM799 1714 q0 43 32.5 76t75.5 33q40 0 73.5 -33.5t33.5 -75.5q0 -41 -33.5 -72.5t-73.5 -31.5q-43 0 -75.5 31.5t-32.5 72.5z" />
<glyph unicode="&#x2c6;" horiz-adv-x="1024" d="M215 999v17l248 336h98l248 -336v-17h-94l-203 203l-203 -203h-94z" />
<glyph unicode="&#x2dc;" horiz-adv-x="1024" d="M199 1069q23 83 84 167.5t98 84.5q39 0 132.5 -62.5t131.5 -62.5q34 0 73 42.5t56 88.5l53 -20q-28 -101 -87.5 -178.5t-112.5 -77.5q-31 0 -130 61.5t-130 61.5q-32 0 -56.5 -33t-52.5 -97z" />
<glyph unicode="&#x2000;" horiz-adv-x="956" />
<glyph unicode="&#x2001;" horiz-adv-x="1913" />
<glyph unicode="&#x2002;" horiz-adv-x="956" />
<glyph unicode="&#x2003;" horiz-adv-x="1913" />
<glyph unicode="&#x2004;" horiz-adv-x="637" />
<glyph unicode="&#x2005;" horiz-adv-x="478" />
<glyph unicode="&#x2006;" horiz-adv-x="318" />
<glyph unicode="&#x2007;" horiz-adv-x="318" />
<glyph unicode="&#x2008;" horiz-adv-x="239" />
<glyph unicode="&#x2009;" horiz-adv-x="382" />
<glyph unicode="&#x200a;" horiz-adv-x="106" />
<glyph unicode="&#x2010;" horiz-adv-x="643" d="M66 420v149h512v-149h-512z" />
<glyph unicode="&#x2011;" horiz-adv-x="643" d="M66 420v149h512v-149h-512z" />
<glyph unicode="&#x2012;" horiz-adv-x="643" d="M66 420v149h512v-149h-512z" />
<glyph unicode="&#x2013;" horiz-adv-x="991" d="M86 420v149h819v-149h-819z" />
<glyph unicode="&#x2014;" horiz-adv-x="2088" d="M209 430v129h1671v-129h-1671z" />
<glyph unicode="&#x2018;" horiz-adv-x="780" d="M219 1071q0 75 24 143t63 118t77.5 84.5t79.5 58.5l57 -86q-164 -122 -164 -246q0 -32 12.5 -57.5t32 -40.5t41.5 -31t41.5 -30t32 -37t12.5 -52q0 -47 -28.5 -77t-79.5 -30q-85 0 -143 78.5t-58 204.5z" />
<glyph unicode="&#x2019;" horiz-adv-x="780" d="M252 1368q0 47 28.5 77t79.5 30q85 0 143 -78.5t58 -204.5q0 -75 -24 -143t-63 -118t-77.5 -84.5t-79.5 -58.5l-57 86q164 122 164 246q0 32 -12.5 57.5t-32 40.5t-41.5 31t-41.5 30t-32 37t-12.5 52z" />
<glyph unicode="&#x201a;" horiz-adv-x="780" d="M252 150q0 47 28.5 76.5t79.5 29.5q85 0 143 -78.5t58 -204.5q0 -75 -24 -143t-63 -117.5t-77.5 -84t-79.5 -58.5l-57 86q164 122 164 246q0 32 -12.5 57.5t-32 40.5t-41.5 31t-41.5 30t-32 37t-12.5 52z" />
<glyph unicode="&#x201c;" horiz-adv-x="1271" d="M219 1071q0 75 24 143t63 118t77.5 84.5t79.5 58.5l57 -86q-164 -122 -164 -246q0 -32 12.5 -57.5t32 -40.5t41.5 -31t41.5 -30t32 -37t12.5 -52q0 -47 -28.5 -77t-79.5 -30q-85 0 -143 78.5t-58 204.5zM711 1071q0 75 23.5 143t62.5 118t77.5 84.5t79.5 58.5l58 -86 q-164 -122 -164 -246q0 -32 12.5 -57.5t32 -40.5t41.5 -31t41.5 -30t32 -37t12.5 -52q0 -47 -29 -77t-80 -30q-85 0 -142.5 78.5t-57.5 204.5z" />
<glyph unicode="&#x201d;" horiz-adv-x="1271" d="M252 1368q0 47 28.5 77t79.5 30q85 0 143 -78.5t58 -204.5q0 -75 -24 -143t-63 -118t-77.5 -84.5t-79.5 -58.5l-57 86q164 122 164 246q0 32 -12.5 57.5t-32 40.5t-41.5 31t-41.5 30t-32 37t-12.5 52zM743 1368q0 47 29 77t80 30q85 0 143 -78.5t58 -204.5 q0 -75 -24 -143t-63 -118t-77.5 -84.5t-79.5 -58.5l-57 86q163 121 163 246q0 32 -12.5 57.5t-32 40.5t-41.5 31t-41.5 30t-32 37t-12.5 52z" />
<glyph unicode="&#x201e;" horiz-adv-x="1271" d="M252 150q0 47 28.5 76.5t79.5 29.5q85 0 143 -78.5t58 -204.5q0 -75 -24 -143t-63 -117.5t-77.5 -84t-79.5 -58.5l-57 86q164 122 164 246q0 32 -12.5 57.5t-32 40.5t-41.5 31t-41.5 30t-32 37t-12.5 52zM743 150q0 47 29 76.5t80 29.5q85 0 143 -78.5t58 -204.5 q0 -75 -24 -143t-63 -117.5t-77.5 -84t-79.5 -58.5l-57 86q163 121 163 246q0 32 -12.5 57.5t-32 40.5t-41.5 31t-41.5 30t-32 37t-12.5 52z" />
<glyph unicode="&#x2022;" horiz-adv-x="1171" d="M307 541q0 115 81.5 196.5t197.5 81.5t197 -81.5t81 -196.5q0 -116 -81.5 -197.5t-196.5 -81.5q-116 0 -197.5 82t-81.5 197z" />
<glyph unicode="&#x2026;" horiz-adv-x="2033" d="M250 117q0 56 38 94.5t93 38.5t94 -39t39 -94t-38.5 -93t-94.5 -38q-55 0 -93 38t-38 93zM885 117q0 56 38 94.5t93 38.5q56 0 94.5 -39t38.5 -94t-38.5 -93t-94.5 -38t-93.5 38t-37.5 93zM1520 117q0 56 38 94.5t93 38.5t94 -39t39 -94t-38.5 -93t-94.5 -38 q-55 0 -93 38t-38 93z" />
<glyph unicode="&#x202f;" horiz-adv-x="382" />
<glyph unicode="&#x2039;" horiz-adv-x="911" d="M205 444v48l373 448l67 -41l-221 -412v-30l221 -416l-67 -49z" />
<glyph unicode="&#x203a;" horiz-adv-x="911" d="M266 41l221 416v30l-221 412l68 41l373 -448v-48l-373 -452z" />
<glyph unicode="&#x205f;" horiz-adv-x="478" />
<glyph unicode="&#x20ac;" horiz-adv-x="1335" d="M123 528l20 84h107v27q0 49 2 74h-129l20 84h119q41 234 190 372t347 138q100 0 204 -33t189 -96l-62 -258h-59q2 67 -15.5 120t-46.5 84.5t-67.5 52.5t-73.5 29t-69 8q-124 0 -211.5 -105t-112.5 -312h615l-21 -84h-600q-2 -25 -2 -72v-29h582l-21 -84h-557 q11 -111 44 -199.5t78 -142.5t97 -82t105 -28q234 0 317 256l80 -27q-108 -330 -418 -330q-203 0 -347 146t-171 407h-133z" />
<glyph unicode="&#x2122;" horiz-adv-x="1372" d="M86 1294l27 152h430l28 -152h-41l-65 97h-78v-400l66 -12v-47h-248v47l65 12v400h-75l-66 -97h-43zM573 932v47l68 12l39 395l-78 13v47h193l127 -338h14l145 338h189v-47l-72 -13l25 -395l63 -12v-47h-242v47l70 12l-18 307h-15l-159 -366h-35l-152 366h-10l-31 -307 l68 -12v-47h-189z" />
<glyph unicode="&#x25fc;" horiz-adv-x="942" d="M0 0v942h942v-942h-942z" />
</font>
</defs>
</svg>
