<?xml version="1.0" standalone="no"?>
<!DOCTYPE svg PUBLIC "-//W3C//DTD SVG 1.1//EN" "http://www.w3.org/Graphics/SVG/1.1/DTD/svg11.dtd" >
<svg xmlns="http://www.w3.org/2000/svg">
<metadata></metadata>
<defs>
<font id="equity_text_abold_italic" horiz-adv-x="1105" >
<font-face units-per-em="2048" ascent="1524" descent="-524" />
<missing-glyph horiz-adv-x="430" />
<glyph unicode="&#xfb01;" horiz-adv-x="1220" d="M-346 -287q0 48 28.5 80.5t73.5 32.5q41 0 68 -19.5t40 -47t22.5 -55t23.5 -47t35 -19.5q70 0 131 258l233 925h-184l37 117h170l51 205q41 158 171.5 263t322.5 105q161 0 261.5 -77.5t100.5 -173.5q0 -55 -29.5 -86t-85.5 -31q-60 0 -97.5 28t-53.5 67.5t-28 79 t-34 67.5t-59 28q-33 0 -60 -19.5t-49 -61t-38.5 -87.5t-36.5 -117l-54 -190h598l-225 -686q-8 -19 -9.5 -33t4.5 -22.5t19 -8.5q59 0 144 150l61 -33q-188 -334 -399 -334q-43 0 -69 25t-32 81.5t23 147.5l189 596h-330l-232 -823q-60 -215 -176 -339t-270 -124 q-109 0 -182.5 48t-73.5 130z" />
<glyph unicode="&#xfb02;" horiz-adv-x="1232" d="M-346 -287q0 48 28.5 80.5t73.5 32.5q41 0 68 -19.5t40 -47t22.5 -55t23.5 -47t35 -19.5q70 0 131 258l233 925h-184l37 117h170l51 205q41 158 171.5 263t322.5 105q128 0 225 -73l227 65l55 -61l-399 -1243q-20 -64 21 -64q14 0 31 16.5t35.5 47.5t34.5 60t36 69 q5 11 8 16l61 -33q-87 -176 -168.5 -258t-189.5 -82q-97 0 -130 62.5t5 187.5l309 965q-36 13 -59.5 42t-34.5 59.5t-20.5 59.5t-26.5 47.5t-45 18.5q-33 0 -60 -19.5t-49 -61t-38.5 -87.5t-36.5 -117l-54 -190h228l-35 -117h-219l-230 -823q-59 -216 -176.5 -339.5 t-271.5 -123.5q-109 0 -182.5 48t-73.5 130z" />
<glyph unicode="&#xfb03;" horiz-adv-x="1832" d="M-346 -287q0 48 28.5 80.5t73.5 32.5q41 0 68 -19.5t40 -47t22.5 -55t23.5 -47t35 -19.5q70 0 131 258l231 925h-182l37 117h170l51 205q45 152 167 239.5t302 87.5q174 0 272 -102q143 143 365 143q161 0 261.5 -77.5t100.5 -173.5q0 -55 -29 -86t-85 -31 q-60 0 -97.5 28t-53.5 67.5t-28.5 79t-34.5 67.5t-59 28q-33 0 -60 -19.5t-49 -61t-38.5 -87.5t-36.5 -117l-53 -190h598l-226 -686q-12 -28 -8.5 -46t23.5 -18q30 0 68 36.5t75 113.5l62 -33q-85 -147 -187 -240.5t-213 -93.5q-43 0 -69 25t-32 81.5t23 147.5l189 596h-330 l-221 -803q-60 -215 -173.5 -328.5t-270.5 -113.5q-90 0 -153 40t-63 108q0 48 29 80t74 32q32 0 53 -16.5t31 -39.5t17.5 -46t18 -39.5t27.5 -16.5q70 0 131 259l222 884h-336l-230 -821q-60 -215 -176.5 -340t-269.5 -125q-109 0 -182.5 48t-73.5 130zM614 938h330l51 205 l6 22q-34 17 -54.5 53.5t-28 69.5t-27 58.5t-53.5 25.5q-54 0 -92 -61t-78 -183z" />
<glyph unicode="&#xfb04;" horiz-adv-x="1845" d="M-346 -287q0 48 28.5 80.5t73.5 32.5q41 0 68 -19.5t40 -47t22.5 -55t23.5 -47t35 -19.5q70 0 131 258l231 925h-182l37 117h170l51 205q45 152 167 239.5t302 87.5q174 0 272 -102q143 143 365 143q128 0 225 -73l228 65l55 -61l-404 -1243q-9 -29 -5 -46.5t26 -17.5 q44 0 151 209l62 -33q-86 -173 -169.5 -256.5t-195.5 -83.5q-96 0 -128.5 62t3.5 188l314 965q-36 13 -59.5 42t-34.5 59.5t-21 59.5t-27 47.5t-45 18.5q-33 0 -60 -19.5t-49 -61t-38.5 -87.5t-36.5 -117l-53 -190h229l-37 -117h-219l-221 -803q-59 -212 -173.5 -327 t-270.5 -115q-90 0 -153 40t-63 108q0 48 29 80t74 32q32 0 53 -16.5t31 -39.5t17.5 -46t18 -39.5t27.5 -16.5q70 0 131 259l222 884h-336l-230 -821q-61 -219 -176.5 -342t-269.5 -123q-109 0 -182.5 48t-73.5 130zM614 938h330l51 205l6 22q-34 17 -54.5 53.5t-28 69.5 t-27 58.5t-53.5 25.5q-54 0 -92 -61t-78 -183z" />
<glyph horiz-adv-x="2048" />
<glyph horiz-adv-x="2048" />
<glyph unicode="&#xd;" horiz-adv-x="2048" />
<glyph unicode=" "  horiz-adv-x="430" />
<glyph unicode="&#x09;" horiz-adv-x="430" />
<glyph unicode="&#xa0;" horiz-adv-x="430" />
<glyph unicode="!" horiz-adv-x="749" d="M125 150q0 69 47.5 118t116.5 49t118.5 -49t49.5 -118t-49.5 -116.5t-118.5 -47.5t-116.5 47.5t-47.5 116.5zM315 510l207 1018l320 -80l-387 -973z" />
<glyph unicode="&#x22;" horiz-adv-x="876" d="M350 895l41 481q7 76 36 115t93 25l62 -15q48 -11 62 -61t-13 -125l-164 -449zM717 895l41 481q7 76 36 115t93 25l61 -15q48 -11 62 -61t-13 -125l-163 -449z" />
<glyph unicode="#" horiz-adv-x="1099" d="M156 401l30 185l191 -29l82 264l-174 27l26 184l205 -31l137 433l115 -37l-131 -414l176 -27l145 457l115 -37l-139 -438l162 -25l-27 -184l-192 29l-84 -264l178 -27l-31 -186l-207 30l-160 -504l-112 35l153 488l-176 26l-168 -528l-112 35l161 512zM496 539l176 -27 l84 264l-176 27z" />
<glyph unicode="$" horiz-adv-x="1118" d="M31 31l106 401h80q14 -108 56 -192.5t106 -128.5l162 450l-27 23q-54 45 -89 80t-73 83.5t-57 103.5t-19 116q0 142 110 241t278 99q69 0 139 -13l61 174l88 -26l-61 -174q57 -21 125 -64l35 25h77l-55 -383h-76q-33 210 -147 309l-139 -389l16 -12q50 -40 85.5 -73.5 t74.5 -82t59.5 -105.5t20.5 -120q0 -91 -40 -168t-104 -125.5t-140 -75.5t-151 -27q-46 0 -100 7l-65 -183l-88 27l61 172q-96 22 -166 70l-53 -39h-90zM465 76q12 -2 37 -2q98 0 160.5 55.5t62.5 146.5q0 58 -25 107.5t-86 110.5zM516 1044q0 -64 30 -114t89 -101l135 377 q-46 17 -78 17q-74 0 -125 -49t-51 -130z" />
<glyph unicode="%" horiz-adv-x="1288" d="M117 25l483 550l401 465l-6 11q-73 -31 -137 -31q-73 0 -119 39l-8 -2q-3 -168 -91 -277.5t-204 -109.5q-98 0 -159.5 73.5t-61.5 186.5q0 152 96 264.5t207 112.5q140 0 189 -123q12 -31 51.5 -50.5t85.5 -19.5q133 0 241 64q63 116 154 116q19 0 34 -14t15 -39 q0 -57 -90 -119l-506 -585l-465 -584zM408 864q0 -102 73 -102q56 0 105 79t49 203q0 52 -19.5 80.5t-50.5 28.5q-57 0 -107 -91.5t-50 -197.5zM676 236q0 152 96 264t207 112q94 0 153.5 -64.5t59.5 -176.5q0 -90 -26.5 -166.5t-68.5 -125.5t-93.5 -76.5t-102.5 -27.5 q-100 0 -162.5 73.5t-62.5 187.5zM868 176q0 -49 20 -75.5t52 -26.5q55 0 105.5 79.5t50.5 202.5q0 52 -19.5 80.5t-50.5 28.5q-57 0 -107.5 -92t-50.5 -197z" />
<glyph unicode="&#x26;" horiz-adv-x="1560" d="M178 432q0 285 346 475v17q-41 31 -62.5 80t-21.5 98q0 129 113 217t264 88q145 0 238.5 -52t93.5 -138q0 -42 -25 -69.5t-67 -27.5q-36 0 -61 21.5t-39.5 52t-29 61.5t-38.5 52.5t-58 21.5q-62 0 -97.5 -57.5t-35.5 -141.5q0 -108 56 -178q79 6 119 -17.5t40 -64.5 q0 -75 -112 -75q-80 0 -131 61q-91 -69 -133.5 -159t-42.5 -220q0 -147 101 -242.5t282 -95.5q71 0 135 16.5t121.5 52t92 101t34.5 154.5q0 55 -25.5 109.5t-71.5 93.5q-107 -33 -166 -63t-79 -56t-23 -62l4 -12q3 1 15 7t20 9.5t21.5 7t25.5 3.5q25 0 41 -18t16 -46 q0 -31 -29.5 -53.5t-78.5 -22.5q-61 0 -97 45t-36 117q0 121 92 202.5t274 139.5q181 58 243 99.5t54 83.5l-6 6q-25 -23 -74 -23q-26 0 -47.5 19t-21.5 47q0 32 25.5 55t72.5 23q59 0 100 -49t41 -140q0 -200 -256 -283q49 -49 72 -117.5t23 -129.5q0 -145 -74.5 -255 t-202 -167.5t-287.5 -57.5q-145 0 -260 29.5t-186 75.5t-118 108t-65 122t-18 122z" />
<glyph unicode="'" horiz-adv-x="509" d="M350 895l41 481q7 76 36 115t93 25l62 -15q48 -11 62 -61t-13 -125l-164 -449z" />
<glyph unicode="(" horiz-adv-x="741" d="M137 297q0 122 21.5 233.5t58.5 206t96.5 185t126 166.5t156.5 155t179 145t202 142l57 -74q-185 -145 -316 -301.5t-206 -319t-108 -322.5t-33 -337q0 -194 51 -335t156 -271l-76 -68q-159 123 -262 351t-103 444z" />
<glyph unicode=")" horiz-adv-x="741" d="M-182 -424q185 145 316 301.5t206 319t108 322.5t33 337q0 194 -51 335t-156 271l76 68q159 -123 262 -351t103 -444q0 -122 -21.5 -233.5t-58.5 -206t-96.5 -185t-126 -166.5t-156.5 -155t-179 -145t-202 -142z" />
<glyph unicode="*" horiz-adv-x="1044" d="M267 1014q9 60 67 67q15 1 105.5 5t168.5 10q-61 57 -139 99.5t-84 47.5q-42 33 -15 94q23 50 68 71q58 27 92 -28q7 -12 32 -55t51.5 -84t60.5 -86q12 82 13 163.5t3 104.5q6 52 66 59q58 7 105 -27q54 -40 28 -93q-10 -16 -37 -53t-53 -80t-49 -96q41 13 73.5 25t59 24 t40.5 19t40 20.5t34 17.5q47 23 87 -29q36 -47 31 -102q-5 -59 -60 -65l-8 -1q-10 0 -101 7t-168 -2q125 -106 221 -164q44 -29 18 -90q-22 -50 -69 -75q-61 -33 -97 18q-3 3 -5 7q-11 18 -29 56.5t-44.5 83.5t-67.5 94q-9 -82 -13.5 -172.5t-5.5 -102.5q-5 -49 -63 -58 q-55 -9 -101 23q-55 37 -28 93q11 23 53 92.5t80 146.5q-64 -17 -110 -39t-81.5 -44.5t-54.5 -30.5q-47 -22 -85 29q-35 46 -29 100z" />
<glyph unicode="+" d="M139 410v168h330v329h168v-329h330v-168h-330v-330h-168v330h-330z" />
<glyph unicode="," horiz-adv-x="669" d="M-127 -362q159 0 251.5 79t92.5 187q0 36 -17.5 65.5t-42 50t-49 40t-42 45.5t-17.5 57q0 54 44 95.5t114 41.5q89 0 159 -82t70 -221q0 -80 -42.5 -160t-115.5 -143t-179.5 -102.5t-225.5 -39.5v87z" />
<glyph unicode="-" horiz-adv-x="643" d="M74 410l63 211h512l-63 -211h-512z" />
<glyph unicode="." horiz-adv-x="518" d="M4 154q0 71 49 121.5t119 50.5t121 -51t51 -121t-50.5 -119t-121.5 -49q-70 0 -119 49t-49 119z" />
<glyph unicode="/" horiz-adv-x="839" d="M-184 -250l1124 1753h197l-1125 -1753h-196z" />
<glyph unicode="0" horiz-adv-x="1095" d="M94 371q0 165 40 314t109 260.5t159 194t193 125t208 42.5q159 0 240 -108.5t81 -287.5q0 -176 -60 -349t-155 -301t-218.5 -207t-244.5 -79q-154 0 -253 109t-99 287zM367 203q0 -70 25.5 -105t64.5 -35q63 0 119.5 84.5t111.5 233.5q71 191 120.5 391t49.5 318 q0 129 -80 129q-131 0 -256 -301q-68 -169 -111.5 -361t-43.5 -354z" />
<glyph unicode="1" horiz-adv-x="866" d="M4 0v86l213 31l291 952q-68 -33 -155.5 -60.5t-162.5 -37.5l33 127q243 46 451 200l186 -10l-360 -1171l198 -31v-86h-694z" />
<glyph unicode="2" horiz-adv-x="1024" d="M-63 0v72q833 606 833 886q0 67 -41.5 109.5t-118.5 42.5q-124 0 -321 -143l-41 65q119 108 268.5 191.5t276.5 83.5q134 0 201 -63.5t67 -166.5q0 -73 -33 -151t-86 -148.5t-133 -146.5t-162 -140.5t-184 -136.5l-105 -84l4 -28h330l111 133l74 -27l-162 -348h-778z" />
<glyph unicode="3" horiz-adv-x="940" d="M-43 162q0 52 35 84.5t78 32.5q37 0 63.5 -21t42 -50.5t31.5 -59.5t42.5 -51t63.5 -21q60 0 119 31.5t102.5 101t43.5 162.5q0 117 -56 187.5t-112 70.5q-11 0 -27 -4l-61 -31l-37 84q238 113 350.5 201.5t112.5 181.5q0 74 -99 74q-64 0 -150.5 -35t-160.5 -94l-41 59 q101 102 240.5 172t273.5 70q102 0 158.5 -48t56.5 -133q0 -197 -371 -378v-21q90 -35 148.5 -108t58.5 -187q0 -132 -84 -238t-221.5 -162.5t-298.5 -56.5q-150 0 -225.5 49t-75.5 138z" />
<glyph unicode="4" horiz-adv-x="1085" d="M51 432l975 891l113 -35l-242 -792h154l-43 -140h-154l-109 -356h-264l109 356h-531zM295 516l4 -20h334l129 419l-19 13z" />
<glyph unicode="5" horiz-adv-x="946" d="M-47 133q0 52 30.5 89.5t82.5 37.5q37 0 64 -16.5t45.5 -39.5t38 -46t53.5 -39.5t81 -16.5q100 0 182 89t82 206q0 112 -65 169t-168 57q-84 0 -156 -27l-26 37l247 649h539l57 80h80l-135 -322h-524l-78 -204l14 -17q47 21 123 21q69 0 131 -22t112 -64t79.5 -111 t29.5 -156q0 -106 -55 -202.5t-144 -163.5t-204 -106.5t-233 -39.5q-136 0 -209.5 45t-73.5 113z" />
<glyph unicode="6" horiz-adv-x="1067" d="M80 315q0 170 76 332t213 296t335.5 236.5t434.5 153.5v-98q-214 -68 -392.5 -189.5t-269.5 -277.5l29 -16q41 35 110 59.5t140 24.5q137 0 210.5 -76t73.5 -209q0 -66 -23.5 -142t-73.5 -153t-118.5 -139.5t-167.5 -102t-211 -39.5q-176 0 -271 86.5t-95 253.5zM350 219 q0 -143 107 -143q68 0 137 75.5t113.5 194t44.5 236.5q0 62 -26.5 94.5t-68.5 32.5q-120 0 -227 -119q-33 -78 -56.5 -180t-23.5 -191z" />
<glyph unicode="7" horiz-adv-x="976" d="M172 53q128 287 305 546t342 413l-4 28h-428l-113 -163h-92l199 405h782l23 -74q-257 -224 -437.5 -524.5t-265.5 -632.5q-12 -37 -59 -56.5t-113 -19.5q-87 0 -122.5 17.5t-16.5 60.5z" />
<glyph unicode="8" horiz-adv-x="1003" d="M27 240q0 119 100 230.5t287 182.5v21q-56 71 -86.5 135t-30.5 139q0 159 119 259t319 100q166 0 264.5 -74t98.5 -193q0 -113 -93.5 -199.5t-252.5 -146.5v-22q64 -88 99.5 -159t35.5 -142q0 -94 -43.5 -171t-115 -125t-159 -74t-180.5 -26q-178 0 -270 74t-92 191z M250 248q0 -81 44 -129.5t114 -48.5q77 0 137.5 67t60.5 182q0 71 -33 134t-94 139q-103 -47 -166 -138.5t-63 -205.5zM567 1022q0 -103 121 -264q102 53 151.5 125.5t49.5 152.5q0 84 -43.5 133.5t-114.5 49.5q-75 0 -119.5 -56t-44.5 -141z" />
<glyph unicode="9" horiz-adv-x="1067" d="M20 -51v102q228 54 414 182t287 302l-29 16q-118 -105 -260 -105q-132 0 -205 81t-73 200t50.5 227.5t133 185t191 122t221.5 45.5q72 0 134.5 -22.5t112.5 -68t78.5 -120.5t28.5 -172q0 -166 -79 -326.5t-218.5 -291.5t-344 -226t-442.5 -131zM426 713q0 -70 26 -106 t74 -36q115 0 246 148q27 62 51.5 151.5t24.5 157.5q0 184 -119 184q-48 0 -101.5 -39t-98.5 -104t-74 -160t-29 -196z" />
<glyph unicode=":" horiz-adv-x="518" d="M6 154q0 71 49 121.5t119 50.5t121 -51t51 -121t-50.5 -119t-121.5 -49q-70 0 -119 49t-49 119zM172 735q0 71 49 121.5t119 50.5t121 -50.5t51 -121.5q0 -70 -50.5 -119t-121.5 -49q-70 0 -119 48.5t-49 119.5z" />
<glyph unicode=";" horiz-adv-x="751" d="M-94 -362q159 0 251.5 79t92.5 187q0 36 -17.5 65.5t-42 50t-49 40t-42 45.5t-17.5 57q0 54 44 95.5t114 41.5q89 0 159 -82t70 -221q0 -80 -42.5 -160t-115.5 -143t-179.5 -102.5t-225.5 -39.5v87zM272 735q0 71 49 121.5t119 50.5t121 -50.5t51 -121.5 q0 -70 -50.5 -119t-121.5 -49q-70 0 -119 48.5t-49 119.5z" />
<glyph unicode="&#x3c;" d="M139 430v127l828 348v-178l-570 -233l570 -234v-178z" />
<glyph unicode="=" d="M139 260v168h828v-168h-828zM139 567v168h828v-168h-828z" />
<glyph unicode="&#x3e;" d="M139 82v178l570 234l-570 233v178l828 -348v-127z" />
<glyph unicode="?" horiz-adv-x="919" d="M186 150q0 69 47.5 118t116.5 49t118.5 -49t49.5 -118t-49.5 -116.5t-118.5 -47.5t-116.5 47.5t-47.5 116.5zM287 666q0 84 33 148t85 103.5t115.5 71t127 60t115.5 60t85 81.5t33 115q0 61 -29.5 98t-75.5 37q-34 0 -57.5 -24t-37 -58t-27.5 -68t-41 -58t-66 -24 q-53 0 -82 29.5t-29 79.5q0 92 91.5 148.5t220.5 56.5q141 0 240 -74.5t99 -202.5q0 -89 -32.5 -158.5t-84 -113t-114.5 -77.5t-125.5 -60.5t-114 -53.5t-84 -65.5t-32.5 -87.5q0 -84 106 -84q20 0 53 10l13 -74q-53 -18 -142 -18q-109 0 -176 60t-67 143z" />
<glyph unicode="@" horiz-adv-x="1671" d="M86 444q0 173 63.5 338.5t175.5 295.5t280 210t362 80q316 0 504 -179.5t188 -471.5q0 -140 -31.5 -257.5t-81 -194.5t-113 -131t-126 -77.5t-121.5 -23.5q-150 0 -197 139h-20q-64 -69 -125.5 -100t-138.5 -31q-70 0 -132.5 73t-62.5 144q0 65 59.5 123.5t173.5 116.5 l238 118v91q0 194 -127 194q-30 0 -63 -19t-48 -46q0 -4 6.5 -44.5t6.5 -62.5q0 -48 -41 -74t-97 -26q-45 0 -77.5 34t-32.5 87q0 71 67 122q87 54 194 104t169 50q133 0 204.5 -67.5t71.5 -178.5v-522q0 -88 43 -88q31 0 67.5 40t70 108t56 174.5t22.5 224.5 q0 62 -13 127.5t-49 141.5t-90.5 134.5t-148 97.5t-211.5 39q-139 0 -262.5 -61t-213.5 -167t-142 -259t-52 -328q0 -304 135 -465t360 -161q206 0 406 98l47 -107q-229 -112 -457 -112q-149 0 -277 51.5t-221 146.5t-145.5 237t-52.5 314zM754 315q0 -48 28 -84t66 -36 q46 0 89.5 41.5t43.5 97.5v194l-133 -71q-94 -51 -94 -142z" />
<glyph unicode="A" horiz-adv-x="1462" d="M-61 0v86l153 51l1102 1333l215 -20l-225 -1333l143 -31v-86h-651v86l178 31l82 418h-373l-321 -398l116 -51v-86h-419zM645 635h309l90 457l-22 6z" />
<glyph unicode="B" horiz-adv-x="1359" d="M-66 0v82l183 31l350 1220l-162 31v82h533q146 0 258.5 -38.5t181 -123t68.5 -205.5q0 -124 -81.5 -212.5t-211.5 -127.5v-28q104 -34 172.5 -115.5t68.5 -189.5q0 -191 -174.5 -298.5t-486.5 -107.5h-699zM428 113h193q151 0 247.5 82.5t96.5 248.5q0 96 -62 162 t-194 66h-123zM616 776h111q52 0 102 20t92.5 59t68.5 103.5t26 145.5q0 109 -49 169t-133 60h-56z" />
<glyph unicode="C" horiz-adv-x="1443" d="M164 596q0 177 73 340t193 279.5t280 185.5t328 69q129 0 229.5 -41.5t196.5 -125.5l37 40h90l-121 -389h-88q0 414 -297 414q-80 0 -163.5 -38.5t-160 -116.5t-136 -184t-95.5 -252t-36 -310q0 -209 71 -297t217 -88q149 0 278 106t212 267h100l-86 -281 q-141 -102 -260 -150.5t-272 -48.5q-92 0 -178 24.5t-161 76t-130.5 123.5t-88 174.5t-32.5 222.5z" />
<glyph unicode="D" horiz-adv-x="1660" d="M-66 0v86l187 31l375 1212l-172 31v86h682q319 0 499.5 -153.5t180.5 -426.5q0 -71 -18.5 -148.5t-60 -162.5t-102 -164t-151 -150.5t-199.5 -124.5t-254.5 -84.5t-310.5 -31.5h-656zM451 113h188q192 0 356.5 114.5t259.5 306t95 410.5q0 192 -95 290.5t-243 98.5h-187z " />
<glyph unicode="E" horiz-adv-x="1310" d="M-66 0v86l187 31l375 1212l-172 31v86h1052v-424h-90l-158 326h-299l-161 -531h213l102 172h98l-135 -491h-98v207h-215l-187 -607h383l377 305h90l-231 -403h-1131z" />
<glyph unicode="F" horiz-adv-x="1191" d="M-66 0v86l187 31l375 1212l-172 31v86h1007v-424h-90l-162 326h-250l-167 -531h217l98 172h100l-137 -491h-94v207h-217l-183 -588l181 -31v-86h-693z" />
<glyph unicode="G" horiz-adv-x="1572" d="M164 532q0 161 47 307.5t132 260t198 197.5t249 128.5t281 44.5q235 0 393 -167l37 40h90l-121 -368h-88q0 393 -297 393q-99 0 -203 -68.5t-188.5 -182t-139 -276.5t-54.5 -337q0 -118 23.5 -202t68 -131t101 -68t130.5 -21q45 0 103.5 17t87.5 42l145 463l-160 31v86 h615v-86l-125 -31l-158 -512q-289 -117 -575 -117q-125 0 -233.5 38.5t-188 109t-125 176t-45.5 233.5z" />
<glyph unicode="H" horiz-adv-x="1701" d="M-66 0v86l185 31l375 1212l-170 31v86h686v-86l-189 -31l-164 -530h617l164 530l-172 31v86h686v-86l-187 -31l-374 -1212l170 -31v-86h-687v86l189 31l176 569h-616l-177 -569l172 -31v-86h-684z" />
<glyph unicode="I" horiz-adv-x="759" d="M-66 0v86l185 31l375 1212l-170 31v86h686v-86l-189 -31l-375 -1212l172 -31v-86h-684z" />
<glyph unicode="J" horiz-adv-x="1173" d="M20 268q0 126 66.5 200.5t157.5 74.5q76 0 120 -40.5t44 -103.5q0 -53 -34.5 -96t-97.5 -43q-49 0 -92 31l-18 -19q0 -95 50 -137.5t122 -42.5q185 0 270 283l293 954l-209 31v86h731v-86l-202 -31l-297 -964q-33 -109 -90 -188t-131.5 -124.5t-156.5 -66.5t-177 -21 q-156 0 -252.5 83t-96.5 220z" />
<glyph unicode="K" horiz-adv-x="1492" d="M-66 0v86l189 31l375 1212l-172 31v86h657v-86l-166 -31l-158 -508h35l578 508l-115 31v86h406v-86l-150 -31l-500 -450l304 -748l169 -45v-86h-657v86l154 31l-221 575h-44l-176 -575l170 -31v-86h-678z" />
<glyph unicode="L" horiz-adv-x="1280" d="M-66 0v86l187 31l375 1212l-172 31v86h698v-86l-197 -31l-379 -1231h402l344 351h90l-174 -449h-1174z" />
<glyph unicode="M" horiz-adv-x="1818" d="M-82 0v86l123 51l557 1098l-4 92l-148 31v88h459l37 -817h35l455 817h430v-86l-146 -49l-143 -1194l133 -31v-86h-623v86l170 31l125 966h-30l-598 -1087h-88l-46 981h-22l-426 -840l125 -51v-86h-375z" />
<glyph unicode="N" horiz-adv-x="1648" d="M-86 0v86l174 51l535 1192l-148 31v86h432l293 -1038h29l385 901l-164 51v86h471v-86l-188 -51l-553 -1313h-191l-315 1116h-29l-438 -975l160 -51v-86h-453z" />
<glyph unicode="O" horiz-adv-x="1644" d="M164 602q0 150 50.5 287.5t138 241.5t201 181.5t242.5 117.5t259 40q280 0 445 -158t165 -431q0 -132 -36.5 -255t-100 -221.5t-149.5 -180t-184.5 -135.5t-205 -84t-211.5 -30q-181 0 -318 69.5t-216.5 212.5t-79.5 345zM494 393q0 -159 75 -235t205 -76 q109 0 215.5 98.5t181 246t120.5 319.5t46 319q0 151 -71 227t-181 76q-139 0 -278 -148t-226 -376t-87 -451z" />
<glyph unicode="P" horiz-adv-x="1200" d="M-66 0v82l183 31l352 1220l-137 31v82h536q210 0 332.5 -108t122.5 -277q0 -128 -66 -231.5t-180 -160.5t-252 -57q-152 0 -237 70l-162 -569l137 -31v-82h-629zM623 782q12 -23 42 -37t70 -14q109 0 185.5 98t76.5 252q0 68 -17 119t-45 79t-59 41t-63 13h-29z" />
<glyph unicode="Q" horiz-adv-x="1644" d="M164 602q0 150 50.5 287.5t138 241.5t201 181.5t242.5 117.5t259 40q280 0 445 -158t165 -431q0 -156 -50.5 -298.5t-136.5 -249.5t-197 -187.5t-236 -123t-250 -45.5q-56 -71 -117 -102q78 -4 159 -26.5t148.5 -52t133 -58.5t134.5 -48.5t131 -19.5q87 0 149.5 26 t117.5 91l39 -31q-162 -264 -459 -264q-103 0 -194.5 19.5t-162 51.5t-128 65t-120.5 68.5t-112 53.5q-45 0 -115.5 -41t-122.5 -41q-37 0 -63.5 21.5t-26.5 52.5q0 34 18.5 57.5t54 37t71 22t86 19t82.5 20.5q65 23 116 94q-209 44 -329.5 200t-120.5 410zM494 393 q0 -159 75 -235t205 -76q109 0 215.5 98.5t181 246t120.5 319.5t46 319q0 151 -71 227t-181 76q-139 0 -278 -148t-226 -376t-87 -451z" />
<glyph unicode="R" horiz-adv-x="1402" d="M-66 0v86l183 31l350 1212l-158 31v86h572q201 0 326.5 -103.5t125.5 -261.5q0 -139 -96.5 -250t-267.5 -147l151 -567l166 -31v-86h-455l-159 664h-76l-160 -547l137 -31v-86h-639zM625 770h45q98 0 177 50.5t121 128t42 163.5q0 92 -53 156.5t-140 64.5h-31z" />
<glyph unicode="S" horiz-adv-x="1271" d="M51 35l119 454h92q24 -179 111.5 -292t222.5 -113q103 0 172.5 62t69.5 163q0 89 -51 165.5t-189 184.5q-59 45 -101 85.5t-83 93.5t-62.5 115.5t-21.5 131.5q0 161 130.5 273t330.5 112q219 0 397 -114l43 26h86l-62 -434h-88q-32 206 -135 317t-219 111 q-79 0 -134.5 -55.5t-55.5 -146.5q0 -41 12.5 -78t30 -64.5t50.5 -59.5t59 -53t71 -55q11 -8 16 -12q56 -42 98 -82t84.5 -94.5t65.5 -119.5t23 -136q0 -104 -47 -190.5t-124 -141t-169.5 -84t-188.5 -29.5q-225 0 -389 105l-63 -45h-101z" />
<glyph unicode="T" horiz-adv-x="1323" d="M166 1042l196 404h1197v-404h-95l-133 306h-227l-379 -1231l180 -31v-86h-706v86l196 31l379 1231h-217l-301 -306h-90z" />
<glyph unicode="U" horiz-adv-x="1579" d="M209 381q2 68 24 141l248 807l-170 31v86h690v-86l-190 -31l-242 -790q-29 -91 -28 -165q0 -81 34 -140q66 -113 234 -113q170 0 309 116t205 330l227 742l-153 51v86h458v-86l-182 -51l-237 -777q-27 -87 -68.5 -166t-105 -151.5t-140.5 -125t-179.5 -83.5t-217.5 -31 q-106 0 -193 20.5t-147.5 57t-101.5 87.5t-59 112q-16 55 -15 115v14z" />
<glyph unicode="V" horiz-adv-x="1396" d="M207 0l225 1329l-143 31v86h651v-86l-178 -31l-176 -938l22 -6l766 924l-117 51v86h420v-86l-153 -51l-1090 -1309h-227z" />
<glyph unicode="W" horiz-adv-x="1902" d="M207 0l215 1329l-141 31v86h614v-86l-154 -31l-141 -799h33l416 514l43 285l-127 31v86h614v-86l-168 -31l-127 -799h33l606 799l-137 31v86h397v-86l-121 -31l-1013 -1329h-158l129 852l-674 -852h-139z" />
<glyph unicode="X" horiz-adv-x="1531" d="M-96 0v82l145 31l653 544l-86 676l-165 31v82h671v-82l-184 -31l55 -432l516 432l-172 31v82h478v-82l-152 -31l-655 -551l86 -669l166 -31v-82h-672v82l184 31l-55 426l-508 -426l172 -31v-82h-477z" />
<glyph unicode="Y" horiz-adv-x="1372" d="M242 0v86l188 31l172 555l-162 657l-147 31v86h622v-86l-170 -31l123 -538h33l461 538l-178 31v86h458v-86l-155 -31l-565 -665l-172 -547l172 -31v-86h-680z" />
<glyph unicode="Z" horiz-adv-x="1325" d="M-78 51l1229 1266l-4 31h-406l-280 -326h-90l157 424h1051l12 -39l-1251 -1282l4 -27h533l282 305h90l-155 -403h-1162z" />
<glyph unicode="[" horiz-adv-x="808" d="M-72 -477l609 1986q115 -11 280.5 -11t247.5 13l-39 -131q-66 -10 -156.5 -10t-130.5 10l-526 -1720q40 9 140.5 9t158.5 -9l-43 -139q-88 12 -253 13t-288 -11z" />
<glyph unicode="\" horiz-adv-x="839" d="M-297 1503h197l1124 -1753h-197z" />
<glyph unicode="]" horiz-adv-x="808" d="M-221 -479l39 131q66 10 156 10t130 -10l527 1720q-40 -9 -140 -9t-159 9l43 139q88 -12 252.5 -13t287.5 11l-608 -1986q-115 11 -280.5 11t-247.5 -13z" />
<glyph unicode="^" d="M72 643l454 772h56l452 -772l-160 -94l-311 559h-16l-318 -559z" />
<glyph unicode="_" horiz-adv-x="1236" d="M-231 -389h1249v-129h-1249v129z" />
<glyph unicode="`" horiz-adv-x="1024" d="M215 1311v41h254l176 -316v-37h-145z" />
<glyph unicode="a" horiz-adv-x="1015" d="M27 174q0 86 29 188.5t81 198.5q96 178 239 301t255 123q57 0 89.5 -14.5t51.5 -48.5h10q14 34 40 48.5t83 14.5q123 0 123 -31q0 -4 -2 -8l-233 -723q-7 -19 -1 -35t23 -16q22 0 59.5 43.5t75.5 112.5l58 -39q-109 -175 -197 -244.5t-174 -69.5q-18 0 -33.5 6t-29.5 23 q-14 18 -20 44q-2 11 -2 26q0 20 4 46q8 46 30 107l-29 19q-79 -131 -169 -203t-185 -72q-176 0 -176 203zM303 238q0 -34 9.5 -46t31.5 -12q74 0 182 163.5t185 426.5q-1 65 -14.5 92t-43.5 27q-45 0 -105.5 -66t-125.5 -190q-55 -105 -87 -212t-32 -183z" />
<glyph unicode="b" horiz-adv-x="976" d="M58 184q2 35 14 64l336 1077l-136 59v54l394 65l55 -61l-219 -658l20 -16q101 118 169 167.5t153 49.5q81 0 121.5 -47t40.5 -135q0 -197 -138 -428q-105 -179 -253.5 -291.5t-311.5 -112.5q-70 0 -121.5 20t-77 51t-37.5 69q-10 31 -10 61q1 6 1 12zM322 176 q-6 -24 -6 -43q0 -21 8 -36q14 -29 43 -29q110 0 241 272q123 256 123 405q0 30 -9 44t-34 14q-81 0 -221 -219z" />
<glyph unicode="c" horiz-adv-x="806" d="M45 260q0 126 56 258.5t143 234.5t198.5 167t216.5 65q92 0 150.5 -43t58.5 -125q0 -67 -32 -105t-86 -38q-37 0 -61.5 20.5t-35.5 49.5t-19 58t-20.5 49.5t-31.5 20.5q-87 0 -176 -190q-41 -87 -61.5 -188.5t-20.5 -178.5q0 -85 32 -126.5t80 -41.5q116 0 238 144 l55 -43q-35 -54 -75.5 -99.5t-94.5 -87.5t-122 -66t-142 -24q-115 0 -182.5 74.5t-67.5 214.5z" />
<glyph unicode="d" horiz-adv-x="1030" d="M37 154q0 198 110 407q94 184 238 304t264 120q81 0 117 -33l10 4l119 369l-135 59v54l381 65l55 -61l-393 -1219q-5 -16 -5 -27q0 -24 25 -24q24 0 59.5 44t71.5 120l66 -29q-52 -104 -101.5 -173.5t-93.5 -102.5t-79 -44.5t-74 -11.5q-78 1 -98 69q-6 22 -7 47 q0 56 29 134l-29 19q-78 -128 -176 -200.5t-198 -72.5q-76 0 -116 55t-40 128zM313 240q0 -60 41 -60q67 0 172.5 158t190.5 410q5 32 5 57q0 84 -58 84q-57 0 -126.5 -84t-119.5 -201q-53 -116 -79 -200.5t-26 -163.5z" />
<glyph unicode="e" horiz-adv-x="813" d="M41 240q0 91 33 194.5t93.5 200t138 175.5t175.5 127t197 48q82 0 140.5 -38t58.5 -122q0 -75 -42.5 -139.5t-120 -113t-171 -84t-209.5 -62.5q-12 -71 -12 -139q0 -140 116 -140q58 0 120 37t116 105l57 -41q-88 -126 -198.5 -201.5t-235.5 -75.5q-116 0 -186 70 t-70 199zM354 512q125 40 187.5 117.5t62.5 163.5q0 63 -39 63q-53 0 -114 -102.5t-97 -241.5z" />
<glyph unicode="f" horiz-adv-x="675" d="M-346 -287q0 48 28.5 80.5t73.5 32.5q41 0 68 -19.5t40 -47t22.5 -55t23.5 -47t35 -19.5q70 0 131 258l231 925h-182l37 117h170l51 205q41 158 171.5 263t322.5 105q137 0 219 -62.5t82 -148.5q0 -55 -29.5 -85.5t-85.5 -30.5q-47 0 -76 23.5t-41 57t-21.5 67.5 t-26.5 57.5t-46 23.5q-33 0 -60 -19.5t-49 -61t-38.5 -87.5t-36.5 -117l-54 -190h228l-37 -117h-219l-226 -821q-59 -218 -177 -341.5t-273 -123.5q-109 0 -182.5 48t-73.5 130z" />
<glyph unicode="g" horiz-adv-x="876" d="M-115 -250q0 77 70 139t197 86l6 17q-40 27 -65 67t-25 80q0 112 161 183v8q-58 36 -88 94t-30 125q0 172 128 304t296 132q75 0 140 -21.5t87 -21.5q35 0 80 18.5t69 18.5q39 0 69 -21.5t30 -70.5t-22 -71.5t-56 -22.5q-25 0 -61 28.5t-46 28.5l-22 -8q16 -88 16 -109 q0 -81 -31.5 -160.5t-87.5 -143t-140.5 -103t-182.5 -39.5q-31 0 -58 8q-28 -17 -28 -59q0 -31 29 -46.5t77 -25.5l291 -68q170 -38 170 -211q0 -89 -49 -163t-128.5 -119.5t-175 -70t-194.5 -24.5q-185 0 -305.5 69.5t-120.5 172.5zM119 -238q0 -70 65.5 -112.5 t186.5 -42.5q122 0 200 47.5t78 118.5q0 65 -76 82l-303 77q-71 -14 -111 -58.5t-40 -111.5zM354 432q0 -53 37 -53q45 0 80.5 68t71.5 192q39 143 39 205q0 59 -41 59q-29 0 -64 -61.5t-67 -155.5q-56 -166 -56 -254z" />
<glyph unicode="h" horiz-adv-x="1058" d="M-4 39l412 1286l-136 59v54l381 65l56 -61l-258 -789l20 -16q107 156 232.5 252t214.5 96q86 -1 105 -79q5 -21 6 -47q0 -71 -38 -177l-155 -449q-10 -29 -4.5 -46t24.5 -17q24 0 61 48t76 124l56 -33q-76 -171 -182.5 -254.5t-204.5 -83.5q-91 0 -118 61q-11 25 -11 56 q0 47 24 111l164 452q16 43 16 67q0 27 -22 27q-55 0 -177 -153.5t-202 -331.5l-72 -221q-7 -22 -49.5 -34.5t-85.5 -12.5q-36 0 -67.5 5t-51.5 16q-16 9 -15 20q0 3 1 6z" />
<glyph unicode="i" horiz-adv-x="626" d="M61 662q70 126 193.5 224.5t224.5 98.5q50 0 75 -24q26 -25 30 -83v-13q0 -56 -29 -144l-162 -469q-12 -28 -8.5 -46t23.5 -18q30 0 68 36.5t75 113.5l61 -33q-85 -148 -186.5 -241t-212.5 -93q-43 0 -69 25q-26 26 -32 82q-1 10 -1 20q0 52 24 127l158 506q7 23 1 37 t-20 14q-22 0 -65.5 -44.5t-83.5 -116.5zM428 1298q0 77 49 139t123 62q57 0 90 -42.5t33 -106.5q0 -77 -50.5 -134t-115.5 -57q-57 0 -93 41t-36 98z" />
<glyph unicode="j" horiz-adv-x="616" d="M-391 -303q0 47 28 81t78 34q38 0 65 -18t42 -44t28 -52.5t31.5 -44.5t44.5 -18q18 0 33.5 13.5t29.5 44.5t22.5 57.5t23.5 75.5l264 905q7 26 1.5 38.5t-19.5 12.5q-22 0 -66 -46t-82 -113l-63 43q32 45 58 78.5t72 82.5t88 80t97 54.5t109 23.5q47 0 72.5 -23.5 t29.5 -64.5q2 -16 2 -33q0 -25 -4 -50q-6 -42 -21 -91l-239 -801q-59 -195 -181.5 -291t-297.5 -96q-94 0 -170 44t-76 118zM438 1298q0 77 49 139t123 62q57 0 90 -42.5t33 -106.5q0 -77 -50.5 -134t-115.5 -57q-57 0 -93 41t-36 98z" />
<glyph unicode="k" horiz-adv-x="1007" d="M-4 39l401 1286l-137 59v54l393 65l56 -61l-269 -811l21 -17q227 371 428 371q86 0 130 -43.5t44 -114.5q0 -57 -30 -112t-76 -96.5t-102 -76t-106 -55.5t-90 -30l111 -283q14 -39 43 -39q49 0 107 78l49 -41q-47 -84 -136 -140.5t-182 -56.5q-96 0 -119 72l-112 352h-8 l-76 -139l-72 -221q-8 -22 -50 -34.5t-85 -12.5q-90 0 -124 25q-11 7 -11 15q0 4 2 7zM471 492l2 -9q125 33 214 106t89 163q0 45 -43 45t-124 -92.5t-138 -212.5z" />
<glyph unicode="l" horiz-adv-x="557" d="M46 34q-15 29 -15 71q0 49 20 116l357 1104l-136 59v54l381 65l56 -61l-402 -1243q-9 -29 -5 -46.5t26 -17.5q15 0 33 18t40 54t37.5 64t38.5 73l62 -33q-86 -173 -168.5 -256.5t-194.5 -83.5q-97 1 -130 63z" />
<glyph unicode="m" horiz-adv-x="1533" d="M57 39l224 721q5 16 5 27q0 24 -22 24q-18 0 -63.5 -52.5t-81.5 -129.5l-60 33q163 323 367 323q56 0 79 -40q17 -30 17 -70q0 -14 -2 -30q-8 -60 -26 -118.5t-43 -105.5l24 -13q91 153 217 265t230 112q83 0 83 -101q0 -88 -63 -251l23 -12q100 159 228.5 261.5 t215.5 102.5q48 0 73.5 -26.5t27.5 -72.5v-12q0 -40 -9 -84q-10 -50 -31 -108l-159 -438q-8 -23 -8 -37q0 -27 28 -27q50 0 137 162l56 -33q-75 -150 -184 -244t-216 -94q-62 0 -90 35q-25 31 -25 77q1 6 1 12q4 54 30 126l160 430q17 43 17 67q0 27 -23 27 q-41 0 -134.5 -115.5t-156.5 -248.5l-102 -336q-10 -33 -41.5 -43t-95.5 -10q-73 0 -105 17t-22 50l188 596q15 46 15 69q0 26 -21 26q-44 0 -126 -104t-153 -273l-114 -334q-7 -23 -49 -35t-87 -12q-36 0 -68 5q-30 5 -50 16q-16 9 -16 20q0 3 1 6z" />
<glyph unicode="n" horiz-adv-x="1122" d="M55 662q79 136 185.5 229.5t214.5 93.5q39 0 61 -19q23 -20 28 -54q4 -27 4 -53v-17q-2 -36 -14 -81t-21 -74t-21 -60l20 -17q47 65 100.5 126t118 119.5t133 94t127.5 35.5q31 0 51.5 -6.5t36 -26t17.5 -52.5q0 -7 1 -14q0 -30 -8 -74q-10 -55 -36 -130l-152 -446 q-4 -14 -5.5 -22t-1.5 -19.5t7 -17t21 -5.5q22 0 64 55.5t71 110.5l55 -33q-79 -152 -181 -243t-212 -91q-47 0 -77 27q-30 26 -36 82q-1 10 -1 21q0 50 26 120l153 430q16 43 16 67q0 27 -22 27q-48 0 -166 -143t-213 -336l-71 -227q-7 -23 -48.5 -35t-86.5 -12 q-57 0 -99.5 13t-34.5 34l215 688q5 17 5 28q0 23 -21 23q-16 0 -61.5 -48.5t-81.5 -115.5z" />
<glyph unicode="o" horiz-adv-x="937" d="M45 270q0 133 52.5 265t136.5 230t193.5 159t217.5 61q57 0 108.5 -17.5t94.5 -52t68.5 -93.5t25.5 -136q0 -115 -49.5 -242t-131 -231.5t-197.5 -173t-238 -68.5q-135 0 -208 85t-73 214zM293 143q0 -34 12 -48.5t41 -14.5q45 0 87.5 51t88.5 148q58 123 115 296t57 238 q0 31 -12 49.5t-33 18.5q-88 0 -172 -162q-72 -140 -128 -310t-56 -266z" />
<glyph unicode="p" horiz-adv-x="991" d="M-209 -420l162 31l336 1083l-13 11q-88 -70 -153 -170l-72 57q112 154 279 268l80 260l290 66l-69 -219q44 18 98 18t100.5 -17t84.5 -53t59.5 -98t21.5 -145q0 -137 -50.5 -268t-127.5 -222t-170 -146.5t-178 -55.5q-71 0 -127 36l-123 -405l158 -31v-72h-586v72z M379 117q24 -33 72 -33q67 0 132 100.5t102.5 239.5t37.5 258q0 174 -72 174q-36 0 -57 -18z" />
<glyph unicode="q" horiz-adv-x="976" d="M18 174q0 97 38.5 213t103.5 223q91 153 223 264t244 111q85 0 116 -63h11q18 34 47 47.5t96 13.5q70 0 99 -8q23 -7 23 -22q0 -3 -1 -7l-404 -1335l158 -31v-72h-579v72l157 31l160 526l-25 17q-78 -95 -146.5 -139t-137.5 -44q-87 0 -135 59.5t-48 143.5zM281 244 q0 -60 13.5 -80.5t39.5 -20.5q62 0 175 191.5t193 429.5q-8 110 -65 110q-101 0 -246 -266q-51 -92 -80.5 -194t-29.5 -170z" />
<glyph unicode="r" horiz-adv-x="839" d="M61 662q21 44 44 85t55.5 86t65.5 77.5t73.5 53.5t79.5 21q42 0 68.5 -13t37.5 -40q12 -28 11 -63q0 -33 -11 -81q-12 -50 -28.5 -99t-42.5 -116l39 -16q95 235 168 331.5t172 96.5q53 0 90 -35.5t37 -111.5q0 -84 -43.5 -131.5t-92.5 -47.5q-32 0 -67 15.5t-53 15.5 q-86 0 -181 -291l-118 -362q-7 -23 -53 -34t-99 -11q-56 0 -93 13t-28 34l189 680q10 39 10 60q0 26 -15 26q-23 0 -65 -48t-84 -130z" />
<glyph unicode="s" horiz-adv-x="739" d="M-23 150q0 39 26 70.5t79 31.5q33 0 60.5 -13.5t45.5 -33.5t36.5 -44t34.5 -44t38.5 -33.5t48.5 -13.5q34 0 56 18t22 57q0 25 -13 56.5t-24.5 49.5t-44.5 64t-43 60q-54 75 -84.5 145.5t-30.5 157.5q0 130 97.5 218.5t242.5 88.5q110 0 191.5 -51.5t81.5 -136.5 q0 -50 -28 -78.5t-73 -28.5q-37 0 -64 20.5t-43.5 50t-31 59.5t-34.5 50.5t-46 20.5q-39 0 -57.5 -23t-18.5 -57q0 -21 6.5 -44.5t14 -41t25 -44t27.5 -40.5t34 -46l33 -44q104 -140 104 -260q0 -133 -110.5 -226.5t-255.5 -93.5q-137 0 -219.5 46t-82.5 133z" />
<glyph unicode="t" horiz-adv-x="661" d="M73 124q1 42 15 89l184 608h-147l41 117h145l68 207l280 37l-79 -244h215l-35 -117h-217l-187 -606q-7 -21 -7 -35q0 -30 32 -30q31 0 76 46t90 128l63 -39q-81 -143 -178 -228.5t-221 -85.5q-49 0 -81 20.5t-45 54.5q-12 32 -12 71v7z" />
<glyph unicode="u" horiz-adv-x="1122" d="M74 672q35 56 77 107.5t92.5 99.5t108.5 77t111 29q56 0 87 -25.5t35 -81.5q0 -6 1 -12q0 -53 -31 -131l-162 -436q-16 -43 -16 -67q0 -27 22 -27q47 0 120 75.5t144 189.5t119 230l80 222q8 21 53 34t89 13q55 0 92 -14q31 -12 31 -28q0 -3 -1 -7l-237 -703 q-8 -25 -6.5 -40t7.5 -21t15 -6q53 0 146 172l59 -27q-166 -324 -350 -324q-45 0 -73 15q-28 14 -42 52q-7 19 -7 46.5t7 63.5q14 72 57 178l-20 16q-105 -160 -242 -265.5t-256 -105.5q-70 0 -88 81q-5 21 -5 47q0 71 36 175l158 447q7 21 7 35q0 28 -28 28 q-33 0 -129 -149z" />
<glyph unicode="v" horiz-adv-x="956" d="M70 688q27 147 91 222t154 75q114 0 181 -94.5t67 -237.5q0 -111 -40 -243.5t-93 -221.5l23 -22q141 61 236 185.5t95 254.5q0 46 -12.5 80t-30.5 53t-36 37t-30.5 44t-12.5 61q0 39 25.5 71.5t80.5 32.5q70 0 123 -73.5t53 -200.5q0 -520 -792 -750q-10 -3 -18 -3 q-13 0 -22 8q-15 12 -6 32q183 427 183 645q0 176 -70 176q-48 0 -80 -155z" />
<glyph unicode="w" horiz-adv-x="1366" d="M70 688q23 147 90.5 222t148.5 75q83 0 141 -44t89 -120h8q37 75 95.5 119.5t129.5 44.5q103 0 171.5 -96.5t68.5 -235.5q0 -117 -42 -239t-118 -228l18 -18q51 25 106 67.5t106 97.5t83.5 124t32.5 135q0 44 -13 78t-32 56t-37.5 43t-31.5 49t-13 63q0 43 30 73.5 t79 30.5q72 0 123 -71.5t51 -182.5q0 -124 -42 -232t-111.5 -188t-170.5 -148t-206 -115t-232 -87q-10 -3 -18 -3q-12 0 -20 7q-12 11 -7 33q6 18 29.5 72t35.5 90l-8 8q-187 -128 -452 -207q-9 -3 -17 -3q-13 0 -21 7q-14 11 -8 33q34 80 54 132t56 153.5t54.5 193 t18.5 166.5q0 176 -72 176q-49 0 -78 -155zM424 184l18 -18q160 70 244 207q23 57 37 139.5t14 151.5q0 72 -20.5 115.5t-52.5 43.5q-26 0 -56 -35.5t-47 -87.5q2 -18 2 -47q0 -119 -38.5 -251t-100.5 -218z" />
<glyph unicode="x" horiz-adv-x="1001" d="M11 26q-9 27 -9 61t10 74q18 79 62 152l63 -30q-14 -46 -15 -81q0 -6 1 -12q3 -40 35 -40t71 47l172 206l-43 340q-4 36 -10.5 47t-21.5 11q-22 0 -49.5 -43t-49.5 -103l-69 27q14 45 39 93t62 97.5t88.5 81t107.5 31.5q72 0 112 -53.5t49 -122.5l17 -127l147 178 q57 67 95 96t86 29q43 0 67 -33q25 -32 28 -82v-14q0 -44 -16 -98q-19 -62 -59 -117l-66 23q19 59 19 95q0 13 -2 23q-9 38 -43 37q-6 0 -12 -2t-13 -7t-11.5 -9t-12.5 -12.5t-12 -13t-13 -16t-12 -14.5l-154 -184l49 -354q6 -47 29 -47q24 0 49.5 30.5t65.5 106.5l61 -33 q-78 -143 -158.5 -218t-177.5 -75q-110 0 -133 170l-18 138l-174 -213q-81 -95 -158 -95q-55 -1 -73 55z" />
<glyph unicode="y" horiz-adv-x="954" d="M-371 -303q0 41 25.5 70.5t66.5 29.5q38 0 68.5 -17t51 -41t40 -48t45.5 -41t56 -17q34 0 71.5 21.5t76 63t72.5 110t61 155.5t43 207.5t16 258.5q0 205 -19 290.5t-59 85.5q-25 0 -56 -50t-51 -124l-65 17q41 153 100 235t156 82q59 0 105.5 -30.5t76 -80t49 -117.5 t27.5 -137.5t8 -144.5q0 -94 -26 -211t-60 -186l24 -12q104 144 165 368q43 160 43 300q0 58 -7 112q-2 14 -2 27q0 47 26 75q33 37 91 37q67 0 91 -32t24 -95q0 -133 -91.5 -364t-244.5 -459q-76 -111 -158.5 -201.5t-175 -162.5t-193.5 -112t-200 -40q-110 0 -190.5 47 t-80.5 131z" />
<glyph unicode="z" horiz-adv-x="890" d="M-39 14q0 17 8.5 33t16 25t29.5 29t30 28l539 543l-2 10q-45 0 -75.5 19t-45.5 46.5t-28 55t-33 46.5t-50 19q-53 0 -53 -53q0 -24 19.5 -47.5t39 -52.5t19.5 -66q0 -41 -32 -67.5t-73 -26.5q-69 0 -111 50t-42 128q0 109 80 180.5t213 71.5q57 0 104 -13t72.5 -29 t60 -29t70.5 -13q103 0 147 78q7 11 24 11q14 0 36 -8q45 -19 45 -41q0 -6 -4 -11l-584 -588l4 -12q38 0 63.5 -24t38.5 -58l26 -68t36.5 -58t58.5 -24q25 0 45.5 17t20.5 45q0 30 -15.5 53.5t-34 38t-34 43t-15.5 67.5q0 47 33.5 82t81.5 35q62 0 108 -63t46 -156 q0 -129 -90.5 -209t-212.5 -80q-71 0 -125 16t-83 39t-51 46t-43.5 39t-45.5 16q-34 0 -58.5 -24.5t-36 -53.5t-34.5 -53.5t-54 -24.5q-21 0 -35 10.5t-14 32.5z" />
<glyph unicode="{" horiz-adv-x="972" d="M172 522l33 115q135 0 252.5 76.5t138.5 183.5q14 61 6.5 163t3.5 165q21 113 80 173.5t178 86.5t334 26l-35 -116q-57 0 -106.5 -9t-93.5 -28t-73 -53.5t-38 -81.5q-13 -69 -9 -181.5t-7 -154.5q-18 -86 -85 -154.5t-154 -103.5t-175 -37l-10 -33q127 -16 197.5 -105.5 t33.5 -215.5q-13 -41 -79 -164.5t-85 -200.5q-15 -48 -12 -89t22.5 -71t70.5 -46.5t132 -16.5l-35 -117q-279 0 -394.5 91.5t-63.5 248.5q25 66 97 183.5t93 176.5q40 130 -24 209.5t-193 79.5z" />
<glyph unicode="|" d="M457 -471v2007h192v-2007h-192z" />
<glyph unicode="}" horiz-adv-x="972" d="M-176 -467l35 117q57 0 106.5 9t93.5 28t73 53.5t38 81.5q13 69 9 181.5t7 154.5q18 86 85 154.5t154 103.5t175 37l10 32q-127 16 -197.5 106t-33.5 216q13 41 79 164t85 200q15 48 12 89t-22.5 71t-70.5 47t-132 17l35 116q279 0 394.5 -91.5t63.5 -248.5 q-25 -66 -97 -183.5t-93 -176.5q-40 -130 24 -209.5t193 -79.5l-33 -114q-135 0 -252.5 -77t-138.5 -184q-14 -61 -6.5 -162.5t-3.5 -164.5q-21 -113 -80 -173.5t-178 -87t-334 -26.5z" />
<glyph unicode="~" d="M72 418q36 121 125.5 243.5t144.5 122.5q41 0 103.5 -25.5t116.5 -56t116 -56t102 -25.5q50 0 104 51t77 112l73 -28q-42 -142 -129.5 -252.5t-165.5 -110.5q-47 0 -215 81t-215 81q-24 0 -45.5 -12.5t-42 -41.5t-33 -50.5t-34.5 -65.5z" />
<glyph unicode="&#xa1;" horiz-adv-x="749" d="M-39 -467l387 973l139 -35l-206 -1018zM346 831q0 69 49.5 116.5t118.5 47.5t116.5 -47.5t47.5 -116.5t-47.5 -118t-116.5 -49t-118.5 49t-49.5 118z" />
<glyph unicode="&#xa2;" horiz-adv-x="886" d="M168 453q0 139 72.5 279.5t186.5 236.5t232 114l60 207l74 -22l-54 -183q67 -8 108.5 -42.5t41.5 -94.5q0 -50 -29 -83.5t-74 -33.5q-21 0 -37 7.5t-27 23t-16.5 27.5t-13.5 33l-164 -570q100 8 209 127l49 -39q-141 -182 -299 -227l-55 -197l-74 23l45 160h-16 q-101 0 -160 65.5t-59 188.5zM412 500q0 -90 43 -127l176 616q-78 -9 -148 -168q-36 -73 -53.5 -161.5t-17.5 -159.5z" />
<glyph unicode="&#xa3;" horiz-adv-x="1122" d="M-31 35q0 60 73.5 114t207.5 58q67 76 105 172.5t38 187.5v78h-178v88h178v98q0 95 30.5 176t79 135t109.5 92t121 55.5t115 17.5q145 0 228 -64t83 -145q0 -55 -32.5 -85t-84.5 -30q-43 0 -70.5 26t-41 63t-25 74t-31 63t-49.5 26q-70 0 -121 -89t-51 -243v-170h246v-88 h-248q-19 -249 -237 -375l8 -22q43 31 104 31q41 0 73 -17t53 -41t40.5 -48t47.5 -41t63 -17q28 0 51 23t23 63q0 27 -35 71t-35 82q0 40 28.5 68.5t69.5 28.5q52 0 80.5 -40t28.5 -104q0 -101 -53.5 -178.5t-136 -115.5t-177.5 -38q-136 0 -239 57t-138 122h-8 q-48 -93 -108.5 -136t-120.5 -43q-64 0 -64 60z" />
<glyph unicode="&#xa4;" horiz-adv-x="1277" d="M213 941.5q2 20.5 15.5 38.5t32 33t37.5 16.5t32 -9.5l94 -96q120 86 264 86q145 0 258 -80l88 92q21 22 59.5 -0.5t60 -62.5t1.5 -60l-92 -88q78 -115 78 -254q0 -143 -86 -266l98 -94q13 -13 11.5 -34t-14.5 -39.5t-31 -33.5t-37 -16.5t-33 10.5l-103 102 q-114 -82 -258 -82q-141 0 -254 74l-86 -90q-13 -15 -35.5 -13t-42.5 16.5t-36 34t-18.5 40t11.5 35.5l90 88q-81 113 -81 268q0 142 81 260l-92 90q-14 14 -12 34.5zM416 555q0 -126 75.5 -208.5t198.5 -82.5q114 0 190 83t76 208q0 130 -76 211.5t-192 81.5 q-127 0 -199.5 -83t-72.5 -210z" />
<glyph unicode="&#xa5;" horiz-adv-x="1236" d="M193 301v84h258l30 100h-227v84h254l8 27l-143 582l-131 28v76h551v-76l-150 -28l109 -482h28l410 482l-160 28v76h408v-76l-144 -28l-495 -582l-8 -27h210v-84h-237l-31 -100h207v-84h-233l-62 -197l154 -28v-76h-602v76l165 28l62 197h-231z" />
<glyph unicode="&#xa6;" d="M457 246h192v-717h-192v717zM457 819v717h192v-717h-192z" />
<glyph unicode="&#xa7;" horiz-adv-x="1044" d="M4 -166q0 46 27.5 75.5t70.5 29.5q27 0 50 -16t42 -38.5t39 -45t50 -38.5t67 -16q46 0 78.5 35t32.5 106q0 51 -24 112.5t-58.5 121.5t-69 123t-58.5 136t-24 140q0 83 33 153t100.5 116t157.5 51q-55 124 -55 241q0 151 100.5 250.5t267.5 99.5q116 0 190.5 -59 t74.5 -135q0 -92 -90 -92q-34 0 -58 18.5t-39.5 44.5l-31 52t-41.5 44.5t-62 18.5q-38 0 -62 -42.5t-24 -90.5q0 -63 24.5 -134t59 -134.5l69 -127t59 -131.5t24.5 -127q0 -75 -36 -145t-110 -118t-170 -48q76 -152 76 -246q0 -101 -59 -183t-145 -123.5t-175 -41.5 q-139 0 -220 46.5t-81 117.5zM451 641q0 -121 96 -264q19 -19 61 -19q34 0 61 35.5t27 95.5q0 64 -32.5 140t-83.5 133q-20 12 -41 12q-34 0 -61 -37.5t-27 -95.5z" />
<glyph unicode="&#xa8;" horiz-adv-x="1024" d="M213 1180q0 57 42.5 100t98.5 43q59 0 100.5 -42.5t41.5 -100.5q0 -56 -41.5 -98t-100.5 -42q-56 0 -98.5 42.5t-42.5 97.5zM582 1180q0 57 42.5 100t100.5 43q53 0 96 -43.5t43 -99.5q0 -55 -43 -97.5t-96 -42.5q-58 0 -100.5 42t-42.5 98z" />
<glyph unicode="&#xa9;" horiz-adv-x="1439" d="M152 606q0 127 50 243t134.5 200.5t201.5 135t244 50.5q133 0 250.5 -50t200 -135t130.5 -201t48 -243q0 -170 -85 -315.5t-230 -230.5t-314 -85q-172 0 -316 79.5t-229 225t-85 326.5zM272 602q0 -226 143.5 -375t368.5 -149q226 0 366 148.5t140 375.5 q0 232 -144.5 383.5t-363.5 151.5q-222 0 -366 -153t-144 -382zM432 608q0 156 108 252t269 96q123 0 254 -71v-158h-57q-30 86 -79 120t-118 34q-84 0 -135 -66t-51 -205q0 -131 57 -200.5t133 -69.5q83 0 130.5 36t74.5 116h53v-152q-64 -40 -120.5 -60t-135.5 -20 q-161 0 -272 93.5t-111 254.5z" />
<glyph unicode="&#xaa;" horiz-adv-x="880" d="M129 678q0 66 23 146.5t63 152.5q77 138 194 234t209 96q83 0 109 -50h8q11 26 31.5 38t64.5 12q124 0 116 -28q0 -2 -1 -3l-182 -561q-5 -14 0 -26.5t18 -12.5q17 0 45.5 33t59.5 88l57 -45q-155 -228 -297 -228q-136 0 -63 195l-23 14q-140 -213 -295 -213 q-137 0 -137 158zM373 743q0 -26 7 -35.5t23 -9.5q57 0 138 122.5t139 320.5q-3 52 -12.5 72t-32.5 20q-33 0 -80.5 -52t-97.5 -147q-39 -77 -61.5 -155.5t-22.5 -135.5z" />
<glyph unicode="&#xab;" horiz-adv-x="1337" d="M197 465l14 47l561 428l78 -72l-350 -401l-11 -31l64 -416l-131 -28zM621 465l14 47l561 428l78 -72l-350 -401l-11 -31l64 -416l-131 -28z" />
<glyph unicode="&#xac;" d="M78 469v172h936v-535h-183v363h-753z" />
<glyph unicode="&#xad;" horiz-adv-x="643" d="M74 410l63 211h512l-63 -211h-512z" />
<glyph unicode="&#xae;" horiz-adv-x="1040" d="M266 1030q0 180 129.5 309t309.5 129q187 0 312.5 -128t125.5 -310q0 -180 -129 -309t-309 -129q-183 0 -311 124.5t-128 313.5zM356 1028q0 -155 98.5 -256.5t252.5 -101.5q144 0 245 103t101 255q0 158 -100.5 259.5t-247.5 101.5q-159 0 -254 -102t-95 -259zM477 801 v41l55 14v375l-55 14v41h248q24 0 51 -5.5t56 -18.5t48 -39.5t19 -63.5q0 -39 -32.5 -73.5t-78.5 -45.5v-16q23 -13 71 -81.5t67 -86.5l30 -14v-41h-122q-24 19 -53.5 66t-59 89t-59.5 54h-17v-154l66 -14v-41h-234zM645 1063h43q42 0 63 28t21 64q0 40 -24.5 58t-57.5 18 h-45v-168z" />
<glyph unicode="&#xaf;" horiz-adv-x="1024" d="M231 1092v143h562v-143h-562z" />
<glyph unicode="&#xb0;" horiz-adv-x="751" d="M205 1012q0 121 86.5 208t206.5 87q122 0 208.5 -86.5t86.5 -208.5q0 -120 -87 -206.5t-208 -86.5q-120 0 -206.5 86.5t-86.5 206.5zM352 1012q0 -66 40.5 -113t103.5 -47q65 0 107 47t42 113q0 68 -42 116t-107 48q-63 0 -103.5 -48t-40.5 -116z" />
<glyph unicode="&#xb1;" d="M139 0v168h828v-168h-828zM139 553v168h330v287h168v-287h330v-168h-330v-287h-168v287h-330z" />
<glyph unicode="&#xb2;" horiz-adv-x="583" d="M170 850v39q438 333 438 487q0 32 -23.5 53t-64.5 21q-65 0 -176 -78l-22 35q67 65 152 113.5t169 48.5q67 0 106 -35.5t39 -91.5q0 -88 -85.5 -181.5t-229.5 -195.5l-67 -45l2 -16h178l61 73l39 -16l-88 -211h-428z" />
<glyph unicode="&#xb3;" horiz-adv-x="536" d="M160 938q0 30 18.5 48t44.5 18q29 0 48.5 -16t29.5 -35.5t29.5 -35.5t48.5 -16q45 0 84 38t39 105q0 64 -30.5 103t-61.5 39q-2 0 -7.5 -1t-7.5 -1l-35 -19l-22 49q258 116 258 209q0 41 -55 41q-35 0 -82.5 -19t-87.5 -52l-23 43q58 56 141 94.5t162 38.5q57 0 88 -26.5 t31 -74.5q0 -114 -205 -217v-12q115 -45 115 -162q0 -69 -48 -125t-124.5 -86t-161.5 -30q-186 0 -186 102z" />
<glyph unicode="&#xb4;" horiz-adv-x="1024" d="M379 999v37l176 316h254v-41l-285 -312h-145z" />
<glyph unicode="&#xb6;" horiz-adv-x="1218" d="M162 983q62 197 249.5 330t426.5 133h610l-41 -137q-67 0 -118.5 -50t-74.5 -124l-444 -1457h-174l498 1631h-103l-497 -1631h-175l250 820q-268 0 -373 126.5t-34 358.5zM460 712.5q31 -96.5 146 -96.5l211 693q-107 0 -197.5 -89.5t-136.5 -240.5q-54 -170 -23 -266.5z " />
<glyph unicode="&#xb7;" horiz-adv-x="518" d="M139 578q0 71 49 121.5t119 50.5q71 0 121.5 -51t50.5 -121t-50.5 -119t-121.5 -49t-119.5 49t-48.5 119z" />
<glyph unicode="&#xb8;" horiz-adv-x="1024" d="M328 -225l168 266h112l-92 -143q74 0 117 -36.5t43 -111.5q0 -91 -92 -160t-222 -90l-16 72q178 35 178 117q0 38 -34.5 56.5t-90.5 18.5q-33 0 -61 -4z" />
<glyph unicode="&#xb9;" horiz-adv-x="495" d="M186 850v57l117 17l158 503q-82 -40 -174 -53l20 80q136 25 248 111l123 -6l-199 -635l111 -17v-57h-404z" />
<glyph unicode="&#xba;" horiz-adv-x="790" d="M156 752q0 103 42.5 205.5t110.5 178.5t157 123.5t177 47.5q104 0 178 -59t74 -175q0 -89 -40.5 -187.5t-107 -180t-160.5 -134.5t-192 -53q-116 0 -177.5 66.5t-61.5 167.5zM369 651q0 -26 9.5 -37.5t31.5 -11.5q35 0 67.5 40t69.5 116q46 97 90.5 231t44.5 185 q0 23 -10 37t-27 14q-69 0 -133 -125q-57 -109 -100 -241.5t-43 -207.5z" />
<glyph unicode="&#xbb;" horiz-adv-x="1337" d="M104 63l351 402l10 31l-64 415l131 29l226 -473l-15 -47l-561 -428zM528 63l351 402l10 31l-64 415l131 29l226 -473l-15 -47l-561 -428z" />
<glyph unicode="&#xbc;" horiz-adv-x="1515" d="M215 592v57l117 17l157 503q-82 -40 -174 -53l21 80q136 25 248 111l123 -7l-199 -634l110 -17v-57h-403zM240 -104l544 757l508 723l92 -63l-530 -715l-524 -768zM805 156l536 489l76 -18l-133 -437h84l-22 -77h-86l-60 -195h-160l60 195h-291zM948 203l2 -13h174 l72 213l-10 7z" />
<glyph unicode="&#xbd;" horiz-adv-x="1515" d="M215 592v57l117 17l157 503q-82 -40 -174 -53l21 80q136 25 248 111l123 -7l-199 -634l110 -17v-57h-403zM240 -104l544 757l508 723l92 -63l-530 -715l-524 -768zM819 -43q438 333 438 487q0 32 -23.5 53t-64.5 21q-65 0 -176 -78l-22 35q67 65 152 113.5t169 48.5 q67 0 106.5 -36t39.5 -91q0 -88 -86 -181.5t-230 -195.5l-67 -45l2 -16h178l61 73l39 -16l-88 -211h-428v39z" />
<glyph unicode="&#xbe;" horiz-adv-x="1515" d="M147 680q0 29 19 47t45 18q29 0 48.5 -16t29.5 -35t29.5 -35t48.5 -16q45 0 83.5 38t38.5 105q0 64 -30.5 103t-61.5 39q-2 0 -7 -1t-7 -1l-35 -19l-22 49q258 116 258 209q0 41 -56 41q-35 0 -82.5 -19t-87.5 -52l-22 43q58 56 141 94.5t162 38.5q57 0 88 -26.5 t31 -74.5q0 -114 -205 -217v-12q115 -45 115 -162q0 -69 -48 -125t-124.5 -86t-161.5 -30q-187 0 -187 102zM240 -104l544 757l508 723l92 -63l-530 -715l-524 -768zM805 156l536 489l76 -18l-133 -437h84l-22 -77h-86l-60 -195h-160l60 195h-291zM948 203l2 -13h174l72 213 l-10 7z" />
<glyph unicode="&#xbf;" horiz-adv-x="919" d="M2 -98q0 89 32.5 158.5t84.5 113t114.5 77.5t125 60.5t114.5 53.5t84.5 65.5t32.5 87.5q0 36 -24.5 60t-82.5 24q-20 0 -53 -10l-12 74q53 18 141 18q109 0 176.5 -60t67.5 -143q0 -84 -33 -148t-85 -103.5t-115.5 -71t-127 -60t-115.5 -60t-85 -81.5t-33 -115 q0 -61 29 -98t75 -37q34 0 57.5 24t37 58t28 68t41.5 58t66 24q53 0 81.5 -29.5t28.5 -79.5q0 -92 -91 -148.5t-220 -56.5q-141 0 -240.5 74.5t-99.5 202.5zM571 997q0 69 49.5 116.5t118.5 47.5t116.5 -47.5t47.5 -116.5t-47.5 -118.5t-116.5 -49.5t-118.5 49.5 t-49.5 118.5z" />
<glyph unicode="&#xc0;" horiz-adv-x="1462" d="M-61 0v86l153 51l1102 1333l215 -20l-225 -1333l143 -31v-86h-651v86l178 31l82 418h-373l-321 -398l116 -51v-86h-419zM645 635h309l90 457l-22 6zM1081 1788v41h254l105 -244v-37h-146z" />
<glyph unicode="&#xc1;" horiz-adv-x="1462" d="M-61 0v86l153 51l1102 1333l215 -20l-225 -1333l143 -31v-86h-651v86l178 31l82 418h-373l-321 -398l116 -51v-86h-419zM645 635h309l90 457l-22 6zM1194 1548v37l176 244h254v-41l-285 -240h-145z" />
<glyph unicode="&#xc2;" horiz-adv-x="1462" d="M-61 0v86l153 51l1102 1333l215 -20l-225 -1333l143 -31v-86h-651v86l178 31l82 418h-373l-321 -398l116 -51v-86h-419zM645 635h309l90 457l-22 6zM1028 1548v37l334 244h119l141 -244v-37h-76l-166 119l-260 -119h-92z" />
<glyph unicode="&#xc3;" horiz-adv-x="1462" d="M-61 0v86l153 51l1102 1333l215 -20l-225 -1333l143 -31v-86h-651v86l178 31l82 418h-373l-321 -398l116 -51v-86h-419zM645 635h309l90 457l-22 6zM993 1597q23 92 84.5 187.5t98.5 95.5q43 0 147.5 -62.5t146.5 -62.5q32 0 68 41t49 84l74 -20q-28 -111 -87 -196 t-112 -85q-34 0 -145.5 61.5t-145.5 61.5q-29 0 -50 -31.5t-48 -97.5z" />
<glyph unicode="&#xc4;" horiz-adv-x="1462" d="M-61 0v86l153 51l1102 1333l215 -20l-225 -1333l143 -31v-86h-651v86l178 31l82 418h-373l-321 -398l116 -51v-86h-419zM645 635h309l90 457l-22 6zM1028 1729q0 57 42.5 100t98.5 43q59 0 100.5 -42.5t41.5 -100.5q0 -56 -41.5 -98t-100.5 -42q-56 0 -98.5 42.5 t-42.5 97.5zM1397 1729q0 57 42.5 100t100.5 43q53 0 96 -43.5t43 -99.5q0 -55 -43 -97.5t-96 -42.5q-58 0 -100.5 42t-42.5 98z" />
<glyph unicode="&#xc5;" horiz-adv-x="1462" d="M-61 0v86l153 51l1102 1333l215 -20l-225 -1333l143 -31v-86h-651v86l178 31l82 418h-373l-321 -398l116 -51v-86h-419zM645 635h309l90 457l-22 6zM1135 1749q0 89 61.5 151t149.5 62q89 0 151 -62t62 -151q0 -88 -62 -149.5t-151 -61.5q-88 0 -149.5 61.5t-61.5 149.5z M1249 1749q0 -44 26 -73t68 -29q45 0 73 29t28 73q0 45 -28 75.5t-73 30.5q-42 0 -68 -30.5t-26 -75.5z" />
<glyph unicode="&#xc6;" horiz-adv-x="1982" d="M-61 0v86l153 51l1073 1192l-172 31v86h1055v-424h-92l-158 326h-299l-162 -531h213l103 172h98l-135 -491h-98v207h-215l-187 -607h383l377 305h90l-231 -403h-1131v86l187 31l129 418h-330l-348 -398l116 -51v-86h-419zM678 635h272l148 475z" />
<glyph unicode="&#xc7;" horiz-adv-x="1443" d="M164 596q0 177 73 340t193 279.5t280 185.5t328 69q129 0 229.5 -41.5t196.5 -125.5l37 40h90l-121 -389h-88q0 414 -297 414q-80 0 -163.5 -38.5t-160 -116.5t-136 -184t-95.5 -252t-36 -310q0 -209 71 -297t217 -88q149 0 278 106t212 267h100l-86 -281 q-134 -96 -247 -144.5t-253 -52.5l-49 -79q74 0 117 -36.5t43 -111.5q0 -91 -91.5 -160t-221.5 -90l-17 72q178 35 178 117q0 38 -34 56.5t-90 18.5q-34 0 -62 -4l-10 15l129 205q-105 12 -196.5 57t-163 120.5t-113 188.5t-41.5 250z" />
<glyph unicode="&#xc8;" horiz-adv-x="1310" d="M-66 0v86l187 31l375 1212l-172 31v86h1052v-424h-90l-158 326h-299l-161 -531h213l102 172h98l-135 -491h-98v207h-215l-187 -607h383l377 305h90l-231 -403h-1131zM758 1788v41h254l104 -244v-37h-145z" />
<glyph unicode="&#xc9;" horiz-adv-x="1310" d="M-66 0v86l187 31l375 1212l-172 31v86h1052v-424h-90l-158 326h-299l-161 -531h213l102 172h98l-135 -491h-98v207h-215l-187 -607h383l377 305h90l-231 -403h-1131zM870 1548v37l177 244h253v-41l-284 -240h-146z" />
<glyph unicode="&#xca;" horiz-adv-x="1310" d="M-66 0v86l187 31l375 1212l-172 31v86h1052v-424h-90l-158 326h-299l-161 -531h213l102 172h98l-135 -491h-98v207h-215l-187 -607h383l377 305h90l-231 -403h-1131zM705 1548v37l333 244h119l141 -244v-37h-75l-166 119l-260 -119h-92z" />
<glyph unicode="&#xcb;" horiz-adv-x="1310" d="M-66 0v86l187 31l375 1212l-172 31v86h1052v-424h-90l-158 326h-299l-161 -531h213l102 172h98l-135 -491h-98v207h-215l-187 -607h383l377 305h90l-231 -403h-1131zM705 1729q0 57 42.5 100t98.5 43q59 0 100 -42.5t41 -100.5q0 -56 -41 -98t-100 -42q-56 0 -98.5 42.5 t-42.5 97.5zM1073 1729q0 57 43 100t101 43q53 0 96 -43.5t43 -99.5q0 -55 -43 -97.5t-96 -42.5q-58 0 -101 42t-43 98z" />
<glyph unicode="&#xcc;" horiz-adv-x="759" d="M-66 0v86l185 31l375 1212l-170 31v86h686v-86l-189 -31l-375 -1212l172 -31v-86h-684zM471 1788v41h254l104 -244v-37h-145z" />
<glyph unicode="&#xcd;" horiz-adv-x="759" d="M-66 0v86l185 31l375 1212l-170 31v86h686v-86l-189 -31l-375 -1212l172 -31v-86h-684zM584 1548v37l176 244h254v-41l-285 -240h-145z" />
<glyph unicode="&#xce;" horiz-adv-x="759" d="M-66 0v86l185 31l375 1212l-170 31v86h686v-86l-189 -31l-375 -1212l172 -31v-86h-684zM418 1548v37l334 244h118l142 -244v-37h-76l-166 119l-260 -119h-92z" />
<glyph unicode="&#xcf;" horiz-adv-x="759" d="M-66 0v86l185 31l375 1212l-170 31v86h686v-86l-189 -31l-375 -1212l172 -31v-86h-684zM418 1729q0 57 42.5 100t98.5 43q59 0 100 -42.5t41 -100.5q0 -56 -41 -98t-100 -42q-56 0 -98.5 42.5t-42.5 97.5zM786 1729q0 57 43 100t101 43q53 0 96 -43.5t43 -99.5 q0 -55 -43 -97.5t-96 -42.5q-58 0 -101 42t-43 98z" />
<glyph unicode="&#xd0;" horiz-adv-x="1660" d="M-66 0v86l187 31l168 547h-183l37 112h181l172 553l-172 31v86h682q319 0 499.5 -153.5t180.5 -426.5q0 -71 -18.5 -148.5t-60 -162.5t-102 -164t-151 -150.5t-199.5 -124.5t-254.5 -84.5t-310.5 -31.5h-656zM451 113h188q192 0 356.5 114.5t259.5 306t95 410.5 q0 192 -95 290.5t-243 98.5h-187l-172 -557h312l-37 -112h-310z" />
<glyph unicode="&#xd1;" horiz-adv-x="1648" d="M-86 0v86l174 51l535 1192l-148 31v86h432l293 -1038h29l385 901l-164 51v86h471v-86l-188 -51l-553 -1313h-191l-315 1116h-29l-438 -975l160 -51v-86h-453zM911 1597q23 92 84.5 187.5t98.5 95.5q43 0 148 -62.5t147 -62.5q32 0 67.5 41t48.5 84l74 -20 q-28 -111 -87 -196t-112 -85q-34 0 -145 61.5t-145 61.5q-29 0 -50.5 -32t-48.5 -97z" />
<glyph unicode="&#xd2;" horiz-adv-x="1644" d="M164 602q0 150 50.5 287.5t138 241.5t201 181.5t242.5 117.5t259 40q280 0 445 -158t165 -431q0 -132 -36.5 -255t-100 -221.5t-149.5 -180t-184.5 -135.5t-205 -84t-211.5 -30q-181 0 -318 69.5t-216.5 212.5t-79.5 345zM494 393q0 -159 75 -235t205 -76 q109 0 215.5 98.5t181 246t120.5 319.5t46 319q0 151 -71 227t-181 76q-139 0 -278 -148t-226 -376t-87 -451zM938 1788v41h254l104 -244v-37h-145z" />
<glyph unicode="&#xd3;" horiz-adv-x="1644" d="M164 602q0 150 50.5 287.5t138 241.5t201 181.5t242.5 117.5t259 40q280 0 445 -158t165 -431q0 -132 -36.5 -255t-100 -221.5t-149.5 -180t-184.5 -135.5t-205 -84t-211.5 -30q-181 0 -318 69.5t-216.5 212.5t-79.5 345zM494 393q0 -159 75 -235t205 -76 q109 0 215.5 98.5t181 246t120.5 319.5t46 319q0 151 -71 227t-181 76q-139 0 -278 -148t-226 -376t-87 -451zM1051 1548v37l176 244h254v-41l-285 -240h-145z" />
<glyph unicode="&#xd4;" horiz-adv-x="1644" d="M164 602q0 150 50.5 287.5t138 241.5t201 181.5t242.5 117.5t259 40q280 0 445 -158t165 -431q0 -132 -36.5 -255t-100 -221.5t-149.5 -180t-184.5 -135.5t-205 -84t-211.5 -30q-181 0 -318 69.5t-216.5 212.5t-79.5 345zM494 393q0 -159 75 -235t205 -76 q109 0 215.5 98.5t181 246t120.5 319.5t46 319q0 151 -71 227t-181 76q-139 0 -278 -148t-226 -376t-87 -451zM885 1548v37l334 244h118l142 -244v-37h-76l-166 119l-260 -119h-92z" />
<glyph unicode="&#xd5;" horiz-adv-x="1644" d="M164 602q0 150 50.5 287.5t138 241.5t201 181.5t242.5 117.5t259 40q280 0 445 -158t165 -431q0 -132 -36.5 -255t-100 -221.5t-149.5 -180t-184.5 -135.5t-205 -84t-211.5 -30q-181 0 -318 69.5t-216.5 212.5t-79.5 345zM494 393q0 -159 75 -235t205 -76 q109 0 215.5 98.5t181 246t120.5 319.5t46 319q0 151 -71 227t-181 76q-139 0 -278 -148t-226 -376t-87 -451zM850 1597q23 93 84 188t98 95q43 0 148 -62.5t147 -62.5q32 0 68 41t49 84l74 -20q-28 -111 -87 -196t-112 -85q-34 0 -145.5 61.5t-145.5 61.5q-29 0 -50 -31.5 t-48 -97.5z" />
<glyph unicode="&#xd6;" horiz-adv-x="1644" d="M164 602q0 150 50.5 287.5t138 241.5t201 181.5t242.5 117.5t259 40q280 0 445 -158t165 -431q0 -132 -36.5 -255t-100 -221.5t-149.5 -180t-184.5 -135.5t-205 -84t-211.5 -30q-181 0 -318 69.5t-216.5 212.5t-79.5 345zM494 393q0 -159 75 -235t205 -76 q109 0 215.5 98.5t181 246t120.5 319.5t46 319q0 151 -71 227t-181 76q-139 0 -278 -148t-226 -376t-87 -451zM885 1729q0 57 42.5 100t98.5 43q59 0 100 -42.5t41 -100.5q0 -56 -41 -98t-100 -42q-56 0 -98.5 42.5t-42.5 97.5zM1253 1729q0 57 43 100t101 43q53 0 96 -43.5 t43 -99.5q0 -55 -43 -97.5t-96 -42.5q-58 0 -101 42t-43 98z" />
<glyph unicode="&#xd7;" d="M172 231l262 263l-262 262l119 118l262 -262l262 262l119 -118l-262 -262l262 -263l-119 -118l-262 262l-262 -262z" />
<glyph unicode="&#xd8;" horiz-adv-x="1644" d="M92 -90l221 246q-149 165 -149 446q0 150 50.5 287.5t138 241.5t201 181.5t242.5 117.5t259 40q206 0 356 -92l123 138h149l-184 -205q166 -157 166 -430q0 -132 -36.5 -255t-100 -221.5t-149.5 -180t-184.5 -135.5t-205 -84t-211.5 -30q-227 0 -381 109l-155 -174h-150z M494 356l802 893q-33 59 -88.5 89t-122.5 30q-139 0 -278 -148t-226 -376t-87 -451v-37zM524 225q64 -143 250 -143q109 0 215.5 98.5t181 246t120.5 319.5t46 319q0 21 -4 61z" />
<glyph unicode="&#xd9;" horiz-adv-x="1579" d="M209 381q2 68 24 141l248 807l-170 31v86h690v-86l-190 -31l-242 -790q-60 -192 6 -305t234 -113q170 0 309 116t205 330l227 742l-153 51v86h458v-86l-182 -51l-237 -777q-27 -87 -68.5 -166t-105 -151.5t-140.5 -125t-179.5 -83.5t-217.5 -31q-106 0 -193 20.5 t-147.5 57t-101.5 87.5t-58.5 112t-15.5 129zM977 1788v41h254l104 -244v-37h-145z" />
<glyph unicode="&#xda;" horiz-adv-x="1579" d="M209 381q2 68 24 141l248 807l-170 31v86h690v-86l-190 -31l-242 -790q-60 -192 6 -305t234 -113q170 0 309 116t205 330l227 742l-153 51v86h458v-86l-182 -51l-237 -777q-27 -87 -68.5 -166t-105 -151.5t-140.5 -125t-179.5 -83.5t-217.5 -31q-106 0 -193 20.5 t-147.5 57t-101.5 87.5t-58.5 112t-15.5 129zM1090 1548v37l176 244h254v-41l-285 -240h-145z" />
<glyph unicode="&#xdb;" horiz-adv-x="1579" d="M209 381q2 68 24 141l248 807l-170 31v86h690v-86l-190 -31l-242 -790q-60 -192 6 -305t234 -113q170 0 309 116t205 330l227 742l-153 51v86h458v-86l-182 -51l-237 -777q-27 -87 -68.5 -166t-105 -151.5t-140.5 -125t-179.5 -83.5t-217.5 -31q-106 0 -193 20.5 t-147.5 57t-101.5 87.5t-58.5 112t-15.5 129zM924 1548v37l333 244h119l142 -244v-37h-76l-166 119l-260 -119h-92z" />
<glyph unicode="&#xdc;" horiz-adv-x="1579" d="M209 381q2 68 24 141l248 807l-170 31v86h690v-86l-190 -31l-242 -790q-60 -192 6 -305t234 -113q170 0 309 116t205 330l227 742l-153 51v86h458v-86l-182 -51l-237 -777q-27 -87 -68.5 -166t-105 -151.5t-140.5 -125t-179.5 -83.5t-217.5 -31q-106 0 -193 20.5 t-147.5 57t-101.5 87.5t-58.5 112t-15.5 129zM924 1729q0 57 42.5 100t98.5 43q59 0 100 -42.5t41 -100.5q0 -56 -41 -98t-100 -42q-56 0 -98.5 42.5t-42.5 97.5zM1292 1729q0 57 43 100t101 43q53 0 96 -43.5t43 -99.5q0 -55 -43 -97.5t-96 -42.5q-58 0 -101 42t-43 98z " />
<glyph unicode="&#xdd;" horiz-adv-x="1372" d="M242 0v86l188 31l172 555l-162 657l-147 31v86h622v-86l-170 -31l123 -538h33l461 538l-178 31v86h458v-86l-155 -31l-565 -665l-172 -547l172 -31v-86h-680zM940 1548v37l176 244h254v-41l-285 -240h-145z" />
<glyph unicode="&#xde;" horiz-adv-x="1200" d="M-66 0v86l185 31l375 1212l-170 31v86h686v-86l-189 -31l-59 -184h43q210 0 332.5 -108t122.5 -277q0 -190 -141.5 -314t-352.5 -124q-147 0 -238 63l-82 -268l172 -31v-86h-684zM559 487q12 -22 42.5 -36.5t70.5 -14.5q100 0 170.5 95t70.5 249q0 130 -49.5 191 t-113.5 61h-23z" />
<glyph unicode="&#xdf;" horiz-adv-x="1312" d="M-346 -287q0 48 28.5 80.5t73.5 32.5q41 0 68 -19.5t40 -47t22.5 -55t23.5 -47t35 -19.5q70 0 131 258l235 931h-184l35 111h170l51 205q41 158 171.5 263t322.5 105q169 0 276 -82.5t107 -209.5q0 -54 -29.5 -102t-71 -83.5t-83.5 -69t-71.5 -73t-29.5 -80.5 q0 -21 6.5 -44.5t13.5 -40.5t25 -44.5t27 -40.5t34 -46t33 -44q105 -141 105 -260q0 -88 -52 -162t-136.5 -116t-178.5 -42q-137 0 -219 43t-82 125q0 45 28 79t72 34q32 0 59.5 -13.5t46.5 -33.5t39 -44t37 -44t39.5 -33.5t47.5 -13.5q34 0 55.5 18t21.5 57q0 25 -13 56.5 t-24.5 49.5t-44.5 64t-43 60q-53 75 -83.5 145.5t-30.5 157.5q0 58 23 114t56 103t65.5 95t55.5 108.5t23 124.5q0 96 -40 143t-89 47q-64 0 -105 -71t-79 -214l-303 -1151q-55 -211 -174.5 -326.5t-280.5 -115.5q-109 0 -182.5 48t-73.5 130z" />
<glyph unicode="&#xe0;" horiz-adv-x="1015" d="M27 174q0 86 29 188.5t81 198.5q96 178 239 301t255 123q57 0 89.5 -14.5t51.5 -48.5h10q14 34 40 48.5t83 14.5q124 0 123 -31q0 -4 -2 -8l-233 -723q-7 -19 -1 -35t23 -16q22 0 59.5 43.5t75.5 112.5l58 -39q-109 -175 -197 -244.5t-174 -69.5q-18 0 -33.5 6t-29.5 23 t-19.5 43.5t2 73t29.5 106.5l-29 19q-79 -131 -169 -203t-185 -72q-176 0 -176 203zM303 238q0 -34 9.5 -46t31.5 -12q74 0 182 163.5t185 426.5q-1 65 -14.5 92t-43.5 27q-45 0 -105.5 -66t-125.5 -190q-55 -105 -87 -212t-32 -183zM502 1372v41h254l176 -315v-37h-146z " />
<glyph unicode="&#xe1;" horiz-adv-x="1015" d="M27 174q0 86 29 188.5t81 198.5q96 178 239 301t255 123q57 0 89.5 -14.5t51.5 -48.5h10q14 34 40 48.5t83 14.5q124 0 123 -31q0 -4 -2 -8l-233 -723q-7 -19 -1 -35t23 -16q22 0 59.5 43.5t75.5 112.5l58 -39q-109 -175 -197 -244.5t-174 -69.5q-18 0 -33.5 6t-29.5 23 t-19.5 43.5t2 73t29.5 106.5l-29 19q-79 -131 -169 -203t-185 -72q-176 0 -176 203zM303 238q0 -34 9.5 -46t31.5 -12q74 0 182 163.5t185 426.5q-1 65 -14.5 92t-43.5 27q-45 0 -105.5 -66t-125.5 -190q-55 -105 -87 -212t-32 -183zM666 1061v37l176 315h254v-41l-285 -311 h-145z" />
<glyph unicode="&#xe2;" horiz-adv-x="1015" d="M27 174q0 86 29 188.5t81 198.5q96 178 239 301t255 123q57 0 89.5 -14.5t51.5 -48.5h10q14 34 40 48.5t83 14.5q124 0 123 -31q0 -4 -2 -8l-233 -723q-7 -19 -1 -35t23 -16q22 0 59.5 43.5t75.5 112.5l58 -39q-109 -175 -197 -244.5t-174 -69.5q-18 0 -33.5 6t-29.5 23 t-19.5 43.5t2 73t29.5 106.5l-29 19q-79 -131 -169 -203t-185 -72q-176 0 -176 203zM303 238q0 -34 9.5 -46t31.5 -12q74 0 182 163.5t185 426.5q-1 65 -14.5 92t-43.5 27q-45 0 -105.5 -66t-125.5 -190q-55 -105 -87 -212t-32 -183zM541 1061v37l293 315h118l101 -315v-37 h-76l-135 160l-209 -160h-92z" />
<glyph unicode="&#xe3;" horiz-adv-x="1015" d="M27 174q0 86 29 188.5t81 198.5q96 178 239 301t255 123q57 0 89.5 -14.5t51.5 -48.5h10q14 34 40 48.5t83 14.5q124 0 123 -31q0 -4 -2 -8l-233 -723q-7 -19 -1 -35t23 -16q22 0 59.5 43.5t75.5 112.5l58 -39q-109 -175 -197 -244.5t-174 -69.5q-18 0 -33.5 6t-29.5 23 t-19.5 43.5t2 73t29.5 106.5l-29 19q-79 -131 -169 -203t-185 -72q-176 0 -176 203zM303 238q0 -34 9.5 -46t31.5 -12q74 0 182 163.5t185 426.5q-1 65 -14.5 92t-43.5 27q-45 0 -105.5 -66t-125.5 -190q-55 -105 -87 -212t-32 -183zM465 1110q23 93 84 188t98 95 q43 0 148 -62.5t147 -62.5q32 0 68 41t49 84l74 -21q-28 -111 -87 -195.5t-112 -84.5q-34 0 -145.5 61t-145.5 61q-29 0 -50 -31.5t-48 -97.5z" />
<glyph unicode="&#xe4;" horiz-adv-x="1015" d="M27 174q0 86 29 188.5t81 198.5q96 178 239 301t255 123q57 0 89.5 -14.5t51.5 -48.5h10q14 34 40 48.5t83 14.5q124 0 123 -31q0 -4 -2 -8l-233 -723q-7 -19 -1 -35t23 -16q22 0 59.5 43.5t75.5 112.5l58 -39q-109 -175 -197 -244.5t-174 -69.5q-18 0 -33.5 6t-29.5 23 t-19.5 43.5t2 73t29.5 106.5l-29 19q-79 -131 -169 -203t-185 -72q-176 0 -176 203zM303 238q0 -34 9.5 -46t31.5 -12q74 0 182 163.5t185 426.5q-1 65 -14.5 92t-43.5 27q-45 0 -105.5 -66t-125.5 -190q-55 -105 -87 -212t-32 -183zM500 1241q0 57 42.5 100t98.5 43 q59 0 100 -42.5t41 -100.5q0 -56 -41 -97.5t-100 -41.5q-56 0 -98.5 42t-42.5 97zM868 1241q0 57 43 100t101 43q53 0 96 -43.5t43 -99.5q0 -55 -43 -97t-96 -42q-58 0 -101 41.5t-43 97.5z" />
<glyph unicode="&#xe5;" horiz-adv-x="1015" d="M27 174q0 86 29 188.5t81 198.5q96 178 239 301t255 123q57 0 89.5 -14.5t51.5 -48.5h10q14 34 40 48.5t83 14.5q124 0 123 -31q0 -4 -2 -8l-233 -723q-7 -19 -1 -35t23 -16q22 0 59.5 43.5t75.5 112.5l58 -39q-109 -175 -197 -244.5t-174 -69.5q-18 0 -33.5 6t-29.5 23 t-19.5 43.5t2 73t29.5 106.5l-29 19q-79 -131 -169 -203t-185 -72q-176 0 -176 203zM303 238q0 -34 9.5 -46t31.5 -12q74 0 182 163.5t185 426.5q-1 65 -14.5 92t-43.5 27q-45 0 -105.5 -66t-125.5 -190q-55 -105 -87 -212t-32 -183zM606 1262q0 89 61.5 151t149.5 62 q89 0 151 -62t62 -151q0 -88 -62 -149.5t-151 -61.5q-88 0 -149.5 61.5t-61.5 149.5zM721 1262q0 -44 26 -73.5t68 -29.5q45 0 72.5 29.5t27.5 73.5q0 45 -27.5 75.5t-72.5 30.5q-42 0 -68 -30.5t-26 -75.5z" />
<glyph unicode="&#xe6;" horiz-adv-x="1306" d="M27 174q0 86 29 188.5t81 198.5q96 178 239 301t255 123q57 0 89.5 -14.5t51.5 -48.5h10q14 34 40 48.5t83 14.5q33 0 51 -2.5t23 -9.5t4.5 -12.5t-6.5 -18.5l-6 -14q102 57 200 57q82 0 140.5 -38t58.5 -122q0 -75 -42.5 -139.5t-120 -113t-171 -84t-209.5 -62.5 q-12 -71 -12 -139q0 -140 117 -140q130 0 256 142l57 -41q-91 -126 -207 -201.5t-247 -75.5q-109 0 -179 62.5t-77 177.5q-157 -240 -332 -240q-176 0 -176 203zM313 258q0 -33 9.5 -45t31.5 -12q73 0 177.5 157.5t179.5 411.5q-1 65 -14.5 92t-43.5 27q-45 0 -105.5 -66 t-125.5 -190q-50 -99 -79.5 -200.5t-29.5 -174.5zM848 512q125 40 187.5 117.5t62.5 163.5q0 63 -39 63q-53 0 -114 -102.5t-97 -241.5z" />
<glyph unicode="&#xe7;" horiz-adv-x="806" d="M45 260q0 126 56 258.5t143 234.5t198.5 167t216.5 65q92 0 150.5 -43t58.5 -125q0 -67 -32 -105t-86 -38q-37 0 -61.5 20.5t-35.5 49.5t-19 58t-20.5 49.5t-31.5 20.5q-87 0 -176 -190q-41 -87 -61.5 -188.5t-20.5 -178.5q0 -85 32 -126.5t80 -41.5q116 0 238 144 l55 -43q-156 -240 -369 -271l-49 -79q74 0 117 -36.5t43 -111.5q0 -91 -91.5 -160t-221.5 -90l-17 72q178 35 178 117q0 38 -34 56.5t-90 18.5q-34 0 -62 -4l-10 15l125 200q-95 14 -149 87t-54 198z" />
<glyph unicode="&#xe8;" horiz-adv-x="813" d="M41 240q0 91 33 194.5t93.5 200t138 175.5t175.5 127t197 48q82 0 140.5 -38t58.5 -122q0 -75 -42.5 -139.5t-120 -113t-171 -84t-209.5 -62.5q-12 -71 -12 -139q0 -140 116 -140q58 0 120 37t116 105l57 -41q-88 -126 -198.5 -201.5t-235.5 -75.5q-116 0 -186 70 t-70 199zM354 512q125 40 187.5 117.5t62.5 163.5q0 63 -39 63q-53 0 -114 -102.5t-97 -241.5zM362 1372v41h254l177 -315v-37h-146z" />
<glyph unicode="&#xe9;" horiz-adv-x="813" d="M41 240q0 91 33 194.5t93.5 200t138 175.5t175.5 127t197 48q82 0 140.5 -38t58.5 -122q0 -75 -42.5 -139.5t-120 -113t-171 -84t-209.5 -62.5q-12 -71 -12 -139q0 -140 116 -140q58 0 120 37t116 105l57 -41q-88 -126 -198.5 -201.5t-235.5 -75.5q-116 0 -186 70 t-70 199zM354 512q125 40 187.5 117.5t62.5 163.5q0 63 -39 63q-53 0 -114 -102.5t-97 -241.5zM526 1061v37l176 315h254v-41l-284 -311h-146z" />
<glyph unicode="&#xea;" horiz-adv-x="813" d="M41 240q0 91 33 194.5t93.5 200t138 175.5t175.5 127t197 48q82 0 140.5 -38t58.5 -122q0 -75 -42.5 -139.5t-120 -113t-171 -84t-209.5 -62.5q-12 -71 -12 -139q0 -140 116 -140q58 0 120 37t116 105l57 -41q-88 -126 -198.5 -201.5t-235.5 -75.5q-116 0 -186 70 t-70 199zM354 512q125 40 187.5 117.5t62.5 163.5q0 63 -39 63q-53 0 -114 -102.5t-97 -241.5zM401 1061v37l293 315h119l100 -315v-37h-75l-136 160l-208 -160h-93z" />
<glyph unicode="&#xeb;" horiz-adv-x="813" d="M41 240q0 91 33 194.5t93.5 200t138 175.5t175.5 127t197 48q82 0 140.5 -38t58.5 -122q0 -75 -42.5 -139.5t-120 -113t-171 -84t-209.5 -62.5q-12 -71 -12 -139q0 -140 116 -140q58 0 120 37t116 105l57 -41q-88 -126 -198.5 -201.5t-235.5 -75.5q-116 0 -186 70 t-70 199zM354 512q125 40 187.5 117.5t62.5 163.5q0 63 -39 63q-53 0 -114 -102.5t-97 -241.5zM360 1241q0 57 43 100t99 43q59 0 100 -42.5t41 -100.5q0 -56 -41 -97.5t-100 -41.5q-56 0 -99 42t-43 97zM729 1241q0 57 42.5 100t100.5 43q53 0 96.5 -43.5t43.5 -99.5 q0 -55 -43.5 -97t-96.5 -42q-58 0 -100.5 41.5t-42.5 97.5z" />
<glyph unicode="&#xec;" horiz-adv-x="626" d="M61 662q70 126 193.5 224.5t224.5 98.5q50 0 75.5 -24t29.5 -82.5t-29 -157.5l-162 -469q-12 -28 -8.5 -46t23.5 -18q30 0 68 36.5t75 113.5l61 -33q-85 -148 -186.5 -241t-212.5 -93q-43 0 -69 25t-32 81.5t23 147.5l158 506q7 23 1 37t-20 14q-22 0 -65.5 -44.5 t-83.5 -116.5zM197 1372v41h254l176 -315v-37h-146z" />
<glyph unicode="&#xed;" horiz-adv-x="626" d="M61 662q70 126 193.5 224.5t224.5 98.5q50 0 75.5 -24t29.5 -82.5t-29 -157.5l-162 -469q-12 -28 -8.5 -46t23.5 -18q30 0 68 36.5t75 113.5l61 -33q-85 -148 -186.5 -241t-212.5 -93q-43 0 -69 25t-32 81.5t23 147.5l158 506q7 23 1 37t-20 14q-22 0 -65.5 -44.5 t-83.5 -116.5zM360 1061v37l177 315h254v-41l-285 -311h-146z" />
<glyph unicode="&#xee;" horiz-adv-x="626" d="M61 662q70 126 193.5 224.5t224.5 98.5q50 0 75.5 -24t29.5 -82.5t-29 -157.5l-162 -469q-12 -28 -8.5 -46t23.5 -18q30 0 68 36.5t75 113.5l61 -33q-85 -148 -186.5 -241t-212.5 -93q-43 0 -69 25t-32 81.5t23 147.5l158 506q7 23 1 37t-20 14q-22 0 -65.5 -44.5 t-83.5 -116.5zM236 1061v37l292 315h119l101 -315v-37h-76l-135 160l-209 -160h-92z" />
<glyph unicode="&#xef;" horiz-adv-x="626" d="M61 662q70 126 193.5 224.5t224.5 98.5q50 0 75.5 -24t29.5 -82.5t-29 -157.5l-162 -469q-12 -28 -8.5 -46t23.5 -18q30 0 68 36.5t75 113.5l61 -33q-85 -148 -186.5 -241t-212.5 -93q-43 0 -69 25t-32 81.5t23 147.5l158 506q7 23 1 37t-20 14q-22 0 -65.5 -44.5 t-83.5 -116.5zM195 1241q0 57 42.5 100t98.5 43q59 0 100 -42.5t41 -100.5q0 -56 -41 -97.5t-100 -41.5q-56 0 -98.5 42t-42.5 97zM563 1241q0 57 43 100t101 43q53 0 96 -43.5t43 -99.5q0 -55 -43 -97t-96 -42q-58 0 -101 41.5t-43 97.5z" />
<glyph unicode="&#xf0;" horiz-adv-x="937" d="M45 270q0 133 52 265.5t134.5 231t191.5 159t216 59.5q17 0 45 -4q-3 75 -59 184l-164 -108l-60 84l170 112q-84 129 -178 181l45 71q148 -68 256 -170l183 123l59 -84l-170 -112q176 -214 176 -519q0 -157 -54.5 -302.5t-142 -247t-198 -162t-221.5 -60.5 q-135 0 -208 85t-73 214zM293 143q0 -34 12 -48.5t41 -14.5q45 0 87.5 51t88.5 148q57 112 114.5 290t57.5 244q0 68 -45 68q-88 0 -172 -162q-74 -147 -129 -313.5t-55 -262.5z" />
<glyph unicode="&#xf1;" horiz-adv-x="1122" d="M55 662q79 136 185.5 229.5t214.5 93.5q39 0 61.5 -19t27.5 -53.5t3.5 -70.5t-13.5 -81t-21 -74t-21 -60l20 -17q47 65 100.5 126t118 119.5t133 94t127.5 35.5q31 0 51.5 -6.5t36 -26t18 -52.5t-7.5 -88t-36 -130l-152 -446q-4 -14 -5.5 -22t-1.5 -19.5t7 -17t21 -5.5 q22 0 64 55.5t71 110.5l55 -33q-79 -152 -181 -243t-212 -91q-47 0 -76.5 27t-36 82.5t24.5 140.5l153 430q34 94 -6 94q-48 0 -166 -143t-213 -336l-71 -227q-7 -23 -48.5 -35t-86.5 -12q-57 0 -99.5 13t-34.5 34l215 688q15 51 -16 51q-16 0 -61.5 -48.5t-81.5 -115.5z M436 1110q23 93 84 188t98 95q43 0 148 -62.5t147 -62.5q32 0 68 41t49 84l74 -21q-28 -111 -87 -195.5t-112 -84.5q-34 0 -145.5 61t-145.5 61q-29 0 -50 -31.5t-48 -97.5z" />
<glyph unicode="&#xf2;" horiz-adv-x="937" d="M45 270q0 133 52.5 265t136.5 230t193.5 159t217.5 61q57 0 108.5 -17.5t94.5 -52t68.5 -93.5t25.5 -136q0 -115 -49.5 -242t-131 -231.5t-197.5 -173t-238 -68.5q-135 0 -208 85t-73 214zM293 143q0 -34 12 -48.5t41 -14.5q45 0 87.5 51t88.5 148q58 123 115 296t57 238 q0 31 -12 49.5t-33 18.5q-88 0 -172 -162q-72 -140 -128 -310t-56 -266zM395 1372v41h254l176 -315v-37h-145z" />
<glyph unicode="&#xf3;" horiz-adv-x="937" d="M45 270q0 133 52.5 265t136.5 230t193.5 159t217.5 61q57 0 108.5 -17.5t94.5 -52t68.5 -93.5t25.5 -136q0 -115 -49.5 -242t-131 -231.5t-197.5 -173t-238 -68.5q-135 0 -208 85t-73 214zM293 143q0 -34 12 -48.5t41 -14.5q45 0 87.5 51t88.5 148q58 123 115 296t57 238 q0 31 -12 49.5t-33 18.5q-88 0 -172 -162q-72 -140 -128 -310t-56 -266zM559 1061v37l176 315h254v-41l-284 -311h-146z" />
<glyph unicode="&#xf4;" horiz-adv-x="937" d="M45 270q0 133 52.5 265t136.5 230t193.5 159t217.5 61q57 0 108.5 -17.5t94.5 -52t68.5 -93.5t25.5 -136q0 -115 -49.5 -242t-131 -231.5t-197.5 -173t-238 -68.5q-135 0 -208 85t-73 214zM293 143q0 -34 12 -48.5t41 -14.5q45 0 87.5 51t88.5 148q58 123 115 296t57 238 q0 31 -12 49.5t-33 18.5q-88 0 -172 -162q-72 -140 -128 -310t-56 -266zM434 1061v37l293 315h119l100 -315v-37h-76l-135 160l-209 -160h-92z" />
<glyph unicode="&#xf5;" horiz-adv-x="937" d="M45 270q0 133 52.5 265t136.5 230t193.5 159t217.5 61q57 0 108.5 -17.5t94.5 -52t68.5 -93.5t25.5 -136q0 -115 -49.5 -242t-131 -231.5t-197.5 -173t-238 -68.5q-135 0 -208 85t-73 214zM293 143q0 -34 12 -48.5t41 -14.5q45 0 87.5 51t88.5 148q58 123 115 296t57 238 q0 31 -12 49.5t-33 18.5q-88 0 -172 -162q-72 -140 -128 -310t-56 -266zM358 1110q23 92 84.5 187.5t98.5 95.5q43 0 148 -62.5t147 -62.5q32 0 67.5 41t48.5 84l74 -21q-28 -111 -87 -195.5t-112 -84.5q-34 0 -145 61t-145 61q-29 0 -50.5 -32t-48.5 -97z" />
<glyph unicode="&#xf6;" horiz-adv-x="937" d="M45 270q0 133 52.5 265t136.5 230t193.5 159t217.5 61q57 0 108.5 -17.5t94.5 -52t68.5 -93.5t25.5 -136q0 -115 -49.5 -242t-131 -231.5t-197.5 -173t-238 -68.5q-135 0 -208 85t-73 214zM293 143q0 -34 12 -48.5t41 -14.5q45 0 87.5 51t88.5 148q58 123 115 296t57 238 q0 31 -12 49.5t-33 18.5q-88 0 -172 -162q-72 -140 -128 -310t-56 -266zM393 1241q0 57 43 100t99 43q59 0 100 -42.5t41 -100.5q0 -56 -41 -97.5t-100 -41.5q-56 0 -99 42t-43 97zM762 1241q0 57 42.5 100t100.5 43q53 0 96 -43.5t43 -99.5q0 -55 -43 -97t-96 -42 q-58 0 -100.5 41.5t-42.5 97.5z" />
<glyph unicode="&#xf7;" d="M139 410v168h828v-168h-828zM434 180q0 50 33 83.5t82 33.5t83 -33.5t34 -83.5q0 -49 -33.5 -81.5t-83.5 -32.5t-82.5 32.5t-32.5 81.5zM434 805q0 50 33 83.5t82 33.5t83 -34t34 -83t-33.5 -82t-83.5 -33q-49 0 -82 33t-33 82z" />
<glyph unicode="&#xf8;" horiz-adv-x="937" d="M-33 -96l139 166q-61 79 -61 200q0 133 52.5 265t136.5 230t193.5 159t217.5 61q104 0 178 -51l74 88h109l-121 -145q57 -77 57 -191q0 -115 -49.5 -242t-131 -231.5t-197.5 -173t-238 -68.5q-93 0 -158 43l-92 -110h-109zM293 143q0 -34 12 -48.5t41 -14.5q45 0 87.5 51 t88.5 148q59 128 117 303l-346 -418v-21zM326 334l364 438q4 32 4 41q0 31 -12 49.5t-33 18.5q-88 0 -172 -162q-95 -182 -151 -385z" />
<glyph unicode="&#xf9;" horiz-adv-x="1122" d="M74 672q35 56 77 107.5t92.5 99.5t108.5 77t111 29q56 0 87 -25.5t35 -81t-30 -143.5l-162 -436q-34 -94 6 -94q47 0 120 75.5t144 189.5t119 230l80 222q8 21 53 34t89 13q55 0 92 -14t30 -35l-237 -703q-8 -25 -6.5 -40t7.5 -21t15 -6q53 0 146 172l59 -27 q-166 -324 -350 -324q-45 0 -73 15t-42 52.5t0 110t57 177.5l-20 16q-105 -160 -242 -265.5t-256 -105.5q-71 0 -88.5 81t31.5 222l158 447q20 63 -21 63q-33 0 -129 -149zM469 1372v41h254l176 -315v-37h-145z" />
<glyph unicode="&#xfa;" horiz-adv-x="1122" d="M74 672q35 56 77 107.5t92.5 99.5t108.5 77t111 29q56 0 87 -25.5t35 -81t-30 -143.5l-162 -436q-34 -94 6 -94q47 0 120 75.5t144 189.5t119 230l80 222q8 21 53 34t89 13q55 0 92 -14t30 -35l-237 -703q-8 -25 -6.5 -40t7.5 -21t15 -6q53 0 146 172l59 -27 q-166 -324 -350 -324q-45 0 -73 15t-42 52.5t0 110t57 177.5l-20 16q-105 -160 -242 -265.5t-256 -105.5q-71 0 -88.5 81t31.5 222l158 447q20 63 -21 63q-33 0 -129 -149zM633 1061v37l176 315h254v-41l-285 -311h-145z" />
<glyph unicode="&#xfb;" horiz-adv-x="1122" d="M74 672q35 56 77 107.5t92.5 99.5t108.5 77t111 29q56 0 87 -25.5t35 -81t-30 -143.5l-162 -436q-34 -94 6 -94q47 0 120 75.5t144 189.5t119 230l80 222q8 21 53 34t89 13q55 0 92 -14t30 -35l-237 -703q-8 -25 -6.5 -40t7.5 -21t15 -6q53 0 146 172l59 -27 q-166 -324 -350 -324q-45 0 -73 15t-42 52.5t0 110t57 177.5l-20 16q-105 -160 -242 -265.5t-256 -105.5q-71 0 -88.5 81t31.5 222l158 447q20 63 -21 63q-33 0 -129 -149zM508 1061v37l293 315h119l100 -315v-37h-76l-135 160l-209 -160h-92z" />
<glyph unicode="&#xfc;" horiz-adv-x="1122" d="M74 672q35 56 77 107.5t92.5 99.5t108.5 77t111 29q56 0 87 -25.5t35 -81t-30 -143.5l-162 -436q-34 -94 6 -94q47 0 120 75.5t144 189.5t119 230l80 222q8 21 53 34t89 13q55 0 92 -14t30 -35l-237 -703q-8 -25 -6.5 -40t7.5 -21t15 -6q53 0 146 172l59 -27 q-166 -324 -350 -324q-45 0 -73 15t-42 52.5t0 110t57 177.5l-20 16q-105 -160 -242 -265.5t-256 -105.5q-71 0 -88.5 81t31.5 222l158 447q20 63 -21 63q-33 0 -129 -149zM467 1241q0 57 42.5 100t98.5 43q59 0 100.5 -42.5t41.5 -100.5q0 -56 -41.5 -97.5t-100.5 -41.5 q-56 0 -98.5 42t-42.5 97zM836 1241q0 57 42.5 100t100.5 43q53 0 96 -43.5t43 -99.5q0 -55 -43 -97t-96 -42q-58 0 -100.5 41.5t-42.5 97.5z" />
<glyph unicode="&#xfd;" horiz-adv-x="954" d="M-371 -303q0 41 25.5 70.5t66.5 29.5q38 0 68.5 -17t51 -41t40 -48t45.5 -41t56 -17q34 0 71.5 21.5t76 63t72.5 110t61 155.5t43 207.5t16 258.5q0 205 -19 290.5t-59 85.5q-25 0 -56 -50t-51 -124l-65 17q41 153 100 235t156 82q59 0 105.5 -30.5t76 -80t49 -117.5 t27.5 -137.5t8 -144.5q0 -94 -26 -211t-60 -186l24 -12q104 144 165 368.5t36 411.5q-9 66 24 102.5t91 36.5q67 0 91 -32t24 -95q0 -133 -91.5 -364t-244.5 -459q-76 -111 -158.5 -201.5t-175 -162.5t-193.5 -112t-200 -40q-110 0 -190.5 47t-80.5 131zM502 1061v37 l176 315h254v-41l-285 -311h-145z" />
<glyph unicode="&#xfe;" horiz-adv-x="991" d="M-209 -420l162 31l336 1087l-13 11q-88 -70 -153 -170l-72 57q112 154 279 268l180 570l291 65l-170 -532q44 18 98 18q113 0 189.5 -70t76.5 -206q0 -101 -23 -198.5t-62.5 -176.5t-92 -146t-111 -112t-120 -70.5t-117.5 -25.5q-71 0 -127 36l-123 -405l158 -31v-72 h-586v72zM379 117q24 -33 72 -33q67 0 131.5 101.5t102.5 247t38 276.5q0 147 -72 147q-36 0 -57 -18z" />
<glyph unicode="&#xff;" horiz-adv-x="954" d="M-371 -303q0 41 25.5 70.5t66.5 29.5q38 0 68.5 -17t51 -41t40 -48t45.5 -41t56 -17q34 0 71.5 21.5t76 63t72.5 110t61 155.5t43 207.5t16 258.5q0 205 -19 290.5t-59 85.5q-25 0 -56 -50t-51 -124l-65 17q41 153 100 235t156 82q59 0 105.5 -30.5t76 -80t49 -117.5 t27.5 -137.5t8 -144.5q0 -94 -26 -211t-60 -186l24 -12q104 144 165 368.5t36 411.5q-9 66 24 102.5t91 36.5q67 0 91 -32t24 -95q0 -133 -91.5 -364t-244.5 -459q-76 -111 -158.5 -201.5t-175 -162.5t-193.5 -112t-200 -40q-110 0 -190.5 47t-80.5 131zM336 1241 q0 57 42.5 100t98.5 43q59 0 100 -42.5t41 -100.5q0 -56 -41 -97.5t-100 -41.5q-56 0 -98.5 42t-42.5 97zM705 1241q0 57 42.5 100t100.5 43q53 0 96 -43.5t43 -99.5q0 -55 -43 -97t-96 -42q-58 0 -100.5 41.5t-42.5 97.5z" />
<glyph unicode="&#x152;" horiz-adv-x="2109" d="M164 602q0 150 50.5 287.5t138 241.5t201 181.5t242.5 117.5t259 40q148 0 274 -24h846v-424h-90l-158 326h-299l-162 -531h213l103 172h98l-135 -491h-98v207h-215l-187 -607h383l377 305h90l-231 -403h-891q-98 -25 -195 -25q-181 0 -318 69.5t-216.5 212.5t-79.5 345z M494 393q0 -159 75 -235t205 -76q73 0 146 45l368 1186q-84 55 -203 55q-139 0 -278 -148t-226 -376t-87 -451z" />
<glyph unicode="&#x153;" horiz-adv-x="1339" d="M45 270q0 133 52.5 265t136.5 230t193.5 159t217.5 61q72 0 135 -33t103 -98q154 131 321 131q82 0 140.5 -38t58.5 -122q0 -75 -42.5 -139.5t-120 -113t-171 -84t-209.5 -62.5q-12 -71 -12 -139q0 -140 117 -140q130 0 256 142l57 -41q-91 -126 -207.5 -201.5 t-247.5 -75.5q-69 0 -125 31t-75 88q-145 -119 -297 -119q-135 0 -208 85t-73 214zM293 143q0 -34 12 -48.5t41 -14.5q45 0 87.5 51t88.5 148q58 123 115 296t57 238q0 31 -12 49.5t-33 18.5q-88 0 -172 -162q-72 -140 -128 -310t-56 -266zM881 512q124 40 186.5 117.5 t62.5 163.5q0 63 -38 63q-53 0 -114 -102.5t-97 -241.5z" />
<glyph unicode="&#x178;" horiz-adv-x="1372" d="M242 0v86l188 31l172 555l-162 657l-147 31v86h622v-86l-170 -31l123 -538h33l461 538l-178 31v86h458v-86l-155 -31l-565 -665l-172 -547l172 -31v-86h-680zM774 1729q0 57 42.5 100t98.5 43q59 0 100.5 -42.5t41.5 -100.5q0 -56 -41.5 -98t-100.5 -42q-56 0 -98.5 42.5 t-42.5 97.5zM1143 1729q0 57 42.5 100t100.5 43q53 0 96 -43.5t43 -99.5q0 -55 -43 -97.5t-96 -42.5q-58 0 -100.5 42t-42.5 98z" />
<glyph unicode="&#x2c6;" horiz-adv-x="1024" d="M254 999v37l293 316h119l100 -316v-37h-76l-135 160l-209 -160h-92z" />
<glyph unicode="&#x2dc;" horiz-adv-x="1024" d="M178 1049q23 93 84 187.5t98 94.5q43 0 148 -62.5t147 -62.5q32 0 68 41t49 84l74 -20q-28 -111 -87 -196t-112 -85q-34 0 -145.5 61.5t-145.5 61.5q-29 0 -50 -31.5t-48 -97.5z" />
<glyph unicode="&#x2000;" horiz-adv-x="981" />
<glyph unicode="&#x2001;" horiz-adv-x="1962" />
<glyph unicode="&#x2002;" horiz-adv-x="981" />
<glyph unicode="&#x2003;" horiz-adv-x="1962" />
<glyph unicode="&#x2004;" horiz-adv-x="654" />
<glyph unicode="&#x2005;" horiz-adv-x="490" />
<glyph unicode="&#x2006;" horiz-adv-x="327" />
<glyph unicode="&#x2007;" horiz-adv-x="327" />
<glyph unicode="&#x2008;" horiz-adv-x="245" />
<glyph unicode="&#x2009;" horiz-adv-x="392" />
<glyph unicode="&#x200a;" horiz-adv-x="109" />
<glyph unicode="&#x2010;" horiz-adv-x="643" d="M74 410l63 211h512l-63 -211h-512z" />
<glyph unicode="&#x2011;" horiz-adv-x="643" d="M74 410l63 211h512l-63 -211h-512z" />
<glyph unicode="&#x2012;" horiz-adv-x="643" d="M74 410l63 211h512l-63 -211h-512z" />
<glyph unicode="&#x2013;" horiz-adv-x="991" d="M74 410l63 211h819l-63 -211h-819z" />
<glyph unicode="&#x2014;" horiz-adv-x="2088" d="M229 438v150h1672v-150h-1672z" />
<glyph unicode="&#x2018;" horiz-adv-x="827" d="M381 1051q0 77 39.5 153t107 136t166.5 97.5t209 37.5v-86q-140 0 -221.5 -70t-81.5 -166q0 -38 17.5 -68.5t42 -52t49 -41.5t42 -47t17.5 -59q0 -54 -44 -95.5t-114 -41.5q-89 0 -159 82t-70 221z" />
<glyph unicode="&#x2019;" horiz-adv-x="827" d="M309 735v86q140 0 221.5 70t81.5 166q0 38 -17.5 68.5t-42 52t-49 41.5t-42 47t-17.5 59q0 54 44 95.5t114 41.5q89 0 159 -82t70 -221q0 -77 -39.5 -153t-107 -136t-166.5 -97.5t-209 -37.5z" />
<glyph unicode="&#x201a;" horiz-adv-x="827" d="M-51 -385q140 0 221.5 69.5t81.5 165.5q0 38 -17.5 69t-42 52t-49 41.5t-42 47.5t-17.5 59q0 54 44 95.5t114 41.5q89 0 159 -82t70 -221q0 -77 -39.5 -153t-107 -136t-166.5 -97.5t-209 -37.5v86z" />
<glyph unicode="&#x201c;" horiz-adv-x="1318" d="M381 1051q0 77 39.5 153t107 136t166.5 97.5t209 37.5v-86q-140 0 -221.5 -70t-81.5 -166q0 -38 17.5 -68.5t42 -52t49 -41.5t42 -47t17.5 -59q0 -54 -44 -95.5t-114 -41.5q-89 0 -159 82t-70 221zM872 1051q0 77 39.5 153t107.5 136t167 97.5t209 37.5v-86 q-140 0 -221.5 -70t-81.5 -166q0 -38 17.5 -68.5t42 -52t49 -41.5t42 -47t17.5 -59q0 -54 -44 -95.5t-114 -41.5q-89 0 -159.5 82t-70.5 221z" />
<glyph unicode="&#x201d;" horiz-adv-x="1318" d="M309 735v86q140 0 221.5 70t81.5 166q0 38 -17.5 68.5t-42 52t-49 41.5t-42 47t-17.5 59q0 54 44 95.5t114 41.5q89 0 159 -82t70 -221q0 -77 -39.5 -153t-107 -136t-166.5 -97.5t-209 -37.5zM801 735v86q140 0 221.5 70t81.5 166q0 38 -17.5 68.5t-42 52t-49 41.5 t-42 47t-17.5 59q0 54 44 95.5t114 41.5q89 0 159 -82t70 -221q0 -77 -39.5 -153t-107 -136t-166.5 -97.5t-209 -37.5z" />
<glyph unicode="&#x201e;" horiz-adv-x="1318" d="M-51 -385q140 0 221.5 69.5t81.5 165.5q0 38 -17.5 69t-42 52t-49 41.5t-42 47.5t-17.5 59q0 54 44 95.5t114 41.5q89 0 159 -82t70 -221q0 -77 -39.5 -153t-107 -136t-166.5 -97.5t-209 -37.5v86zM440 -385q140 0 221.5 69.5t81.5 165.5q0 38 -17.5 69t-42 52t-49 41.5 t-42 47.5t-17.5 59q0 54 44 95.5t114 41.5q89 0 159.5 -82t70.5 -221q0 -77 -39.5 -153t-107.5 -136t-167 -97.5t-209 -37.5v86z" />
<glyph unicode="&#x2022;" horiz-adv-x="1171" d="M328 541q0 115 81 196.5t197 81.5t197.5 -81.5t81.5 -196.5t-81.5 -197t-197.5 -82q-115 0 -196.5 81.5t-81.5 197.5z" />
<glyph unicode="&#x2026;" horiz-adv-x="2054" d="M129 154q0 71 49 121.5t119 50.5q71 0 121.5 -51t50.5 -121t-50.5 -119t-121.5 -49t-119.5 49t-48.5 119zM764 154q0 71 49 121.5t119 50.5t121 -51t51 -121t-50.5 -119t-121.5 -49q-70 0 -119 49t-49 119zM1399 154q0 71 49 121.5t119 50.5q71 0 121.5 -51t50.5 -121 t-50.5 -119t-121.5 -49t-119.5 49t-48.5 119z" />
<glyph unicode="&#x202f;" horiz-adv-x="392" />
<glyph unicode="&#x2039;" horiz-adv-x="913" d="M197 465l14 47l561 428l78 -72l-350 -401l-11 -31l64 -416l-131 -28z" />
<glyph unicode="&#x203a;" horiz-adv-x="913" d="M104 63l351 402l10 31l-64 415l131 29l226 -473l-15 -47l-561 -428z" />
<glyph unicode="&#x205f;" horiz-adv-x="490" />
<glyph unicode="&#x20ac;" horiz-adv-x="1273" d="M123 528l41 84h86q1 19 16 101h-143l41 84h127q80 225 267.5 368.5t406.5 143.5q97 0 172 -37.5t145 -112.5l33 37h82l-109 -348h-78q4 198 -53.5 283.5t-150.5 85.5q-77 0 -154.5 -48t-146.5 -145t-111 -227h516l-41 -84h-500q-17 -96 -18 -101h487l-41 -84h-456 q-4 -37 -4 -114q0 -187 48 -265.5t150 -78.5q78 0 152 48t128 120t95 165h90l-76 -249q-110 -92 -202 -135.5t-211 -43.5q-92 0 -174.5 35.5t-148 102.5t-104 174.5t-38.5 240.5h-123z" />
<glyph unicode="&#x2122;" horiz-adv-x="1406" d="M340 1294l74 152h440l-18 -152h-41l-35 97h-78l-123 -400l62 -12l-15 -47h-258l14 47l70 12l123 400h-76l-96 -97h-43zM727 932l14 47l72 12l160 395l-74 13l14 47h203l37 -311h14l240 311h199l-15 -47l-75 -13l-97 -395l60 -12l-15 -47h-252l15 47l73 12l76 307h-14 l-283 -366h-35l-38 366h-11l-125 -307l60 -12l-15 -47h-188z" />
<glyph unicode="&#x25fc;" horiz-adv-x="983" d="M0 0v983h983v-983h-983z" />
</font>
</defs>
</svg>
