<svg xmlns="http://www.w3.org/2000/svg" xmlns:xlink="http://www.w3.org/1999/xlink" viewBox="0 0 2000 2000"><defs><style>.cls-1,.cls-6{fill:none;}.cls-2,.cls-7{fill:#1d1d1b;}.cls-3{fill:#e4daed;}.cls-4{fill:#fee4c3;}.cls-4,.cls-6{stroke:#1d1d1b;stroke-miterlimit:10;stroke-width:20px;}.cls-5{fill:#92b0dd;}.cls-7{font-size:110px;font-family:Noteworthy-Bold, Noteworthy;font-weight:700;}.cls-8{letter-spacing:-0.14em;}.cls-9{letter-spacing:0.03em;}.cls-10{letter-spacing:0.03em;}.cls-11{letter-spacing:-0.04em;}.cls-12{letter-spacing:-0.02em;}.cls-13{letter-spacing:-0.02em;}.cls-14{letter-spacing:0.02em;}.cls-15{letter-spacing:-0.03em;}.cls-16{letter-spacing:-0.04em;}.cls-17{letter-spacing:0.03em;}.cls-18{letter-spacing:-0.02em;}.cls-19{letter-spacing:-0.04em;}.cls-20{letter-spacing:-0.02em;}.cls-21{letter-spacing:0em;}</style><symbol id="Arrow_33" data-name="Arrow 33" viewBox="0 0 55.8 25.27"><rect class="cls-1" width="55.8" height="25.27"/><polygon class="cls-2" points="0 21.78 33.95 15.68 33.95 25.27 55.8 12.64 33.95 0 33.95 9.59 0 3.5 0 21.78"/></symbol></defs><g id="Layer_4" data-name="Layer 4"><rect class="cls-3" x="-81" y="-45" width="2340" height="2223"/></g><g id="Layer_3" data-name="Layer 3"><circle class="cls-4" cx="-1329.9" cy="3273.84" r="3295.72"/><path class="cls-5" d="M-2457.79,4120.56c-4.84,2.61-6.19,1.08-3-3.39l729.5-1023.89a71.08,71.08,0,0,1,14-13.93l2872.7-2040.42c4.48-3.18,5-2.63,1,1.24L-1355.37,3525C-1356.11,3525.77-2457.79,4120.56-2457.79,4120.56Z"/><path class="cls-6" d="M-2457.79,4120.56c-4.84,2.61-6.19,1.08-3-3.39l729.5-1023.89a71.08,71.08,0,0,1,14-13.93l2872.7-2040.42c4.48-3.18,5-2.63,1,1.24L-1355.37,3525C-1356.11,3525.77-2457.79,4120.56-2457.79,4120.56Z"/><text class="cls-7" transform="translate(1458 875.4)"><tspan class="cls-8">Y</tspan><tspan class="cls-9" x="58.03" y="0">o</tspan><tspan class="cls-10" x="117.97" y="0">u</tspan><tspan x="171.74" y="0">r </tspan><tspan class="cls-11" x="0" y="132">r</tspan><tspan class="cls-12" x="39.6" y="132">es</tspan><tspan class="cls-13" x="141.63" y="132">e</tspan><tspan class="cls-14" x="191.81" y="132">a</tspan><tspan class="cls-15" x="252.72" y="132">r</tspan><tspan x="293.42" y="132">ch</tspan></text><text class="cls-7" transform="translate(693 272.4)">Wh<tspan class="cls-16" x="144.65" y="0">a</tspan><tspan x="199.24" y="0">t y</tspan><tspan class="cls-17" x="319.27" y="0">o</tspan><tspan x="379.22" y="0">u don’t </tspan><tspan class="cls-18" x="709.21" y="0">k</tspan><tspan x="764.62" y="0">now </tspan><tspan class="cls-12" x="0" y="132">t</tspan><tspan x="38.64" y="132">h</tspan><tspan class="cls-19" x="89.93" y="132">a</tspan><tspan x="144.51" y="132">t y</tspan><tspan class="cls-17" x="264.55" y="132">o</tspan><tspan x="324.5" y="132" xml:space="preserve">u  don’t </tspan><tspan class="cls-20" x="677.45" y="132">k</tspan><tspan x="732.86" y="132">now</tspan></text><text class="cls-7" transform="translate(162 1001.4)">Wh<tspan class="cls-16" x="144.65" y="0">a</tspan><tspan x="199.24" y="0">t y</tspan><tspan class="cls-17" x="319.27" y="0">o</tspan><tspan x="379.22" y="0">u </tspan><tspan x="0" y="132">don’t </tspan><tspan class="cls-20" x="256.57" y="132">k</tspan><tspan x="311.98" y="132">now</tspan></text><use width="55.8" height="25.27" transform="matrix(-4.01, 2.35, -1.44, -2.46, 1422, 913.07)" xlink:href="#Arrow_33"/><text class="cls-7" transform="translate(801 1739.4)">Wh<tspan class="cls-16" x="144.65" y="0">a</tspan><tspan x="199.24" y="0">t y</tspan><tspan class="cls-17" x="319.27" y="0">o</tspan><tspan x="379.22" y="0">u </tspan><tspan class="cls-12"><tspan x="0" y="132">k</tspan><tspan class="cls-21" x="55.41" y="132">now</tspan></tspan></text><use width="55.8" height="25.27" transform="matrix(-3.82, -2.63, 1.62, -2.34, 717.14, 1746)" xlink:href="#Arrow_33"/></g></svg>