<svg version="1.1" viewBox="0.0 0.0 960.0 720.0" fill="none" stroke="none" stroke-linecap="square" stroke-miterlimit="10" xmlns:xlink="http://www.w3.org/1999/xlink" xmlns="http://www.w3.org/2000/svg"><clipPath id="g76bd602cf0_0_14.0"><path d="m0 0l960.0 0l0 720.0l-960.0 0l0 -720.0z" clip-rule="nonzero"/></clipPath><g clip-path="url(#g76bd602cf0_0_14.0)"><path fill="#ffffff" d="m0 0l960.0 0l0 720.0l-960.0 0z" fill-rule="evenodd"/><path fill="#ffffff" d="m435.52756 70.02917l0 0c0 -8.187313 6.637146 -14.824444 14.824432 -14.824444l59.29602 0l0 0c3.9317017 0 7.7023315 1.5618591 10.482422 4.34198c2.7801514 2.7801208 4.34198 6.5507774 4.34198 10.482464l0 70.225136c0 8.187302 -6.637085 14.824432 -14.824402 14.824432l-59.29602 0c-8.187286 0 -14.824432 -6.6371307 -14.824432 -14.824432z" fill-rule="evenodd"/><path stroke="#000000" stroke-width="3.0" stroke-linejoin="round" stroke-linecap="butt" d="m435.52756 70.02917l0 0c0 -8.187313 6.637146 -14.824444 14.824432 -14.824444l59.29602 0l0 0c3.9317017 0 7.7023315 1.5618591 10.482422 4.34198c2.7801514 2.7801208 4.34198 6.5507774 4.34198 10.482464l0 70.225136c0 8.187302 -6.637085 14.824432 -14.824402 14.824432l-59.29602 0c-8.187286 0 -14.824432 -6.6371307 -14.824432 -14.824432z" fill-rule="evenodd"/><path fill="#ffffff" d="m318.93964 233.88744l0 0c0 -8.187317 6.6371155 -14.824448 14.824432 -14.824448l59.29599 0l0 0c3.9317017 0 7.702362 1.5618591 10.482483 4.34198c2.7801208 2.7801208 4.34198 6.5507812 4.34198 10.482468l0 70.22514c0 8.187286 -6.637146 14.824432 -14.824463 14.824432l-59.29599 0c-8.187317 0 -14.824432 -6.637146 -14.824432 -14.824432z" fill-rule="evenodd"/><path stroke="#000000" stroke-width="3.0" stroke-linejoin="round" stroke-linecap="butt" d="m318.93964 233.88744l0 0c0 -8.187317 6.6371155 -14.824448 14.824432 -14.824448l59.29599 0l0 0c3.9317017 0 7.702362 1.5618591 10.482483 4.34198c2.7801208 2.7801208 4.34198 6.5507812 4.34198 10.482468l0 70.22514c0 8.187286 -6.637146 14.824432 -14.824463 14.824432l-59.29599 0c-8.187317 0 -14.824432 -6.637146 -14.824432 -14.824432z" fill-rule="evenodd"/><path fill="#ffffff" d="m557.5276 233.88744l0 0c0 -8.187317 6.637085 -14.824448 14.824402 -14.824448l59.29602 0l0 0c3.9317017 0 7.7023315 1.5618591 10.482422 4.34198c2.7801514 2.7801208 4.34198 6.5507812 4.34198 10.482468l0 70.22514c0 8.187286 -6.637085 14.824432 -14.824402 14.824432l-59.29602 0c-8.187317 0 -14.824402 -6.637146 -14.824402 -14.824432z" fill-rule="evenodd"/><path stroke="#000000" stroke-width="3.0" stroke-linejoin="round" stroke-linecap="butt" d="m557.5276 233.88744l0 0c0 -8.187317 6.637085 -14.824448 14.824402 -14.824448l59.29602 0l0 0c3.9317017 0 7.7023315 1.5618591 10.482422 4.34198c2.7801514 2.7801208 4.34198 6.5507812 4.34198 10.482468l0 70.22514c0 8.187286 -6.637085 14.824432 -14.824402 14.824432l-59.29602 0c-8.187317 0 -14.824402 -6.637146 -14.824402 -14.824432z" fill-rule="evenodd"/><path fill="#000000" fill-opacity="0.0" d="m480.0 155.07874l-116.59842 64.0" fill-rule="evenodd"/><path stroke="#000000" stroke-width="3.0" stroke-linejoin="round" stroke-linecap="butt" d="m480.0 155.07874l-100.81918 55.338898" fill-rule="evenodd"/><path fill="#000000" stroke="#000000" stroke-width="3.0" stroke-linecap="butt" d="m376.79654 206.07378l-9.550354 10.894684l14.31897 -2.2069855z" fill-rule="evenodd"/><path fill="#000000" fill-opacity="0.0" d="m480.0 155.07874l122.01575 64.0" fill-rule="evenodd"/><path stroke="#000000" stroke-width="3.0" stroke-linejoin="round" stroke-linecap="butt" d="m480.0 155.07874l106.07544 55.63896" fill-rule="evenodd"/><path fill="#000000" stroke="#000000" stroke-width="3.0" stroke-linecap="butt" d="m583.77374 215.10588l14.358154 1.9356842l-9.754761 -10.712051z" fill-rule="evenodd"/></g></svg>