<svg version="1.1" viewBox="0.0 0.0 960.0 720.0" fill="none" stroke="none" stroke-linecap="square" stroke-miterlimit="10" xmlns:xlink="http://www.w3.org/1999/xlink" xmlns="http://www.w3.org/2000/svg"><clipPath id="g76bd602cf0_0_20.0"><path d="m0 0l960.0 0l0 720.0l-960.0 0l0 -720.0z" clip-rule="nonzero"/></clipPath><g clip-path="url(#g76bd602cf0_0_20.0)"><path fill="#ffffff" d="m0 0l960.0 0l0 720.0l-960.0 0z" fill-rule="evenodd"/><path fill="#ffffff" d="m435.52756 70.02917l0 0c0 -8.187313 6.637146 -14.824444 14.824432 -14.824444l59.29602 0l0 0c3.9317017 0 7.7023315 1.5618591 10.482422 4.34198c2.7801514 2.7801208 4.34198 6.5507774 4.34198 10.482464l0 70.225136c0 8.187302 -6.637085 14.824432 -14.824402 14.824432l-59.29602 0c-8.187286 0 -14.824432 -6.6371307 -14.824432 -14.824432z" fill-rule="evenodd"/><path stroke="#000000" stroke-width="3.0" stroke-linejoin="round" stroke-linecap="butt" d="m435.52756 70.02917l0 0c0 -8.187313 6.637146 -14.824444 14.824432 -14.824444l59.29602 0l0 0c3.9317017 0 7.7023315 1.5618591 10.482422 4.34198c2.7801514 2.7801208 4.34198 6.5507774 4.34198 10.482464l0 70.225136c0 8.187302 -6.637085 14.824432 -14.824402 14.824432l-59.29602 0c-8.187286 0 -14.824432 -6.6371307 -14.824432 -14.824432z" fill-rule="evenodd"/><path fill="#ffffff" d="m318.93964 233.88744l0 0c0 -8.187317 6.6371155 -14.824448 14.824432 -14.824448l59.29599 0l0 0c3.9317017 0 7.702362 1.5618591 10.482483 4.34198c2.7801208 2.7801208 4.34198 6.5507812 4.34198 10.482468l0 70.22514c0 8.187286 -6.637146 14.824432 -14.824463 14.824432l-59.29599 0c-8.187317 0 -14.824432 -6.637146 -14.824432 -14.824432z" fill-rule="evenodd"/><path stroke="#000000" stroke-width="3.0" stroke-linejoin="round" stroke-linecap="butt" d="m318.93964 233.88744l0 0c0 -8.187317 6.6371155 -14.824448 14.824432 -14.824448l59.29599 0l0 0c3.9317017 0 7.702362 1.5618591 10.482483 4.34198c2.7801208 2.7801208 4.34198 6.5507812 4.34198 10.482468l0 70.22514c0 8.187286 -6.637146 14.824432 -14.824463 14.824432l-59.29599 0c-8.187317 0 -14.824432 -6.637146 -14.824432 -14.824432z" fill-rule="evenodd"/><path fill="#ffffff" d="m557.5276 233.88744l0 0c0 -8.187317 6.637085 -14.824448 14.824402 -14.824448l59.29602 0l0 0c3.9317017 0 7.7023315 1.5618591 10.482422 4.34198c2.7801514 2.7801208 4.34198 6.5507812 4.34198 10.482468l0 70.22514c0 8.187286 -6.637085 14.824432 -14.824402 14.824432l-59.29602 0c-8.187317 0 -14.824402 -6.637146 -14.824402 -14.824432z" fill-rule="evenodd"/><path stroke="#000000" stroke-width="3.0" stroke-linejoin="round" stroke-linecap="butt" d="m557.5276 233.88744l0 0c0 -8.187317 6.637085 -14.824448 14.824402 -14.824448l59.29602 0l0 0c3.9317017 0 7.7023315 1.5618591 10.482422 4.34198c2.7801514 2.7801208 4.34198 6.5507812 4.34198 10.482468l0 70.22514c0 8.187286 -6.637085 14.824432 -14.824402 14.824432l-59.29602 0c-8.187317 0 -14.824402 -6.637146 -14.824402 -14.824432z" fill-rule="evenodd"/><path fill="#ffffff" d="m229.99475 403.36774l0 0c0 -8.187286 6.6371307 -14.824432 14.824448 -14.824432l59.296005 0l0 0c3.9316711 0 7.7023315 1.5618591 10.482452 4.34198c2.7801208 2.7801208 4.34198 6.5507812 4.34198 10.482452l0 70.22513c0 8.187317 -6.637146 14.824463 -14.824432 14.824463l-59.296005 0c-8.187317 0 -14.824448 -6.637146 -14.824448 -14.824463z" fill-rule="evenodd"/><path stroke="#000000" stroke-width="3.0" stroke-linejoin="round" stroke-linecap="butt" d="m229.99475 403.36774l0 0c0 -8.187286 6.6371307 -14.824432 14.824448 -14.824432l59.296005 0l0 0c3.9316711 0 7.7023315 1.5618591 10.482452 4.34198c2.7801208 2.7801208 4.34198 6.5507812 4.34198 10.482452l0 70.22513c0 8.187317 -6.637146 14.824463 -14.824432 14.824463l-59.296005 0c-8.187317 0 -14.824448 -6.637146 -14.824448 -14.824463z" fill-rule="evenodd"/><path fill="#ffffff" d="m407.88452 399.34937l0 0c0 -8.187286 6.6371155 -14.824432 14.824432 -14.824432l59.29599 0l0 0c3.9317017 0 7.702362 1.5618591 10.482483 4.34198c2.7801208 2.7801208 4.34198 6.5507812 4.34198 10.482452l0 70.22513c0 8.187317 -6.637146 14.824463 -14.824463 14.824463l-59.29599 0c-8.187317 0 -14.824432 -6.637146 -14.824432 -14.824463z" fill-rule="evenodd"/><path stroke="#000000" stroke-width="3.0" stroke-linejoin="round" stroke-linecap="butt" d="m407.88452 399.34937l0 0c0 -8.187286 6.6371155 -14.824432 14.824432 -14.824432l59.29599 0l0 0c3.9317017 0 7.702362 1.5618591 10.482483 4.34198c2.7801208 2.7801208 4.34198 6.5507812 4.34198 10.482452l0 70.22513c0 8.187317 -6.637146 14.824463 -14.824463 14.824463l-59.29599 0c-8.187317 0 -14.824432 -6.637146 -14.824432 -14.824463z" fill-rule="evenodd"/><path fill="#ffffff" d="m646.4724 403.36774l0 0c0 -8.187286 6.637146 -14.824432 14.824463 -14.824432l59.29602 0l0 0c3.9316406 0 7.7023315 1.5618591 10.482422 4.34198c2.7801514 2.7801208 4.34198 6.5507812 4.34198 10.482452l0 70.22513c0 8.187317 -6.637085 14.824463 -14.824402 14.824463l-59.29602 0c-8.187317 0 -14.824463 -6.637146 -14.824463 -14.824463z" fill-rule="evenodd"/><path stroke="#000000" stroke-width="3.0" stroke-linejoin="round" stroke-linecap="butt" d="m646.4724 403.36774l0 0c0 -8.187286 6.637146 -14.824432 14.824463 -14.824432l59.29602 0l0 0c3.9316406 0 7.7023315 1.5618591 10.482422 4.34198c2.7801514 2.7801208 4.34198 6.5507812 4.34198 10.482452l0 70.22513c0 8.187317 -6.637085 14.824463 -14.824402 14.824463l-59.29602 0c-8.187317 0 -14.824463 -6.637146 -14.824463 -14.824463z" fill-rule="evenodd"/><path fill="#ffffff" d="m141.04987 572.04755l0 0c0 -8.187317 6.6371307 -14.824463 14.824448 -14.824463l59.29599 0l0 0c3.9316864 0 7.702347 1.5618896 10.482468 4.34198c2.7801208 2.7801514 4.34198 6.5507812 4.34198 10.482483l0 70.2251c0 8.187317 -6.6371307 14.824463 -14.824448 14.824463l-59.29599 0c-8.187317 0 -14.824448 -6.637146 -14.824448 -14.824463z" fill-rule="evenodd"/><path stroke="#000000" stroke-width="3.0" stroke-linejoin="round" stroke-linecap="butt" d="m141.04987 572.04755l0 0c0 -8.187317 6.6371307 -14.824463 14.824448 -14.824463l59.29599 0l0 0c3.9316864 0 7.702347 1.5618896 10.482468 4.34198c2.7801208 2.7801514 4.34198 6.5507812 4.34198 10.482483l0 70.2251c0 8.187317 -6.6371307 14.824463 -14.824448 14.824463l-59.29599 0c-8.187317 0 -14.824448 -6.637146 -14.824448 -14.824463z" fill-rule="evenodd"/><path fill="#ffffff" d="m318.93964 580.81396l0 0c0 -8.187317 6.6371155 -14.824463 14.824432 -14.824463l59.29599 0l0 0c3.9317017 0 7.702362 1.5618286 10.482483 4.34198c2.7801208 2.7800903 4.34198 6.5507812 4.34198 10.482483l0 70.2251c0 8.187317 -6.637146 14.824463 -14.824463 14.824463l-59.29599 0c-8.187317 0 -14.824432 -6.637146 -14.824432 -14.824463z" fill-rule="evenodd"/><path stroke="#000000" stroke-width="3.0" stroke-linejoin="round" stroke-linecap="butt" d="m318.93964 580.81396l0 0c0 -8.187317 6.6371155 -14.824463 14.824432 -14.824463l59.29599 0l0 0c3.9317017 0 7.702362 1.5618286 10.482483 4.34198c2.7801208 2.7800903 4.34198 6.5507812 4.34198 10.482483l0 70.2251c0 8.187317 -6.637146 14.824463 -14.824463 14.824463l-59.29599 0c-8.187317 0 -14.824432 -6.637146 -14.824432 -14.824463z" fill-rule="evenodd"/><path fill="#ffffff" d="m557.5276 580.81396l0 0c0 -8.187317 6.637085 -14.824463 14.824402 -14.824463l59.29602 0l0 0c3.9317017 0 7.7023315 1.5618286 10.482422 4.34198c2.7801514 2.7800903 4.34198 6.5507812 4.34198 10.482483l0 70.2251c0 8.187317 -6.637085 14.824463 -14.824402 14.824463l-59.29602 0c-8.187317 0 -14.824402 -6.637146 -14.824402 -14.824463z" fill-rule="evenodd"/><path stroke="#000000" stroke-width="3.0" stroke-linejoin="round" stroke-linecap="butt" d="m557.5276 580.81396l0 0c0 -8.187317 6.637085 -14.824463 14.824402 -14.824463l59.29602 0l0 0c3.9317017 0 7.7023315 1.5618286 10.482422 4.34198c2.7801514 2.7800903 4.34198 6.5507812 4.34198 10.482483l0 70.2251c0 8.187317 -6.637085 14.824463 -14.824402 14.824463l-59.29602 0c-8.187317 0 -14.824402 -6.637146 -14.824402 -14.824463z" fill-rule="evenodd"/><path fill="#000000" fill-opacity="0.0" d="m480.0 155.07874l-116.59842 63.968506" fill-rule="evenodd"/><path stroke="#000000" stroke-width="3.0" stroke-linejoin="round" stroke-linecap="butt" d="m480.0 155.07874l-100.81738 55.310654" fill-rule="evenodd"/><path fill="#000000" stroke="#000000" stroke-width="3.0" stroke-linecap="butt" d="m376.79922 206.04506l-9.552582 10.8927l14.319397 -2.20401z" fill-rule="evenodd"/><path fill="#000000" fill-opacity="0.0" d="m480.0 155.07874l122.01575 63.968506" fill-rule="evenodd"/><path stroke="#000000" stroke-width="3.0" stroke-linejoin="round" stroke-linecap="butt" d="m480.0 155.07874l106.07379 55.610687" fill-rule="evenodd"/><path fill="#000000" stroke="#000000" stroke-width="3.0" stroke-linecap="butt" d="m583.77295 215.07808l14.3585205 1.932785l-9.756897 -10.710083z" fill-rule="evenodd"/><path fill="#000000" fill-opacity="0.0" d="m363.41208 318.937l-88.944885 69.60629" fill-rule="evenodd"/><path stroke="#000000" stroke-width="3.0" stroke-linejoin="round" stroke-linecap="butt" d="m363.41208 318.937l-74.76959 58.51303" fill-rule="evenodd"/><path fill="#000000" stroke="#000000" stroke-width="3.0" stroke-linecap="butt" d="m285.58865 373.54773l-7.667633 12.292694l13.77533 -4.488098z" fill-rule="evenodd"/><path fill="#000000" fill-opacity="0.0" d="m363.41208 318.937l88.944885 65.5748" fill-rule="evenodd"/><path stroke="#000000" stroke-width="3.0" stroke-linejoin="round" stroke-linecap="butt" d="m363.41208 318.937l74.456726 54.89337" fill-rule="evenodd"/><path fill="#000000" stroke="#000000" stroke-width="3.0" stroke-linecap="butt" d="m434.9283 377.81882l13.89859 4.090454l-8.017639 -12.067322z" fill-rule="evenodd"/><path fill="#000000" fill-opacity="0.0" d="m602.0 318.937l88.944885 69.60629" fill-rule="evenodd"/><path stroke="#000000" stroke-width="3.0" stroke-linejoin="round" stroke-linecap="butt" d="m602.0 318.937l74.76959 58.51303" fill-rule="evenodd"/><path fill="#000000" stroke="#000000" stroke-width="3.0" stroke-linecap="butt" d="m673.7157 381.35233l13.775391 4.488098l-7.6676636 -12.292694z" fill-rule="evenodd"/><path fill="#000000" fill-opacity="0.0" d="m274.4672 488.41733l-88.944885 68.81888" fill-rule="evenodd"/><path stroke="#000000" stroke-width="3.0" stroke-linejoin="round" stroke-linecap="butt" d="m274.4672 488.41733l-74.70862 57.803986" fill-rule="evenodd"/><path fill="#000000" stroke="#000000" stroke-width="3.0" stroke-linecap="butt" d="m196.72627 542.3022l-7.7352905 12.250244l13.799866 -4.4120483z" fill-rule="evenodd"/><path fill="#000000" fill-opacity="0.0" d="m274.4672 488.41733l88.944885 77.5748" fill-rule="evenodd"/><path stroke="#000000" stroke-width="3.0" stroke-linejoin="round" stroke-linecap="butt" d="m274.4672 488.41733l75.379456 65.7435" fill-rule="evenodd"/><path fill="#000000" stroke="#000000" stroke-width="3.0" stroke-linecap="butt" d="m346.58963 557.8952l13.517212 5.2142334l-7.0031433 -12.683044z" fill-rule="evenodd"/><path fill="#000000" fill-opacity="0.0" d="m690.9449 488.41733l-88.944885 77.5748" fill-rule="evenodd"/><path stroke="#000000" stroke-width="3.0" stroke-linejoin="round" stroke-linecap="butt" d="m690.9449 488.41733l-75.379456 65.7435" fill-rule="evenodd"/><path fill="#000000" stroke="#000000" stroke-width="3.0" stroke-linecap="butt" d="m612.3084 550.4264l-7.003174 12.683044l13.517212 -5.2142334z" fill-rule="evenodd"/></g></svg>