<?xml version="1.0" encoding="UTF-8" standalone="no"?>
<svg
   xmlns:dc="http://purl.org/dc/elements/1.1/"
   xmlns:cc="http://creativecommons.org/ns#"
   xmlns:rdf="http://www.w3.org/1999/02/22-rdf-syntax-ns#"
   xmlns:svg="http://www.w3.org/2000/svg"
   xmlns="http://www.w3.org/2000/svg"
   viewBox="0 0 875.42877 401.83902"
   height="401.83902"
   width="875.42877"
   xml:space="preserve"
   id="svg8180"
   version="1.1"><metadata
     id="metadata8186"><rdf:RDF><cc:Work
         rdf:about=""><dc:format>image/svg+xml</dc:format><dc:type
           rdf:resource="http://purl.org/dc/dcmitype/StillImage" /><dc:title></dc:title></cc:Work></rdf:RDF></metadata><defs
     id="defs8184"><clipPath
       id="clipPath8202"
       clipPathUnits="userSpaceOnUse"><path
         id="path8200"
         d="M 40.516,18.324 H 427.055 V 280.972 H 40.516 Z" /></clipPath><clipPath
       id="clipPath8212"
       clipPathUnits="userSpaceOnUse"><path
         id="path8210"
         d="M 0,0 H 657 V 302 H 0 Z" /></clipPath></defs><g
     transform="matrix(1.3333333,0,0,1.3333333,0,1.0712642e-5)"
     id="g8188"><g
       id="g8190"><g
         transform="scale(1,-1)"
         id="g8192"><path
           id="path8194"
           style="fill:#ffffff;fill-opacity:1;fill-rule:nonzero;stroke:#ffffff;stroke-width:1.07000005;stroke-linecap:round;stroke-linejoin:round;stroke-miterlimit:10;stroke-dasharray:none;stroke-opacity:1"
           d="m 0.535,-12.844 h 432 v -288 h -432 z" /></g></g><g
       id="g8196"><g
         clip-path="url(#clipPath8202)"
         id="g8198"><g
           id="g8204"><g
             id="g8206"><g
               clip-path="url(#clipPath8212)"
               id="g8208"><g
                 id="g8214"><path
                   id="path8216"
                   style="fill:#ffffff;fill-opacity:1;fill-rule:nonzero;stroke:none"
                   d="M 40.516,18.324 H 427.055 V 280.972 H 40.516 Z" /><g
                   transform="scale(1,-1)"
                   id="g8218"><path
                     id="path8220"
                     style="fill:none;stroke:#ebebeb;stroke-width:0.52999997;stroke-linecap:butt;stroke-linejoin:round;stroke-miterlimit:10;stroke-dasharray:none;stroke-opacity:1"
                     d="M 40.516,-268.023 H 427.055" /></g><g
                   transform="scale(1,-1)"
                   id="g8222"><path
                     id="path8224"
                     style="fill:none;stroke:#ebebeb;stroke-width:0.52999997;stroke-linecap:butt;stroke-linejoin:round;stroke-miterlimit:10;stroke-dasharray:none;stroke-opacity:1"
                     d="M 40.516,-224.152 H 427.055" /></g><g
                   transform="scale(1,-1)"
                   id="g8226"><path
                     id="path8228"
                     style="fill:none;stroke:#ebebeb;stroke-width:0.52999997;stroke-linecap:butt;stroke-linejoin:round;stroke-miterlimit:10;stroke-dasharray:none;stroke-opacity:1"
                     d="M 40.516,-180.285 H 427.055" /></g><g
                   transform="scale(1,-1)"
                   id="g8230"><path
                     id="path8232"
                     style="fill:none;stroke:#ebebeb;stroke-width:0.52999997;stroke-linecap:butt;stroke-linejoin:round;stroke-miterlimit:10;stroke-dasharray:none;stroke-opacity:1"
                     d="M 40.516,-136.402 H 427.055" /></g><g
                   transform="scale(1,-1)"
                   id="g8234"><path
                     id="path8236"
                     style="fill:none;stroke:#ebebeb;stroke-width:0.52999997;stroke-linecap:butt;stroke-linejoin:round;stroke-miterlimit:10;stroke-dasharray:none;stroke-opacity:1"
                     d="M 40.516,-92.535 H 427.055" /></g><g
                   transform="scale(1,-1)"
                   id="g8238"><path
                     id="path8240"
                     style="fill:none;stroke:#ebebeb;stroke-width:0.52999997;stroke-linecap:butt;stroke-linejoin:round;stroke-miterlimit:10;stroke-dasharray:none;stroke-opacity:1"
                     d="M 40.516,-48.664 H 427.055" /></g><g
                   transform="scale(1,-1)"
                   id="g8242"><path
                     id="path8244"
                     style="fill:none;stroke:#ebebeb;stroke-width:0.52999997;stroke-linecap:butt;stroke-linejoin:round;stroke-miterlimit:10;stroke-dasharray:none;stroke-opacity:1"
                     d="M 58.055,-280.973 V -18.324" /></g><g
                   transform="scale(1,-1)"
                   id="g8246"><path
                     id="path8248"
                     style="fill:none;stroke:#ebebeb;stroke-width:0.52999997;stroke-linecap:butt;stroke-linejoin:round;stroke-miterlimit:10;stroke-dasharray:none;stroke-opacity:1"
                     d="M 102.004,-280.973 V -18.324" /></g><g
                   transform="scale(1,-1)"
                   id="g8250"><path
                     id="path8252"
                     style="fill:none;stroke:#ebebeb;stroke-width:0.52999997;stroke-linecap:butt;stroke-linejoin:round;stroke-miterlimit:10;stroke-dasharray:none;stroke-opacity:1"
                     d="M 145.934,-280.973 V -18.324" /></g><g
                   transform="scale(1,-1)"
                   id="g8254"><path
                     id="path8256"
                     style="fill:none;stroke:#ebebeb;stroke-width:0.52999997;stroke-linecap:butt;stroke-linejoin:round;stroke-miterlimit:10;stroke-dasharray:none;stroke-opacity:1"
                     d="M 189.855,-280.973 V -18.324" /></g><g
                   transform="scale(1,-1)"
                   id="g8258"><path
                     id="path8260"
                     style="fill:none;stroke:#ebebeb;stroke-width:0.52999997;stroke-linecap:butt;stroke-linejoin:round;stroke-miterlimit:10;stroke-dasharray:none;stroke-opacity:1"
                     d="M 233.785,-280.973 V -18.324" /></g><g
                   transform="scale(1,-1)"
                   id="g8262"><path
                     id="path8264"
                     style="fill:none;stroke:#ebebeb;stroke-width:0.52999997;stroke-linecap:butt;stroke-linejoin:round;stroke-miterlimit:10;stroke-dasharray:none;stroke-opacity:1"
                     d="M 277.703,-280.973 V -18.324" /></g><g
                   transform="scale(1,-1)"
                   id="g8266"><path
                     id="path8268"
                     style="fill:none;stroke:#ebebeb;stroke-width:0.52999997;stroke-linecap:butt;stroke-linejoin:round;stroke-miterlimit:10;stroke-dasharray:none;stroke-opacity:1"
                     d="M 321.637,-280.973 V -18.324" /></g><g
                   transform="scale(1,-1)"
                   id="g8270"><path
                     id="path8272"
                     style="fill:none;stroke:#ebebeb;stroke-width:0.52999997;stroke-linecap:butt;stroke-linejoin:round;stroke-miterlimit:10;stroke-dasharray:none;stroke-opacity:1"
                     d="M 365.566,-280.973 V -18.324" /></g><g
                   transform="scale(1,-1)"
                   id="g8274"><path
                     id="path8276"
                     style="fill:none;stroke:#ebebeb;stroke-width:0.52999997;stroke-linecap:butt;stroke-linejoin:round;stroke-miterlimit:10;stroke-dasharray:none;stroke-opacity:1"
                     d="M 409.516,-280.973 V -18.324" /></g><g
                   transform="scale(1,-1)"
                   id="g8278"><path
                     id="path8280"
                     style="fill:none;stroke:#ebebeb;stroke-width:1.07000005;stroke-linecap:butt;stroke-linejoin:round;stroke-miterlimit:10;stroke-dasharray:none;stroke-opacity:1"
                     d="M 40.516,-246.094 H 427.055" /></g><g
                   transform="scale(1,-1)"
                   id="g8282"><path
                     id="path8284"
                     style="fill:none;stroke:#ebebeb;stroke-width:1.07000005;stroke-linecap:butt;stroke-linejoin:round;stroke-miterlimit:10;stroke-dasharray:none;stroke-opacity:1"
                     d="M 40.516,-202.215 H 427.055" /></g><g
                   transform="scale(1,-1)"
                   id="g8286"><path
                     id="path8288"
                     style="fill:none;stroke:#ebebeb;stroke-width:1.07000005;stroke-linecap:butt;stroke-linejoin:round;stroke-miterlimit:10;stroke-dasharray:none;stroke-opacity:1"
                     d="M 40.516,-158.344 H 427.055" /></g><g
                   transform="scale(1,-1)"
                   id="g8290"><path
                     id="path8292"
                     style="fill:none;stroke:#ebebeb;stroke-width:1.07000005;stroke-linecap:butt;stroke-linejoin:round;stroke-miterlimit:10;stroke-dasharray:none;stroke-opacity:1"
                     d="M 40.516,-114.473 H 427.055" /></g><g
                   transform="scale(1,-1)"
                   id="g8294"><path
                     id="path8296"
                     style="fill:none;stroke:#ebebeb;stroke-width:1.07000005;stroke-linecap:butt;stroke-linejoin:round;stroke-miterlimit:10;stroke-dasharray:none;stroke-opacity:1"
                     d="M 40.516,-70.594 H 427.055" /></g><g
                   transform="scale(1,-1)"
                   id="g8298"><path
                     id="path8300"
                     style="fill:none;stroke:#ebebeb;stroke-width:1.07000005;stroke-linecap:butt;stroke-linejoin:round;stroke-miterlimit:10;stroke-dasharray:none;stroke-opacity:1"
                     d="M 40.516,-26.723 H 427.055" /></g><g
                   transform="scale(1,-1)"
                   id="g8302"><path
                     id="path8304"
                     style="fill:none;stroke:#ebebeb;stroke-width:1.07000005;stroke-linecap:butt;stroke-linejoin:round;stroke-miterlimit:10;stroke-dasharray:none;stroke-opacity:1"
                     d="M 80.035,-280.973 V -18.324" /></g><g
                   transform="scale(1,-1)"
                   id="g8306"><path
                     id="path8308"
                     style="fill:none;stroke:#ebebeb;stroke-width:1.07000005;stroke-linecap:butt;stroke-linejoin:round;stroke-miterlimit:10;stroke-dasharray:none;stroke-opacity:1"
                     d="M 123.984,-280.973 V -18.324" /></g><g
                   transform="scale(1,-1)"
                   id="g8310"><path
                     id="path8312"
                     style="fill:none;stroke:#ebebeb;stroke-width:1.07000005;stroke-linecap:butt;stroke-linejoin:round;stroke-miterlimit:10;stroke-dasharray:none;stroke-opacity:1"
                     d="M 167.887,-280.973 V -18.324" /></g><g
                   transform="scale(1,-1)"
                   id="g8314"><path
                     id="path8316"
                     style="fill:none;stroke:#ebebeb;stroke-width:1.07000005;stroke-linecap:butt;stroke-linejoin:round;stroke-miterlimit:10;stroke-dasharray:none;stroke-opacity:1"
                     d="M 211.836,-280.973 V -18.324" /></g><g
                   transform="scale(1,-1)"
                   id="g8318"><path
                     id="path8320"
                     style="fill:none;stroke:#ebebeb;stroke-width:1.07000005;stroke-linecap:butt;stroke-linejoin:round;stroke-miterlimit:10;stroke-dasharray:none;stroke-opacity:1"
                     d="M 255.734,-280.973 V -18.324" /></g><g
                   transform="scale(1,-1)"
                   id="g8322"><path
                     id="path8324"
                     style="fill:none;stroke:#ebebeb;stroke-width:1.07000005;stroke-linecap:butt;stroke-linejoin:round;stroke-miterlimit:10;stroke-dasharray:none;stroke-opacity:1"
                     d="M 299.684,-280.973 V -18.324" /></g><g
                   transform="scale(1,-1)"
                   id="g8326"><path
                     id="path8328"
                     style="fill:none;stroke:#ebebeb;stroke-width:1.07000005;stroke-linecap:butt;stroke-linejoin:round;stroke-miterlimit:10;stroke-dasharray:none;stroke-opacity:1"
                     d="M 343.586,-280.973 V -18.324" /></g><g
                   transform="scale(1,-1)"
                   id="g8330"><path
                     id="path8332"
                     style="fill:none;stroke:#ebebeb;stroke-width:1.07000005;stroke-linecap:butt;stroke-linejoin:round;stroke-miterlimit:10;stroke-dasharray:none;stroke-opacity:1"
                     d="M 387.535,-280.973 V -18.324" /></g><g
                   transform="scale(1,-1)"
                   id="g8334"><path
                     id="path8336"
                     style="fill:none;stroke:#000000;stroke-width:1.91999996;stroke-linecap:butt;stroke-linejoin:round;stroke-miterlimit:10;stroke-dasharray:none;stroke-opacity:1"
                     d="m 58.086,-269.035 h 21.949 l 21.942,13.211 22.007,112.988 21.95,-8 21.953,8.934 21.937,3.047 22.012,4.3 21.949,10.11 21.949,3.82 21.942,8.742 22.008,-1.91 21.953,7.059 21.949,10.98 21.949,19.84 22,-16.191 21.949,-3.879" /></g><g
                   transform="scale(1,-1)"
                   id="g8338"><path
                     id="path8340"
                     style="fill:none;stroke:#000000;stroke-width:1.91999996;stroke-linecap:butt;stroke-linejoin:round;stroke-miterlimit:10;stroke-dasharray:3.84, 3.84;stroke-dashoffset:0;stroke-opacity:1"
                     d="m 58.086,-269.035 h 21.949 l 21.942,16.152 22.007,131.867 21.95,-4.886 21.953,8.457 21.937,12.961 22.012,12.468 21.949,10.59 21.949,2.801 21.942,3.359 22.008,1.383 21.953,4.758 21.949,12.992 21.949,25.867 22,-11.277 21.949,-0.801" /></g><g
                   transform="scale(1,-1)"
                   id="g8342"><path
                     id="path8344"
                     style="fill:none;stroke:#000000;stroke-width:1.07000005;stroke-linecap:round;stroke-linejoin:round;stroke-miterlimit:10;stroke-dasharray:none;stroke-opacity:1"
                     d="m 40.516,-289.965 h 8.5" /></g><g
                   transform="scale(1,-1)"
                   id="g8346"><path
                     id="path8348"
                     style="fill:none;stroke:#000000;stroke-width:1.07000005;stroke-linecap:round;stroke-linejoin:round;stroke-miterlimit:10;stroke-dasharray:none;stroke-opacity:1"
                     d="m 40.516,-276.754 h 2.828" /></g><g
                   transform="scale(1,-1)"
                   id="g8350"><path
                     id="path8352"
                     style="fill:none;stroke:#000000;stroke-width:1.07000005;stroke-linecap:round;stroke-linejoin:round;stroke-miterlimit:10;stroke-dasharray:none;stroke-opacity:1"
                     d="m 40.516,-269.035 h 2.828" /></g><g
                   transform="scale(1,-1)"
                   id="g8354"><path
                     id="path8356"
                     style="fill:none;stroke:#000000;stroke-width:1.07000005;stroke-linecap:round;stroke-linejoin:round;stroke-miterlimit:10;stroke-dasharray:none;stroke-opacity:1"
                     d="m 40.516,-263.555 h 2.828" /></g><g
                   transform="scale(1,-1)"
                   id="g8358"><path
                     id="path8360"
                     style="fill:none;stroke:#000000;stroke-width:1.07000005;stroke-linecap:round;stroke-linejoin:round;stroke-miterlimit:10;stroke-dasharray:none;stroke-opacity:1"
                     d="m 40.516,-259.305 h 5.668" /></g><g
                   transform="scale(1,-1)"
                   id="g8362"><path
                     id="path8364"
                     style="fill:none;stroke:#000000;stroke-width:1.07000005;stroke-linecap:round;stroke-linejoin:round;stroke-miterlimit:10;stroke-dasharray:none;stroke-opacity:1"
                     d="m 40.516,-255.824 h 2.828" /></g><g
                   transform="scale(1,-1)"
                   id="g8366"><path
                     id="path8368"
                     style="fill:none;stroke:#000000;stroke-width:1.07000005;stroke-linecap:round;stroke-linejoin:round;stroke-miterlimit:10;stroke-dasharray:none;stroke-opacity:1"
                     d="m 40.516,-252.883 h 2.828" /></g><g
                   transform="scale(1,-1)"
                   id="g8370"><path
                     id="path8372"
                     style="fill:none;stroke:#000000;stroke-width:1.07000005;stroke-linecap:round;stroke-linejoin:round;stroke-miterlimit:10;stroke-dasharray:none;stroke-opacity:1"
                     d="m 40.516,-250.344 h 2.828" /></g><g
                   transform="scale(1,-1)"
                   id="g8374"><path
                     id="path8376"
                     style="fill:none;stroke:#000000;stroke-width:1.07000005;stroke-linecap:round;stroke-linejoin:round;stroke-miterlimit:10;stroke-dasharray:none;stroke-opacity:1"
                     d="m 40.516,-248.105 h 2.828" /></g><g
                   transform="scale(1,-1)"
                   id="g8378"><path
                     id="path8380"
                     style="fill:none;stroke:#000000;stroke-width:1.07000005;stroke-linecap:round;stroke-linejoin:round;stroke-miterlimit:10;stroke-dasharray:none;stroke-opacity:1"
                     d="m 40.516,-246.094 h 8.5" /></g><g
                   transform="scale(1,-1)"
                   id="g8382"><path
                     id="path8384"
                     style="fill:none;stroke:#000000;stroke-width:1.07000005;stroke-linecap:round;stroke-linejoin:round;stroke-miterlimit:10;stroke-dasharray:none;stroke-opacity:1"
                     d="m 40.516,-232.883 h 2.828" /></g><g
                   transform="scale(1,-1)"
                   id="g8386"><path
                     id="path8388"
                     style="fill:none;stroke:#000000;stroke-width:1.07000005;stroke-linecap:round;stroke-linejoin:round;stroke-miterlimit:10;stroke-dasharray:none;stroke-opacity:1"
                     d="m 40.516,-225.164 h 2.828" /></g><g
                   transform="scale(1,-1)"
                   id="g8390"><path
                     id="path8392"
                     style="fill:none;stroke:#000000;stroke-width:1.07000005;stroke-linecap:round;stroke-linejoin:round;stroke-miterlimit:10;stroke-dasharray:none;stroke-opacity:1"
                     d="m 40.516,-219.676 h 2.828" /></g><g
                   transform="scale(1,-1)"
                   id="g8394"><path
                     id="path8396"
                     style="fill:none;stroke:#000000;stroke-width:1.07000005;stroke-linecap:round;stroke-linejoin:round;stroke-miterlimit:10;stroke-dasharray:none;stroke-opacity:1"
                     d="m 40.516,-215.426 h 5.668" /></g><g
                   transform="scale(1,-1)"
                   id="g8398"><path
                     id="path8400"
                     style="fill:none;stroke:#000000;stroke-width:1.07000005;stroke-linecap:round;stroke-linejoin:round;stroke-miterlimit:10;stroke-dasharray:none;stroke-opacity:1"
                     d="m 40.516,-211.953 h 2.828" /></g><g
                   transform="scale(1,-1)"
                   id="g8402"><path
                     id="path8404"
                     style="fill:none;stroke:#000000;stroke-width:1.07000005;stroke-linecap:round;stroke-linejoin:round;stroke-miterlimit:10;stroke-dasharray:none;stroke-opacity:1"
                     d="m 40.516,-209.016 h 2.828" /></g><g
                   transform="scale(1,-1)"
                   id="g8406"><path
                     id="path8408"
                     style="fill:none;stroke:#000000;stroke-width:1.07000005;stroke-linecap:round;stroke-linejoin:round;stroke-miterlimit:10;stroke-dasharray:none;stroke-opacity:1"
                     d="m 40.516,-206.473 h 2.828" /></g><g
                   transform="scale(1,-1)"
                   id="g8410"><path
                     id="path8412"
                     style="fill:none;stroke:#000000;stroke-width:1.07000005;stroke-linecap:round;stroke-linejoin:round;stroke-miterlimit:10;stroke-dasharray:none;stroke-opacity:1"
                     d="m 40.516,-204.223 h 2.828" /></g><g
                   transform="scale(1,-1)"
                   id="g8414"><path
                     id="path8416"
                     style="fill:none;stroke:#000000;stroke-width:1.07000005;stroke-linecap:round;stroke-linejoin:round;stroke-miterlimit:10;stroke-dasharray:none;stroke-opacity:1"
                     d="m 40.516,-202.215 h 8.5" /></g><g
                   transform="scale(1,-1)"
                   id="g8418"><path
                     id="path8420"
                     style="fill:none;stroke:#000000;stroke-width:1.07000005;stroke-linecap:round;stroke-linejoin:round;stroke-miterlimit:10;stroke-dasharray:none;stroke-opacity:1"
                     d="m 40.516,-189.016 h 2.828" /></g><g
                   transform="scale(1,-1)"
                   id="g8422"><path
                     id="path8424"
                     style="fill:none;stroke:#000000;stroke-width:1.07000005;stroke-linecap:round;stroke-linejoin:round;stroke-miterlimit:10;stroke-dasharray:none;stroke-opacity:1"
                     d="m 40.516,-181.285 h 2.828" /></g><g
                   transform="scale(1,-1)"
                   id="g8426"><path
                     id="path8428"
                     style="fill:none;stroke:#000000;stroke-width:1.07000005;stroke-linecap:round;stroke-linejoin:round;stroke-miterlimit:10;stroke-dasharray:none;stroke-opacity:1"
                     d="m 40.516,-175.805 h 2.828" /></g><g
                   transform="scale(1,-1)"
                   id="g8430"><path
                     id="path8432"
                     style="fill:none;stroke:#000000;stroke-width:1.07000005;stroke-linecap:round;stroke-linejoin:round;stroke-miterlimit:10;stroke-dasharray:none;stroke-opacity:1"
                     d="m 40.516,-171.555 h 5.668" /></g><g
                   transform="scale(1,-1)"
                   id="g8434"><path
                     id="path8436"
                     style="fill:none;stroke:#000000;stroke-width:1.07000005;stroke-linecap:round;stroke-linejoin:round;stroke-miterlimit:10;stroke-dasharray:none;stroke-opacity:1"
                     d="m 40.516,-168.074 h 2.828" /></g><g
                   transform="scale(1,-1)"
                   id="g8438"><path
                     id="path8440"
                     style="fill:none;stroke:#000000;stroke-width:1.07000005;stroke-linecap:round;stroke-linejoin:round;stroke-miterlimit:10;stroke-dasharray:none;stroke-opacity:1"
                     d="m 40.516,-165.145 h 2.828" /></g><g
                   transform="scale(1,-1)"
                   id="g8442"><path
                     id="path8444"
                     style="fill:none;stroke:#000000;stroke-width:1.07000005;stroke-linecap:round;stroke-linejoin:round;stroke-miterlimit:10;stroke-dasharray:none;stroke-opacity:1"
                     d="m 40.516,-162.594 h 2.828" /></g><g
                   transform="scale(1,-1)"
                   id="g8446"><path
                     id="path8448"
                     style="fill:none;stroke:#000000;stroke-width:1.07000005;stroke-linecap:round;stroke-linejoin:round;stroke-miterlimit:10;stroke-dasharray:none;stroke-opacity:1"
                     d="m 40.516,-160.355 h 2.828" /></g><g
                   transform="scale(1,-1)"
                   id="g8450"><path
                     id="path8452"
                     style="fill:none;stroke:#000000;stroke-width:1.07000005;stroke-linecap:round;stroke-linejoin:round;stroke-miterlimit:10;stroke-dasharray:none;stroke-opacity:1"
                     d="m 40.516,-158.344 h 8.5" /></g><g
                   transform="scale(1,-1)"
                   id="g8454"><path
                     id="path8456"
                     style="fill:none;stroke:#000000;stroke-width:1.07000005;stroke-linecap:round;stroke-linejoin:round;stroke-miterlimit:10;stroke-dasharray:none;stroke-opacity:1"
                     d="m 40.516,-145.133 h 2.828" /></g><g
                   transform="scale(1,-1)"
                   id="g8458"><path
                     id="path8460"
                     style="fill:none;stroke:#000000;stroke-width:1.07000005;stroke-linecap:round;stroke-linejoin:round;stroke-miterlimit:10;stroke-dasharray:none;stroke-opacity:1"
                     d="m 40.516,-137.414 h 2.828" /></g><g
                   transform="scale(1,-1)"
                   id="g8462"><path
                     id="path8464"
                     style="fill:none;stroke:#000000;stroke-width:1.07000005;stroke-linecap:round;stroke-linejoin:round;stroke-miterlimit:10;stroke-dasharray:none;stroke-opacity:1"
                     d="m 40.516,-131.934 h 2.828" /></g><g
                   transform="scale(1,-1)"
                   id="g8466"><path
                     id="path8468"
                     style="fill:none;stroke:#000000;stroke-width:1.07000005;stroke-linecap:round;stroke-linejoin:round;stroke-miterlimit:10;stroke-dasharray:none;stroke-opacity:1"
                     d="m 40.516,-127.676 h 5.668" /></g><g
                   transform="scale(1,-1)"
                   id="g8470"><path
                     id="path8472"
                     style="fill:none;stroke:#000000;stroke-width:1.07000005;stroke-linecap:round;stroke-linejoin:round;stroke-miterlimit:10;stroke-dasharray:none;stroke-opacity:1"
                     d="m 40.516,-124.203 h 2.828" /></g><g
                   transform="scale(1,-1)"
                   id="g8474"><path
                     id="path8476"
                     style="fill:none;stroke:#000000;stroke-width:1.07000005;stroke-linecap:round;stroke-linejoin:round;stroke-miterlimit:10;stroke-dasharray:none;stroke-opacity:1"
                     d="m 40.516,-121.266 h 2.828" /></g><g
                   transform="scale(1,-1)"
                   id="g8478"><path
                     id="path8480"
                     style="fill:none;stroke:#000000;stroke-width:1.07000005;stroke-linecap:round;stroke-linejoin:round;stroke-miterlimit:10;stroke-dasharray:none;stroke-opacity:1"
                     d="m 40.516,-118.723 h 2.828" /></g><g
                   transform="scale(1,-1)"
                   id="g8482"><path
                     id="path8484"
                     style="fill:none;stroke:#000000;stroke-width:1.07000005;stroke-linecap:round;stroke-linejoin:round;stroke-miterlimit:10;stroke-dasharray:none;stroke-opacity:1"
                     d="m 40.516,-116.484 h 2.828" /></g><g
                   transform="scale(1,-1)"
                   id="g8486"><path
                     id="path8488"
                     style="fill:none;stroke:#000000;stroke-width:1.07000005;stroke-linecap:round;stroke-linejoin:round;stroke-miterlimit:10;stroke-dasharray:none;stroke-opacity:1"
                     d="m 40.516,-114.473 h 8.5" /></g><g
                   transform="scale(1,-1)"
                   id="g8490"><path
                     id="path8492"
                     style="fill:none;stroke:#000000;stroke-width:1.07000005;stroke-linecap:round;stroke-linejoin:round;stroke-miterlimit:10;stroke-dasharray:none;stroke-opacity:1"
                     d="m 40.516,-101.266 h 2.828" /></g><g
                   transform="scale(1,-1)"
                   id="g8494"><path
                     id="path8496"
                     style="fill:none;stroke:#000000;stroke-width:1.07000005;stroke-linecap:round;stroke-linejoin:round;stroke-miterlimit:10;stroke-dasharray:none;stroke-opacity:1"
                     d="m 40.516,-93.535 h 2.828" /></g><g
                   transform="scale(1,-1)"
                   id="g8498"><path
                     id="path8500"
                     style="fill:none;stroke:#000000;stroke-width:1.07000005;stroke-linecap:round;stroke-linejoin:round;stroke-miterlimit:10;stroke-dasharray:none;stroke-opacity:1"
                     d="m 40.516,-88.055 h 2.828" /></g><g
                   transform="scale(1,-1)"
                   id="g8502"><path
                     id="path8504"
                     style="fill:none;stroke:#000000;stroke-width:1.07000005;stroke-linecap:round;stroke-linejoin:round;stroke-miterlimit:10;stroke-dasharray:none;stroke-opacity:1"
                     d="m 40.516,-83.805 h 5.668" /></g><g
                   transform="scale(1,-1)"
                   id="g8506"><path
                     id="path8508"
                     style="fill:none;stroke:#000000;stroke-width:1.07000005;stroke-linecap:round;stroke-linejoin:round;stroke-miterlimit:10;stroke-dasharray:none;stroke-opacity:1"
                     d="m 40.516,-80.336 h 2.828" /></g><g
                   transform="scale(1,-1)"
                   id="g8510"><path
                     id="path8512"
                     style="fill:none;stroke:#000000;stroke-width:1.07000005;stroke-linecap:round;stroke-linejoin:round;stroke-miterlimit:10;stroke-dasharray:none;stroke-opacity:1"
                     d="m 40.516,-77.395 h 2.828" /></g><g
                   transform="scale(1,-1)"
                   id="g8514"><path
                     id="path8516"
                     style="fill:none;stroke:#000000;stroke-width:1.07000005;stroke-linecap:round;stroke-linejoin:round;stroke-miterlimit:10;stroke-dasharray:none;stroke-opacity:1"
                     d="m 40.516,-74.855 h 2.828" /></g><g
                   transform="scale(1,-1)"
                   id="g8518"><path
                     id="path8520"
                     style="fill:none;stroke:#000000;stroke-width:1.07000005;stroke-linecap:round;stroke-linejoin:round;stroke-miterlimit:10;stroke-dasharray:none;stroke-opacity:1"
                     d="m 40.516,-72.605 h 2.828" /></g><g
                   transform="scale(1,-1)"
                   id="g8522"><path
                     id="path8524"
                     style="fill:none;stroke:#000000;stroke-width:1.07000005;stroke-linecap:round;stroke-linejoin:round;stroke-miterlimit:10;stroke-dasharray:none;stroke-opacity:1"
                     d="m 40.516,-70.594 h 8.5" /></g><g
                   transform="scale(1,-1)"
                   id="g8526"><path
                     id="path8528"
                     style="fill:none;stroke:#000000;stroke-width:1.07000005;stroke-linecap:round;stroke-linejoin:round;stroke-miterlimit:10;stroke-dasharray:none;stroke-opacity:1"
                     d="m 40.516,-57.395 h 2.828" /></g><g
                   transform="scale(1,-1)"
                   id="g8530"><path
                     id="path8532"
                     style="fill:none;stroke:#000000;stroke-width:1.07000005;stroke-linecap:round;stroke-linejoin:round;stroke-miterlimit:10;stroke-dasharray:none;stroke-opacity:1"
                     d="m 40.516,-49.664 h 2.828" /></g><g
                   transform="scale(1,-1)"
                   id="g8534"><path
                     id="path8536"
                     style="fill:none;stroke:#000000;stroke-width:1.07000005;stroke-linecap:round;stroke-linejoin:round;stroke-miterlimit:10;stroke-dasharray:none;stroke-opacity:1"
                     d="m 40.516,-44.184 h 2.828" /></g><g
                   transform="scale(1,-1)"
                   id="g8538"><path
                     id="path8540"
                     style="fill:none;stroke:#000000;stroke-width:1.07000005;stroke-linecap:round;stroke-linejoin:round;stroke-miterlimit:10;stroke-dasharray:none;stroke-opacity:1"
                     d="m 40.516,-39.934 h 5.668" /></g><g
                   transform="scale(1,-1)"
                   id="g8542"><path
                     id="path8544"
                     style="fill:none;stroke:#000000;stroke-width:1.07000005;stroke-linecap:round;stroke-linejoin:round;stroke-miterlimit:10;stroke-dasharray:none;stroke-opacity:1"
                     d="m 40.516,-36.453 h 2.828" /></g><g
                   transform="scale(1,-1)"
                   id="g8546"><path
                     id="path8548"
                     style="fill:none;stroke:#000000;stroke-width:1.07000005;stroke-linecap:round;stroke-linejoin:round;stroke-miterlimit:10;stroke-dasharray:none;stroke-opacity:1"
                     d="m 40.516,-33.523 h 2.828" /></g><g
                   transform="scale(1,-1)"
                   id="g8550"><path
                     id="path8552"
                     style="fill:none;stroke:#000000;stroke-width:1.07000005;stroke-linecap:round;stroke-linejoin:round;stroke-miterlimit:10;stroke-dasharray:none;stroke-opacity:1"
                     d="m 40.516,-30.973 h 2.828" /></g><g
                   transform="scale(1,-1)"
                   id="g8554"><path
                     id="path8556"
                     style="fill:none;stroke:#000000;stroke-width:1.07000005;stroke-linecap:round;stroke-linejoin:round;stroke-miterlimit:10;stroke-dasharray:none;stroke-opacity:1"
                     d="m 40.516,-28.734 h 2.828" /></g><g
                   transform="scale(1,-1)"
                   id="g8558"><path
                     id="path8560"
                     style="fill:none;stroke:#000000;stroke-width:1.07000005;stroke-linecap:round;stroke-linejoin:round;stroke-miterlimit:10;stroke-dasharray:none;stroke-opacity:1"
                     d="m 40.516,-26.723 h 8.5" /></g><g
                   transform="scale(1,-1)"
                   id="g8562"><path
                     id="path8564"
                     style="fill:none;stroke:#000000;stroke-width:1.07000005;stroke-linecap:round;stroke-linejoin:round;stroke-miterlimit:10;stroke-dasharray:none;stroke-opacity:1"
                     d="m 40.516,-13.516 h 2.828" /></g><g
                   transform="scale(1,-1)"
                   id="g8566"><path
                     id="path8568"
                     style="fill:none;stroke:#333333;stroke-width:1.07000005;stroke-linecap:round;stroke-linejoin:round;stroke-miterlimit:10;stroke-dasharray:none;stroke-opacity:1"
                     d="M 40.516,-18.324 H 427.055 V -280.972 H 40.516 Z" /></g></g></g></g></g></g></g><g
       id="g8570"><path
         id="path8572"
         style="fill:#4d4d4d;fill-opacity:1;fill-rule:nonzero;stroke:none"
         d="m 25.359,250.355 v -6.375 h -0.531 c -0.266,0.969 -0.453,1.11 -1.672,1.266 v 0.563 h 1.406 v 4.546 z" /><path
         id="path8574"
         style="fill:#4d4d4d;fill-opacity:1;fill-rule:nonzero;stroke:none"
         d="m 31.801,247.293 c 0,-2.219 -0.703,-3.313 -2.094,-3.313 -1.375,0 -2.078,1.11 -2.078,3.25 0,2.157 0.719,3.266 2.078,3.266 1.359,0 2.094,-1.109 2.094,-3.203 z m -0.813,-0.078 c 0,1.812 -0.406,2.625 -1.297,2.625 -0.828,0 -1.25,-0.86 -1.25,-2.594 0,-1.75 0.422,-2.562 1.266,-2.562 0.859,0 1.281,0.828 1.281,2.531 z" /><path
         id="path8576"
         style="fill:#4d4d4d;fill-opacity:1;fill-rule:nonzero;stroke:none"
         d="m 34.324,245.883 v -4.25 H 33.98 c -0.187,0.656 -0.312,0.734 -1.125,0.844 v 0.375 h 0.938 v 3.031 z" /><path
         id="path8578"
         style="fill:#4d4d4d;fill-opacity:1;fill-rule:nonzero;stroke:none"
         d="m 25.359,206.473 v -6.375 h -0.531 c -0.266,0.968 -0.453,1.109 -1.672,1.265 v 0.563 h 1.406 v 4.547 z" /><path
         id="path8580"
         style="fill:#4d4d4d;fill-opacity:1;fill-rule:nonzero;stroke:none"
         d="m 31.801,203.41 c 0,-2.219 -0.703,-3.312 -2.094,-3.312 -1.375,0 -2.078,1.109 -2.078,3.25 0,2.156 0.719,3.265 2.078,3.265 1.359,0 2.094,-1.109 2.094,-3.203 z m -0.813,-0.078 c 0,1.813 -0.406,2.625 -1.297,2.625 -0.828,0 -1.25,-0.859 -1.25,-2.594 0,-1.75 0.422,-2.562 1.266,-2.562 0.859,0 1.281,0.828 1.281,2.531 z" /><path
         id="path8582"
         style="fill:#4d4d4d;fill-opacity:1;fill-rule:nonzero;stroke:none"
         d="m 35.309,199.004 c 0,-0.719 -0.547,-1.25 -1.36,-1.25 -0.875,0 -1.375,0.437 -1.406,1.469 h 0.531 c 0.047,-0.703 0.328,-1.016 0.86,-1.016 0.484,0 0.843,0.344 0.843,0.797 0,0.344 -0.203,0.625 -0.578,0.844 l -0.562,0.312 c -0.875,0.5 -1.141,0.906 -1.188,1.844 h 2.828 v -0.516 h -2.234 c 0.062,-0.359 0.25,-0.578 0.766,-0.875 l 0.609,-0.328 c 0.594,-0.328 0.891,-0.765 0.891,-1.281 z" /><path
         id="path8584"
         style="fill:#4d4d4d;fill-opacity:1;fill-rule:nonzero;stroke:none"
         d="m 25.359,162.605 v -6.375 h -0.531 c -0.266,0.969 -0.453,1.11 -1.672,1.266 v 0.563 h 1.406 v 4.546 z" /><path
         id="path8586"
         style="fill:#4d4d4d;fill-opacity:1;fill-rule:nonzero;stroke:none"
         d="m 31.801,159.543 c 0,-2.219 -0.703,-3.313 -2.094,-3.313 -1.375,0 -2.078,1.11 -2.078,3.25 0,2.157 0.719,3.266 2.078,3.266 1.359,0 2.094,-1.109 2.094,-3.203 z m -0.813,-0.078 c 0,1.812 -0.406,2.625 -1.297,2.625 -0.828,0 -1.25,-0.86 -1.25,-2.594 0,-1.75 0.422,-2.562 1.266,-2.562 0.859,0 1.281,0.828 1.281,2.531 z" /><path
         id="path8588"
         style="fill:#4d4d4d;fill-opacity:1;fill-rule:nonzero;stroke:none"
         d="m 35.277,156.898 c 0,-0.515 -0.203,-0.812 -0.718,-0.984 0.406,-0.156 0.593,-0.437 0.593,-0.859 0,-0.735 -0.484,-1.172 -1.297,-1.172 -0.859,0 -1.312,0.469 -1.328,1.375 h 0.532 c 0.015,-0.641 0.265,-0.922 0.812,-0.922 0.469,0 0.75,0.281 0.75,0.734 0,0.453 -0.203,0.641 -1.047,0.641 v 0.437 h 0.281 c 0.594,0 0.891,0.282 0.891,0.75 0,0.532 -0.328,0.86 -0.891,0.86 -0.578,0 -0.859,-0.297 -0.89,-0.906 h -0.531 c 0.078,0.937 0.531,1.375 1.406,1.375 0.875,0 1.437,-0.532 1.437,-1.329 z" /><path
         id="path8590"
         style="fill:#4d4d4d;fill-opacity:1;fill-rule:nonzero;stroke:none"
         d="m 25.359,118.734 v -6.375 h -0.531 c -0.266,0.969 -0.453,1.11 -1.672,1.266 v 0.563 h 1.406 v 4.546 z" /><path
         id="path8592"
         style="fill:#4d4d4d;fill-opacity:1;fill-rule:nonzero;stroke:none"
         d="m 31.801,115.672 c 0,-2.219 -0.703,-3.313 -2.094,-3.313 -1.375,0 -2.078,1.11 -2.078,3.25 0,2.157 0.719,3.266 2.078,3.266 1.359,0 2.094,-1.109 2.094,-3.203 z m -0.813,-0.078 c 0,1.812 -0.406,2.625 -1.297,2.625 -0.828,0 -1.25,-0.86 -1.25,-2.594 0,-1.75 0.422,-2.563 1.266,-2.563 0.859,0 1.281,0.829 1.281,2.532 z" /><path
         id="path8594"
         style="fill:#4d4d4d;fill-opacity:1;fill-rule:nonzero;stroke:none"
         d="m 35.371,113.25 v -0.484 H 34.73 v -2.75 h -0.39 l -1.922,2.672 v 0.562 h 1.797 v 1.016 h 0.515 v -1.016 z m -1.156,-0.484 h -1.344 l 1.344,-1.86 z" /><path
         id="path8596"
         style="fill:#4d4d4d;fill-opacity:1;fill-rule:nonzero;stroke:none"
         d="m 25.359,74.812 v -6.374 h -0.531 c -0.266,0.968 -0.453,1.109 -1.672,1.265 v 0.563 h 1.406 v 4.546 z" /><path
         id="path8598"
         style="fill:#4d4d4d;fill-opacity:1;fill-rule:nonzero;stroke:none"
         d="m 31.801,71.75 c 0,-2.219 -0.703,-3.312 -2.094,-3.312 -1.375,0 -2.078,1.109 -2.078,3.25 0,2.156 0.719,3.265 2.078,3.265 1.359,0 2.094,-1.109 2.094,-3.203 z m -0.813,-0.078 c 0,1.812 -0.406,2.625 -1.297,2.625 -0.828,0 -1.25,-0.859 -1.25,-2.594 0,-1.75 0.422,-2.562 1.266,-2.562 0.859,0 1.281,0.828 1.281,2.531 z" /><path
         id="path8600"
         style="fill:#4d4d4d;fill-opacity:1;fill-rule:nonzero;stroke:none"
         d="m 35.324,68.938 c 0,-0.844 -0.562,-1.391 -1.375,-1.391 -0.297,0 -0.547,0.078 -0.781,0.25 l 0.172,-1.094 h 1.765 v -0.515 h -2.203 l -0.312,2.218 h 0.484 c 0.25,-0.297 0.453,-0.39 0.781,-0.39 0.563,0 0.922,0.359 0.922,0.984 0,0.625 -0.343,0.969 -0.922,0.969 -0.468,0 -0.75,-0.235 -0.875,-0.719 h -0.531 c 0.188,0.844 0.656,1.188 1.422,1.188 0.859,0 1.453,-0.61 1.453,-1.5 z" /><path
         id="path8602"
         style="fill:#4d4d4d;fill-opacity:1;fill-rule:nonzero;stroke:none"
         d="m 25.359,30.984 v -6.375 h -0.531 c -0.266,0.969 -0.453,1.11 -1.672,1.266 v 0.563 h 1.406 v 4.546 z" /><path
         id="path8604"
         style="fill:#4d4d4d;fill-opacity:1;fill-rule:nonzero;stroke:none"
         d="m 31.801,27.922 c 0,-2.219 -0.703,-3.313 -2.094,-3.313 -1.375,0 -2.078,1.11 -2.078,3.25 0,2.157 0.719,3.266 2.078,3.266 1.359,0 2.094,-1.109 2.094,-3.203 z m -0.813,-0.078 c 0,1.812 -0.406,2.625 -1.297,2.625 -0.828,0 -1.25,-0.86 -1.25,-2.594 0,-1.75 0.422,-2.563 1.266,-2.563 0.859,0 1.281,0.829 1.281,2.532 z" /><path
         id="path8606"
         style="fill:#4d4d4d;fill-opacity:1;fill-rule:nonzero;stroke:none"
         d="m 35.324,25.203 c 0,-0.797 -0.547,-1.328 -1.297,-1.328 -0.422,0 -0.75,0.156 -0.984,0.469 0,-1.032 0.344,-1.61 0.953,-1.61 0.375,0 0.625,0.235 0.703,0.641 h 0.531 c -0.093,-0.703 -0.546,-1.109 -1.203,-1.109 -0.984,0 -1.515,0.828 -1.515,2.312 0,1.328 0.453,2.031 1.422,2.031 0.812,0 1.39,-0.578 1.39,-1.406 z m -0.547,0.031 c 0,0.532 -0.359,0.907 -0.843,0.907 -0.485,0 -0.86,-0.391 -0.86,-0.938 0,-0.531 0.36,-0.859 0.875,-0.859 0.516,0 0.828,0.328 0.828,0.89 z" /><g
         transform="scale(1,-1)"
         id="g8608"><path
           id="path8610"
           style="fill:none;stroke:#333333;stroke-width:1.07000005;stroke-linecap:butt;stroke-linejoin:round;stroke-miterlimit:10;stroke-dasharray:none;stroke-opacity:1"
           d="m 37.773,-246.094 h 2.743" /></g><g
         transform="scale(1,-1)"
         id="g8612"><path
           id="path8614"
           style="fill:none;stroke:#333333;stroke-width:1.07000005;stroke-linecap:butt;stroke-linejoin:round;stroke-miterlimit:10;stroke-dasharray:none;stroke-opacity:1"
           d="m 37.773,-202.215 h 2.743" /></g><g
         transform="scale(1,-1)"
         id="g8616"><path
           id="path8618"
           style="fill:none;stroke:#333333;stroke-width:1.07000005;stroke-linecap:butt;stroke-linejoin:round;stroke-miterlimit:10;stroke-dasharray:none;stroke-opacity:1"
           d="m 37.773,-158.344 h 2.743" /></g><g
         transform="scale(1,-1)"
         id="g8620"><path
           id="path8622"
           style="fill:none;stroke:#333333;stroke-width:1.07000005;stroke-linecap:butt;stroke-linejoin:round;stroke-miterlimit:10;stroke-dasharray:none;stroke-opacity:1"
           d="m 37.773,-114.473 h 2.743" /></g><g
         transform="scale(1,-1)"
         id="g8624"><path
           id="path8626"
           style="fill:none;stroke:#333333;stroke-width:1.07000005;stroke-linecap:butt;stroke-linejoin:round;stroke-miterlimit:10;stroke-dasharray:none;stroke-opacity:1"
           d="m 37.773,-70.594 h 2.743" /></g><g
         transform="scale(1,-1)"
         id="g8628"><path
           id="path8630"
           style="fill:none;stroke:#333333;stroke-width:1.07000005;stroke-linecap:butt;stroke-linejoin:round;stroke-miterlimit:10;stroke-dasharray:none;stroke-opacity:1"
           d="m 37.773,-26.723 h 2.743" /></g><g
         transform="scale(1,-1)"
         id="g8632"><path
           id="path8634"
           style="fill:none;stroke:#333333;stroke-width:1.07000005;stroke-linecap:butt;stroke-linejoin:round;stroke-miterlimit:10;stroke-dasharray:none;stroke-opacity:1"
           d="m 80.035,-283.715 v 2.742" /></g><g
         transform="scale(1,-1)"
         id="g8636"><path
           id="path8638"
           style="fill:none;stroke:#333333;stroke-width:1.07000005;stroke-linecap:butt;stroke-linejoin:round;stroke-miterlimit:10;stroke-dasharray:none;stroke-opacity:1"
           d="m 123.984,-283.715 v 2.742" /></g><g
         transform="scale(1,-1)"
         id="g8640"><path
           id="path8642"
           style="fill:none;stroke:#333333;stroke-width:1.07000005;stroke-linecap:butt;stroke-linejoin:round;stroke-miterlimit:10;stroke-dasharray:none;stroke-opacity:1"
           d="m 167.887,-283.715 v 2.742" /></g><g
         transform="scale(1,-1)"
         id="g8644"><path
           id="path8646"
           style="fill:none;stroke:#333333;stroke-width:1.07000005;stroke-linecap:butt;stroke-linejoin:round;stroke-miterlimit:10;stroke-dasharray:none;stroke-opacity:1"
           d="m 211.836,-283.715 v 2.742" /></g><g
         transform="scale(1,-1)"
         id="g8648"><path
           id="path8650"
           style="fill:none;stroke:#333333;stroke-width:1.07000005;stroke-linecap:butt;stroke-linejoin:round;stroke-miterlimit:10;stroke-dasharray:none;stroke-opacity:1"
           d="m 255.734,-283.715 v 2.742" /></g><g
         transform="scale(1,-1)"
         id="g8652"><path
           id="path8654"
           style="fill:none;stroke:#333333;stroke-width:1.07000005;stroke-linecap:butt;stroke-linejoin:round;stroke-miterlimit:10;stroke-dasharray:none;stroke-opacity:1"
           d="m 299.684,-283.715 v 2.742" /></g><g
         transform="scale(1,-1)"
         id="g8656"><path
           id="path8658"
           style="fill:none;stroke:#333333;stroke-width:1.07000005;stroke-linecap:butt;stroke-linejoin:round;stroke-miterlimit:10;stroke-dasharray:none;stroke-opacity:1"
           d="m 343.586,-283.715 v 2.742" /></g><g
         transform="scale(1,-1)"
         id="g8660"><path
           id="path8662"
           style="fill:none;stroke:#333333;stroke-width:1.07000005;stroke-linecap:butt;stroke-linejoin:round;stroke-miterlimit:10;stroke-dasharray:none;stroke-opacity:1"
           d="m 387.535,-283.715 v 2.742" /></g><path
         id="path8664"
         style="fill:#4d4d4d;fill-opacity:1;fill-rule:nonzero;stroke:none"
         d="m 74.617,287.848 c 0,-1.078 -0.828,-1.86 -2.031,-1.86 -1.313,0 -2.063,0.657 -2.109,2.203 h 0.781 c 0.078,-1.062 0.515,-1.515 1.297,-1.515 0.718,0 1.25,0.515 1.25,1.203 0,0.5 -0.297,0.922 -0.86,1.25 l -0.828,0.469 c -1.328,0.765 -1.719,1.359 -1.781,2.765 h 4.234 v -0.781 h -3.343 c 0.078,-0.531 0.359,-0.859 1.14,-1.312 l 0.906,-0.485 c 0.891,-0.484 1.344,-1.14 1.344,-1.937 z" /><path
         id="path8666"
         style="fill:#4d4d4d;fill-opacity:1;fill-rule:nonzero;stroke:none"
         d="m 79.59,289.301 c 0,-2.219 -0.703,-3.313 -2.094,-3.313 -1.375,0 -2.078,1.11 -2.078,3.25 0,2.157 0.719,3.266 2.078,3.266 1.359,0 2.094,-1.109 2.094,-3.203 z m -0.813,-0.078 c 0,1.812 -0.406,2.625 -1.297,2.625 -0.828,0 -1.25,-0.86 -1.25,-2.594 0,-1.75 0.422,-2.563 1.266,-2.563 0.859,0 1.281,0.829 1.281,2.532 z" /><path
         id="path8668"
         style="fill:#4d4d4d;fill-opacity:1;fill-rule:nonzero;stroke:none"
         d="m 84.594,289.301 c 0,-2.219 -0.703,-3.313 -2.094,-3.313 -1.375,0 -2.078,1.11 -2.078,3.25 0,2.157 0.719,3.266 2.078,3.266 1.359,0 2.094,-1.109 2.094,-3.203 z m -0.813,-0.078 c 0,1.812 -0.406,2.625 -1.297,2.625 -0.828,0 -1.25,-0.86 -1.25,-2.594 0,-1.75 0.422,-2.563 1.266,-2.563 0.859,0 1.281,0.829 1.281,2.532 z" /><path
         id="path8670"
         style="fill:#4d4d4d;fill-opacity:1;fill-rule:nonzero;stroke:none"
         d="m 89.582,290.504 c 0,-0.766 -0.312,-1.219 -1.078,-1.484 0.594,-0.235 0.891,-0.641 0.891,-1.282 0,-1.093 -0.719,-1.75 -1.938,-1.75 -1.281,0 -1.969,0.703 -2,2.063 h 0.797 c 0.016,-0.953 0.406,-1.375 1.219,-1.375 0.687,0 1.125,0.406 1.125,1.094 0,0.671 -0.297,0.953 -1.578,0.953 v 0.672 h 0.437 c 0.875,0 1.328,0.406 1.328,1.125 0,0.796 -0.5,1.281 -1.328,1.281 -0.859,0 -1.281,-0.438 -1.344,-1.36 h -0.797 c 0.11,1.422 0.813,2.063 2.11,2.063 1.312,0 2.156,-0.781 2.156,-2 z" /><path
         id="path8672"
         style="fill:#4d4d4d;fill-opacity:1;fill-rule:nonzero;stroke:none"
         d="m 118.57,287.848 c 0,-1.078 -0.828,-1.86 -2.031,-1.86 -1.312,0 -2.062,0.657 -2.109,2.203 h 0.781 c 0.078,-1.062 0.516,-1.515 1.297,-1.515 0.719,0 1.25,0.515 1.25,1.203 0,0.5 -0.297,0.922 -0.86,1.25 l -0.828,0.469 c -1.328,0.765 -1.718,1.359 -1.781,2.765 h 4.234 v -0.781 h -3.343 c 0.078,-0.531 0.359,-0.859 1.14,-1.312 l 0.907,-0.485 c 0.89,-0.484 1.343,-1.14 1.343,-1.937 z" /><path
         id="path8674"
         style="fill:#4d4d4d;fill-opacity:1;fill-rule:nonzero;stroke:none"
         d="m 123.543,289.301 c 0,-2.219 -0.703,-3.313 -2.094,-3.313 -1.375,0 -2.078,1.11 -2.078,3.25 0,2.157 0.719,3.266 2.078,3.266 1.36,0 2.094,-1.109 2.094,-3.203 z m -0.813,-0.078 c 0,1.812 -0.406,2.625 -1.296,2.625 -0.829,0 -1.25,-0.86 -1.25,-2.594 0,-1.75 0.421,-2.563 1.265,-2.563 0.86,0 1.281,0.829 1.281,2.532 z" /><path
         id="path8676"
         style="fill:#4d4d4d;fill-opacity:1;fill-rule:nonzero;stroke:none"
         d="m 128.547,289.301 c 0,-2.219 -0.703,-3.313 -2.094,-3.313 -1.375,0 -2.078,1.11 -2.078,3.25 0,2.157 0.719,3.266 2.078,3.266 1.359,0 2.094,-1.109 2.094,-3.203 z m -0.813,-0.078 c 0,1.812 -0.406,2.625 -1.296,2.625 -0.829,0 -1.25,-0.86 -1.25,-2.594 0,-1.75 0.421,-2.563 1.265,-2.563 0.859,0 1.281,0.829 1.281,2.532 z" /><path
         id="path8678"
         style="fill:#4d4d4d;fill-opacity:1;fill-rule:nonzero;stroke:none"
         d="m 133.598,290.254 c 0,-1.266 -0.828,-2.094 -2.047,-2.094 -0.453,0 -0.813,0.11 -1.188,0.391 l 0.25,-1.656 h 2.657 v -0.782 h -3.297 l -0.469,3.344 h 0.719 c 0.375,-0.437 0.687,-0.594 1.172,-0.594 0.859,0 1.406,0.547 1.406,1.5 0,0.907 -0.531,1.438 -1.406,1.438 -0.688,0 -1.11,-0.36 -1.297,-1.078 h -0.797 c 0.265,1.265 0.984,1.781 2.125,1.781 1.281,0 2.172,-0.906 2.172,-2.25 z" /><path
         id="path8680"
         style="fill:#4d4d4d;fill-opacity:1;fill-rule:nonzero;stroke:none"
         d="m 162.469,287.848 c 0,-1.078 -0.828,-1.86 -2.031,-1.86 -1.313,0 -2.063,0.657 -2.11,2.203 h 0.781 c 0.079,-1.062 0.516,-1.515 1.297,-1.515 0.719,0 1.25,0.515 1.25,1.203 0,0.5 -0.297,0.922 -0.859,1.25 l -0.828,0.469 c -1.328,0.765 -1.719,1.359 -1.781,2.765 h 4.234 v -0.781 h -3.344 c 0.078,-0.531 0.36,-0.859 1.141,-1.312 l 0.906,-0.485 c 0.891,-0.484 1.344,-1.14 1.344,-1.937 z" /><path
         id="path8682"
         style="fill:#4d4d4d;fill-opacity:1;fill-rule:nonzero;stroke:none"
         d="m 167.441,289.301 c 0,-2.219 -0.703,-3.313 -2.093,-3.313 -1.375,0 -2.078,1.11 -2.078,3.25 0,2.157 0.718,3.266 2.078,3.266 1.359,0 2.093,-1.109 2.093,-3.203 z m -0.812,-0.078 c 0,1.812 -0.406,2.625 -1.297,2.625 -0.828,0 -1.25,-0.86 -1.25,-2.594 0,-1.75 0.422,-2.563 1.266,-2.563 0.859,0 1.281,0.829 1.281,2.532 z" /><path
         id="path8684"
         style="fill:#4d4d4d;fill-opacity:1;fill-rule:nonzero;stroke:none"
         d="m 172.445,289.301 c 0,-2.219 -0.703,-3.313 -2.093,-3.313 -1.375,0 -2.079,1.11 -2.079,3.25 0,2.157 0.719,3.266 2.079,3.266 1.359,0 2.093,-1.109 2.093,-3.203 z m -0.812,-0.078 c 0,1.812 -0.406,2.625 -1.297,2.625 -0.828,0 -1.25,-0.86 -1.25,-2.594 0,-1.75 0.422,-2.563 1.266,-2.563 0.859,0 1.281,0.829 1.281,2.532 z" /><path
         id="path8686"
         style="fill:#4d4d4d;fill-opacity:1;fill-rule:nonzero;stroke:none"
         d="m 177.574,286.785 v -0.672 h -4.281 v 0.782 h 3.453 c -1.266,1.609 -2.172,3.468 -2.625,5.468 h 0.859 c 0.344,-2.062 1.25,-3.984 2.594,-5.578 z" /><path
         id="path8688"
         style="fill:#4d4d4d;fill-opacity:1;fill-rule:nonzero;stroke:none"
         d="m 206.418,287.848 c 0,-1.078 -0.828,-1.86 -2.031,-1.86 -1.313,0 -2.063,0.657 -2.11,2.203 h 0.782 c 0.078,-1.062 0.515,-1.515 1.296,-1.515 0.719,0 1.25,0.515 1.25,1.203 0,0.5 -0.296,0.922 -0.859,1.25 l -0.828,0.469 c -1.328,0.765 -1.719,1.359 -1.781,2.765 h 4.234 v -0.781 h -3.344 c 0.078,-0.531 0.36,-0.859 1.141,-1.312 l 0.906,-0.485 c 0.891,-0.484 1.344,-1.14 1.344,-1.937 z" /><path
         id="path8690"
         style="fill:#4d4d4d;fill-opacity:1;fill-rule:nonzero;stroke:none"
         d="m 211.391,289.301 c 0,-2.219 -0.703,-3.313 -2.094,-3.313 -1.375,0 -2.078,1.11 -2.078,3.25 0,2.157 0.719,3.266 2.078,3.266 1.359,0 2.094,-1.109 2.094,-3.203 z m -0.813,-0.078 c 0,1.812 -0.406,2.625 -1.297,2.625 -0.828,0 -1.25,-0.86 -1.25,-2.594 0,-1.75 0.422,-2.563 1.266,-2.563 0.859,0 1.281,0.829 1.281,2.532 z" /><path
         id="path8692"
         style="fill:#4d4d4d;fill-opacity:1;fill-rule:nonzero;stroke:none"
         d="m 216.395,289.301 c 0,-2.219 -0.704,-3.313 -2.094,-3.313 -1.375,0 -2.078,1.11 -2.078,3.25 0,2.157 0.718,3.266 2.078,3.266 1.359,0 2.094,-1.109 2.094,-3.203 z m -0.813,-0.078 c 0,1.812 -0.406,2.625 -1.297,2.625 -0.828,0 -1.25,-0.86 -1.25,-2.594 0,-1.75 0.422,-2.563 1.266,-2.563 0.859,0 1.281,0.829 1.281,2.532 z" /><path
         id="path8694"
         style="fill:#4d4d4d;fill-opacity:1;fill-rule:nonzero;stroke:none"
         d="m 221.414,289.02 c 0,-2 -0.687,-3.032 -2.141,-3.032 -1.218,0 -2.093,0.86 -2.093,2.11 0,1.187 0.812,1.984 1.953,1.984 0.609,0 1.047,-0.219 1.469,-0.703 -0.016,1.547 -0.516,2.422 -1.422,2.422 -0.563,0 -0.953,-0.36 -1.078,-0.969 h -0.782 c 0.141,1.047 0.828,1.672 1.797,1.672 1.5,0 2.297,-1.281 2.297,-3.484 z m -0.859,-0.938 c 0,0.781 -0.547,1.297 -1.328,1.297 -0.766,0 -1.235,-0.484 -1.235,-1.344 0,-0.812 0.531,-1.359 1.266,-1.359 0.734,0 1.297,0.578 1.297,1.406 z" /><path
         id="path8696"
         style="fill:#4d4d4d;fill-opacity:1;fill-rule:nonzero;stroke:none"
         d="m 250.32,287.848 c 0,-1.078 -0.828,-1.86 -2.031,-1.86 -1.312,0 -2.062,0.657 -2.109,2.203 h 0.781 c 0.078,-1.062 0.516,-1.515 1.297,-1.515 0.719,0 1.25,0.515 1.25,1.203 0,0.5 -0.297,0.922 -0.86,1.25 l -0.828,0.469 c -1.328,0.765 -1.718,1.359 -1.781,2.765 h 4.234 v -0.781 h -3.343 c 0.078,-0.531 0.359,-0.859 1.14,-1.312 l 0.907,-0.485 c 0.89,-0.484 1.343,-1.14 1.343,-1.937 z" /><path
         id="path8698"
         style="fill:#4d4d4d;fill-opacity:1;fill-rule:nonzero;stroke:none"
         d="m 255.293,289.301 c 0,-2.219 -0.703,-3.313 -2.094,-3.313 -1.375,0 -2.078,1.11 -2.078,3.25 0,2.157 0.719,3.266 2.078,3.266 1.36,0 2.094,-1.109 2.094,-3.203 z m -0.813,-0.078 c 0,1.812 -0.406,2.625 -1.296,2.625 -0.829,0 -1.25,-0.86 -1.25,-2.594 0,-1.75 0.421,-2.563 1.265,-2.563 0.86,0 1.281,0.829 1.281,2.532 z" /><path
         id="path8700"
         style="fill:#4d4d4d;fill-opacity:1;fill-rule:nonzero;stroke:none"
         d="m 258.859,292.363 v -6.375 h -0.531 c -0.266,0.969 -0.453,1.11 -1.672,1.266 v 0.562 h 1.406 v 4.547 z" /><path
         id="path8702"
         style="fill:#4d4d4d;fill-opacity:1;fill-rule:nonzero;stroke:none"
         d="m 263.863,292.363 v -6.375 h -0.531 c -0.266,0.969 -0.453,1.11 -1.672,1.266 v 0.562 h 1.406 v 4.547 z" /><path
         id="path8704"
         style="fill:#4d4d4d;fill-opacity:1;fill-rule:nonzero;stroke:none"
         d="m 294.27,287.848 c 0,-1.078 -0.829,-1.86 -2.032,-1.86 -1.312,0 -2.062,0.657 -2.109,2.203 h 0.781 c 0.078,-1.062 0.516,-1.515 1.297,-1.515 0.719,0 1.25,0.515 1.25,1.203 0,0.5 -0.297,0.922 -0.859,1.25 l -0.828,0.469 c -1.329,0.765 -1.719,1.359 -1.782,2.765 h 4.235 v -0.781 h -3.344 c 0.078,-0.531 0.359,-0.859 1.141,-1.312 l 0.906,-0.485 c 0.89,-0.484 1.344,-1.14 1.344,-1.937 z" /><path
         id="path8706"
         style="fill:#4d4d4d;fill-opacity:1;fill-rule:nonzero;stroke:none"
         d="m 299.242,289.301 c 0,-2.219 -0.703,-3.313 -2.094,-3.313 -1.375,0 -2.078,1.11 -2.078,3.25 0,2.157 0.719,3.266 2.078,3.266 1.36,0 2.094,-1.109 2.094,-3.203 z m -0.812,-0.078 c 0,1.812 -0.407,2.625 -1.297,2.625 -0.828,0 -1.25,-0.86 -1.25,-2.594 0,-1.75 0.422,-2.563 1.265,-2.563 0.86,0 1.282,0.829 1.282,2.532 z" /><path
         id="path8708"
         style="fill:#4d4d4d;fill-opacity:1;fill-rule:nonzero;stroke:none"
         d="m 302.809,292.363 v -6.375 h -0.532 c -0.265,0.969 -0.453,1.11 -1.672,1.266 v 0.562 h 1.407 v 4.547 z" /><path
         id="path8710"
         style="fill:#4d4d4d;fill-opacity:1;fill-rule:nonzero;stroke:none"
         d="m 309.234,290.504 c 0,-0.766 -0.312,-1.219 -1.078,-1.484 0.594,-0.235 0.891,-0.641 0.891,-1.282 0,-1.093 -0.719,-1.75 -1.938,-1.75 -1.281,0 -1.968,0.703 -2,2.063 h 0.797 c 0.016,-0.953 0.406,-1.375 1.219,-1.375 0.687,0 1.125,0.406 1.125,1.094 0,0.671 -0.297,0.953 -1.578,0.953 v 0.672 h 0.437 c 0.875,0 1.329,0.406 1.329,1.125 0,0.796 -0.5,1.281 -1.329,1.281 -0.859,0 -1.281,-0.438 -1.343,-1.36 h -0.797 c 0.109,1.422 0.812,2.063 2.109,2.063 1.313,0 2.156,-0.781 2.156,-2 z" /><path
         id="path8712"
         style="fill:#4d4d4d;fill-opacity:1;fill-rule:nonzero;stroke:none"
         d="m 338.168,287.848 c 0,-1.078 -0.828,-1.86 -2.031,-1.86 -1.313,0 -2.063,0.657 -2.11,2.203 h 0.782 c 0.078,-1.062 0.515,-1.515 1.296,-1.515 0.719,0 1.25,0.515 1.25,1.203 0,0.5 -0.296,0.922 -0.859,1.25 l -0.828,0.469 c -1.328,0.765 -1.719,1.359 -1.781,2.765 h 4.234 v -0.781 h -3.344 c 0.078,-0.531 0.36,-0.859 1.141,-1.312 l 0.906,-0.485 c 0.891,-0.484 1.344,-1.14 1.344,-1.937 z" /><path
         id="path8714"
         style="fill:#4d4d4d;fill-opacity:1;fill-rule:nonzero;stroke:none"
         d="m 343.141,289.301 c 0,-2.219 -0.703,-3.313 -2.094,-3.313 -1.375,0 -2.078,1.11 -2.078,3.25 0,2.157 0.719,3.266 2.078,3.266 1.359,0 2.094,-1.109 2.094,-3.203 z m -0.813,-0.078 c 0,1.812 -0.406,2.625 -1.297,2.625 -0.828,0 -1.25,-0.86 -1.25,-2.594 0,-1.75 0.422,-2.563 1.266,-2.563 0.859,0 1.281,0.829 1.281,2.532 z" /><path
         id="path8716"
         style="fill:#4d4d4d;fill-opacity:1;fill-rule:nonzero;stroke:none"
         d="m 346.707,292.363 v -6.375 h -0.531 c -0.266,0.969 -0.453,1.11 -1.672,1.266 v 0.562 h 1.406 v 4.547 z" /><path
         id="path8718"
         style="fill:#4d4d4d;fill-opacity:1;fill-rule:nonzero;stroke:none"
         d="m 353.195,290.254 c 0,-1.266 -0.828,-2.094 -2.047,-2.094 -0.453,0 -0.812,0.11 -1.187,0.391 l 0.25,-1.656 h 2.656 v -0.782 h -3.297 l -0.468,3.344 h 0.718 c 0.375,-0.437 0.688,-0.594 1.172,-0.594 0.86,0 1.406,0.547 1.406,1.5 0,0.907 -0.531,1.438 -1.406,1.438 -0.687,0 -1.109,-0.36 -1.297,-1.078 h -0.797 c 0.266,1.265 0.985,1.781 2.125,1.781 1.282,0 2.172,-0.906 2.172,-2.25 z" /><path
         id="path8720"
         style="fill:#4d4d4d;fill-opacity:1;fill-rule:nonzero;stroke:none"
         d="m 382.117,287.848 c 0,-1.078 -0.828,-1.86 -2.031,-1.86 -1.313,0 -2.063,0.657 -2.109,2.203 h 0.781 c 0.078,-1.062 0.515,-1.515 1.297,-1.515 0.718,0 1.25,0.515 1.25,1.203 0,0.5 -0.297,0.922 -0.86,1.25 l -0.828,0.469 c -1.328,0.765 -1.719,1.359 -1.781,2.765 h 4.234 v -0.781 h -3.343 c 0.078,-0.531 0.359,-0.859 1.14,-1.312 l 0.906,-0.485 c 0.891,-0.484 1.344,-1.14 1.344,-1.937 z" /><path
         id="path8722"
         style="fill:#4d4d4d;fill-opacity:1;fill-rule:nonzero;stroke:none"
         d="m 387.09,289.301 c 0,-2.219 -0.703,-3.313 -2.094,-3.313 -1.375,0 -2.078,1.11 -2.078,3.25 0,2.157 0.719,3.266 2.078,3.266 1.359,0 2.094,-1.109 2.094,-3.203 z m -0.813,-0.078 c 0,1.812 -0.406,2.625 -1.297,2.625 -0.828,0 -1.25,-0.86 -1.25,-2.594 0,-1.75 0.422,-2.563 1.266,-2.563 0.859,0 1.281,0.829 1.281,2.532 z" /><path
         id="path8724"
         style="fill:#4d4d4d;fill-opacity:1;fill-rule:nonzero;stroke:none"
         d="m 390.656,292.363 v -6.375 h -0.531 c -0.266,0.969 -0.453,1.11 -1.672,1.266 v 0.562 h 1.406 v 4.547 z" /><path
         id="path8726"
         style="fill:#4d4d4d;fill-opacity:1;fill-rule:nonzero;stroke:none"
         d="m 397.223,286.785 v -0.672 h -4.282 v 0.782 h 3.454 c -1.266,1.609 -2.172,3.468 -2.625,5.468 h 0.859 c 0.344,-2.062 1.25,-3.984 2.594,-5.578 z" /><path
         id="path8728"
         style="fill:#000000;fill-opacity:1;fill-rule:nonzero;stroke:none"
         d="M 14.074,222.656 H 9.715 c -0.953,0 -1.563,0.719 -1.563,1.828 0,0.86 0.328,1.407 1.125,1.922 H 8.309 v 0.844 h 5.765 v -0.922 h -3.172 c -1.187,0 -1.953,-0.64 -1.953,-1.562 0,-0.735 0.438,-1.188 1.125,-1.188 h 4 z" /><path
         id="path8730"
         style="fill:#000000;fill-opacity:1;fill-rule:nonzero;stroke:none"
         d="M 14.074,216.711 H 8.309 v 0.906 h 3.187 c 1.172,0 1.938,0.625 1.938,1.578 0,0.719 -0.438,1.188 -1.125,1.188 h -4 v 0.906 h 4.359 c 0.953,0 1.578,-0.719 1.578,-1.828 0,-0.859 -0.297,-1.391 -1.062,-1.938 h 0.89 z" /><path
         id="path8732"
         style="fill:#000000;fill-opacity:1;fill-rule:nonzero;stroke:none"
         d="M 14.074,207.531 H 9.746 c -1.031,0 -1.594,0.578 -1.594,1.657 0,0.765 0.219,1.218 0.875,1.765 -0.625,0.344 -0.875,0.797 -0.875,1.547 0,0.766 0.282,1.281 0.969,1.781 H 8.309 v 0.828 h 5.765 v -0.906 h -3.625 c -0.828,0 -1.5,-0.609 -1.5,-1.359 0,-0.688 0.422,-1.063 1.156,-1.063 h 3.969 v -0.922 h -3.625 c -0.828,0 -1.5,-0.609 -1.5,-1.359 0,-0.672 0.422,-1.062 1.156,-1.062 h 3.969 z" /><path
         id="path8734"
         style="fill:#000000;fill-opacity:1;fill-rule:nonzero;stroke:none"
         d="m 11.121,200.98 c -1.859,0 -2.969,0.938 -2.969,2.469 0,0.781 0.297,1.344 0.938,1.781 H 6.059 v 0.907 h 8.015 v -0.828 h -0.828 c 0.672,-0.438 1,-1.016 1,-1.829 0,-1.515 -1.25,-2.5 -3.125,-2.5 z m 0.063,0.954 c 1.312,0 2.203,0.687 2.203,1.687 0,0.969 -0.891,1.609 -2.188,1.609 -1.359,0 -2.234,-0.64 -2.203,-1.609 0,-1.031 0.891,-1.687 2.188,-1.687 z" /><path
         id="path8736"
         style="fill:#000000;fill-opacity:1;fill-rule:nonzero;stroke:none"
         d="m 11.449,194.973 c -0.828,0 -1.359,0.062 -1.781,0.234 -0.953,0.375 -1.516,1.25 -1.516,2.328 0,1.61 1.188,2.641 3.078,2.641 1.891,0 3.016,-1 3.016,-2.625 0,-1.313 -0.75,-2.235 -1.922,-2.453 v 0.922 c 0.766,0.25 1.063,0.765 1.063,1.5 0,0.953 -0.61,1.671 -1.938,1.703 z m -0.812,0.984 c 0,0 0.047,0 0.078,0 v 3.234 c -1.031,-0.078 -1.719,-0.718 -1.719,-1.64 0,-0.906 0.75,-1.594 1.641,-1.594 z" /><path
         id="path8738"
         style="fill:#000000;fill-opacity:1;fill-rule:nonzero;stroke:none"
         d="M 9.105,190.965 H 8.184 c -0.032,0.156 -0.032,0.234 -0.032,0.359 0,0.594 0.344,1.031 1.203,1.563 H 8.309 v 0.843 h 5.765 v -0.921 H 11.09 c -1.313,0 -1.953,-0.422 -1.985,-1.844 z" /><path
         id="path8740"
         style="fill:#000000;fill-opacity:1;fill-rule:nonzero;stroke:none"
         d="m 11.23,182.168 c -1.984,0 -3.078,0.953 -3.078,2.625 0,1.609 1.11,2.594 3.047,2.594 1.922,0 3.047,-0.969 3.047,-2.61 0,-1.625 -1.125,-2.609 -3.016,-2.609 z m 0,0.953 c 1.344,0 2.157,0.641 2.157,1.656 0,1.016 -0.797,1.641 -2.188,1.641 -1.39,0 -2.203,-0.625 -2.203,-1.641 0,-1.031 0.797,-1.656 2.234,-1.656 z" /><path
         id="path8742"
         style="fill:#000000;fill-opacity:1;fill-rule:nonzero;stroke:none"
         d="m 9.059,178.816 h -0.75 v 0.969 H 7.402 c -0.375,0 -0.578,-0.219 -0.578,-0.64 0,-0.079 0,-0.11 0.016,-0.329 H 6.074 c -0.047,0.219 -0.047,0.329 -0.047,0.516 0,0.859 0.485,1.359 1.297,1.359 h 0.985 v 0.766 h 0.75 v -0.766 h 5.015 v -0.906 H 9.059 Z" /><path
         id="path8744"
         style="fill:#000000;fill-opacity:1;fill-rule:nonzero;stroke:none"
         d="M 9.105,172.012 H 8.184 c -0.032,0.156 -0.032,0.234 -0.032,0.359 0,0.594 0.344,1.031 1.203,1.563 H 8.309 v 0.843 h 5.765 v -0.922 H 11.09 c -1.313,0 -1.953,-0.421 -1.985,-1.843 z" /><path
         id="path8746"
         style="fill:#000000;fill-opacity:1;fill-rule:nonzero;stroke:none"
         d="m 11.449,166.242 c -0.828,0 -1.359,0.063 -1.781,0.235 -0.953,0.375 -1.516,1.25 -1.516,2.328 0,1.609 1.188,2.64 3.078,2.64 1.891,0 3.016,-1 3.016,-2.625 0,-1.312 -0.75,-2.234 -1.922,-2.453 v 0.922 c 0.766,0.25 1.063,0.766 1.063,1.5 0,0.953 -0.61,1.672 -1.938,1.703 z m -0.812,0.985 c 0,0 0.047,0 0.078,0 v 3.234 c -1.031,-0.078 -1.719,-0.719 -1.719,-1.641 0,-0.906 0.75,-1.593 1.641,-1.593 z" /><path
         id="path8748"
         style="fill:#000000;fill-opacity:1;fill-rule:nonzero;stroke:none"
         d="m 6.059,164.109 h 8.016 v 0.906 H 6.059 Z" /><path
         id="path8750"
         style="fill:#000000;fill-opacity:1;fill-rule:nonzero;stroke:none"
         d="m 11.449,157.684 c -0.828,0 -1.359,0.062 -1.781,0.234 -0.953,0.375 -1.516,1.25 -1.516,2.328 0,1.609 1.188,2.641 3.078,2.641 1.891,0 3.016,-1 3.016,-2.625 0,-1.313 -0.75,-2.235 -1.922,-2.453 v 0.921 c 0.766,0.25 1.063,0.766 1.063,1.5 0,0.954 -0.61,1.672 -1.938,1.704 z m -0.812,0.984 c 0,0 0.047,0 0.078,0 v 3.234 c -1.031,-0.078 -1.719,-0.718 -1.719,-1.64 0,-0.907 0.75,-1.594 1.641,-1.594 z" /><path
         id="path8752"
         style="fill:#000000;fill-opacity:1;fill-rule:nonzero;stroke:none"
         d="m 14.059,151.316 h -0.704 c 0.032,0.11 0.032,0.157 0.032,0.204 0,0.312 -0.172,0.5 -0.453,0.5 H 9.715 c -1.016,0 -1.563,0.75 -1.563,2.156 0,1.406 0.532,2.265 1.86,2.312 v -0.922 c -0.703,-0.078 -1.016,-0.5 -1.016,-1.343 0,-0.828 0.297,-1.297 0.859,-1.297 h 0.235 c 0.39,0 0.547,0.234 0.64,0.953 0.172,1.297 0.204,1.5 0.36,1.859 0.265,0.672 0.781,1 1.484,1 1.047,0 1.672,-0.718 1.672,-1.89 0,-0.735 -0.312,-1.453 -0.859,-1.953 0.453,-0.094 0.765,-0.5 0.765,-0.954 0,-0.171 -0.015,-0.328 -0.093,-0.625 z m -1.969,1.61 c 0.812,0 1.344,0.844 1.344,1.734 0,0.703 -0.25,1.125 -0.875,1.125 -0.61,0 -0.875,-0.406 -1.016,-1.39 -0.125,-0.954 -0.172,-1.157 -0.313,-1.469 z" /><path
         id="path8754"
         style="fill:#000000;fill-opacity:1;fill-rule:nonzero;stroke:none"
         d="m 12.465,146.043 c -0.86,0 -1.297,0.484 -1.563,1.625 l -0.218,0.875 c -0.172,0.75 -0.422,1.078 -0.829,1.078 -0.515,0 -0.859,-0.484 -0.859,-1.219 0,-0.75 0.313,-1.14 0.922,-1.156 v -0.969 c -1.141,0 -1.766,0.75 -1.766,2.078 0,1.344 0.688,2.219 1.75,2.219 0.907,0 1.328,-0.469 1.657,-1.828 l 0.218,-0.859 c 0.157,-0.641 0.344,-0.891 0.75,-0.891 0.547,0 0.86,0.547 0.86,1.344 0,0.828 -0.188,1.281 -1.078,1.406 v 0.969 c 1.343,-0.047 1.937,-0.797 1.937,-2.297 0,-1.453 -0.672,-2.375 -1.781,-2.375 z" /><path
         id="path8756"
         style="fill:#000000;fill-opacity:1;fill-rule:nonzero;stroke:none"
         d="m 11.449,139.949 c -0.828,0 -1.359,0.063 -1.781,0.235 -0.953,0.375 -1.516,1.25 -1.516,2.328 0,1.609 1.188,2.64 3.078,2.64 1.891,0 3.016,-1 3.016,-2.625 0,-1.312 -0.75,-2.234 -1.922,-2.453 v 0.922 c 0.766,0.25 1.063,0.766 1.063,1.5 0,0.953 -0.61,1.672 -1.938,1.703 z m -0.812,0.985 c 0,0 0.047,0 0.078,0 v 3.234 c -1.031,-0.078 -1.719,-0.719 -1.719,-1.641 0,-0.906 0.75,-1.593 1.641,-1.593 z" /><path
         id="path8758"
         style="fill:#000000;fill-opacity:1;fill-rule:nonzero;stroke:none"
         d="m 12.465,134.43 c -0.86,0 -1.297,0.484 -1.563,1.625 l -0.218,0.875 c -0.172,0.75 -0.422,1.078 -0.829,1.078 -0.515,0 -0.859,-0.485 -0.859,-1.219 0,-0.75 0.313,-1.141 0.922,-1.156 v -0.969 c -1.141,0 -1.766,0.75 -1.766,2.078 0,1.344 0.688,2.219 1.75,2.219 0.907,0 1.328,-0.469 1.657,-1.828 l 0.218,-0.86 c 0.157,-0.64 0.344,-0.89 0.75,-0.89 0.547,0 0.86,0.547 0.86,1.344 0,0.828 -0.188,1.281 -1.078,1.406 v 0.969 c 1.343,-0.047 1.937,-0.797 1.937,-2.297 0,-1.453 -0.672,-2.375 -1.781,-2.375 z" /><path
         id="path8760"
         style="fill:#000000;fill-opacity:1;fill-rule:nonzero;stroke:none"
         d="m 16.402,127.711 c -1.562,0.969 -3.422,1.516 -5.172,1.516 -1.75,0 -3.609,-0.547 -5.171,-1.516 v 0.609 c 1.437,1.094 3.437,1.797 5.171,1.797 1.735,0 3.735,-0.703 5.172,-1.797 z" /><path
         id="path8762"
         style="fill:#000000;fill-opacity:1;fill-rule:nonzero;stroke:none"
         d="m 6.059,125.598 h 8.016 v 0.906 H 6.059 Z" /><path
         id="path8764"
         style="fill:#000000;fill-opacity:1;fill-rule:nonzero;stroke:none"
         d="m 11.23,119.203 c -1.984,0 -3.078,0.953 -3.078,2.625 0,1.61 1.11,2.594 3.047,2.594 1.922,0 3.047,-0.969 3.047,-2.61 0,-1.624 -1.125,-2.609 -3.016,-2.609 z m 0,0.953 c 1.344,0 2.157,0.641 2.157,1.656 0,1.016 -0.797,1.641 -2.188,1.641 -1.39,0 -2.203,-0.625 -2.203,-1.641 0,-1.031 0.797,-1.656 2.234,-1.656 z" /><path
         id="path8766"
         style="fill:#000000;fill-opacity:1;fill-rule:nonzero;stroke:none"
         d="M 13.121,113.32 H 8.309 v 0.844 h 0.843 c -0.687,0.469 -1,1.016 -1,1.766 0,1.453 1.219,2.453 3.094,2.453 1.813,0 3,-1.031 3,-2.375 0,-0.735 -0.312,-1.235 -1.047,-1.844 h 0.391 c 1.531,0 2.109,0.625 2.109,1.688 0,0.734 -0.265,1.296 -0.969,1.406 v 0.937 c 1.094,-0.109 1.735,-0.953 1.735,-2.312 0,-1.797 -0.797,-2.563 -3.344,-2.563 z m -1.891,0.938 c 1.375,0 2.157,0.594 2.157,1.562 0,1 -0.797,1.594 -2.188,1.594 -1.39,0 -2.203,-0.609 -2.203,-1.594 0,-0.984 0.828,-1.562 2.234,-1.562 z" /><path
         id="path8768"
         style="fill:#000000;fill-opacity:1;fill-rule:nonzero;stroke:none"
         d="m 16.094,109.793 h -5.672 v 0.469 c 0.875,0.25 0.984,0.406 1.125,1.5 h 0.5 v -1.266 h 4.047 z" /><path
         id="path8770"
         style="fill:#000000;fill-opacity:1;fill-rule:nonzero;stroke:none"
         d="m 13.359,104.062 c -1.968,0 -2.937,0.626 -2.937,1.86 0,1.234 0.984,1.859 2.89,1.859 1.922,0 2.907,-0.64 2.907,-1.859 0,-1.203 -0.985,-1.86 -2.86,-1.86 z m -0.062,0.719 c 1.609,0 2.328,0.375 2.328,1.157 0,0.75 -0.75,1.124 -2.297,1.124 -1.547,0 -2.281,-0.374 -2.281,-1.14 0,-0.75 0.734,-1.141 2.25,-1.141 z" /><path
         id="path8772"
         style="fill:#000000;fill-opacity:1;fill-rule:nonzero;stroke:none"
         d="m 12.465,95.578 c -0.86,0 -1.297,0.484 -1.563,1.625 l -0.218,0.875 c -0.172,0.75 -0.422,1.078 -0.829,1.078 -0.515,0 -0.859,-0.484 -0.859,-1.218 0,-0.75 0.313,-1.141 0.922,-1.157 v -0.969 c -1.141,0 -1.766,0.75 -1.766,2.079 0,1.343 0.688,2.218 1.75,2.218 0.907,0 1.328,-0.468 1.657,-1.828 l 0.218,-0.859 c 0.157,-0.641 0.344,-0.891 0.75,-0.891 0.547,0 0.86,0.547 0.86,1.344 0,0.828 -0.188,1.281 -1.078,1.406 v 0.969 c 1.343,-0.047 1.937,-0.797 1.937,-2.297 0,-1.453 -0.672,-2.375 -1.781,-2.375 z" /><path
         id="path8774"
         style="fill:#000000;fill-opacity:1;fill-rule:nonzero;stroke:none"
         d="m 12.09,89.875 v 0.922 c 0.922,0.156 1.297,0.625 1.297,1.406 0,1.016 -0.782,1.625 -2.141,1.625 -1.437,0 -2.25,-0.594 -2.25,-1.594 0,-0.765 0.453,-1.25 1.25,-1.359 v -0.937 c -1.406,0.109 -2.094,1 -2.094,2.281 0,1.547 1.188,2.562 3.094,2.562 1.859,0 3,-0.984 3,-2.547 0,-1.375 -0.828,-2.25 -2.156,-2.359 z" /><path
         id="path8776"
         style="fill:#000000;fill-opacity:1;fill-rule:nonzero;stroke:none"
         d="m 14.059,83.734 h -0.704 c 0.032,0.11 0.032,0.157 0.032,0.204 0,0.312 -0.172,0.5 -0.453,0.5 H 9.715 c -1.016,0 -1.563,0.75 -1.563,2.156 0,1.406 0.532,2.265 1.86,2.312 v -0.922 c -0.703,-0.078 -1.016,-0.5 -1.016,-1.343 0,-0.829 0.297,-1.297 0.859,-1.297 h 0.235 c 0.39,0 0.547,0.234 0.64,0.953 0.172,1.297 0.204,1.5 0.36,1.859 0.265,0.672 0.781,1 1.484,1 1.047,0 1.672,-0.718 1.672,-1.89 0,-0.735 -0.312,-1.454 -0.859,-1.954 0.453,-0.093 0.765,-0.5 0.765,-0.953 0,-0.171 -0.015,-0.328 -0.093,-0.625 z m -1.969,1.61 c 0.812,0 1.344,0.844 1.344,1.734 0,0.703 -0.25,1.125 -0.875,1.125 -0.61,0 -0.875,-0.406 -1.016,-1.391 -0.125,-0.953 -0.172,-1.156 -0.313,-1.468 z" /><path
         id="path8778"
         style="fill:#000000;fill-opacity:1;fill-rule:nonzero;stroke:none"
         d="m 6.059,81.855 h 8.016 v 0.906 H 6.059 Z" /><path
         id="path8780"
         style="fill:#000000;fill-opacity:1;fill-rule:nonzero;stroke:none"
         d="m 11.449,75.426 c -0.828,0 -1.359,0.062 -1.781,0.234 -0.953,0.375 -1.516,1.25 -1.516,2.328 0,1.61 1.188,2.641 3.078,2.641 1.891,0 3.016,-1 3.016,-2.625 0,-1.313 -0.75,-2.234 -1.922,-2.453 v 0.922 c 0.766,0.25 1.063,0.765 1.063,1.5 0,0.953 -0.61,1.672 -1.938,1.703 z m -0.812,0.984 c 0,0 0.047,0 0.078,0 v 3.235 C 9.684,79.566 8.996,78.926 8.996,78.004 c 0,-0.906 0.75,-1.594 1.641,-1.594 z" /><path
         id="path8782"
         style="fill:#000000;fill-opacity:1;fill-rule:nonzero;stroke:none"
         d="m 11.23,72.133 c -1.734,0 -3.734,0.687 -5.171,1.797 v 0.593 c 1.562,-0.968 3.421,-1.5 5.171,-1.5 1.75,0 3.61,0.532 5.172,1.5 V 73.93 C 14.965,72.82 12.965,72.133 11.23,72.133 Z" /><g
         transform="scale(1,-1)"
         id="g8784"><path
           id="path8786"
           style="fill:none;stroke:#000000;stroke-width:0.75;stroke-linecap:round;stroke-linejoin:round;stroke-miterlimit:10;stroke-dasharray:none;stroke-opacity:1"
           d="m 326.234,-221.793 h 81.492 v -45.52 h -81.492 z" /></g><path
         id="path8788"
         style="fill:#ffffff;fill-opacity:1;fill-rule:nonzero;stroke:none"
         d="m 326.234,221.793 h 81.492 v 45.52 h -81.492 z" /><path
         id="path8790"
         style="fill:#ffffff;fill-opacity:1;fill-rule:nonzero;stroke:none"
         d="m 331.715,227.273 h 17.281 v 17.281 h -17.281 z" /><g
         transform="scale(1,-1)"
         id="g8792"><path
           id="path8794"
           style="fill:none;stroke:#000000;stroke-width:1.91999996;stroke-linecap:butt;stroke-linejoin:round;stroke-miterlimit:10;stroke-dasharray:none;stroke-opacity:1"
           d="m 333.445,-235.914 h 13.828" /></g><path
         id="path8796"
         style="fill:#ffffff;fill-opacity:1;fill-rule:nonzero;stroke:none"
         d="m 331.715,244.555 h 17.281 v 17.281 h -17.281 z" /><g
         transform="scale(1,-1)"
         id="g8798"><path
           id="path8800"
           style="fill:none;stroke:#000000;stroke-width:1.91999996;stroke-linecap:butt;stroke-linejoin:round;stroke-miterlimit:10;stroke-dasharray:3.84, 3.84;stroke-dashoffset:0;stroke-opacity:1"
           d="m 333.445,-253.195 h 13.828" /></g><path
         id="path8802"
         style="fill:#000000;fill-opacity:1;fill-rule:nonzero;stroke:none"
         d="m 353.387,239.145 v -3.563 c 0,-0.781 -0.594,-1.281 -1.5,-1.281 -0.703,0 -1.157,0.265 -1.563,0.922 v -0.797 h -0.703 v 4.719 h 0.75 v -2.594 c 0,-0.969 0.531,-1.594 1.281,-1.594 0.61,0 0.985,0.359 0.985,0.922 v 3.266 z" /><path
         id="path8804"
         style="fill:#000000;fill-opacity:1;fill-rule:nonzero;stroke:none"
         d="m 358.609,237.004 c 0,-0.688 -0.047,-1.125 -0.187,-1.469 -0.297,-0.781 -1.016,-1.234 -1.906,-1.234 -1.313,0 -2.157,0.969 -2.157,2.515 0,1.547 0.813,2.469 2.141,2.469 1.078,0 1.828,-0.625 2.016,-1.578 h -0.75 c -0.204,0.625 -0.641,0.875 -1.235,0.875 -0.781,0 -1.375,-0.5 -1.39,-1.578 z m -0.797,-0.672 c 0,0 0,0.047 0,0.063 h -2.656 c 0.063,-0.844 0.594,-1.407 1.36,-1.407 0.734,0 1.296,0.61 1.296,1.344 z" /><path
         id="path8806"
         style="fill:#000000;fill-opacity:1;fill-rule:nonzero;stroke:none"
         d="m 365.199,234.426 h -0.844 l -0.937,3.672 -0.938,-3.672 h -0.906 l -0.906,3.672 -0.969,-3.672 h -0.828 l 1.375,4.719 h 0.844 l 0.906,-3.704 0.953,3.704 h 0.86 z" /><path
         id="path8808"
         style="fill:#000000;fill-opacity:1;fill-rule:nonzero;stroke:none"
         d="m 368.434,232.582 h 0.75 v 6.562 h -0.75 z" /><path
         id="path8810"
         style="fill:#000000;fill-opacity:1;fill-rule:nonzero;stroke:none"
         d="m 371.195,239.145 v -4.719 h -0.75 v 4.719 z m 0.094,-5.422 v -0.938 h -0.922 v 0.938 z" /><path
         id="path8812"
         style="fill:#000000;fill-opacity:1;fill-rule:nonzero;stroke:none"
         d="m 376.523,236.738 c 0,-1.531 -0.765,-2.437 -2.015,-2.437 -0.641,0 -1.11,0.234 -1.453,0.765 v -2.484 h -0.75 v 6.563 h 0.672 v -0.672 c 0.359,0.547 0.843,0.812 1.5,0.812 1.234,0 2.046,-1.015 2.046,-2.547 z m -0.781,0.047 c 0,1.063 -0.562,1.797 -1.375,1.797 -0.797,0 -1.312,-0.719 -1.312,-1.797 0,-1.109 0.515,-1.828 1.312,-1.797 0.844,0 1.375,0.735 1.375,1.797 z" /><path
         id="path8814"
         style="fill:#000000;fill-opacity:1;fill-rule:nonzero;stroke:none"
         d="m 379.715,235.082 v -0.766 c -0.125,-0.015 -0.188,-0.015 -0.297,-0.015 -0.484,0 -0.844,0.281 -1.281,0.984 v -0.859 h -0.688 v 4.719 h 0.75 v -2.454 c 0,-1.062 0.36,-1.593 1.516,-1.609 z" /><path
         id="path8816"
         style="fill:#000000;fill-opacity:1;fill-rule:nonzero;stroke:none"
         d="m 384.543,239.129 v -0.563 c -0.078,0.016 -0.109,0.016 -0.156,0.016 -0.266,0 -0.407,-0.141 -0.407,-0.375 v -2.625 c 0,-0.844 -0.609,-1.281 -1.781,-1.281 -1.14,0 -1.844,0.437 -1.89,1.515 h 0.765 c 0.063,-0.562 0.406,-0.828 1.11,-0.828 0.671,0 1.046,0.25 1.046,0.703 v 0.188 c 0,0.328 -0.187,0.453 -0.781,0.531 -1.062,0.141 -1.219,0.172 -1.515,0.281 -0.547,0.235 -0.829,0.657 -0.829,1.235 0,0.844 0.594,1.359 1.547,1.359 0.61,0 1.188,-0.25 1.61,-0.703 0.078,0.359 0.406,0.625 0.765,0.625 0.157,0 0.282,-0.016 0.516,-0.078 z m -1.313,-1.609 c 0,0.671 -0.687,1.109 -1.406,1.109 -0.594,0 -0.937,-0.219 -0.937,-0.719 0,-0.5 0.343,-0.719 1.14,-0.828 0.797,-0.109 0.953,-0.156 1.203,-0.266 z" /><path
         id="path8818"
         style="fill:#000000;fill-opacity:1;fill-rule:nonzero;stroke:none"
         d="m 387.625,235.082 v -0.766 c -0.125,-0.015 -0.187,-0.015 -0.297,-0.015 -0.484,0 -0.844,0.281 -1.281,0.984 v -0.859 h -0.688 v 4.719 h 0.75 v -2.454 c 0,-1.062 0.36,-1.593 1.516,-1.609 z" /><path
         id="path8820"
         style="fill:#000000;fill-opacity:1;fill-rule:nonzero;stroke:none"
         d="m 389.242,239.145 v -4.719 h -0.75 v 4.719 z m 0.094,-5.422 v -0.938 h -0.922 v 0.938 z" /><path
         id="path8822"
         style="fill:#000000;fill-opacity:1;fill-rule:nonzero;stroke:none"
         d="m 394.473,237.004 c 0,-0.688 -0.047,-1.125 -0.188,-1.469 -0.297,-0.781 -1.015,-1.234 -1.906,-1.234 -1.313,0 -2.156,0.969 -2.156,2.515 0,1.547 0.812,2.469 2.14,2.469 1.078,0 1.828,-0.625 2.016,-1.578 h -0.75 c -0.203,0.625 -0.641,0.875 -1.234,0.875 -0.782,0 -1.375,-0.5 -1.391,-1.578 z m -0.797,-0.672 c 0,0 0,0.047 0,0.063 h -2.656 c 0.062,-0.844 0.593,-1.407 1.359,-1.407 0.734,0 1.297,0.61 1.297,1.344 z" /><path
         id="path8824"
         style="fill:#000000;fill-opacity:1;fill-rule:nonzero;stroke:none"
         d="m 398.992,237.816 c 0,-0.703 -0.39,-1.046 -1.328,-1.265 l -0.719,-0.172 c -0.609,-0.156 -0.875,-0.344 -0.875,-0.688 0,-0.421 0.391,-0.703 1,-0.703 0.61,0 0.922,0.266 0.953,0.75 h 0.782 c 0,-0.922 -0.61,-1.437 -1.703,-1.437 -1.094,0 -1.813,0.562 -1.813,1.437 0,0.735 0.375,1.078 1.5,1.36 l 0.703,0.172 c 0.516,0.125 0.719,0.265 0.719,0.609 0,0.453 -0.438,0.703 -1.094,0.703 -0.672,0 -1.047,-0.156 -1.156,-0.875 h -0.781 c 0.031,1.094 0.64,1.578 1.875,1.578 1.187,0 1.937,-0.547 1.937,-1.469 z" /><path
         id="path8826"
         style="fill:#000000;fill-opacity:1;fill-rule:nonzero;stroke:none"
         d="m 353.387,256.426 v -3.563 c 0,-0.781 -0.594,-1.281 -1.5,-1.281 -0.703,0 -1.157,0.266 -1.563,0.922 v -0.797 h -0.703 v 4.719 h 0.75 v -2.594 c 0,-0.969 0.531,-1.594 1.281,-1.594 0.61,0 0.985,0.36 0.985,0.922 v 3.266 z" /><path
         id="path8828"
         style="fill:#000000;fill-opacity:1;fill-rule:nonzero;stroke:none"
         d="m 358.609,254.285 c 0,-0.687 -0.047,-1.125 -0.187,-1.469 -0.297,-0.781 -1.016,-1.234 -1.906,-1.234 -1.313,0 -2.157,0.969 -2.157,2.516 0,1.547 0.813,2.468 2.141,2.468 1.078,0 1.828,-0.625 2.016,-1.578 h -0.75 c -0.204,0.625 -0.641,0.875 -1.235,0.875 -0.781,0 -1.375,-0.5 -1.39,-1.578 z m -0.797,-0.672 c 0,0 0,0.047 0,0.063 h -2.656 c 0.063,-0.844 0.594,-1.406 1.36,-1.406 0.734,0 1.296,0.609 1.296,1.343 z" /><path
         id="path8830"
         style="fill:#000000;fill-opacity:1;fill-rule:nonzero;stroke:none"
         d="m 365.199,251.707 h -0.844 l -0.937,3.672 -0.938,-3.672 h -0.906 l -0.906,3.672 -0.969,-3.672 h -0.828 l 1.375,4.719 h 0.844 l 0.906,-3.703 0.953,3.703 h 0.86 z" /><path
         id="path8832"
         style="fill:#000000;fill-opacity:1;fill-rule:nonzero;stroke:none"
         d="m 372.199,251.707 h -0.844 l -1.328,3.828 -1.265,-3.828 h -0.844 l 1.656,4.719 h 0.813 z" /><path
         id="path8834"
         style="fill:#000000;fill-opacity:1;fill-rule:nonzero;stroke:none"
         d="m 376.707,254.285 c 0,-0.687 -0.047,-1.125 -0.187,-1.469 -0.297,-0.781 -1.016,-1.234 -1.907,-1.234 -1.312,0 -2.156,0.969 -2.156,2.516 0,1.547 0.813,2.468 2.141,2.468 1.078,0 1.828,-0.625 2.015,-1.578 h -0.75 c -0.203,0.625 -0.64,0.875 -1.234,0.875 -0.781,0 -1.375,-0.5 -1.391,-1.578 z m -0.797,-0.672 c 0,0 0,0.047 0,0.063 h -2.656 c 0.062,-0.844 0.594,-1.406 1.359,-1.406 0.735,0 1.297,0.609 1.297,1.343 z" /><path
         id="path8836"
         style="fill:#000000;fill-opacity:1;fill-rule:nonzero;stroke:none"
         d="m 379.992,252.363 v -0.765 c -0.125,-0.016 -0.187,-0.016 -0.297,-0.016 -0.484,0 -0.843,0.281 -1.281,0.984 v -0.859 h -0.687 v 4.719 h 0.75 v -2.453 c 0,-1.063 0.359,-1.594 1.515,-1.61 z" /><path
         id="path8838"
         style="fill:#000000;fill-opacity:1;fill-rule:nonzero;stroke:none"
         d="m 384.223,255.098 c 0,-0.703 -0.391,-1.047 -1.328,-1.266 l -0.719,-0.172 c -0.61,-0.156 -0.875,-0.344 -0.875,-0.687 0,-0.422 0.39,-0.703 1,-0.703 0.609,0 0.922,0.265 0.953,0.75 h 0.781 c 0,-0.922 -0.609,-1.438 -1.703,-1.438 -1.094,0 -1.812,0.563 -1.812,1.438 0,0.734 0.375,1.078 1.5,1.359 l 0.703,0.172 c 0.515,0.125 0.718,0.265 0.718,0.609 0,0.453 -0.437,0.703 -1.093,0.703 -0.672,0 -1.047,-0.156 -1.157,-0.875 h -0.781 c 0.031,1.094 0.641,1.578 1.875,1.578 1.188,0 1.938,-0.546 1.938,-1.468 z" /><path
         id="path8840"
         style="fill:#000000;fill-opacity:1;fill-rule:nonzero;stroke:none"
         d="m 385.973,256.426 v -4.719 h -0.75 v 4.719 z m 0.093,-5.422 v -0.938 h -0.921 v 0.938 z" /><path
         id="path8842"
         style="fill:#000000;fill-opacity:1;fill-rule:nonzero;stroke:none"
         d="m 391.191,254.098 c 0,-1.625 -0.781,-2.516 -2.14,-2.516 -1.328,0 -2.125,0.906 -2.125,2.484 0,1.579 0.781,2.5 2.125,2.5 1.328,0 2.14,-0.921 2.14,-2.468 z m -0.781,0 c 0,1.109 -0.531,1.765 -1.359,1.765 -0.828,0 -1.344,-0.656 -1.344,-1.797 0,-1.125 0.516,-1.796 1.344,-1.796 0.844,0 1.359,0.656 1.359,1.828 z" /><path
         id="path8844"
         style="fill:#000000;fill-opacity:1;fill-rule:nonzero;stroke:none"
         d="m 395.992,256.426 v -3.563 c 0,-0.781 -0.594,-1.281 -1.5,-1.281 -0.703,0 -1.156,0.266 -1.562,0.922 v -0.797 h -0.703 v 4.719 h 0.75 v -2.594 c 0,-0.969 0.531,-1.594 1.281,-1.594 0.609,0 0.984,0.36 0.984,0.922 v 3.266 z" /><path
         id="path8846"
         style="fill:#000000;fill-opacity:1;fill-rule:nonzero;stroke:none"
         d="m 400.73,255.098 c 0,-0.703 -0.39,-1.047 -1.328,-1.266 l -0.718,-0.172 c -0.61,-0.156 -0.875,-0.344 -0.875,-0.687 0,-0.422 0.39,-0.703 1,-0.703 0.609,0 0.921,0.265 0.953,0.75 h 0.781 c 0,-0.922 -0.609,-1.438 -1.703,-1.438 -1.094,0 -1.813,0.563 -1.813,1.438 0,0.734 0.375,1.078 1.5,1.359 l 0.703,0.172 c 0.516,0.125 0.719,0.265 0.719,0.609 0,0.453 -0.437,0.703 -1.094,0.703 -0.671,0 -1.046,-0.156 -1.156,-0.875 h -0.781 c 0.031,1.094 0.641,1.578 1.875,1.578 1.187,0 1.937,-0.546 1.937,-1.468 z" /><g
         id="g8848"><path
           id="path8850"
           style="fill:#fb0000;fill-opacity:1;fill-rule:nonzero;stroke:#ff0000;stroke-width:3.23469996;stroke-linecap:butt;stroke-linejoin:miter;stroke-miterlimit:4;stroke-dasharray:none;stroke-opacity:1"
           d="m 502.934,3.254 -375.262,227.207 0.445,0.601 356.121,-218.558 z" /></g><g
         transform="matrix(-1,0.60546,-0.60546,-1,0,0)"
         id="g8852"><path
           id="path8854"
           style="fill:#fb0000;fill-opacity:1;fill-rule:evenodd;stroke:#ff0000;stroke-width:2.95151496;stroke-linecap:butt;stroke-linejoin:miter;stroke-miterlimit:4;stroke-dasharray:none;stroke-opacity:1"
           d="m -338.914,-225.203 11.068,-11.068 -38.735,11.067 38.736,11.067 z" /></g><path
         id="path8856"
         style="fill:#ff0000;fill-opacity:1;fill-rule:nonzero;stroke:none"
         d="M 510.535,73.52 V 63.207 h -8.484 v -4.266 h 13.64 v 16.485 c -2.011,1.429 -4.226,2.508 -6.64,3.234 -2.418,0.727 -4.996,1.094 -7.735,1.094 -6.011,0 -10.711,-1.75 -14.093,-5.25 -3.387,-3.508 -5.078,-8.395 -5.078,-14.656 0,-6.282 1.691,-11.172 5.078,-14.672 3.382,-3.508 8.082,-5.266 14.093,-5.266 2.5,0 4.875,0.313 7.125,0.938 2.258,0.617 4.336,1.523 6.235,2.718 v 5.532 c -1.918,-1.633 -3.961,-2.864 -6.125,-3.688 -2.156,-0.82 -4.422,-1.234 -6.797,-1.234 -4.699,0 -8.231,1.312 -10.594,3.937 -2.355,2.625 -3.531,6.539 -3.531,11.735 0,5.179 1.176,9.078 3.531,11.703 2.363,2.617 5.895,3.922 10.594,3.922 1.832,0 3.469,-0.157 4.906,-0.469 1.438,-0.313 2.727,-0.805 3.875,-1.484 z" /><path
         id="path8858"
         style="fill:#ff0000;fill-opacity:1;fill-rule:nonzero;stroke:none"
         d="m 541.695,54.629 c -0.531,-0.313 -1.109,-0.539 -1.734,-0.688 -0.625,-0.144 -1.32,-0.218 -2.078,-0.218 -2.668,0 -4.719,0.871 -6.156,2.609 -1.43,1.742 -2.141,4.242 -2.141,7.5 V 79.004 H 524.82 V 50.191 h 4.766 v 4.485 c 0.988,-1.75 2.281,-3.047 3.875,-3.891 1.594,-0.851 3.531,-1.281 5.812,-1.281 0.321,0 0.68,0.023 1.079,0.062 0.394,0.043 0.832,0.11 1.312,0.204 z" /><path
         id="path8860"
         style="fill:#ff0000;fill-opacity:1;fill-rule:nonzero;stroke:none"
         d="m 556.742,53.52 c -2.543,0 -4.554,0.992 -6.031,2.968 -1.469,1.981 -2.203,4.696 -2.203,8.141 0,3.449 0.734,6.164 2.203,8.141 1.469,1.98 3.477,2.968 6.031,2.968 2.52,0 4.516,-0.992 5.985,-2.984 1.476,-1.988 2.218,-4.695 2.218,-8.125 0,-3.414 -0.742,-6.117 -2.218,-8.109 -1.469,-2 -3.465,-3 -5.985,-3 z m 0,-4.016 c 4.113,0 7.344,1.34 9.688,4.016 2.351,2.679 3.531,6.382 3.531,11.109 0,4.719 -1.18,8.422 -3.531,11.109 -2.344,2.68 -5.575,4.016 -9.688,4.016 -4.137,0 -7.375,-1.336 -9.719,-4.016 -2.335,-2.687 -3.5,-6.39 -3.5,-11.109 0,-4.727 1.165,-8.43 3.5,-11.109 2.344,-2.676 5.582,-4.016 9.719,-4.016 z" /><path
         id="path8862"
         style="fill:#ff0000;fill-opacity:1;fill-rule:nonzero;stroke:none"
         d="m 575.039,50.191 h 4.719 l 5.922,22.485 5.89,-22.485 h 5.578 l 5.922,22.485 5.891,-22.485 h 4.719 l -7.532,28.813 h -5.578 l -6.203,-23.609 -6.219,23.609 h -5.578 z" /><path
         id="path8864"
         style="fill:#ff0000;fill-opacity:1;fill-rule:nonzero;stroke:none"
         d="m 639.258,51.051 v 4.469 c -1.336,-0.688 -2.727,-1.196 -4.172,-1.532 -1.438,-0.343 -2.93,-0.515 -4.469,-0.515 -2.355,0 -4.121,0.359 -5.297,1.078 -1.168,0.719 -1.75,1.797 -1.75,3.234 0,1.094 0.414,1.961 1.25,2.594 0.844,0.625 2.535,1.219 5.078,1.781 l 1.61,0.36 c 3.363,0.718 5.754,1.734 7.172,3.046 1.414,1.313 2.125,3.141 2.125,5.485 0,2.679 -1.063,4.797 -3.188,6.359 -2.117,1.563 -5.023,2.344 -8.719,2.344 -1.554,0 -3.168,-0.152 -4.843,-0.453 -1.668,-0.301 -3.422,-0.75 -5.266,-1.344 v -4.891 c 1.75,0.907 3.473,1.59 5.172,2.047 1.695,0.449 3.375,0.672 5.031,0.672 2.227,0 3.942,-0.379 5.141,-1.14 1.207,-0.758 1.812,-1.836 1.812,-3.235 0,-1.281 -0.437,-2.265 -1.312,-2.953 -0.867,-0.687 -2.762,-1.348 -5.688,-1.984 l -1.64,-0.375 c -2.938,-0.625 -5.059,-1.571 -6.36,-2.844 -1.304,-1.281 -1.953,-3.035 -1.953,-5.266 0,-2.707 0.957,-4.797 2.875,-6.265 1.926,-1.477 4.656,-2.219 8.188,-2.219 1.75,0 3.394,0.133 4.937,0.391 1.539,0.25 2.961,0.636 4.266,1.156 z" /><path
         id="path8866"
         style="fill:#ff0000;fill-opacity:1;fill-rule:nonzero;stroke:none"
         d="m 651.355,72.473 h 5.219 v 6.531 h -5.219 z m 0,-31.86 h 5.219 v 16.844 l -0.515,9.172 h -4.172 l -0.532,-9.172 z" /></g></g></svg>