<?xml version="1.0" encoding="UTF-8" standalone="no"?>
<svg
   xmlns:dc="http://purl.org/dc/elements/1.1/"
   xmlns:cc="http://creativecommons.org/ns#"
   xmlns:rdf="http://www.w3.org/1999/02/22-rdf-syntax-ns#"
   xmlns:svg="http://www.w3.org/2000/svg"
   xmlns="http://www.w3.org/2000/svg"
   viewBox="0 0 369.58932 225.064"
   height="225.064"
   width="369.58932"
   xml:space="preserve"
   id="svg2"
   version="1.1"><metadata
     id="metadata8"><rdf:RDF><cc:Work
         rdf:about=""><dc:format>image/svg+xml</dc:format><dc:type
           rdf:resource="http://purl.org/dc/dcmitype/StillImage" /><dc:title></dc:title></cc:Work></rdf:RDF></metadata><defs
     id="defs6"><clipPath
       id="clipPath20"
       clipPathUnits="userSpaceOnUse"><path
         id="path18"
         d="m 43.871,0 h 233.32 V 141.73 H 43.871 Z" /></clipPath><clipPath
       id="clipPath30"
       clipPathUnits="userSpaceOnUse"><path
         id="path28"
         d="M 0,0 H 278 V 169 H 0 Z" /></clipPath></defs><g
     transform="matrix(1.3333333,0,0,1.3333333,0,1.0293266e-5)"
     id="g10"><g
       id="g12" /><g
       id="g14"><g
         clip-path="url(#clipPath20)"
         id="g16"><g
           id="g22"><g
             id="g24"><g
               clip-path="url(#clipPath30)"
               id="g26"><g
                 id="g32"><path
                   id="path34"
                   style="fill:#ffffff;fill-opacity:1;fill-rule:nonzero;stroke:none"
                   d="m 43.871,0 h 233.32 V 141.73 H 43.871 Z" /><g
                   transform="scale(1,-1)"
                   id="g36"><path
                     id="path38"
                     style="fill:none;stroke:#ebebeb;stroke-width:0.52999997;stroke-linecap:butt;stroke-linejoin:round;stroke-miterlimit:10;stroke-dasharray:none;stroke-opacity:1"
                     d="m 43.871,-119.18 h 233.32" /></g><g
                   transform="scale(1,-1)"
                   id="g40"><path
                     id="path42"
                     style="fill:none;stroke:#ebebeb;stroke-width:0.52999997;stroke-linecap:butt;stroke-linejoin:round;stroke-miterlimit:10;stroke-dasharray:none;stroke-opacity:1"
                     d="m 43.871,-86.969 h 233.32" /></g><g
                   transform="scale(1,-1)"
                   id="g44"><path
                     id="path46"
                     style="fill:none;stroke:#ebebeb;stroke-width:0.52999997;stroke-linecap:butt;stroke-linejoin:round;stroke-miterlimit:10;stroke-dasharray:none;stroke-opacity:1"
                     d="m 43.871,-54.762 h 233.32" /></g><g
                   transform="scale(1,-1)"
                   id="g48"><path
                     id="path50"
                     style="fill:none;stroke:#ebebeb;stroke-width:0.52999997;stroke-linecap:butt;stroke-linejoin:round;stroke-miterlimit:10;stroke-dasharray:none;stroke-opacity:1"
                     d="m 43.871,-22.551 h 233.32" /></g><g
                   transform="scale(1,-1)"
                   id="g52"><path
                     id="path54"
                     style="fill:none;stroke:#ebebeb;stroke-width:0.52999997;stroke-linecap:butt;stroke-linejoin:round;stroke-miterlimit:10;stroke-dasharray:none;stroke-opacity:1"
                     d="M 83.781,-141.73 V 0" /></g><g
                   transform="scale(1,-1)"
                   id="g56"><path
                     id="path58"
                     style="fill:none;stroke:#ebebeb;stroke-width:0.52999997;stroke-linecap:butt;stroke-linejoin:round;stroke-miterlimit:10;stroke-dasharray:none;stroke-opacity:1"
                     d="M 135.312,-141.73 V 0" /></g><g
                   transform="scale(1,-1)"
                   id="g60"><path
                     id="path62"
                     style="fill:none;stroke:#ebebeb;stroke-width:0.52999997;stroke-linecap:butt;stroke-linejoin:round;stroke-miterlimit:10;stroke-dasharray:none;stroke-opacity:1"
                     d="M 186.852,-141.73 V 0" /></g><g
                   transform="scale(1,-1)"
                   id="g64"><path
                     id="path66"
                     style="fill:none;stroke:#ebebeb;stroke-width:0.52999997;stroke-linecap:butt;stroke-linejoin:round;stroke-miterlimit:10;stroke-dasharray:none;stroke-opacity:1"
                     d="M 238.383,-141.73 V 0" /></g><g
                   transform="scale(1,-1)"
                   id="g68"><path
                     id="path70"
                     style="fill:none;stroke:#ebebeb;stroke-width:1.07000005;stroke-linecap:butt;stroke-linejoin:round;stroke-miterlimit:10;stroke-dasharray:none;stroke-opacity:1"
                     d="m 43.871,-135.289 h 233.32" /></g><g
                   transform="scale(1,-1)"
                   id="g72"><path
                     id="path74"
                     style="fill:none;stroke:#ebebeb;stroke-width:1.07000005;stroke-linecap:butt;stroke-linejoin:round;stroke-miterlimit:10;stroke-dasharray:none;stroke-opacity:1"
                     d="m 43.871,-103.078 h 233.32" /></g><g
                   transform="scale(1,-1)"
                   id="g76"><path
                     id="path78"
                     style="fill:none;stroke:#ebebeb;stroke-width:1.07000005;stroke-linecap:butt;stroke-linejoin:round;stroke-miterlimit:10;stroke-dasharray:none;stroke-opacity:1"
                     d="m 43.871,-70.859 h 233.32" /></g><g
                   transform="scale(1,-1)"
                   id="g80"><path
                     id="path82"
                     style="fill:none;stroke:#ebebeb;stroke-width:1.07000005;stroke-linecap:butt;stroke-linejoin:round;stroke-miterlimit:10;stroke-dasharray:none;stroke-opacity:1"
                     d="m 43.871,-38.648 h 233.32" /></g><g
                   transform="scale(1,-1)"
                   id="g84"><path
                     id="path86"
                     style="fill:none;stroke:#ebebeb;stroke-width:1.07000005;stroke-linecap:butt;stroke-linejoin:round;stroke-miterlimit:10;stroke-dasharray:none;stroke-opacity:1"
                     d="m 43.871,-6.441 h 233.32" /></g><g
                   transform="scale(1,-1)"
                   id="g88"><path
                     id="path90"
                     style="fill:none;stroke:#ebebeb;stroke-width:1.07000005;stroke-linecap:butt;stroke-linejoin:round;stroke-miterlimit:10;stroke-dasharray:none;stroke-opacity:1"
                     d="M 58.012,-141.73 V 0" /></g><g
                   transform="scale(1,-1)"
                   id="g92"><path
                     id="path94"
                     style="fill:none;stroke:#ebebeb;stroke-width:1.07000005;stroke-linecap:butt;stroke-linejoin:round;stroke-miterlimit:10;stroke-dasharray:none;stroke-opacity:1"
                     d="M 109.551,-141.73 V 0" /></g><g
                   transform="scale(1,-1)"
                   id="g96"><path
                     id="path98"
                     style="fill:none;stroke:#ebebeb;stroke-width:1.07000005;stroke-linecap:butt;stroke-linejoin:round;stroke-miterlimit:10;stroke-dasharray:none;stroke-opacity:1"
                     d="M 161.082,-141.73 V 0" /></g><g
                   transform="scale(1,-1)"
                   id="g100"><path
                     id="path102"
                     style="fill:none;stroke:#ebebeb;stroke-width:1.07000005;stroke-linecap:butt;stroke-linejoin:round;stroke-miterlimit:10;stroke-dasharray:none;stroke-opacity:1"
                     d="M 212.613,-141.73 V 0" /></g><g
                   transform="scale(1,-1)"
                   id="g104"><path
                     id="path106"
                     style="fill:none;stroke:#ebebeb;stroke-width:1.07000005;stroke-linecap:butt;stroke-linejoin:round;stroke-miterlimit:10;stroke-dasharray:none;stroke-opacity:1"
                     d="M 264.152,-141.73 V 0" /></g><g
                   transform="scale(1,-1)"
                   id="g108"><path
                     id="path110"
                     style="fill:#cccccc;fill-opacity:1;fill-rule:nonzero;stroke:#000000;stroke-width:1.07000005;stroke-linecap:butt;stroke-linejoin:round;stroke-miterlimit:10;stroke-dasharray:none;stroke-opacity:1"
                     d="m 54.48,-122.98 h 7.07 v -12.309 h -7.07 z" /></g><g
                   transform="scale(1,-1)"
                   id="g112"><path
                     id="path114"
                     style="fill:#cccccc;fill-opacity:1;fill-rule:nonzero;stroke:#000000;stroke-width:1.07000005;stroke-linecap:butt;stroke-linejoin:round;stroke-miterlimit:10;stroke-dasharray:none;stroke-opacity:1"
                     d="m 61.551,-74.262 h 7.07 v -61.027 h -7.07 z" /></g><g
                   transform="scale(1,-1)"
                   id="g116"><path
                     id="path118"
                     style="fill:#cccccc;fill-opacity:1;fill-rule:nonzero;stroke:#000000;stroke-width:1.07000005;stroke-linecap:butt;stroke-linejoin:round;stroke-miterlimit:10;stroke-dasharray:none;stroke-opacity:1"
                     d="m 68.621,-68.77 h 7.07 v -66.52 h -7.07 z" /></g><g
                   transform="scale(1,-1)"
                   id="g120"><path
                     id="path122"
                     style="fill:#cccccc;fill-opacity:1;fill-rule:nonzero;stroke:#000000;stroke-width:1.07000005;stroke-linecap:butt;stroke-linejoin:round;stroke-miterlimit:10;stroke-dasharray:none;stroke-opacity:1"
                     d="m 75.691,-74.828 h 7.07 v -60.461 h -7.07 z" /></g><g
                   transform="scale(1,-1)"
                   id="g124"><path
                     id="path126"
                     style="fill:#cccccc;fill-opacity:1;fill-rule:nonzero;stroke:#000000;stroke-width:1.07000005;stroke-linecap:butt;stroke-linejoin:round;stroke-miterlimit:10;stroke-dasharray:none;stroke-opacity:1"
                     d="m 82.762,-80.859 h 7.07 v -54.43 h -7.07 z" /></g><g
                   transform="scale(1,-1)"
                   id="g128"><path
                     id="path130"
                     style="fill:#cccccc;fill-opacity:1;fill-rule:nonzero;stroke:#000000;stroke-width:1.07000005;stroke-linecap:butt;stroke-linejoin:round;stroke-miterlimit:10;stroke-dasharray:none;stroke-opacity:1"
                     d="m 89.832,-90.809 h 7.07 v -44.48 h -7.07 z" /></g><g
                   transform="scale(1,-1)"
                   id="g132"><path
                     id="path134"
                     style="fill:#cccccc;fill-opacity:1;fill-rule:nonzero;stroke:#000000;stroke-width:1.07000005;stroke-linecap:butt;stroke-linejoin:round;stroke-miterlimit:10;stroke-dasharray:none;stroke-opacity:1"
                     d="m 96.902,-87.488 h 7.07 v -47.801 h -7.07 z" /></g><g
                   transform="scale(1,-1)"
                   id="g136"><path
                     id="path138"
                     style="fill:#cccccc;fill-opacity:1;fill-rule:nonzero;stroke:#000000;stroke-width:1.07000005;stroke-linecap:butt;stroke-linejoin:round;stroke-miterlimit:10;stroke-dasharray:none;stroke-opacity:1"
                     d="m 103.973,-104.172 h 7.07 v -31.117 h -7.07 z" /></g><g
                   transform="scale(1,-1)"
                   id="g140"><path
                     id="path142"
                     style="fill:#cccccc;fill-opacity:1;fill-rule:nonzero;stroke:#000000;stroke-width:1.07000005;stroke-linecap:butt;stroke-linejoin:round;stroke-miterlimit:10;stroke-dasharray:none;stroke-opacity:1"
                     d="m 111.043,-106.84 h 7.07 v -28.449 h -7.07 z" /></g><g
                   transform="scale(1,-1)"
                   id="g144"><path
                     id="path146"
                     style="fill:#cccccc;fill-opacity:1;fill-rule:nonzero;stroke:#000000;stroke-width:1.07000005;stroke-linecap:butt;stroke-linejoin:round;stroke-miterlimit:10;stroke-dasharray:none;stroke-opacity:1"
                     d="m 118.113,-105.27 h 7.07 v -30.02 h -7.07 z" /></g><g
                   transform="scale(1,-1)"
                   id="g148"><path
                     id="path150"
                     style="fill:#cccccc;fill-opacity:1;fill-rule:nonzero;stroke:#000000;stroke-width:1.07000005;stroke-linecap:butt;stroke-linejoin:round;stroke-miterlimit:10;stroke-dasharray:none;stroke-opacity:1"
                     d="m 125.184,-100.672 h 7.07 v -34.617 h -7.07 z" /></g><g
                   transform="scale(1,-1)"
                   id="g152"><path
                     id="path154"
                     style="fill:#cccccc;fill-opacity:1;fill-rule:nonzero;stroke:#000000;stroke-width:1.07000005;stroke-linecap:butt;stroke-linejoin:round;stroke-miterlimit:10;stroke-dasharray:none;stroke-opacity:1"
                     d="m 132.254,-103.93 h 7.066 v -31.359 h -7.066 z" /></g><g
                   transform="scale(1,-1)"
                   id="g156"><path
                     id="path158"
                     style="fill:#cccccc;fill-opacity:1;fill-rule:nonzero;stroke:#000000;stroke-width:1.07000005;stroke-linecap:butt;stroke-linejoin:round;stroke-miterlimit:10;stroke-dasharray:none;stroke-opacity:1"
                     d="m 139.32,-98.109 h 7.07 v -37.18 h -7.07 z" /></g><g
                   transform="scale(1,-1)"
                   id="g160"><path
                     id="path162"
                     style="fill:#cccccc;fill-opacity:1;fill-rule:nonzero;stroke:#000000;stroke-width:1.07000005;stroke-linecap:butt;stroke-linejoin:round;stroke-miterlimit:10;stroke-dasharray:none;stroke-opacity:1"
                     d="m 146.391,-107.621 h 7.07 v -27.668 h -7.07 z" /></g><g
                   transform="scale(1,-1)"
                   id="g164"><path
                     id="path166"
                     style="fill:#cccccc;fill-opacity:1;fill-rule:nonzero;stroke:#000000;stroke-width:1.07000005;stroke-linecap:butt;stroke-linejoin:round;stroke-miterlimit:10;stroke-dasharray:none;stroke-opacity:1"
                     d="m 153.461,-111.629 h 7.07 v -23.66 h -7.07 z" /></g><g
                   transform="scale(1,-1)"
                   id="g168"><path
                     id="path170"
                     style="fill:#cccccc;fill-opacity:1;fill-rule:nonzero;stroke:#000000;stroke-width:1.07000005;stroke-linecap:butt;stroke-linejoin:round;stroke-miterlimit:10;stroke-dasharray:none;stroke-opacity:1"
                     d="m 160.531,-99.02 h 7.07 v -36.27 h -7.07 z" /></g><g
                   transform="scale(1,-1)"
                   id="g172"><path
                     id="path174"
                     style="fill:#cccccc;fill-opacity:1;fill-rule:nonzero;stroke:#000000;stroke-width:1.07000005;stroke-linecap:butt;stroke-linejoin:round;stroke-miterlimit:10;stroke-dasharray:none;stroke-opacity:1"
                     d="m 167.602,-102.578 h 7.07 v -32.711 h -7.07 z" /></g><g
                   transform="scale(1,-1)"
                   id="g176"><path
                     id="path178"
                     style="fill:#cccccc;fill-opacity:1;fill-rule:nonzero;stroke:#000000;stroke-width:1.07000005;stroke-linecap:butt;stroke-linejoin:round;stroke-miterlimit:10;stroke-dasharray:none;stroke-opacity:1"
                     d="m 174.672,-97.078 h 7.07 v -38.211 h -7.07 z" /></g><g
                   transform="scale(1,-1)"
                   id="g180"><path
                     id="path182"
                     style="fill:#cccccc;fill-opacity:1;fill-rule:nonzero;stroke:#000000;stroke-width:1.07000005;stroke-linecap:butt;stroke-linejoin:round;stroke-miterlimit:10;stroke-dasharray:none;stroke-opacity:1"
                     d="m 181.742,-106.301 h 7.07 v -28.988 h -7.07 z" /></g><g
                   transform="scale(1,-1)"
                   id="g184"><path
                     id="path186"
                     style="fill:#cccccc;fill-opacity:1;fill-rule:nonzero;stroke:#000000;stroke-width:1.07000005;stroke-linecap:butt;stroke-linejoin:round;stroke-miterlimit:10;stroke-dasharray:none;stroke-opacity:1"
                     d="m 188.812,-95.09 h 7.07 v -40.199 h -7.07 z" /></g><g
                   transform="scale(1,-1)"
                   id="g188"><path
                     id="path190"
                     style="fill:#cccccc;fill-opacity:1;fill-rule:nonzero;stroke:#000000;stroke-width:1.07000005;stroke-linecap:butt;stroke-linejoin:round;stroke-miterlimit:10;stroke-dasharray:none;stroke-opacity:1"
                     d="m 195.883,-105.57 h 7.07 v -29.719 h -7.07 z" /></g><g
                   transform="scale(1,-1)"
                   id="g192"><path
                     id="path194"
                     style="fill:#cccccc;fill-opacity:1;fill-rule:nonzero;stroke:#000000;stroke-width:1.07000005;stroke-linecap:butt;stroke-linejoin:round;stroke-miterlimit:10;stroke-dasharray:none;stroke-opacity:1"
                     d="m 202.953,-98.922 h 7.07 v -36.367 h -7.07 z" /></g><g
                   transform="scale(1,-1)"
                   id="g196"><path
                     id="path198"
                     style="fill:#cccccc;fill-opacity:1;fill-rule:nonzero;stroke:#000000;stroke-width:1.07000005;stroke-linecap:butt;stroke-linejoin:round;stroke-miterlimit:10;stroke-dasharray:none;stroke-opacity:1"
                     d="m 210.023,-96.52 h 7.07 v -38.77 h -7.07 z" /></g><g
                   transform="scale(1,-1)"
                   id="g200"><path
                     id="path202"
                     style="fill:#cccccc;fill-opacity:1;fill-rule:nonzero;stroke:#000000;stroke-width:1.07000005;stroke-linecap:butt;stroke-linejoin:round;stroke-miterlimit:10;stroke-dasharray:none;stroke-opacity:1"
                     d="m 217.094,-87.012 h 7.066 v -48.277 h -7.066 z" /></g><g
                   transform="scale(1,-1)"
                   id="g204"><path
                     id="path206"
                     style="fill:#cccccc;fill-opacity:1;fill-rule:nonzero;stroke:#000000;stroke-width:1.07000005;stroke-linecap:butt;stroke-linejoin:round;stroke-miterlimit:10;stroke-dasharray:none;stroke-opacity:1"
                     d="m 224.16,-88.219 h 7.07 v -47.07 h -7.07 z" /></g><g
                   transform="scale(1,-1)"
                   id="g208"><path
                     id="path210"
                     style="fill:#cccccc;fill-opacity:1;fill-rule:nonzero;stroke:#000000;stroke-width:1.07000005;stroke-linecap:butt;stroke-linejoin:round;stroke-miterlimit:10;stroke-dasharray:none;stroke-opacity:1"
                     d="m 231.23,-91.449 h 7.07 v -43.84 h -7.07 z" /></g><g
                   transform="scale(1,-1)"
                   id="g212"><path
                     id="path214"
                     style="fill:#cccccc;fill-opacity:1;fill-rule:nonzero;stroke:#000000;stroke-width:1.07000005;stroke-linecap:butt;stroke-linejoin:round;stroke-miterlimit:10;stroke-dasharray:none;stroke-opacity:1"
                     d="m 238.301,-80.621 h 7.07 v -54.668 h -7.07 z" /></g><g
                   transform="scale(1,-1)"
                   id="g216"><path
                     id="path218"
                     style="fill:#cccccc;fill-opacity:1;fill-rule:nonzero;stroke:#000000;stroke-width:1.07000005;stroke-linecap:butt;stroke-linejoin:round;stroke-miterlimit:10;stroke-dasharray:none;stroke-opacity:1"
                     d="m 245.371,-77.629 h 7.07 v -57.66 h -7.07 z" /></g><g
                   transform="scale(1,-1)"
                   id="g220"><path
                     id="path222"
                     style="fill:#cccccc;fill-opacity:1;fill-rule:nonzero;stroke:#000000;stroke-width:1.07000005;stroke-linecap:butt;stroke-linejoin:round;stroke-miterlimit:10;stroke-dasharray:none;stroke-opacity:1"
                     d="m 252.441,-89.352 h 7.07 v -45.938 h -7.07 z" /></g><g
                   transform="scale(1,-1)"
                   id="g224"><path
                     id="path226"
                     style="fill:#cccccc;fill-opacity:1;fill-rule:nonzero;stroke:#000000;stroke-width:1.07000005;stroke-linecap:butt;stroke-linejoin:round;stroke-miterlimit:10;stroke-dasharray:none;stroke-opacity:1"
                     d="m 259.523,-16.66 h 7.07 v -118.629 h -7.07 z" /></g><g
                   transform="scale(1,-1)"
                   id="g228"><path
                     id="path230"
                     style="fill:none;stroke:#333333;stroke-width:1.07000005;stroke-linecap:round;stroke-linejoin:round;stroke-miterlimit:10;stroke-dasharray:none;stroke-opacity:1"
                     d="m 43.871,0 h 233.32 V -141.73 H 43.871 Z" /></g></g></g></g></g></g></g><g
       id="g232"><path
         id="path234"
         style="fill:#4d4d4d;fill-opacity:1;fill-rule:nonzero;stroke:none"
         d="m 22.996,135.457 c 0,-2.219 -0.703,-3.312 -2.094,-3.312 -1.375,0 -2.078,1.109 -2.078,3.25 0,2.156 0.719,3.265 2.078,3.265 1.36,0 2.094,-1.109 2.094,-3.203 z m -0.812,-0.078 c 0,1.812 -0.407,2.625 -1.297,2.625 -0.828,0 -1.25,-0.859 -1.25,-2.594 0,-1.75 0.422,-2.562 1.265,-2.562 0.86,0 1.282,0.828 1.282,2.531 z" /><path
         id="path236"
         style="fill:#4d4d4d;fill-opacity:1;fill-rule:nonzero;stroke:none"
         d="m 24.219,137.582 h 0.938 v 0.938 h -0.938 z" /><path
         id="path238"
         style="fill:#4d4d4d;fill-opacity:1;fill-rule:nonzero;stroke:none"
         d="m 30.5,135.457 c 0,-2.219 -0.703,-3.312 -2.094,-3.312 -1.375,0 -2.078,1.109 -2.078,3.25 0,2.156 0.719,3.265 2.078,3.265 1.36,0 2.094,-1.109 2.094,-3.203 z m -0.812,-0.078 c 0,1.812 -0.407,2.625 -1.297,2.625 -0.829,0 -1.25,-0.859 -1.25,-2.594 0,-1.75 0.421,-2.562 1.265,-2.562 0.86,0 1.282,0.828 1.282,2.531 z" /><path
         id="path240"
         style="fill:#4d4d4d;fill-opacity:1;fill-rule:nonzero;stroke:none"
         d="m 34.27,133.91 c 0,-0.875 -0.672,-1.562 -1.532,-1.562 -0.843,0 -1.531,0.703 -1.531,1.547 0,0.843 0.688,1.531 1.531,1.531 0.844,0 1.532,-0.688 1.532,-1.516 z m -0.625,0 c 0,0.485 -0.407,0.891 -0.907,0.891 -0.5,0 -0.922,-0.406 -0.922,-0.906 0,-0.5 0.422,-0.907 0.922,-0.907 0.5,0 0.907,0.407 0.907,0.922 z m 3.375,-1.765 h -0.594 l -3.563,6.562 h 0.594 z m 1.656,5.031 c 0,-0.875 -0.672,-1.547 -1.547,-1.547 -0.828,0 -1.531,0.687 -1.531,1.516 0,0.859 0.703,1.546 1.547,1.546 0.828,0 1.531,-0.687 1.531,-1.515 z m -0.625,0 c 0,0.484 -0.406,0.89 -0.906,0.89 -0.5,0 -0.922,-0.406 -0.922,-0.921 0,-0.485 0.422,-0.891 0.906,-0.891 0.516,0 0.922,0.406 0.922,0.922 z" /><path
         id="path242"
         style="fill:#4d4d4d;fill-opacity:1;fill-rule:nonzero;stroke:none"
         d="m 23.027,101.793 c 0,-1.078 -0.828,-1.859 -2.031,-1.859 -1.312,0 -2.062,0.656 -2.109,2.203 h 0.781 c 0.078,-1.063 0.516,-1.516 1.297,-1.516 0.719,0 1.25,0.516 1.25,1.203 0,0.5 -0.297,0.922 -0.86,1.25 l -0.828,0.469 c -1.328,0.766 -1.718,1.359 -1.781,2.766 h 4.234 v -0.782 h -3.343 c 0.078,-0.531 0.359,-0.859 1.14,-1.312 l 0.907,-0.485 c 0.89,-0.484 1.343,-1.14 1.343,-1.937 z" /><path
         id="path244"
         style="fill:#4d4d4d;fill-opacity:1;fill-rule:nonzero;stroke:none"
         d="m 24.219,105.371 h 0.938 v 0.938 h -0.938 z" /><path
         id="path246"
         style="fill:#4d4d4d;fill-opacity:1;fill-rule:nonzero;stroke:none"
         d="m 30.547,104.199 c 0,-1.265 -0.828,-2.094 -2.047,-2.094 -0.453,0 -0.812,0.11 -1.188,0.391 l 0.25,-1.656 h 2.657 v -0.781 h -3.297 l -0.469,3.343 h 0.719 c 0.375,-0.437 0.687,-0.593 1.172,-0.593 0.859,0 1.406,0.546 1.406,1.5 0,0.906 -0.531,1.437 -1.406,1.437 -0.688,0 -1.11,-0.359 -1.297,-1.078 H 26.25 c 0.266,1.266 0.984,1.781 2.125,1.781 1.281,0 2.172,-0.906 2.172,-2.25 z" /><path
         id="path248"
         style="fill:#4d4d4d;fill-opacity:1;fill-rule:nonzero;stroke:none"
         d="m 34.27,101.699 c 0,-0.875 -0.672,-1.562 -1.532,-1.562 -0.843,0 -1.531,0.703 -1.531,1.547 0,0.843 0.688,1.531 1.531,1.531 0.844,0 1.532,-0.688 1.532,-1.516 z m -0.625,0 c 0,0.485 -0.407,0.891 -0.907,0.891 -0.5,0 -0.922,-0.406 -0.922,-0.906 0,-0.5 0.422,-0.907 0.922,-0.907 0.5,0 0.907,0.407 0.907,0.922 z m 3.375,-1.765 h -0.594 l -3.563,6.562 h 0.594 z m 1.656,5.031 c 0,-0.875 -0.672,-1.547 -1.547,-1.547 -0.828,0 -1.531,0.687 -1.531,1.516 0,0.859 0.703,1.546 1.547,1.546 0.828,0 1.531,-0.687 1.531,-1.515 z m -0.625,0 c 0,0.484 -0.406,0.89 -0.906,0.89 -0.5,0 -0.922,-0.406 -0.922,-0.921 0,-0.485 0.422,-0.891 0.906,-0.891 0.516,0 0.922,0.406 0.922,0.922 z" /><path
         id="path250"
         style="fill:#4d4d4d;fill-opacity:1;fill-rule:nonzero;stroke:none"
         d="m 23.043,71.992 c 0,-1.265 -0.828,-2.094 -2.047,-2.094 -0.453,0 -0.812,0.11 -1.187,0.391 l 0.25,-1.656 h 2.656 v -0.781 h -3.297 l -0.469,3.343 h 0.719 c 0.375,-0.437 0.687,-0.593 1.172,-0.593 0.859,0 1.406,0.546 1.406,1.5 0,0.906 -0.531,1.437 -1.406,1.437 -0.688,0 -1.11,-0.359 -1.297,-1.078 h -0.797 c 0.266,1.266 0.984,1.781 2.125,1.781 1.281,0 2.172,-0.906 2.172,-2.25 z" /><path
         id="path252"
         style="fill:#4d4d4d;fill-opacity:1;fill-rule:nonzero;stroke:none"
         d="m 24.219,73.164 h 0.938 v 0.938 h -0.938 z" /><path
         id="path254"
         style="fill:#4d4d4d;fill-opacity:1;fill-rule:nonzero;stroke:none"
         d="m 30.5,71.039 c 0,-2.219 -0.703,-3.312 -2.094,-3.312 -1.375,0 -2.078,1.109 -2.078,3.25 0,2.156 0.719,3.265 2.078,3.265 1.36,0 2.094,-1.109 2.094,-3.203 z m -0.812,-0.078 c 0,1.812 -0.407,2.625 -1.297,2.625 -0.829,0 -1.25,-0.859 -1.25,-2.594 0,-1.75 0.421,-2.562 1.265,-2.562 0.86,0 1.282,0.828 1.282,2.531 z" /><path
         id="path256"
         style="fill:#4d4d4d;fill-opacity:1;fill-rule:nonzero;stroke:none"
         d="m 34.27,69.492 c 0,-0.875 -0.672,-1.562 -1.532,-1.562 -0.843,0 -1.531,0.703 -1.531,1.547 0,0.843 0.688,1.531 1.531,1.531 0.844,0 1.532,-0.688 1.532,-1.516 z m -0.625,0 c 0,0.485 -0.407,0.891 -0.907,0.891 -0.5,0 -0.922,-0.406 -0.922,-0.906 0,-0.5 0.422,-0.907 0.922,-0.907 0.5,0 0.907,0.407 0.907,0.922 z m 3.375,-1.765 h -0.594 l -3.563,6.562 h 0.594 z m 1.656,5.031 c 0,-0.875 -0.672,-1.547 -1.547,-1.547 -0.828,0 -1.531,0.687 -1.531,1.516 0,0.859 0.703,1.546 1.547,1.546 0.828,0 1.531,-0.687 1.531,-1.515 z m -0.625,0 c 0,0.484 -0.406,0.89 -0.906,0.89 -0.5,0 -0.922,-0.406 -0.922,-0.921 0,-0.485 0.422,-0.891 0.906,-0.891 0.516,0 0.922,0.406 0.922,0.922 z" /><path
         id="path258"
         style="fill:#4d4d4d;fill-opacity:1;fill-rule:nonzero;stroke:none"
         d="M 23.121,36.301 V 35.629 H 18.84 v 0.781 h 3.453 c -1.266,1.61 -2.172,3.469 -2.625,5.469 h 0.859 c 0.344,-2.063 1.25,-3.984 2.594,-5.578 z" /><path
         id="path260"
         style="fill:#4d4d4d;fill-opacity:1;fill-rule:nonzero;stroke:none"
         d="m 24.219,40.941 h 0.938 v 0.938 h -0.938 z" /><path
         id="path262"
         style="fill:#4d4d4d;fill-opacity:1;fill-rule:nonzero;stroke:none"
         d="m 30.547,39.77 c 0,-1.266 -0.828,-2.094 -2.047,-2.094 -0.453,0 -0.812,0.109 -1.188,0.39 l 0.25,-1.656 h 2.657 v -0.781 h -3.297 l -0.469,3.344 h 0.719 c 0.375,-0.438 0.687,-0.594 1.172,-0.594 0.859,0 1.406,0.547 1.406,1.5 0,0.906 -0.531,1.437 -1.406,1.437 -0.688,0 -1.11,-0.359 -1.297,-1.078 H 26.25 c 0.266,1.266 0.984,1.782 2.125,1.782 1.281,0 2.172,-0.907 2.172,-2.25 z" /><path
         id="path264"
         style="fill:#4d4d4d;fill-opacity:1;fill-rule:nonzero;stroke:none"
         d="m 34.27,37.27 c 0,-0.875 -0.672,-1.563 -1.532,-1.563 -0.843,0 -1.531,0.703 -1.531,1.547 0,0.844 0.688,1.531 1.531,1.531 0.844,0 1.532,-0.687 1.532,-1.515 z m -0.625,0 c 0,0.484 -0.407,0.89 -0.907,0.89 -0.5,0 -0.922,-0.406 -0.922,-0.906 0,-0.5 0.422,-0.906 0.922,-0.906 0.5,0 0.907,0.406 0.907,0.922 z m 3.375,-1.766 h -0.594 l -3.563,6.562 h 0.594 z m 1.656,5.031 c 0,-0.875 -0.672,-1.547 -1.547,-1.547 -0.828,0 -1.531,0.688 -1.531,1.516 0,0.859 0.703,1.547 1.547,1.547 0.828,0 1.531,-0.688 1.531,-1.516 z m -0.625,0 c 0,0.485 -0.406,0.891 -0.906,0.891 -0.5,0 -0.922,-0.406 -0.922,-0.922 0,-0.484 0.422,-0.891 0.906,-0.891 0.516,0 0.922,0.407 0.922,0.922 z" /><path
         id="path266"
         style="fill:#4d4d4d;fill-opacity:1;fill-rule:nonzero;stroke:none"
         d="M 16.559,9.672 V 3.297 h -0.532 c -0.265,0.969 -0.453,1.109 -1.672,1.265 v 0.563 h 1.407 v 4.547 z" /><path
         id="path268"
         style="fill:#4d4d4d;fill-opacity:1;fill-rule:nonzero;stroke:none"
         d="m 23,6.609 c 0,-2.218 -0.703,-3.312 -2.094,-3.312 -1.375,0 -2.078,1.109 -2.078,3.25 0,2.156 0.719,3.265 2.078,3.265 C 22.266,9.812 23,8.703 23,6.609 Z M 22.188,6.531 c 0,1.813 -0.407,2.625 -1.297,2.625 -0.829,0 -1.25,-0.859 -1.25,-2.594 0,-1.75 0.421,-2.562 1.265,-2.562 0.86,0 1.282,0.828 1.282,2.531 z" /><path
         id="path270"
         style="fill:#4d4d4d;fill-opacity:1;fill-rule:nonzero;stroke:none"
         d="m 24.223,8.734 h 0.938 v 0.938 h -0.938 z" /><path
         id="path272"
         style="fill:#4d4d4d;fill-opacity:1;fill-rule:nonzero;stroke:none"
         d="m 30.504,6.609 c 0,-2.218 -0.703,-3.312 -2.094,-3.312 -1.375,0 -2.078,1.109 -2.078,3.25 0,2.156 0.719,3.265 2.078,3.265 1.36,0 2.094,-1.109 2.094,-3.203 z M 29.691,6.531 c 0,1.813 -0.406,2.625 -1.296,2.625 -0.829,0 -1.25,-0.859 -1.25,-2.594 0,-1.75 0.421,-2.562 1.265,-2.562 0.86,0 1.281,0.828 1.281,2.531 z" /><path
         id="path274"
         style="fill:#4d4d4d;fill-opacity:1;fill-rule:nonzero;stroke:none"
         d="m 34.273,5.062 c 0,-0.874 -0.671,-1.562 -1.531,-1.562 -0.844,0 -1.531,0.703 -1.531,1.547 0,0.844 0.687,1.531 1.531,1.531 0.844,0 1.531,-0.687 1.531,-1.516 z m -0.625,0 c 0,0.485 -0.406,0.891 -0.906,0.891 -0.5,0 -0.922,-0.406 -0.922,-0.906 0,-0.5 0.422,-0.906 0.922,-0.906 0.5,0 0.906,0.406 0.906,0.921 z M 37.023,3.297 H 36.43 l -3.563,6.562 h 0.594 z m 1.657,5.031 c 0,-0.875 -0.672,-1.547 -1.547,-1.547 -0.828,0 -1.531,0.688 -1.531,1.516 0,0.859 0.703,1.547 1.546,1.547 0.829,0 1.532,-0.688 1.532,-1.516 z m -0.625,0 c 0,0.484 -0.407,0.891 -0.907,0.891 -0.5,0 -0.921,-0.407 -0.921,-0.922 0,-0.485 0.421,-0.891 0.906,-0.891 0.515,0 0.922,0.406 0.922,0.922 z" /><g
         transform="scale(1,-1)"
         id="g276"><path
           id="path278"
           style="fill:none;stroke:#333333;stroke-width:1.07000005;stroke-linecap:butt;stroke-linejoin:round;stroke-miterlimit:10;stroke-dasharray:none;stroke-opacity:1"
           d="m 41.133,-135.289 h 2.738" /></g><g
         transform="scale(1,-1)"
         id="g280"><path
           id="path282"
           style="fill:none;stroke:#333333;stroke-width:1.07000005;stroke-linecap:butt;stroke-linejoin:round;stroke-miterlimit:10;stroke-dasharray:none;stroke-opacity:1"
           d="m 41.133,-103.078 h 2.738" /></g><g
         transform="scale(1,-1)"
         id="g284"><path
           id="path286"
           style="fill:none;stroke:#333333;stroke-width:1.07000005;stroke-linecap:butt;stroke-linejoin:round;stroke-miterlimit:10;stroke-dasharray:none;stroke-opacity:1"
           d="m 41.133,-70.859 h 2.738" /></g><g
         transform="scale(1,-1)"
         id="g288"><path
           id="path290"
           style="fill:none;stroke:#333333;stroke-width:1.07000005;stroke-linecap:butt;stroke-linejoin:round;stroke-miterlimit:10;stroke-dasharray:none;stroke-opacity:1"
           d="m 41.133,-38.648 h 2.738" /></g><g
         transform="scale(1,-1)"
         id="g292"><path
           id="path294"
           style="fill:none;stroke:#333333;stroke-width:1.07000005;stroke-linecap:butt;stroke-linejoin:round;stroke-miterlimit:10;stroke-dasharray:none;stroke-opacity:1"
           d="m 41.133,-6.441 h 2.738" /></g><g
         transform="scale(1,-1)"
         id="g296"><path
           id="path298"
           style="fill:none;stroke:#333333;stroke-width:1.07000005;stroke-linecap:butt;stroke-linejoin:round;stroke-miterlimit:10;stroke-dasharray:none;stroke-opacity:1"
           d="m 58.012,-144.469 v 2.739" /></g><g
         transform="scale(1,-1)"
         id="g300"><path
           id="path302"
           style="fill:none;stroke:#333333;stroke-width:1.07000005;stroke-linecap:butt;stroke-linejoin:round;stroke-miterlimit:10;stroke-dasharray:none;stroke-opacity:1"
           d="m 109.551,-144.469 v 2.739" /></g><g
         transform="scale(1,-1)"
         id="g304"><path
           id="path306"
           style="fill:none;stroke:#333333;stroke-width:1.07000005;stroke-linecap:butt;stroke-linejoin:round;stroke-miterlimit:10;stroke-dasharray:none;stroke-opacity:1"
           d="m 161.082,-144.469 v 2.739" /></g><g
         transform="scale(1,-1)"
         id="g308"><path
           id="path310"
           style="fill:none;stroke:#333333;stroke-width:1.07000005;stroke-linecap:butt;stroke-linejoin:round;stroke-miterlimit:10;stroke-dasharray:none;stroke-opacity:1"
           d="m 212.613,-144.469 v 2.739" /></g><g
         transform="scale(1,-1)"
         id="g312"><path
           id="path314"
           style="fill:none;stroke:#333333;stroke-width:1.07000005;stroke-linecap:butt;stroke-linejoin:round;stroke-miterlimit:10;stroke-dasharray:none;stroke-opacity:1"
           d="m 264.152,-144.469 v 2.739" /></g><path
         id="path316"
         style="fill:#4d4d4d;fill-opacity:1;fill-rule:nonzero;stroke:none"
         d="m 53.824,150.059 c 0,-2.219 -0.703,-3.313 -2.094,-3.313 -1.375,0 -2.078,1.109 -2.078,3.25 0,2.156 0.719,3.266 2.078,3.266 1.36,0 2.094,-1.11 2.094,-3.203 z m -0.812,-0.079 c 0,1.813 -0.407,2.625 -1.297,2.625 -0.828,0 -1.25,-0.859 -1.25,-2.593 0,-1.75 0.422,-2.563 1.265,-2.563 0.86,0 1.282,0.828 1.282,2.531 z" /><path
         id="path318"
         style="fill:#4d4d4d;fill-opacity:1;fill-rule:nonzero;stroke:none"
         d="m 55.047,152.184 h 0.938 v 0.938 h -0.938 z" /><path
         id="path320"
         style="fill:#4d4d4d;fill-opacity:1;fill-rule:nonzero;stroke:none"
         d="m 61.332,150.059 c 0,-2.219 -0.703,-3.313 -2.094,-3.313 -1.375,0 -2.078,1.109 -2.078,3.25 0,2.156 0.719,3.266 2.078,3.266 1.36,0 2.094,-1.11 2.094,-3.203 z M 60.52,149.98 c 0,1.813 -0.407,2.625 -1.297,2.625 -0.828,0 -1.25,-0.859 -1.25,-2.593 0,-1.75 0.422,-2.563 1.265,-2.563 0.86,0 1.282,0.828 1.282,2.531 z" /><path
         id="path322"
         style="fill:#4d4d4d;fill-opacity:1;fill-rule:nonzero;stroke:none"
         d="m 66.336,150.059 c 0,-2.219 -0.703,-3.313 -2.094,-3.313 -1.375,0 -2.078,1.109 -2.078,3.25 0,2.156 0.719,3.266 2.078,3.266 1.36,0 2.094,-1.11 2.094,-3.203 z m -0.813,-0.079 c 0,1.813 -0.406,2.625 -1.296,2.625 -0.829,0 -1.25,-0.859 -1.25,-2.593 0,-1.75 0.421,-2.563 1.265,-2.563 0.86,0 1.281,0.828 1.281,2.531 z" /><path
         id="path324"
         style="fill:#4d4d4d;fill-opacity:1;fill-rule:nonzero;stroke:none"
         d="m 105.355,150.059 c 0,-2.219 -0.703,-3.313 -2.093,-3.313 -1.375,0 -2.078,1.109 -2.078,3.25 0,2.156 0.718,3.266 2.078,3.266 1.359,0 2.093,-1.11 2.093,-3.203 z m -0.812,-0.079 c 0,1.813 -0.406,2.625 -1.297,2.625 -0.828,0 -1.25,-0.859 -1.25,-2.593 0,-1.75 0.422,-2.563 1.266,-2.563 0.859,0 1.281,0.828 1.281,2.531 z" /><path
         id="path326"
         style="fill:#4d4d4d;fill-opacity:1;fill-rule:nonzero;stroke:none"
         d="m 106.578,152.184 h 0.938 v 0.938 h -0.938 z" /><path
         id="path328"
         style="fill:#4d4d4d;fill-opacity:1;fill-rule:nonzero;stroke:none"
         d="m 112.891,148.605 c 0,-1.078 -0.829,-1.859 -2.032,-1.859 -1.312,0 -2.062,0.656 -2.109,2.203 h 0.781 c 0.078,-1.062 0.516,-1.515 1.297,-1.515 0.719,0 1.25,0.515 1.25,1.203 0,0.5 -0.297,0.922 -0.859,1.25 l -0.828,0.468 c -1.329,0.766 -1.719,1.36 -1.782,2.766 h 4.235 V 152.34 H 109.5 c 0.078,-0.531 0.359,-0.86 1.141,-1.313 l 0.906,-0.484 c 0.891,-0.484 1.344,-1.141 1.344,-1.938 z" /><path
         id="path330"
         style="fill:#4d4d4d;fill-opacity:1;fill-rule:nonzero;stroke:none"
         d="m 117.91,151.012 c 0,-1.266 -0.828,-2.094 -2.047,-2.094 -0.453,0 -0.812,0.109 -1.187,0.391 l 0.25,-1.657 h 2.656 v -0.781 h -3.297 l -0.469,3.344 h 0.719 c 0.375,-0.438 0.688,-0.594 1.172,-0.594 0.859,0 1.406,0.547 1.406,1.5 0,0.906 -0.531,1.438 -1.406,1.438 -0.687,0 -1.109,-0.36 -1.297,-1.079 h -0.797 c 0.266,1.266 0.985,1.782 2.125,1.782 1.282,0 2.172,-0.907 2.172,-2.25 z" /><path
         id="path332"
         style="fill:#4d4d4d;fill-opacity:1;fill-rule:nonzero;stroke:none"
         d="m 156.883,150.059 c 0,-2.219 -0.703,-3.313 -2.094,-3.313 -1.375,0 -2.078,1.109 -2.078,3.25 0,2.156 0.719,3.266 2.078,3.266 1.359,0 2.094,-1.11 2.094,-3.203 z m -0.813,-0.079 c 0,1.813 -0.406,2.625 -1.297,2.625 -0.828,0 -1.25,-0.859 -1.25,-2.593 0,-1.75 0.422,-2.563 1.266,-2.563 0.859,0 1.281,0.828 1.281,2.531 z" /><path
         id="path334"
         style="fill:#4d4d4d;fill-opacity:1;fill-rule:nonzero;stroke:none"
         d="m 158.105,152.184 h 0.938 v 0.938 h -0.938 z" /><path
         id="path336"
         style="fill:#4d4d4d;fill-opacity:1;fill-rule:nonzero;stroke:none"
         d="m 164.438,151.012 c 0,-1.266 -0.829,-2.094 -2.047,-2.094 -0.453,0 -0.813,0.109 -1.188,0.391 l 0.25,-1.657 h 2.656 v -0.781 h -3.297 l -0.468,3.344 h 0.718 c 0.376,-0.438 0.688,-0.594 1.172,-0.594 0.86,0 1.407,0.547 1.407,1.5 0,0.906 -0.532,1.438 -1.407,1.438 -0.687,0 -1.109,-0.36 -1.296,-1.079 h -0.797 c 0.265,1.266 0.984,1.782 2.125,1.782 1.281,0 2.172,-0.907 2.172,-2.25 z" /><path
         id="path338"
         style="fill:#4d4d4d;fill-opacity:1;fill-rule:nonzero;stroke:none"
         d="m 169.395,150.059 c 0,-2.219 -0.704,-3.313 -2.094,-3.313 -1.375,0 -2.078,1.109 -2.078,3.25 0,2.156 0.718,3.266 2.078,3.266 1.359,0 2.094,-1.11 2.094,-3.203 z m -0.813,-0.079 c 0,1.813 -0.406,2.625 -1.297,2.625 -0.828,0 -1.25,-0.859 -1.25,-2.593 0,-1.75 0.422,-2.563 1.266,-2.563 0.859,0 1.281,0.828 1.281,2.531 z" /><path
         id="path340"
         style="fill:#4d4d4d;fill-opacity:1;fill-rule:nonzero;stroke:none"
         d="m 208.426,150.059 c 0,-2.219 -0.703,-3.313 -2.094,-3.313 -1.375,0 -2.078,1.109 -2.078,3.25 0,2.156 0.719,3.266 2.078,3.266 1.359,0 2.094,-1.11 2.094,-3.203 z m -0.813,-0.079 c 0,1.813 -0.406,2.625 -1.297,2.625 -0.828,0 -1.25,-0.859 -1.25,-2.593 0,-1.75 0.422,-2.563 1.266,-2.563 0.859,0 1.281,0.828 1.281,2.531 z" /><path
         id="path342"
         style="fill:#4d4d4d;fill-opacity:1;fill-rule:nonzero;stroke:none"
         d="m 209.648,152.184 h 0.938 v 0.938 h -0.938 z" /><path
         id="path344"
         style="fill:#4d4d4d;fill-opacity:1;fill-rule:nonzero;stroke:none"
         d="m 216.055,147.543 v -0.672 h -4.282 v 0.781 h 3.454 c -1.266,1.61 -2.172,3.469 -2.625,5.469 h 0.859 c 0.344,-2.062 1.25,-3.984 2.594,-5.578 z" /><path
         id="path346"
         style="fill:#4d4d4d;fill-opacity:1;fill-rule:nonzero;stroke:none"
         d="m 220.98,151.012 c 0,-1.266 -0.828,-2.094 -2.046,-2.094 -0.454,0 -0.813,0.109 -1.188,0.391 l 0.25,-1.657 h 2.656 v -0.781 h -3.297 l -0.468,3.344 h 0.718 c 0.375,-0.438 0.688,-0.594 1.172,-0.594 0.86,0 1.407,0.547 1.407,1.5 0,0.906 -0.532,1.438 -1.407,1.438 -0.687,0 -1.109,-0.36 -1.297,-1.079 h -0.796 c 0.265,1.266 0.984,1.782 2.125,1.782 1.281,0 2.171,-0.907 2.171,-2.25 z" /><path
         id="path348"
         style="fill:#4d4d4d;fill-opacity:1;fill-rule:nonzero;stroke:none"
         d="m 258.516,153.121 v -6.375 h -0.532 c -0.265,0.969 -0.453,1.109 -1.672,1.266 v 0.562 h 1.407 v 4.547 z" /><path
         id="path350"
         style="fill:#4d4d4d;fill-opacity:1;fill-rule:nonzero;stroke:none"
         d="m 261.176,152.184 h 0.938 v 0.938 h -0.938 z" /><path
         id="path352"
         style="fill:#4d4d4d;fill-opacity:1;fill-rule:nonzero;stroke:none"
         d="m 267.461,150.059 c 0,-2.219 -0.703,-3.313 -2.094,-3.313 -1.375,0 -2.078,1.109 -2.078,3.25 0,2.156 0.719,3.266 2.078,3.266 1.36,0 2.094,-1.11 2.094,-3.203 z m -0.813,-0.079 c 0,1.813 -0.406,2.625 -1.296,2.625 -0.829,0 -1.25,-0.859 -1.25,-2.593 0,-1.75 0.421,-2.563 1.265,-2.563 0.86,0 1.281,0.828 1.281,2.531 z" /><path
         id="path354"
         style="fill:#4d4d4d;fill-opacity:1;fill-rule:nonzero;stroke:none"
         d="m 272.465,150.059 c 0,-2.219 -0.703,-3.313 -2.094,-3.313 -1.375,0 -2.078,1.109 -2.078,3.25 0,2.156 0.719,3.266 2.078,3.266 1.359,0 2.094,-1.11 2.094,-3.203 z m -0.813,-0.079 c 0,1.813 -0.406,2.625 -1.297,2.625 -0.828,0 -1.25,-0.859 -1.25,-2.593 0,-1.75 0.422,-2.563 1.266,-2.563 0.859,0 1.281,0.828 1.281,2.531 z" /><path
         id="path356"
         style="fill:#000000;fill-opacity:1;fill-rule:nonzero;stroke:none"
         d="m 78.145,161.43 v -0.922 c -0.157,-0.031 -0.235,-0.031 -0.36,-0.031 -0.594,0 -1.031,0.343 -1.562,1.203 v -1.047 h -0.844 v 5.765 h 0.922 v -2.984 c 0,-1.312 0.422,-1.953 1.844,-1.984 z" /><path
         id="path358"
         style="fill:#000000;fill-opacity:1;fill-rule:nonzero;stroke:none"
         d="m 83.914,163.773 c 0,-0.828 -0.062,-1.359 -0.234,-1.781 -0.375,-0.953 -1.25,-1.515 -2.328,-1.515 -1.61,0 -2.641,1.187 -2.641,3.078 0,1.89 1,3.015 2.625,3.015 1.312,0 2.234,-0.75 2.453,-1.922 h -0.922 c -0.25,0.766 -0.765,1.063 -1.5,1.063 -0.953,0 -1.672,-0.609 -1.703,-1.938 z m -0.984,-0.812 c 0,0 0,0.047 0,0.078 h -3.235 c 0.078,-1.031 0.719,-1.719 1.641,-1.719 0.906,0 1.594,0.75 1.594,1.641 z" /><path
         id="path360"
         style="fill:#000000;fill-opacity:1;fill-rule:nonzero;stroke:none"
         d="m 85.141,158.383 h 0.906 v 8.016 h -0.906 z" /><path
         id="path362"
         style="fill:#000000;fill-opacity:1;fill-rule:nonzero;stroke:none"
         d="m 92.723,166.383 v -0.703 c -0.11,0.031 -0.157,0.031 -0.203,0.031 -0.313,0 -0.5,-0.172 -0.5,-0.453 v -3.219 c 0,-1.016 -0.75,-1.562 -2.157,-1.562 -1.406,0 -2.265,0.531 -2.312,1.859 h 0.922 c 0.078,-0.703 0.5,-1.016 1.343,-1.016 0.829,0 1.297,0.297 1.297,0.86 v 0.234 c 0,0.391 -0.234,0.547 -0.953,0.641 -1.297,0.172 -1.5,0.203 -1.859,0.359 -0.672,0.266 -1,0.781 -1,1.484 0,1.047 0.719,1.672 1.89,1.672 0.735,0 1.454,-0.312 1.954,-0.859 0.093,0.453 0.5,0.766 0.953,0.766 0.172,0 0.328,-0.016 0.625,-0.094 z m -1.61,-1.969 c 0,0.813 -0.843,1.344 -1.734,1.344 -0.703,0 -1.125,-0.25 -1.125,-0.875 0,-0.61 0.406,-0.875 1.391,-1.016 0.953,-0.125 1.156,-0.172 1.468,-0.312 z" /><path
         id="path364"
         style="fill:#000000;fill-opacity:1;fill-rule:nonzero;stroke:none"
         d="m 95.746,166.398 v -0.765 c -0.125,0.031 -0.266,0.047 -0.437,0.047 -0.407,0 -0.516,-0.125 -0.516,-0.532 v -3.765 h 0.953 v -0.75 h -0.953 v -1.578 h -0.906 v 1.578 h -0.782 v 0.75 h 0.782 v 4.172 c 0,0.593 0.39,0.922 1.109,0.922 0.219,0 0.438,-0.016 0.75,-0.079 z" /><path
         id="path366"
         style="fill:#000000;fill-opacity:1;fill-rule:nonzero;stroke:none"
         d="m 97.695,166.398 v -5.765 h -0.922 v 5.765 z m 0.11,-6.64 v -1.141 h -1.141 v 1.141 z" /><path
         id="path368"
         style="fill:#000000;fill-opacity:1;fill-rule:nonzero;stroke:none"
         d="m 103.793,160.633 h -1.031 l -1.625,4.672 -1.547,-4.672 h -1.031 l 2.031,5.765 h 1 z" /><path
         id="path370"
         style="fill:#000000;fill-opacity:1;fill-rule:nonzero;stroke:none"
         d="m 109.316,163.773 c 0,-0.828 -0.062,-1.359 -0.234,-1.781 -0.375,-0.953 -1.25,-1.515 -2.328,-1.515 -1.609,0 -2.641,1.187 -2.641,3.078 0,1.89 1,3.015 2.625,3.015 1.313,0 2.235,-0.75 2.453,-1.922 h -0.921 c -0.25,0.766 -0.766,1.063 -1.5,1.063 -0.954,0 -1.672,-0.609 -1.704,-1.938 z m -0.984,-0.812 c 0,0 0,0.047 0,0.078 h -3.234 c 0.078,-1.031 0.718,-1.719 1.64,-1.719 0.907,0 1.594,0.75 1.594,1.641 z" /><path
         id="path372"
         style="fill:#000000;fill-opacity:1;fill-rule:nonzero;stroke:none"
         d="m 118.598,163.57 c 0,-1.937 -0.938,-3.093 -2.469,-3.093 -0.781,0 -1.406,0.343 -1.844,1.031 v -0.875 h -0.828 v 8.156 h 0.906 v -3.078 c 0.485,0.594 1.032,0.859 1.766,0.859 1.5,0 2.469,-1.156 2.469,-3 z m -0.953,-0.015 c 0,1.297 -0.672,2.156 -1.672,2.156 -0.969,0 -1.61,-0.797 -1.61,-2.156 0,-1.344 0.641,-2.235 1.61,-2.235 1.015,0 1.672,0.86 1.672,2.235 z" /><path
         id="path374"
         style="fill:#000000;fill-opacity:1;fill-rule:nonzero;stroke:none"
         d="m 124.574,163.555 c 0,-1.985 -0.953,-3.078 -2.625,-3.078 -1.609,0 -2.594,1.109 -2.594,3.046 0,1.922 0.969,3.047 2.61,3.047 1.625,0 2.609,-1.125 2.609,-3.015 z m -0.953,0 c 0,1.343 -0.641,2.156 -1.656,2.156 -1.016,0 -1.641,-0.797 -1.641,-2.188 0,-1.39 0.625,-2.203 1.641,-2.203 1.031,0 1.656,0.797 1.656,2.235 z" /><path
         id="path376"
         style="fill:#000000;fill-opacity:1;fill-rule:nonzero;stroke:none"
         d="m 130.125,164.789 c 0,-0.859 -0.484,-1.297 -1.625,-1.562 l -0.875,-0.219 c -0.75,-0.172 -1.078,-0.422 -1.078,-0.828 0,-0.516 0.484,-0.86 1.219,-0.86 0.75,0 1.14,0.313 1.156,0.922 h 0.969 c 0,-1.14 -0.75,-1.765 -2.079,-1.765 -1.343,0 -2.218,0.687 -2.218,1.75 0,0.906 0.468,1.328 1.828,1.656 l 0.859,0.219 c 0.641,0.156 0.891,0.343 0.891,0.75 0,0.546 -0.547,0.859 -1.344,0.859 -0.828,0 -1.281,-0.188 -1.406,-1.078 h -0.969 c 0.047,1.344 0.797,1.937 2.297,1.937 1.453,0 2.375,-0.672 2.375,-1.781 z" /><path
         id="path378"
         style="fill:#000000;fill-opacity:1;fill-rule:nonzero;stroke:none"
         d="m 132.266,166.398 v -5.765 h -0.922 v 5.765 z m 0.109,-6.64 v -1.141 h -1.141 v 1.141 z" /><path
         id="path380"
         style="fill:#000000;fill-opacity:1;fill-rule:nonzero;stroke:none"
         d="m 135.82,166.398 v -0.765 c -0.125,0.031 -0.265,0.047 -0.437,0.047 -0.406,0 -0.516,-0.125 -0.516,-0.532 v -3.765 h 0.953 v -0.75 h -0.953 v -1.578 h -0.906 v 1.578 h -0.781 v 0.75 h 0.781 v 4.172 c 0,0.593 0.391,0.922 1.109,0.922 0.219,0 0.438,-0.016 0.75,-0.079 z" /><path
         id="path382"
         style="fill:#000000;fill-opacity:1;fill-rule:nonzero;stroke:none"
         d="m 137.766,166.398 v -5.765 h -0.922 v 5.765 z m 0.109,-6.64 v -1.141 h -1.141 v 1.141 z" /><path
         id="path384"
         style="fill:#000000;fill-opacity:1;fill-rule:nonzero;stroke:none"
         d="m 144.133,163.555 c 0,-1.985 -0.953,-3.078 -2.625,-3.078 -1.61,0 -2.594,1.109 -2.594,3.046 0,1.922 0.969,3.047 2.609,3.047 1.625,0 2.61,-1.125 2.61,-3.015 z m -0.953,0 c 0,1.343 -0.641,2.156 -1.657,2.156 -1.015,0 -1.64,-0.797 -1.64,-2.188 0,-1.39 0.625,-2.203 1.64,-2.203 1.032,0 1.657,0.797 1.657,2.235 z" /><path
         id="path386"
         style="fill:#000000;fill-opacity:1;fill-rule:nonzero;stroke:none"
         d="m 149.996,166.398 v -4.359 c 0,-0.953 -0.719,-1.562 -1.828,-1.562 -0.859,0 -1.406,0.328 -1.922,1.125 v -0.969 h -0.844 v 5.765 h 0.922 v -3.171 c 0,-1.188 0.641,-1.954 1.563,-1.954 0.734,0 1.187,0.438 1.187,1.125 v 4 z" /><path
         id="path388"
         style="fill:#000000;fill-opacity:1;fill-rule:nonzero;stroke:none"
         d="m 159.422,163.555 c 0,-1.985 -0.953,-3.078 -2.625,-3.078 -1.609,0 -2.594,1.109 -2.594,3.046 0,1.922 0.969,3.047 2.609,3.047 1.626,0 2.61,-1.125 2.61,-3.015 z m -0.953,0 c 0,1.343 -0.641,2.156 -1.657,2.156 -1.015,0 -1.64,-0.797 -1.64,-2.188 0,-1.39 0.625,-2.203 1.64,-2.203 1.032,0 1.657,0.797 1.657,2.235 z" /><path
         id="path390"
         style="fill:#000000;fill-opacity:1;fill-rule:nonzero;stroke:none"
         d="m 162.773,161.383 v -0.75 h -0.968 v -0.906 c 0,-0.375 0.218,-0.579 0.64,-0.579 0.078,0 0.11,0 0.328,0.016 v -0.766 c -0.218,-0.046 -0.328,-0.046 -0.515,-0.046 -0.86,0 -1.36,0.484 -1.36,1.296 v 0.985 h -0.765 v 0.75 h 0.765 v 5.015 h 0.907 v -5.015 z" /><path
         id="path392"
         style="fill:#000000;fill-opacity:1;fill-rule:nonzero;stroke:none"
         d="m 171.793,163.57 c 0,-1.937 -0.938,-3.093 -2.469,-3.093 -0.781,0 -1.406,0.343 -1.844,1.031 v -0.875 h -0.828 v 8.156 h 0.907 v -3.078 c 0.484,0.594 1.031,0.859 1.765,0.859 1.5,0 2.469,-1.156 2.469,-3 z m -0.953,-0.015 c 0,1.297 -0.672,2.156 -1.672,2.156 -0.969,0 -1.609,-0.797 -1.609,-2.156 0,-1.344 0.64,-2.235 1.609,-2.235 1.016,0 1.672,0.86 1.672,2.235 z" /><path
         id="path394"
         style="fill:#000000;fill-opacity:1;fill-rule:nonzero;stroke:none"
         d="m 177.77,163.555 c 0,-1.985 -0.954,-3.078 -2.625,-3.078 -1.61,0 -2.594,1.109 -2.594,3.046 0,1.922 0.969,3.047 2.609,3.047 1.625,0 2.61,-1.125 2.61,-3.015 z m -0.954,0 c 0,1.343 -0.64,2.156 -1.656,2.156 -1.015,0 -1.64,-0.797 -1.64,-2.188 0,-1.39 0.625,-2.203 1.64,-2.203 1.031,0 1.656,0.797 1.656,2.235 z" /><path
         id="path396"
         style="fill:#000000;fill-opacity:1;fill-rule:nonzero;stroke:none"
         d="m 184.027,163.57 c 0,-1.937 -0.937,-3.093 -2.468,-3.093 -0.782,0 -1.407,0.343 -1.844,1.031 v -0.875 h -0.828 v 8.156 h 0.906 v -3.078 c 0.484,0.594 1.031,0.859 1.766,0.859 1.5,0 2.468,-1.156 2.468,-3 z m -0.953,-0.015 c 0,1.297 -0.672,2.156 -1.672,2.156 -0.968,0 -1.609,-0.797 -1.609,-2.156 0,-1.344 0.641,-2.235 1.609,-2.235 1.016,0 1.672,0.86 1.672,2.235 z" /><path
         id="path398"
         style="fill:#000000;fill-opacity:1;fill-rule:nonzero;stroke:none"
         d="m 189.688,166.398 v -5.765 h -0.907 v 3.187 c 0,1.172 -0.625,1.938 -1.578,1.938 -0.719,0 -1.187,-0.438 -1.187,-1.125 v -4 h -0.907 v 4.359 c 0,0.953 0.719,1.578 1.829,1.578 0.859,0 1.39,-0.297 1.937,-1.062 v 0.89 z" /><path
         id="path400"
         style="fill:#000000;fill-opacity:1;fill-rule:nonzero;stroke:none"
         d="m 191.258,158.383 h 0.906 v 8.016 h -0.906 z" /><path
         id="path402"
         style="fill:#000000;fill-opacity:1;fill-rule:nonzero;stroke:none"
         d="m 198.84,166.383 v -0.703 c -0.11,0.031 -0.156,0.031 -0.203,0.031 -0.313,0 -0.5,-0.172 -0.5,-0.453 v -3.219 c 0,-1.016 -0.75,-1.562 -2.157,-1.562 -1.406,0 -2.265,0.531 -2.312,1.859 h 0.922 c 0.078,-0.703 0.5,-1.016 1.344,-1.016 0.828,0 1.296,0.297 1.296,0.86 v 0.234 c 0,0.391 -0.234,0.547 -0.953,0.641 -1.297,0.172 -1.5,0.203 -1.859,0.359 -0.672,0.266 -1,0.781 -1,1.484 0,1.047 0.719,1.672 1.891,1.672 0.734,0 1.453,-0.312 1.953,-0.859 0.093,0.453 0.5,0.766 0.953,0.766 0.172,0 0.328,-0.016 0.625,-0.094 z m -1.61,-1.969 c 0,0.813 -0.843,1.344 -1.734,1.344 -0.703,0 -1.125,-0.25 -1.125,-0.875 0,-0.61 0.406,-0.875 1.391,-1.016 0.953,-0.125 1.156,-0.172 1.468,-0.312 z" /><path
         id="path404"
         style="fill:#000000;fill-opacity:1;fill-rule:nonzero;stroke:none"
         d="m 202.598,161.43 v -0.922 c -0.157,-0.031 -0.235,-0.031 -0.36,-0.031 -0.593,0 -1.031,0.343 -1.562,1.203 v -1.047 h -0.844 v 5.765 h 0.922 v -2.984 c 0,-1.312 0.422,-1.953 1.844,-1.984 z" /><path
         id="path406"
         style="fill:#000000;fill-opacity:1;fill-rule:nonzero;stroke:none"
         d="m 211.129,160.633 h -1.031 l -1.625,4.672 -1.547,-4.672 h -1.031 l 2.031,5.765 h 1 z" /><path
         id="path408"
         style="fill:#000000;fill-opacity:1;fill-rule:nonzero;stroke:none"
         d="m 216.652,163.773 c 0,-0.828 -0.062,-1.359 -0.234,-1.781 -0.375,-0.953 -1.25,-1.515 -2.328,-1.515 -1.61,0 -2.641,1.187 -2.641,3.078 0,1.89 1,3.015 2.625,3.015 1.313,0 2.235,-0.75 2.453,-1.922 h -0.922 c -0.25,0.766 -0.765,1.063 -1.5,1.063 -0.953,0 -1.671,-0.609 -1.703,-1.938 z m -0.984,-0.812 c 0,0 0,0.047 0,0.078 h -3.234 c 0.078,-1.031 0.718,-1.719 1.64,-1.719 0.906,0 1.594,0.75 1.594,1.641 z" /><path
         id="path410"
         style="fill:#000000;fill-opacity:1;fill-rule:nonzero;stroke:none"
         d="m 220.66,161.43 v -0.922 c -0.156,-0.031 -0.234,-0.031 -0.359,-0.031 -0.594,0 -1.031,0.343 -1.563,1.203 v -1.047 h -0.843 v 5.765 h 0.921 v -2.984 c 0,-1.312 0.422,-1.953 1.844,-1.984 z" /><path
         id="path412"
         style="fill:#000000;fill-opacity:1;fill-rule:nonzero;stroke:none"
         d="m 225.836,164.789 c 0,-0.859 -0.484,-1.297 -1.625,-1.562 l -0.875,-0.219 c -0.75,-0.172 -1.078,-0.422 -1.078,-0.828 0,-0.516 0.484,-0.86 1.219,-0.86 0.75,0 1.14,0.313 1.156,0.922 h 0.969 c 0,-1.14 -0.75,-1.765 -2.079,-1.765 -1.343,0 -2.218,0.687 -2.218,1.75 0,0.906 0.468,1.328 1.828,1.656 l 0.859,0.219 c 0.641,0.156 0.891,0.343 0.891,0.75 0,0.546 -0.547,0.859 -1.344,0.859 -0.828,0 -1.281,-0.188 -1.406,-1.078 h -0.969 c 0.047,1.344 0.797,1.937 2.297,1.937 1.453,0 2.375,-0.672 2.375,-1.781 z" /><path
         id="path414"
         style="fill:#000000;fill-opacity:1;fill-rule:nonzero;stroke:none"
         d="m 227.977,166.398 v -5.765 h -0.922 v 5.765 z m 0.109,-6.64 v -1.141 h -1.141 v 1.141 z" /><path
         id="path416"
         style="fill:#000000;fill-opacity:1;fill-rule:nonzero;stroke:none"
         d="m 234.344,163.555 c 0,-1.985 -0.953,-3.078 -2.625,-3.078 -1.61,0 -2.594,1.109 -2.594,3.046 0,1.922 0.969,3.047 2.609,3.047 1.625,0 2.61,-1.125 2.61,-3.015 z m -0.953,0 c 0,1.343 -0.641,2.156 -1.657,2.156 -1.015,0 -1.64,-0.797 -1.64,-2.188 0,-1.39 0.625,-2.203 1.64,-2.203 1.032,0 1.657,0.797 1.657,2.235 z" /><path
         id="path418"
         style="fill:#000000;fill-opacity:1;fill-rule:nonzero;stroke:none"
         d="m 240.207,166.398 v -4.359 c 0,-0.953 -0.719,-1.562 -1.828,-1.562 -0.859,0 -1.406,0.328 -1.922,1.125 v -0.969 h -0.844 v 5.765 h 0.922 v -3.171 c 0,-1.188 0.641,-1.954 1.563,-1.954 0.734,0 1.187,0.438 1.187,1.125 v 4 z" /><path
         id="path420"
         style="fill:#000000;fill-opacity:1;fill-rule:nonzero;stroke:none"
         d="m 246.012,164.789 c 0,-0.859 -0.485,-1.297 -1.625,-1.562 l -0.875,-0.219 c -0.75,-0.172 -1.078,-0.422 -1.078,-0.828 0,-0.516 0.484,-0.86 1.218,-0.86 0.75,0 1.141,0.313 1.157,0.922 h 0.968 c 0,-1.14 -0.75,-1.765 -2.078,-1.765 -1.344,0 -2.219,0.687 -2.219,1.75 0,0.906 0.469,1.328 1.829,1.656 l 0.859,0.219 c 0.641,0.156 0.891,0.343 0.891,0.75 0,0.546 -0.547,0.859 -1.344,0.859 -0.828,0 -1.281,-0.188 -1.406,-1.078 h -0.969 c 0.047,1.344 0.797,1.937 2.297,1.937 1.453,0 2.375,-0.672 2.375,-1.781 z" /><path
         id="path422"
         style="fill:#000000;fill-opacity:1;fill-rule:nonzero;stroke:none"
         d="m 5.223,119.551 c -1.938,0 -3.094,0.937 -3.094,2.469 0,0.781 0.344,1.406 1.031,1.843 H 2.285 v 0.828 h 8.156 v -0.906 H 7.363 c 0.594,-0.484 0.86,-1.031 0.86,-1.765 0,-1.5 -1.157,-2.469 -3,-2.469 z m -0.016,0.953 c 1.297,0 2.156,0.672 2.156,1.672 0,0.969 -0.797,1.609 -2.156,1.609 -1.344,0 -2.234,-0.64 -2.234,-1.609 0,-1.016 0.859,-1.672 2.234,-1.672 z" /><path
         id="path424"
         style="fill:#000000;fill-opacity:1;fill-rule:nonzero;stroke:none"
         d="m 5.426,113.543 c -0.828,0 -1.36,0.062 -1.781,0.234 -0.954,0.375 -1.516,1.25 -1.516,2.328 0,1.61 1.187,2.641 3.078,2.641 1.891,0 3.016,-1 3.016,-2.625 0,-1.312 -0.75,-2.234 -1.922,-2.453 v 0.922 c 0.765,0.25 1.062,0.765 1.062,1.5 0,0.953 -0.609,1.672 -1.937,1.703 z m -0.813,0.984 c 0,0 0.047,0 0.078,0 v 3.235 c -1.031,-0.078 -1.718,-0.719 -1.718,-1.641 0,-0.906 0.75,-1.594 1.64,-1.594 z" /><path
         id="path426"
         style="fill:#000000;fill-opacity:1;fill-rule:nonzero;stroke:none"
         d="M 3.082,109.535 H 2.16 c -0.031,0.156 -0.031,0.235 -0.031,0.36 0,0.593 0.344,1.031 1.203,1.562 H 2.285 v 0.844 h 5.766 v -0.922 H 5.066 c -1.312,0 -1.953,-0.422 -1.984,-1.844 z" /><path
         id="path428"
         style="fill:#000000;fill-opacity:1;fill-rule:nonzero;stroke:none"
         d="m 6.066,104.156 v 0.922 c 0.922,0.156 1.297,0.625 1.297,1.406 0,1.016 -0.781,1.625 -2.14,1.625 -1.438,0 -2.25,-0.593 -2.25,-1.593 0,-0.766 0.453,-1.25 1.25,-1.36 v -0.937 c -1.407,0.109 -2.094,1 -2.094,2.281 0,1.547 1.187,2.562 3.094,2.562 1.859,0 3,-0.984 3,-2.546 0,-1.375 -0.828,-2.25 -2.157,-2.36 z" /><path
         id="path430"
         style="fill:#000000;fill-opacity:1;fill-rule:nonzero;stroke:none"
         d="m 5.426,98.266 c -0.828,0 -1.36,0.062 -1.781,0.234 -0.954,0.375 -1.516,1.25 -1.516,2.328 0,1.61 1.187,2.641 3.078,2.641 1.891,0 3.016,-1 3.016,-2.625 0,-1.313 -0.75,-2.235 -1.922,-2.453 v 0.921 c 0.765,0.25 1.062,0.766 1.062,1.5 0,0.954 -0.609,1.672 -1.937,1.704 z M 4.613,99.25 c 0,0 0.047,0 0.078,0 v 3.234 c -1.031,-0.078 -1.718,-0.718 -1.718,-1.64 0,-0.906 0.75,-1.594 1.64,-1.594 z" /><path
         id="path432"
         style="fill:#000000;fill-opacity:1;fill-rule:nonzero;stroke:none"
         d="m 8.051,92.43 h -4.36 c -0.953,0 -1.562,0.718 -1.562,1.828 0,0.859 0.328,1.406 1.125,1.922 H 2.285 v 0.843 H 8.051 V 96.102 H 4.879 c -1.188,0 -1.953,-0.641 -1.953,-1.563 0,-0.734 0.437,-1.187 1.125,-1.187 h 4 z" /><path
         id="path434"
         style="fill:#000000;fill-opacity:1;fill-rule:nonzero;stroke:none"
         d="M 8.051,88.875 H 7.285 c 0.031,0.125 0.047,0.266 0.047,0.437 0,0.407 -0.125,0.516 -0.531,0.516 H 3.035 v -0.953 h -0.75 v 0.953 H 0.707 v 0.906 h 1.578 v 0.782 h 0.75 v -0.782 h 4.172 c 0.594,0 0.922,-0.39 0.922,-1.109 0,-0.219 -0.016,-0.437 -0.078,-0.75 z" /><path
         id="path436"
         style="fill:#000000;fill-opacity:1;fill-rule:nonzero;stroke:none"
         d="M 8.035,82.723 H 7.332 c 0.031,0.109 0.031,0.156 0.031,0.203 0,0.312 -0.172,0.5 -0.453,0.5 H 3.691 c -1.015,0 -1.562,0.75 -1.562,2.156 0,1.406 0.531,2.266 1.859,2.313 v -0.922 c -0.703,-0.078 -1.015,-0.5 -1.015,-1.344 0,-0.828 0.297,-1.297 0.859,-1.297 h 0.234 c 0.391,0 0.547,0.234 0.641,0.953 0.172,1.297 0.203,1.5 0.359,1.86 0.266,0.671 0.782,1 1.485,1 1.047,0 1.672,-0.719 1.672,-1.891 0,-0.734 -0.313,-1.453 -0.86,-1.953 0.453,-0.094 0.766,-0.5 0.766,-0.953 0,-0.172 -0.016,-0.328 -0.094,-0.625 z m -1.969,1.609 c 0.813,0 1.344,0.844 1.344,1.734 0,0.704 -0.25,1.125 -0.875,1.125 -0.609,0 -0.875,-0.406 -1.015,-1.39 C 5.395,84.848 5.348,84.645 5.207,84.332 Z" /><path
         id="path438"
         style="fill:#000000;fill-opacity:1;fill-rule:nonzero;stroke:none"
         d="M 7.098,77.125 H 2.285 v 0.844 h 0.844 c -0.688,0.469 -1,1.015 -1,1.765 0,1.454 1.219,2.454 3.094,2.454 1.812,0 3,-1.032 3,-2.376 0,-0.734 -0.313,-1.234 -1.047,-1.843 h 0.39 c 1.532,0 2.11,0.625 2.11,1.687 0,0.735 -0.266,1.297 -0.969,1.406 V 82 c 1.094,-0.109 1.734,-0.953 1.734,-2.312 0,-1.797 -0.796,-2.563 -3.343,-2.563 z m -1.891,0.937 c 1.375,0 2.156,0.594 2.156,1.563 0,1 -0.797,1.594 -2.187,1.594 -1.391,0 -2.203,-0.61 -2.203,-1.594 0,-0.984 0.828,-1.563 2.234,-1.563 z" /><path
         id="path440"
         style="fill:#000000;fill-opacity:1;fill-rule:nonzero;stroke:none"
         d="m 5.426,70.742 c -0.828,0 -1.36,0.063 -1.781,0.235 -0.954,0.375 -1.516,1.25 -1.516,2.328 0,1.609 1.187,2.64 3.078,2.64 1.891,0 3.016,-1 3.016,-2.625 0,-1.312 -0.75,-2.234 -1.922,-2.453 v 0.922 c 0.765,0.25 1.062,0.766 1.062,1.5 0,0.953 -0.609,1.672 -1.937,1.703 z m -0.813,0.985 c 0,0 0.047,0 0.078,0 v 3.234 C 3.66,74.883 2.973,74.242 2.973,73.32 c 0,-0.906 0.75,-1.593 1.64,-1.593 z" /><path
         id="path442"
         style="fill:#000000;fill-opacity:1;fill-rule:nonzero;stroke:none"
         d="m 5.207,61.602 c -1.984,0 -3.078,0.953 -3.078,2.625 0,1.609 1.109,2.593 3.047,2.593 1.922,0 3.047,-0.968 3.047,-2.609 0,-1.625 -1.125,-2.609 -3.016,-2.609 z m 0,0.953 c 1.344,0 2.156,0.64 2.156,1.656 0,1.016 -0.797,1.641 -2.187,1.641 -1.391,0 -2.203,-0.625 -2.203,-1.641 0,-1.031 0.797,-1.656 2.234,-1.656 z" /><path
         id="path444"
         style="fill:#000000;fill-opacity:1;fill-rule:nonzero;stroke:none"
         d="m 3.035,58.25 h -0.75 v 0.969 H 1.379 c -0.375,0 -0.578,-0.219 -0.578,-0.641 0,-0.078 0,-0.109 0.015,-0.328 H 0.051 c -0.047,0.219 -0.047,0.328 -0.047,0.516 0,0.859 0.484,1.359 1.297,1.359 h 0.984 v 0.766 h 0.75 V 60.125 H 8.051 V 59.219 H 3.035 Z" /><path
         id="path446"
         style="fill:#000000;fill-opacity:1;fill-rule:nonzero;stroke:none"
         d="m 0.035,53.32 h 8.016 v 0.906 H 0.035 Z" /><path
         id="path448"
         style="fill:#000000;fill-opacity:1;fill-rule:nonzero;stroke:none"
         d="M 8.051,50.848 H 2.285 V 51.77 H 8.051 Z M 1.41,50.738 H 0.27 v 1.141 h 1.14 z" /><path
         id="path450"
         style="fill:#000000;fill-opacity:1;fill-rule:nonzero;stroke:none"
         d="m 5.098,44.344 c -1.86,0 -2.969,0.937 -2.969,2.468 0,0.782 0.297,1.344 0.937,1.782 H 0.035 V 49.5 H 8.051 V 48.672 H 7.223 c 0.672,-0.438 1,-1.016 1,-1.828 0,-1.516 -1.25,-2.5 -3.125,-2.5 z m 0.062,0.953 c 1.313,0 2.203,0.687 2.203,1.687 0,0.969 -0.89,1.61 -2.187,1.61 -1.36,0 -2.235,-0.641 -2.203,-1.61 0,-1.031 0.89,-1.687 2.187,-1.687 z" /><path
         id="path452"
         style="fill:#000000;fill-opacity:1;fill-rule:nonzero;stroke:none"
         d="M 3.082,40.445 H 2.16 c -0.031,0.157 -0.031,0.235 -0.031,0.36 0,0.593 0.344,1.031 1.203,1.562 H 2.285 v 0.844 H 8.051 V 42.289 H 5.066 c -1.312,0 -1.953,-0.422 -1.984,-1.844 z" /><path
         id="path454"
         style="fill:#000000;fill-opacity:1;fill-rule:nonzero;stroke:none"
         d="M 8.035,34.535 H 7.332 c 0.031,0.11 0.031,0.156 0.031,0.203 0,0.313 -0.172,0.5 -0.453,0.5 H 3.691 c -1.015,0 -1.562,0.75 -1.562,2.157 0,1.406 0.531,2.265 1.859,2.312 v -0.922 c -0.703,-0.078 -1.015,-0.5 -1.015,-1.344 0,-0.828 0.297,-1.296 0.859,-1.296 h 0.234 c 0.391,0 0.547,0.234 0.641,0.953 0.172,1.297 0.203,1.5 0.359,1.859 0.266,0.672 0.782,1 1.485,1 1.047,0 1.672,-0.719 1.672,-1.891 0,-0.734 -0.313,-1.453 -0.86,-1.953 0.453,-0.093 0.766,-0.5 0.766,-0.953 0,-0.172 -0.016,-0.328 -0.094,-0.625 z m -1.969,1.61 c 0.813,0 1.344,0.843 1.344,1.734 0,0.703 -0.25,1.125 -0.875,1.125 C 5.926,39.004 5.66,38.598 5.52,37.613 5.395,36.66 5.348,36.457 5.207,36.145 Z" /><path
         id="path456"
         style="fill:#000000;fill-opacity:1;fill-rule:nonzero;stroke:none"
         d="M 3.082,30.777 H 2.16 c -0.031,0.157 -0.031,0.235 -0.031,0.36 0,0.593 0.344,1.031 1.203,1.562 H 2.285 v 0.844 H 8.051 V 32.621 H 5.066 c -1.312,0 -1.953,-0.422 -1.984,-1.844 z" /><path
         id="path458"
         style="fill:#000000;fill-opacity:1;fill-rule:nonzero;stroke:none"
         d="M 8.051,28.793 H 2.285 v 0.922 H 8.051 Z M 1.41,28.684 H 0.27 v 1.14 h 1.14 z" /><path
         id="path460"
         style="fill:#000000;fill-opacity:1;fill-rule:nonzero;stroke:none"
         d="m 5.426,22.398 c -0.828,0 -1.36,0.063 -1.781,0.235 -0.954,0.375 -1.516,1.25 -1.516,2.328 0,1.609 1.187,2.641 3.078,2.641 1.891,0 3.016,-1 3.016,-2.625 0,-1.313 -0.75,-2.235 -1.922,-2.454 v 0.922 c 0.765,0.25 1.062,0.766 1.062,1.5 0,0.953 -0.609,1.672 -1.937,1.703 z m -0.813,0.985 c 0,0 0.047,0 0.078,0 v 3.234 C 3.66,26.539 2.973,25.898 2.973,24.977 c 0,-0.907 0.75,-1.594 1.64,-1.594 z" /><path
         id="path462"
         style="fill:#000000;fill-opacity:1;fill-rule:nonzero;stroke:none"
         d="m 6.441,16.875 c -0.859,0 -1.296,0.484 -1.562,1.625 L 4.66,19.375 c -0.172,0.75 -0.422,1.078 -0.828,1.078 -0.516,0 -0.859,-0.484 -0.859,-1.219 0,-0.75 0.312,-1.14 0.922,-1.156 v -0.969 c -1.141,0 -1.766,0.75 -1.766,2.079 0,1.343 0.687,2.218 1.75,2.218 0.906,0 1.328,-0.468 1.656,-1.828 l 0.219,-0.859 c 0.156,-0.641 0.344,-0.891 0.75,-0.891 0.547,0 0.859,0.547 0.859,1.344 0,0.828 -0.187,1.281 -1.078,1.406 v 0.969 C 7.629,21.5 8.223,20.75 8.223,19.25 c 0,-1.453 -0.672,-2.375 -1.782,-2.375 z" /></g></g></svg>