<?xml version="1.0" encoding="UTF-8" standalone="no"?>
<!-- Created with Inkscape (http://www.inkscape.org/) -->

<svg
   xmlns:dc="http://purl.org/dc/elements/1.1/"
   xmlns:cc="http://creativecommons.org/ns#"
   xmlns:rdf="http://www.w3.org/1999/02/22-rdf-syntax-ns#"
   xmlns:svg="http://www.w3.org/2000/svg"
   xmlns="http://www.w3.org/2000/svg"
   xmlns:sodipodi="http://sodipodi.sourceforge.net/DTD/sodipodi-0.dtd"
   xmlns:inkscape="http://www.inkscape.org/namespaces/inkscape"
   version="1.1"
   id="svg2"
   xml:space="preserve"
   width="383.3768"
   height="225.064"
   viewBox="0 0 383.3768 225.064"
   sodipodi:docname="popularity_vs_percentage_of_active_versions.svg"
   inkscape:version="0.92.3 (2405546, 2018-03-11)"><metadata
     id="metadata8"><rdf:RDF><cc:Work
         rdf:about=""><dc:format>image/svg+xml</dc:format><dc:type
           rdf:resource="http://purl.org/dc/dcmitype/StillImage" /><dc:title></dc:title></cc:Work></rdf:RDF></metadata><defs
     id="defs6"><clipPath
       clipPathUnits="userSpaceOnUse"
       id="clipPath20"><path
         d="M 33.703,168.798 H 287.531 V 27.068 H 33.703 Z"
         id="path18"
         inkscape:connector-curvature="0" /></clipPath><clipPath
       clipPathUnits="userSpaceOnUse"
       id="clipPath30"><path
         d="M 33,26 H 288 V 169 H 33 Z"
         id="path28"
         inkscape:connector-curvature="0" /></clipPath></defs><sodipodi:namedview
     pagecolor="#ffffff"
     bordercolor="#666666"
     borderopacity="1"
     objecttolerance="10"
     gridtolerance="10"
     guidetolerance="10"
     inkscape:pageopacity="0"
     inkscape:pageshadow="2"
     inkscape:window-width="696"
     inkscape:window-height="480"
     id="namedview4"
     showgrid="false"
     inkscape:zoom="1.0485906"
     inkscape:cx="75.341759"
     inkscape:cy="112.532"
     inkscape:window-x="0"
     inkscape:window-y="27"
     inkscape:window-maximized="0"
     inkscape:current-layer="g10" /><g
     id="g10"
     inkscape:groupmode="layer"
     inkscape:label="popularity_vs_percentage_of_active_versions"
     transform="matrix(1.3333333,0,0,-1.3333333,0,225.06399)"><g
       id="g12" /><g
       id="g14"><g
         id="g16"
         clip-path="url(#clipPath20)"><g
           id="g22"
           transform="translate(0,-0.202011)"><g
             id="g24"><g
               id="g26"
               clip-path="url(#clipPath30)"><g
                 id="g32"><path
                   d="M 33.703,169 H 287.531 V 27.27 H 33.703 Z"
                   style="fill:#ffffff;fill-opacity:1;fill-rule:nonzero;stroke:none"
                   id="path34"
                   inkscape:connector-curvature="0" /><g
                   id="g36"
                   transform="translate(0,169)"><path
                     d="M 33.703,-111.77 H 287.531"
                     style="fill:none;stroke:#ebebeb;stroke-width:0.52999997;stroke-linecap:butt;stroke-linejoin:round;stroke-miterlimit:10;stroke-dasharray:none;stroke-opacity:1"
                     id="path38"
                     inkscape:connector-curvature="0" /></g><g
                   id="g40"
                   transform="translate(0,169)"><path
                     d="M 33.703,-63.148 H 287.531"
                     style="fill:none;stroke:#ebebeb;stroke-width:0.52999997;stroke-linecap:butt;stroke-linejoin:round;stroke-miterlimit:10;stroke-dasharray:none;stroke-opacity:1"
                     id="path42"
                     inkscape:connector-curvature="0" /></g><g
                   id="g44"
                   transform="translate(0,169)"><path
                     d="M 33.703,-14.531 H 287.531"
                     style="fill:none;stroke:#ebebeb;stroke-width:0.52999997;stroke-linecap:butt;stroke-linejoin:round;stroke-miterlimit:10;stroke-dasharray:none;stroke-opacity:1"
                     id="path46"
                     inkscape:connector-curvature="0" /></g><g
                   id="g48"
                   transform="translate(0,169)"><path
                     d="M 73.062,-141.73 V 0"
                     style="fill:none;stroke:#ebebeb;stroke-width:0.52999997;stroke-linecap:butt;stroke-linejoin:round;stroke-miterlimit:10;stroke-dasharray:none;stroke-opacity:1"
                     id="path50"
                     inkscape:connector-curvature="0" /></g><g
                   id="g52"
                   transform="translate(0,169)"><path
                     d="M 131.043,-141.73 V 0"
                     style="fill:none;stroke:#ebebeb;stroke-width:0.52999997;stroke-linecap:butt;stroke-linejoin:round;stroke-miterlimit:10;stroke-dasharray:none;stroke-opacity:1"
                     id="path54"
                     inkscape:connector-curvature="0" /></g><g
                   id="g56"
                   transform="translate(0,169)"><path
                     d="M 189.023,-141.73 V 0"
                     style="fill:none;stroke:#ebebeb;stroke-width:0.52999997;stroke-linecap:butt;stroke-linejoin:round;stroke-miterlimit:10;stroke-dasharray:none;stroke-opacity:1"
                     id="path58"
                     inkscape:connector-curvature="0" /></g><g
                   id="g60"
                   transform="translate(0,169)"><path
                     d="M 247.004,-141.73 V 0"
                     style="fill:none;stroke:#ebebeb;stroke-width:0.52999997;stroke-linecap:butt;stroke-linejoin:round;stroke-miterlimit:10;stroke-dasharray:none;stroke-opacity:1"
                     id="path62"
                     inkscape:connector-curvature="0" /></g><g
                   id="g64"
                   transform="translate(0,169)"><path
                     d="M 33.703,-136.078 H 287.531"
                     style="fill:none;stroke:#ebebeb;stroke-width:1.07000005;stroke-linecap:butt;stroke-linejoin:round;stroke-miterlimit:10;stroke-dasharray:none;stroke-opacity:1"
                     id="path66"
                     inkscape:connector-curvature="0" /></g><g
                   id="g68"
                   transform="translate(0,169)"><path
                     d="M 33.703,-87.461 H 287.531"
                     style="fill:none;stroke:#ebebeb;stroke-width:1.07000005;stroke-linecap:butt;stroke-linejoin:round;stroke-miterlimit:10;stroke-dasharray:none;stroke-opacity:1"
                     id="path70"
                     inkscape:connector-curvature="0" /></g><g
                   id="g72"
                   transform="translate(0,169)"><path
                     d="M 33.703,-38.84 H 287.531"
                     style="fill:none;stroke:#ebebeb;stroke-width:1.07000005;stroke-linecap:butt;stroke-linejoin:round;stroke-miterlimit:10;stroke-dasharray:none;stroke-opacity:1"
                     id="path74"
                     inkscape:connector-curvature="0" /></g><g
                   id="g76"
                   transform="translate(0,169)"><path
                     d="M 44.074,-141.73 V 0"
                     style="fill:none;stroke:#ebebeb;stroke-width:1.07000005;stroke-linecap:butt;stroke-linejoin:round;stroke-miterlimit:10;stroke-dasharray:none;stroke-opacity:1"
                     id="path78"
                     inkscape:connector-curvature="0" /></g><g
                   id="g80"
                   transform="translate(0,169)"><path
                     d="M 102.051,-141.73 V 0"
                     style="fill:none;stroke:#ebebeb;stroke-width:1.07000005;stroke-linecap:butt;stroke-linejoin:round;stroke-miterlimit:10;stroke-dasharray:none;stroke-opacity:1"
                     id="path82"
                     inkscape:connector-curvature="0" /></g><g
                   id="g84"
                   transform="translate(0,169)"><path
                     d="M 160.031,-141.73 V 0"
                     style="fill:none;stroke:#ebebeb;stroke-width:1.07000005;stroke-linecap:butt;stroke-linejoin:round;stroke-miterlimit:10;stroke-dasharray:none;stroke-opacity:1"
                     id="path86"
                     inkscape:connector-curvature="0" /></g><g
                   id="g88"
                   transform="translate(0,169)"><path
                     d="M 218.012,-141.73 V 0"
                     style="fill:none;stroke:#ebebeb;stroke-width:1.07000005;stroke-linecap:butt;stroke-linejoin:round;stroke-miterlimit:10;stroke-dasharray:none;stroke-opacity:1"
                     id="path90"
                     inkscape:connector-curvature="0" /></g><g
                   id="g92"
                   transform="translate(0,169)"><path
                     d="M 275.992,-141.73 V 0"
                     style="fill:none;stroke:#ebebeb;stroke-width:1.07000005;stroke-linecap:butt;stroke-linejoin:round;stroke-miterlimit:10;stroke-dasharray:none;stroke-opacity:1"
                     id="path94"
                     inkscape:connector-curvature="0" /></g><path
                   d="m 45.242,48.988 2.922,-2.09 2.918,-1.168 2.922,-0.511 2.918,0.019 2.922,0.172 2.929,-0.012 2.918,0.082 2.922,0.258 2.918,0.16 2.922,-0.078 2.918,-0.101 2.922,0.082 2.918,0.25 2.922,0.199 2.918,0.031 2.933,-0.043 2.918,0.071 2.922,0.339 2.918,0.704 2.922,0.976 2.918,1.152 2.922,1.231 2.918,1.258 2.922,1.312 2.918,1.391 2.922,1.457 2.929,1.492 2.918,1.41 2.922,1.188 2.918,0.82 2.922,0.289 2.918,-0.187 2.922,-0.551 2.918,-0.781 2.922,-0.86 2.922,-0.789 2.917,-0.57 2.93,-0.25 2.922,0.148 2.918,0.602 2.922,1.07 2.918,1.559 2.922,2.09 2.918,2.632 2.922,3.11 2.918,3.558 2.921,3.93 2.918,4.289 2.93,4.594 2.922,4.859 2.918,5.09 2.922,5.238 2.918,5.352 2.922,5.348 2.922,5.25 2.917,5.062 2.922,4.731 2.918,4.328 2.922,3.91 2.93,3.5 2.918,3.101 2.922,2.739 2.918,2.39 2.922,2.071 2.918,1.781 2.921,1.519 2.918,1.289 2.922,1.122 2.918,0.957 2.922,0.863 2.93,0.777 2.918,0.75 2.922,0.731 2.922,0.742 2.917,0.758 2.922,0.789 2.918,0.832 2.922,0.859 2.918,0.899 v -23.918 l -2.918,0.718 -2.922,0.641 -2.918,0.539 -2.922,0.402 -2.917,0.239 -2.922,0.039 -2.922,-0.18 -2.918,-0.398 -2.93,-0.641 -2.922,-0.879 -2.918,-1.121 -2.922,-1.359 -2.918,-1.582 -2.921,-1.809 -2.918,-2.039 -2.922,-2.27 -2.918,-2.5 -2.922,-2.742 -2.918,-2.988 -2.93,-3.262 -2.922,-3.551 -2.918,-3.847 -2.922,-4.172 -2.917,-4.469 -2.922,-4.719 -2.922,-4.929 -2.918,-5.09 -2.922,-5.192 -2.918,-5.21 -2.922,-5.122 -2.93,-4.949 -2.918,-4.64 -2.921,-4.231 -2.918,-3.707 -2.922,-3.082 -2.918,-2.359 -2.922,-1.578 -2.918,-0.883 -2.922,-0.34 -2.918,0.07 -2.922,0.332 -2.93,0.469 -2.917,0.5 -2.922,0.488 -2.922,0.453 -2.918,0.368 -2.922,0.281 -2.918,0.172 -2.922,-0.012 -2.918,-0.219 -2.922,-0.453 -2.918,-0.699 -2.929,-0.949 -2.922,-1.168 -2.918,-1.282 -2.922,-1.261 -2.918,-1.078 -2.922,-0.719 -2.918,-0.391 -2.922,-0.179 -2.918,-0.161 -2.922,-0.242 -2.918,-0.301 -2.933,-0.257 -2.918,-0.09 -2.922,0.129 -2.918,0.191 -2.922,0.02 -2.918,-0.172 -2.922,-0.18 H 68.613 L 65.691,39.102 62.773,38.93 59.844,38.66 56.922,38.559 54.004,38.32 51.082,37.551 48.164,36.102 45.242,33.711 Z"
                   style="fill:#999999;fill-opacity:0.4;fill-rule:nonzero;stroke:none"
                   id="path96"
                   inkscape:connector-curvature="0" /><g
                   id="g98"
                   transform="translate(0,169)"><path
                     d="m 45.242,-127.648 2.922,0.148 2.918,0.141 2.922,0.129 2.918,0.128 2.922,0.133 2.929,0.129 2.918,0.129 2.922,0.102 2.918,0.078 2.922,0.051 2.918,0.039 2.922,0.031 2.918,0.019 2.922,0.039 2.918,0.063 2.933,0.109 2.918,0.192 2.922,0.289 2.918,0.418 2.922,0.582 2.918,0.769 2.922,0.981 2.918,1.168 2.922,1.281 2.918,1.34 2.922,1.308 2.929,1.223 2.918,1.059 2.922,0.82 2.918,0.52 2.922,0.152 2.918,-0.184 2.922,-0.418 2.918,-0.57 2.922,-0.648 2.922,-0.641 2.917,-0.539 2.93,-0.363 2.922,-0.09 2.918,0.269 2.922,0.703 2.918,1.219 2.922,1.828 2.918,2.5 2.922,3.102 2.918,3.629 2.921,4.082 2.918,4.469 2.93,4.761 2.922,5 2.918,5.141 2.922,5.219 2.918,5.218 2.922,5.141 2.922,4.988 2.917,4.762 2.922,4.449 2.918,4.09 2.922,3.731 2.93,3.378 2.918,3.051 2.922,2.742 2.918,2.438 2.922,2.172 2.918,1.91 2.921,1.66 2.918,1.438 2.922,1.242 2.918,1.039 2.922,0.871 2.93,0.711 2.918,0.578 2.922,0.449 2.922,0.352 2.917,0.258 2.922,0.203 2.918,0.136 2.922,0.114 2.918,0.09"
                     style="fill:none;stroke:#000000;stroke-width:3.5461421;stroke-linecap:butt;stroke-linejoin:round;stroke-miterlimit:10;stroke-dasharray:none;stroke-opacity:1"
                     id="path100"
                     inkscape:connector-curvature="0" /></g><g
                   id="g102"
                   transform="translate(0,169)"><path
                     d="M 33.703,0 H 287.531 V -141.73 H 33.703 Z"
                     style="fill:none;stroke:#333333;stroke-width:1.07000005;stroke-linecap:round;stroke-linejoin:round;stroke-miterlimit:10;stroke-dasharray:none;stroke-opacity:1"
                     id="path104"
                     inkscape:connector-curvature="0" /></g></g></g></g></g></g></g><g
       id="g106"><text
         transform="matrix(1,0,0,-1,23.772611,29.487992)"
         style="font-variant:normal;font-size:9px;font-family:'Nimbus Sans L';-inkscape-font-specification:NimbusSanL-Regu;writing-mode:lr-tb;fill:#4d4d4d;fill-opacity:1;fill-rule:nonzero;stroke:none"
         id="text114"><tspan
           x="0"
           y="0"
           id="tspan108">0</tspan><tspan
           x="-10.500003 -5.4960032 -0.49200299"
           y="-48.619999"
           sodipodi:role="line"
           id="tspan110">100</tspan><tspan
           x="-10.500003 -5.4960032 -0.49200299"
           y="-97.239998"
           sodipodi:role="line"
           id="tspan112">200</tspan></text>
<g
         id="g116"
         transform="translate(0,168.79799)"><path
           d="m 30.961,-136.078 h 2.742"
           style="fill:none;stroke:#333333;stroke-width:1.07000005;stroke-linecap:butt;stroke-linejoin:round;stroke-miterlimit:10;stroke-dasharray:none;stroke-opacity:1"
           id="path118"
           inkscape:connector-curvature="0" /></g><g
         id="g120"
         transform="translate(0,168.79799)"><path
           d="m 30.961,-87.461 h 2.742"
           style="fill:none;stroke:#333333;stroke-width:1.07000005;stroke-linecap:butt;stroke-linejoin:round;stroke-miterlimit:10;stroke-dasharray:none;stroke-opacity:1"
           id="path122"
           inkscape:connector-curvature="0" /></g><g
         id="g124"
         transform="translate(0,168.79799)"><path
           d="m 30.961,-38.84 h 2.742"
           style="fill:none;stroke:#333333;stroke-width:1.07000005;stroke-linecap:butt;stroke-linejoin:round;stroke-miterlimit:10;stroke-dasharray:none;stroke-opacity:1"
           id="path126"
           inkscape:connector-curvature="0" /></g><g
         id="g128"
         transform="translate(0,168.79799)"><path
           d="m 44.074,-144.469 v 2.739"
           style="fill:none;stroke:#333333;stroke-width:1.07000005;stroke-linecap:butt;stroke-linejoin:round;stroke-miterlimit:10;stroke-dasharray:none;stroke-opacity:1"
           id="path130"
           inkscape:connector-curvature="0" /></g><g
         id="g132"
         transform="translate(0,168.79799)"><path
           d="m 102.051,-144.469 v 2.739"
           style="fill:none;stroke:#333333;stroke-width:1.07000005;stroke-linecap:butt;stroke-linejoin:round;stroke-miterlimit:10;stroke-dasharray:none;stroke-opacity:1"
           id="path134"
           inkscape:connector-curvature="0" /></g><g
         id="g136"
         transform="translate(0,168.79799)"><path
           d="m 160.031,-144.469 v 2.739"
           style="fill:none;stroke:#333333;stroke-width:1.07000005;stroke-linecap:butt;stroke-linejoin:round;stroke-miterlimit:10;stroke-dasharray:none;stroke-opacity:1"
           id="path138"
           inkscape:connector-curvature="0" /></g><g
         id="g140"
         transform="translate(0,168.79799)"><path
           d="m 218.012,-144.469 v 2.739"
           style="fill:none;stroke:#333333;stroke-width:1.07000005;stroke-linecap:butt;stroke-linejoin:round;stroke-miterlimit:10;stroke-dasharray:none;stroke-opacity:1"
           id="path142"
           inkscape:connector-curvature="0" /></g><g
         id="g144"
         transform="translate(0,168.79799)"><path
           d="m 275.992,-144.469 v 2.739"
           style="fill:none;stroke:#333333;stroke-width:1.07000005;stroke-linecap:butt;stroke-linejoin:round;stroke-miterlimit:10;stroke-dasharray:none;stroke-opacity:1"
           id="path146"
           inkscape:connector-curvature="0" /></g><text
         transform="matrix(1,0,0,-1,37.57261,15.677993)"
         style="font-variant:normal;font-size:9px;font-family:'Nimbus Sans L';-inkscape-font-specification:NimbusSanL-Regu;writing-mode:lr-tb;fill:#4d4d4d;fill-opacity:1;fill-rule:nonzero;stroke:none"
         id="text150"><tspan
           x="0 5.0040002 55.485001 60.488998 65.492996 113.463 118.467 123.471 171.44 176.444 181.448 226.925 231.929 236.933 241.937"
           y="0"
           sodipodi:role="line"
           id="tspan148">0%25%50%75%100%</tspan></text>
<text
         transform="matrix(1,0,0,-1,89.362609,2.397993)"
         style="font-variant:normal;font-size:11px;font-family:'Nimbus Sans L';-inkscape-font-specification:NimbusSanL-Regu;writing-mode:lr-tb;fill:#000000;fill-opacity:1;fill-rule:nonzero;stroke:none"
         id="text154"><tspan
           x="0 6.1160002 12.232 15.895 21.395 27.511 33.626999 36.685001 42.800999 48.917 55.033001 58.091 64.207001 67.264999 70.322998 76.439003 81.939003 84.997002 87.439003 92.675003 98.791 101.849 107.074 113.19 116.853 122.353 124.795 130.911 137.02699"
           y="0"
           sodipodi:role="line"
           id="tspan152">percentage of active versions</tspan></text>
<text
         transform="matrix(0,1,1,0,8.052,47.007995)"
         style="font-variant:normal;font-size:11px;font-family:'Nimbus Sans L';-inkscape-font-specification:NimbusSanL-Regu;writing-mode:lr-tb;fill:#000000;fill-opacity:1;fill-rule:nonzero;stroke:none"
         id="text158"><tspan
           x="0 6.1160002 12.232 18.348 24.464001 26.906 33.021999 36.849998 39.292 42.349998 47.849998 50.908001 57.023998 60.082001 63.139999 65.582001 68.024002 74.139999 77.803001 83.952003 87.614998 90.056999 96.172997"
           y="0"
           sodipodi:role="line"
           id="tspan156">popularity of libraries</tspan></text>
</g></g></svg>